%TF.GenerationSoftware,KiCad,Pcbnew,8.0.0*%
%TF.CreationDate,2025-01-17T03:21:33+02:00*%
%TF.ProjectId,diplomna_2024_bms_pcb_layout,6469706c-6f6d-46e6-915f-323032345f62,rev?*%
%TF.SameCoordinates,Original*%
%TF.FileFunction,Copper,L3,Inr*%
%TF.FilePolarity,Positive*%
%FSLAX46Y46*%
G04 Gerber Fmt 4.6, Leading zero omitted, Abs format (unit mm)*
G04 Created by KiCad (PCBNEW 8.0.0) date 2025-01-17 03:21:33*
%MOMM*%
%LPD*%
G01*
G04 APERTURE LIST*
%TA.AperFunction,ComponentPad*%
%ADD10R,1.500000X1.500000*%
%TD*%
%TA.AperFunction,ComponentPad*%
%ADD11C,1.500000*%
%TD*%
%TA.AperFunction,ViaPad*%
%ADD12C,0.600000*%
%TD*%
%TA.AperFunction,Conductor*%
%ADD13C,0.200000*%
%TD*%
G04 APERTURE END LIST*
D10*
%TO.N,GND*%
%TO.C,J\u002A\u002A*%
X251000000Y-53500000D03*
D11*
X249000000Y-53500000D03*
%TO.N,N/C*%
X247000000Y-53500000D03*
X245000000Y-53500000D03*
X243000000Y-53500000D03*
X241000000Y-53500000D03*
X239000000Y-53500000D03*
X237000000Y-53500000D03*
X235000000Y-53500000D03*
X233000000Y-53500000D03*
X231000000Y-53500000D03*
X229000000Y-53500000D03*
X227000000Y-53500000D03*
X225000000Y-53500000D03*
X223000000Y-53500000D03*
X221000000Y-53500000D03*
X219000000Y-53500000D03*
X217000000Y-53500000D03*
X215000000Y-53500000D03*
X213000000Y-53500000D03*
X211000000Y-53500000D03*
X209000000Y-53500000D03*
X207000000Y-53500000D03*
X205000000Y-53500000D03*
X203000000Y-53500000D03*
X201000000Y-53500000D03*
X199000000Y-53500000D03*
X197000000Y-53500000D03*
X195000000Y-53500000D03*
%TO.N,GND*%
X193000000Y-53500000D03*
X251000000Y-55500000D03*
%TO.N,N/C*%
X249000000Y-55500000D03*
X247000000Y-55500000D03*
X245000000Y-55500000D03*
X243000000Y-55500000D03*
X241000000Y-55500000D03*
X239000000Y-55500000D03*
X237000000Y-55500000D03*
X235000000Y-55500000D03*
X233000000Y-55500000D03*
X231000000Y-55500000D03*
X229000000Y-55500000D03*
X227000000Y-55500000D03*
X225000000Y-55500000D03*
X223000000Y-55500000D03*
X221000000Y-55500000D03*
X219000000Y-55500000D03*
X217000000Y-55500000D03*
X215000000Y-55500000D03*
X213000000Y-55500000D03*
X211000000Y-55500000D03*
X209000000Y-55500000D03*
X207000000Y-55500000D03*
X205000000Y-55500000D03*
X203000000Y-55500000D03*
X201000000Y-55500000D03*
X199000000Y-55500000D03*
X197000000Y-55500000D03*
X195000000Y-55500000D03*
X193000000Y-55500000D03*
%TO.N,VDD*%
X251000000Y-57500000D03*
%TO.N,N/C*%
X249000000Y-57500000D03*
X247000000Y-57500000D03*
X245000000Y-57500000D03*
X243000000Y-57500000D03*
X241000000Y-57500000D03*
X239000000Y-57500000D03*
X237000000Y-57500000D03*
X235000000Y-57500000D03*
X233000000Y-57500000D03*
X231000000Y-57500000D03*
X229000000Y-57500000D03*
X227000000Y-57500000D03*
X225000000Y-57500000D03*
X223000000Y-57500000D03*
X221000000Y-57500000D03*
X219000000Y-57500000D03*
X217000000Y-57500000D03*
X215000000Y-57500000D03*
X213000000Y-57500000D03*
X211000000Y-57500000D03*
X209000000Y-57500000D03*
X207000000Y-57500000D03*
X205000000Y-57500000D03*
X203000000Y-57500000D03*
X201000000Y-57500000D03*
X199000000Y-57500000D03*
X197000000Y-57500000D03*
X195000000Y-57500000D03*
X193000000Y-57500000D03*
%TO.N,VDD*%
X251000000Y-59500000D03*
%TO.N,N/C*%
X249000000Y-59500000D03*
X247000000Y-59500000D03*
X245000000Y-59500000D03*
X243000000Y-59500000D03*
X241000000Y-59500000D03*
X239000000Y-59500000D03*
X237000000Y-59500000D03*
X235000000Y-59500000D03*
X233000000Y-59500000D03*
X231000000Y-59500000D03*
X229000000Y-59500000D03*
X227000000Y-59500000D03*
X225000000Y-59500000D03*
X223000000Y-59500000D03*
X221000000Y-59500000D03*
X219000000Y-59500000D03*
X217000000Y-59500000D03*
X215000000Y-59500000D03*
X213000000Y-59500000D03*
X211000000Y-59500000D03*
X209000000Y-59500000D03*
X207000000Y-59500000D03*
X205000000Y-59500000D03*
X203000000Y-59500000D03*
X201000000Y-59500000D03*
X199000000Y-59500000D03*
X197000000Y-59500000D03*
X195000000Y-59500000D03*
X193000000Y-59500000D03*
%TD*%
D12*
%TO.N,GND*%
X266000000Y-106000000D03*
X179500000Y-118500000D03*
%TO.N,VDD*%
X242000000Y-101000000D03*
%TD*%
D13*
%TO.N,*%
X212400000Y-60100000D02*
X213000000Y-59500000D01*
%TD*%
M02*
