%TF.GenerationSoftware,KiCad,Pcbnew,8.0.0*%
%TF.CreationDate,2025-01-17T03:21:35+02:00*%
%TF.ProjectId,diplomna_2024_bms_pcb_layout,6469706c-6f6d-46e6-915f-323032345f62,rev?*%
%TF.SameCoordinates,Original*%
%TF.FileFunction,Drillmap*%
%TF.FilePolarity,Positive*%
%FSLAX45Y45*%
G04 Gerber Fmt 4.5, Leading zero omitted, Abs format (unit mm)*
G04 Created by KiCad (PCBNEW 8.0.0) date 2025-01-17 03:21:35*
%MOMM*%
%LPD*%
G01*
G04 APERTURE LIST*
%ADD10C,0.050000*%
%ADD11C,0.200000*%
%ADD12C,0.100000*%
G04 APERTURE END LIST*
D10*
X18000000Y-4950000D02*
X26500000Y-4950000D01*
X27000000Y-6000000D02*
X27000000Y-14450000D01*
X26500000Y-6000000D02*
X27000000Y-6000000D01*
X27000000Y-14450000D02*
X17500000Y-14450000D01*
X17500000Y-14450000D02*
X17500000Y-6000000D01*
X18000000Y-6000000D02*
X18000000Y-4950000D01*
X17500000Y-6000000D02*
X18000000Y-6000000D01*
X26500000Y-4950000D02*
X26500000Y-6000000D01*
D11*
D12*
X17935000Y-11835000D02*
X17965000Y-11865000D01*
X17965000Y-11835000D02*
X17935000Y-11865000D01*
X24185000Y-10085000D02*
X24215000Y-10115000D01*
X24215000Y-10085000D02*
X24185000Y-10115000D01*
X26585000Y-10585000D02*
X26615000Y-10615000D01*
X26615000Y-10585000D02*
X26585000Y-10615000D01*
X19350000Y-5350000D02*
G75*
G02*
X19250000Y-5350000I-50000J0D01*
G01*
X19250000Y-5350000D02*
G75*
G02*
X19350000Y-5350000I50000J0D01*
G01*
X19350000Y-5550000D02*
G75*
G02*
X19250000Y-5550000I-50000J0D01*
G01*
X19250000Y-5550000D02*
G75*
G02*
X19350000Y-5550000I50000J0D01*
G01*
X19350000Y-5750000D02*
G75*
G02*
X19250000Y-5750000I-50000J0D01*
G01*
X19250000Y-5750000D02*
G75*
G02*
X19350000Y-5750000I50000J0D01*
G01*
X19350000Y-5950000D02*
G75*
G02*
X19250000Y-5950000I-50000J0D01*
G01*
X19250000Y-5950000D02*
G75*
G02*
X19350000Y-5950000I50000J0D01*
G01*
X19550000Y-5350000D02*
G75*
G02*
X19450000Y-5350000I-50000J0D01*
G01*
X19450000Y-5350000D02*
G75*
G02*
X19550000Y-5350000I50000J0D01*
G01*
X19550000Y-5550000D02*
G75*
G02*
X19450000Y-5550000I-50000J0D01*
G01*
X19450000Y-5550000D02*
G75*
G02*
X19550000Y-5550000I50000J0D01*
G01*
X19550000Y-5750000D02*
G75*
G02*
X19450000Y-5750000I-50000J0D01*
G01*
X19450000Y-5750000D02*
G75*
G02*
X19550000Y-5750000I50000J0D01*
G01*
X19550000Y-5950000D02*
G75*
G02*
X19450000Y-5950000I-50000J0D01*
G01*
X19450000Y-5950000D02*
G75*
G02*
X19550000Y-5950000I50000J0D01*
G01*
X19750000Y-5350000D02*
G75*
G02*
X19650000Y-5350000I-50000J0D01*
G01*
X19650000Y-5350000D02*
G75*
G02*
X19750000Y-5350000I50000J0D01*
G01*
X19750000Y-5550000D02*
G75*
G02*
X19650000Y-5550000I-50000J0D01*
G01*
X19650000Y-5550000D02*
G75*
G02*
X19750000Y-5550000I50000J0D01*
G01*
X19750000Y-5750000D02*
G75*
G02*
X19650000Y-5750000I-50000J0D01*
G01*
X19650000Y-5750000D02*
G75*
G02*
X19750000Y-5750000I50000J0D01*
G01*
X19750000Y-5950000D02*
G75*
G02*
X19650000Y-5950000I-50000J0D01*
G01*
X19650000Y-5950000D02*
G75*
G02*
X19750000Y-5950000I50000J0D01*
G01*
X19950000Y-5350000D02*
G75*
G02*
X19850000Y-5350000I-50000J0D01*
G01*
X19850000Y-5350000D02*
G75*
G02*
X19950000Y-5350000I50000J0D01*
G01*
X19950000Y-5550000D02*
G75*
G02*
X19850000Y-5550000I-50000J0D01*
G01*
X19850000Y-5550000D02*
G75*
G02*
X19950000Y-5550000I50000J0D01*
G01*
X19950000Y-5750000D02*
G75*
G02*
X19850000Y-5750000I-50000J0D01*
G01*
X19850000Y-5750000D02*
G75*
G02*
X19950000Y-5750000I50000J0D01*
G01*
X19950000Y-5950000D02*
G75*
G02*
X19850000Y-5950000I-50000J0D01*
G01*
X19850000Y-5950000D02*
G75*
G02*
X19950000Y-5950000I50000J0D01*
G01*
X20150000Y-5350000D02*
G75*
G02*
X20050000Y-5350000I-50000J0D01*
G01*
X20050000Y-5350000D02*
G75*
G02*
X20150000Y-5350000I50000J0D01*
G01*
X20150000Y-5550000D02*
G75*
G02*
X20050000Y-5550000I-50000J0D01*
G01*
X20050000Y-5550000D02*
G75*
G02*
X20150000Y-5550000I50000J0D01*
G01*
X20150000Y-5750000D02*
G75*
G02*
X20050000Y-5750000I-50000J0D01*
G01*
X20050000Y-5750000D02*
G75*
G02*
X20150000Y-5750000I50000J0D01*
G01*
X20150000Y-5950000D02*
G75*
G02*
X20050000Y-5950000I-50000J0D01*
G01*
X20050000Y-5950000D02*
G75*
G02*
X20150000Y-5950000I50000J0D01*
G01*
X20350000Y-5350000D02*
G75*
G02*
X20250000Y-5350000I-50000J0D01*
G01*
X20250000Y-5350000D02*
G75*
G02*
X20350000Y-5350000I50000J0D01*
G01*
X20350000Y-5550000D02*
G75*
G02*
X20250000Y-5550000I-50000J0D01*
G01*
X20250000Y-5550000D02*
G75*
G02*
X20350000Y-5550000I50000J0D01*
G01*
X20350000Y-5750000D02*
G75*
G02*
X20250000Y-5750000I-50000J0D01*
G01*
X20250000Y-5750000D02*
G75*
G02*
X20350000Y-5750000I50000J0D01*
G01*
X20350000Y-5950000D02*
G75*
G02*
X20250000Y-5950000I-50000J0D01*
G01*
X20250000Y-5950000D02*
G75*
G02*
X20350000Y-5950000I50000J0D01*
G01*
X20550000Y-5350000D02*
G75*
G02*
X20450000Y-5350000I-50000J0D01*
G01*
X20450000Y-5350000D02*
G75*
G02*
X20550000Y-5350000I50000J0D01*
G01*
X20550000Y-5550000D02*
G75*
G02*
X20450000Y-5550000I-50000J0D01*
G01*
X20450000Y-5550000D02*
G75*
G02*
X20550000Y-5550000I50000J0D01*
G01*
X20550000Y-5750000D02*
G75*
G02*
X20450000Y-5750000I-50000J0D01*
G01*
X20450000Y-5750000D02*
G75*
G02*
X20550000Y-5750000I50000J0D01*
G01*
X20550000Y-5950000D02*
G75*
G02*
X20450000Y-5950000I-50000J0D01*
G01*
X20450000Y-5950000D02*
G75*
G02*
X20550000Y-5950000I50000J0D01*
G01*
X20750000Y-5350000D02*
G75*
G02*
X20650000Y-5350000I-50000J0D01*
G01*
X20650000Y-5350000D02*
G75*
G02*
X20750000Y-5350000I50000J0D01*
G01*
X20750000Y-5550000D02*
G75*
G02*
X20650000Y-5550000I-50000J0D01*
G01*
X20650000Y-5550000D02*
G75*
G02*
X20750000Y-5550000I50000J0D01*
G01*
X20750000Y-5750000D02*
G75*
G02*
X20650000Y-5750000I-50000J0D01*
G01*
X20650000Y-5750000D02*
G75*
G02*
X20750000Y-5750000I50000J0D01*
G01*
X20750000Y-5950000D02*
G75*
G02*
X20650000Y-5950000I-50000J0D01*
G01*
X20650000Y-5950000D02*
G75*
G02*
X20750000Y-5950000I50000J0D01*
G01*
X20950000Y-5350000D02*
G75*
G02*
X20850000Y-5350000I-50000J0D01*
G01*
X20850000Y-5350000D02*
G75*
G02*
X20950000Y-5350000I50000J0D01*
G01*
X20950000Y-5550000D02*
G75*
G02*
X20850000Y-5550000I-50000J0D01*
G01*
X20850000Y-5550000D02*
G75*
G02*
X20950000Y-5550000I50000J0D01*
G01*
X20950000Y-5750000D02*
G75*
G02*
X20850000Y-5750000I-50000J0D01*
G01*
X20850000Y-5750000D02*
G75*
G02*
X20950000Y-5750000I50000J0D01*
G01*
X20950000Y-5950000D02*
G75*
G02*
X20850000Y-5950000I-50000J0D01*
G01*
X20850000Y-5950000D02*
G75*
G02*
X20950000Y-5950000I50000J0D01*
G01*
X21150000Y-5350000D02*
G75*
G02*
X21050000Y-5350000I-50000J0D01*
G01*
X21050000Y-5350000D02*
G75*
G02*
X21150000Y-5350000I50000J0D01*
G01*
X21150000Y-5550000D02*
G75*
G02*
X21050000Y-5550000I-50000J0D01*
G01*
X21050000Y-5550000D02*
G75*
G02*
X21150000Y-5550000I50000J0D01*
G01*
X21150000Y-5750000D02*
G75*
G02*
X21050000Y-5750000I-50000J0D01*
G01*
X21050000Y-5750000D02*
G75*
G02*
X21150000Y-5750000I50000J0D01*
G01*
X21150000Y-5950000D02*
G75*
G02*
X21050000Y-5950000I-50000J0D01*
G01*
X21050000Y-5950000D02*
G75*
G02*
X21150000Y-5950000I50000J0D01*
G01*
X21350000Y-5350000D02*
G75*
G02*
X21250000Y-5350000I-50000J0D01*
G01*
X21250000Y-5350000D02*
G75*
G02*
X21350000Y-5350000I50000J0D01*
G01*
X21350000Y-5550000D02*
G75*
G02*
X21250000Y-5550000I-50000J0D01*
G01*
X21250000Y-5550000D02*
G75*
G02*
X21350000Y-5550000I50000J0D01*
G01*
X21350000Y-5750000D02*
G75*
G02*
X21250000Y-5750000I-50000J0D01*
G01*
X21250000Y-5750000D02*
G75*
G02*
X21350000Y-5750000I50000J0D01*
G01*
X21350000Y-5950000D02*
G75*
G02*
X21250000Y-5950000I-50000J0D01*
G01*
X21250000Y-5950000D02*
G75*
G02*
X21350000Y-5950000I50000J0D01*
G01*
X21550000Y-5350000D02*
G75*
G02*
X21450000Y-5350000I-50000J0D01*
G01*
X21450000Y-5350000D02*
G75*
G02*
X21550000Y-5350000I50000J0D01*
G01*
X21550000Y-5550000D02*
G75*
G02*
X21450000Y-5550000I-50000J0D01*
G01*
X21450000Y-5550000D02*
G75*
G02*
X21550000Y-5550000I50000J0D01*
G01*
X21550000Y-5750000D02*
G75*
G02*
X21450000Y-5750000I-50000J0D01*
G01*
X21450000Y-5750000D02*
G75*
G02*
X21550000Y-5750000I50000J0D01*
G01*
X21550000Y-5950000D02*
G75*
G02*
X21450000Y-5950000I-50000J0D01*
G01*
X21450000Y-5950000D02*
G75*
G02*
X21550000Y-5950000I50000J0D01*
G01*
X21750000Y-5350000D02*
G75*
G02*
X21650000Y-5350000I-50000J0D01*
G01*
X21650000Y-5350000D02*
G75*
G02*
X21750000Y-5350000I50000J0D01*
G01*
X21750000Y-5550000D02*
G75*
G02*
X21650000Y-5550000I-50000J0D01*
G01*
X21650000Y-5550000D02*
G75*
G02*
X21750000Y-5550000I50000J0D01*
G01*
X21750000Y-5750000D02*
G75*
G02*
X21650000Y-5750000I-50000J0D01*
G01*
X21650000Y-5750000D02*
G75*
G02*
X21750000Y-5750000I50000J0D01*
G01*
X21750000Y-5950000D02*
G75*
G02*
X21650000Y-5950000I-50000J0D01*
G01*
X21650000Y-5950000D02*
G75*
G02*
X21750000Y-5950000I50000J0D01*
G01*
X21950000Y-5350000D02*
G75*
G02*
X21850000Y-5350000I-50000J0D01*
G01*
X21850000Y-5350000D02*
G75*
G02*
X21950000Y-5350000I50000J0D01*
G01*
X21950000Y-5550000D02*
G75*
G02*
X21850000Y-5550000I-50000J0D01*
G01*
X21850000Y-5550000D02*
G75*
G02*
X21950000Y-5550000I50000J0D01*
G01*
X21950000Y-5750000D02*
G75*
G02*
X21850000Y-5750000I-50000J0D01*
G01*
X21850000Y-5750000D02*
G75*
G02*
X21950000Y-5750000I50000J0D01*
G01*
X21950000Y-5950000D02*
G75*
G02*
X21850000Y-5950000I-50000J0D01*
G01*
X21850000Y-5950000D02*
G75*
G02*
X21950000Y-5950000I50000J0D01*
G01*
X22150000Y-5350000D02*
G75*
G02*
X22050000Y-5350000I-50000J0D01*
G01*
X22050000Y-5350000D02*
G75*
G02*
X22150000Y-5350000I50000J0D01*
G01*
X22150000Y-5550000D02*
G75*
G02*
X22050000Y-5550000I-50000J0D01*
G01*
X22050000Y-5550000D02*
G75*
G02*
X22150000Y-5550000I50000J0D01*
G01*
X22150000Y-5750000D02*
G75*
G02*
X22050000Y-5750000I-50000J0D01*
G01*
X22050000Y-5750000D02*
G75*
G02*
X22150000Y-5750000I50000J0D01*
G01*
X22150000Y-5950000D02*
G75*
G02*
X22050000Y-5950000I-50000J0D01*
G01*
X22050000Y-5950000D02*
G75*
G02*
X22150000Y-5950000I50000J0D01*
G01*
X22350000Y-5350000D02*
G75*
G02*
X22250000Y-5350000I-50000J0D01*
G01*
X22250000Y-5350000D02*
G75*
G02*
X22350000Y-5350000I50000J0D01*
G01*
X22350000Y-5550000D02*
G75*
G02*
X22250000Y-5550000I-50000J0D01*
G01*
X22250000Y-5550000D02*
G75*
G02*
X22350000Y-5550000I50000J0D01*
G01*
X22350000Y-5750000D02*
G75*
G02*
X22250000Y-5750000I-50000J0D01*
G01*
X22250000Y-5750000D02*
G75*
G02*
X22350000Y-5750000I50000J0D01*
G01*
X22350000Y-5950000D02*
G75*
G02*
X22250000Y-5950000I-50000J0D01*
G01*
X22250000Y-5950000D02*
G75*
G02*
X22350000Y-5950000I50000J0D01*
G01*
X22550000Y-5350000D02*
G75*
G02*
X22450000Y-5350000I-50000J0D01*
G01*
X22450000Y-5350000D02*
G75*
G02*
X22550000Y-5350000I50000J0D01*
G01*
X22550000Y-5550000D02*
G75*
G02*
X22450000Y-5550000I-50000J0D01*
G01*
X22450000Y-5550000D02*
G75*
G02*
X22550000Y-5550000I50000J0D01*
G01*
X22550000Y-5750000D02*
G75*
G02*
X22450000Y-5750000I-50000J0D01*
G01*
X22450000Y-5750000D02*
G75*
G02*
X22550000Y-5750000I50000J0D01*
G01*
X22550000Y-5950000D02*
G75*
G02*
X22450000Y-5950000I-50000J0D01*
G01*
X22450000Y-5950000D02*
G75*
G02*
X22550000Y-5950000I50000J0D01*
G01*
X22750000Y-5350000D02*
G75*
G02*
X22650000Y-5350000I-50000J0D01*
G01*
X22650000Y-5350000D02*
G75*
G02*
X22750000Y-5350000I50000J0D01*
G01*
X22750000Y-5550000D02*
G75*
G02*
X22650000Y-5550000I-50000J0D01*
G01*
X22650000Y-5550000D02*
G75*
G02*
X22750000Y-5550000I50000J0D01*
G01*
X22750000Y-5750000D02*
G75*
G02*
X22650000Y-5750000I-50000J0D01*
G01*
X22650000Y-5750000D02*
G75*
G02*
X22750000Y-5750000I50000J0D01*
G01*
X22750000Y-5950000D02*
G75*
G02*
X22650000Y-5950000I-50000J0D01*
G01*
X22650000Y-5950000D02*
G75*
G02*
X22750000Y-5950000I50000J0D01*
G01*
X22950000Y-5350000D02*
G75*
G02*
X22850000Y-5350000I-50000J0D01*
G01*
X22850000Y-5350000D02*
G75*
G02*
X22950000Y-5350000I50000J0D01*
G01*
X22950000Y-5550000D02*
G75*
G02*
X22850000Y-5550000I-50000J0D01*
G01*
X22850000Y-5550000D02*
G75*
G02*
X22950000Y-5550000I50000J0D01*
G01*
X22950000Y-5750000D02*
G75*
G02*
X22850000Y-5750000I-50000J0D01*
G01*
X22850000Y-5750000D02*
G75*
G02*
X22950000Y-5750000I50000J0D01*
G01*
X22950000Y-5950000D02*
G75*
G02*
X22850000Y-5950000I-50000J0D01*
G01*
X22850000Y-5950000D02*
G75*
G02*
X22950000Y-5950000I50000J0D01*
G01*
X23150000Y-5350000D02*
G75*
G02*
X23050000Y-5350000I-50000J0D01*
G01*
X23050000Y-5350000D02*
G75*
G02*
X23150000Y-5350000I50000J0D01*
G01*
X23150000Y-5550000D02*
G75*
G02*
X23050000Y-5550000I-50000J0D01*
G01*
X23050000Y-5550000D02*
G75*
G02*
X23150000Y-5550000I50000J0D01*
G01*
X23150000Y-5750000D02*
G75*
G02*
X23050000Y-5750000I-50000J0D01*
G01*
X23050000Y-5750000D02*
G75*
G02*
X23150000Y-5750000I50000J0D01*
G01*
X23150000Y-5950000D02*
G75*
G02*
X23050000Y-5950000I-50000J0D01*
G01*
X23050000Y-5950000D02*
G75*
G02*
X23150000Y-5950000I50000J0D01*
G01*
X23350000Y-5350000D02*
G75*
G02*
X23250000Y-5350000I-50000J0D01*
G01*
X23250000Y-5350000D02*
G75*
G02*
X23350000Y-5350000I50000J0D01*
G01*
X23350000Y-5550000D02*
G75*
G02*
X23250000Y-5550000I-50000J0D01*
G01*
X23250000Y-5550000D02*
G75*
G02*
X23350000Y-5550000I50000J0D01*
G01*
X23350000Y-5750000D02*
G75*
G02*
X23250000Y-5750000I-50000J0D01*
G01*
X23250000Y-5750000D02*
G75*
G02*
X23350000Y-5750000I50000J0D01*
G01*
X23350000Y-5950000D02*
G75*
G02*
X23250000Y-5950000I-50000J0D01*
G01*
X23250000Y-5950000D02*
G75*
G02*
X23350000Y-5950000I50000J0D01*
G01*
X23550000Y-5350000D02*
G75*
G02*
X23450000Y-5350000I-50000J0D01*
G01*
X23450000Y-5350000D02*
G75*
G02*
X23550000Y-5350000I50000J0D01*
G01*
X23550000Y-5550000D02*
G75*
G02*
X23450000Y-5550000I-50000J0D01*
G01*
X23450000Y-5550000D02*
G75*
G02*
X23550000Y-5550000I50000J0D01*
G01*
X23550000Y-5750000D02*
G75*
G02*
X23450000Y-5750000I-50000J0D01*
G01*
X23450000Y-5750000D02*
G75*
G02*
X23550000Y-5750000I50000J0D01*
G01*
X23550000Y-5950000D02*
G75*
G02*
X23450000Y-5950000I-50000J0D01*
G01*
X23450000Y-5950000D02*
G75*
G02*
X23550000Y-5950000I50000J0D01*
G01*
X23750000Y-5350000D02*
G75*
G02*
X23650000Y-5350000I-50000J0D01*
G01*
X23650000Y-5350000D02*
G75*
G02*
X23750000Y-5350000I50000J0D01*
G01*
X23750000Y-5550000D02*
G75*
G02*
X23650000Y-5550000I-50000J0D01*
G01*
X23650000Y-5550000D02*
G75*
G02*
X23750000Y-5550000I50000J0D01*
G01*
X23750000Y-5750000D02*
G75*
G02*
X23650000Y-5750000I-50000J0D01*
G01*
X23650000Y-5750000D02*
G75*
G02*
X23750000Y-5750000I50000J0D01*
G01*
X23750000Y-5950000D02*
G75*
G02*
X23650000Y-5950000I-50000J0D01*
G01*
X23650000Y-5950000D02*
G75*
G02*
X23750000Y-5950000I50000J0D01*
G01*
X23950000Y-5350000D02*
G75*
G02*
X23850000Y-5350000I-50000J0D01*
G01*
X23850000Y-5350000D02*
G75*
G02*
X23950000Y-5350000I50000J0D01*
G01*
X23950000Y-5550000D02*
G75*
G02*
X23850000Y-5550000I-50000J0D01*
G01*
X23850000Y-5550000D02*
G75*
G02*
X23950000Y-5550000I50000J0D01*
G01*
X23950000Y-5750000D02*
G75*
G02*
X23850000Y-5750000I-50000J0D01*
G01*
X23850000Y-5750000D02*
G75*
G02*
X23950000Y-5750000I50000J0D01*
G01*
X23950000Y-5950000D02*
G75*
G02*
X23850000Y-5950000I-50000J0D01*
G01*
X23850000Y-5950000D02*
G75*
G02*
X23950000Y-5950000I50000J0D01*
G01*
X24150000Y-5350000D02*
G75*
G02*
X24050000Y-5350000I-50000J0D01*
G01*
X24050000Y-5350000D02*
G75*
G02*
X24150000Y-5350000I50000J0D01*
G01*
X24150000Y-5550000D02*
G75*
G02*
X24050000Y-5550000I-50000J0D01*
G01*
X24050000Y-5550000D02*
G75*
G02*
X24150000Y-5550000I50000J0D01*
G01*
X24150000Y-5750000D02*
G75*
G02*
X24050000Y-5750000I-50000J0D01*
G01*
X24050000Y-5750000D02*
G75*
G02*
X24150000Y-5750000I50000J0D01*
G01*
X24150000Y-5950000D02*
G75*
G02*
X24050000Y-5950000I-50000J0D01*
G01*
X24050000Y-5950000D02*
G75*
G02*
X24150000Y-5950000I50000J0D01*
G01*
X24350000Y-5350000D02*
G75*
G02*
X24250000Y-5350000I-50000J0D01*
G01*
X24250000Y-5350000D02*
G75*
G02*
X24350000Y-5350000I50000J0D01*
G01*
X24350000Y-5550000D02*
G75*
G02*
X24250000Y-5550000I-50000J0D01*
G01*
X24250000Y-5550000D02*
G75*
G02*
X24350000Y-5550000I50000J0D01*
G01*
X24350000Y-5750000D02*
G75*
G02*
X24250000Y-5750000I-50000J0D01*
G01*
X24250000Y-5750000D02*
G75*
G02*
X24350000Y-5750000I50000J0D01*
G01*
X24350000Y-5950000D02*
G75*
G02*
X24250000Y-5950000I-50000J0D01*
G01*
X24250000Y-5950000D02*
G75*
G02*
X24350000Y-5950000I50000J0D01*
G01*
X24550000Y-5350000D02*
G75*
G02*
X24450000Y-5350000I-50000J0D01*
G01*
X24450000Y-5350000D02*
G75*
G02*
X24550000Y-5350000I50000J0D01*
G01*
X24550000Y-5550000D02*
G75*
G02*
X24450000Y-5550000I-50000J0D01*
G01*
X24450000Y-5550000D02*
G75*
G02*
X24550000Y-5550000I50000J0D01*
G01*
X24550000Y-5750000D02*
G75*
G02*
X24450000Y-5750000I-50000J0D01*
G01*
X24450000Y-5750000D02*
G75*
G02*
X24550000Y-5750000I50000J0D01*
G01*
X24550000Y-5950000D02*
G75*
G02*
X24450000Y-5950000I-50000J0D01*
G01*
X24450000Y-5950000D02*
G75*
G02*
X24550000Y-5950000I50000J0D01*
G01*
X24750000Y-5350000D02*
G75*
G02*
X24650000Y-5350000I-50000J0D01*
G01*
X24650000Y-5350000D02*
G75*
G02*
X24750000Y-5350000I50000J0D01*
G01*
X24750000Y-5550000D02*
G75*
G02*
X24650000Y-5550000I-50000J0D01*
G01*
X24650000Y-5550000D02*
G75*
G02*
X24750000Y-5550000I50000J0D01*
G01*
X24750000Y-5750000D02*
G75*
G02*
X24650000Y-5750000I-50000J0D01*
G01*
X24650000Y-5750000D02*
G75*
G02*
X24750000Y-5750000I50000J0D01*
G01*
X24750000Y-5950000D02*
G75*
G02*
X24650000Y-5950000I-50000J0D01*
G01*
X24650000Y-5950000D02*
G75*
G02*
X24750000Y-5950000I50000J0D01*
G01*
X24950000Y-5350000D02*
G75*
G02*
X24850000Y-5350000I-50000J0D01*
G01*
X24850000Y-5350000D02*
G75*
G02*
X24950000Y-5350000I50000J0D01*
G01*
X24950000Y-5550000D02*
G75*
G02*
X24850000Y-5550000I-50000J0D01*
G01*
X24850000Y-5550000D02*
G75*
G02*
X24950000Y-5550000I50000J0D01*
G01*
X24950000Y-5750000D02*
G75*
G02*
X24850000Y-5750000I-50000J0D01*
G01*
X24850000Y-5750000D02*
G75*
G02*
X24950000Y-5750000I50000J0D01*
G01*
X24950000Y-5950000D02*
G75*
G02*
X24850000Y-5950000I-50000J0D01*
G01*
X24850000Y-5950000D02*
G75*
G02*
X24950000Y-5950000I50000J0D01*
G01*
X25150000Y-5350000D02*
G75*
G02*
X25050000Y-5350000I-50000J0D01*
G01*
X25050000Y-5350000D02*
G75*
G02*
X25150000Y-5350000I50000J0D01*
G01*
X25150000Y-5550000D02*
G75*
G02*
X25050000Y-5550000I-50000J0D01*
G01*
X25050000Y-5550000D02*
G75*
G02*
X25150000Y-5550000I50000J0D01*
G01*
X25150000Y-5750000D02*
G75*
G02*
X25050000Y-5750000I-50000J0D01*
G01*
X25050000Y-5750000D02*
G75*
G02*
X25150000Y-5750000I50000J0D01*
G01*
X25150000Y-5950000D02*
G75*
G02*
X25050000Y-5950000I-50000J0D01*
G01*
X25050000Y-5950000D02*
G75*
G02*
X25150000Y-5950000I50000J0D01*
G01*
D11*
X17758277Y-14763984D02*
X17758277Y-14563984D01*
X17758277Y-14563984D02*
X17805896Y-14563984D01*
X17805896Y-14563984D02*
X17834467Y-14573508D01*
X17834467Y-14573508D02*
X17853515Y-14592555D01*
X17853515Y-14592555D02*
X17863039Y-14611603D01*
X17863039Y-14611603D02*
X17872563Y-14649698D01*
X17872563Y-14649698D02*
X17872563Y-14678269D01*
X17872563Y-14678269D02*
X17863039Y-14716365D01*
X17863039Y-14716365D02*
X17853515Y-14735412D01*
X17853515Y-14735412D02*
X17834467Y-14754460D01*
X17834467Y-14754460D02*
X17805896Y-14763984D01*
X17805896Y-14763984D02*
X17758277Y-14763984D01*
X17958277Y-14763984D02*
X17958277Y-14630650D01*
X17958277Y-14668746D02*
X17967801Y-14649698D01*
X17967801Y-14649698D02*
X17977324Y-14640174D01*
X17977324Y-14640174D02*
X17996372Y-14630650D01*
X17996372Y-14630650D02*
X18015420Y-14630650D01*
X18082086Y-14763984D02*
X18082086Y-14630650D01*
X18082086Y-14563984D02*
X18072563Y-14573508D01*
X18072563Y-14573508D02*
X18082086Y-14583031D01*
X18082086Y-14583031D02*
X18091610Y-14573508D01*
X18091610Y-14573508D02*
X18082086Y-14563984D01*
X18082086Y-14563984D02*
X18082086Y-14583031D01*
X18205896Y-14763984D02*
X18186848Y-14754460D01*
X18186848Y-14754460D02*
X18177324Y-14735412D01*
X18177324Y-14735412D02*
X18177324Y-14563984D01*
X18310658Y-14763984D02*
X18291610Y-14754460D01*
X18291610Y-14754460D02*
X18282086Y-14735412D01*
X18282086Y-14735412D02*
X18282086Y-14563984D01*
X18539229Y-14763984D02*
X18539229Y-14563984D01*
X18539229Y-14563984D02*
X18605896Y-14706841D01*
X18605896Y-14706841D02*
X18672563Y-14563984D01*
X18672563Y-14563984D02*
X18672563Y-14763984D01*
X18853515Y-14763984D02*
X18853515Y-14659222D01*
X18853515Y-14659222D02*
X18843991Y-14640174D01*
X18843991Y-14640174D02*
X18824944Y-14630650D01*
X18824944Y-14630650D02*
X18786848Y-14630650D01*
X18786848Y-14630650D02*
X18767801Y-14640174D01*
X18853515Y-14754460D02*
X18834467Y-14763984D01*
X18834467Y-14763984D02*
X18786848Y-14763984D01*
X18786848Y-14763984D02*
X18767801Y-14754460D01*
X18767801Y-14754460D02*
X18758277Y-14735412D01*
X18758277Y-14735412D02*
X18758277Y-14716365D01*
X18758277Y-14716365D02*
X18767801Y-14697317D01*
X18767801Y-14697317D02*
X18786848Y-14687793D01*
X18786848Y-14687793D02*
X18834467Y-14687793D01*
X18834467Y-14687793D02*
X18853515Y-14678269D01*
X18948753Y-14630650D02*
X18948753Y-14830650D01*
X18948753Y-14640174D02*
X18967801Y-14630650D01*
X18967801Y-14630650D02*
X19005896Y-14630650D01*
X19005896Y-14630650D02*
X19024944Y-14640174D01*
X19024944Y-14640174D02*
X19034467Y-14649698D01*
X19034467Y-14649698D02*
X19043991Y-14668746D01*
X19043991Y-14668746D02*
X19043991Y-14725888D01*
X19043991Y-14725888D02*
X19034467Y-14744936D01*
X19034467Y-14744936D02*
X19024944Y-14754460D01*
X19024944Y-14754460D02*
X19005896Y-14763984D01*
X19005896Y-14763984D02*
X18967801Y-14763984D01*
X18967801Y-14763984D02*
X18948753Y-14754460D01*
X19129705Y-14744936D02*
X19139229Y-14754460D01*
X19139229Y-14754460D02*
X19129705Y-14763984D01*
X19129705Y-14763984D02*
X19120182Y-14754460D01*
X19120182Y-14754460D02*
X19129705Y-14744936D01*
X19129705Y-14744936D02*
X19129705Y-14763984D01*
X19129705Y-14640174D02*
X19139229Y-14649698D01*
X19139229Y-14649698D02*
X19129705Y-14659222D01*
X19129705Y-14659222D02*
X19120182Y-14649698D01*
X19120182Y-14649698D02*
X19129705Y-14640174D01*
X19129705Y-14640174D02*
X19129705Y-14659222D01*
D12*
X17467500Y-15077500D02*
X17497500Y-15107500D01*
X17497500Y-15077500D02*
X17467500Y-15107500D01*
D11*
X17796372Y-14983984D02*
X17815420Y-14983984D01*
X17815420Y-14983984D02*
X17834467Y-14993508D01*
X17834467Y-14993508D02*
X17843991Y-15003031D01*
X17843991Y-15003031D02*
X17853515Y-15022079D01*
X17853515Y-15022079D02*
X17863039Y-15060174D01*
X17863039Y-15060174D02*
X17863039Y-15107793D01*
X17863039Y-15107793D02*
X17853515Y-15145888D01*
X17853515Y-15145888D02*
X17843991Y-15164936D01*
X17843991Y-15164936D02*
X17834467Y-15174460D01*
X17834467Y-15174460D02*
X17815420Y-15183984D01*
X17815420Y-15183984D02*
X17796372Y-15183984D01*
X17796372Y-15183984D02*
X17777324Y-15174460D01*
X17777324Y-15174460D02*
X17767801Y-15164936D01*
X17767801Y-15164936D02*
X17758277Y-15145888D01*
X17758277Y-15145888D02*
X17748753Y-15107793D01*
X17748753Y-15107793D02*
X17748753Y-15060174D01*
X17748753Y-15060174D02*
X17758277Y-15022079D01*
X17758277Y-15022079D02*
X17767801Y-15003031D01*
X17767801Y-15003031D02*
X17777324Y-14993508D01*
X17777324Y-14993508D02*
X17796372Y-14983984D01*
X17948753Y-15164936D02*
X17958277Y-15174460D01*
X17958277Y-15174460D02*
X17948753Y-15183984D01*
X17948753Y-15183984D02*
X17939229Y-15174460D01*
X17939229Y-15174460D02*
X17948753Y-15164936D01*
X17948753Y-15164936D02*
X17948753Y-15183984D01*
X18024944Y-14983984D02*
X18148753Y-14983984D01*
X18148753Y-14983984D02*
X18082086Y-15060174D01*
X18082086Y-15060174D02*
X18110658Y-15060174D01*
X18110658Y-15060174D02*
X18129705Y-15069698D01*
X18129705Y-15069698D02*
X18139229Y-15079222D01*
X18139229Y-15079222D02*
X18148753Y-15098269D01*
X18148753Y-15098269D02*
X18148753Y-15145888D01*
X18148753Y-15145888D02*
X18139229Y-15164936D01*
X18139229Y-15164936D02*
X18129705Y-15174460D01*
X18129705Y-15174460D02*
X18110658Y-15183984D01*
X18110658Y-15183984D02*
X18053515Y-15183984D01*
X18053515Y-15183984D02*
X18034467Y-15174460D01*
X18034467Y-15174460D02*
X18024944Y-15164936D01*
X18272563Y-14983984D02*
X18291610Y-14983984D01*
X18291610Y-14983984D02*
X18310658Y-14993508D01*
X18310658Y-14993508D02*
X18320182Y-15003031D01*
X18320182Y-15003031D02*
X18329705Y-15022079D01*
X18329705Y-15022079D02*
X18339229Y-15060174D01*
X18339229Y-15060174D02*
X18339229Y-15107793D01*
X18339229Y-15107793D02*
X18329705Y-15145888D01*
X18329705Y-15145888D02*
X18320182Y-15164936D01*
X18320182Y-15164936D02*
X18310658Y-15174460D01*
X18310658Y-15174460D02*
X18291610Y-15183984D01*
X18291610Y-15183984D02*
X18272563Y-15183984D01*
X18272563Y-15183984D02*
X18253515Y-15174460D01*
X18253515Y-15174460D02*
X18243991Y-15164936D01*
X18243991Y-15164936D02*
X18234467Y-15145888D01*
X18234467Y-15145888D02*
X18224944Y-15107793D01*
X18224944Y-15107793D02*
X18224944Y-15060174D01*
X18224944Y-15060174D02*
X18234467Y-15022079D01*
X18234467Y-15022079D02*
X18243991Y-15003031D01*
X18243991Y-15003031D02*
X18253515Y-14993508D01*
X18253515Y-14993508D02*
X18272563Y-14983984D01*
X18463039Y-14983984D02*
X18482086Y-14983984D01*
X18482086Y-14983984D02*
X18501134Y-14993508D01*
X18501134Y-14993508D02*
X18510658Y-15003031D01*
X18510658Y-15003031D02*
X18520182Y-15022079D01*
X18520182Y-15022079D02*
X18529705Y-15060174D01*
X18529705Y-15060174D02*
X18529705Y-15107793D01*
X18529705Y-15107793D02*
X18520182Y-15145888D01*
X18520182Y-15145888D02*
X18510658Y-15164936D01*
X18510658Y-15164936D02*
X18501134Y-15174460D01*
X18501134Y-15174460D02*
X18482086Y-15183984D01*
X18482086Y-15183984D02*
X18463039Y-15183984D01*
X18463039Y-15183984D02*
X18443991Y-15174460D01*
X18443991Y-15174460D02*
X18434467Y-15164936D01*
X18434467Y-15164936D02*
X18424944Y-15145888D01*
X18424944Y-15145888D02*
X18415420Y-15107793D01*
X18415420Y-15107793D02*
X18415420Y-15060174D01*
X18415420Y-15060174D02*
X18424944Y-15022079D01*
X18424944Y-15022079D02*
X18434467Y-15003031D01*
X18434467Y-15003031D02*
X18443991Y-14993508D01*
X18443991Y-14993508D02*
X18463039Y-14983984D01*
X18615420Y-15183984D02*
X18615420Y-15050650D01*
X18615420Y-15069698D02*
X18624944Y-15060174D01*
X18624944Y-15060174D02*
X18643991Y-15050650D01*
X18643991Y-15050650D02*
X18672563Y-15050650D01*
X18672563Y-15050650D02*
X18691610Y-15060174D01*
X18691610Y-15060174D02*
X18701134Y-15079222D01*
X18701134Y-15079222D02*
X18701134Y-15183984D01*
X18701134Y-15079222D02*
X18710658Y-15060174D01*
X18710658Y-15060174D02*
X18729705Y-15050650D01*
X18729705Y-15050650D02*
X18758277Y-15050650D01*
X18758277Y-15050650D02*
X18777325Y-15060174D01*
X18777325Y-15060174D02*
X18786848Y-15079222D01*
X18786848Y-15079222D02*
X18786848Y-15183984D01*
X18882086Y-15183984D02*
X18882086Y-15050650D01*
X18882086Y-15069698D02*
X18891610Y-15060174D01*
X18891610Y-15060174D02*
X18910658Y-15050650D01*
X18910658Y-15050650D02*
X18939229Y-15050650D01*
X18939229Y-15050650D02*
X18958277Y-15060174D01*
X18958277Y-15060174D02*
X18967801Y-15079222D01*
X18967801Y-15079222D02*
X18967801Y-15183984D01*
X18967801Y-15079222D02*
X18977325Y-15060174D01*
X18977325Y-15060174D02*
X18996372Y-15050650D01*
X18996372Y-15050650D02*
X19024944Y-15050650D01*
X19024944Y-15050650D02*
X19043991Y-15060174D01*
X19043991Y-15060174D02*
X19053515Y-15079222D01*
X19053515Y-15079222D02*
X19053515Y-15183984D01*
X19443991Y-14974460D02*
X19272563Y-15231603D01*
X19701134Y-14983984D02*
X19720182Y-14983984D01*
X19720182Y-14983984D02*
X19739229Y-14993508D01*
X19739229Y-14993508D02*
X19748753Y-15003031D01*
X19748753Y-15003031D02*
X19758277Y-15022079D01*
X19758277Y-15022079D02*
X19767801Y-15060174D01*
X19767801Y-15060174D02*
X19767801Y-15107793D01*
X19767801Y-15107793D02*
X19758277Y-15145888D01*
X19758277Y-15145888D02*
X19748753Y-15164936D01*
X19748753Y-15164936D02*
X19739229Y-15174460D01*
X19739229Y-15174460D02*
X19720182Y-15183984D01*
X19720182Y-15183984D02*
X19701134Y-15183984D01*
X19701134Y-15183984D02*
X19682087Y-15174460D01*
X19682087Y-15174460D02*
X19672563Y-15164936D01*
X19672563Y-15164936D02*
X19663039Y-15145888D01*
X19663039Y-15145888D02*
X19653515Y-15107793D01*
X19653515Y-15107793D02*
X19653515Y-15060174D01*
X19653515Y-15060174D02*
X19663039Y-15022079D01*
X19663039Y-15022079D02*
X19672563Y-15003031D01*
X19672563Y-15003031D02*
X19682087Y-14993508D01*
X19682087Y-14993508D02*
X19701134Y-14983984D01*
X19853515Y-15164936D02*
X19863039Y-15174460D01*
X19863039Y-15174460D02*
X19853515Y-15183984D01*
X19853515Y-15183984D02*
X19843991Y-15174460D01*
X19843991Y-15174460D02*
X19853515Y-15164936D01*
X19853515Y-15164936D02*
X19853515Y-15183984D01*
X19986848Y-14983984D02*
X20005896Y-14983984D01*
X20005896Y-14983984D02*
X20024944Y-14993508D01*
X20024944Y-14993508D02*
X20034468Y-15003031D01*
X20034468Y-15003031D02*
X20043991Y-15022079D01*
X20043991Y-15022079D02*
X20053515Y-15060174D01*
X20053515Y-15060174D02*
X20053515Y-15107793D01*
X20053515Y-15107793D02*
X20043991Y-15145888D01*
X20043991Y-15145888D02*
X20034468Y-15164936D01*
X20034468Y-15164936D02*
X20024944Y-15174460D01*
X20024944Y-15174460D02*
X20005896Y-15183984D01*
X20005896Y-15183984D02*
X19986848Y-15183984D01*
X19986848Y-15183984D02*
X19967801Y-15174460D01*
X19967801Y-15174460D02*
X19958277Y-15164936D01*
X19958277Y-15164936D02*
X19948753Y-15145888D01*
X19948753Y-15145888D02*
X19939229Y-15107793D01*
X19939229Y-15107793D02*
X19939229Y-15060174D01*
X19939229Y-15060174D02*
X19948753Y-15022079D01*
X19948753Y-15022079D02*
X19958277Y-15003031D01*
X19958277Y-15003031D02*
X19967801Y-14993508D01*
X19967801Y-14993508D02*
X19986848Y-14983984D01*
X20243991Y-15183984D02*
X20129706Y-15183984D01*
X20186848Y-15183984D02*
X20186848Y-14983984D01*
X20186848Y-14983984D02*
X20167801Y-15012555D01*
X20167801Y-15012555D02*
X20148753Y-15031603D01*
X20148753Y-15031603D02*
X20129706Y-15041127D01*
X20434468Y-15183984D02*
X20320182Y-15183984D01*
X20377325Y-15183984D02*
X20377325Y-14983984D01*
X20377325Y-14983984D02*
X20358277Y-15012555D01*
X20358277Y-15012555D02*
X20339229Y-15031603D01*
X20339229Y-15031603D02*
X20320182Y-15041127D01*
X20548753Y-15069698D02*
X20529706Y-15060174D01*
X20529706Y-15060174D02*
X20520182Y-15050650D01*
X20520182Y-15050650D02*
X20510658Y-15031603D01*
X20510658Y-15031603D02*
X20510658Y-15022079D01*
X20510658Y-15022079D02*
X20520182Y-15003031D01*
X20520182Y-15003031D02*
X20529706Y-14993508D01*
X20529706Y-14993508D02*
X20548753Y-14983984D01*
X20548753Y-14983984D02*
X20586849Y-14983984D01*
X20586849Y-14983984D02*
X20605896Y-14993508D01*
X20605896Y-14993508D02*
X20615420Y-15003031D01*
X20615420Y-15003031D02*
X20624944Y-15022079D01*
X20624944Y-15022079D02*
X20624944Y-15031603D01*
X20624944Y-15031603D02*
X20615420Y-15050650D01*
X20615420Y-15050650D02*
X20605896Y-15060174D01*
X20605896Y-15060174D02*
X20586849Y-15069698D01*
X20586849Y-15069698D02*
X20548753Y-15069698D01*
X20548753Y-15069698D02*
X20529706Y-15079222D01*
X20529706Y-15079222D02*
X20520182Y-15088746D01*
X20520182Y-15088746D02*
X20510658Y-15107793D01*
X20510658Y-15107793D02*
X20510658Y-15145888D01*
X20510658Y-15145888D02*
X20520182Y-15164936D01*
X20520182Y-15164936D02*
X20529706Y-15174460D01*
X20529706Y-15174460D02*
X20548753Y-15183984D01*
X20548753Y-15183984D02*
X20586849Y-15183984D01*
X20586849Y-15183984D02*
X20605896Y-15174460D01*
X20605896Y-15174460D02*
X20615420Y-15164936D01*
X20615420Y-15164936D02*
X20624944Y-15145888D01*
X20624944Y-15145888D02*
X20624944Y-15107793D01*
X20624944Y-15107793D02*
X20615420Y-15088746D01*
X20615420Y-15088746D02*
X20605896Y-15079222D01*
X20605896Y-15079222D02*
X20586849Y-15069698D01*
X20701134Y-14983984D02*
X20701134Y-15022079D01*
X20777325Y-14983984D02*
X20777325Y-15022079D01*
X21072563Y-15260174D02*
X21063039Y-15250650D01*
X21063039Y-15250650D02*
X21043991Y-15222079D01*
X21043991Y-15222079D02*
X21034468Y-15203031D01*
X21034468Y-15203031D02*
X21024944Y-15174460D01*
X21024944Y-15174460D02*
X21015420Y-15126841D01*
X21015420Y-15126841D02*
X21015420Y-15088746D01*
X21015420Y-15088746D02*
X21024944Y-15041127D01*
X21024944Y-15041127D02*
X21034468Y-15012555D01*
X21034468Y-15012555D02*
X21043991Y-14993508D01*
X21043991Y-14993508D02*
X21063039Y-14964936D01*
X21063039Y-14964936D02*
X21072563Y-14955412D01*
X21129706Y-14983984D02*
X21253515Y-14983984D01*
X21253515Y-14983984D02*
X21186849Y-15060174D01*
X21186849Y-15060174D02*
X21215420Y-15060174D01*
X21215420Y-15060174D02*
X21234468Y-15069698D01*
X21234468Y-15069698D02*
X21243991Y-15079222D01*
X21243991Y-15079222D02*
X21253515Y-15098269D01*
X21253515Y-15098269D02*
X21253515Y-15145888D01*
X21253515Y-15145888D02*
X21243991Y-15164936D01*
X21243991Y-15164936D02*
X21234468Y-15174460D01*
X21234468Y-15174460D02*
X21215420Y-15183984D01*
X21215420Y-15183984D02*
X21158277Y-15183984D01*
X21158277Y-15183984D02*
X21139230Y-15174460D01*
X21139230Y-15174460D02*
X21129706Y-15164936D01*
X21491611Y-15183984D02*
X21491611Y-14983984D01*
X21577325Y-15183984D02*
X21577325Y-15079222D01*
X21577325Y-15079222D02*
X21567801Y-15060174D01*
X21567801Y-15060174D02*
X21548753Y-15050650D01*
X21548753Y-15050650D02*
X21520182Y-15050650D01*
X21520182Y-15050650D02*
X21501134Y-15060174D01*
X21501134Y-15060174D02*
X21491611Y-15069698D01*
X21701134Y-15183984D02*
X21682087Y-15174460D01*
X21682087Y-15174460D02*
X21672563Y-15164936D01*
X21672563Y-15164936D02*
X21663039Y-15145888D01*
X21663039Y-15145888D02*
X21663039Y-15088746D01*
X21663039Y-15088746D02*
X21672563Y-15069698D01*
X21672563Y-15069698D02*
X21682087Y-15060174D01*
X21682087Y-15060174D02*
X21701134Y-15050650D01*
X21701134Y-15050650D02*
X21729706Y-15050650D01*
X21729706Y-15050650D02*
X21748753Y-15060174D01*
X21748753Y-15060174D02*
X21758277Y-15069698D01*
X21758277Y-15069698D02*
X21767801Y-15088746D01*
X21767801Y-15088746D02*
X21767801Y-15145888D01*
X21767801Y-15145888D02*
X21758277Y-15164936D01*
X21758277Y-15164936D02*
X21748753Y-15174460D01*
X21748753Y-15174460D02*
X21729706Y-15183984D01*
X21729706Y-15183984D02*
X21701134Y-15183984D01*
X21882087Y-15183984D02*
X21863039Y-15174460D01*
X21863039Y-15174460D02*
X21853515Y-15155412D01*
X21853515Y-15155412D02*
X21853515Y-14983984D01*
X22034468Y-15174460D02*
X22015420Y-15183984D01*
X22015420Y-15183984D02*
X21977325Y-15183984D01*
X21977325Y-15183984D02*
X21958277Y-15174460D01*
X21958277Y-15174460D02*
X21948753Y-15155412D01*
X21948753Y-15155412D02*
X21948753Y-15079222D01*
X21948753Y-15079222D02*
X21958277Y-15060174D01*
X21958277Y-15060174D02*
X21977325Y-15050650D01*
X21977325Y-15050650D02*
X22015420Y-15050650D01*
X22015420Y-15050650D02*
X22034468Y-15060174D01*
X22034468Y-15060174D02*
X22043992Y-15079222D01*
X22043992Y-15079222D02*
X22043992Y-15098269D01*
X22043992Y-15098269D02*
X21948753Y-15117317D01*
X22120182Y-15174460D02*
X22139230Y-15183984D01*
X22139230Y-15183984D02*
X22177325Y-15183984D01*
X22177325Y-15183984D02*
X22196373Y-15174460D01*
X22196373Y-15174460D02*
X22205896Y-15155412D01*
X22205896Y-15155412D02*
X22205896Y-15145888D01*
X22205896Y-15145888D02*
X22196373Y-15126841D01*
X22196373Y-15126841D02*
X22177325Y-15117317D01*
X22177325Y-15117317D02*
X22148753Y-15117317D01*
X22148753Y-15117317D02*
X22129706Y-15107793D01*
X22129706Y-15107793D02*
X22120182Y-15088746D01*
X22120182Y-15088746D02*
X22120182Y-15079222D01*
X22120182Y-15079222D02*
X22129706Y-15060174D01*
X22129706Y-15060174D02*
X22148753Y-15050650D01*
X22148753Y-15050650D02*
X22177325Y-15050650D01*
X22177325Y-15050650D02*
X22196373Y-15060174D01*
X22272563Y-15260174D02*
X22282087Y-15250650D01*
X22282087Y-15250650D02*
X22301134Y-15222079D01*
X22301134Y-15222079D02*
X22310658Y-15203031D01*
X22310658Y-15203031D02*
X22320182Y-15174460D01*
X22320182Y-15174460D02*
X22329706Y-15126841D01*
X22329706Y-15126841D02*
X22329706Y-15088746D01*
X22329706Y-15088746D02*
X22320182Y-15041127D01*
X22320182Y-15041127D02*
X22310658Y-15012555D01*
X22310658Y-15012555D02*
X22301134Y-14993508D01*
X22301134Y-14993508D02*
X22282087Y-14964936D01*
X22282087Y-14964936D02*
X22272563Y-14955412D01*
D12*
X17497500Y-15356500D02*
G75*
G02*
X17397500Y-15356500I-50000J0D01*
G01*
X17397500Y-15356500D02*
G75*
G02*
X17497500Y-15356500I50000J0D01*
G01*
D11*
X17863039Y-15447984D02*
X17748753Y-15447984D01*
X17805896Y-15447984D02*
X17805896Y-15247984D01*
X17805896Y-15247984D02*
X17786848Y-15276555D01*
X17786848Y-15276555D02*
X17767801Y-15295603D01*
X17767801Y-15295603D02*
X17748753Y-15305127D01*
X17948753Y-15428936D02*
X17958277Y-15438460D01*
X17958277Y-15438460D02*
X17948753Y-15447984D01*
X17948753Y-15447984D02*
X17939229Y-15438460D01*
X17939229Y-15438460D02*
X17948753Y-15428936D01*
X17948753Y-15428936D02*
X17948753Y-15447984D01*
X18082086Y-15247984D02*
X18101134Y-15247984D01*
X18101134Y-15247984D02*
X18120182Y-15257508D01*
X18120182Y-15257508D02*
X18129705Y-15267031D01*
X18129705Y-15267031D02*
X18139229Y-15286079D01*
X18139229Y-15286079D02*
X18148753Y-15324174D01*
X18148753Y-15324174D02*
X18148753Y-15371793D01*
X18148753Y-15371793D02*
X18139229Y-15409888D01*
X18139229Y-15409888D02*
X18129705Y-15428936D01*
X18129705Y-15428936D02*
X18120182Y-15438460D01*
X18120182Y-15438460D02*
X18101134Y-15447984D01*
X18101134Y-15447984D02*
X18082086Y-15447984D01*
X18082086Y-15447984D02*
X18063039Y-15438460D01*
X18063039Y-15438460D02*
X18053515Y-15428936D01*
X18053515Y-15428936D02*
X18043991Y-15409888D01*
X18043991Y-15409888D02*
X18034467Y-15371793D01*
X18034467Y-15371793D02*
X18034467Y-15324174D01*
X18034467Y-15324174D02*
X18043991Y-15286079D01*
X18043991Y-15286079D02*
X18053515Y-15267031D01*
X18053515Y-15267031D02*
X18063039Y-15257508D01*
X18063039Y-15257508D02*
X18082086Y-15247984D01*
X18272563Y-15247984D02*
X18291610Y-15247984D01*
X18291610Y-15247984D02*
X18310658Y-15257508D01*
X18310658Y-15257508D02*
X18320182Y-15267031D01*
X18320182Y-15267031D02*
X18329705Y-15286079D01*
X18329705Y-15286079D02*
X18339229Y-15324174D01*
X18339229Y-15324174D02*
X18339229Y-15371793D01*
X18339229Y-15371793D02*
X18329705Y-15409888D01*
X18329705Y-15409888D02*
X18320182Y-15428936D01*
X18320182Y-15428936D02*
X18310658Y-15438460D01*
X18310658Y-15438460D02*
X18291610Y-15447984D01*
X18291610Y-15447984D02*
X18272563Y-15447984D01*
X18272563Y-15447984D02*
X18253515Y-15438460D01*
X18253515Y-15438460D02*
X18243991Y-15428936D01*
X18243991Y-15428936D02*
X18234467Y-15409888D01*
X18234467Y-15409888D02*
X18224944Y-15371793D01*
X18224944Y-15371793D02*
X18224944Y-15324174D01*
X18224944Y-15324174D02*
X18234467Y-15286079D01*
X18234467Y-15286079D02*
X18243991Y-15267031D01*
X18243991Y-15267031D02*
X18253515Y-15257508D01*
X18253515Y-15257508D02*
X18272563Y-15247984D01*
X18463039Y-15247984D02*
X18482086Y-15247984D01*
X18482086Y-15247984D02*
X18501134Y-15257508D01*
X18501134Y-15257508D02*
X18510658Y-15267031D01*
X18510658Y-15267031D02*
X18520182Y-15286079D01*
X18520182Y-15286079D02*
X18529705Y-15324174D01*
X18529705Y-15324174D02*
X18529705Y-15371793D01*
X18529705Y-15371793D02*
X18520182Y-15409888D01*
X18520182Y-15409888D02*
X18510658Y-15428936D01*
X18510658Y-15428936D02*
X18501134Y-15438460D01*
X18501134Y-15438460D02*
X18482086Y-15447984D01*
X18482086Y-15447984D02*
X18463039Y-15447984D01*
X18463039Y-15447984D02*
X18443991Y-15438460D01*
X18443991Y-15438460D02*
X18434467Y-15428936D01*
X18434467Y-15428936D02*
X18424944Y-15409888D01*
X18424944Y-15409888D02*
X18415420Y-15371793D01*
X18415420Y-15371793D02*
X18415420Y-15324174D01*
X18415420Y-15324174D02*
X18424944Y-15286079D01*
X18424944Y-15286079D02*
X18434467Y-15267031D01*
X18434467Y-15267031D02*
X18443991Y-15257508D01*
X18443991Y-15257508D02*
X18463039Y-15247984D01*
X18615420Y-15447984D02*
X18615420Y-15314650D01*
X18615420Y-15333698D02*
X18624944Y-15324174D01*
X18624944Y-15324174D02*
X18643991Y-15314650D01*
X18643991Y-15314650D02*
X18672563Y-15314650D01*
X18672563Y-15314650D02*
X18691610Y-15324174D01*
X18691610Y-15324174D02*
X18701134Y-15343222D01*
X18701134Y-15343222D02*
X18701134Y-15447984D01*
X18701134Y-15343222D02*
X18710658Y-15324174D01*
X18710658Y-15324174D02*
X18729705Y-15314650D01*
X18729705Y-15314650D02*
X18758277Y-15314650D01*
X18758277Y-15314650D02*
X18777325Y-15324174D01*
X18777325Y-15324174D02*
X18786848Y-15343222D01*
X18786848Y-15343222D02*
X18786848Y-15447984D01*
X18882086Y-15447984D02*
X18882086Y-15314650D01*
X18882086Y-15333698D02*
X18891610Y-15324174D01*
X18891610Y-15324174D02*
X18910658Y-15314650D01*
X18910658Y-15314650D02*
X18939229Y-15314650D01*
X18939229Y-15314650D02*
X18958277Y-15324174D01*
X18958277Y-15324174D02*
X18967801Y-15343222D01*
X18967801Y-15343222D02*
X18967801Y-15447984D01*
X18967801Y-15343222D02*
X18977325Y-15324174D01*
X18977325Y-15324174D02*
X18996372Y-15314650D01*
X18996372Y-15314650D02*
X19024944Y-15314650D01*
X19024944Y-15314650D02*
X19043991Y-15324174D01*
X19043991Y-15324174D02*
X19053515Y-15343222D01*
X19053515Y-15343222D02*
X19053515Y-15447984D01*
X19443991Y-15238460D02*
X19272563Y-15495603D01*
X19701134Y-15247984D02*
X19720182Y-15247984D01*
X19720182Y-15247984D02*
X19739229Y-15257508D01*
X19739229Y-15257508D02*
X19748753Y-15267031D01*
X19748753Y-15267031D02*
X19758277Y-15286079D01*
X19758277Y-15286079D02*
X19767801Y-15324174D01*
X19767801Y-15324174D02*
X19767801Y-15371793D01*
X19767801Y-15371793D02*
X19758277Y-15409888D01*
X19758277Y-15409888D02*
X19748753Y-15428936D01*
X19748753Y-15428936D02*
X19739229Y-15438460D01*
X19739229Y-15438460D02*
X19720182Y-15447984D01*
X19720182Y-15447984D02*
X19701134Y-15447984D01*
X19701134Y-15447984D02*
X19682087Y-15438460D01*
X19682087Y-15438460D02*
X19672563Y-15428936D01*
X19672563Y-15428936D02*
X19663039Y-15409888D01*
X19663039Y-15409888D02*
X19653515Y-15371793D01*
X19653515Y-15371793D02*
X19653515Y-15324174D01*
X19653515Y-15324174D02*
X19663039Y-15286079D01*
X19663039Y-15286079D02*
X19672563Y-15267031D01*
X19672563Y-15267031D02*
X19682087Y-15257508D01*
X19682087Y-15257508D02*
X19701134Y-15247984D01*
X19853515Y-15428936D02*
X19863039Y-15438460D01*
X19863039Y-15438460D02*
X19853515Y-15447984D01*
X19853515Y-15447984D02*
X19843991Y-15438460D01*
X19843991Y-15438460D02*
X19853515Y-15428936D01*
X19853515Y-15428936D02*
X19853515Y-15447984D01*
X19986848Y-15247984D02*
X20005896Y-15247984D01*
X20005896Y-15247984D02*
X20024944Y-15257508D01*
X20024944Y-15257508D02*
X20034468Y-15267031D01*
X20034468Y-15267031D02*
X20043991Y-15286079D01*
X20043991Y-15286079D02*
X20053515Y-15324174D01*
X20053515Y-15324174D02*
X20053515Y-15371793D01*
X20053515Y-15371793D02*
X20043991Y-15409888D01*
X20043991Y-15409888D02*
X20034468Y-15428936D01*
X20034468Y-15428936D02*
X20024944Y-15438460D01*
X20024944Y-15438460D02*
X20005896Y-15447984D01*
X20005896Y-15447984D02*
X19986848Y-15447984D01*
X19986848Y-15447984D02*
X19967801Y-15438460D01*
X19967801Y-15438460D02*
X19958277Y-15428936D01*
X19958277Y-15428936D02*
X19948753Y-15409888D01*
X19948753Y-15409888D02*
X19939229Y-15371793D01*
X19939229Y-15371793D02*
X19939229Y-15324174D01*
X19939229Y-15324174D02*
X19948753Y-15286079D01*
X19948753Y-15286079D02*
X19958277Y-15267031D01*
X19958277Y-15267031D02*
X19967801Y-15257508D01*
X19967801Y-15257508D02*
X19986848Y-15247984D01*
X20120182Y-15247984D02*
X20243991Y-15247984D01*
X20243991Y-15247984D02*
X20177325Y-15324174D01*
X20177325Y-15324174D02*
X20205896Y-15324174D01*
X20205896Y-15324174D02*
X20224944Y-15333698D01*
X20224944Y-15333698D02*
X20234468Y-15343222D01*
X20234468Y-15343222D02*
X20243991Y-15362269D01*
X20243991Y-15362269D02*
X20243991Y-15409888D01*
X20243991Y-15409888D02*
X20234468Y-15428936D01*
X20234468Y-15428936D02*
X20224944Y-15438460D01*
X20224944Y-15438460D02*
X20205896Y-15447984D01*
X20205896Y-15447984D02*
X20148753Y-15447984D01*
X20148753Y-15447984D02*
X20129706Y-15438460D01*
X20129706Y-15438460D02*
X20120182Y-15428936D01*
X20339229Y-15447984D02*
X20377325Y-15447984D01*
X20377325Y-15447984D02*
X20396372Y-15438460D01*
X20396372Y-15438460D02*
X20405896Y-15428936D01*
X20405896Y-15428936D02*
X20424944Y-15400365D01*
X20424944Y-15400365D02*
X20434468Y-15362269D01*
X20434468Y-15362269D02*
X20434468Y-15286079D01*
X20434468Y-15286079D02*
X20424944Y-15267031D01*
X20424944Y-15267031D02*
X20415420Y-15257508D01*
X20415420Y-15257508D02*
X20396372Y-15247984D01*
X20396372Y-15247984D02*
X20358277Y-15247984D01*
X20358277Y-15247984D02*
X20339229Y-15257508D01*
X20339229Y-15257508D02*
X20329706Y-15267031D01*
X20329706Y-15267031D02*
X20320182Y-15286079D01*
X20320182Y-15286079D02*
X20320182Y-15333698D01*
X20320182Y-15333698D02*
X20329706Y-15352746D01*
X20329706Y-15352746D02*
X20339229Y-15362269D01*
X20339229Y-15362269D02*
X20358277Y-15371793D01*
X20358277Y-15371793D02*
X20396372Y-15371793D01*
X20396372Y-15371793D02*
X20415420Y-15362269D01*
X20415420Y-15362269D02*
X20424944Y-15352746D01*
X20424944Y-15352746D02*
X20434468Y-15333698D01*
X20605896Y-15314650D02*
X20605896Y-15447984D01*
X20558277Y-15238460D02*
X20510658Y-15381317D01*
X20510658Y-15381317D02*
X20634468Y-15381317D01*
X20701134Y-15247984D02*
X20701134Y-15286079D01*
X20777325Y-15247984D02*
X20777325Y-15286079D01*
X21072563Y-15524174D02*
X21063039Y-15514650D01*
X21063039Y-15514650D02*
X21043991Y-15486079D01*
X21043991Y-15486079D02*
X21034468Y-15467031D01*
X21034468Y-15467031D02*
X21024944Y-15438460D01*
X21024944Y-15438460D02*
X21015420Y-15390841D01*
X21015420Y-15390841D02*
X21015420Y-15352746D01*
X21015420Y-15352746D02*
X21024944Y-15305127D01*
X21024944Y-15305127D02*
X21034468Y-15276555D01*
X21034468Y-15276555D02*
X21043991Y-15257508D01*
X21043991Y-15257508D02*
X21063039Y-15228936D01*
X21063039Y-15228936D02*
X21072563Y-15219412D01*
X21253515Y-15447984D02*
X21139230Y-15447984D01*
X21196372Y-15447984D02*
X21196372Y-15247984D01*
X21196372Y-15247984D02*
X21177325Y-15276555D01*
X21177325Y-15276555D02*
X21158277Y-15295603D01*
X21158277Y-15295603D02*
X21139230Y-15305127D01*
X21329706Y-15267031D02*
X21339230Y-15257508D01*
X21339230Y-15257508D02*
X21358277Y-15247984D01*
X21358277Y-15247984D02*
X21405896Y-15247984D01*
X21405896Y-15247984D02*
X21424944Y-15257508D01*
X21424944Y-15257508D02*
X21434468Y-15267031D01*
X21434468Y-15267031D02*
X21443991Y-15286079D01*
X21443991Y-15286079D02*
X21443991Y-15305127D01*
X21443991Y-15305127D02*
X21434468Y-15333698D01*
X21434468Y-15333698D02*
X21320182Y-15447984D01*
X21320182Y-15447984D02*
X21443991Y-15447984D01*
X21567801Y-15247984D02*
X21586849Y-15247984D01*
X21586849Y-15247984D02*
X21605896Y-15257508D01*
X21605896Y-15257508D02*
X21615420Y-15267031D01*
X21615420Y-15267031D02*
X21624944Y-15286079D01*
X21624944Y-15286079D02*
X21634468Y-15324174D01*
X21634468Y-15324174D02*
X21634468Y-15371793D01*
X21634468Y-15371793D02*
X21624944Y-15409888D01*
X21624944Y-15409888D02*
X21615420Y-15428936D01*
X21615420Y-15428936D02*
X21605896Y-15438460D01*
X21605896Y-15438460D02*
X21586849Y-15447984D01*
X21586849Y-15447984D02*
X21567801Y-15447984D01*
X21567801Y-15447984D02*
X21548753Y-15438460D01*
X21548753Y-15438460D02*
X21539230Y-15428936D01*
X21539230Y-15428936D02*
X21529706Y-15409888D01*
X21529706Y-15409888D02*
X21520182Y-15371793D01*
X21520182Y-15371793D02*
X21520182Y-15324174D01*
X21520182Y-15324174D02*
X21529706Y-15286079D01*
X21529706Y-15286079D02*
X21539230Y-15267031D01*
X21539230Y-15267031D02*
X21548753Y-15257508D01*
X21548753Y-15257508D02*
X21567801Y-15247984D01*
X21872563Y-15447984D02*
X21872563Y-15247984D01*
X21958277Y-15447984D02*
X21958277Y-15343222D01*
X21958277Y-15343222D02*
X21948753Y-15324174D01*
X21948753Y-15324174D02*
X21929706Y-15314650D01*
X21929706Y-15314650D02*
X21901134Y-15314650D01*
X21901134Y-15314650D02*
X21882087Y-15324174D01*
X21882087Y-15324174D02*
X21872563Y-15333698D01*
X22082087Y-15447984D02*
X22063039Y-15438460D01*
X22063039Y-15438460D02*
X22053515Y-15428936D01*
X22053515Y-15428936D02*
X22043992Y-15409888D01*
X22043992Y-15409888D02*
X22043992Y-15352746D01*
X22043992Y-15352746D02*
X22053515Y-15333698D01*
X22053515Y-15333698D02*
X22063039Y-15324174D01*
X22063039Y-15324174D02*
X22082087Y-15314650D01*
X22082087Y-15314650D02*
X22110658Y-15314650D01*
X22110658Y-15314650D02*
X22129706Y-15324174D01*
X22129706Y-15324174D02*
X22139230Y-15333698D01*
X22139230Y-15333698D02*
X22148753Y-15352746D01*
X22148753Y-15352746D02*
X22148753Y-15409888D01*
X22148753Y-15409888D02*
X22139230Y-15428936D01*
X22139230Y-15428936D02*
X22129706Y-15438460D01*
X22129706Y-15438460D02*
X22110658Y-15447984D01*
X22110658Y-15447984D02*
X22082087Y-15447984D01*
X22263039Y-15447984D02*
X22243992Y-15438460D01*
X22243992Y-15438460D02*
X22234468Y-15419412D01*
X22234468Y-15419412D02*
X22234468Y-15247984D01*
X22415420Y-15438460D02*
X22396372Y-15447984D01*
X22396372Y-15447984D02*
X22358277Y-15447984D01*
X22358277Y-15447984D02*
X22339230Y-15438460D01*
X22339230Y-15438460D02*
X22329706Y-15419412D01*
X22329706Y-15419412D02*
X22329706Y-15343222D01*
X22329706Y-15343222D02*
X22339230Y-15324174D01*
X22339230Y-15324174D02*
X22358277Y-15314650D01*
X22358277Y-15314650D02*
X22396372Y-15314650D01*
X22396372Y-15314650D02*
X22415420Y-15324174D01*
X22415420Y-15324174D02*
X22424944Y-15343222D01*
X22424944Y-15343222D02*
X22424944Y-15362269D01*
X22424944Y-15362269D02*
X22329706Y-15381317D01*
X22501134Y-15438460D02*
X22520182Y-15447984D01*
X22520182Y-15447984D02*
X22558277Y-15447984D01*
X22558277Y-15447984D02*
X22577325Y-15438460D01*
X22577325Y-15438460D02*
X22586849Y-15419412D01*
X22586849Y-15419412D02*
X22586849Y-15409888D01*
X22586849Y-15409888D02*
X22577325Y-15390841D01*
X22577325Y-15390841D02*
X22558277Y-15381317D01*
X22558277Y-15381317D02*
X22529706Y-15381317D01*
X22529706Y-15381317D02*
X22510658Y-15371793D01*
X22510658Y-15371793D02*
X22501134Y-15352746D01*
X22501134Y-15352746D02*
X22501134Y-15343222D01*
X22501134Y-15343222D02*
X22510658Y-15324174D01*
X22510658Y-15324174D02*
X22529706Y-15314650D01*
X22529706Y-15314650D02*
X22558277Y-15314650D01*
X22558277Y-15314650D02*
X22577325Y-15324174D01*
X22653515Y-15524174D02*
X22663039Y-15514650D01*
X22663039Y-15514650D02*
X22682087Y-15486079D01*
X22682087Y-15486079D02*
X22691611Y-15467031D01*
X22691611Y-15467031D02*
X22701134Y-15438460D01*
X22701134Y-15438460D02*
X22710658Y-15390841D01*
X22710658Y-15390841D02*
X22710658Y-15352746D01*
X22710658Y-15352746D02*
X22701134Y-15305127D01*
X22701134Y-15305127D02*
X22691611Y-15276555D01*
X22691611Y-15276555D02*
X22682087Y-15257508D01*
X22682087Y-15257508D02*
X22663039Y-15228936D01*
X22663039Y-15228936D02*
X22653515Y-15219412D01*
M02*
