M48
; DRILL file {KiCad 8.0.0} date 2025-01-17T03:21:34+0200
; FORMAT={-:-/ absolute / inch / decimal}
; #@! TF.CreationDate,2025-01-17T03:21:34+02:00
; #@! TF.GenerationSoftware,Kicad,Pcbnew,8.0.0
; #@! TF.FileFunction,Plated,1,4,PTH
FMAT,2
INCH
; #@! TA.AperFunction,Plated,PTH,ViaDrill
T1C0.0118
; #@! TA.AperFunction,Plated,PTH,ComponentDrill
T2C0.0394
%
G90
G05
T1
X7.0669Y-4.6654
X9.5276Y-3.9764
X10.4724Y-4.1732
T2
X7.5984Y-2.1063
X7.5984Y-2.185
X7.5984Y-2.2638
X7.5984Y-2.3425
X7.6772Y-2.1063
X7.6772Y-2.185
X7.6772Y-2.2638
X7.6772Y-2.3425
X7.7559Y-2.1063
X7.7559Y-2.185
X7.7559Y-2.2638
X7.7559Y-2.3425
X7.8346Y-2.1063
X7.8346Y-2.185
X7.8346Y-2.2638
X7.8346Y-2.3425
X7.9134Y-2.1063
X7.9134Y-2.185
X7.9134Y-2.2638
X7.9134Y-2.3425
X7.9921Y-2.1063
X7.9921Y-2.185
X7.9921Y-2.2638
X7.9921Y-2.3425
X8.0709Y-2.1063
X8.0709Y-2.185
X8.0709Y-2.2638
X8.0709Y-2.3425
X8.1496Y-2.1063
X8.1496Y-2.185
X8.1496Y-2.2638
X8.1496Y-2.3425
X8.2283Y-2.1063
X8.2283Y-2.185
X8.2283Y-2.2638
X8.2283Y-2.3425
X8.3071Y-2.1063
X8.3071Y-2.185
X8.3071Y-2.2638
X8.3071Y-2.3425
X8.3858Y-2.1063
X8.3858Y-2.185
X8.3858Y-2.2638
X8.3858Y-2.3425
X8.4646Y-2.1063
X8.4646Y-2.185
X8.4646Y-2.2638
X8.4646Y-2.3425
X8.5433Y-2.1063
X8.5433Y-2.185
X8.5433Y-2.2638
X8.5433Y-2.3425
X8.622Y-2.1063
X8.622Y-2.185
X8.622Y-2.2638
X8.622Y-2.3425
X8.7008Y-2.1063
X8.7008Y-2.185
X8.7008Y-2.2638
X8.7008Y-2.3425
X8.7795Y-2.1063
X8.7795Y-2.185
X8.7795Y-2.2638
X8.7795Y-2.3425
X8.8583Y-2.1063
X8.8583Y-2.185
X8.8583Y-2.2638
X8.8583Y-2.3425
X8.937Y-2.1063
X8.937Y-2.185
X8.937Y-2.2638
X8.937Y-2.3425
X9.0157Y-2.1063
X9.0157Y-2.185
X9.0157Y-2.2638
X9.0157Y-2.3425
X9.0945Y-2.1063
X9.0945Y-2.185
X9.0945Y-2.2638
X9.0945Y-2.3425
X9.1732Y-2.1063
X9.1732Y-2.185
X9.1732Y-2.2638
X9.1732Y-2.3425
X9.252Y-2.1063
X9.252Y-2.185
X9.252Y-2.2638
X9.252Y-2.3425
X9.3307Y-2.1063
X9.3307Y-2.185
X9.3307Y-2.2638
X9.3307Y-2.3425
X9.4094Y-2.1063
X9.4094Y-2.185
X9.4094Y-2.2638
X9.4094Y-2.3425
X9.4882Y-2.1063
X9.4882Y-2.185
X9.4882Y-2.2638
X9.4882Y-2.3425
X9.5669Y-2.1063
X9.5669Y-2.185
X9.5669Y-2.2638
X9.5669Y-2.3425
X9.6457Y-2.1063
X9.6457Y-2.185
X9.6457Y-2.2638
X9.6457Y-2.3425
X9.7244Y-2.1063
X9.7244Y-2.185
X9.7244Y-2.2638
X9.7244Y-2.3425
X9.8031Y-2.1063
X9.8031Y-2.185
X9.8031Y-2.2638
X9.8031Y-2.3425
X9.8819Y-2.1063
X9.8819Y-2.185
X9.8819Y-2.2638
X9.8819Y-2.3425
M30
