%TF.GenerationSoftware,KiCad,Pcbnew,8.0.0*%
%TF.CreationDate,2025-01-17T03:21:50+02:00*%
%TF.ProjectId,diplomna_2024_solar_pcb_layout,6469706c-6f6d-46e6-915f-323032345f73,rev?*%
%TF.SameCoordinates,Original*%
%TF.FileFunction,Drillmap*%
%TF.FilePolarity,Positive*%
%FSLAX45Y45*%
G04 Gerber Fmt 4.5, Leading zero omitted, Abs format (unit mm)*
G04 Created by KiCad (PCBNEW 8.0.0) date 2025-01-17 03:21:50*
%MOMM*%
%LPD*%
G01*
G04 APERTURE LIST*
%ADD10C,0.050000*%
%ADD11C,0.200000*%
%ADD12C,0.320000*%
G04 APERTURE END LIST*
D10*
X27500000Y-15150000D02*
X18000000Y-15150000D01*
X18500000Y-6700000D02*
X18500000Y-5650000D01*
X18000000Y-15150000D02*
X18000000Y-6700000D01*
X18000000Y-6700000D02*
X18500000Y-6700000D01*
X18500000Y-5650000D02*
X27000000Y-5650000D01*
X27000000Y-5650000D02*
X27000000Y-6700000D01*
X27500000Y-6700000D02*
X27500000Y-15150000D01*
X27000000Y-6700000D02*
X27500000Y-6700000D01*
D11*
D12*
X18340000Y-14490000D02*
X18660000Y-14810000D01*
X18660000Y-14490000D02*
X18340000Y-14810000D01*
X19040000Y-5990000D02*
X19360000Y-6310000D01*
X19360000Y-5990000D02*
X19040000Y-6310000D01*
X25990000Y-5990000D02*
X26310000Y-6310000D01*
X26310000Y-5990000D02*
X25990000Y-6310000D01*
X26840000Y-14490000D02*
X27160000Y-14810000D01*
X27160000Y-14490000D02*
X26840000Y-14810000D01*
D11*
X18258277Y-15463984D02*
X18258277Y-15263984D01*
X18258277Y-15263984D02*
X18305896Y-15263984D01*
X18305896Y-15263984D02*
X18334467Y-15273508D01*
X18334467Y-15273508D02*
X18353515Y-15292555D01*
X18353515Y-15292555D02*
X18363039Y-15311603D01*
X18363039Y-15311603D02*
X18372563Y-15349698D01*
X18372563Y-15349698D02*
X18372563Y-15378269D01*
X18372563Y-15378269D02*
X18363039Y-15416365D01*
X18363039Y-15416365D02*
X18353515Y-15435412D01*
X18353515Y-15435412D02*
X18334467Y-15454460D01*
X18334467Y-15454460D02*
X18305896Y-15463984D01*
X18305896Y-15463984D02*
X18258277Y-15463984D01*
X18458277Y-15463984D02*
X18458277Y-15330650D01*
X18458277Y-15368746D02*
X18467801Y-15349698D01*
X18467801Y-15349698D02*
X18477324Y-15340174D01*
X18477324Y-15340174D02*
X18496372Y-15330650D01*
X18496372Y-15330650D02*
X18515420Y-15330650D01*
X18582086Y-15463984D02*
X18582086Y-15330650D01*
X18582086Y-15263984D02*
X18572563Y-15273508D01*
X18572563Y-15273508D02*
X18582086Y-15283031D01*
X18582086Y-15283031D02*
X18591610Y-15273508D01*
X18591610Y-15273508D02*
X18582086Y-15263984D01*
X18582086Y-15263984D02*
X18582086Y-15283031D01*
X18705896Y-15463984D02*
X18686848Y-15454460D01*
X18686848Y-15454460D02*
X18677324Y-15435412D01*
X18677324Y-15435412D02*
X18677324Y-15263984D01*
X18810658Y-15463984D02*
X18791610Y-15454460D01*
X18791610Y-15454460D02*
X18782086Y-15435412D01*
X18782086Y-15435412D02*
X18782086Y-15263984D01*
X19039229Y-15463984D02*
X19039229Y-15263984D01*
X19039229Y-15263984D02*
X19105896Y-15406841D01*
X19105896Y-15406841D02*
X19172563Y-15263984D01*
X19172563Y-15263984D02*
X19172563Y-15463984D01*
X19353515Y-15463984D02*
X19353515Y-15359222D01*
X19353515Y-15359222D02*
X19343991Y-15340174D01*
X19343991Y-15340174D02*
X19324944Y-15330650D01*
X19324944Y-15330650D02*
X19286848Y-15330650D01*
X19286848Y-15330650D02*
X19267801Y-15340174D01*
X19353515Y-15454460D02*
X19334467Y-15463984D01*
X19334467Y-15463984D02*
X19286848Y-15463984D01*
X19286848Y-15463984D02*
X19267801Y-15454460D01*
X19267801Y-15454460D02*
X19258277Y-15435412D01*
X19258277Y-15435412D02*
X19258277Y-15416365D01*
X19258277Y-15416365D02*
X19267801Y-15397317D01*
X19267801Y-15397317D02*
X19286848Y-15387793D01*
X19286848Y-15387793D02*
X19334467Y-15387793D01*
X19334467Y-15387793D02*
X19353515Y-15378269D01*
X19448753Y-15330650D02*
X19448753Y-15530650D01*
X19448753Y-15340174D02*
X19467801Y-15330650D01*
X19467801Y-15330650D02*
X19505896Y-15330650D01*
X19505896Y-15330650D02*
X19524944Y-15340174D01*
X19524944Y-15340174D02*
X19534467Y-15349698D01*
X19534467Y-15349698D02*
X19543991Y-15368746D01*
X19543991Y-15368746D02*
X19543991Y-15425888D01*
X19543991Y-15425888D02*
X19534467Y-15444936D01*
X19534467Y-15444936D02*
X19524944Y-15454460D01*
X19524944Y-15454460D02*
X19505896Y-15463984D01*
X19505896Y-15463984D02*
X19467801Y-15463984D01*
X19467801Y-15463984D02*
X19448753Y-15454460D01*
X19629705Y-15444936D02*
X19639229Y-15454460D01*
X19639229Y-15454460D02*
X19629705Y-15463984D01*
X19629705Y-15463984D02*
X19620182Y-15454460D01*
X19620182Y-15454460D02*
X19629705Y-15444936D01*
X19629705Y-15444936D02*
X19629705Y-15463984D01*
X19629705Y-15340174D02*
X19639229Y-15349698D01*
X19639229Y-15349698D02*
X19629705Y-15359222D01*
X19629705Y-15359222D02*
X19620182Y-15349698D01*
X19620182Y-15349698D02*
X19629705Y-15340174D01*
X19629705Y-15340174D02*
X19629705Y-15359222D01*
X17797500Y-15692500D02*
X17997500Y-15892500D01*
X17997500Y-15692500D02*
X17797500Y-15892500D01*
X18239229Y-15683984D02*
X18363039Y-15683984D01*
X18363039Y-15683984D02*
X18296372Y-15760174D01*
X18296372Y-15760174D02*
X18324944Y-15760174D01*
X18324944Y-15760174D02*
X18343991Y-15769698D01*
X18343991Y-15769698D02*
X18353515Y-15779222D01*
X18353515Y-15779222D02*
X18363039Y-15798269D01*
X18363039Y-15798269D02*
X18363039Y-15845888D01*
X18363039Y-15845888D02*
X18353515Y-15864936D01*
X18353515Y-15864936D02*
X18343991Y-15874460D01*
X18343991Y-15874460D02*
X18324944Y-15883984D01*
X18324944Y-15883984D02*
X18267801Y-15883984D01*
X18267801Y-15883984D02*
X18248753Y-15874460D01*
X18248753Y-15874460D02*
X18239229Y-15864936D01*
X18448753Y-15864936D02*
X18458277Y-15874460D01*
X18458277Y-15874460D02*
X18448753Y-15883984D01*
X18448753Y-15883984D02*
X18439229Y-15874460D01*
X18439229Y-15874460D02*
X18448753Y-15864936D01*
X18448753Y-15864936D02*
X18448753Y-15883984D01*
X18534467Y-15703031D02*
X18543991Y-15693508D01*
X18543991Y-15693508D02*
X18563039Y-15683984D01*
X18563039Y-15683984D02*
X18610658Y-15683984D01*
X18610658Y-15683984D02*
X18629705Y-15693508D01*
X18629705Y-15693508D02*
X18639229Y-15703031D01*
X18639229Y-15703031D02*
X18648753Y-15722079D01*
X18648753Y-15722079D02*
X18648753Y-15741127D01*
X18648753Y-15741127D02*
X18639229Y-15769698D01*
X18639229Y-15769698D02*
X18524944Y-15883984D01*
X18524944Y-15883984D02*
X18648753Y-15883984D01*
X18772563Y-15683984D02*
X18791610Y-15683984D01*
X18791610Y-15683984D02*
X18810658Y-15693508D01*
X18810658Y-15693508D02*
X18820182Y-15703031D01*
X18820182Y-15703031D02*
X18829705Y-15722079D01*
X18829705Y-15722079D02*
X18839229Y-15760174D01*
X18839229Y-15760174D02*
X18839229Y-15807793D01*
X18839229Y-15807793D02*
X18829705Y-15845888D01*
X18829705Y-15845888D02*
X18820182Y-15864936D01*
X18820182Y-15864936D02*
X18810658Y-15874460D01*
X18810658Y-15874460D02*
X18791610Y-15883984D01*
X18791610Y-15883984D02*
X18772563Y-15883984D01*
X18772563Y-15883984D02*
X18753515Y-15874460D01*
X18753515Y-15874460D02*
X18743991Y-15864936D01*
X18743991Y-15864936D02*
X18734467Y-15845888D01*
X18734467Y-15845888D02*
X18724944Y-15807793D01*
X18724944Y-15807793D02*
X18724944Y-15760174D01*
X18724944Y-15760174D02*
X18734467Y-15722079D01*
X18734467Y-15722079D02*
X18743991Y-15703031D01*
X18743991Y-15703031D02*
X18753515Y-15693508D01*
X18753515Y-15693508D02*
X18772563Y-15683984D01*
X18963039Y-15683984D02*
X18982086Y-15683984D01*
X18982086Y-15683984D02*
X19001134Y-15693508D01*
X19001134Y-15693508D02*
X19010658Y-15703031D01*
X19010658Y-15703031D02*
X19020182Y-15722079D01*
X19020182Y-15722079D02*
X19029705Y-15760174D01*
X19029705Y-15760174D02*
X19029705Y-15807793D01*
X19029705Y-15807793D02*
X19020182Y-15845888D01*
X19020182Y-15845888D02*
X19010658Y-15864936D01*
X19010658Y-15864936D02*
X19001134Y-15874460D01*
X19001134Y-15874460D02*
X18982086Y-15883984D01*
X18982086Y-15883984D02*
X18963039Y-15883984D01*
X18963039Y-15883984D02*
X18943991Y-15874460D01*
X18943991Y-15874460D02*
X18934467Y-15864936D01*
X18934467Y-15864936D02*
X18924944Y-15845888D01*
X18924944Y-15845888D02*
X18915420Y-15807793D01*
X18915420Y-15807793D02*
X18915420Y-15760174D01*
X18915420Y-15760174D02*
X18924944Y-15722079D01*
X18924944Y-15722079D02*
X18934467Y-15703031D01*
X18934467Y-15703031D02*
X18943991Y-15693508D01*
X18943991Y-15693508D02*
X18963039Y-15683984D01*
X19115420Y-15883984D02*
X19115420Y-15750650D01*
X19115420Y-15769698D02*
X19124944Y-15760174D01*
X19124944Y-15760174D02*
X19143991Y-15750650D01*
X19143991Y-15750650D02*
X19172563Y-15750650D01*
X19172563Y-15750650D02*
X19191610Y-15760174D01*
X19191610Y-15760174D02*
X19201134Y-15779222D01*
X19201134Y-15779222D02*
X19201134Y-15883984D01*
X19201134Y-15779222D02*
X19210658Y-15760174D01*
X19210658Y-15760174D02*
X19229705Y-15750650D01*
X19229705Y-15750650D02*
X19258277Y-15750650D01*
X19258277Y-15750650D02*
X19277325Y-15760174D01*
X19277325Y-15760174D02*
X19286848Y-15779222D01*
X19286848Y-15779222D02*
X19286848Y-15883984D01*
X19382086Y-15883984D02*
X19382086Y-15750650D01*
X19382086Y-15769698D02*
X19391610Y-15760174D01*
X19391610Y-15760174D02*
X19410658Y-15750650D01*
X19410658Y-15750650D02*
X19439229Y-15750650D01*
X19439229Y-15750650D02*
X19458277Y-15760174D01*
X19458277Y-15760174D02*
X19467801Y-15779222D01*
X19467801Y-15779222D02*
X19467801Y-15883984D01*
X19467801Y-15779222D02*
X19477325Y-15760174D01*
X19477325Y-15760174D02*
X19496372Y-15750650D01*
X19496372Y-15750650D02*
X19524944Y-15750650D01*
X19524944Y-15750650D02*
X19543991Y-15760174D01*
X19543991Y-15760174D02*
X19553515Y-15779222D01*
X19553515Y-15779222D02*
X19553515Y-15883984D01*
X19943991Y-15674460D02*
X19772563Y-15931603D01*
X20201134Y-15683984D02*
X20220182Y-15683984D01*
X20220182Y-15683984D02*
X20239229Y-15693508D01*
X20239229Y-15693508D02*
X20248753Y-15703031D01*
X20248753Y-15703031D02*
X20258277Y-15722079D01*
X20258277Y-15722079D02*
X20267801Y-15760174D01*
X20267801Y-15760174D02*
X20267801Y-15807793D01*
X20267801Y-15807793D02*
X20258277Y-15845888D01*
X20258277Y-15845888D02*
X20248753Y-15864936D01*
X20248753Y-15864936D02*
X20239229Y-15874460D01*
X20239229Y-15874460D02*
X20220182Y-15883984D01*
X20220182Y-15883984D02*
X20201134Y-15883984D01*
X20201134Y-15883984D02*
X20182087Y-15874460D01*
X20182087Y-15874460D02*
X20172563Y-15864936D01*
X20172563Y-15864936D02*
X20163039Y-15845888D01*
X20163039Y-15845888D02*
X20153515Y-15807793D01*
X20153515Y-15807793D02*
X20153515Y-15760174D01*
X20153515Y-15760174D02*
X20163039Y-15722079D01*
X20163039Y-15722079D02*
X20172563Y-15703031D01*
X20172563Y-15703031D02*
X20182087Y-15693508D01*
X20182087Y-15693508D02*
X20201134Y-15683984D01*
X20353515Y-15864936D02*
X20363039Y-15874460D01*
X20363039Y-15874460D02*
X20353515Y-15883984D01*
X20353515Y-15883984D02*
X20343991Y-15874460D01*
X20343991Y-15874460D02*
X20353515Y-15864936D01*
X20353515Y-15864936D02*
X20353515Y-15883984D01*
X20553515Y-15883984D02*
X20439229Y-15883984D01*
X20496372Y-15883984D02*
X20496372Y-15683984D01*
X20496372Y-15683984D02*
X20477325Y-15712555D01*
X20477325Y-15712555D02*
X20458277Y-15731603D01*
X20458277Y-15731603D02*
X20439229Y-15741127D01*
X20629706Y-15703031D02*
X20639229Y-15693508D01*
X20639229Y-15693508D02*
X20658277Y-15683984D01*
X20658277Y-15683984D02*
X20705896Y-15683984D01*
X20705896Y-15683984D02*
X20724944Y-15693508D01*
X20724944Y-15693508D02*
X20734468Y-15703031D01*
X20734468Y-15703031D02*
X20743991Y-15722079D01*
X20743991Y-15722079D02*
X20743991Y-15741127D01*
X20743991Y-15741127D02*
X20734468Y-15769698D01*
X20734468Y-15769698D02*
X20620182Y-15883984D01*
X20620182Y-15883984D02*
X20743991Y-15883984D01*
X20915420Y-15683984D02*
X20877325Y-15683984D01*
X20877325Y-15683984D02*
X20858277Y-15693508D01*
X20858277Y-15693508D02*
X20848753Y-15703031D01*
X20848753Y-15703031D02*
X20829706Y-15731603D01*
X20829706Y-15731603D02*
X20820182Y-15769698D01*
X20820182Y-15769698D02*
X20820182Y-15845888D01*
X20820182Y-15845888D02*
X20829706Y-15864936D01*
X20829706Y-15864936D02*
X20839229Y-15874460D01*
X20839229Y-15874460D02*
X20858277Y-15883984D01*
X20858277Y-15883984D02*
X20896372Y-15883984D01*
X20896372Y-15883984D02*
X20915420Y-15874460D01*
X20915420Y-15874460D02*
X20924944Y-15864936D01*
X20924944Y-15864936D02*
X20934468Y-15845888D01*
X20934468Y-15845888D02*
X20934468Y-15798269D01*
X20934468Y-15798269D02*
X20924944Y-15779222D01*
X20924944Y-15779222D02*
X20915420Y-15769698D01*
X20915420Y-15769698D02*
X20896372Y-15760174D01*
X20896372Y-15760174D02*
X20858277Y-15760174D01*
X20858277Y-15760174D02*
X20839229Y-15769698D01*
X20839229Y-15769698D02*
X20829706Y-15779222D01*
X20829706Y-15779222D02*
X20820182Y-15798269D01*
X21058277Y-15683984D02*
X21077325Y-15683984D01*
X21077325Y-15683984D02*
X21096372Y-15693508D01*
X21096372Y-15693508D02*
X21105896Y-15703031D01*
X21105896Y-15703031D02*
X21115420Y-15722079D01*
X21115420Y-15722079D02*
X21124944Y-15760174D01*
X21124944Y-15760174D02*
X21124944Y-15807793D01*
X21124944Y-15807793D02*
X21115420Y-15845888D01*
X21115420Y-15845888D02*
X21105896Y-15864936D01*
X21105896Y-15864936D02*
X21096372Y-15874460D01*
X21096372Y-15874460D02*
X21077325Y-15883984D01*
X21077325Y-15883984D02*
X21058277Y-15883984D01*
X21058277Y-15883984D02*
X21039229Y-15874460D01*
X21039229Y-15874460D02*
X21029706Y-15864936D01*
X21029706Y-15864936D02*
X21020182Y-15845888D01*
X21020182Y-15845888D02*
X21010658Y-15807793D01*
X21010658Y-15807793D02*
X21010658Y-15760174D01*
X21010658Y-15760174D02*
X21020182Y-15722079D01*
X21020182Y-15722079D02*
X21029706Y-15703031D01*
X21029706Y-15703031D02*
X21039229Y-15693508D01*
X21039229Y-15693508D02*
X21058277Y-15683984D01*
X21201134Y-15683984D02*
X21201134Y-15722079D01*
X21277325Y-15683984D02*
X21277325Y-15722079D01*
X21572563Y-15960174D02*
X21563039Y-15950650D01*
X21563039Y-15950650D02*
X21543991Y-15922079D01*
X21543991Y-15922079D02*
X21534468Y-15903031D01*
X21534468Y-15903031D02*
X21524944Y-15874460D01*
X21524944Y-15874460D02*
X21515420Y-15826841D01*
X21515420Y-15826841D02*
X21515420Y-15788746D01*
X21515420Y-15788746D02*
X21524944Y-15741127D01*
X21524944Y-15741127D02*
X21534468Y-15712555D01*
X21534468Y-15712555D02*
X21543991Y-15693508D01*
X21543991Y-15693508D02*
X21563039Y-15664936D01*
X21563039Y-15664936D02*
X21572563Y-15655412D01*
X21734468Y-15750650D02*
X21734468Y-15883984D01*
X21686849Y-15674460D02*
X21639230Y-15817317D01*
X21639230Y-15817317D02*
X21763039Y-15817317D01*
X21991611Y-15883984D02*
X21991611Y-15683984D01*
X22077325Y-15883984D02*
X22077325Y-15779222D01*
X22077325Y-15779222D02*
X22067801Y-15760174D01*
X22067801Y-15760174D02*
X22048753Y-15750650D01*
X22048753Y-15750650D02*
X22020182Y-15750650D01*
X22020182Y-15750650D02*
X22001134Y-15760174D01*
X22001134Y-15760174D02*
X21991611Y-15769698D01*
X22201134Y-15883984D02*
X22182087Y-15874460D01*
X22182087Y-15874460D02*
X22172563Y-15864936D01*
X22172563Y-15864936D02*
X22163039Y-15845888D01*
X22163039Y-15845888D02*
X22163039Y-15788746D01*
X22163039Y-15788746D02*
X22172563Y-15769698D01*
X22172563Y-15769698D02*
X22182087Y-15760174D01*
X22182087Y-15760174D02*
X22201134Y-15750650D01*
X22201134Y-15750650D02*
X22229706Y-15750650D01*
X22229706Y-15750650D02*
X22248753Y-15760174D01*
X22248753Y-15760174D02*
X22258277Y-15769698D01*
X22258277Y-15769698D02*
X22267801Y-15788746D01*
X22267801Y-15788746D02*
X22267801Y-15845888D01*
X22267801Y-15845888D02*
X22258277Y-15864936D01*
X22258277Y-15864936D02*
X22248753Y-15874460D01*
X22248753Y-15874460D02*
X22229706Y-15883984D01*
X22229706Y-15883984D02*
X22201134Y-15883984D01*
X22382087Y-15883984D02*
X22363039Y-15874460D01*
X22363039Y-15874460D02*
X22353515Y-15855412D01*
X22353515Y-15855412D02*
X22353515Y-15683984D01*
X22534468Y-15874460D02*
X22515420Y-15883984D01*
X22515420Y-15883984D02*
X22477325Y-15883984D01*
X22477325Y-15883984D02*
X22458277Y-15874460D01*
X22458277Y-15874460D02*
X22448753Y-15855412D01*
X22448753Y-15855412D02*
X22448753Y-15779222D01*
X22448753Y-15779222D02*
X22458277Y-15760174D01*
X22458277Y-15760174D02*
X22477325Y-15750650D01*
X22477325Y-15750650D02*
X22515420Y-15750650D01*
X22515420Y-15750650D02*
X22534468Y-15760174D01*
X22534468Y-15760174D02*
X22543991Y-15779222D01*
X22543991Y-15779222D02*
X22543991Y-15798269D01*
X22543991Y-15798269D02*
X22448753Y-15817317D01*
X22620182Y-15874460D02*
X22639230Y-15883984D01*
X22639230Y-15883984D02*
X22677325Y-15883984D01*
X22677325Y-15883984D02*
X22696372Y-15874460D01*
X22696372Y-15874460D02*
X22705896Y-15855412D01*
X22705896Y-15855412D02*
X22705896Y-15845888D01*
X22705896Y-15845888D02*
X22696372Y-15826841D01*
X22696372Y-15826841D02*
X22677325Y-15817317D01*
X22677325Y-15817317D02*
X22648753Y-15817317D01*
X22648753Y-15817317D02*
X22629706Y-15807793D01*
X22629706Y-15807793D02*
X22620182Y-15788746D01*
X22620182Y-15788746D02*
X22620182Y-15779222D01*
X22620182Y-15779222D02*
X22629706Y-15760174D01*
X22629706Y-15760174D02*
X22648753Y-15750650D01*
X22648753Y-15750650D02*
X22677325Y-15750650D01*
X22677325Y-15750650D02*
X22696372Y-15760174D01*
X22772563Y-15960174D02*
X22782087Y-15950650D01*
X22782087Y-15950650D02*
X22801134Y-15922079D01*
X22801134Y-15922079D02*
X22810658Y-15903031D01*
X22810658Y-15903031D02*
X22820182Y-15874460D01*
X22820182Y-15874460D02*
X22829706Y-15826841D01*
X22829706Y-15826841D02*
X22829706Y-15788746D01*
X22829706Y-15788746D02*
X22820182Y-15741127D01*
X22820182Y-15741127D02*
X22810658Y-15712555D01*
X22810658Y-15712555D02*
X22801134Y-15693508D01*
X22801134Y-15693508D02*
X22782087Y-15664936D01*
X22782087Y-15664936D02*
X22772563Y-15655412D01*
X23134468Y-15960174D02*
X23124944Y-15950650D01*
X23124944Y-15950650D02*
X23105896Y-15922079D01*
X23105896Y-15922079D02*
X23096372Y-15903031D01*
X23096372Y-15903031D02*
X23086849Y-15874460D01*
X23086849Y-15874460D02*
X23077325Y-15826841D01*
X23077325Y-15826841D02*
X23077325Y-15788746D01*
X23077325Y-15788746D02*
X23086849Y-15741127D01*
X23086849Y-15741127D02*
X23096372Y-15712555D01*
X23096372Y-15712555D02*
X23105896Y-15693508D01*
X23105896Y-15693508D02*
X23124944Y-15664936D01*
X23124944Y-15664936D02*
X23134468Y-15655412D01*
X23210658Y-15750650D02*
X23210658Y-15883984D01*
X23210658Y-15769698D02*
X23220182Y-15760174D01*
X23220182Y-15760174D02*
X23239230Y-15750650D01*
X23239230Y-15750650D02*
X23267801Y-15750650D01*
X23267801Y-15750650D02*
X23286849Y-15760174D01*
X23286849Y-15760174D02*
X23296372Y-15779222D01*
X23296372Y-15779222D02*
X23296372Y-15883984D01*
X23420182Y-15883984D02*
X23401134Y-15874460D01*
X23401134Y-15874460D02*
X23391611Y-15864936D01*
X23391611Y-15864936D02*
X23382087Y-15845888D01*
X23382087Y-15845888D02*
X23382087Y-15788746D01*
X23382087Y-15788746D02*
X23391611Y-15769698D01*
X23391611Y-15769698D02*
X23401134Y-15760174D01*
X23401134Y-15760174D02*
X23420182Y-15750650D01*
X23420182Y-15750650D02*
X23448753Y-15750650D01*
X23448753Y-15750650D02*
X23467801Y-15760174D01*
X23467801Y-15760174D02*
X23477325Y-15769698D01*
X23477325Y-15769698D02*
X23486849Y-15788746D01*
X23486849Y-15788746D02*
X23486849Y-15845888D01*
X23486849Y-15845888D02*
X23477325Y-15864936D01*
X23477325Y-15864936D02*
X23467801Y-15874460D01*
X23467801Y-15874460D02*
X23448753Y-15883984D01*
X23448753Y-15883984D02*
X23420182Y-15883984D01*
X23543992Y-15750650D02*
X23620182Y-15750650D01*
X23572563Y-15683984D02*
X23572563Y-15855412D01*
X23572563Y-15855412D02*
X23582087Y-15874460D01*
X23582087Y-15874460D02*
X23601134Y-15883984D01*
X23601134Y-15883984D02*
X23620182Y-15883984D01*
X23839230Y-15750650D02*
X23839230Y-15950650D01*
X23839230Y-15760174D02*
X23858277Y-15750650D01*
X23858277Y-15750650D02*
X23896373Y-15750650D01*
X23896373Y-15750650D02*
X23915420Y-15760174D01*
X23915420Y-15760174D02*
X23924944Y-15769698D01*
X23924944Y-15769698D02*
X23934468Y-15788746D01*
X23934468Y-15788746D02*
X23934468Y-15845888D01*
X23934468Y-15845888D02*
X23924944Y-15864936D01*
X23924944Y-15864936D02*
X23915420Y-15874460D01*
X23915420Y-15874460D02*
X23896373Y-15883984D01*
X23896373Y-15883984D02*
X23858277Y-15883984D01*
X23858277Y-15883984D02*
X23839230Y-15874460D01*
X24048753Y-15883984D02*
X24029706Y-15874460D01*
X24029706Y-15874460D02*
X24020182Y-15855412D01*
X24020182Y-15855412D02*
X24020182Y-15683984D01*
X24210658Y-15883984D02*
X24210658Y-15779222D01*
X24210658Y-15779222D02*
X24201134Y-15760174D01*
X24201134Y-15760174D02*
X24182087Y-15750650D01*
X24182087Y-15750650D02*
X24143992Y-15750650D01*
X24143992Y-15750650D02*
X24124944Y-15760174D01*
X24210658Y-15874460D02*
X24191611Y-15883984D01*
X24191611Y-15883984D02*
X24143992Y-15883984D01*
X24143992Y-15883984D02*
X24124944Y-15874460D01*
X24124944Y-15874460D02*
X24115420Y-15855412D01*
X24115420Y-15855412D02*
X24115420Y-15836365D01*
X24115420Y-15836365D02*
X24124944Y-15817317D01*
X24124944Y-15817317D02*
X24143992Y-15807793D01*
X24143992Y-15807793D02*
X24191611Y-15807793D01*
X24191611Y-15807793D02*
X24210658Y-15798269D01*
X24277325Y-15750650D02*
X24353515Y-15750650D01*
X24305896Y-15683984D02*
X24305896Y-15855412D01*
X24305896Y-15855412D02*
X24315420Y-15874460D01*
X24315420Y-15874460D02*
X24334468Y-15883984D01*
X24334468Y-15883984D02*
X24353515Y-15883984D01*
X24496373Y-15874460D02*
X24477325Y-15883984D01*
X24477325Y-15883984D02*
X24439230Y-15883984D01*
X24439230Y-15883984D02*
X24420182Y-15874460D01*
X24420182Y-15874460D02*
X24410658Y-15855412D01*
X24410658Y-15855412D02*
X24410658Y-15779222D01*
X24410658Y-15779222D02*
X24420182Y-15760174D01*
X24420182Y-15760174D02*
X24439230Y-15750650D01*
X24439230Y-15750650D02*
X24477325Y-15750650D01*
X24477325Y-15750650D02*
X24496373Y-15760174D01*
X24496373Y-15760174D02*
X24505896Y-15779222D01*
X24505896Y-15779222D02*
X24505896Y-15798269D01*
X24505896Y-15798269D02*
X24410658Y-15817317D01*
X24677325Y-15883984D02*
X24677325Y-15683984D01*
X24677325Y-15874460D02*
X24658277Y-15883984D01*
X24658277Y-15883984D02*
X24620182Y-15883984D01*
X24620182Y-15883984D02*
X24601134Y-15874460D01*
X24601134Y-15874460D02*
X24591611Y-15864936D01*
X24591611Y-15864936D02*
X24582087Y-15845888D01*
X24582087Y-15845888D02*
X24582087Y-15788746D01*
X24582087Y-15788746D02*
X24591611Y-15769698D01*
X24591611Y-15769698D02*
X24601134Y-15760174D01*
X24601134Y-15760174D02*
X24620182Y-15750650D01*
X24620182Y-15750650D02*
X24658277Y-15750650D01*
X24658277Y-15750650D02*
X24677325Y-15760174D01*
X24753515Y-15960174D02*
X24763039Y-15950650D01*
X24763039Y-15950650D02*
X24782087Y-15922079D01*
X24782087Y-15922079D02*
X24791611Y-15903031D01*
X24791611Y-15903031D02*
X24801134Y-15874460D01*
X24801134Y-15874460D02*
X24810658Y-15826841D01*
X24810658Y-15826841D02*
X24810658Y-15788746D01*
X24810658Y-15788746D02*
X24801134Y-15741127D01*
X24801134Y-15741127D02*
X24791611Y-15712555D01*
X24791611Y-15712555D02*
X24782087Y-15693508D01*
X24782087Y-15693508D02*
X24763039Y-15664936D01*
X24763039Y-15664936D02*
X24753515Y-15655412D01*
M02*
