%TF.GenerationSoftware,KiCad,Pcbnew,8.0.0*%
%TF.CreationDate,2025-01-17T03:21:48+02:00*%
%TF.ProjectId,diplomna_2024_solar_pcb_layout,6469706c-6f6d-46e6-915f-323032345f73,rev?*%
%TF.SameCoordinates,Original*%
%TF.FileFunction,Copper,L1,Top*%
%TF.FilePolarity,Positive*%
%FSLAX46Y46*%
G04 Gerber Fmt 4.6, Leading zero omitted, Abs format (unit mm)*
G04 Created by KiCad (PCBNEW 8.0.0) date 2025-01-17 03:21:48*
%MOMM*%
%LPD*%
G01*
G04 APERTURE LIST*
%TA.AperFunction,ComponentPad*%
%ADD10R,2.500000X2.500000*%
%TD*%
%TA.AperFunction,ComponentPad*%
%ADD11R,1.700000X1.700000*%
%TD*%
%TA.AperFunction,ComponentPad*%
%ADD12O,1.700000X1.700000*%
%TD*%
%TA.AperFunction,ComponentPad*%
%ADD13C,6.200000*%
%TD*%
%TA.AperFunction,ComponentPad*%
%ADD14R,1.500000X1.500000*%
%TD*%
%TA.AperFunction,ComponentPad*%
%ADD15C,1.500000*%
%TD*%
%TA.AperFunction,Conductor*%
%ADD16C,1.000000*%
%TD*%
%TA.AperFunction,Conductor*%
%ADD17C,0.200000*%
%TD*%
%TA.AperFunction,Conductor*%
%ADD18C,2.000000*%
%TD*%
G04 APERTURE END LIST*
D10*
%TO.P,REF\u002A\u002A,1*%
%TO.N,vdd*%
X198000000Y-109000000D03*
%TD*%
%TO.P,REF\u002A\u002A,1*%
%TO.N,BAT-OUT*%
X198000000Y-137000000D03*
%TD*%
%TO.P,REF\u002A\u002A,1*%
%TO.N,GND*%
X185000000Y-137000000D03*
%TD*%
%TO.P,REF\u002A\u002A,1*%
%TO.N,GND*%
X185000000Y-109000000D03*
%TD*%
%TO.P,REF\u002A\u002A,1*%
%TO.N,GND*%
X227000000Y-89000000D03*
%TD*%
%TO.P,REF\u002A\u002A,1*%
%TO.N,vdd*%
X227000000Y-76000000D03*
%TD*%
%TO.P,REF\u002A\u002A,1*%
%TO.N,BAT-OUT*%
X255000000Y-76000000D03*
%TD*%
%TO.P,REF\u002A\u002A,1*%
%TO.N,GND*%
X255000000Y-89000000D03*
%TD*%
D11*
%TO.P,REF\u002A\u002A,1*%
%TO.N,-*%
X220275000Y-101725000D03*
D12*
%TO.P,REF\u002A\u002A,2*%
%TO.N,+*%
X217735000Y-101725000D03*
%TD*%
D11*
%TO.P,REF\u002A\u002A,1*%
%TO.N,-*%
X268500000Y-112725000D03*
D12*
%TO.P,REF\u002A\u002A,2*%
%TO.N,+*%
X268500000Y-115265000D03*
%TD*%
D11*
%TO.P,REF\u002A\u002A,1*%
%TO.N,GND*%
X268500000Y-126225000D03*
D12*
%TO.P,REF\u002A\u002A,2*%
%TO.N,BAT-IN*%
X268500000Y-128765000D03*
%TD*%
D13*
%TO.P,,S1*%
%TO.N,N/C*%
X203000000Y-97500000D03*
X203000000Y-146500000D03*
%TO.P,,S2*%
X261000000Y-97500000D03*
%TO.P,,S3*%
X261000000Y-146500000D03*
%TD*%
D14*
%TO.P,J\u002A\u002A,1*%
%TO.N,GND*%
X256000000Y-60500000D03*
D15*
%TO.P,J\u002A\u002A,2*%
X254000000Y-60500000D03*
%TO.P,J\u002A\u002A,3*%
%TO.N,N/C*%
X252000000Y-60500000D03*
%TO.P,J\u002A\u002A,4*%
X250000000Y-60500000D03*
%TO.P,J\u002A\u002A,5*%
X248000000Y-60500000D03*
%TO.P,J\u002A\u002A,6*%
X246000000Y-60500000D03*
%TO.P,J\u002A\u002A,7*%
X244000000Y-60500000D03*
%TO.P,J\u002A\u002A,8*%
X242000000Y-60500000D03*
%TO.P,J\u002A\u002A,9*%
X240000000Y-60500000D03*
%TO.P,J\u002A\u002A,10*%
X238000000Y-60500000D03*
%TO.P,J\u002A\u002A,11*%
X236000000Y-60500000D03*
%TO.P,J\u002A\u002A,12*%
X234000000Y-60500000D03*
%TO.P,J\u002A\u002A,13*%
X232000000Y-60500000D03*
%TO.P,J\u002A\u002A,14*%
X230000000Y-60500000D03*
%TO.P,J\u002A\u002A,15*%
X228000000Y-60500000D03*
%TO.P,J\u002A\u002A,16*%
X226000000Y-60500000D03*
%TO.P,J\u002A\u002A,17*%
X224000000Y-60500000D03*
%TO.P,J\u002A\u002A,18*%
X222000000Y-60500000D03*
%TO.P,J\u002A\u002A,19*%
X220000000Y-60500000D03*
%TO.P,J\u002A\u002A,20*%
X218000000Y-60500000D03*
%TO.P,J\u002A\u002A,21*%
X216000000Y-60500000D03*
%TO.P,J\u002A\u002A,22*%
X214000000Y-60500000D03*
%TO.P,J\u002A\u002A,23*%
X212000000Y-60500000D03*
%TO.P,J\u002A\u002A,24*%
X210000000Y-60500000D03*
%TO.P,J\u002A\u002A,25*%
X208000000Y-60500000D03*
%TO.P,J\u002A\u002A,26*%
X206000000Y-60500000D03*
%TO.P,J\u002A\u002A,27*%
X204000000Y-60500000D03*
%TO.P,J\u002A\u002A,28*%
X202000000Y-60500000D03*
%TO.P,J\u002A\u002A,29*%
X200000000Y-60500000D03*
%TO.P,J\u002A\u002A,30*%
%TO.N,GND*%
X198000000Y-60500000D03*
%TO.P,J\u002A\u002A,31*%
X256000000Y-62500000D03*
%TO.P,J\u002A\u002A,32*%
%TO.N,N/C*%
X254000000Y-62500000D03*
%TO.P,J\u002A\u002A,33*%
X252000000Y-62500000D03*
%TO.P,J\u002A\u002A,34*%
X250000000Y-62500000D03*
%TO.P,J\u002A\u002A,35*%
X248000000Y-62500000D03*
%TO.P,J\u002A\u002A,36*%
X246000000Y-62500000D03*
%TO.P,J\u002A\u002A,37*%
X244000000Y-62500000D03*
%TO.P,J\u002A\u002A,38*%
X242000000Y-62500000D03*
%TO.P,J\u002A\u002A,39*%
X240000000Y-62500000D03*
%TO.P,J\u002A\u002A,40*%
X238000000Y-62500000D03*
%TO.P,J\u002A\u002A,41*%
X236000000Y-62500000D03*
%TO.P,J\u002A\u002A,42*%
X234000000Y-62500000D03*
%TO.P,J\u002A\u002A,43*%
X232000000Y-62500000D03*
%TO.P,J\u002A\u002A,44*%
X230000000Y-62500000D03*
%TO.P,J\u002A\u002A,45*%
X228000000Y-62500000D03*
%TO.P,J\u002A\u002A,46*%
X226000000Y-62500000D03*
%TO.P,J\u002A\u002A,47*%
X224000000Y-62500000D03*
%TO.P,J\u002A\u002A,48*%
X222000000Y-62500000D03*
%TO.P,J\u002A\u002A,49*%
X220000000Y-62500000D03*
%TO.P,J\u002A\u002A,50*%
X218000000Y-62500000D03*
%TO.P,J\u002A\u002A,51*%
X216000000Y-62500000D03*
%TO.P,J\u002A\u002A,52*%
X214000000Y-62500000D03*
%TO.P,J\u002A\u002A,53*%
X212000000Y-62500000D03*
%TO.P,J\u002A\u002A,54*%
X210000000Y-62500000D03*
%TO.P,J\u002A\u002A,55*%
X208000000Y-62500000D03*
%TO.P,J\u002A\u002A,56*%
X206000000Y-62500000D03*
%TO.P,J\u002A\u002A,57*%
X204000000Y-62500000D03*
%TO.P,J\u002A\u002A,58*%
X202000000Y-62500000D03*
%TO.P,J\u002A\u002A,59*%
X200000000Y-62500000D03*
%TO.P,J\u002A\u002A,60*%
X198000000Y-62500000D03*
%TO.P,J\u002A\u002A,61*%
%TO.N,BAT-IN*%
X256000000Y-64500000D03*
%TO.P,J\u002A\u002A,62*%
%TO.N,N/C*%
X254000000Y-64500000D03*
%TO.P,J\u002A\u002A,63*%
X252000000Y-64500000D03*
%TO.P,J\u002A\u002A,64*%
X250000000Y-64500000D03*
%TO.P,J\u002A\u002A,65*%
X248000000Y-64500000D03*
%TO.P,J\u002A\u002A,66*%
X246000000Y-64500000D03*
%TO.P,J\u002A\u002A,67*%
X244000000Y-64500000D03*
%TO.P,J\u002A\u002A,68*%
X242000000Y-64500000D03*
%TO.P,J\u002A\u002A,69*%
X240000000Y-64500000D03*
%TO.P,J\u002A\u002A,70*%
X238000000Y-64500000D03*
%TO.P,J\u002A\u002A,71*%
X236000000Y-64500000D03*
%TO.P,J\u002A\u002A,72*%
X234000000Y-64500000D03*
%TO.P,J\u002A\u002A,73*%
X232000000Y-64500000D03*
%TO.P,J\u002A\u002A,74*%
X230000000Y-64500000D03*
%TO.P,J\u002A\u002A,75*%
X228000000Y-64500000D03*
%TO.P,J\u002A\u002A,76*%
X226000000Y-64500000D03*
%TO.P,J\u002A\u002A,77*%
X224000000Y-64500000D03*
%TO.P,J\u002A\u002A,78*%
X222000000Y-64500000D03*
%TO.P,J\u002A\u002A,79*%
X220000000Y-64500000D03*
%TO.P,J\u002A\u002A,80*%
X218000000Y-64500000D03*
%TO.P,J\u002A\u002A,81*%
X216000000Y-64500000D03*
%TO.P,J\u002A\u002A,82*%
X214000000Y-64500000D03*
%TO.P,J\u002A\u002A,83*%
X212000000Y-64500000D03*
%TO.P,J\u002A\u002A,84*%
X210000000Y-64500000D03*
%TO.P,J\u002A\u002A,85*%
X208000000Y-64500000D03*
%TO.P,J\u002A\u002A,86*%
X206000000Y-64500000D03*
%TO.P,J\u002A\u002A,87*%
X204000000Y-64500000D03*
%TO.P,J\u002A\u002A,88*%
X202000000Y-64500000D03*
%TO.P,J\u002A\u002A,89*%
X200000000Y-64500000D03*
%TO.P,J\u002A\u002A,90*%
%TO.N,vdd*%
X198000000Y-64500000D03*
%TO.P,J\u002A\u002A,91*%
%TO.N,BAT-OUT*%
X256000000Y-66500000D03*
%TO.P,J\u002A\u002A,92*%
%TO.N,N/C*%
X254000000Y-66500000D03*
%TO.P,J\u002A\u002A,93*%
X252000000Y-66500000D03*
%TO.P,J\u002A\u002A,94*%
X250000000Y-66500000D03*
%TO.P,J\u002A\u002A,95*%
X248000000Y-66500000D03*
%TO.P,J\u002A\u002A,96*%
X246000000Y-66500000D03*
%TO.P,J\u002A\u002A,97*%
X244000000Y-66500000D03*
%TO.P,J\u002A\u002A,98*%
X242000000Y-66500000D03*
%TO.P,J\u002A\u002A,99*%
X240000000Y-66500000D03*
%TO.P,J\u002A\u002A,100*%
X238000000Y-66500000D03*
%TO.P,J\u002A\u002A,101*%
X236000000Y-66500000D03*
%TO.P,J\u002A\u002A,102*%
X234000000Y-66500000D03*
%TO.P,J\u002A\u002A,103*%
X232000000Y-66500000D03*
%TO.P,J\u002A\u002A,104*%
X230000000Y-66500000D03*
%TO.P,J\u002A\u002A,105*%
X228000000Y-66500000D03*
%TO.P,J\u002A\u002A,106*%
X226000000Y-66500000D03*
%TO.P,J\u002A\u002A,107*%
X224000000Y-66500000D03*
%TO.P,J\u002A\u002A,108*%
X222000000Y-66500000D03*
%TO.P,J\u002A\u002A,109*%
X220000000Y-66500000D03*
%TO.P,J\u002A\u002A,110*%
X218000000Y-66500000D03*
%TO.P,J\u002A\u002A,111*%
X216000000Y-66500000D03*
%TO.P,J\u002A\u002A,112*%
X214000000Y-66500000D03*
%TO.P,J\u002A\u002A,113*%
X212000000Y-66500000D03*
%TO.P,J\u002A\u002A,114*%
X210000000Y-66500000D03*
%TO.P,J\u002A\u002A,115*%
X208000000Y-66500000D03*
%TO.P,J\u002A\u002A,116*%
X206000000Y-66500000D03*
%TO.P,J\u002A\u002A,117*%
X204000000Y-66500000D03*
%TO.P,J\u002A\u002A,118*%
X202000000Y-66500000D03*
%TO.P,J\u002A\u002A,119*%
X200000000Y-66500000D03*
%TO.P,J\u002A\u002A,120*%
%TO.N,vdd*%
X198000000Y-66500000D03*
%TD*%
D16*
%TO.N,vdd*%
X198000000Y-64500000D02*
X198000000Y-66500000D01*
D17*
X198000000Y-109000000D02*
X198000000Y-66500000D01*
X207500000Y-76000000D02*
X198000000Y-66500000D01*
X227000000Y-76000000D02*
X207500000Y-76000000D01*
D16*
%TO.N,BAT-OUT*%
X198000000Y-119267968D02*
X198000000Y-137000000D01*
X212000000Y-105267968D02*
X198000000Y-119267968D01*
X212000000Y-97000000D02*
X212000000Y-105267968D01*
X234000000Y-97000000D02*
X212000000Y-97000000D01*
X255000000Y-76000000D02*
X234000000Y-97000000D01*
X256000000Y-75000000D02*
X255000000Y-76000000D01*
X256000000Y-66500000D02*
X256000000Y-75000000D01*
%TO.N,+*%
X230715000Y-115265000D02*
X217735000Y-102285000D01*
X268500000Y-115265000D02*
X230715000Y-115265000D01*
X217735000Y-102285000D02*
X217735000Y-101725000D01*
%TO.N,-*%
X231275000Y-112725000D02*
X220275000Y-101725000D01*
X268500000Y-112725000D02*
X231275000Y-112725000D01*
D18*
%TO.N,BAT-IN*%
X272000000Y-126825000D02*
X270060000Y-128765000D01*
X270060000Y-128765000D02*
X268500000Y-128765000D01*
X272000000Y-79742283D02*
X272000000Y-126825000D01*
X256000000Y-64500000D02*
X256757717Y-64500000D01*
X256757717Y-64500000D02*
X272000000Y-79742283D01*
D17*
%TO.N,*%
X203928000Y-66572000D02*
X204000000Y-66500000D01*
X238000000Y-66600000D02*
X238000000Y-66500000D01*
%TD*%
M02*
