%TF.GenerationSoftware,KiCad,Pcbnew,8.0.0*%
%TF.CreationDate,2025-01-17T03:21:48+02:00*%
%TF.ProjectId,diplomna_2024_solar_pcb_layout,6469706c-6f6d-46e6-915f-323032345f73,rev?*%
%TF.SameCoordinates,Original*%
%TF.FileFunction,Copper,L3,Inr*%
%TF.FilePolarity,Positive*%
%FSLAX46Y46*%
G04 Gerber Fmt 4.6, Leading zero omitted, Abs format (unit mm)*
G04 Created by KiCad (PCBNEW 8.0.0) date 2025-01-17 03:21:48*
%MOMM*%
%LPD*%
G01*
G04 APERTURE LIST*
%TA.AperFunction,ComponentPad*%
%ADD10R,2.500000X2.500000*%
%TD*%
%TA.AperFunction,ComponentPad*%
%ADD11R,1.700000X1.700000*%
%TD*%
%TA.AperFunction,ComponentPad*%
%ADD12O,1.700000X1.700000*%
%TD*%
%TA.AperFunction,ComponentPad*%
%ADD13C,6.200000*%
%TD*%
%TA.AperFunction,ComponentPad*%
%ADD14R,1.500000X1.500000*%
%TD*%
%TA.AperFunction,ComponentPad*%
%ADD15C,1.500000*%
%TD*%
%TA.AperFunction,Conductor*%
%ADD16C,0.200000*%
%TD*%
G04 APERTURE END LIST*
D10*
%TO.N,vdd*%
%TO.C,REF\u002A\u002A*%
X198000000Y-109000000D03*
%TD*%
%TO.N,BAT-OUT*%
%TO.C,REF\u002A\u002A*%
X198000000Y-137000000D03*
%TD*%
%TO.N,GND*%
%TO.C,REF\u002A\u002A*%
X185000000Y-137000000D03*
%TD*%
%TO.N,GND*%
%TO.C,REF\u002A\u002A*%
X185000000Y-109000000D03*
%TD*%
%TO.N,GND*%
%TO.C,REF\u002A\u002A*%
X227000000Y-89000000D03*
%TD*%
%TO.N,vdd*%
%TO.C,REF\u002A\u002A*%
X227000000Y-76000000D03*
%TD*%
%TO.N,BAT-OUT*%
%TO.C,REF\u002A\u002A*%
X255000000Y-76000000D03*
%TD*%
%TO.N,GND*%
%TO.C,REF\u002A\u002A*%
X255000000Y-89000000D03*
%TD*%
D11*
%TO.N,-*%
%TO.C,REF\u002A\u002A*%
X220275000Y-101725000D03*
D12*
%TO.N,+*%
X217735000Y-101725000D03*
%TD*%
D11*
%TO.N,-*%
%TO.C,REF\u002A\u002A*%
X268500000Y-112725000D03*
D12*
%TO.N,+*%
X268500000Y-115265000D03*
%TD*%
D11*
%TO.N,GND*%
%TO.C,REF\u002A\u002A*%
X268500000Y-126225000D03*
D12*
%TO.N,BAT-IN*%
X268500000Y-128765000D03*
%TD*%
D13*
%TO.N,N/C*%
%TO.C,*%
X203000000Y-97500000D03*
X203000000Y-146500000D03*
X261000000Y-97500000D03*
X261000000Y-146500000D03*
%TD*%
D14*
%TO.N,GND*%
%TO.C,J\u002A\u002A*%
X256000000Y-60500000D03*
D15*
X254000000Y-60500000D03*
%TO.N,N/C*%
X252000000Y-60500000D03*
X250000000Y-60500000D03*
X248000000Y-60500000D03*
X246000000Y-60500000D03*
X244000000Y-60500000D03*
X242000000Y-60500000D03*
X240000000Y-60500000D03*
X238000000Y-60500000D03*
X236000000Y-60500000D03*
X234000000Y-60500000D03*
X232000000Y-60500000D03*
X230000000Y-60500000D03*
X228000000Y-60500000D03*
X226000000Y-60500000D03*
X224000000Y-60500000D03*
X222000000Y-60500000D03*
X220000000Y-60500000D03*
X218000000Y-60500000D03*
X216000000Y-60500000D03*
X214000000Y-60500000D03*
X212000000Y-60500000D03*
X210000000Y-60500000D03*
X208000000Y-60500000D03*
X206000000Y-60500000D03*
X204000000Y-60500000D03*
X202000000Y-60500000D03*
X200000000Y-60500000D03*
%TO.N,GND*%
X198000000Y-60500000D03*
X256000000Y-62500000D03*
%TO.N,N/C*%
X254000000Y-62500000D03*
X252000000Y-62500000D03*
X250000000Y-62500000D03*
X248000000Y-62500000D03*
X246000000Y-62500000D03*
X244000000Y-62500000D03*
X242000000Y-62500000D03*
X240000000Y-62500000D03*
X238000000Y-62500000D03*
X236000000Y-62500000D03*
X234000000Y-62500000D03*
X232000000Y-62500000D03*
X230000000Y-62500000D03*
X228000000Y-62500000D03*
X226000000Y-62500000D03*
X224000000Y-62500000D03*
X222000000Y-62500000D03*
X220000000Y-62500000D03*
X218000000Y-62500000D03*
X216000000Y-62500000D03*
X214000000Y-62500000D03*
X212000000Y-62500000D03*
X210000000Y-62500000D03*
X208000000Y-62500000D03*
X206000000Y-62500000D03*
X204000000Y-62500000D03*
X202000000Y-62500000D03*
X200000000Y-62500000D03*
X198000000Y-62500000D03*
%TO.N,BAT-IN*%
X256000000Y-64500000D03*
%TO.N,N/C*%
X254000000Y-64500000D03*
X252000000Y-64500000D03*
X250000000Y-64500000D03*
X248000000Y-64500000D03*
X246000000Y-64500000D03*
X244000000Y-64500000D03*
X242000000Y-64500000D03*
X240000000Y-64500000D03*
X238000000Y-64500000D03*
X236000000Y-64500000D03*
X234000000Y-64500000D03*
X232000000Y-64500000D03*
X230000000Y-64500000D03*
X228000000Y-64500000D03*
X226000000Y-64500000D03*
X224000000Y-64500000D03*
X222000000Y-64500000D03*
X220000000Y-64500000D03*
X218000000Y-64500000D03*
X216000000Y-64500000D03*
X214000000Y-64500000D03*
X212000000Y-64500000D03*
X210000000Y-64500000D03*
X208000000Y-64500000D03*
X206000000Y-64500000D03*
X204000000Y-64500000D03*
X202000000Y-64500000D03*
X200000000Y-64500000D03*
%TO.N,vdd*%
X198000000Y-64500000D03*
%TO.N,BAT-OUT*%
X256000000Y-66500000D03*
%TO.N,N/C*%
X254000000Y-66500000D03*
X252000000Y-66500000D03*
X250000000Y-66500000D03*
X248000000Y-66500000D03*
X246000000Y-66500000D03*
X244000000Y-66500000D03*
X242000000Y-66500000D03*
X240000000Y-66500000D03*
X238000000Y-66500000D03*
X236000000Y-66500000D03*
X234000000Y-66500000D03*
X232000000Y-66500000D03*
X230000000Y-66500000D03*
X228000000Y-66500000D03*
X226000000Y-66500000D03*
X224000000Y-66500000D03*
X222000000Y-66500000D03*
X220000000Y-66500000D03*
X218000000Y-66500000D03*
X216000000Y-66500000D03*
X214000000Y-66500000D03*
X212000000Y-66500000D03*
X210000000Y-66500000D03*
X208000000Y-66500000D03*
X206000000Y-66500000D03*
X204000000Y-66500000D03*
X202000000Y-66500000D03*
X200000000Y-66500000D03*
%TO.N,vdd*%
X198000000Y-66500000D03*
%TD*%
D16*
%TO.N,*%
X217400000Y-67100000D02*
X218000000Y-66500000D01*
%TD*%
M02*
