M48
; DRILL file {KiCad 8.0.0} date 2025-01-17T03:21:49+0200
; FORMAT={-:-/ absolute / inch / decimal}
; #@! TF.CreationDate,2025-01-17T03:21:49+02:00
; #@! TF.GenerationSoftware,Kicad,Pcbnew,8.0.0
; #@! TF.FileFunction,Plated,1,4,PTH
FMAT,2
INCH
; #@! TA.AperFunction,Plated,PTH,ComponentDrill
T1C0.0394
; #@! TA.AperFunction,Plated,PTH,ComponentDrill
T2C0.0472
; #@! TA.AperFunction,Plated,PTH,ComponentDrill
T3C0.1083
%
G90
G05
T1
X7.7953Y-2.3819
X7.7953Y-2.4606
X7.7953Y-2.5394
X7.7953Y-2.6181
X7.874Y-2.3819
X7.874Y-2.4606
X7.874Y-2.5394
X7.874Y-2.6181
X7.9528Y-2.3819
X7.9528Y-2.4606
X7.9528Y-2.5394
X7.9528Y-2.6181
X8.0315Y-2.3819
X8.0315Y-2.4606
X8.0315Y-2.5394
X8.0315Y-2.6181
X8.1102Y-2.3819
X8.1102Y-2.4606
X8.1102Y-2.5394
X8.1102Y-2.6181
X8.189Y-2.3819
X8.189Y-2.4606
X8.189Y-2.5394
X8.189Y-2.6181
X8.2677Y-2.3819
X8.2677Y-2.4606
X8.2677Y-2.5394
X8.2677Y-2.6181
X8.3465Y-2.3819
X8.3465Y-2.4606
X8.3465Y-2.5394
X8.3465Y-2.6181
X8.4252Y-2.3819
X8.4252Y-2.4606
X8.4252Y-2.5394
X8.4252Y-2.6181
X8.5039Y-2.3819
X8.5039Y-2.4606
X8.5039Y-2.5394
X8.5039Y-2.6181
X8.5722Y-4.0049
X8.5827Y-2.3819
X8.5827Y-2.4606
X8.5827Y-2.5394
X8.5827Y-2.6181
X8.6614Y-2.3819
X8.6614Y-2.4606
X8.6614Y-2.5394
X8.6614Y-2.6181
X8.6722Y-4.0049
X8.7402Y-2.3819
X8.7402Y-2.4606
X8.7402Y-2.5394
X8.7402Y-2.6181
X8.8189Y-2.3819
X8.8189Y-2.4606
X8.8189Y-2.5394
X8.8189Y-2.6181
X8.8976Y-2.3819
X8.8976Y-2.4606
X8.8976Y-2.5394
X8.8976Y-2.6181
X8.9764Y-2.3819
X8.9764Y-2.4606
X8.9764Y-2.5394
X8.9764Y-2.6181
X9.0551Y-2.3819
X9.0551Y-2.4606
X9.0551Y-2.5394
X9.0551Y-2.6181
X9.1339Y-2.3819
X9.1339Y-2.4606
X9.1339Y-2.5394
X9.1339Y-2.6181
X9.2126Y-2.3819
X9.2126Y-2.4606
X9.2126Y-2.5394
X9.2126Y-2.6181
X9.2913Y-2.3819
X9.2913Y-2.4606
X9.2913Y-2.5394
X9.2913Y-2.6181
X9.3701Y-2.3819
X9.3701Y-2.4606
X9.3701Y-2.5394
X9.3701Y-2.6181
X9.4488Y-2.3819
X9.4488Y-2.4606
X9.4488Y-2.5394
X9.4488Y-2.6181
X9.5276Y-2.3819
X9.5276Y-2.4606
X9.5276Y-2.5394
X9.5276Y-2.6181
X9.6063Y-2.3819
X9.6063Y-2.4606
X9.6063Y-2.5394
X9.6063Y-2.6181
X9.685Y-2.3819
X9.685Y-2.4606
X9.685Y-2.5394
X9.685Y-2.6181
X9.7638Y-2.3819
X9.7638Y-2.4606
X9.7638Y-2.5394
X9.7638Y-2.6181
X9.8425Y-2.3819
X9.8425Y-2.4606
X9.8425Y-2.5394
X9.8425Y-2.6181
X9.9213Y-2.3819
X9.9213Y-2.4606
X9.9213Y-2.5394
X9.9213Y-2.6181
X10.0Y-2.3819
X10.0Y-2.4606
X10.0Y-2.5394
X10.0Y-2.6181
X10.0787Y-2.3819
X10.0787Y-2.4606
X10.0787Y-2.5394
X10.0787Y-2.6181
X10.5709Y-4.438
X10.5709Y-4.538
X10.5709Y-4.9695
X10.5709Y-5.0695
T2
X7.2835Y-4.2913
X7.2835Y-5.3937
X7.7953Y-4.2913
X7.7953Y-5.3937
X8.937Y-2.9921
X8.937Y-3.5039
X10.0394Y-2.9921
X10.0394Y-3.5039
T3
X7.9921Y-3.8386
X7.9921Y-5.7677
X10.2756Y-3.8386
X10.2756Y-5.7677
M30
