%TF.GenerationSoftware,KiCad,Pcbnew,8.0.0*%
%TF.CreationDate,2025-01-10T02:25:12+02:00*%
%TF.ProjectId,diplomna_2024_pcb_layout,6469706c-6f6d-46e6-915f-323032345f70,rev?*%
%TF.SameCoordinates,Original*%
%TF.FileFunction,Legend,Top*%
%TF.FilePolarity,Positive*%
%FSLAX46Y46*%
G04 Gerber Fmt 4.6, Leading zero omitted, Abs format (unit mm)*
G04 Created by KiCad (PCBNEW 8.0.0) date 2025-01-10 02:25:12*
%MOMM*%
%LPD*%
G01*
G04 APERTURE LIST*
%ADD10C,0.300000*%
%ADD11C,0.187500*%
%ADD12C,0.150000*%
%ADD13C,0.120000*%
%ADD14C,0.127000*%
%ADD15C,0.200000*%
G04 APERTURE END LIST*
D10*
X207411653Y-114657971D02*
X207340225Y-114729400D01*
X207340225Y-114729400D02*
X207125939Y-114800828D01*
X207125939Y-114800828D02*
X206983082Y-114800828D01*
X206983082Y-114800828D02*
X206768796Y-114729400D01*
X206768796Y-114729400D02*
X206625939Y-114586542D01*
X206625939Y-114586542D02*
X206554510Y-114443685D01*
X206554510Y-114443685D02*
X206483082Y-114157971D01*
X206483082Y-114157971D02*
X206483082Y-113943685D01*
X206483082Y-113943685D02*
X206554510Y-113657971D01*
X206554510Y-113657971D02*
X206625939Y-113515114D01*
X206625939Y-113515114D02*
X206768796Y-113372257D01*
X206768796Y-113372257D02*
X206983082Y-113300828D01*
X206983082Y-113300828D02*
X207125939Y-113300828D01*
X207125939Y-113300828D02*
X207340225Y-113372257D01*
X207340225Y-113372257D02*
X207411653Y-113443685D01*
X207983082Y-114729400D02*
X208197368Y-114800828D01*
X208197368Y-114800828D02*
X208554510Y-114800828D01*
X208554510Y-114800828D02*
X208697368Y-114729400D01*
X208697368Y-114729400D02*
X208768796Y-114657971D01*
X208768796Y-114657971D02*
X208840225Y-114515114D01*
X208840225Y-114515114D02*
X208840225Y-114372257D01*
X208840225Y-114372257D02*
X208768796Y-114229400D01*
X208768796Y-114229400D02*
X208697368Y-114157971D01*
X208697368Y-114157971D02*
X208554510Y-114086542D01*
X208554510Y-114086542D02*
X208268796Y-114015114D01*
X208268796Y-114015114D02*
X208125939Y-113943685D01*
X208125939Y-113943685D02*
X208054510Y-113872257D01*
X208054510Y-113872257D02*
X207983082Y-113729400D01*
X207983082Y-113729400D02*
X207983082Y-113586542D01*
X207983082Y-113586542D02*
X208054510Y-113443685D01*
X208054510Y-113443685D02*
X208125939Y-113372257D01*
X208125939Y-113372257D02*
X208268796Y-113300828D01*
X208268796Y-113300828D02*
X208625939Y-113300828D01*
X208625939Y-113300828D02*
X208840225Y-113372257D01*
X188911653Y-107157971D02*
X188840225Y-107229400D01*
X188840225Y-107229400D02*
X188625939Y-107300828D01*
X188625939Y-107300828D02*
X188483082Y-107300828D01*
X188483082Y-107300828D02*
X188268796Y-107229400D01*
X188268796Y-107229400D02*
X188125939Y-107086542D01*
X188125939Y-107086542D02*
X188054510Y-106943685D01*
X188054510Y-106943685D02*
X187983082Y-106657971D01*
X187983082Y-106657971D02*
X187983082Y-106443685D01*
X187983082Y-106443685D02*
X188054510Y-106157971D01*
X188054510Y-106157971D02*
X188125939Y-106015114D01*
X188125939Y-106015114D02*
X188268796Y-105872257D01*
X188268796Y-105872257D02*
X188483082Y-105800828D01*
X188483082Y-105800828D02*
X188625939Y-105800828D01*
X188625939Y-105800828D02*
X188840225Y-105872257D01*
X188840225Y-105872257D02*
X188911653Y-105943685D01*
X189483082Y-107229400D02*
X189697368Y-107300828D01*
X189697368Y-107300828D02*
X190054510Y-107300828D01*
X190054510Y-107300828D02*
X190197368Y-107229400D01*
X190197368Y-107229400D02*
X190268796Y-107157971D01*
X190268796Y-107157971D02*
X190340225Y-107015114D01*
X190340225Y-107015114D02*
X190340225Y-106872257D01*
X190340225Y-106872257D02*
X190268796Y-106729400D01*
X190268796Y-106729400D02*
X190197368Y-106657971D01*
X190197368Y-106657971D02*
X190054510Y-106586542D01*
X190054510Y-106586542D02*
X189768796Y-106515114D01*
X189768796Y-106515114D02*
X189625939Y-106443685D01*
X189625939Y-106443685D02*
X189554510Y-106372257D01*
X189554510Y-106372257D02*
X189483082Y-106229400D01*
X189483082Y-106229400D02*
X189483082Y-106086542D01*
X189483082Y-106086542D02*
X189554510Y-105943685D01*
X189554510Y-105943685D02*
X189625939Y-105872257D01*
X189625939Y-105872257D02*
X189768796Y-105800828D01*
X189768796Y-105800828D02*
X190125939Y-105800828D01*
X190125939Y-105800828D02*
X190340225Y-105872257D01*
X188911653Y-112157971D02*
X188840225Y-112229400D01*
X188840225Y-112229400D02*
X188625939Y-112300828D01*
X188625939Y-112300828D02*
X188483082Y-112300828D01*
X188483082Y-112300828D02*
X188268796Y-112229400D01*
X188268796Y-112229400D02*
X188125939Y-112086542D01*
X188125939Y-112086542D02*
X188054510Y-111943685D01*
X188054510Y-111943685D02*
X187983082Y-111657971D01*
X187983082Y-111657971D02*
X187983082Y-111443685D01*
X187983082Y-111443685D02*
X188054510Y-111157971D01*
X188054510Y-111157971D02*
X188125939Y-111015114D01*
X188125939Y-111015114D02*
X188268796Y-110872257D01*
X188268796Y-110872257D02*
X188483082Y-110800828D01*
X188483082Y-110800828D02*
X188625939Y-110800828D01*
X188625939Y-110800828D02*
X188840225Y-110872257D01*
X188840225Y-110872257D02*
X188911653Y-110943685D01*
X189483082Y-112229400D02*
X189697368Y-112300828D01*
X189697368Y-112300828D02*
X190054510Y-112300828D01*
X190054510Y-112300828D02*
X190197368Y-112229400D01*
X190197368Y-112229400D02*
X190268796Y-112157971D01*
X190268796Y-112157971D02*
X190340225Y-112015114D01*
X190340225Y-112015114D02*
X190340225Y-111872257D01*
X190340225Y-111872257D02*
X190268796Y-111729400D01*
X190268796Y-111729400D02*
X190197368Y-111657971D01*
X190197368Y-111657971D02*
X190054510Y-111586542D01*
X190054510Y-111586542D02*
X189768796Y-111515114D01*
X189768796Y-111515114D02*
X189625939Y-111443685D01*
X189625939Y-111443685D02*
X189554510Y-111372257D01*
X189554510Y-111372257D02*
X189483082Y-111229400D01*
X189483082Y-111229400D02*
X189483082Y-111086542D01*
X189483082Y-111086542D02*
X189554510Y-110943685D01*
X189554510Y-110943685D02*
X189625939Y-110872257D01*
X189625939Y-110872257D02*
X189768796Y-110800828D01*
X189768796Y-110800828D02*
X190125939Y-110800828D01*
X190125939Y-110800828D02*
X190340225Y-110872257D01*
X207411653Y-107157971D02*
X207340225Y-107229400D01*
X207340225Y-107229400D02*
X207125939Y-107300828D01*
X207125939Y-107300828D02*
X206983082Y-107300828D01*
X206983082Y-107300828D02*
X206768796Y-107229400D01*
X206768796Y-107229400D02*
X206625939Y-107086542D01*
X206625939Y-107086542D02*
X206554510Y-106943685D01*
X206554510Y-106943685D02*
X206483082Y-106657971D01*
X206483082Y-106657971D02*
X206483082Y-106443685D01*
X206483082Y-106443685D02*
X206554510Y-106157971D01*
X206554510Y-106157971D02*
X206625939Y-106015114D01*
X206625939Y-106015114D02*
X206768796Y-105872257D01*
X206768796Y-105872257D02*
X206983082Y-105800828D01*
X206983082Y-105800828D02*
X207125939Y-105800828D01*
X207125939Y-105800828D02*
X207340225Y-105872257D01*
X207340225Y-105872257D02*
X207411653Y-105943685D01*
X207983082Y-107229400D02*
X208197368Y-107300828D01*
X208197368Y-107300828D02*
X208554510Y-107300828D01*
X208554510Y-107300828D02*
X208697368Y-107229400D01*
X208697368Y-107229400D02*
X208768796Y-107157971D01*
X208768796Y-107157971D02*
X208840225Y-107015114D01*
X208840225Y-107015114D02*
X208840225Y-106872257D01*
X208840225Y-106872257D02*
X208768796Y-106729400D01*
X208768796Y-106729400D02*
X208697368Y-106657971D01*
X208697368Y-106657971D02*
X208554510Y-106586542D01*
X208554510Y-106586542D02*
X208268796Y-106515114D01*
X208268796Y-106515114D02*
X208125939Y-106443685D01*
X208125939Y-106443685D02*
X208054510Y-106372257D01*
X208054510Y-106372257D02*
X207983082Y-106229400D01*
X207983082Y-106229400D02*
X207983082Y-106086542D01*
X207983082Y-106086542D02*
X208054510Y-105943685D01*
X208054510Y-105943685D02*
X208125939Y-105872257D01*
X208125939Y-105872257D02*
X208268796Y-105800828D01*
X208268796Y-105800828D02*
X208625939Y-105800828D01*
X208625939Y-105800828D02*
X208840225Y-105872257D01*
X206554510Y-94800828D02*
X206554510Y-93300828D01*
X206554510Y-93300828D02*
X207054510Y-94372257D01*
X207054510Y-94372257D02*
X207554510Y-93300828D01*
X207554510Y-93300828D02*
X207554510Y-94800828D01*
X208268796Y-94800828D02*
X208268796Y-93300828D01*
X208911654Y-94729400D02*
X209125940Y-94800828D01*
X209125940Y-94800828D02*
X209483082Y-94800828D01*
X209483082Y-94800828D02*
X209625940Y-94729400D01*
X209625940Y-94729400D02*
X209697368Y-94657971D01*
X209697368Y-94657971D02*
X209768797Y-94515114D01*
X209768797Y-94515114D02*
X209768797Y-94372257D01*
X209768797Y-94372257D02*
X209697368Y-94229400D01*
X209697368Y-94229400D02*
X209625940Y-94157971D01*
X209625940Y-94157971D02*
X209483082Y-94086542D01*
X209483082Y-94086542D02*
X209197368Y-94015114D01*
X209197368Y-94015114D02*
X209054511Y-93943685D01*
X209054511Y-93943685D02*
X208983082Y-93872257D01*
X208983082Y-93872257D02*
X208911654Y-93729400D01*
X208911654Y-93729400D02*
X208911654Y-93586542D01*
X208911654Y-93586542D02*
X208983082Y-93443685D01*
X208983082Y-93443685D02*
X209054511Y-93372257D01*
X209054511Y-93372257D02*
X209197368Y-93300828D01*
X209197368Y-93300828D02*
X209554511Y-93300828D01*
X209554511Y-93300828D02*
X209768797Y-93372257D01*
X210697368Y-93300828D02*
X210983082Y-93300828D01*
X210983082Y-93300828D02*
X211125939Y-93372257D01*
X211125939Y-93372257D02*
X211268796Y-93515114D01*
X211268796Y-93515114D02*
X211340225Y-93800828D01*
X211340225Y-93800828D02*
X211340225Y-94300828D01*
X211340225Y-94300828D02*
X211268796Y-94586542D01*
X211268796Y-94586542D02*
X211125939Y-94729400D01*
X211125939Y-94729400D02*
X210983082Y-94800828D01*
X210983082Y-94800828D02*
X210697368Y-94800828D01*
X210697368Y-94800828D02*
X210554511Y-94729400D01*
X210554511Y-94729400D02*
X210411653Y-94586542D01*
X210411653Y-94586542D02*
X210340225Y-94300828D01*
X210340225Y-94300828D02*
X210340225Y-93800828D01*
X210340225Y-93800828D02*
X210411653Y-93515114D01*
X210411653Y-93515114D02*
X210554511Y-93372257D01*
X210554511Y-93372257D02*
X210697368Y-93300828D01*
X206554510Y-92300828D02*
X206554510Y-90800828D01*
X206554510Y-90800828D02*
X207054510Y-91872257D01*
X207054510Y-91872257D02*
X207554510Y-90800828D01*
X207554510Y-90800828D02*
X207554510Y-92300828D01*
X208554511Y-90800828D02*
X208840225Y-90800828D01*
X208840225Y-90800828D02*
X208983082Y-90872257D01*
X208983082Y-90872257D02*
X209125939Y-91015114D01*
X209125939Y-91015114D02*
X209197368Y-91300828D01*
X209197368Y-91300828D02*
X209197368Y-91800828D01*
X209197368Y-91800828D02*
X209125939Y-92086542D01*
X209125939Y-92086542D02*
X208983082Y-92229400D01*
X208983082Y-92229400D02*
X208840225Y-92300828D01*
X208840225Y-92300828D02*
X208554511Y-92300828D01*
X208554511Y-92300828D02*
X208411654Y-92229400D01*
X208411654Y-92229400D02*
X208268796Y-92086542D01*
X208268796Y-92086542D02*
X208197368Y-91800828D01*
X208197368Y-91800828D02*
X208197368Y-91300828D01*
X208197368Y-91300828D02*
X208268796Y-91015114D01*
X208268796Y-91015114D02*
X208411654Y-90872257D01*
X208411654Y-90872257D02*
X208554511Y-90800828D01*
X209768797Y-92229400D02*
X209983083Y-92300828D01*
X209983083Y-92300828D02*
X210340225Y-92300828D01*
X210340225Y-92300828D02*
X210483083Y-92229400D01*
X210483083Y-92229400D02*
X210554511Y-92157971D01*
X210554511Y-92157971D02*
X210625940Y-92015114D01*
X210625940Y-92015114D02*
X210625940Y-91872257D01*
X210625940Y-91872257D02*
X210554511Y-91729400D01*
X210554511Y-91729400D02*
X210483083Y-91657971D01*
X210483083Y-91657971D02*
X210340225Y-91586542D01*
X210340225Y-91586542D02*
X210054511Y-91515114D01*
X210054511Y-91515114D02*
X209911654Y-91443685D01*
X209911654Y-91443685D02*
X209840225Y-91372257D01*
X209840225Y-91372257D02*
X209768797Y-91229400D01*
X209768797Y-91229400D02*
X209768797Y-91086542D01*
X209768797Y-91086542D02*
X209840225Y-90943685D01*
X209840225Y-90943685D02*
X209911654Y-90872257D01*
X209911654Y-90872257D02*
X210054511Y-90800828D01*
X210054511Y-90800828D02*
X210411654Y-90800828D01*
X210411654Y-90800828D02*
X210625940Y-90872257D01*
X211268796Y-92300828D02*
X211268796Y-90800828D01*
X207411653Y-117157971D02*
X207340225Y-117229400D01*
X207340225Y-117229400D02*
X207125939Y-117300828D01*
X207125939Y-117300828D02*
X206983082Y-117300828D01*
X206983082Y-117300828D02*
X206768796Y-117229400D01*
X206768796Y-117229400D02*
X206625939Y-117086542D01*
X206625939Y-117086542D02*
X206554510Y-116943685D01*
X206554510Y-116943685D02*
X206483082Y-116657971D01*
X206483082Y-116657971D02*
X206483082Y-116443685D01*
X206483082Y-116443685D02*
X206554510Y-116157971D01*
X206554510Y-116157971D02*
X206625939Y-116015114D01*
X206625939Y-116015114D02*
X206768796Y-115872257D01*
X206768796Y-115872257D02*
X206983082Y-115800828D01*
X206983082Y-115800828D02*
X207125939Y-115800828D01*
X207125939Y-115800828D02*
X207340225Y-115872257D01*
X207340225Y-115872257D02*
X207411653Y-115943685D01*
X207983082Y-117229400D02*
X208197368Y-117300828D01*
X208197368Y-117300828D02*
X208554510Y-117300828D01*
X208554510Y-117300828D02*
X208697368Y-117229400D01*
X208697368Y-117229400D02*
X208768796Y-117157971D01*
X208768796Y-117157971D02*
X208840225Y-117015114D01*
X208840225Y-117015114D02*
X208840225Y-116872257D01*
X208840225Y-116872257D02*
X208768796Y-116729400D01*
X208768796Y-116729400D02*
X208697368Y-116657971D01*
X208697368Y-116657971D02*
X208554510Y-116586542D01*
X208554510Y-116586542D02*
X208268796Y-116515114D01*
X208268796Y-116515114D02*
X208125939Y-116443685D01*
X208125939Y-116443685D02*
X208054510Y-116372257D01*
X208054510Y-116372257D02*
X207983082Y-116229400D01*
X207983082Y-116229400D02*
X207983082Y-116086542D01*
X207983082Y-116086542D02*
X208054510Y-115943685D01*
X208054510Y-115943685D02*
X208125939Y-115872257D01*
X208125939Y-115872257D02*
X208268796Y-115800828D01*
X208268796Y-115800828D02*
X208625939Y-115800828D01*
X208625939Y-115800828D02*
X208840225Y-115872257D01*
X207483082Y-84229400D02*
X207697368Y-84300828D01*
X207697368Y-84300828D02*
X208054510Y-84300828D01*
X208054510Y-84300828D02*
X208197368Y-84229400D01*
X208197368Y-84229400D02*
X208268796Y-84157971D01*
X208268796Y-84157971D02*
X208340225Y-84015114D01*
X208340225Y-84015114D02*
X208340225Y-83872257D01*
X208340225Y-83872257D02*
X208268796Y-83729400D01*
X208268796Y-83729400D02*
X208197368Y-83657971D01*
X208197368Y-83657971D02*
X208054510Y-83586542D01*
X208054510Y-83586542D02*
X207768796Y-83515114D01*
X207768796Y-83515114D02*
X207625939Y-83443685D01*
X207625939Y-83443685D02*
X207554510Y-83372257D01*
X207554510Y-83372257D02*
X207483082Y-83229400D01*
X207483082Y-83229400D02*
X207483082Y-83086542D01*
X207483082Y-83086542D02*
X207554510Y-82943685D01*
X207554510Y-82943685D02*
X207625939Y-82872257D01*
X207625939Y-82872257D02*
X207768796Y-82800828D01*
X207768796Y-82800828D02*
X208125939Y-82800828D01*
X208125939Y-82800828D02*
X208340225Y-82872257D01*
X208983081Y-84300828D02*
X208983081Y-82800828D01*
X208983081Y-82800828D02*
X209340224Y-82800828D01*
X209340224Y-82800828D02*
X209554510Y-82872257D01*
X209554510Y-82872257D02*
X209697367Y-83015114D01*
X209697367Y-83015114D02*
X209768796Y-83157971D01*
X209768796Y-83157971D02*
X209840224Y-83443685D01*
X209840224Y-83443685D02*
X209840224Y-83657971D01*
X209840224Y-83657971D02*
X209768796Y-83943685D01*
X209768796Y-83943685D02*
X209697367Y-84086542D01*
X209697367Y-84086542D02*
X209554510Y-84229400D01*
X209554510Y-84229400D02*
X209340224Y-84300828D01*
X209340224Y-84300828D02*
X208983081Y-84300828D01*
X210411653Y-83872257D02*
X211125939Y-83872257D01*
X210268796Y-84300828D02*
X210768796Y-82800828D01*
X210768796Y-82800828D02*
X211268796Y-84300828D01*
X206483082Y-89729400D02*
X206697368Y-89800828D01*
X206697368Y-89800828D02*
X207054510Y-89800828D01*
X207054510Y-89800828D02*
X207197368Y-89729400D01*
X207197368Y-89729400D02*
X207268796Y-89657971D01*
X207268796Y-89657971D02*
X207340225Y-89515114D01*
X207340225Y-89515114D02*
X207340225Y-89372257D01*
X207340225Y-89372257D02*
X207268796Y-89229400D01*
X207268796Y-89229400D02*
X207197368Y-89157971D01*
X207197368Y-89157971D02*
X207054510Y-89086542D01*
X207054510Y-89086542D02*
X206768796Y-89015114D01*
X206768796Y-89015114D02*
X206625939Y-88943685D01*
X206625939Y-88943685D02*
X206554510Y-88872257D01*
X206554510Y-88872257D02*
X206483082Y-88729400D01*
X206483082Y-88729400D02*
X206483082Y-88586542D01*
X206483082Y-88586542D02*
X206554510Y-88443685D01*
X206554510Y-88443685D02*
X206625939Y-88372257D01*
X206625939Y-88372257D02*
X206768796Y-88300828D01*
X206768796Y-88300828D02*
X207125939Y-88300828D01*
X207125939Y-88300828D02*
X207340225Y-88372257D01*
X208840224Y-89657971D02*
X208768796Y-89729400D01*
X208768796Y-89729400D02*
X208554510Y-89800828D01*
X208554510Y-89800828D02*
X208411653Y-89800828D01*
X208411653Y-89800828D02*
X208197367Y-89729400D01*
X208197367Y-89729400D02*
X208054510Y-89586542D01*
X208054510Y-89586542D02*
X207983081Y-89443685D01*
X207983081Y-89443685D02*
X207911653Y-89157971D01*
X207911653Y-89157971D02*
X207911653Y-88943685D01*
X207911653Y-88943685D02*
X207983081Y-88657971D01*
X207983081Y-88657971D02*
X208054510Y-88515114D01*
X208054510Y-88515114D02*
X208197367Y-88372257D01*
X208197367Y-88372257D02*
X208411653Y-88300828D01*
X208411653Y-88300828D02*
X208554510Y-88300828D01*
X208554510Y-88300828D02*
X208768796Y-88372257D01*
X208768796Y-88372257D02*
X208840224Y-88443685D01*
X210197367Y-89800828D02*
X209483081Y-89800828D01*
X209483081Y-89800828D02*
X209483081Y-88300828D01*
X207411653Y-112157971D02*
X207340225Y-112229400D01*
X207340225Y-112229400D02*
X207125939Y-112300828D01*
X207125939Y-112300828D02*
X206983082Y-112300828D01*
X206983082Y-112300828D02*
X206768796Y-112229400D01*
X206768796Y-112229400D02*
X206625939Y-112086542D01*
X206625939Y-112086542D02*
X206554510Y-111943685D01*
X206554510Y-111943685D02*
X206483082Y-111657971D01*
X206483082Y-111657971D02*
X206483082Y-111443685D01*
X206483082Y-111443685D02*
X206554510Y-111157971D01*
X206554510Y-111157971D02*
X206625939Y-111015114D01*
X206625939Y-111015114D02*
X206768796Y-110872257D01*
X206768796Y-110872257D02*
X206983082Y-110800828D01*
X206983082Y-110800828D02*
X207125939Y-110800828D01*
X207125939Y-110800828D02*
X207340225Y-110872257D01*
X207340225Y-110872257D02*
X207411653Y-110943685D01*
X207983082Y-112229400D02*
X208197368Y-112300828D01*
X208197368Y-112300828D02*
X208554510Y-112300828D01*
X208554510Y-112300828D02*
X208697368Y-112229400D01*
X208697368Y-112229400D02*
X208768796Y-112157971D01*
X208768796Y-112157971D02*
X208840225Y-112015114D01*
X208840225Y-112015114D02*
X208840225Y-111872257D01*
X208840225Y-111872257D02*
X208768796Y-111729400D01*
X208768796Y-111729400D02*
X208697368Y-111657971D01*
X208697368Y-111657971D02*
X208554510Y-111586542D01*
X208554510Y-111586542D02*
X208268796Y-111515114D01*
X208268796Y-111515114D02*
X208125939Y-111443685D01*
X208125939Y-111443685D02*
X208054510Y-111372257D01*
X208054510Y-111372257D02*
X207983082Y-111229400D01*
X207983082Y-111229400D02*
X207983082Y-111086542D01*
X207983082Y-111086542D02*
X208054510Y-110943685D01*
X208054510Y-110943685D02*
X208125939Y-110872257D01*
X208125939Y-110872257D02*
X208268796Y-110800828D01*
X208268796Y-110800828D02*
X208625939Y-110800828D01*
X208625939Y-110800828D02*
X208840225Y-110872257D01*
X188054510Y-94800828D02*
X188054510Y-93300828D01*
X188054510Y-93300828D02*
X188554510Y-94372257D01*
X188554510Y-94372257D02*
X189054510Y-93300828D01*
X189054510Y-93300828D02*
X189054510Y-94800828D01*
X189768796Y-94800828D02*
X189768796Y-93300828D01*
X190411654Y-94729400D02*
X190625940Y-94800828D01*
X190625940Y-94800828D02*
X190983082Y-94800828D01*
X190983082Y-94800828D02*
X191125940Y-94729400D01*
X191125940Y-94729400D02*
X191197368Y-94657971D01*
X191197368Y-94657971D02*
X191268797Y-94515114D01*
X191268797Y-94515114D02*
X191268797Y-94372257D01*
X191268797Y-94372257D02*
X191197368Y-94229400D01*
X191197368Y-94229400D02*
X191125940Y-94157971D01*
X191125940Y-94157971D02*
X190983082Y-94086542D01*
X190983082Y-94086542D02*
X190697368Y-94015114D01*
X190697368Y-94015114D02*
X190554511Y-93943685D01*
X190554511Y-93943685D02*
X190483082Y-93872257D01*
X190483082Y-93872257D02*
X190411654Y-93729400D01*
X190411654Y-93729400D02*
X190411654Y-93586542D01*
X190411654Y-93586542D02*
X190483082Y-93443685D01*
X190483082Y-93443685D02*
X190554511Y-93372257D01*
X190554511Y-93372257D02*
X190697368Y-93300828D01*
X190697368Y-93300828D02*
X191054511Y-93300828D01*
X191054511Y-93300828D02*
X191268797Y-93372257D01*
X192197368Y-93300828D02*
X192483082Y-93300828D01*
X192483082Y-93300828D02*
X192625939Y-93372257D01*
X192625939Y-93372257D02*
X192768796Y-93515114D01*
X192768796Y-93515114D02*
X192840225Y-93800828D01*
X192840225Y-93800828D02*
X192840225Y-94300828D01*
X192840225Y-94300828D02*
X192768796Y-94586542D01*
X192768796Y-94586542D02*
X192625939Y-94729400D01*
X192625939Y-94729400D02*
X192483082Y-94800828D01*
X192483082Y-94800828D02*
X192197368Y-94800828D01*
X192197368Y-94800828D02*
X192054511Y-94729400D01*
X192054511Y-94729400D02*
X191911653Y-94586542D01*
X191911653Y-94586542D02*
X191840225Y-94300828D01*
X191840225Y-94300828D02*
X191840225Y-93800828D01*
X191840225Y-93800828D02*
X191911653Y-93515114D01*
X191911653Y-93515114D02*
X192054511Y-93372257D01*
X192054511Y-93372257D02*
X192197368Y-93300828D01*
D11*
X188623355Y-100306678D02*
X188623355Y-99520964D01*
X188623355Y-99520964D02*
X188551926Y-99378107D01*
X188551926Y-99378107D02*
X188409069Y-99306678D01*
X188409069Y-99306678D02*
X188123355Y-99306678D01*
X188123355Y-99306678D02*
X187980497Y-99378107D01*
X188623355Y-100235250D02*
X188480497Y-100306678D01*
X188480497Y-100306678D02*
X188123355Y-100306678D01*
X188123355Y-100306678D02*
X187980497Y-100235250D01*
X187980497Y-100235250D02*
X187909069Y-100092392D01*
X187909069Y-100092392D02*
X187909069Y-99949535D01*
X187909069Y-99949535D02*
X187980497Y-99806678D01*
X187980497Y-99806678D02*
X188123355Y-99735250D01*
X188123355Y-99735250D02*
X188480497Y-99735250D01*
X188480497Y-99735250D02*
X188623355Y-99663821D01*
X189337640Y-99306678D02*
X189337640Y-100306678D01*
X189337640Y-99449535D02*
X189409069Y-99378107D01*
X189409069Y-99378107D02*
X189551926Y-99306678D01*
X189551926Y-99306678D02*
X189766212Y-99306678D01*
X189766212Y-99306678D02*
X189909069Y-99378107D01*
X189909069Y-99378107D02*
X189980498Y-99520964D01*
X189980498Y-99520964D02*
X189980498Y-100306678D01*
X191337641Y-100306678D02*
X191337641Y-99520964D01*
X191337641Y-99520964D02*
X191266212Y-99378107D01*
X191266212Y-99378107D02*
X191123355Y-99306678D01*
X191123355Y-99306678D02*
X190837641Y-99306678D01*
X190837641Y-99306678D02*
X190694783Y-99378107D01*
X191337641Y-100235250D02*
X191194783Y-100306678D01*
X191194783Y-100306678D02*
X190837641Y-100306678D01*
X190837641Y-100306678D02*
X190694783Y-100235250D01*
X190694783Y-100235250D02*
X190623355Y-100092392D01*
X190623355Y-100092392D02*
X190623355Y-99949535D01*
X190623355Y-99949535D02*
X190694783Y-99806678D01*
X190694783Y-99806678D02*
X190837641Y-99735250D01*
X190837641Y-99735250D02*
X191194783Y-99735250D01*
X191194783Y-99735250D02*
X191337641Y-99663821D01*
X192266212Y-100306678D02*
X192123355Y-100235250D01*
X192123355Y-100235250D02*
X192051926Y-100092392D01*
X192051926Y-100092392D02*
X192051926Y-98806678D01*
X193051926Y-100306678D02*
X192909069Y-100235250D01*
X192909069Y-100235250D02*
X192837640Y-100163821D01*
X192837640Y-100163821D02*
X192766212Y-100020964D01*
X192766212Y-100020964D02*
X192766212Y-99592392D01*
X192766212Y-99592392D02*
X192837640Y-99449535D01*
X192837640Y-99449535D02*
X192909069Y-99378107D01*
X192909069Y-99378107D02*
X193051926Y-99306678D01*
X193051926Y-99306678D02*
X193266212Y-99306678D01*
X193266212Y-99306678D02*
X193409069Y-99378107D01*
X193409069Y-99378107D02*
X193480498Y-99449535D01*
X193480498Y-99449535D02*
X193551926Y-99592392D01*
X193551926Y-99592392D02*
X193551926Y-100020964D01*
X193551926Y-100020964D02*
X193480498Y-100163821D01*
X193480498Y-100163821D02*
X193409069Y-100235250D01*
X193409069Y-100235250D02*
X193266212Y-100306678D01*
X193266212Y-100306678D02*
X193051926Y-100306678D01*
X194837641Y-99306678D02*
X194837641Y-100520964D01*
X194837641Y-100520964D02*
X194766212Y-100663821D01*
X194766212Y-100663821D02*
X194694783Y-100735250D01*
X194694783Y-100735250D02*
X194551926Y-100806678D01*
X194551926Y-100806678D02*
X194337641Y-100806678D01*
X194337641Y-100806678D02*
X194194783Y-100735250D01*
X194837641Y-100235250D02*
X194694783Y-100306678D01*
X194694783Y-100306678D02*
X194409069Y-100306678D01*
X194409069Y-100306678D02*
X194266212Y-100235250D01*
X194266212Y-100235250D02*
X194194783Y-100163821D01*
X194194783Y-100163821D02*
X194123355Y-100020964D01*
X194123355Y-100020964D02*
X194123355Y-99592392D01*
X194123355Y-99592392D02*
X194194783Y-99449535D01*
X194194783Y-99449535D02*
X194266212Y-99378107D01*
X194266212Y-99378107D02*
X194409069Y-99306678D01*
X194409069Y-99306678D02*
X194694783Y-99306678D01*
X194694783Y-99306678D02*
X194837641Y-99378107D01*
D10*
X207411653Y-109657971D02*
X207340225Y-109729400D01*
X207340225Y-109729400D02*
X207125939Y-109800828D01*
X207125939Y-109800828D02*
X206983082Y-109800828D01*
X206983082Y-109800828D02*
X206768796Y-109729400D01*
X206768796Y-109729400D02*
X206625939Y-109586542D01*
X206625939Y-109586542D02*
X206554510Y-109443685D01*
X206554510Y-109443685D02*
X206483082Y-109157971D01*
X206483082Y-109157971D02*
X206483082Y-108943685D01*
X206483082Y-108943685D02*
X206554510Y-108657971D01*
X206554510Y-108657971D02*
X206625939Y-108515114D01*
X206625939Y-108515114D02*
X206768796Y-108372257D01*
X206768796Y-108372257D02*
X206983082Y-108300828D01*
X206983082Y-108300828D02*
X207125939Y-108300828D01*
X207125939Y-108300828D02*
X207340225Y-108372257D01*
X207340225Y-108372257D02*
X207411653Y-108443685D01*
X207983082Y-109729400D02*
X208197368Y-109800828D01*
X208197368Y-109800828D02*
X208554510Y-109800828D01*
X208554510Y-109800828D02*
X208697368Y-109729400D01*
X208697368Y-109729400D02*
X208768796Y-109657971D01*
X208768796Y-109657971D02*
X208840225Y-109515114D01*
X208840225Y-109515114D02*
X208840225Y-109372257D01*
X208840225Y-109372257D02*
X208768796Y-109229400D01*
X208768796Y-109229400D02*
X208697368Y-109157971D01*
X208697368Y-109157971D02*
X208554510Y-109086542D01*
X208554510Y-109086542D02*
X208268796Y-109015114D01*
X208268796Y-109015114D02*
X208125939Y-108943685D01*
X208125939Y-108943685D02*
X208054510Y-108872257D01*
X208054510Y-108872257D02*
X207983082Y-108729400D01*
X207983082Y-108729400D02*
X207983082Y-108586542D01*
X207983082Y-108586542D02*
X208054510Y-108443685D01*
X208054510Y-108443685D02*
X208125939Y-108372257D01*
X208125939Y-108372257D02*
X208268796Y-108300828D01*
X208268796Y-108300828D02*
X208625939Y-108300828D01*
X208625939Y-108300828D02*
X208840225Y-108372257D01*
D11*
X207123355Y-99806678D02*
X207123355Y-99020964D01*
X207123355Y-99020964D02*
X207051926Y-98878107D01*
X207051926Y-98878107D02*
X206909069Y-98806678D01*
X206909069Y-98806678D02*
X206623355Y-98806678D01*
X206623355Y-98806678D02*
X206480497Y-98878107D01*
X207123355Y-99735250D02*
X206980497Y-99806678D01*
X206980497Y-99806678D02*
X206623355Y-99806678D01*
X206623355Y-99806678D02*
X206480497Y-99735250D01*
X206480497Y-99735250D02*
X206409069Y-99592392D01*
X206409069Y-99592392D02*
X206409069Y-99449535D01*
X206409069Y-99449535D02*
X206480497Y-99306678D01*
X206480497Y-99306678D02*
X206623355Y-99235250D01*
X206623355Y-99235250D02*
X206980497Y-99235250D01*
X206980497Y-99235250D02*
X207123355Y-99163821D01*
X207837640Y-98806678D02*
X207837640Y-99806678D01*
X207837640Y-98949535D02*
X207909069Y-98878107D01*
X207909069Y-98878107D02*
X208051926Y-98806678D01*
X208051926Y-98806678D02*
X208266212Y-98806678D01*
X208266212Y-98806678D02*
X208409069Y-98878107D01*
X208409069Y-98878107D02*
X208480498Y-99020964D01*
X208480498Y-99020964D02*
X208480498Y-99806678D01*
X209837641Y-99806678D02*
X209837641Y-99020964D01*
X209837641Y-99020964D02*
X209766212Y-98878107D01*
X209766212Y-98878107D02*
X209623355Y-98806678D01*
X209623355Y-98806678D02*
X209337641Y-98806678D01*
X209337641Y-98806678D02*
X209194783Y-98878107D01*
X209837641Y-99735250D02*
X209694783Y-99806678D01*
X209694783Y-99806678D02*
X209337641Y-99806678D01*
X209337641Y-99806678D02*
X209194783Y-99735250D01*
X209194783Y-99735250D02*
X209123355Y-99592392D01*
X209123355Y-99592392D02*
X209123355Y-99449535D01*
X209123355Y-99449535D02*
X209194783Y-99306678D01*
X209194783Y-99306678D02*
X209337641Y-99235250D01*
X209337641Y-99235250D02*
X209694783Y-99235250D01*
X209694783Y-99235250D02*
X209837641Y-99163821D01*
X210766212Y-99806678D02*
X210623355Y-99735250D01*
X210623355Y-99735250D02*
X210551926Y-99592392D01*
X210551926Y-99592392D02*
X210551926Y-98306678D01*
X211551926Y-99806678D02*
X211409069Y-99735250D01*
X211409069Y-99735250D02*
X211337640Y-99663821D01*
X211337640Y-99663821D02*
X211266212Y-99520964D01*
X211266212Y-99520964D02*
X211266212Y-99092392D01*
X211266212Y-99092392D02*
X211337640Y-98949535D01*
X211337640Y-98949535D02*
X211409069Y-98878107D01*
X211409069Y-98878107D02*
X211551926Y-98806678D01*
X211551926Y-98806678D02*
X211766212Y-98806678D01*
X211766212Y-98806678D02*
X211909069Y-98878107D01*
X211909069Y-98878107D02*
X211980498Y-98949535D01*
X211980498Y-98949535D02*
X212051926Y-99092392D01*
X212051926Y-99092392D02*
X212051926Y-99520964D01*
X212051926Y-99520964D02*
X211980498Y-99663821D01*
X211980498Y-99663821D02*
X211909069Y-99735250D01*
X211909069Y-99735250D02*
X211766212Y-99806678D01*
X211766212Y-99806678D02*
X211551926Y-99806678D01*
X213337641Y-98806678D02*
X213337641Y-100020964D01*
X213337641Y-100020964D02*
X213266212Y-100163821D01*
X213266212Y-100163821D02*
X213194783Y-100235250D01*
X213194783Y-100235250D02*
X213051926Y-100306678D01*
X213051926Y-100306678D02*
X212837641Y-100306678D01*
X212837641Y-100306678D02*
X212694783Y-100235250D01*
X213337641Y-99735250D02*
X213194783Y-99806678D01*
X213194783Y-99806678D02*
X212909069Y-99806678D01*
X212909069Y-99806678D02*
X212766212Y-99735250D01*
X212766212Y-99735250D02*
X212694783Y-99663821D01*
X212694783Y-99663821D02*
X212623355Y-99520964D01*
X212623355Y-99520964D02*
X212623355Y-99092392D01*
X212623355Y-99092392D02*
X212694783Y-98949535D01*
X212694783Y-98949535D02*
X212766212Y-98878107D01*
X212766212Y-98878107D02*
X212909069Y-98806678D01*
X212909069Y-98806678D02*
X213194783Y-98806678D01*
X213194783Y-98806678D02*
X213337641Y-98878107D01*
D10*
X207483082Y-81729400D02*
X207697368Y-81800828D01*
X207697368Y-81800828D02*
X208054510Y-81800828D01*
X208054510Y-81800828D02*
X208197368Y-81729400D01*
X208197368Y-81729400D02*
X208268796Y-81657971D01*
X208268796Y-81657971D02*
X208340225Y-81515114D01*
X208340225Y-81515114D02*
X208340225Y-81372257D01*
X208340225Y-81372257D02*
X208268796Y-81229400D01*
X208268796Y-81229400D02*
X208197368Y-81157971D01*
X208197368Y-81157971D02*
X208054510Y-81086542D01*
X208054510Y-81086542D02*
X207768796Y-81015114D01*
X207768796Y-81015114D02*
X207625939Y-80943685D01*
X207625939Y-80943685D02*
X207554510Y-80872257D01*
X207554510Y-80872257D02*
X207483082Y-80729400D01*
X207483082Y-80729400D02*
X207483082Y-80586542D01*
X207483082Y-80586542D02*
X207554510Y-80443685D01*
X207554510Y-80443685D02*
X207625939Y-80372257D01*
X207625939Y-80372257D02*
X207768796Y-80300828D01*
X207768796Y-80300828D02*
X208125939Y-80300828D01*
X208125939Y-80300828D02*
X208340225Y-80372257D01*
X209840224Y-81657971D02*
X209768796Y-81729400D01*
X209768796Y-81729400D02*
X209554510Y-81800828D01*
X209554510Y-81800828D02*
X209411653Y-81800828D01*
X209411653Y-81800828D02*
X209197367Y-81729400D01*
X209197367Y-81729400D02*
X209054510Y-81586542D01*
X209054510Y-81586542D02*
X208983081Y-81443685D01*
X208983081Y-81443685D02*
X208911653Y-81157971D01*
X208911653Y-81157971D02*
X208911653Y-80943685D01*
X208911653Y-80943685D02*
X208983081Y-80657971D01*
X208983081Y-80657971D02*
X209054510Y-80515114D01*
X209054510Y-80515114D02*
X209197367Y-80372257D01*
X209197367Y-80372257D02*
X209411653Y-80300828D01*
X209411653Y-80300828D02*
X209554510Y-80300828D01*
X209554510Y-80300828D02*
X209768796Y-80372257D01*
X209768796Y-80372257D02*
X209840224Y-80443685D01*
X211197367Y-81800828D02*
X210483081Y-81800828D01*
X210483081Y-81800828D02*
X210483081Y-80300828D01*
X188911653Y-114657971D02*
X188840225Y-114729400D01*
X188840225Y-114729400D02*
X188625939Y-114800828D01*
X188625939Y-114800828D02*
X188483082Y-114800828D01*
X188483082Y-114800828D02*
X188268796Y-114729400D01*
X188268796Y-114729400D02*
X188125939Y-114586542D01*
X188125939Y-114586542D02*
X188054510Y-114443685D01*
X188054510Y-114443685D02*
X187983082Y-114157971D01*
X187983082Y-114157971D02*
X187983082Y-113943685D01*
X187983082Y-113943685D02*
X188054510Y-113657971D01*
X188054510Y-113657971D02*
X188125939Y-113515114D01*
X188125939Y-113515114D02*
X188268796Y-113372257D01*
X188268796Y-113372257D02*
X188483082Y-113300828D01*
X188483082Y-113300828D02*
X188625939Y-113300828D01*
X188625939Y-113300828D02*
X188840225Y-113372257D01*
X188840225Y-113372257D02*
X188911653Y-113443685D01*
X189483082Y-114729400D02*
X189697368Y-114800828D01*
X189697368Y-114800828D02*
X190054510Y-114800828D01*
X190054510Y-114800828D02*
X190197368Y-114729400D01*
X190197368Y-114729400D02*
X190268796Y-114657971D01*
X190268796Y-114657971D02*
X190340225Y-114515114D01*
X190340225Y-114515114D02*
X190340225Y-114372257D01*
X190340225Y-114372257D02*
X190268796Y-114229400D01*
X190268796Y-114229400D02*
X190197368Y-114157971D01*
X190197368Y-114157971D02*
X190054510Y-114086542D01*
X190054510Y-114086542D02*
X189768796Y-114015114D01*
X189768796Y-114015114D02*
X189625939Y-113943685D01*
X189625939Y-113943685D02*
X189554510Y-113872257D01*
X189554510Y-113872257D02*
X189483082Y-113729400D01*
X189483082Y-113729400D02*
X189483082Y-113586542D01*
X189483082Y-113586542D02*
X189554510Y-113443685D01*
X189554510Y-113443685D02*
X189625939Y-113372257D01*
X189625939Y-113372257D02*
X189768796Y-113300828D01*
X189768796Y-113300828D02*
X190125939Y-113300828D01*
X190125939Y-113300828D02*
X190340225Y-113372257D01*
X188054510Y-92300828D02*
X188054510Y-90800828D01*
X188054510Y-90800828D02*
X188554510Y-91872257D01*
X188554510Y-91872257D02*
X189054510Y-90800828D01*
X189054510Y-90800828D02*
X189054510Y-92300828D01*
X190054511Y-90800828D02*
X190340225Y-90800828D01*
X190340225Y-90800828D02*
X190483082Y-90872257D01*
X190483082Y-90872257D02*
X190625939Y-91015114D01*
X190625939Y-91015114D02*
X190697368Y-91300828D01*
X190697368Y-91300828D02*
X190697368Y-91800828D01*
X190697368Y-91800828D02*
X190625939Y-92086542D01*
X190625939Y-92086542D02*
X190483082Y-92229400D01*
X190483082Y-92229400D02*
X190340225Y-92300828D01*
X190340225Y-92300828D02*
X190054511Y-92300828D01*
X190054511Y-92300828D02*
X189911654Y-92229400D01*
X189911654Y-92229400D02*
X189768796Y-92086542D01*
X189768796Y-92086542D02*
X189697368Y-91800828D01*
X189697368Y-91800828D02*
X189697368Y-91300828D01*
X189697368Y-91300828D02*
X189768796Y-91015114D01*
X189768796Y-91015114D02*
X189911654Y-90872257D01*
X189911654Y-90872257D02*
X190054511Y-90800828D01*
X191268797Y-92229400D02*
X191483083Y-92300828D01*
X191483083Y-92300828D02*
X191840225Y-92300828D01*
X191840225Y-92300828D02*
X191983083Y-92229400D01*
X191983083Y-92229400D02*
X192054511Y-92157971D01*
X192054511Y-92157971D02*
X192125940Y-92015114D01*
X192125940Y-92015114D02*
X192125940Y-91872257D01*
X192125940Y-91872257D02*
X192054511Y-91729400D01*
X192054511Y-91729400D02*
X191983083Y-91657971D01*
X191983083Y-91657971D02*
X191840225Y-91586542D01*
X191840225Y-91586542D02*
X191554511Y-91515114D01*
X191554511Y-91515114D02*
X191411654Y-91443685D01*
X191411654Y-91443685D02*
X191340225Y-91372257D01*
X191340225Y-91372257D02*
X191268797Y-91229400D01*
X191268797Y-91229400D02*
X191268797Y-91086542D01*
X191268797Y-91086542D02*
X191340225Y-90943685D01*
X191340225Y-90943685D02*
X191411654Y-90872257D01*
X191411654Y-90872257D02*
X191554511Y-90800828D01*
X191554511Y-90800828D02*
X191911654Y-90800828D01*
X191911654Y-90800828D02*
X192125940Y-90872257D01*
X192768796Y-92300828D02*
X192768796Y-90800828D01*
X188911653Y-117157971D02*
X188840225Y-117229400D01*
X188840225Y-117229400D02*
X188625939Y-117300828D01*
X188625939Y-117300828D02*
X188483082Y-117300828D01*
X188483082Y-117300828D02*
X188268796Y-117229400D01*
X188268796Y-117229400D02*
X188125939Y-117086542D01*
X188125939Y-117086542D02*
X188054510Y-116943685D01*
X188054510Y-116943685D02*
X187983082Y-116657971D01*
X187983082Y-116657971D02*
X187983082Y-116443685D01*
X187983082Y-116443685D02*
X188054510Y-116157971D01*
X188054510Y-116157971D02*
X188125939Y-116015114D01*
X188125939Y-116015114D02*
X188268796Y-115872257D01*
X188268796Y-115872257D02*
X188483082Y-115800828D01*
X188483082Y-115800828D02*
X188625939Y-115800828D01*
X188625939Y-115800828D02*
X188840225Y-115872257D01*
X188840225Y-115872257D02*
X188911653Y-115943685D01*
X189483082Y-117229400D02*
X189697368Y-117300828D01*
X189697368Y-117300828D02*
X190054510Y-117300828D01*
X190054510Y-117300828D02*
X190197368Y-117229400D01*
X190197368Y-117229400D02*
X190268796Y-117157971D01*
X190268796Y-117157971D02*
X190340225Y-117015114D01*
X190340225Y-117015114D02*
X190340225Y-116872257D01*
X190340225Y-116872257D02*
X190268796Y-116729400D01*
X190268796Y-116729400D02*
X190197368Y-116657971D01*
X190197368Y-116657971D02*
X190054510Y-116586542D01*
X190054510Y-116586542D02*
X189768796Y-116515114D01*
X189768796Y-116515114D02*
X189625939Y-116443685D01*
X189625939Y-116443685D02*
X189554510Y-116372257D01*
X189554510Y-116372257D02*
X189483082Y-116229400D01*
X189483082Y-116229400D02*
X189483082Y-116086542D01*
X189483082Y-116086542D02*
X189554510Y-115943685D01*
X189554510Y-115943685D02*
X189625939Y-115872257D01*
X189625939Y-115872257D02*
X189768796Y-115800828D01*
X189768796Y-115800828D02*
X190125939Y-115800828D01*
X190125939Y-115800828D02*
X190340225Y-115872257D01*
X187983082Y-89729400D02*
X188197368Y-89800828D01*
X188197368Y-89800828D02*
X188554510Y-89800828D01*
X188554510Y-89800828D02*
X188697368Y-89729400D01*
X188697368Y-89729400D02*
X188768796Y-89657971D01*
X188768796Y-89657971D02*
X188840225Y-89515114D01*
X188840225Y-89515114D02*
X188840225Y-89372257D01*
X188840225Y-89372257D02*
X188768796Y-89229400D01*
X188768796Y-89229400D02*
X188697368Y-89157971D01*
X188697368Y-89157971D02*
X188554510Y-89086542D01*
X188554510Y-89086542D02*
X188268796Y-89015114D01*
X188268796Y-89015114D02*
X188125939Y-88943685D01*
X188125939Y-88943685D02*
X188054510Y-88872257D01*
X188054510Y-88872257D02*
X187983082Y-88729400D01*
X187983082Y-88729400D02*
X187983082Y-88586542D01*
X187983082Y-88586542D02*
X188054510Y-88443685D01*
X188054510Y-88443685D02*
X188125939Y-88372257D01*
X188125939Y-88372257D02*
X188268796Y-88300828D01*
X188268796Y-88300828D02*
X188625939Y-88300828D01*
X188625939Y-88300828D02*
X188840225Y-88372257D01*
X190340224Y-89657971D02*
X190268796Y-89729400D01*
X190268796Y-89729400D02*
X190054510Y-89800828D01*
X190054510Y-89800828D02*
X189911653Y-89800828D01*
X189911653Y-89800828D02*
X189697367Y-89729400D01*
X189697367Y-89729400D02*
X189554510Y-89586542D01*
X189554510Y-89586542D02*
X189483081Y-89443685D01*
X189483081Y-89443685D02*
X189411653Y-89157971D01*
X189411653Y-89157971D02*
X189411653Y-88943685D01*
X189411653Y-88943685D02*
X189483081Y-88657971D01*
X189483081Y-88657971D02*
X189554510Y-88515114D01*
X189554510Y-88515114D02*
X189697367Y-88372257D01*
X189697367Y-88372257D02*
X189911653Y-88300828D01*
X189911653Y-88300828D02*
X190054510Y-88300828D01*
X190054510Y-88300828D02*
X190268796Y-88372257D01*
X190268796Y-88372257D02*
X190340224Y-88443685D01*
X191697367Y-89800828D02*
X190983081Y-89800828D01*
X190983081Y-89800828D02*
X190983081Y-88300828D01*
D11*
X207123355Y-102306678D02*
X207123355Y-101520964D01*
X207123355Y-101520964D02*
X207051926Y-101378107D01*
X207051926Y-101378107D02*
X206909069Y-101306678D01*
X206909069Y-101306678D02*
X206623355Y-101306678D01*
X206623355Y-101306678D02*
X206480497Y-101378107D01*
X207123355Y-102235250D02*
X206980497Y-102306678D01*
X206980497Y-102306678D02*
X206623355Y-102306678D01*
X206623355Y-102306678D02*
X206480497Y-102235250D01*
X206480497Y-102235250D02*
X206409069Y-102092392D01*
X206409069Y-102092392D02*
X206409069Y-101949535D01*
X206409069Y-101949535D02*
X206480497Y-101806678D01*
X206480497Y-101806678D02*
X206623355Y-101735250D01*
X206623355Y-101735250D02*
X206980497Y-101735250D01*
X206980497Y-101735250D02*
X207123355Y-101663821D01*
X207837640Y-101306678D02*
X207837640Y-102306678D01*
X207837640Y-101449535D02*
X207909069Y-101378107D01*
X207909069Y-101378107D02*
X208051926Y-101306678D01*
X208051926Y-101306678D02*
X208266212Y-101306678D01*
X208266212Y-101306678D02*
X208409069Y-101378107D01*
X208409069Y-101378107D02*
X208480498Y-101520964D01*
X208480498Y-101520964D02*
X208480498Y-102306678D01*
X209837641Y-102306678D02*
X209837641Y-101520964D01*
X209837641Y-101520964D02*
X209766212Y-101378107D01*
X209766212Y-101378107D02*
X209623355Y-101306678D01*
X209623355Y-101306678D02*
X209337641Y-101306678D01*
X209337641Y-101306678D02*
X209194783Y-101378107D01*
X209837641Y-102235250D02*
X209694783Y-102306678D01*
X209694783Y-102306678D02*
X209337641Y-102306678D01*
X209337641Y-102306678D02*
X209194783Y-102235250D01*
X209194783Y-102235250D02*
X209123355Y-102092392D01*
X209123355Y-102092392D02*
X209123355Y-101949535D01*
X209123355Y-101949535D02*
X209194783Y-101806678D01*
X209194783Y-101806678D02*
X209337641Y-101735250D01*
X209337641Y-101735250D02*
X209694783Y-101735250D01*
X209694783Y-101735250D02*
X209837641Y-101663821D01*
X210766212Y-102306678D02*
X210623355Y-102235250D01*
X210623355Y-102235250D02*
X210551926Y-102092392D01*
X210551926Y-102092392D02*
X210551926Y-100806678D01*
X211551926Y-102306678D02*
X211409069Y-102235250D01*
X211409069Y-102235250D02*
X211337640Y-102163821D01*
X211337640Y-102163821D02*
X211266212Y-102020964D01*
X211266212Y-102020964D02*
X211266212Y-101592392D01*
X211266212Y-101592392D02*
X211337640Y-101449535D01*
X211337640Y-101449535D02*
X211409069Y-101378107D01*
X211409069Y-101378107D02*
X211551926Y-101306678D01*
X211551926Y-101306678D02*
X211766212Y-101306678D01*
X211766212Y-101306678D02*
X211909069Y-101378107D01*
X211909069Y-101378107D02*
X211980498Y-101449535D01*
X211980498Y-101449535D02*
X212051926Y-101592392D01*
X212051926Y-101592392D02*
X212051926Y-102020964D01*
X212051926Y-102020964D02*
X211980498Y-102163821D01*
X211980498Y-102163821D02*
X211909069Y-102235250D01*
X211909069Y-102235250D02*
X211766212Y-102306678D01*
X211766212Y-102306678D02*
X211551926Y-102306678D01*
X213337641Y-101306678D02*
X213337641Y-102520964D01*
X213337641Y-102520964D02*
X213266212Y-102663821D01*
X213266212Y-102663821D02*
X213194783Y-102735250D01*
X213194783Y-102735250D02*
X213051926Y-102806678D01*
X213051926Y-102806678D02*
X212837641Y-102806678D01*
X212837641Y-102806678D02*
X212694783Y-102735250D01*
X213337641Y-102235250D02*
X213194783Y-102306678D01*
X213194783Y-102306678D02*
X212909069Y-102306678D01*
X212909069Y-102306678D02*
X212766212Y-102235250D01*
X212766212Y-102235250D02*
X212694783Y-102163821D01*
X212694783Y-102163821D02*
X212623355Y-102020964D01*
X212623355Y-102020964D02*
X212623355Y-101592392D01*
X212623355Y-101592392D02*
X212694783Y-101449535D01*
X212694783Y-101449535D02*
X212766212Y-101378107D01*
X212766212Y-101378107D02*
X212909069Y-101306678D01*
X212909069Y-101306678D02*
X213194783Y-101306678D01*
X213194783Y-101306678D02*
X213337641Y-101378107D01*
X188623355Y-102806678D02*
X188623355Y-102020964D01*
X188623355Y-102020964D02*
X188551926Y-101878107D01*
X188551926Y-101878107D02*
X188409069Y-101806678D01*
X188409069Y-101806678D02*
X188123355Y-101806678D01*
X188123355Y-101806678D02*
X187980497Y-101878107D01*
X188623355Y-102735250D02*
X188480497Y-102806678D01*
X188480497Y-102806678D02*
X188123355Y-102806678D01*
X188123355Y-102806678D02*
X187980497Y-102735250D01*
X187980497Y-102735250D02*
X187909069Y-102592392D01*
X187909069Y-102592392D02*
X187909069Y-102449535D01*
X187909069Y-102449535D02*
X187980497Y-102306678D01*
X187980497Y-102306678D02*
X188123355Y-102235250D01*
X188123355Y-102235250D02*
X188480497Y-102235250D01*
X188480497Y-102235250D02*
X188623355Y-102163821D01*
X189337640Y-101806678D02*
X189337640Y-102806678D01*
X189337640Y-101949535D02*
X189409069Y-101878107D01*
X189409069Y-101878107D02*
X189551926Y-101806678D01*
X189551926Y-101806678D02*
X189766212Y-101806678D01*
X189766212Y-101806678D02*
X189909069Y-101878107D01*
X189909069Y-101878107D02*
X189980498Y-102020964D01*
X189980498Y-102020964D02*
X189980498Y-102806678D01*
X191337641Y-102806678D02*
X191337641Y-102020964D01*
X191337641Y-102020964D02*
X191266212Y-101878107D01*
X191266212Y-101878107D02*
X191123355Y-101806678D01*
X191123355Y-101806678D02*
X190837641Y-101806678D01*
X190837641Y-101806678D02*
X190694783Y-101878107D01*
X191337641Y-102735250D02*
X191194783Y-102806678D01*
X191194783Y-102806678D02*
X190837641Y-102806678D01*
X190837641Y-102806678D02*
X190694783Y-102735250D01*
X190694783Y-102735250D02*
X190623355Y-102592392D01*
X190623355Y-102592392D02*
X190623355Y-102449535D01*
X190623355Y-102449535D02*
X190694783Y-102306678D01*
X190694783Y-102306678D02*
X190837641Y-102235250D01*
X190837641Y-102235250D02*
X191194783Y-102235250D01*
X191194783Y-102235250D02*
X191337641Y-102163821D01*
X192266212Y-102806678D02*
X192123355Y-102735250D01*
X192123355Y-102735250D02*
X192051926Y-102592392D01*
X192051926Y-102592392D02*
X192051926Y-101306678D01*
X193051926Y-102806678D02*
X192909069Y-102735250D01*
X192909069Y-102735250D02*
X192837640Y-102663821D01*
X192837640Y-102663821D02*
X192766212Y-102520964D01*
X192766212Y-102520964D02*
X192766212Y-102092392D01*
X192766212Y-102092392D02*
X192837640Y-101949535D01*
X192837640Y-101949535D02*
X192909069Y-101878107D01*
X192909069Y-101878107D02*
X193051926Y-101806678D01*
X193051926Y-101806678D02*
X193266212Y-101806678D01*
X193266212Y-101806678D02*
X193409069Y-101878107D01*
X193409069Y-101878107D02*
X193480498Y-101949535D01*
X193480498Y-101949535D02*
X193551926Y-102092392D01*
X193551926Y-102092392D02*
X193551926Y-102520964D01*
X193551926Y-102520964D02*
X193480498Y-102663821D01*
X193480498Y-102663821D02*
X193409069Y-102735250D01*
X193409069Y-102735250D02*
X193266212Y-102806678D01*
X193266212Y-102806678D02*
X193051926Y-102806678D01*
X194837641Y-101806678D02*
X194837641Y-103020964D01*
X194837641Y-103020964D02*
X194766212Y-103163821D01*
X194766212Y-103163821D02*
X194694783Y-103235250D01*
X194694783Y-103235250D02*
X194551926Y-103306678D01*
X194551926Y-103306678D02*
X194337641Y-103306678D01*
X194337641Y-103306678D02*
X194194783Y-103235250D01*
X194837641Y-102735250D02*
X194694783Y-102806678D01*
X194694783Y-102806678D02*
X194409069Y-102806678D01*
X194409069Y-102806678D02*
X194266212Y-102735250D01*
X194266212Y-102735250D02*
X194194783Y-102663821D01*
X194194783Y-102663821D02*
X194123355Y-102520964D01*
X194123355Y-102520964D02*
X194123355Y-102092392D01*
X194123355Y-102092392D02*
X194194783Y-101949535D01*
X194194783Y-101949535D02*
X194266212Y-101878107D01*
X194266212Y-101878107D02*
X194409069Y-101806678D01*
X194409069Y-101806678D02*
X194694783Y-101806678D01*
X194694783Y-101806678D02*
X194837641Y-101878107D01*
D10*
X188911653Y-109657971D02*
X188840225Y-109729400D01*
X188840225Y-109729400D02*
X188625939Y-109800828D01*
X188625939Y-109800828D02*
X188483082Y-109800828D01*
X188483082Y-109800828D02*
X188268796Y-109729400D01*
X188268796Y-109729400D02*
X188125939Y-109586542D01*
X188125939Y-109586542D02*
X188054510Y-109443685D01*
X188054510Y-109443685D02*
X187983082Y-109157971D01*
X187983082Y-109157971D02*
X187983082Y-108943685D01*
X187983082Y-108943685D02*
X188054510Y-108657971D01*
X188054510Y-108657971D02*
X188125939Y-108515114D01*
X188125939Y-108515114D02*
X188268796Y-108372257D01*
X188268796Y-108372257D02*
X188483082Y-108300828D01*
X188483082Y-108300828D02*
X188625939Y-108300828D01*
X188625939Y-108300828D02*
X188840225Y-108372257D01*
X188840225Y-108372257D02*
X188911653Y-108443685D01*
X189483082Y-109729400D02*
X189697368Y-109800828D01*
X189697368Y-109800828D02*
X190054510Y-109800828D01*
X190054510Y-109800828D02*
X190197368Y-109729400D01*
X190197368Y-109729400D02*
X190268796Y-109657971D01*
X190268796Y-109657971D02*
X190340225Y-109515114D01*
X190340225Y-109515114D02*
X190340225Y-109372257D01*
X190340225Y-109372257D02*
X190268796Y-109229400D01*
X190268796Y-109229400D02*
X190197368Y-109157971D01*
X190197368Y-109157971D02*
X190054510Y-109086542D01*
X190054510Y-109086542D02*
X189768796Y-109015114D01*
X189768796Y-109015114D02*
X189625939Y-108943685D01*
X189625939Y-108943685D02*
X189554510Y-108872257D01*
X189554510Y-108872257D02*
X189483082Y-108729400D01*
X189483082Y-108729400D02*
X189483082Y-108586542D01*
X189483082Y-108586542D02*
X189554510Y-108443685D01*
X189554510Y-108443685D02*
X189625939Y-108372257D01*
X189625939Y-108372257D02*
X189768796Y-108300828D01*
X189768796Y-108300828D02*
X190125939Y-108300828D01*
X190125939Y-108300828D02*
X190340225Y-108372257D01*
D12*
X184666666Y-141184819D02*
X184333333Y-140708628D01*
X184095238Y-141184819D02*
X184095238Y-140184819D01*
X184095238Y-140184819D02*
X184476190Y-140184819D01*
X184476190Y-140184819D02*
X184571428Y-140232438D01*
X184571428Y-140232438D02*
X184619047Y-140280057D01*
X184619047Y-140280057D02*
X184666666Y-140375295D01*
X184666666Y-140375295D02*
X184666666Y-140518152D01*
X184666666Y-140518152D02*
X184619047Y-140613390D01*
X184619047Y-140613390D02*
X184571428Y-140661009D01*
X184571428Y-140661009D02*
X184476190Y-140708628D01*
X184476190Y-140708628D02*
X184095238Y-140708628D01*
X185095238Y-140661009D02*
X185428571Y-140661009D01*
X185571428Y-141184819D02*
X185095238Y-141184819D01*
X185095238Y-141184819D02*
X185095238Y-140184819D01*
X185095238Y-140184819D02*
X185571428Y-140184819D01*
X186333333Y-140661009D02*
X186000000Y-140661009D01*
X186000000Y-141184819D02*
X186000000Y-140184819D01*
X186000000Y-140184819D02*
X186476190Y-140184819D01*
X187000000Y-140184819D02*
X187000000Y-140422914D01*
X186761905Y-140327676D02*
X187000000Y-140422914D01*
X187000000Y-140422914D02*
X187238095Y-140327676D01*
X186857143Y-140613390D02*
X187000000Y-140422914D01*
X187000000Y-140422914D02*
X187142857Y-140613390D01*
X187761905Y-140184819D02*
X187761905Y-140422914D01*
X187523810Y-140327676D02*
X187761905Y-140422914D01*
X187761905Y-140422914D02*
X188000000Y-140327676D01*
X187619048Y-140613390D02*
X187761905Y-140422914D01*
X187761905Y-140422914D02*
X187904762Y-140613390D01*
X236166666Y-51754819D02*
X235833333Y-51278628D01*
X235595238Y-51754819D02*
X235595238Y-50754819D01*
X235595238Y-50754819D02*
X235976190Y-50754819D01*
X235976190Y-50754819D02*
X236071428Y-50802438D01*
X236071428Y-50802438D02*
X236119047Y-50850057D01*
X236119047Y-50850057D02*
X236166666Y-50945295D01*
X236166666Y-50945295D02*
X236166666Y-51088152D01*
X236166666Y-51088152D02*
X236119047Y-51183390D01*
X236119047Y-51183390D02*
X236071428Y-51231009D01*
X236071428Y-51231009D02*
X235976190Y-51278628D01*
X235976190Y-51278628D02*
X235595238Y-51278628D01*
X236595238Y-51231009D02*
X236928571Y-51231009D01*
X237071428Y-51754819D02*
X236595238Y-51754819D01*
X236595238Y-51754819D02*
X236595238Y-50754819D01*
X236595238Y-50754819D02*
X237071428Y-50754819D01*
X237833333Y-51231009D02*
X237500000Y-51231009D01*
X237500000Y-51754819D02*
X237500000Y-50754819D01*
X237500000Y-50754819D02*
X237976190Y-50754819D01*
X238500000Y-50754819D02*
X238500000Y-50992914D01*
X238261905Y-50897676D02*
X238500000Y-50992914D01*
X238500000Y-50992914D02*
X238738095Y-50897676D01*
X238357143Y-51183390D02*
X238500000Y-50992914D01*
X238500000Y-50992914D02*
X238642857Y-51183390D01*
X239261905Y-50754819D02*
X239261905Y-50992914D01*
X239023810Y-50897676D02*
X239261905Y-50992914D01*
X239261905Y-50992914D02*
X239500000Y-50897676D01*
X239119048Y-51183390D02*
X239261905Y-50992914D01*
X239261905Y-50992914D02*
X239404762Y-51183390D01*
X168841666Y-64819819D02*
X168508333Y-64343628D01*
X168270238Y-64819819D02*
X168270238Y-63819819D01*
X168270238Y-63819819D02*
X168651190Y-63819819D01*
X168651190Y-63819819D02*
X168746428Y-63867438D01*
X168746428Y-63867438D02*
X168794047Y-63915057D01*
X168794047Y-63915057D02*
X168841666Y-64010295D01*
X168841666Y-64010295D02*
X168841666Y-64153152D01*
X168841666Y-64153152D02*
X168794047Y-64248390D01*
X168794047Y-64248390D02*
X168746428Y-64296009D01*
X168746428Y-64296009D02*
X168651190Y-64343628D01*
X168651190Y-64343628D02*
X168270238Y-64343628D01*
X169270238Y-64296009D02*
X169603571Y-64296009D01*
X169746428Y-64819819D02*
X169270238Y-64819819D01*
X169270238Y-64819819D02*
X169270238Y-63819819D01*
X169270238Y-63819819D02*
X169746428Y-63819819D01*
X170508333Y-64296009D02*
X170175000Y-64296009D01*
X170175000Y-64819819D02*
X170175000Y-63819819D01*
X170175000Y-63819819D02*
X170651190Y-63819819D01*
X171175000Y-63819819D02*
X171175000Y-64057914D01*
X170936905Y-63962676D02*
X171175000Y-64057914D01*
X171175000Y-64057914D02*
X171413095Y-63962676D01*
X171032143Y-64248390D02*
X171175000Y-64057914D01*
X171175000Y-64057914D02*
X171317857Y-64248390D01*
X171936905Y-63819819D02*
X171936905Y-64057914D01*
X171698810Y-63962676D02*
X171936905Y-64057914D01*
X171936905Y-64057914D02*
X172175000Y-63962676D01*
X171794048Y-64248390D02*
X171936905Y-64057914D01*
X171936905Y-64057914D02*
X172079762Y-64248390D01*
X166666666Y-51754819D02*
X166333333Y-51278628D01*
X166095238Y-51754819D02*
X166095238Y-50754819D01*
X166095238Y-50754819D02*
X166476190Y-50754819D01*
X166476190Y-50754819D02*
X166571428Y-50802438D01*
X166571428Y-50802438D02*
X166619047Y-50850057D01*
X166619047Y-50850057D02*
X166666666Y-50945295D01*
X166666666Y-50945295D02*
X166666666Y-51088152D01*
X166666666Y-51088152D02*
X166619047Y-51183390D01*
X166619047Y-51183390D02*
X166571428Y-51231009D01*
X166571428Y-51231009D02*
X166476190Y-51278628D01*
X166476190Y-51278628D02*
X166095238Y-51278628D01*
X167095238Y-51231009D02*
X167428571Y-51231009D01*
X167571428Y-51754819D02*
X167095238Y-51754819D01*
X167095238Y-51754819D02*
X167095238Y-50754819D01*
X167095238Y-50754819D02*
X167571428Y-50754819D01*
X168333333Y-51231009D02*
X168000000Y-51231009D01*
X168000000Y-51754819D02*
X168000000Y-50754819D01*
X168000000Y-50754819D02*
X168476190Y-50754819D01*
X169000000Y-50754819D02*
X169000000Y-50992914D01*
X168761905Y-50897676D02*
X169000000Y-50992914D01*
X169000000Y-50992914D02*
X169238095Y-50897676D01*
X168857143Y-51183390D02*
X169000000Y-50992914D01*
X169000000Y-50992914D02*
X169142857Y-51183390D01*
X169761905Y-50754819D02*
X169761905Y-50992914D01*
X169523810Y-50897676D02*
X169761905Y-50992914D01*
X169761905Y-50992914D02*
X170000000Y-50897676D01*
X169619048Y-51183390D02*
X169761905Y-50992914D01*
X169761905Y-50992914D02*
X169904762Y-51183390D01*
X236666666Y-141184819D02*
X236333333Y-140708628D01*
X236095238Y-141184819D02*
X236095238Y-140184819D01*
X236095238Y-140184819D02*
X236476190Y-140184819D01*
X236476190Y-140184819D02*
X236571428Y-140232438D01*
X236571428Y-140232438D02*
X236619047Y-140280057D01*
X236619047Y-140280057D02*
X236666666Y-140375295D01*
X236666666Y-140375295D02*
X236666666Y-140518152D01*
X236666666Y-140518152D02*
X236619047Y-140613390D01*
X236619047Y-140613390D02*
X236571428Y-140661009D01*
X236571428Y-140661009D02*
X236476190Y-140708628D01*
X236476190Y-140708628D02*
X236095238Y-140708628D01*
X237095238Y-140661009D02*
X237428571Y-140661009D01*
X237571428Y-141184819D02*
X237095238Y-141184819D01*
X237095238Y-141184819D02*
X237095238Y-140184819D01*
X237095238Y-140184819D02*
X237571428Y-140184819D01*
X238333333Y-140661009D02*
X238000000Y-140661009D01*
X238000000Y-141184819D02*
X238000000Y-140184819D01*
X238000000Y-140184819D02*
X238476190Y-140184819D01*
X239000000Y-140184819D02*
X239000000Y-140422914D01*
X238761905Y-140327676D02*
X239000000Y-140422914D01*
X239000000Y-140422914D02*
X239238095Y-140327676D01*
X238857143Y-140613390D02*
X239000000Y-140422914D01*
X239000000Y-140422914D02*
X239142857Y-140613390D01*
X239761905Y-140184819D02*
X239761905Y-140422914D01*
X239523810Y-140327676D02*
X239761905Y-140422914D01*
X239761905Y-140422914D02*
X240000000Y-140327676D01*
X239619048Y-140613390D02*
X239761905Y-140422914D01*
X239761905Y-140422914D02*
X239904762Y-140613390D01*
X244666666Y-136754819D02*
X244333333Y-136278628D01*
X244095238Y-136754819D02*
X244095238Y-135754819D01*
X244095238Y-135754819D02*
X244476190Y-135754819D01*
X244476190Y-135754819D02*
X244571428Y-135802438D01*
X244571428Y-135802438D02*
X244619047Y-135850057D01*
X244619047Y-135850057D02*
X244666666Y-135945295D01*
X244666666Y-135945295D02*
X244666666Y-136088152D01*
X244666666Y-136088152D02*
X244619047Y-136183390D01*
X244619047Y-136183390D02*
X244571428Y-136231009D01*
X244571428Y-136231009D02*
X244476190Y-136278628D01*
X244476190Y-136278628D02*
X244095238Y-136278628D01*
X245095238Y-136231009D02*
X245428571Y-136231009D01*
X245571428Y-136754819D02*
X245095238Y-136754819D01*
X245095238Y-136754819D02*
X245095238Y-135754819D01*
X245095238Y-135754819D02*
X245571428Y-135754819D01*
X246333333Y-136231009D02*
X246000000Y-136231009D01*
X246000000Y-136754819D02*
X246000000Y-135754819D01*
X246000000Y-135754819D02*
X246476190Y-135754819D01*
X247000000Y-135754819D02*
X247000000Y-135992914D01*
X246761905Y-135897676D02*
X247000000Y-135992914D01*
X247000000Y-135992914D02*
X247238095Y-135897676D01*
X246857143Y-136183390D02*
X247000000Y-135992914D01*
X247000000Y-135992914D02*
X247142857Y-136183390D01*
X247761905Y-135754819D02*
X247761905Y-135992914D01*
X247523810Y-135897676D02*
X247761905Y-135992914D01*
X247761905Y-135992914D02*
X248000000Y-135897676D01*
X247619048Y-136183390D02*
X247761905Y-135992914D01*
X247761905Y-135992914D02*
X247904762Y-136183390D01*
X167666666Y-141184819D02*
X167333333Y-140708628D01*
X167095238Y-141184819D02*
X167095238Y-140184819D01*
X167095238Y-140184819D02*
X167476190Y-140184819D01*
X167476190Y-140184819D02*
X167571428Y-140232438D01*
X167571428Y-140232438D02*
X167619047Y-140280057D01*
X167619047Y-140280057D02*
X167666666Y-140375295D01*
X167666666Y-140375295D02*
X167666666Y-140518152D01*
X167666666Y-140518152D02*
X167619047Y-140613390D01*
X167619047Y-140613390D02*
X167571428Y-140661009D01*
X167571428Y-140661009D02*
X167476190Y-140708628D01*
X167476190Y-140708628D02*
X167095238Y-140708628D01*
X168095238Y-140661009D02*
X168428571Y-140661009D01*
X168571428Y-141184819D02*
X168095238Y-141184819D01*
X168095238Y-141184819D02*
X168095238Y-140184819D01*
X168095238Y-140184819D02*
X168571428Y-140184819D01*
X169333333Y-140661009D02*
X169000000Y-140661009D01*
X169000000Y-141184819D02*
X169000000Y-140184819D01*
X169000000Y-140184819D02*
X169476190Y-140184819D01*
X170000000Y-140184819D02*
X170000000Y-140422914D01*
X169761905Y-140327676D02*
X170000000Y-140422914D01*
X170000000Y-140422914D02*
X170238095Y-140327676D01*
X169857143Y-140613390D02*
X170000000Y-140422914D01*
X170000000Y-140422914D02*
X170142857Y-140613390D01*
X170761905Y-140184819D02*
X170761905Y-140422914D01*
X170523810Y-140327676D02*
X170761905Y-140422914D01*
X170761905Y-140422914D02*
X171000000Y-140327676D01*
X170619048Y-140613390D02*
X170761905Y-140422914D01*
X170761905Y-140422914D02*
X170904762Y-140613390D01*
X159666666Y-136754819D02*
X159333333Y-136278628D01*
X159095238Y-136754819D02*
X159095238Y-135754819D01*
X159095238Y-135754819D02*
X159476190Y-135754819D01*
X159476190Y-135754819D02*
X159571428Y-135802438D01*
X159571428Y-135802438D02*
X159619047Y-135850057D01*
X159619047Y-135850057D02*
X159666666Y-135945295D01*
X159666666Y-135945295D02*
X159666666Y-136088152D01*
X159666666Y-136088152D02*
X159619047Y-136183390D01*
X159619047Y-136183390D02*
X159571428Y-136231009D01*
X159571428Y-136231009D02*
X159476190Y-136278628D01*
X159476190Y-136278628D02*
X159095238Y-136278628D01*
X160095238Y-136231009D02*
X160428571Y-136231009D01*
X160571428Y-136754819D02*
X160095238Y-136754819D01*
X160095238Y-136754819D02*
X160095238Y-135754819D01*
X160095238Y-135754819D02*
X160571428Y-135754819D01*
X161333333Y-136231009D02*
X161000000Y-136231009D01*
X161000000Y-136754819D02*
X161000000Y-135754819D01*
X161000000Y-135754819D02*
X161476190Y-135754819D01*
X162000000Y-135754819D02*
X162000000Y-135992914D01*
X161761905Y-135897676D02*
X162000000Y-135992914D01*
X162000000Y-135992914D02*
X162238095Y-135897676D01*
X161857143Y-136183390D02*
X162000000Y-135992914D01*
X162000000Y-135992914D02*
X162142857Y-136183390D01*
X162761905Y-135754819D02*
X162761905Y-135992914D01*
X162523810Y-135897676D02*
X162761905Y-135992914D01*
X162761905Y-135992914D02*
X163000000Y-135897676D01*
X162619048Y-136183390D02*
X162761905Y-135992914D01*
X162761905Y-135992914D02*
X162904762Y-136183390D01*
X193374819Y-79333333D02*
X192898628Y-79666666D01*
X193374819Y-79904761D02*
X192374819Y-79904761D01*
X192374819Y-79904761D02*
X192374819Y-79523809D01*
X192374819Y-79523809D02*
X192422438Y-79428571D01*
X192422438Y-79428571D02*
X192470057Y-79380952D01*
X192470057Y-79380952D02*
X192565295Y-79333333D01*
X192565295Y-79333333D02*
X192708152Y-79333333D01*
X192708152Y-79333333D02*
X192803390Y-79380952D01*
X192803390Y-79380952D02*
X192851009Y-79428571D01*
X192851009Y-79428571D02*
X192898628Y-79523809D01*
X192898628Y-79523809D02*
X192898628Y-79904761D01*
X192851009Y-78904761D02*
X192851009Y-78571428D01*
X193374819Y-78428571D02*
X193374819Y-78904761D01*
X193374819Y-78904761D02*
X192374819Y-78904761D01*
X192374819Y-78904761D02*
X192374819Y-78428571D01*
X192851009Y-77666666D02*
X192851009Y-77999999D01*
X193374819Y-77999999D02*
X192374819Y-77999999D01*
X192374819Y-77999999D02*
X192374819Y-77523809D01*
X192374819Y-76999999D02*
X192612914Y-76999999D01*
X192517676Y-77238094D02*
X192612914Y-76999999D01*
X192612914Y-76999999D02*
X192517676Y-76761904D01*
X192803390Y-77142856D02*
X192612914Y-76999999D01*
X192612914Y-76999999D02*
X192803390Y-76857142D01*
X192374819Y-76238094D02*
X192612914Y-76238094D01*
X192517676Y-76476189D02*
X192612914Y-76238094D01*
X192612914Y-76238094D02*
X192517676Y-75999999D01*
X192803390Y-76380951D02*
X192612914Y-76238094D01*
X192612914Y-76238094D02*
X192803390Y-76095237D01*
X197874819Y-82333333D02*
X197398628Y-82666666D01*
X197874819Y-82904761D02*
X196874819Y-82904761D01*
X196874819Y-82904761D02*
X196874819Y-82523809D01*
X196874819Y-82523809D02*
X196922438Y-82428571D01*
X196922438Y-82428571D02*
X196970057Y-82380952D01*
X196970057Y-82380952D02*
X197065295Y-82333333D01*
X197065295Y-82333333D02*
X197208152Y-82333333D01*
X197208152Y-82333333D02*
X197303390Y-82380952D01*
X197303390Y-82380952D02*
X197351009Y-82428571D01*
X197351009Y-82428571D02*
X197398628Y-82523809D01*
X197398628Y-82523809D02*
X197398628Y-82904761D01*
X197351009Y-81904761D02*
X197351009Y-81571428D01*
X197874819Y-81428571D02*
X197874819Y-81904761D01*
X197874819Y-81904761D02*
X196874819Y-81904761D01*
X196874819Y-81904761D02*
X196874819Y-81428571D01*
X197351009Y-80666666D02*
X197351009Y-80999999D01*
X197874819Y-80999999D02*
X196874819Y-80999999D01*
X196874819Y-80999999D02*
X196874819Y-80523809D01*
X196874819Y-79999999D02*
X197112914Y-79999999D01*
X197017676Y-80238094D02*
X197112914Y-79999999D01*
X197112914Y-79999999D02*
X197017676Y-79761904D01*
X197303390Y-80142856D02*
X197112914Y-79999999D01*
X197112914Y-79999999D02*
X197303390Y-79857142D01*
X196874819Y-79238094D02*
X197112914Y-79238094D01*
X197017676Y-79476189D02*
X197112914Y-79238094D01*
X197112914Y-79238094D02*
X197017676Y-78999999D01*
X197303390Y-79380951D02*
X197112914Y-79238094D01*
X197112914Y-79238094D02*
X197303390Y-79095237D01*
X219666666Y-141184819D02*
X219333333Y-140708628D01*
X219095238Y-141184819D02*
X219095238Y-140184819D01*
X219095238Y-140184819D02*
X219476190Y-140184819D01*
X219476190Y-140184819D02*
X219571428Y-140232438D01*
X219571428Y-140232438D02*
X219619047Y-140280057D01*
X219619047Y-140280057D02*
X219666666Y-140375295D01*
X219666666Y-140375295D02*
X219666666Y-140518152D01*
X219666666Y-140518152D02*
X219619047Y-140613390D01*
X219619047Y-140613390D02*
X219571428Y-140661009D01*
X219571428Y-140661009D02*
X219476190Y-140708628D01*
X219476190Y-140708628D02*
X219095238Y-140708628D01*
X220095238Y-140661009D02*
X220428571Y-140661009D01*
X220571428Y-141184819D02*
X220095238Y-141184819D01*
X220095238Y-141184819D02*
X220095238Y-140184819D01*
X220095238Y-140184819D02*
X220571428Y-140184819D01*
X221333333Y-140661009D02*
X221000000Y-140661009D01*
X221000000Y-141184819D02*
X221000000Y-140184819D01*
X221000000Y-140184819D02*
X221476190Y-140184819D01*
X222000000Y-140184819D02*
X222000000Y-140422914D01*
X221761905Y-140327676D02*
X222000000Y-140422914D01*
X222000000Y-140422914D02*
X222238095Y-140327676D01*
X221857143Y-140613390D02*
X222000000Y-140422914D01*
X222000000Y-140422914D02*
X222142857Y-140613390D01*
X222761905Y-140184819D02*
X222761905Y-140422914D01*
X222523810Y-140327676D02*
X222761905Y-140422914D01*
X222761905Y-140422914D02*
X223000000Y-140327676D01*
X222619048Y-140613390D02*
X222761905Y-140422914D01*
X222761905Y-140422914D02*
X222904762Y-140613390D01*
D13*
%TO.C,REF\u002A\u002A*%
X184670000Y-137130000D02*
X184670000Y-78650000D01*
X187330000Y-78650000D02*
X184670000Y-78650000D01*
X187330000Y-137130000D02*
X184670000Y-137130000D01*
X187330000Y-137130000D02*
X187330000Y-78650000D01*
X187330000Y-138400000D02*
X187330000Y-139730000D01*
X187330000Y-139730000D02*
X186000000Y-139730000D01*
D14*
X165000000Y-69000000D02*
G75*
G02*
X168000000Y-66000000I3000001J-1D01*
G01*
D13*
X236670000Y-137130000D02*
X236670000Y-78650000D01*
X239330000Y-78650000D02*
X236670000Y-78650000D01*
X239330000Y-137130000D02*
X236670000Y-137130000D01*
X239330000Y-137130000D02*
X239330000Y-78650000D01*
X239330000Y-138400000D02*
X239330000Y-139730000D01*
X239330000Y-139730000D02*
X238000000Y-139730000D01*
X203170000Y-137130000D02*
X203170000Y-78650000D01*
X205830000Y-78650000D02*
X203170000Y-78650000D01*
X205830000Y-137130000D02*
X203170000Y-137130000D01*
X205830000Y-137130000D02*
X205830000Y-78650000D01*
X205830000Y-138400000D02*
X205830000Y-139730000D01*
X205830000Y-139730000D02*
X204500000Y-139730000D01*
X200170000Y-137130000D02*
X200170000Y-78650000D01*
X202830000Y-78650000D02*
X200170000Y-78650000D01*
X202830000Y-137130000D02*
X200170000Y-137130000D01*
X202830000Y-137130000D02*
X202830000Y-78650000D01*
X202830000Y-138400000D02*
X202830000Y-139730000D01*
X202830000Y-139730000D02*
X201500000Y-139730000D01*
X167670000Y-137130000D02*
X167670000Y-78650000D01*
X170330000Y-78650000D02*
X167670000Y-78650000D01*
X170330000Y-137130000D02*
X167670000Y-137130000D01*
X170330000Y-137130000D02*
X170330000Y-78650000D01*
X170330000Y-138400000D02*
X170330000Y-139730000D01*
X170330000Y-139730000D02*
X169000000Y-139730000D01*
D15*
%TO.C,J\u002A\u002A*%
X172600000Y-53500000D02*
X172600000Y-61700000D01*
X172600000Y-61700000D02*
X233100000Y-61700000D01*
X232000000Y-53500000D02*
X172600000Y-53500000D01*
X233100000Y-61700000D02*
X233100000Y-54500000D01*
D13*
%TO.C,REF\u002A\u002A*%
X190080000Y-76080000D02*
X190080000Y-79920000D01*
X191920000Y-76080000D02*
X191920000Y-79920000D01*
X194580000Y-79080000D02*
X194580000Y-82920000D01*
X196420000Y-79080000D02*
X196420000Y-82920000D01*
X219670000Y-137130000D02*
X219670000Y-78650000D01*
X222330000Y-78650000D02*
X219670000Y-78650000D01*
X222330000Y-137130000D02*
X219670000Y-137130000D01*
X222330000Y-137130000D02*
X222330000Y-78650000D01*
X222330000Y-138400000D02*
X222330000Y-139730000D01*
X222330000Y-139730000D02*
X221000000Y-139730000D01*
%TD*%
M02*
