%TF.GenerationSoftware,KiCad,Pcbnew,8.0.0*%
%TF.CreationDate,2025-01-17T03:21:02+02:00*%
%TF.ProjectId,diplomna_2024_sensors_pcb_layout,6469706c-6f6d-46e6-915f-323032345f73,rev?*%
%TF.SameCoordinates,Original*%
%TF.FileFunction,Copper,L2,Inr*%
%TF.FilePolarity,Positive*%
%FSLAX46Y46*%
G04 Gerber Fmt 4.6, Leading zero omitted, Abs format (unit mm)*
G04 Created by KiCad (PCBNEW 8.0.0) date 2025-01-17 03:21:02*
%MOMM*%
%LPD*%
G01*
G04 APERTURE LIST*
%TA.AperFunction,ComponentPad*%
%ADD10R,1.700000X1.700000*%
%TD*%
%TA.AperFunction,ComponentPad*%
%ADD11O,1.700000X1.700000*%
%TD*%
%TA.AperFunction,ComponentPad*%
%ADD12R,1.500000X1.500000*%
%TD*%
%TA.AperFunction,ComponentPad*%
%ADD13C,1.500000*%
%TD*%
%TA.AperFunction,ViaPad*%
%ADD14C,0.600000*%
%TD*%
G04 APERTURE END LIST*
D10*
%TO.N,VIN*%
%TO.C,REF\u002A\u002A*%
X174340000Y-68000000D03*
D11*
%TO.N,GND*%
X176880000Y-68000000D03*
%TO.N,SQW*%
X179420000Y-68000000D03*
%TO.N,SCL*%
X181960000Y-68000000D03*
%TO.N,SDA*%
X184500000Y-68000000D03*
%TD*%
D10*
%TO.N,GND*%
%TO.C,REF\u002A\u002A*%
X213000000Y-112000000D03*
D11*
%TO.N,VIN*%
X213000000Y-114540000D03*
%TO.N,miso*%
X213000000Y-117080000D03*
%TO.N,mosi*%
X213000000Y-119620000D03*
%TO.N,sck*%
X213000000Y-122160000D03*
%TO.N,cs*%
X213000000Y-124700000D03*
%TD*%
D10*
%TO.N,N/C*%
%TO.C,REF\u002A\u002A*%
X202500000Y-138400000D03*
D11*
X202500000Y-135860000D03*
X202500000Y-133320000D03*
X202500000Y-130780000D03*
X202500000Y-128240000D03*
X202500000Y-125700000D03*
X202500000Y-123160000D03*
X202500000Y-120620000D03*
X202500000Y-118080000D03*
X202500000Y-115540000D03*
X202500000Y-113000000D03*
%TO.N,cs*%
X202500000Y-110460000D03*
X202500000Y-107920000D03*
%TO.N,N/C*%
X202500000Y-105380000D03*
X202500000Y-102840000D03*
X202500000Y-100300000D03*
X202500000Y-97760000D03*
%TO.N,miso*%
X202500000Y-95220000D03*
%TO.N,mosi*%
X202500000Y-92680000D03*
%TO.N,sck*%
X202500000Y-90140000D03*
%TO.N,N/C*%
X202500000Y-87600000D03*
%TO.N,SDA*%
X202500000Y-85060000D03*
%TO.N,SCL*%
X202500000Y-82520000D03*
%TO.N,N/C*%
X202500000Y-79980000D03*
%TD*%
D10*
%TO.N,VIN*%
%TO.C,REF\u002A\u002A*%
X169000000Y-75460000D03*
D11*
%TO.N,N/C*%
X169000000Y-78000000D03*
%TO.N,GND*%
X169000000Y-80540000D03*
%TO.N,SCL*%
X169000000Y-83080000D03*
%TO.N,SDA*%
X169000000Y-85620000D03*
%TD*%
D10*
%TO.N,N/C*%
%TO.C,REF\u002A\u002A*%
X205500000Y-138400000D03*
D11*
X205500000Y-135860000D03*
X205500000Y-133320000D03*
X205500000Y-130780000D03*
X205500000Y-128240000D03*
X205500000Y-125700000D03*
X205500000Y-123160000D03*
X205500000Y-120620000D03*
X205500000Y-118080000D03*
X205500000Y-115540000D03*
X205500000Y-113000000D03*
%TO.N,cs*%
X205500000Y-110460000D03*
X205500000Y-107920000D03*
%TO.N,N/C*%
X205500000Y-105380000D03*
X205500000Y-102840000D03*
X205500000Y-100300000D03*
X205500000Y-97760000D03*
%TO.N,miso*%
X205500000Y-95220000D03*
%TO.N,mosi*%
X205500000Y-92680000D03*
%TO.N,sck*%
X205500000Y-90140000D03*
%TO.N,N/C*%
X205500000Y-87600000D03*
%TO.N,SDA*%
X205500000Y-85060000D03*
%TO.N,SCL*%
X205500000Y-82520000D03*
%TO.N,N/C*%
X205500000Y-79980000D03*
%TD*%
D10*
%TO.N,VIN*%
%TO.C,REF\u002A\u002A*%
X176680000Y-136000000D03*
D11*
%TO.N,GND*%
X179220000Y-136000000D03*
%TO.N,EN*%
X181760000Y-136000000D03*
%TO.N,N/C*%
X184300000Y-136000000D03*
%TO.N,sck*%
X186840000Y-136000000D03*
%TO.N,miso*%
X189380000Y-136000000D03*
%TO.N,mosi*%
X191920000Y-136000000D03*
%TO.N,cs*%
X194460000Y-136000000D03*
%TO.N,RST*%
X197000000Y-136000000D03*
%TD*%
D10*
%TO.N,VIN*%
%TO.C,REF\u002A\u002A*%
X169000000Y-113000000D03*
D11*
%TO.N,GND*%
X169000000Y-115540000D03*
%TO.N,SCL*%
X169000000Y-118080000D03*
%TO.N,SDA*%
X169000000Y-120620000D03*
%TD*%
D10*
%TO.N,GND*%
%TO.C,REF\u002A\u002A*%
X213000000Y-77960000D03*
D11*
%TO.N,TX*%
X213000000Y-80500000D03*
%TO.N,RX*%
X213000000Y-83040000D03*
%TO.N,VIN*%
X213000000Y-85580000D03*
%TD*%
D12*
%TO.N,GND*%
%TO.C,J\u002A\u002A*%
X233000000Y-54500000D03*
D13*
X231000000Y-54500000D03*
%TO.N,N/C*%
X229000000Y-54500000D03*
X227000000Y-54500000D03*
X225000000Y-54500000D03*
X223000000Y-54500000D03*
X221000000Y-54500000D03*
X219000000Y-54500000D03*
X217000000Y-54500000D03*
X215000000Y-54500000D03*
X213000000Y-54500000D03*
X211000000Y-54500000D03*
X209000000Y-54500000D03*
X207000000Y-54500000D03*
X205000000Y-54500000D03*
X203000000Y-54500000D03*
X201000000Y-54500000D03*
X199000000Y-54500000D03*
X197000000Y-54500000D03*
X195000000Y-54500000D03*
X193000000Y-54500000D03*
X191000000Y-54500000D03*
X189000000Y-54500000D03*
X187000000Y-54500000D03*
X185000000Y-54500000D03*
X183000000Y-54500000D03*
X181000000Y-54500000D03*
X179000000Y-54500000D03*
X177000000Y-54500000D03*
%TO.N,GND*%
X175000000Y-54500000D03*
X233000000Y-56500000D03*
%TO.N,N/C*%
X231000000Y-56500000D03*
X229000000Y-56500000D03*
X227000000Y-56500000D03*
X225000000Y-56500000D03*
X223000000Y-56500000D03*
X221000000Y-56500000D03*
X219000000Y-56500000D03*
X217000000Y-56500000D03*
X215000000Y-56500000D03*
X213000000Y-56500000D03*
X211000000Y-56500000D03*
X209000000Y-56500000D03*
X207000000Y-56500000D03*
X205000000Y-56500000D03*
X203000000Y-56500000D03*
X201000000Y-56500000D03*
X199000000Y-56500000D03*
X197000000Y-56500000D03*
X195000000Y-56500000D03*
X193000000Y-56500000D03*
X191000000Y-56500000D03*
X189000000Y-56500000D03*
X187000000Y-56500000D03*
X185000000Y-56500000D03*
X183000000Y-56500000D03*
X181000000Y-56500000D03*
X179000000Y-56500000D03*
X177000000Y-56500000D03*
X175000000Y-56500000D03*
X233000000Y-58500000D03*
X231000000Y-58500000D03*
X229000000Y-58500000D03*
X227000000Y-58500000D03*
X225000000Y-58500000D03*
X223000000Y-58500000D03*
X221000000Y-58500000D03*
X219000000Y-58500000D03*
X217000000Y-58500000D03*
X215000000Y-58500000D03*
X213000000Y-58500000D03*
X211000000Y-58500000D03*
X209000000Y-58500000D03*
X207000000Y-58500000D03*
X205000000Y-58500000D03*
X203000000Y-58500000D03*
X201000000Y-58500000D03*
X199000000Y-58500000D03*
X197000000Y-58500000D03*
X195000000Y-58500000D03*
X193000000Y-58500000D03*
X191000000Y-58500000D03*
X189000000Y-58500000D03*
X187000000Y-58500000D03*
X185000000Y-58500000D03*
X183000000Y-58500000D03*
X181000000Y-58500000D03*
X179000000Y-58500000D03*
X177000000Y-58500000D03*
%TO.N,VIN*%
X175000000Y-58500000D03*
%TO.N,N/C*%
X233000000Y-60500000D03*
X231000000Y-60500000D03*
X229000000Y-60500000D03*
X227000000Y-60500000D03*
X225000000Y-60500000D03*
X223000000Y-60500000D03*
X221000000Y-60500000D03*
X219000000Y-60500000D03*
X217000000Y-60500000D03*
X215000000Y-60500000D03*
X213000000Y-60500000D03*
X211000000Y-60500000D03*
X209000000Y-60500000D03*
X207000000Y-60500000D03*
X205000000Y-60500000D03*
X203000000Y-60500000D03*
X201000000Y-60500000D03*
X199000000Y-60500000D03*
%TO.N,RST*%
X197000000Y-60500000D03*
%TO.N,cs*%
X195000000Y-60500000D03*
%TO.N,N/C*%
X193000000Y-60500000D03*
X191000000Y-60500000D03*
X189000000Y-60500000D03*
%TO.N,TX*%
X187000000Y-60500000D03*
%TO.N,RX*%
X185000000Y-60500000D03*
%TO.N,SQW*%
X183000000Y-60500000D03*
%TO.N,N/C*%
X181000000Y-60500000D03*
X179000000Y-60500000D03*
X177000000Y-60500000D03*
%TO.N,VIN*%
X175000000Y-60500000D03*
%TD*%
D14*
%TO.N,SCL*%
X196000000Y-87500000D03*
%TO.N,miso*%
X189500000Y-131500000D03*
%TO.N,mosi*%
X210000000Y-119000000D03*
%TO.N,cs*%
X194500000Y-117000000D03*
%TO.N,sck*%
X210000000Y-121500000D03*
%TD*%
%TA.AperFunction,Conductor*%
%TO.N,GND*%
G36*
X232534075Y-56692993D02*
G01*
X232599901Y-56807007D01*
X232692993Y-56900099D01*
X232807007Y-56965925D01*
X232870590Y-56982962D01*
X232515787Y-57337765D01*
X232480512Y-57362466D01*
X232372359Y-57412899D01*
X232193121Y-57538402D01*
X232087681Y-57643843D01*
X232026358Y-57677328D01*
X231956666Y-57672344D01*
X231912320Y-57643844D01*
X231856157Y-57587682D01*
X231822671Y-57526359D01*
X231827655Y-57456667D01*
X231856156Y-57412319D01*
X231906010Y-57362465D01*
X231961598Y-57306877D01*
X232087102Y-57127639D01*
X232137537Y-57019479D01*
X232162233Y-56984211D01*
X232517036Y-56629407D01*
X232534075Y-56692993D01*
G37*
%TD.AperFunction*%
%TA.AperFunction,Conductor*%
G36*
X175837764Y-54984210D02*
G01*
X175862465Y-55019486D01*
X175912897Y-55127638D01*
X175937998Y-55163486D01*
X176038402Y-55306877D01*
X176038406Y-55306881D01*
X176143844Y-55412319D01*
X176177329Y-55473642D01*
X176172345Y-55543334D01*
X176143844Y-55587681D01*
X176087681Y-55643844D01*
X176026358Y-55677329D01*
X175956666Y-55672345D01*
X175912319Y-55643844D01*
X175806881Y-55538406D01*
X175806877Y-55538402D01*
X175663486Y-55437998D01*
X175627638Y-55412897D01*
X175519486Y-55362465D01*
X175484210Y-55337764D01*
X175129409Y-54982962D01*
X175192993Y-54965925D01*
X175307007Y-54900099D01*
X175400099Y-54807007D01*
X175465925Y-54692993D01*
X175482962Y-54629409D01*
X175837764Y-54984210D01*
G37*
%TD.AperFunction*%
%TA.AperFunction,Conductor*%
G36*
X230534075Y-54692993D02*
G01*
X230599901Y-54807007D01*
X230692993Y-54900099D01*
X230807007Y-54965925D01*
X230870590Y-54982962D01*
X230515787Y-55337765D01*
X230480512Y-55362466D01*
X230372359Y-55412899D01*
X230193121Y-55538402D01*
X230087681Y-55643843D01*
X230026358Y-55677328D01*
X229956666Y-55672344D01*
X229912320Y-55643844D01*
X229856157Y-55587682D01*
X229822671Y-55526359D01*
X229827655Y-55456667D01*
X229856156Y-55412319D01*
X229906010Y-55362465D01*
X229961598Y-55306877D01*
X230087102Y-55127639D01*
X230137537Y-55019479D01*
X230162233Y-54984211D01*
X230517037Y-54629408D01*
X230534075Y-54692993D01*
G37*
%TD.AperFunction*%
%TA.AperFunction,Conductor*%
G36*
X246442539Y-51020185D02*
G01*
X246488294Y-51072989D01*
X246499500Y-51124500D01*
X246499500Y-61065891D01*
X246533608Y-61193187D01*
X246566554Y-61250250D01*
X246599500Y-61307314D01*
X246692686Y-61400500D01*
X246791521Y-61457563D01*
X246798510Y-61461598D01*
X246806814Y-61466392D01*
X246934108Y-61500500D01*
X251375500Y-61500500D01*
X251442539Y-61520185D01*
X251488294Y-61572989D01*
X251499500Y-61624500D01*
X251499500Y-144875500D01*
X251479815Y-144942539D01*
X251427011Y-144988294D01*
X251375500Y-144999500D01*
X157624500Y-144999500D01*
X157557461Y-144979815D01*
X157511706Y-144927011D01*
X157500500Y-144875500D01*
X157500500Y-140621288D01*
X160149500Y-140621288D01*
X160181161Y-140861785D01*
X160243947Y-141096104D01*
X160336773Y-141320205D01*
X160336776Y-141320212D01*
X160458064Y-141530289D01*
X160458066Y-141530292D01*
X160458067Y-141530293D01*
X160605733Y-141722736D01*
X160605739Y-141722743D01*
X160777256Y-141894260D01*
X160777262Y-141894265D01*
X160969711Y-142041936D01*
X161179788Y-142163224D01*
X161403900Y-142256054D01*
X161638211Y-142318838D01*
X161818586Y-142342584D01*
X161878711Y-142350500D01*
X161878712Y-142350500D01*
X162121289Y-142350500D01*
X162169388Y-142344167D01*
X162361789Y-142318838D01*
X162596100Y-142256054D01*
X162820212Y-142163224D01*
X163030289Y-142041936D01*
X163222738Y-141894265D01*
X163394265Y-141722738D01*
X163541936Y-141530289D01*
X163663224Y-141320212D01*
X163756054Y-141096100D01*
X163818838Y-140861789D01*
X163850500Y-140621288D01*
X245149500Y-140621288D01*
X245181161Y-140861785D01*
X245243947Y-141096104D01*
X245336773Y-141320205D01*
X245336776Y-141320212D01*
X245458064Y-141530289D01*
X245458066Y-141530292D01*
X245458067Y-141530293D01*
X245605733Y-141722736D01*
X245605739Y-141722743D01*
X245777256Y-141894260D01*
X245777262Y-141894265D01*
X245969711Y-142041936D01*
X246179788Y-142163224D01*
X246403900Y-142256054D01*
X246638211Y-142318838D01*
X246818586Y-142342584D01*
X246878711Y-142350500D01*
X246878712Y-142350500D01*
X247121289Y-142350500D01*
X247169388Y-142344167D01*
X247361789Y-142318838D01*
X247596100Y-142256054D01*
X247820212Y-142163224D01*
X248030289Y-142041936D01*
X248222738Y-141894265D01*
X248394265Y-141722738D01*
X248541936Y-141530289D01*
X248663224Y-141320212D01*
X248756054Y-141096100D01*
X248818838Y-140861789D01*
X248850500Y-140621288D01*
X248850500Y-140378712D01*
X248818838Y-140138211D01*
X248756054Y-139903900D01*
X248663224Y-139679788D01*
X248541936Y-139469711D01*
X248410083Y-139297876D01*
X248394266Y-139277263D01*
X248394260Y-139277256D01*
X248222743Y-139105739D01*
X248222736Y-139105733D01*
X248030293Y-138958067D01*
X248030292Y-138958066D01*
X248030289Y-138958064D01*
X247820212Y-138836776D01*
X247820205Y-138836773D01*
X247596104Y-138743947D01*
X247361785Y-138681161D01*
X247121289Y-138649500D01*
X247121288Y-138649500D01*
X246878712Y-138649500D01*
X246878711Y-138649500D01*
X246638214Y-138681161D01*
X246403895Y-138743947D01*
X246179794Y-138836773D01*
X246179785Y-138836777D01*
X245969706Y-138958067D01*
X245777263Y-139105733D01*
X245777256Y-139105739D01*
X245605739Y-139277256D01*
X245605733Y-139277263D01*
X245458067Y-139469706D01*
X245336777Y-139679785D01*
X245336773Y-139679794D01*
X245243947Y-139903895D01*
X245181161Y-140138214D01*
X245149500Y-140378711D01*
X245149500Y-140621288D01*
X163850500Y-140621288D01*
X163850500Y-140378712D01*
X163818838Y-140138211D01*
X163756054Y-139903900D01*
X163663224Y-139679788D01*
X163541936Y-139469711D01*
X163410083Y-139297876D01*
X163394266Y-139277263D01*
X163394260Y-139277256D01*
X163222743Y-139105739D01*
X163222736Y-139105733D01*
X163030293Y-138958067D01*
X163030292Y-138958066D01*
X163030289Y-138958064D01*
X162820212Y-138836776D01*
X162820205Y-138836773D01*
X162596104Y-138743947D01*
X162361785Y-138681161D01*
X162121289Y-138649500D01*
X162121288Y-138649500D01*
X161878712Y-138649500D01*
X161878711Y-138649500D01*
X161638214Y-138681161D01*
X161403895Y-138743947D01*
X161179794Y-138836773D01*
X161179785Y-138836777D01*
X160969706Y-138958067D01*
X160777263Y-139105733D01*
X160777256Y-139105739D01*
X160605739Y-139277256D01*
X160605733Y-139277263D01*
X160458067Y-139469706D01*
X160336777Y-139679785D01*
X160336773Y-139679794D01*
X160243947Y-139903895D01*
X160181161Y-140138214D01*
X160149500Y-140378711D01*
X160149500Y-140621288D01*
X157500500Y-140621288D01*
X157500500Y-136897870D01*
X175329500Y-136897870D01*
X175329501Y-136897876D01*
X175335908Y-136957483D01*
X175386202Y-137092328D01*
X175386206Y-137092335D01*
X175472452Y-137207544D01*
X175472455Y-137207547D01*
X175587664Y-137293793D01*
X175587671Y-137293797D01*
X175722517Y-137344091D01*
X175722516Y-137344091D01*
X175729444Y-137344835D01*
X175782127Y-137350500D01*
X177577872Y-137350499D01*
X177637483Y-137344091D01*
X177772331Y-137293796D01*
X177887546Y-137207546D01*
X177973796Y-137092331D01*
X178023002Y-136960401D01*
X178064872Y-136904468D01*
X178130337Y-136880050D01*
X178198610Y-136894901D01*
X178226865Y-136916053D01*
X178348917Y-137038105D01*
X178542421Y-137173600D01*
X178756507Y-137273429D01*
X178756516Y-137273433D01*
X178970000Y-137330634D01*
X178970000Y-136433012D01*
X179027007Y-136465925D01*
X179154174Y-136500000D01*
X179285826Y-136500000D01*
X179412993Y-136465925D01*
X179470000Y-136433012D01*
X179470000Y-137330633D01*
X179683483Y-137273433D01*
X179683492Y-137273429D01*
X179897578Y-137173600D01*
X180091082Y-137038105D01*
X180258105Y-136871082D01*
X180388119Y-136685405D01*
X180442696Y-136641781D01*
X180512195Y-136634588D01*
X180574549Y-136666110D01*
X180591269Y-136685405D01*
X180721505Y-136871401D01*
X180888599Y-137038495D01*
X180985295Y-137106202D01*
X181082165Y-137174032D01*
X181082167Y-137174033D01*
X181082170Y-137174035D01*
X181296337Y-137273903D01*
X181524592Y-137335063D01*
X181701034Y-137350500D01*
X181759999Y-137355659D01*
X181760000Y-137355659D01*
X181760001Y-137355659D01*
X181818966Y-137350500D01*
X181995408Y-137335063D01*
X182223663Y-137273903D01*
X182437830Y-137174035D01*
X182631401Y-137038495D01*
X182798495Y-136871401D01*
X182928425Y-136685842D01*
X182983002Y-136642217D01*
X183052500Y-136635023D01*
X183114855Y-136666546D01*
X183131575Y-136685842D01*
X183261500Y-136871395D01*
X183261505Y-136871401D01*
X183428599Y-137038495D01*
X183525295Y-137106202D01*
X183622165Y-137174032D01*
X183622167Y-137174033D01*
X183622170Y-137174035D01*
X183836337Y-137273903D01*
X184064592Y-137335063D01*
X184241034Y-137350500D01*
X184299999Y-137355659D01*
X184300000Y-137355659D01*
X184300001Y-137355659D01*
X184358966Y-137350500D01*
X184535408Y-137335063D01*
X184763663Y-137273903D01*
X184977830Y-137174035D01*
X185171401Y-137038495D01*
X185338495Y-136871401D01*
X185468425Y-136685842D01*
X185523002Y-136642217D01*
X185592500Y-136635023D01*
X185654855Y-136666546D01*
X185671575Y-136685842D01*
X185801500Y-136871395D01*
X185801505Y-136871401D01*
X185968599Y-137038495D01*
X186065295Y-137106202D01*
X186162165Y-137174032D01*
X186162167Y-137174033D01*
X186162170Y-137174035D01*
X186376337Y-137273903D01*
X186604592Y-137335063D01*
X186781034Y-137350500D01*
X186839999Y-137355659D01*
X186840000Y-137355659D01*
X186840001Y-137355659D01*
X186898966Y-137350500D01*
X187075408Y-137335063D01*
X187303663Y-137273903D01*
X187517830Y-137174035D01*
X187711401Y-137038495D01*
X187878495Y-136871401D01*
X188008425Y-136685842D01*
X188063002Y-136642217D01*
X188132500Y-136635023D01*
X188194855Y-136666546D01*
X188211575Y-136685842D01*
X188341500Y-136871395D01*
X188341505Y-136871401D01*
X188508599Y-137038495D01*
X188605295Y-137106202D01*
X188702165Y-137174032D01*
X188702167Y-137174033D01*
X188702170Y-137174035D01*
X188916337Y-137273903D01*
X189144592Y-137335063D01*
X189321034Y-137350500D01*
X189379999Y-137355659D01*
X189380000Y-137355659D01*
X189380001Y-137355659D01*
X189438966Y-137350500D01*
X189615408Y-137335063D01*
X189843663Y-137273903D01*
X190057830Y-137174035D01*
X190251401Y-137038495D01*
X190418495Y-136871401D01*
X190548425Y-136685842D01*
X190603002Y-136642217D01*
X190672500Y-136635023D01*
X190734855Y-136666546D01*
X190751575Y-136685842D01*
X190881500Y-136871395D01*
X190881505Y-136871401D01*
X191048599Y-137038495D01*
X191145295Y-137106202D01*
X191242165Y-137174032D01*
X191242167Y-137174033D01*
X191242170Y-137174035D01*
X191456337Y-137273903D01*
X191684592Y-137335063D01*
X191861034Y-137350500D01*
X191919999Y-137355659D01*
X191920000Y-137355659D01*
X191920001Y-137355659D01*
X191978966Y-137350500D01*
X192155408Y-137335063D01*
X192383663Y-137273903D01*
X192597830Y-137174035D01*
X192791401Y-137038495D01*
X192958495Y-136871401D01*
X193088425Y-136685842D01*
X193143002Y-136642217D01*
X193212500Y-136635023D01*
X193274855Y-136666546D01*
X193291575Y-136685842D01*
X193421500Y-136871395D01*
X193421505Y-136871401D01*
X193588599Y-137038495D01*
X193685295Y-137106202D01*
X193782165Y-137174032D01*
X193782167Y-137174033D01*
X193782170Y-137174035D01*
X193996337Y-137273903D01*
X194224592Y-137335063D01*
X194401034Y-137350500D01*
X194459999Y-137355659D01*
X194460000Y-137355659D01*
X194460001Y-137355659D01*
X194518966Y-137350500D01*
X194695408Y-137335063D01*
X194923663Y-137273903D01*
X195137830Y-137174035D01*
X195331401Y-137038495D01*
X195498495Y-136871401D01*
X195628425Y-136685842D01*
X195683002Y-136642217D01*
X195752500Y-136635023D01*
X195814855Y-136666546D01*
X195831575Y-136685842D01*
X195961500Y-136871395D01*
X195961505Y-136871401D01*
X196128599Y-137038495D01*
X196225295Y-137106202D01*
X196322165Y-137174032D01*
X196322167Y-137174033D01*
X196322170Y-137174035D01*
X196536337Y-137273903D01*
X196764592Y-137335063D01*
X196941034Y-137350500D01*
X196999999Y-137355659D01*
X197000000Y-137355659D01*
X197000001Y-137355659D01*
X197058966Y-137350500D01*
X197235408Y-137335063D01*
X197463663Y-137273903D01*
X197677830Y-137174035D01*
X197871401Y-137038495D01*
X198038495Y-136871401D01*
X198174035Y-136677830D01*
X198273903Y-136463663D01*
X198335063Y-136235408D01*
X198355659Y-136000000D01*
X198343410Y-135860000D01*
X201144341Y-135860000D01*
X201164936Y-136095403D01*
X201164938Y-136095413D01*
X201226094Y-136323655D01*
X201226096Y-136323659D01*
X201226097Y-136323663D01*
X201261740Y-136400099D01*
X201325965Y-136537830D01*
X201325967Y-136537834D01*
X201415788Y-136666110D01*
X201461501Y-136731396D01*
X201461506Y-136731402D01*
X201583430Y-136853326D01*
X201616915Y-136914649D01*
X201611931Y-136984341D01*
X201570059Y-137040274D01*
X201539083Y-137057189D01*
X201407669Y-137106203D01*
X201407664Y-137106206D01*
X201292455Y-137192452D01*
X201292452Y-137192455D01*
X201206206Y-137307664D01*
X201206202Y-137307671D01*
X201155908Y-137442517D01*
X201149501Y-137502116D01*
X201149501Y-137502123D01*
X201149500Y-137502135D01*
X201149500Y-139297870D01*
X201149501Y-139297876D01*
X201155908Y-139357483D01*
X201206202Y-139492328D01*
X201206206Y-139492335D01*
X201292452Y-139607544D01*
X201292455Y-139607547D01*
X201407664Y-139693793D01*
X201407671Y-139693797D01*
X201542517Y-139744091D01*
X201542516Y-139744091D01*
X201549444Y-139744835D01*
X201602127Y-139750500D01*
X203397872Y-139750499D01*
X203457483Y-139744091D01*
X203592331Y-139693796D01*
X203707546Y-139607546D01*
X203793796Y-139492331D01*
X203844091Y-139357483D01*
X203850500Y-139297873D01*
X203850499Y-137502128D01*
X203844091Y-137442517D01*
X203804013Y-137335063D01*
X203793797Y-137307671D01*
X203793793Y-137307664D01*
X203707547Y-137192455D01*
X203707544Y-137192452D01*
X203592335Y-137106206D01*
X203592328Y-137106202D01*
X203460917Y-137057189D01*
X203404983Y-137015318D01*
X203380566Y-136949853D01*
X203395418Y-136881580D01*
X203416563Y-136853332D01*
X203538495Y-136731401D01*
X203674035Y-136537830D01*
X203773903Y-136323663D01*
X203835063Y-136095408D01*
X203855659Y-135860000D01*
X204144341Y-135860000D01*
X204164936Y-136095403D01*
X204164938Y-136095413D01*
X204226094Y-136323655D01*
X204226096Y-136323659D01*
X204226097Y-136323663D01*
X204261740Y-136400099D01*
X204325965Y-136537830D01*
X204325967Y-136537834D01*
X204415788Y-136666110D01*
X204461501Y-136731396D01*
X204461506Y-136731402D01*
X204583430Y-136853326D01*
X204616915Y-136914649D01*
X204611931Y-136984341D01*
X204570059Y-137040274D01*
X204539083Y-137057189D01*
X204407669Y-137106203D01*
X204407664Y-137106206D01*
X204292455Y-137192452D01*
X204292452Y-137192455D01*
X204206206Y-137307664D01*
X204206202Y-137307671D01*
X204155908Y-137442517D01*
X204149501Y-137502116D01*
X204149501Y-137502123D01*
X204149500Y-137502135D01*
X204149500Y-139297870D01*
X204149501Y-139297876D01*
X204155908Y-139357483D01*
X204206202Y-139492328D01*
X204206206Y-139492335D01*
X204292452Y-139607544D01*
X204292455Y-139607547D01*
X204407664Y-139693793D01*
X204407671Y-139693797D01*
X204542517Y-139744091D01*
X204542516Y-139744091D01*
X204549444Y-139744835D01*
X204602127Y-139750500D01*
X206397872Y-139750499D01*
X206457483Y-139744091D01*
X206592331Y-139693796D01*
X206707546Y-139607546D01*
X206793796Y-139492331D01*
X206844091Y-139357483D01*
X206850500Y-139297873D01*
X206850499Y-137502128D01*
X206844091Y-137442517D01*
X206804013Y-137335063D01*
X206793797Y-137307671D01*
X206793793Y-137307664D01*
X206707547Y-137192455D01*
X206707544Y-137192452D01*
X206592335Y-137106206D01*
X206592328Y-137106202D01*
X206460917Y-137057189D01*
X206404983Y-137015318D01*
X206380566Y-136949853D01*
X206395418Y-136881580D01*
X206416563Y-136853332D01*
X206538495Y-136731401D01*
X206674035Y-136537830D01*
X206773903Y-136323663D01*
X206835063Y-136095408D01*
X206855659Y-135860000D01*
X206835063Y-135624592D01*
X206773903Y-135396337D01*
X206674035Y-135182171D01*
X206636749Y-135128920D01*
X206538494Y-134988597D01*
X206371402Y-134821506D01*
X206371396Y-134821501D01*
X206185842Y-134691575D01*
X206142217Y-134636998D01*
X206135023Y-134567500D01*
X206166546Y-134505145D01*
X206185842Y-134488425D01*
X206208026Y-134472891D01*
X206371401Y-134358495D01*
X206538495Y-134191401D01*
X206674035Y-133997830D01*
X206773903Y-133783663D01*
X206835063Y-133555408D01*
X206855659Y-133320000D01*
X206835063Y-133084592D01*
X206773903Y-132856337D01*
X206674035Y-132642171D01*
X206538495Y-132448599D01*
X206538494Y-132448597D01*
X206371402Y-132281506D01*
X206371396Y-132281501D01*
X206185842Y-132151575D01*
X206142217Y-132096998D01*
X206135023Y-132027500D01*
X206166546Y-131965145D01*
X206185842Y-131948425D01*
X206327088Y-131849523D01*
X206371401Y-131818495D01*
X206538495Y-131651401D01*
X206674035Y-131457830D01*
X206773903Y-131243663D01*
X206835063Y-131015408D01*
X206855659Y-130780000D01*
X206835063Y-130544592D01*
X206773903Y-130316337D01*
X206674035Y-130102171D01*
X206538495Y-129908599D01*
X206538494Y-129908597D01*
X206371402Y-129741506D01*
X206371396Y-129741501D01*
X206185842Y-129611575D01*
X206142217Y-129556998D01*
X206135023Y-129487500D01*
X206166546Y-129425145D01*
X206185842Y-129408425D01*
X206208026Y-129392891D01*
X206371401Y-129278495D01*
X206538495Y-129111401D01*
X206674035Y-128917830D01*
X206773903Y-128703663D01*
X206835063Y-128475408D01*
X206855659Y-128240000D01*
X206835063Y-128004592D01*
X206773903Y-127776337D01*
X206674035Y-127562171D01*
X206538495Y-127368599D01*
X206538494Y-127368597D01*
X206371402Y-127201506D01*
X206371396Y-127201501D01*
X206185842Y-127071575D01*
X206142217Y-127016998D01*
X206135023Y-126947500D01*
X206166546Y-126885145D01*
X206185842Y-126868425D01*
X206208026Y-126852891D01*
X206371401Y-126738495D01*
X206538495Y-126571401D01*
X206674035Y-126377830D01*
X206773903Y-126163663D01*
X206835063Y-125935408D01*
X206855659Y-125700000D01*
X206835063Y-125464592D01*
X206773903Y-125236337D01*
X206674035Y-125022171D01*
X206613284Y-124935408D01*
X206538494Y-124828597D01*
X206409896Y-124700000D01*
X211644341Y-124700000D01*
X211664936Y-124935403D01*
X211664938Y-124935413D01*
X211726094Y-125163655D01*
X211726096Y-125163659D01*
X211726097Y-125163663D01*
X211759985Y-125236335D01*
X211825965Y-125377830D01*
X211825967Y-125377834D01*
X211886712Y-125464586D01*
X211961505Y-125571401D01*
X212128599Y-125738495D01*
X212225384Y-125806265D01*
X212322165Y-125874032D01*
X212322167Y-125874033D01*
X212322170Y-125874035D01*
X212536337Y-125973903D01*
X212764592Y-126035063D01*
X212952918Y-126051539D01*
X212999999Y-126055659D01*
X213000000Y-126055659D01*
X213000001Y-126055659D01*
X213039234Y-126052226D01*
X213235408Y-126035063D01*
X213463663Y-125973903D01*
X213677830Y-125874035D01*
X213871401Y-125738495D01*
X214038495Y-125571401D01*
X214174035Y-125377830D01*
X214273903Y-125163663D01*
X214335063Y-124935408D01*
X214355659Y-124700000D01*
X214335063Y-124464592D01*
X214273903Y-124236337D01*
X214174035Y-124022171D01*
X214044962Y-123837834D01*
X214038494Y-123828597D01*
X213871402Y-123661506D01*
X213871396Y-123661501D01*
X213685842Y-123531575D01*
X213642217Y-123476998D01*
X213635023Y-123407500D01*
X213666546Y-123345145D01*
X213685842Y-123328425D01*
X213708026Y-123312891D01*
X213871401Y-123198495D01*
X214038495Y-123031401D01*
X214174035Y-122837830D01*
X214273903Y-122623663D01*
X214335063Y-122395408D01*
X214355659Y-122160000D01*
X214335063Y-121924592D01*
X214273903Y-121696337D01*
X214174035Y-121482171D01*
X214061008Y-121320750D01*
X214038494Y-121288597D01*
X213871402Y-121121506D01*
X213871396Y-121121501D01*
X213685842Y-120991575D01*
X213642217Y-120936998D01*
X213635023Y-120867500D01*
X213666546Y-120805145D01*
X213685842Y-120788425D01*
X213791229Y-120714632D01*
X213871401Y-120658495D01*
X214038495Y-120491401D01*
X214174035Y-120297830D01*
X214273903Y-120083663D01*
X214335063Y-119855408D01*
X214355659Y-119620000D01*
X214335063Y-119384592D01*
X214273903Y-119156337D01*
X214174035Y-118942171D01*
X214089016Y-118820750D01*
X214038494Y-118748597D01*
X213871402Y-118581506D01*
X213871396Y-118581501D01*
X213685842Y-118451575D01*
X213642217Y-118396998D01*
X213635023Y-118327500D01*
X213666546Y-118265145D01*
X213685842Y-118248425D01*
X213734106Y-118214630D01*
X213871401Y-118118495D01*
X214038495Y-117951401D01*
X214174035Y-117757830D01*
X214273903Y-117543663D01*
X214335063Y-117315408D01*
X214355659Y-117080000D01*
X214335063Y-116844592D01*
X214273903Y-116616337D01*
X214174035Y-116402171D01*
X214044962Y-116217834D01*
X214038494Y-116208597D01*
X213871402Y-116041506D01*
X213871396Y-116041501D01*
X213685842Y-115911575D01*
X213642217Y-115856998D01*
X213635023Y-115787500D01*
X213666546Y-115725145D01*
X213685842Y-115708425D01*
X213832368Y-115605826D01*
X213871401Y-115578495D01*
X214038495Y-115411401D01*
X214174035Y-115217830D01*
X214273903Y-115003663D01*
X214335063Y-114775408D01*
X214355659Y-114540000D01*
X214335063Y-114304592D01*
X214273903Y-114076337D01*
X214174035Y-113862171D01*
X214044961Y-113677834D01*
X214038496Y-113668600D01*
X214038495Y-113668599D01*
X213916179Y-113546283D01*
X213882696Y-113484963D01*
X213887680Y-113415271D01*
X213929551Y-113359337D01*
X213960529Y-113342422D01*
X214092086Y-113293354D01*
X214092093Y-113293350D01*
X214207187Y-113207190D01*
X214207190Y-113207187D01*
X214293350Y-113092093D01*
X214293354Y-113092086D01*
X214343596Y-112957379D01*
X214343598Y-112957372D01*
X214349999Y-112897844D01*
X214350000Y-112897827D01*
X214350000Y-112250000D01*
X213433012Y-112250000D01*
X213465925Y-112192993D01*
X213500000Y-112065826D01*
X213500000Y-111934174D01*
X213465925Y-111807007D01*
X213433012Y-111750000D01*
X214350000Y-111750000D01*
X214350000Y-111102172D01*
X214349999Y-111102155D01*
X214343598Y-111042627D01*
X214343596Y-111042620D01*
X214293354Y-110907913D01*
X214293350Y-110907906D01*
X214207190Y-110792812D01*
X214207187Y-110792809D01*
X214092093Y-110706649D01*
X214092086Y-110706645D01*
X213957379Y-110656403D01*
X213957372Y-110656401D01*
X213897844Y-110650000D01*
X213250000Y-110650000D01*
X213250000Y-111566988D01*
X213192993Y-111534075D01*
X213065826Y-111500000D01*
X212934174Y-111500000D01*
X212807007Y-111534075D01*
X212750000Y-111566988D01*
X212750000Y-110650000D01*
X212102155Y-110650000D01*
X212042627Y-110656401D01*
X212042620Y-110656403D01*
X211907913Y-110706645D01*
X211907906Y-110706649D01*
X211792812Y-110792809D01*
X211792809Y-110792812D01*
X211706649Y-110907906D01*
X211706645Y-110907913D01*
X211656403Y-111042620D01*
X211656401Y-111042627D01*
X211650000Y-111102155D01*
X211650000Y-111750000D01*
X212566988Y-111750000D01*
X212534075Y-111807007D01*
X212500000Y-111934174D01*
X212500000Y-112065826D01*
X212534075Y-112192993D01*
X212566988Y-112250000D01*
X211650000Y-112250000D01*
X211650000Y-112897844D01*
X211656401Y-112957372D01*
X211656403Y-112957379D01*
X211706645Y-113092086D01*
X211706649Y-113092093D01*
X211792809Y-113207187D01*
X211792812Y-113207190D01*
X211907906Y-113293350D01*
X211907913Y-113293354D01*
X212039470Y-113342421D01*
X212095403Y-113384292D01*
X212119821Y-113449756D01*
X212104970Y-113518029D01*
X212083819Y-113546284D01*
X211961503Y-113668600D01*
X211825965Y-113862169D01*
X211825964Y-113862171D01*
X211726098Y-114076335D01*
X211726094Y-114076344D01*
X211664938Y-114304586D01*
X211664936Y-114304596D01*
X211644341Y-114539999D01*
X211644341Y-114540000D01*
X211664936Y-114775403D01*
X211664938Y-114775413D01*
X211726094Y-115003655D01*
X211726096Y-115003659D01*
X211726097Y-115003663D01*
X211758931Y-115074075D01*
X211825965Y-115217830D01*
X211825967Y-115217834D01*
X211961501Y-115411395D01*
X211961506Y-115411402D01*
X212128597Y-115578493D01*
X212128603Y-115578498D01*
X212314158Y-115708425D01*
X212357783Y-115763002D01*
X212364977Y-115832500D01*
X212333454Y-115894855D01*
X212314158Y-115911575D01*
X212128597Y-116041505D01*
X211961505Y-116208597D01*
X211825965Y-116402169D01*
X211825964Y-116402171D01*
X211726098Y-116616335D01*
X211726094Y-116616344D01*
X211664938Y-116844586D01*
X211664936Y-116844596D01*
X211644341Y-117079999D01*
X211644341Y-117080000D01*
X211664936Y-117315403D01*
X211664938Y-117315413D01*
X211726094Y-117543655D01*
X211726096Y-117543659D01*
X211726097Y-117543663D01*
X211766271Y-117629816D01*
X211825965Y-117757830D01*
X211825967Y-117757834D01*
X211961501Y-117951395D01*
X211961506Y-117951402D01*
X212128597Y-118118493D01*
X212128603Y-118118498D01*
X212314158Y-118248425D01*
X212357783Y-118303002D01*
X212364977Y-118372500D01*
X212333454Y-118434855D01*
X212314158Y-118451575D01*
X212128597Y-118581505D01*
X211961505Y-118748597D01*
X211825965Y-118942169D01*
X211825964Y-118942171D01*
X211726098Y-119156335D01*
X211726094Y-119156344D01*
X211664938Y-119384586D01*
X211664936Y-119384596D01*
X211644341Y-119619999D01*
X211644341Y-119620000D01*
X211664936Y-119855403D01*
X211664938Y-119855413D01*
X211726094Y-120083655D01*
X211726096Y-120083659D01*
X211726097Y-120083663D01*
X211759985Y-120156335D01*
X211825965Y-120297830D01*
X211825967Y-120297834D01*
X211961501Y-120491395D01*
X211961506Y-120491402D01*
X212128597Y-120658493D01*
X212128603Y-120658498D01*
X212314158Y-120788425D01*
X212357783Y-120843002D01*
X212364977Y-120912500D01*
X212333454Y-120974855D01*
X212314158Y-120991575D01*
X212128597Y-121121505D01*
X211961505Y-121288597D01*
X211825965Y-121482169D01*
X211825964Y-121482171D01*
X211726098Y-121696335D01*
X211726094Y-121696344D01*
X211664938Y-121924586D01*
X211664936Y-121924596D01*
X211644341Y-122159999D01*
X211644341Y-122160000D01*
X211664936Y-122395403D01*
X211664938Y-122395413D01*
X211726094Y-122623655D01*
X211726096Y-122623659D01*
X211726097Y-122623663D01*
X211759985Y-122696335D01*
X211825965Y-122837830D01*
X211825967Y-122837834D01*
X211961501Y-123031395D01*
X211961506Y-123031402D01*
X212128597Y-123198493D01*
X212128603Y-123198498D01*
X212314158Y-123328425D01*
X212357783Y-123383002D01*
X212364977Y-123452500D01*
X212333454Y-123514855D01*
X212314158Y-123531575D01*
X212128597Y-123661505D01*
X211961505Y-123828597D01*
X211825965Y-124022169D01*
X211825964Y-124022171D01*
X211726098Y-124236335D01*
X211726094Y-124236344D01*
X211664938Y-124464586D01*
X211664936Y-124464596D01*
X211644341Y-124699999D01*
X211644341Y-124700000D01*
X206409896Y-124700000D01*
X206371402Y-124661506D01*
X206371396Y-124661501D01*
X206185842Y-124531575D01*
X206142217Y-124476998D01*
X206135023Y-124407500D01*
X206166546Y-124345145D01*
X206185842Y-124328425D01*
X206317357Y-124236337D01*
X206371401Y-124198495D01*
X206538495Y-124031401D01*
X206674035Y-123837830D01*
X206773903Y-123623663D01*
X206835063Y-123395408D01*
X206855659Y-123160000D01*
X206835063Y-122924592D01*
X206773903Y-122696337D01*
X206674035Y-122482171D01*
X206613284Y-122395408D01*
X206538494Y-122288597D01*
X206371402Y-122121506D01*
X206371396Y-122121501D01*
X206185842Y-121991575D01*
X206142217Y-121936998D01*
X206135023Y-121867500D01*
X206166546Y-121805145D01*
X206185842Y-121788425D01*
X206317357Y-121696337D01*
X206371401Y-121658495D01*
X206529893Y-121500003D01*
X209194435Y-121500003D01*
X209214630Y-121679249D01*
X209214631Y-121679254D01*
X209274211Y-121849523D01*
X209340527Y-121955063D01*
X209370184Y-122002262D01*
X209497738Y-122129816D01*
X209650478Y-122225789D01*
X209820745Y-122285368D01*
X209820750Y-122285369D01*
X209999996Y-122305565D01*
X210000000Y-122305565D01*
X210000004Y-122305565D01*
X210179249Y-122285369D01*
X210179252Y-122285368D01*
X210179255Y-122285368D01*
X210349522Y-122225789D01*
X210502262Y-122129816D01*
X210629816Y-122002262D01*
X210725789Y-121849522D01*
X210785368Y-121679255D01*
X210787707Y-121658495D01*
X210805565Y-121500003D01*
X210805565Y-121499996D01*
X210785369Y-121320750D01*
X210785368Y-121320745D01*
X210725788Y-121150476D01*
X210629815Y-120997737D01*
X210502262Y-120870184D01*
X210349523Y-120774211D01*
X210179254Y-120714631D01*
X210179249Y-120714630D01*
X210000004Y-120694435D01*
X209999996Y-120694435D01*
X209820750Y-120714630D01*
X209820745Y-120714631D01*
X209650476Y-120774211D01*
X209497737Y-120870184D01*
X209370184Y-120997737D01*
X209274211Y-121150476D01*
X209214631Y-121320745D01*
X209214630Y-121320750D01*
X209194435Y-121499996D01*
X209194435Y-121500003D01*
X206529893Y-121500003D01*
X206538495Y-121491401D01*
X206674035Y-121297830D01*
X206773903Y-121083663D01*
X206835063Y-120855408D01*
X206855659Y-120620000D01*
X206835063Y-120384592D01*
X206773903Y-120156337D01*
X206674035Y-119942171D01*
X206613284Y-119855408D01*
X206538494Y-119748597D01*
X206371402Y-119581506D01*
X206371396Y-119581501D01*
X206185842Y-119451575D01*
X206142217Y-119396998D01*
X206135023Y-119327500D01*
X206166546Y-119265145D01*
X206185842Y-119248425D01*
X206208026Y-119232891D01*
X206371401Y-119118495D01*
X206489893Y-119000003D01*
X209194435Y-119000003D01*
X209214630Y-119179249D01*
X209214631Y-119179254D01*
X209274211Y-119349523D01*
X209296249Y-119384596D01*
X209370184Y-119502262D01*
X209497738Y-119629816D01*
X209650478Y-119725789D01*
X209820745Y-119785368D01*
X209820750Y-119785369D01*
X209999996Y-119805565D01*
X210000000Y-119805565D01*
X210000004Y-119805565D01*
X210179249Y-119785369D01*
X210179252Y-119785368D01*
X210179255Y-119785368D01*
X210349522Y-119725789D01*
X210502262Y-119629816D01*
X210629816Y-119502262D01*
X210725789Y-119349522D01*
X210785368Y-119179255D01*
X210785369Y-119179249D01*
X210805565Y-119000003D01*
X210805565Y-118999996D01*
X210785369Y-118820750D01*
X210785368Y-118820745D01*
X210725788Y-118650476D01*
X210658673Y-118543664D01*
X210629816Y-118497738D01*
X210502262Y-118370184D01*
X210349523Y-118274211D01*
X210179254Y-118214631D01*
X210179249Y-118214630D01*
X210000004Y-118194435D01*
X209999996Y-118194435D01*
X209820750Y-118214630D01*
X209820745Y-118214631D01*
X209650476Y-118274211D01*
X209497737Y-118370184D01*
X209370184Y-118497737D01*
X209274211Y-118650476D01*
X209214631Y-118820745D01*
X209214630Y-118820750D01*
X209194435Y-118999996D01*
X209194435Y-119000003D01*
X206489893Y-119000003D01*
X206538495Y-118951401D01*
X206674035Y-118757830D01*
X206773903Y-118543663D01*
X206835063Y-118315408D01*
X206855659Y-118080000D01*
X206835063Y-117844592D01*
X206773903Y-117616337D01*
X206674035Y-117402171D01*
X206613284Y-117315408D01*
X206538494Y-117208597D01*
X206371402Y-117041506D01*
X206371396Y-117041501D01*
X206185842Y-116911575D01*
X206142217Y-116856998D01*
X206135023Y-116787500D01*
X206166546Y-116725145D01*
X206185842Y-116708425D01*
X206208026Y-116692891D01*
X206371401Y-116578495D01*
X206538495Y-116411401D01*
X206674035Y-116217830D01*
X206773903Y-116003663D01*
X206835063Y-115775408D01*
X206855659Y-115540000D01*
X206835063Y-115304592D01*
X206773903Y-115076337D01*
X206674035Y-114862171D01*
X206613284Y-114775408D01*
X206538494Y-114668597D01*
X206371402Y-114501506D01*
X206371396Y-114501501D01*
X206185842Y-114371575D01*
X206142217Y-114316998D01*
X206135023Y-114247500D01*
X206166546Y-114185145D01*
X206185842Y-114168425D01*
X206208026Y-114152891D01*
X206371401Y-114038495D01*
X206538495Y-113871401D01*
X206674035Y-113677830D01*
X206773903Y-113463663D01*
X206835063Y-113235408D01*
X206855659Y-113000000D01*
X206835063Y-112764592D01*
X206773903Y-112536337D01*
X206674035Y-112322171D01*
X206538495Y-112128599D01*
X206538494Y-112128597D01*
X206371402Y-111961506D01*
X206371396Y-111961501D01*
X206185842Y-111831575D01*
X206142217Y-111776998D01*
X206135023Y-111707500D01*
X206166546Y-111645145D01*
X206185842Y-111628425D01*
X206226578Y-111599901D01*
X206371401Y-111498495D01*
X206538495Y-111331401D01*
X206674035Y-111137830D01*
X206773903Y-110923663D01*
X206835063Y-110695408D01*
X206855659Y-110460000D01*
X206835063Y-110224592D01*
X206773903Y-109996337D01*
X206674035Y-109782171D01*
X206538495Y-109588599D01*
X206538494Y-109588597D01*
X206371402Y-109421506D01*
X206371396Y-109421501D01*
X206185842Y-109291575D01*
X206142217Y-109236998D01*
X206135023Y-109167500D01*
X206166546Y-109105145D01*
X206185842Y-109088425D01*
X206208026Y-109072891D01*
X206371401Y-108958495D01*
X206538495Y-108791401D01*
X206674035Y-108597830D01*
X206773903Y-108383663D01*
X206835063Y-108155408D01*
X206855659Y-107920000D01*
X206835063Y-107684592D01*
X206773903Y-107456337D01*
X206674035Y-107242171D01*
X206538495Y-107048599D01*
X206538494Y-107048597D01*
X206371402Y-106881506D01*
X206371396Y-106881501D01*
X206185842Y-106751575D01*
X206142217Y-106696998D01*
X206135023Y-106627500D01*
X206166546Y-106565145D01*
X206185842Y-106548425D01*
X206208026Y-106532891D01*
X206371401Y-106418495D01*
X206538495Y-106251401D01*
X206674035Y-106057830D01*
X206773903Y-105843663D01*
X206835063Y-105615408D01*
X206855659Y-105380000D01*
X206835063Y-105144592D01*
X206773903Y-104916337D01*
X206674035Y-104702171D01*
X206538495Y-104508599D01*
X206538494Y-104508597D01*
X206371402Y-104341506D01*
X206371396Y-104341501D01*
X206185842Y-104211575D01*
X206142217Y-104156998D01*
X206135023Y-104087500D01*
X206166546Y-104025145D01*
X206185842Y-104008425D01*
X206208026Y-103992891D01*
X206371401Y-103878495D01*
X206538495Y-103711401D01*
X206674035Y-103517830D01*
X206773903Y-103303663D01*
X206835063Y-103075408D01*
X206855659Y-102840000D01*
X206835063Y-102604592D01*
X206773903Y-102376337D01*
X206674035Y-102162171D01*
X206538495Y-101968599D01*
X206538494Y-101968597D01*
X206371402Y-101801506D01*
X206371396Y-101801501D01*
X206185842Y-101671575D01*
X206142217Y-101616998D01*
X206135023Y-101547500D01*
X206166546Y-101485145D01*
X206185842Y-101468425D01*
X206208026Y-101452891D01*
X206371401Y-101338495D01*
X206538495Y-101171401D01*
X206674035Y-100977830D01*
X206773903Y-100763663D01*
X206835063Y-100535408D01*
X206855659Y-100300000D01*
X206835063Y-100064592D01*
X206773903Y-99836337D01*
X206674035Y-99622171D01*
X206538495Y-99428599D01*
X206538494Y-99428597D01*
X206371402Y-99261506D01*
X206371396Y-99261501D01*
X206185842Y-99131575D01*
X206142217Y-99076998D01*
X206135023Y-99007500D01*
X206166546Y-98945145D01*
X206185842Y-98928425D01*
X206208026Y-98912891D01*
X206371401Y-98798495D01*
X206538495Y-98631401D01*
X206674035Y-98437830D01*
X206773903Y-98223663D01*
X206835063Y-97995408D01*
X206855659Y-97760000D01*
X206835063Y-97524592D01*
X206773903Y-97296337D01*
X206674035Y-97082171D01*
X206538495Y-96888599D01*
X206538494Y-96888597D01*
X206371402Y-96721506D01*
X206371396Y-96721501D01*
X206185842Y-96591575D01*
X206142217Y-96536998D01*
X206135023Y-96467500D01*
X206166546Y-96405145D01*
X206185842Y-96388425D01*
X206208026Y-96372891D01*
X206371401Y-96258495D01*
X206538495Y-96091401D01*
X206674035Y-95897830D01*
X206773903Y-95683663D01*
X206835063Y-95455408D01*
X206855659Y-95220000D01*
X206835063Y-94984592D01*
X206773903Y-94756337D01*
X206674035Y-94542171D01*
X206538495Y-94348599D01*
X206538494Y-94348597D01*
X206371402Y-94181506D01*
X206371396Y-94181501D01*
X206185842Y-94051575D01*
X206142217Y-93996998D01*
X206135023Y-93927500D01*
X206166546Y-93865145D01*
X206185842Y-93848425D01*
X206208026Y-93832891D01*
X206371401Y-93718495D01*
X206538495Y-93551401D01*
X206674035Y-93357830D01*
X206773903Y-93143663D01*
X206835063Y-92915408D01*
X206855659Y-92680000D01*
X206835063Y-92444592D01*
X206773903Y-92216337D01*
X206674035Y-92002171D01*
X206538495Y-91808599D01*
X206538494Y-91808597D01*
X206371402Y-91641506D01*
X206371396Y-91641501D01*
X206185842Y-91511575D01*
X206142217Y-91456998D01*
X206135023Y-91387500D01*
X206166546Y-91325145D01*
X206185842Y-91308425D01*
X206208026Y-91292891D01*
X206371401Y-91178495D01*
X206538495Y-91011401D01*
X206674035Y-90817830D01*
X206773903Y-90603663D01*
X206835063Y-90375408D01*
X206855659Y-90140000D01*
X206835063Y-89904592D01*
X206773903Y-89676337D01*
X206674035Y-89462171D01*
X206538495Y-89268599D01*
X206538494Y-89268597D01*
X206371402Y-89101506D01*
X206371396Y-89101501D01*
X206185842Y-88971575D01*
X206142217Y-88916998D01*
X206135023Y-88847500D01*
X206166546Y-88785145D01*
X206185842Y-88768425D01*
X206208026Y-88752891D01*
X206371401Y-88638495D01*
X206538495Y-88471401D01*
X206674035Y-88277830D01*
X206773903Y-88063663D01*
X206835063Y-87835408D01*
X206855659Y-87600000D01*
X206835063Y-87364592D01*
X206777692Y-87150478D01*
X206773905Y-87136344D01*
X206773904Y-87136343D01*
X206773903Y-87136337D01*
X206674035Y-86922171D01*
X206654241Y-86893901D01*
X206538494Y-86728597D01*
X206371402Y-86561506D01*
X206371396Y-86561501D01*
X206185842Y-86431575D01*
X206142217Y-86376998D01*
X206135023Y-86307500D01*
X206166546Y-86245145D01*
X206185842Y-86228425D01*
X206208026Y-86212891D01*
X206371401Y-86098495D01*
X206538495Y-85931401D01*
X206674035Y-85737830D01*
X206747633Y-85580000D01*
X211644341Y-85580000D01*
X211664936Y-85815403D01*
X211664938Y-85815413D01*
X211726094Y-86043655D01*
X211726096Y-86043659D01*
X211726097Y-86043663D01*
X211744750Y-86083664D01*
X211825965Y-86257830D01*
X211825967Y-86257834D01*
X211909407Y-86376998D01*
X211961505Y-86451401D01*
X212128599Y-86618495D01*
X212185722Y-86658493D01*
X212322165Y-86754032D01*
X212322167Y-86754033D01*
X212322170Y-86754035D01*
X212536337Y-86853903D01*
X212764592Y-86915063D01*
X212952918Y-86931539D01*
X212999999Y-86935659D01*
X213000000Y-86935659D01*
X213000001Y-86935659D01*
X213039234Y-86932226D01*
X213235408Y-86915063D01*
X213463663Y-86853903D01*
X213677830Y-86754035D01*
X213871401Y-86618495D01*
X214038495Y-86451401D01*
X214174035Y-86257830D01*
X214273903Y-86043663D01*
X214335063Y-85815408D01*
X214355659Y-85580000D01*
X214335063Y-85344592D01*
X214273903Y-85116337D01*
X214174035Y-84902171D01*
X214066504Y-84748599D01*
X214038494Y-84708597D01*
X213871402Y-84541506D01*
X213871396Y-84541501D01*
X213685842Y-84411575D01*
X213642217Y-84356998D01*
X213635023Y-84287500D01*
X213666546Y-84225145D01*
X213685842Y-84208425D01*
X213714159Y-84188597D01*
X213871401Y-84078495D01*
X214038495Y-83911401D01*
X214174035Y-83717830D01*
X214273903Y-83503663D01*
X214335063Y-83275408D01*
X214355659Y-83040000D01*
X214335063Y-82804592D01*
X214273903Y-82576337D01*
X214174035Y-82362171D01*
X214066504Y-82208599D01*
X214038494Y-82168597D01*
X213871402Y-82001506D01*
X213871396Y-82001501D01*
X213685842Y-81871575D01*
X213642217Y-81816998D01*
X213635023Y-81747500D01*
X213666546Y-81685145D01*
X213685842Y-81668425D01*
X213814832Y-81578105D01*
X213871401Y-81538495D01*
X214038495Y-81371401D01*
X214174035Y-81177830D01*
X214273903Y-80963663D01*
X214335063Y-80735408D01*
X214355659Y-80500000D01*
X214353399Y-80474174D01*
X214350729Y-80443655D01*
X214335063Y-80264592D01*
X214284015Y-80074075D01*
X214273905Y-80036344D01*
X214273904Y-80036343D01*
X214273903Y-80036337D01*
X214174035Y-79822171D01*
X214038495Y-79628599D01*
X213916179Y-79506283D01*
X213882696Y-79444963D01*
X213887680Y-79375271D01*
X213929551Y-79319337D01*
X213960529Y-79302422D01*
X214092086Y-79253354D01*
X214092093Y-79253350D01*
X214207187Y-79167190D01*
X214207190Y-79167187D01*
X214293350Y-79052093D01*
X214293354Y-79052086D01*
X214343596Y-78917379D01*
X214343598Y-78917372D01*
X214349999Y-78857844D01*
X214350000Y-78857827D01*
X214350000Y-78210000D01*
X213433012Y-78210000D01*
X213465925Y-78152993D01*
X213500000Y-78025826D01*
X213500000Y-77894174D01*
X213465925Y-77767007D01*
X213433012Y-77710000D01*
X214350000Y-77710000D01*
X214350000Y-77062172D01*
X214349999Y-77062155D01*
X214343598Y-77002627D01*
X214343596Y-77002620D01*
X214293354Y-76867913D01*
X214293350Y-76867906D01*
X214207190Y-76752812D01*
X214207187Y-76752809D01*
X214092093Y-76666649D01*
X214092086Y-76666645D01*
X213957379Y-76616403D01*
X213957372Y-76616401D01*
X213897844Y-76610000D01*
X213250000Y-76610000D01*
X213250000Y-77526988D01*
X213192993Y-77494075D01*
X213065826Y-77460000D01*
X212934174Y-77460000D01*
X212807007Y-77494075D01*
X212750000Y-77526988D01*
X212750000Y-76610000D01*
X212102155Y-76610000D01*
X212042627Y-76616401D01*
X212042620Y-76616403D01*
X211907913Y-76666645D01*
X211907906Y-76666649D01*
X211792812Y-76752809D01*
X211792809Y-76752812D01*
X211706649Y-76867906D01*
X211706645Y-76867913D01*
X211656403Y-77002620D01*
X211656401Y-77002627D01*
X211650000Y-77062155D01*
X211650000Y-77710000D01*
X212566988Y-77710000D01*
X212534075Y-77767007D01*
X212500000Y-77894174D01*
X212500000Y-78025826D01*
X212534075Y-78152993D01*
X212566988Y-78210000D01*
X211650000Y-78210000D01*
X211650000Y-78857844D01*
X211656401Y-78917372D01*
X211656403Y-78917379D01*
X211706645Y-79052086D01*
X211706649Y-79052093D01*
X211792809Y-79167187D01*
X211792812Y-79167190D01*
X211907906Y-79253350D01*
X211907913Y-79253354D01*
X212039470Y-79302421D01*
X212095403Y-79344292D01*
X212119821Y-79409756D01*
X212104970Y-79478029D01*
X212083819Y-79506284D01*
X211961503Y-79628600D01*
X211825965Y-79822169D01*
X211825964Y-79822171D01*
X211726098Y-80036335D01*
X211726094Y-80036344D01*
X211664938Y-80264586D01*
X211664936Y-80264596D01*
X211644341Y-80499999D01*
X211644341Y-80500000D01*
X211664936Y-80735403D01*
X211664938Y-80735413D01*
X211726094Y-80963655D01*
X211726096Y-80963659D01*
X211726097Y-80963663D01*
X211751665Y-81018493D01*
X211825965Y-81177830D01*
X211825967Y-81177834D01*
X211961501Y-81371395D01*
X211961506Y-81371402D01*
X212128597Y-81538493D01*
X212128603Y-81538498D01*
X212314158Y-81668425D01*
X212357783Y-81723002D01*
X212364977Y-81792500D01*
X212333454Y-81854855D01*
X212314158Y-81871575D01*
X212128597Y-82001505D01*
X211961505Y-82168597D01*
X211825965Y-82362169D01*
X211825964Y-82362171D01*
X211726098Y-82576335D01*
X211726094Y-82576344D01*
X211664938Y-82804586D01*
X211664936Y-82804596D01*
X211644341Y-83039999D01*
X211644341Y-83040000D01*
X211664936Y-83275403D01*
X211664938Y-83275413D01*
X211726094Y-83503655D01*
X211726096Y-83503659D01*
X211726097Y-83503663D01*
X211744750Y-83543664D01*
X211825965Y-83717830D01*
X211825967Y-83717834D01*
X211961501Y-83911395D01*
X211961506Y-83911402D01*
X212128597Y-84078493D01*
X212128603Y-84078498D01*
X212314158Y-84208425D01*
X212357783Y-84263002D01*
X212364977Y-84332500D01*
X212333454Y-84394855D01*
X212314158Y-84411575D01*
X212128597Y-84541505D01*
X211961505Y-84708597D01*
X211825965Y-84902169D01*
X211825964Y-84902171D01*
X211726098Y-85116335D01*
X211726094Y-85116344D01*
X211664938Y-85344586D01*
X211664936Y-85344596D01*
X211644341Y-85579999D01*
X211644341Y-85580000D01*
X206747633Y-85580000D01*
X206773903Y-85523663D01*
X206835063Y-85295408D01*
X206855659Y-85060000D01*
X206835063Y-84824592D01*
X206773903Y-84596337D01*
X206674035Y-84382171D01*
X206667264Y-84372500D01*
X206538494Y-84188597D01*
X206371402Y-84021506D01*
X206371396Y-84021501D01*
X206185842Y-83891575D01*
X206142217Y-83836998D01*
X206135023Y-83767500D01*
X206166546Y-83705145D01*
X206185842Y-83688425D01*
X206208026Y-83672891D01*
X206371401Y-83558495D01*
X206538495Y-83391401D01*
X206674035Y-83197830D01*
X206773903Y-82983663D01*
X206835063Y-82755408D01*
X206855659Y-82520000D01*
X206835063Y-82284592D01*
X206773903Y-82056337D01*
X206674035Y-81842171D01*
X206639256Y-81792500D01*
X206538494Y-81648597D01*
X206371402Y-81481506D01*
X206371396Y-81481501D01*
X206185842Y-81351575D01*
X206142217Y-81296998D01*
X206135023Y-81227500D01*
X206166546Y-81165145D01*
X206185842Y-81148425D01*
X206208026Y-81132891D01*
X206371401Y-81018495D01*
X206538495Y-80851401D01*
X206674035Y-80657830D01*
X206773903Y-80443663D01*
X206835063Y-80215408D01*
X206855659Y-79980000D01*
X206835063Y-79744592D01*
X206773903Y-79516337D01*
X206674035Y-79302171D01*
X206639854Y-79253354D01*
X206538494Y-79108597D01*
X206371402Y-78941506D01*
X206371395Y-78941501D01*
X206177834Y-78805967D01*
X206177830Y-78805965D01*
X206177828Y-78805964D01*
X205963663Y-78706097D01*
X205963659Y-78706096D01*
X205963655Y-78706094D01*
X205735413Y-78644938D01*
X205735403Y-78644936D01*
X205500001Y-78624341D01*
X205499999Y-78624341D01*
X205264596Y-78644936D01*
X205264586Y-78644938D01*
X205036344Y-78706094D01*
X205036335Y-78706098D01*
X204822171Y-78805964D01*
X204822169Y-78805965D01*
X204628597Y-78941505D01*
X204461505Y-79108597D01*
X204325965Y-79302169D01*
X204325964Y-79302171D01*
X204226098Y-79516335D01*
X204226094Y-79516344D01*
X204164938Y-79744586D01*
X204164936Y-79744596D01*
X204144341Y-79979999D01*
X204144341Y-79980000D01*
X204164936Y-80215403D01*
X204164938Y-80215413D01*
X204226094Y-80443655D01*
X204226096Y-80443659D01*
X204226097Y-80443663D01*
X204301715Y-80605826D01*
X204325965Y-80657830D01*
X204325967Y-80657834D01*
X204461501Y-80851395D01*
X204461506Y-80851402D01*
X204628597Y-81018493D01*
X204628603Y-81018498D01*
X204814158Y-81148425D01*
X204857783Y-81203002D01*
X204864977Y-81272500D01*
X204833454Y-81334855D01*
X204814158Y-81351575D01*
X204628597Y-81481505D01*
X204461505Y-81648597D01*
X204325965Y-81842169D01*
X204325964Y-81842171D01*
X204226098Y-82056335D01*
X204226094Y-82056344D01*
X204164938Y-82284586D01*
X204164936Y-82284596D01*
X204144341Y-82519999D01*
X204144341Y-82520000D01*
X204164936Y-82755403D01*
X204164938Y-82755413D01*
X204226094Y-82983655D01*
X204226096Y-82983659D01*
X204226097Y-82983663D01*
X204271020Y-83080000D01*
X204325965Y-83197830D01*
X204325967Y-83197834D01*
X204461501Y-83391395D01*
X204461506Y-83391402D01*
X204628597Y-83558493D01*
X204628603Y-83558498D01*
X204814158Y-83688425D01*
X204857783Y-83743002D01*
X204864977Y-83812500D01*
X204833454Y-83874855D01*
X204814158Y-83891575D01*
X204628597Y-84021505D01*
X204461505Y-84188597D01*
X204325965Y-84382169D01*
X204325964Y-84382171D01*
X204226098Y-84596335D01*
X204226094Y-84596344D01*
X204164938Y-84824586D01*
X204164936Y-84824596D01*
X204144341Y-85059999D01*
X204144341Y-85060000D01*
X204164936Y-85295403D01*
X204164938Y-85295413D01*
X204226094Y-85523655D01*
X204226096Y-85523659D01*
X204226097Y-85523663D01*
X204271020Y-85620000D01*
X204325965Y-85737830D01*
X204325967Y-85737834D01*
X204461501Y-85931395D01*
X204461506Y-85931402D01*
X204628597Y-86098493D01*
X204628603Y-86098498D01*
X204814158Y-86228425D01*
X204857783Y-86283002D01*
X204864977Y-86352500D01*
X204833454Y-86414855D01*
X204814158Y-86431575D01*
X204628597Y-86561505D01*
X204461505Y-86728597D01*
X204325965Y-86922169D01*
X204325964Y-86922171D01*
X204226098Y-87136335D01*
X204226094Y-87136344D01*
X204164938Y-87364586D01*
X204164936Y-87364596D01*
X204144341Y-87599999D01*
X204144341Y-87600000D01*
X204164936Y-87835403D01*
X204164938Y-87835413D01*
X204226094Y-88063655D01*
X204226096Y-88063659D01*
X204226097Y-88063663D01*
X204256945Y-88129816D01*
X204325965Y-88277830D01*
X204325967Y-88277834D01*
X204461501Y-88471395D01*
X204461506Y-88471402D01*
X204628597Y-88638493D01*
X204628603Y-88638498D01*
X204814158Y-88768425D01*
X204857783Y-88823002D01*
X204864977Y-88892500D01*
X204833454Y-88954855D01*
X204814158Y-88971575D01*
X204628597Y-89101505D01*
X204461505Y-89268597D01*
X204325965Y-89462169D01*
X204325964Y-89462171D01*
X204226098Y-89676335D01*
X204226094Y-89676344D01*
X204164938Y-89904586D01*
X204164936Y-89904596D01*
X204144341Y-90139999D01*
X204144341Y-90140000D01*
X204164936Y-90375403D01*
X204164938Y-90375413D01*
X204226094Y-90603655D01*
X204226096Y-90603659D01*
X204226097Y-90603663D01*
X204325965Y-90817830D01*
X204325967Y-90817834D01*
X204461501Y-91011395D01*
X204461506Y-91011402D01*
X204628597Y-91178493D01*
X204628603Y-91178498D01*
X204814158Y-91308425D01*
X204857783Y-91363002D01*
X204864977Y-91432500D01*
X204833454Y-91494855D01*
X204814158Y-91511575D01*
X204628597Y-91641505D01*
X204461505Y-91808597D01*
X204325965Y-92002169D01*
X204325964Y-92002171D01*
X204226098Y-92216335D01*
X204226094Y-92216344D01*
X204164938Y-92444586D01*
X204164936Y-92444596D01*
X204144341Y-92679999D01*
X204144341Y-92680000D01*
X204164936Y-92915403D01*
X204164938Y-92915413D01*
X204226094Y-93143655D01*
X204226096Y-93143659D01*
X204226097Y-93143663D01*
X204325965Y-93357830D01*
X204325967Y-93357834D01*
X204461501Y-93551395D01*
X204461506Y-93551402D01*
X204628597Y-93718493D01*
X204628603Y-93718498D01*
X204814158Y-93848425D01*
X204857783Y-93903002D01*
X204864977Y-93972500D01*
X204833454Y-94034855D01*
X204814158Y-94051575D01*
X204628597Y-94181505D01*
X204461505Y-94348597D01*
X204325965Y-94542169D01*
X204325964Y-94542171D01*
X204226098Y-94756335D01*
X204226094Y-94756344D01*
X204164938Y-94984586D01*
X204164936Y-94984596D01*
X204144341Y-95219999D01*
X204144341Y-95220000D01*
X204164936Y-95455403D01*
X204164938Y-95455413D01*
X204226094Y-95683655D01*
X204226096Y-95683659D01*
X204226097Y-95683663D01*
X204325965Y-95897830D01*
X204325967Y-95897834D01*
X204461501Y-96091395D01*
X204461506Y-96091402D01*
X204628597Y-96258493D01*
X204628603Y-96258498D01*
X204814158Y-96388425D01*
X204857783Y-96443002D01*
X204864977Y-96512500D01*
X204833454Y-96574855D01*
X204814158Y-96591575D01*
X204628597Y-96721505D01*
X204461505Y-96888597D01*
X204325965Y-97082169D01*
X204325964Y-97082171D01*
X204226098Y-97296335D01*
X204226094Y-97296344D01*
X204164938Y-97524586D01*
X204164936Y-97524596D01*
X204144341Y-97759999D01*
X204144341Y-97760000D01*
X204164936Y-97995403D01*
X204164938Y-97995413D01*
X204226094Y-98223655D01*
X204226096Y-98223659D01*
X204226097Y-98223663D01*
X204325965Y-98437830D01*
X204325967Y-98437834D01*
X204461501Y-98631395D01*
X204461506Y-98631402D01*
X204628597Y-98798493D01*
X204628603Y-98798498D01*
X204814158Y-98928425D01*
X204857783Y-98983002D01*
X204864977Y-99052500D01*
X204833454Y-99114855D01*
X204814158Y-99131575D01*
X204628597Y-99261505D01*
X204461505Y-99428597D01*
X204325965Y-99622169D01*
X204325964Y-99622171D01*
X204226098Y-99836335D01*
X204226094Y-99836344D01*
X204164938Y-100064586D01*
X204164936Y-100064596D01*
X204144341Y-100299999D01*
X204144341Y-100300000D01*
X204164936Y-100535403D01*
X204164938Y-100535413D01*
X204226094Y-100763655D01*
X204226096Y-100763659D01*
X204226097Y-100763663D01*
X204325965Y-100977830D01*
X204325967Y-100977834D01*
X204461501Y-101171395D01*
X204461506Y-101171402D01*
X204628597Y-101338493D01*
X204628603Y-101338498D01*
X204814158Y-101468425D01*
X204857783Y-101523002D01*
X204864977Y-101592500D01*
X204833454Y-101654855D01*
X204814158Y-101671575D01*
X204628597Y-101801505D01*
X204461505Y-101968597D01*
X204325965Y-102162169D01*
X204325964Y-102162171D01*
X204226098Y-102376335D01*
X204226094Y-102376344D01*
X204164938Y-102604586D01*
X204164936Y-102604596D01*
X204144341Y-102839999D01*
X204144341Y-102840000D01*
X204164936Y-103075403D01*
X204164938Y-103075413D01*
X204226094Y-103303655D01*
X204226096Y-103303659D01*
X204226097Y-103303663D01*
X204325965Y-103517830D01*
X204325967Y-103517834D01*
X204461501Y-103711395D01*
X204461506Y-103711402D01*
X204628597Y-103878493D01*
X204628603Y-103878498D01*
X204814158Y-104008425D01*
X204857783Y-104063002D01*
X204864977Y-104132500D01*
X204833454Y-104194855D01*
X204814158Y-104211575D01*
X204628597Y-104341505D01*
X204461505Y-104508597D01*
X204325965Y-104702169D01*
X204325964Y-104702171D01*
X204226098Y-104916335D01*
X204226094Y-104916344D01*
X204164938Y-105144586D01*
X204164936Y-105144596D01*
X204144341Y-105379999D01*
X204144341Y-105380000D01*
X204164936Y-105615403D01*
X204164938Y-105615413D01*
X204226094Y-105843655D01*
X204226096Y-105843659D01*
X204226097Y-105843663D01*
X204325965Y-106057830D01*
X204325967Y-106057834D01*
X204461501Y-106251395D01*
X204461506Y-106251402D01*
X204628597Y-106418493D01*
X204628603Y-106418498D01*
X204814158Y-106548425D01*
X204857783Y-106603002D01*
X204864977Y-106672500D01*
X204833454Y-106734855D01*
X204814158Y-106751575D01*
X204628597Y-106881505D01*
X204461505Y-107048597D01*
X204325965Y-107242169D01*
X204325964Y-107242171D01*
X204226098Y-107456335D01*
X204226094Y-107456344D01*
X204164938Y-107684586D01*
X204164936Y-107684596D01*
X204144341Y-107919999D01*
X204144341Y-107920000D01*
X204164936Y-108155403D01*
X204164938Y-108155413D01*
X204226094Y-108383655D01*
X204226096Y-108383659D01*
X204226097Y-108383663D01*
X204325965Y-108597830D01*
X204325967Y-108597834D01*
X204461501Y-108791395D01*
X204461506Y-108791402D01*
X204628597Y-108958493D01*
X204628603Y-108958498D01*
X204814158Y-109088425D01*
X204857783Y-109143002D01*
X204864977Y-109212500D01*
X204833454Y-109274855D01*
X204814158Y-109291575D01*
X204628597Y-109421505D01*
X204461505Y-109588597D01*
X204325965Y-109782169D01*
X204325964Y-109782171D01*
X204226098Y-109996335D01*
X204226094Y-109996344D01*
X204164938Y-110224586D01*
X204164936Y-110224596D01*
X204144341Y-110459999D01*
X204144341Y-110460000D01*
X204164936Y-110695403D01*
X204164938Y-110695413D01*
X204226094Y-110923655D01*
X204226096Y-110923659D01*
X204226097Y-110923663D01*
X204309337Y-111102172D01*
X204325965Y-111137830D01*
X204325967Y-111137834D01*
X204461501Y-111331395D01*
X204461506Y-111331402D01*
X204628597Y-111498493D01*
X204628603Y-111498498D01*
X204814158Y-111628425D01*
X204857783Y-111683002D01*
X204864977Y-111752500D01*
X204833454Y-111814855D01*
X204814158Y-111831575D01*
X204628597Y-111961505D01*
X204461505Y-112128597D01*
X204325965Y-112322169D01*
X204325964Y-112322171D01*
X204226098Y-112536335D01*
X204226094Y-112536344D01*
X204164938Y-112764586D01*
X204164936Y-112764596D01*
X204144341Y-112999999D01*
X204144341Y-113000000D01*
X204164936Y-113235403D01*
X204164938Y-113235413D01*
X204226094Y-113463655D01*
X204226096Y-113463659D01*
X204226097Y-113463663D01*
X204264624Y-113546284D01*
X204325965Y-113677830D01*
X204325967Y-113677834D01*
X204461501Y-113871395D01*
X204461506Y-113871402D01*
X204628597Y-114038493D01*
X204628603Y-114038498D01*
X204814158Y-114168425D01*
X204857783Y-114223002D01*
X204864977Y-114292500D01*
X204833454Y-114354855D01*
X204814158Y-114371575D01*
X204628597Y-114501505D01*
X204461505Y-114668597D01*
X204325965Y-114862169D01*
X204325964Y-114862171D01*
X204226098Y-115076335D01*
X204226094Y-115076344D01*
X204164938Y-115304586D01*
X204164936Y-115304596D01*
X204144341Y-115539999D01*
X204144341Y-115540000D01*
X204164936Y-115775403D01*
X204164938Y-115775413D01*
X204226094Y-116003655D01*
X204226096Y-116003659D01*
X204226097Y-116003663D01*
X204243744Y-116041506D01*
X204325965Y-116217830D01*
X204325967Y-116217834D01*
X204461501Y-116411395D01*
X204461506Y-116411402D01*
X204628597Y-116578493D01*
X204628603Y-116578498D01*
X204814158Y-116708425D01*
X204857783Y-116763002D01*
X204864977Y-116832500D01*
X204833454Y-116894855D01*
X204814158Y-116911575D01*
X204628597Y-117041505D01*
X204461505Y-117208597D01*
X204325965Y-117402169D01*
X204325964Y-117402171D01*
X204226098Y-117616335D01*
X204226094Y-117616344D01*
X204164938Y-117844586D01*
X204164936Y-117844596D01*
X204144341Y-118079999D01*
X204144341Y-118080000D01*
X204164936Y-118315403D01*
X204164938Y-118315413D01*
X204226094Y-118543655D01*
X204226096Y-118543659D01*
X204226097Y-118543663D01*
X204243744Y-118581506D01*
X204325965Y-118757830D01*
X204325967Y-118757834D01*
X204461501Y-118951395D01*
X204461506Y-118951402D01*
X204628597Y-119118493D01*
X204628603Y-119118498D01*
X204814158Y-119248425D01*
X204857783Y-119303002D01*
X204864977Y-119372500D01*
X204833454Y-119434855D01*
X204814158Y-119451575D01*
X204628597Y-119581505D01*
X204461505Y-119748597D01*
X204325965Y-119942169D01*
X204325964Y-119942171D01*
X204226098Y-120156335D01*
X204226094Y-120156344D01*
X204164938Y-120384586D01*
X204164936Y-120384596D01*
X204144341Y-120619999D01*
X204144341Y-120620000D01*
X204164936Y-120855403D01*
X204164938Y-120855413D01*
X204226094Y-121083655D01*
X204226096Y-121083659D01*
X204226097Y-121083663D01*
X204321660Y-121288597D01*
X204325965Y-121297830D01*
X204325967Y-121297834D01*
X204461501Y-121491395D01*
X204461506Y-121491402D01*
X204628597Y-121658493D01*
X204628603Y-121658498D01*
X204814158Y-121788425D01*
X204857783Y-121843002D01*
X204864977Y-121912500D01*
X204833454Y-121974855D01*
X204814158Y-121991575D01*
X204628597Y-122121505D01*
X204461505Y-122288597D01*
X204325965Y-122482169D01*
X204325964Y-122482171D01*
X204226098Y-122696335D01*
X204226094Y-122696344D01*
X204164938Y-122924586D01*
X204164936Y-122924596D01*
X204144341Y-123159999D01*
X204144341Y-123160000D01*
X204164936Y-123395403D01*
X204164938Y-123395413D01*
X204226094Y-123623655D01*
X204226096Y-123623659D01*
X204226097Y-123623663D01*
X204243744Y-123661506D01*
X204325965Y-123837830D01*
X204325967Y-123837834D01*
X204461501Y-124031395D01*
X204461506Y-124031402D01*
X204628597Y-124198493D01*
X204628603Y-124198498D01*
X204814158Y-124328425D01*
X204857783Y-124383002D01*
X204864977Y-124452500D01*
X204833454Y-124514855D01*
X204814158Y-124531575D01*
X204628597Y-124661505D01*
X204461505Y-124828597D01*
X204325965Y-125022169D01*
X204325964Y-125022171D01*
X204226098Y-125236335D01*
X204226094Y-125236344D01*
X204164938Y-125464586D01*
X204164936Y-125464596D01*
X204144341Y-125699999D01*
X204144341Y-125700000D01*
X204164936Y-125935403D01*
X204164938Y-125935413D01*
X204226094Y-126163655D01*
X204226096Y-126163659D01*
X204226097Y-126163663D01*
X204325965Y-126377830D01*
X204325967Y-126377834D01*
X204461501Y-126571395D01*
X204461506Y-126571402D01*
X204628597Y-126738493D01*
X204628603Y-126738498D01*
X204814158Y-126868425D01*
X204857783Y-126923002D01*
X204864977Y-126992500D01*
X204833454Y-127054855D01*
X204814158Y-127071575D01*
X204628597Y-127201505D01*
X204461505Y-127368597D01*
X204325965Y-127562169D01*
X204325964Y-127562171D01*
X204226098Y-127776335D01*
X204226094Y-127776344D01*
X204164938Y-128004586D01*
X204164936Y-128004596D01*
X204144341Y-128239999D01*
X204144341Y-128240000D01*
X204164936Y-128475403D01*
X204164938Y-128475413D01*
X204226094Y-128703655D01*
X204226096Y-128703659D01*
X204226097Y-128703663D01*
X204325965Y-128917830D01*
X204325967Y-128917834D01*
X204461501Y-129111395D01*
X204461506Y-129111402D01*
X204628597Y-129278493D01*
X204628603Y-129278498D01*
X204814158Y-129408425D01*
X204857783Y-129463002D01*
X204864977Y-129532500D01*
X204833454Y-129594855D01*
X204814158Y-129611575D01*
X204628597Y-129741505D01*
X204461505Y-129908597D01*
X204325965Y-130102169D01*
X204325964Y-130102171D01*
X204226098Y-130316335D01*
X204226094Y-130316344D01*
X204164938Y-130544586D01*
X204164936Y-130544596D01*
X204144341Y-130779999D01*
X204144341Y-130780000D01*
X204164936Y-131015403D01*
X204164938Y-131015413D01*
X204226094Y-131243655D01*
X204226096Y-131243659D01*
X204226097Y-131243663D01*
X204325965Y-131457830D01*
X204325967Y-131457834D01*
X204461501Y-131651395D01*
X204461506Y-131651402D01*
X204628597Y-131818493D01*
X204628603Y-131818498D01*
X204814158Y-131948425D01*
X204857783Y-132003002D01*
X204864977Y-132072500D01*
X204833454Y-132134855D01*
X204814158Y-132151575D01*
X204628597Y-132281505D01*
X204461505Y-132448597D01*
X204325965Y-132642169D01*
X204325964Y-132642171D01*
X204226098Y-132856335D01*
X204226094Y-132856344D01*
X204164938Y-133084586D01*
X204164936Y-133084596D01*
X204144341Y-133319999D01*
X204144341Y-133320000D01*
X204164936Y-133555403D01*
X204164938Y-133555413D01*
X204226094Y-133783655D01*
X204226096Y-133783659D01*
X204226097Y-133783663D01*
X204325965Y-133997830D01*
X204325967Y-133997834D01*
X204461501Y-134191395D01*
X204461506Y-134191402D01*
X204628597Y-134358493D01*
X204628603Y-134358498D01*
X204814158Y-134488425D01*
X204857783Y-134543002D01*
X204864977Y-134612500D01*
X204833454Y-134674855D01*
X204814158Y-134691575D01*
X204628597Y-134821505D01*
X204461505Y-134988597D01*
X204325965Y-135182169D01*
X204325964Y-135182171D01*
X204226098Y-135396335D01*
X204226094Y-135396344D01*
X204164938Y-135624586D01*
X204164936Y-135624596D01*
X204144341Y-135859999D01*
X204144341Y-135860000D01*
X203855659Y-135860000D01*
X203835063Y-135624592D01*
X203773903Y-135396337D01*
X203674035Y-135182171D01*
X203636749Y-135128920D01*
X203538494Y-134988597D01*
X203371402Y-134821506D01*
X203371396Y-134821501D01*
X203185842Y-134691575D01*
X203142217Y-134636998D01*
X203135023Y-134567500D01*
X203166546Y-134505145D01*
X203185842Y-134488425D01*
X203208026Y-134472891D01*
X203371401Y-134358495D01*
X203538495Y-134191401D01*
X203674035Y-133997830D01*
X203773903Y-133783663D01*
X203835063Y-133555408D01*
X203855659Y-133320000D01*
X203835063Y-133084592D01*
X203773903Y-132856337D01*
X203674035Y-132642171D01*
X203538495Y-132448599D01*
X203538494Y-132448597D01*
X203371402Y-132281506D01*
X203371396Y-132281501D01*
X203185842Y-132151575D01*
X203142217Y-132096998D01*
X203135023Y-132027500D01*
X203166546Y-131965145D01*
X203185842Y-131948425D01*
X203327088Y-131849523D01*
X203371401Y-131818495D01*
X203538495Y-131651401D01*
X203674035Y-131457830D01*
X203773903Y-131243663D01*
X203835063Y-131015408D01*
X203855659Y-130780000D01*
X203835063Y-130544592D01*
X203773903Y-130316337D01*
X203674035Y-130102171D01*
X203538495Y-129908599D01*
X203538494Y-129908597D01*
X203371402Y-129741506D01*
X203371396Y-129741501D01*
X203185842Y-129611575D01*
X203142217Y-129556998D01*
X203135023Y-129487500D01*
X203166546Y-129425145D01*
X203185842Y-129408425D01*
X203208026Y-129392891D01*
X203371401Y-129278495D01*
X203538495Y-129111401D01*
X203674035Y-128917830D01*
X203773903Y-128703663D01*
X203835063Y-128475408D01*
X203855659Y-128240000D01*
X203835063Y-128004592D01*
X203773903Y-127776337D01*
X203674035Y-127562171D01*
X203538495Y-127368599D01*
X203538494Y-127368597D01*
X203371402Y-127201506D01*
X203371396Y-127201501D01*
X203185842Y-127071575D01*
X203142217Y-127016998D01*
X203135023Y-126947500D01*
X203166546Y-126885145D01*
X203185842Y-126868425D01*
X203208026Y-126852891D01*
X203371401Y-126738495D01*
X203538495Y-126571401D01*
X203674035Y-126377830D01*
X203773903Y-126163663D01*
X203835063Y-125935408D01*
X203855659Y-125700000D01*
X203835063Y-125464592D01*
X203773903Y-125236337D01*
X203674035Y-125022171D01*
X203613284Y-124935408D01*
X203538494Y-124828597D01*
X203371402Y-124661506D01*
X203371396Y-124661501D01*
X203185842Y-124531575D01*
X203142217Y-124476998D01*
X203135023Y-124407500D01*
X203166546Y-124345145D01*
X203185842Y-124328425D01*
X203317357Y-124236337D01*
X203371401Y-124198495D01*
X203538495Y-124031401D01*
X203674035Y-123837830D01*
X203773903Y-123623663D01*
X203835063Y-123395408D01*
X203855659Y-123160000D01*
X203835063Y-122924592D01*
X203773903Y-122696337D01*
X203674035Y-122482171D01*
X203613284Y-122395408D01*
X203538494Y-122288597D01*
X203371402Y-122121506D01*
X203371396Y-122121501D01*
X203185842Y-121991575D01*
X203142217Y-121936998D01*
X203135023Y-121867500D01*
X203166546Y-121805145D01*
X203185842Y-121788425D01*
X203317357Y-121696337D01*
X203371401Y-121658495D01*
X203538495Y-121491401D01*
X203674035Y-121297830D01*
X203773903Y-121083663D01*
X203835063Y-120855408D01*
X203855659Y-120620000D01*
X203835063Y-120384592D01*
X203773903Y-120156337D01*
X203674035Y-119942171D01*
X203613284Y-119855408D01*
X203538494Y-119748597D01*
X203371402Y-119581506D01*
X203371396Y-119581501D01*
X203185842Y-119451575D01*
X203142217Y-119396998D01*
X203135023Y-119327500D01*
X203166546Y-119265145D01*
X203185842Y-119248425D01*
X203208026Y-119232891D01*
X203371401Y-119118495D01*
X203538495Y-118951401D01*
X203674035Y-118757830D01*
X203773903Y-118543663D01*
X203835063Y-118315408D01*
X203855659Y-118080000D01*
X203835063Y-117844592D01*
X203773903Y-117616337D01*
X203674035Y-117402171D01*
X203613284Y-117315408D01*
X203538494Y-117208597D01*
X203371402Y-117041506D01*
X203371396Y-117041501D01*
X203185842Y-116911575D01*
X203142217Y-116856998D01*
X203135023Y-116787500D01*
X203166546Y-116725145D01*
X203185842Y-116708425D01*
X203208026Y-116692891D01*
X203371401Y-116578495D01*
X203538495Y-116411401D01*
X203674035Y-116217830D01*
X203773903Y-116003663D01*
X203835063Y-115775408D01*
X203855659Y-115540000D01*
X203835063Y-115304592D01*
X203773903Y-115076337D01*
X203674035Y-114862171D01*
X203613284Y-114775408D01*
X203538494Y-114668597D01*
X203371402Y-114501506D01*
X203371396Y-114501501D01*
X203185842Y-114371575D01*
X203142217Y-114316998D01*
X203135023Y-114247500D01*
X203166546Y-114185145D01*
X203185842Y-114168425D01*
X203208026Y-114152891D01*
X203371401Y-114038495D01*
X203538495Y-113871401D01*
X203674035Y-113677830D01*
X203773903Y-113463663D01*
X203835063Y-113235408D01*
X203855659Y-113000000D01*
X203835063Y-112764592D01*
X203773903Y-112536337D01*
X203674035Y-112322171D01*
X203538495Y-112128599D01*
X203538494Y-112128597D01*
X203371402Y-111961506D01*
X203371396Y-111961501D01*
X203185842Y-111831575D01*
X203142217Y-111776998D01*
X203135023Y-111707500D01*
X203166546Y-111645145D01*
X203185842Y-111628425D01*
X203226578Y-111599901D01*
X203371401Y-111498495D01*
X203538495Y-111331401D01*
X203674035Y-111137830D01*
X203773903Y-110923663D01*
X203835063Y-110695408D01*
X203855659Y-110460000D01*
X203835063Y-110224592D01*
X203773903Y-109996337D01*
X203674035Y-109782171D01*
X203538495Y-109588599D01*
X203538494Y-109588597D01*
X203371402Y-109421506D01*
X203371396Y-109421501D01*
X203185842Y-109291575D01*
X203142217Y-109236998D01*
X203135023Y-109167500D01*
X203166546Y-109105145D01*
X203185842Y-109088425D01*
X203208026Y-109072891D01*
X203371401Y-108958495D01*
X203538495Y-108791401D01*
X203674035Y-108597830D01*
X203773903Y-108383663D01*
X203835063Y-108155408D01*
X203855659Y-107920000D01*
X203835063Y-107684592D01*
X203773903Y-107456337D01*
X203674035Y-107242171D01*
X203538495Y-107048599D01*
X203538494Y-107048597D01*
X203371402Y-106881506D01*
X203371396Y-106881501D01*
X203185842Y-106751575D01*
X203142217Y-106696998D01*
X203135023Y-106627500D01*
X203166546Y-106565145D01*
X203185842Y-106548425D01*
X203208026Y-106532891D01*
X203371401Y-106418495D01*
X203538495Y-106251401D01*
X203674035Y-106057830D01*
X203773903Y-105843663D01*
X203835063Y-105615408D01*
X203855659Y-105380000D01*
X203835063Y-105144592D01*
X203773903Y-104916337D01*
X203674035Y-104702171D01*
X203538495Y-104508599D01*
X203538494Y-104508597D01*
X203371402Y-104341506D01*
X203371396Y-104341501D01*
X203185842Y-104211575D01*
X203142217Y-104156998D01*
X203135023Y-104087500D01*
X203166546Y-104025145D01*
X203185842Y-104008425D01*
X203208026Y-103992891D01*
X203371401Y-103878495D01*
X203538495Y-103711401D01*
X203674035Y-103517830D01*
X203773903Y-103303663D01*
X203835063Y-103075408D01*
X203855659Y-102840000D01*
X203835063Y-102604592D01*
X203773903Y-102376337D01*
X203674035Y-102162171D01*
X203538495Y-101968599D01*
X203538494Y-101968597D01*
X203371402Y-101801506D01*
X203371396Y-101801501D01*
X203185842Y-101671575D01*
X203142217Y-101616998D01*
X203135023Y-101547500D01*
X203166546Y-101485145D01*
X203185842Y-101468425D01*
X203208026Y-101452891D01*
X203371401Y-101338495D01*
X203538495Y-101171401D01*
X203674035Y-100977830D01*
X203773903Y-100763663D01*
X203835063Y-100535408D01*
X203855659Y-100300000D01*
X203835063Y-100064592D01*
X203773903Y-99836337D01*
X203674035Y-99622171D01*
X203538495Y-99428599D01*
X203538494Y-99428597D01*
X203371402Y-99261506D01*
X203371396Y-99261501D01*
X203185842Y-99131575D01*
X203142217Y-99076998D01*
X203135023Y-99007500D01*
X203166546Y-98945145D01*
X203185842Y-98928425D01*
X203208026Y-98912891D01*
X203371401Y-98798495D01*
X203538495Y-98631401D01*
X203674035Y-98437830D01*
X203773903Y-98223663D01*
X203835063Y-97995408D01*
X203855659Y-97760000D01*
X203835063Y-97524592D01*
X203773903Y-97296337D01*
X203674035Y-97082171D01*
X203538495Y-96888599D01*
X203538494Y-96888597D01*
X203371402Y-96721506D01*
X203371396Y-96721501D01*
X203185842Y-96591575D01*
X203142217Y-96536998D01*
X203135023Y-96467500D01*
X203166546Y-96405145D01*
X203185842Y-96388425D01*
X203208026Y-96372891D01*
X203371401Y-96258495D01*
X203538495Y-96091401D01*
X203674035Y-95897830D01*
X203773903Y-95683663D01*
X203835063Y-95455408D01*
X203855659Y-95220000D01*
X203835063Y-94984592D01*
X203773903Y-94756337D01*
X203674035Y-94542171D01*
X203538495Y-94348599D01*
X203538494Y-94348597D01*
X203371402Y-94181506D01*
X203371396Y-94181501D01*
X203185842Y-94051575D01*
X203142217Y-93996998D01*
X203135023Y-93927500D01*
X203166546Y-93865145D01*
X203185842Y-93848425D01*
X203208026Y-93832891D01*
X203371401Y-93718495D01*
X203538495Y-93551401D01*
X203674035Y-93357830D01*
X203773903Y-93143663D01*
X203835063Y-92915408D01*
X203855659Y-92680000D01*
X203835063Y-92444592D01*
X203773903Y-92216337D01*
X203674035Y-92002171D01*
X203538495Y-91808599D01*
X203538494Y-91808597D01*
X203371402Y-91641506D01*
X203371396Y-91641501D01*
X203185842Y-91511575D01*
X203142217Y-91456998D01*
X203135023Y-91387500D01*
X203166546Y-91325145D01*
X203185842Y-91308425D01*
X203208026Y-91292891D01*
X203371401Y-91178495D01*
X203538495Y-91011401D01*
X203674035Y-90817830D01*
X203773903Y-90603663D01*
X203835063Y-90375408D01*
X203855659Y-90140000D01*
X203835063Y-89904592D01*
X203773903Y-89676337D01*
X203674035Y-89462171D01*
X203538495Y-89268599D01*
X203538494Y-89268597D01*
X203371402Y-89101506D01*
X203371396Y-89101501D01*
X203185842Y-88971575D01*
X203142217Y-88916998D01*
X203135023Y-88847500D01*
X203166546Y-88785145D01*
X203185842Y-88768425D01*
X203208026Y-88752891D01*
X203371401Y-88638495D01*
X203538495Y-88471401D01*
X203674035Y-88277830D01*
X203773903Y-88063663D01*
X203835063Y-87835408D01*
X203855659Y-87600000D01*
X203835063Y-87364592D01*
X203777692Y-87150478D01*
X203773905Y-87136344D01*
X203773904Y-87136343D01*
X203773903Y-87136337D01*
X203674035Y-86922171D01*
X203654241Y-86893901D01*
X203538494Y-86728597D01*
X203371402Y-86561506D01*
X203371396Y-86561501D01*
X203185842Y-86431575D01*
X203142217Y-86376998D01*
X203135023Y-86307500D01*
X203166546Y-86245145D01*
X203185842Y-86228425D01*
X203208026Y-86212891D01*
X203371401Y-86098495D01*
X203538495Y-85931401D01*
X203674035Y-85737830D01*
X203773903Y-85523663D01*
X203835063Y-85295408D01*
X203855659Y-85060000D01*
X203835063Y-84824592D01*
X203773903Y-84596337D01*
X203674035Y-84382171D01*
X203667264Y-84372500D01*
X203538494Y-84188597D01*
X203371402Y-84021506D01*
X203371396Y-84021501D01*
X203185842Y-83891575D01*
X203142217Y-83836998D01*
X203135023Y-83767500D01*
X203166546Y-83705145D01*
X203185842Y-83688425D01*
X203208026Y-83672891D01*
X203371401Y-83558495D01*
X203538495Y-83391401D01*
X203674035Y-83197830D01*
X203773903Y-82983663D01*
X203835063Y-82755408D01*
X203855659Y-82520000D01*
X203835063Y-82284592D01*
X203773903Y-82056337D01*
X203674035Y-81842171D01*
X203639256Y-81792500D01*
X203538494Y-81648597D01*
X203371402Y-81481506D01*
X203371396Y-81481501D01*
X203185842Y-81351575D01*
X203142217Y-81296998D01*
X203135023Y-81227500D01*
X203166546Y-81165145D01*
X203185842Y-81148425D01*
X203208026Y-81132891D01*
X203371401Y-81018495D01*
X203538495Y-80851401D01*
X203674035Y-80657830D01*
X203773903Y-80443663D01*
X203835063Y-80215408D01*
X203855659Y-79980000D01*
X203835063Y-79744592D01*
X203773903Y-79516337D01*
X203674035Y-79302171D01*
X203639854Y-79253354D01*
X203538494Y-79108597D01*
X203371402Y-78941506D01*
X203371395Y-78941501D01*
X203177834Y-78805967D01*
X203177830Y-78805965D01*
X203177828Y-78805964D01*
X202963663Y-78706097D01*
X202963659Y-78706096D01*
X202963655Y-78706094D01*
X202735413Y-78644938D01*
X202735403Y-78644936D01*
X202500001Y-78624341D01*
X202499999Y-78624341D01*
X202264596Y-78644936D01*
X202264586Y-78644938D01*
X202036344Y-78706094D01*
X202036335Y-78706098D01*
X201822171Y-78805964D01*
X201822169Y-78805965D01*
X201628597Y-78941505D01*
X201461505Y-79108597D01*
X201325965Y-79302169D01*
X201325964Y-79302171D01*
X201226098Y-79516335D01*
X201226094Y-79516344D01*
X201164938Y-79744586D01*
X201164936Y-79744596D01*
X201144341Y-79979999D01*
X201144341Y-79980000D01*
X201164936Y-80215403D01*
X201164938Y-80215413D01*
X201226094Y-80443655D01*
X201226096Y-80443659D01*
X201226097Y-80443663D01*
X201301715Y-80605826D01*
X201325965Y-80657830D01*
X201325967Y-80657834D01*
X201461501Y-80851395D01*
X201461506Y-80851402D01*
X201628597Y-81018493D01*
X201628603Y-81018498D01*
X201814158Y-81148425D01*
X201857783Y-81203002D01*
X201864977Y-81272500D01*
X201833454Y-81334855D01*
X201814158Y-81351575D01*
X201628597Y-81481505D01*
X201461505Y-81648597D01*
X201325965Y-81842169D01*
X201325964Y-81842171D01*
X201226098Y-82056335D01*
X201226094Y-82056344D01*
X201164938Y-82284586D01*
X201164936Y-82284596D01*
X201144341Y-82519999D01*
X201144341Y-82520000D01*
X201164936Y-82755403D01*
X201164938Y-82755413D01*
X201226094Y-82983655D01*
X201226096Y-82983659D01*
X201226097Y-82983663D01*
X201271020Y-83080000D01*
X201325965Y-83197830D01*
X201325967Y-83197834D01*
X201461501Y-83391395D01*
X201461506Y-83391402D01*
X201628597Y-83558493D01*
X201628603Y-83558498D01*
X201814158Y-83688425D01*
X201857783Y-83743002D01*
X201864977Y-83812500D01*
X201833454Y-83874855D01*
X201814158Y-83891575D01*
X201628597Y-84021505D01*
X201461505Y-84188597D01*
X201325965Y-84382169D01*
X201325964Y-84382171D01*
X201226098Y-84596335D01*
X201226094Y-84596344D01*
X201164938Y-84824586D01*
X201164936Y-84824596D01*
X201144341Y-85059999D01*
X201144341Y-85060000D01*
X201164936Y-85295403D01*
X201164938Y-85295413D01*
X201226094Y-85523655D01*
X201226096Y-85523659D01*
X201226097Y-85523663D01*
X201271020Y-85620000D01*
X201325965Y-85737830D01*
X201325967Y-85737834D01*
X201461501Y-85931395D01*
X201461506Y-85931402D01*
X201628597Y-86098493D01*
X201628603Y-86098498D01*
X201814158Y-86228425D01*
X201857783Y-86283002D01*
X201864977Y-86352500D01*
X201833454Y-86414855D01*
X201814158Y-86431575D01*
X201628597Y-86561505D01*
X201461505Y-86728597D01*
X201325965Y-86922169D01*
X201325964Y-86922171D01*
X201226098Y-87136335D01*
X201226094Y-87136344D01*
X201164938Y-87364586D01*
X201164936Y-87364596D01*
X201144341Y-87599999D01*
X201144341Y-87600000D01*
X201164936Y-87835403D01*
X201164938Y-87835413D01*
X201226094Y-88063655D01*
X201226096Y-88063659D01*
X201226097Y-88063663D01*
X201256945Y-88129816D01*
X201325965Y-88277830D01*
X201325967Y-88277834D01*
X201461501Y-88471395D01*
X201461506Y-88471402D01*
X201628597Y-88638493D01*
X201628603Y-88638498D01*
X201814158Y-88768425D01*
X201857783Y-88823002D01*
X201864977Y-88892500D01*
X201833454Y-88954855D01*
X201814158Y-88971575D01*
X201628597Y-89101505D01*
X201461505Y-89268597D01*
X201325965Y-89462169D01*
X201325964Y-89462171D01*
X201226098Y-89676335D01*
X201226094Y-89676344D01*
X201164938Y-89904586D01*
X201164936Y-89904596D01*
X201144341Y-90139999D01*
X201144341Y-90140000D01*
X201164936Y-90375403D01*
X201164938Y-90375413D01*
X201226094Y-90603655D01*
X201226096Y-90603659D01*
X201226097Y-90603663D01*
X201325965Y-90817830D01*
X201325967Y-90817834D01*
X201461501Y-91011395D01*
X201461506Y-91011402D01*
X201628597Y-91178493D01*
X201628603Y-91178498D01*
X201814158Y-91308425D01*
X201857783Y-91363002D01*
X201864977Y-91432500D01*
X201833454Y-91494855D01*
X201814158Y-91511575D01*
X201628597Y-91641505D01*
X201461505Y-91808597D01*
X201325965Y-92002169D01*
X201325964Y-92002171D01*
X201226098Y-92216335D01*
X201226094Y-92216344D01*
X201164938Y-92444586D01*
X201164936Y-92444596D01*
X201144341Y-92679999D01*
X201144341Y-92680000D01*
X201164936Y-92915403D01*
X201164938Y-92915413D01*
X201226094Y-93143655D01*
X201226096Y-93143659D01*
X201226097Y-93143663D01*
X201325965Y-93357830D01*
X201325967Y-93357834D01*
X201461501Y-93551395D01*
X201461506Y-93551402D01*
X201628597Y-93718493D01*
X201628603Y-93718498D01*
X201814158Y-93848425D01*
X201857783Y-93903002D01*
X201864977Y-93972500D01*
X201833454Y-94034855D01*
X201814158Y-94051575D01*
X201628597Y-94181505D01*
X201461505Y-94348597D01*
X201325965Y-94542169D01*
X201325964Y-94542171D01*
X201226098Y-94756335D01*
X201226094Y-94756344D01*
X201164938Y-94984586D01*
X201164936Y-94984596D01*
X201144341Y-95219999D01*
X201144341Y-95220000D01*
X201164936Y-95455403D01*
X201164938Y-95455413D01*
X201226094Y-95683655D01*
X201226096Y-95683659D01*
X201226097Y-95683663D01*
X201325965Y-95897830D01*
X201325967Y-95897834D01*
X201461501Y-96091395D01*
X201461506Y-96091402D01*
X201628597Y-96258493D01*
X201628603Y-96258498D01*
X201814158Y-96388425D01*
X201857783Y-96443002D01*
X201864977Y-96512500D01*
X201833454Y-96574855D01*
X201814158Y-96591575D01*
X201628597Y-96721505D01*
X201461505Y-96888597D01*
X201325965Y-97082169D01*
X201325964Y-97082171D01*
X201226098Y-97296335D01*
X201226094Y-97296344D01*
X201164938Y-97524586D01*
X201164936Y-97524596D01*
X201144341Y-97759999D01*
X201144341Y-97760000D01*
X201164936Y-97995403D01*
X201164938Y-97995413D01*
X201226094Y-98223655D01*
X201226096Y-98223659D01*
X201226097Y-98223663D01*
X201325965Y-98437830D01*
X201325967Y-98437834D01*
X201461501Y-98631395D01*
X201461506Y-98631402D01*
X201628597Y-98798493D01*
X201628603Y-98798498D01*
X201814158Y-98928425D01*
X201857783Y-98983002D01*
X201864977Y-99052500D01*
X201833454Y-99114855D01*
X201814158Y-99131575D01*
X201628597Y-99261505D01*
X201461505Y-99428597D01*
X201325965Y-99622169D01*
X201325964Y-99622171D01*
X201226098Y-99836335D01*
X201226094Y-99836344D01*
X201164938Y-100064586D01*
X201164936Y-100064596D01*
X201144341Y-100299999D01*
X201144341Y-100300000D01*
X201164936Y-100535403D01*
X201164938Y-100535413D01*
X201226094Y-100763655D01*
X201226096Y-100763659D01*
X201226097Y-100763663D01*
X201325965Y-100977830D01*
X201325967Y-100977834D01*
X201461501Y-101171395D01*
X201461506Y-101171402D01*
X201628597Y-101338493D01*
X201628603Y-101338498D01*
X201814158Y-101468425D01*
X201857783Y-101523002D01*
X201864977Y-101592500D01*
X201833454Y-101654855D01*
X201814158Y-101671575D01*
X201628597Y-101801505D01*
X201461505Y-101968597D01*
X201325965Y-102162169D01*
X201325964Y-102162171D01*
X201226098Y-102376335D01*
X201226094Y-102376344D01*
X201164938Y-102604586D01*
X201164936Y-102604596D01*
X201144341Y-102839999D01*
X201144341Y-102840000D01*
X201164936Y-103075403D01*
X201164938Y-103075413D01*
X201226094Y-103303655D01*
X201226096Y-103303659D01*
X201226097Y-103303663D01*
X201325965Y-103517830D01*
X201325967Y-103517834D01*
X201461501Y-103711395D01*
X201461506Y-103711402D01*
X201628597Y-103878493D01*
X201628603Y-103878498D01*
X201814158Y-104008425D01*
X201857783Y-104063002D01*
X201864977Y-104132500D01*
X201833454Y-104194855D01*
X201814158Y-104211575D01*
X201628597Y-104341505D01*
X201461505Y-104508597D01*
X201325965Y-104702169D01*
X201325964Y-104702171D01*
X201226098Y-104916335D01*
X201226094Y-104916344D01*
X201164938Y-105144586D01*
X201164936Y-105144596D01*
X201144341Y-105379999D01*
X201144341Y-105380000D01*
X201164936Y-105615403D01*
X201164938Y-105615413D01*
X201226094Y-105843655D01*
X201226096Y-105843659D01*
X201226097Y-105843663D01*
X201325965Y-106057830D01*
X201325967Y-106057834D01*
X201461501Y-106251395D01*
X201461506Y-106251402D01*
X201628597Y-106418493D01*
X201628603Y-106418498D01*
X201814158Y-106548425D01*
X201857783Y-106603002D01*
X201864977Y-106672500D01*
X201833454Y-106734855D01*
X201814158Y-106751575D01*
X201628597Y-106881505D01*
X201461505Y-107048597D01*
X201325965Y-107242169D01*
X201325964Y-107242171D01*
X201226098Y-107456335D01*
X201226094Y-107456344D01*
X201164938Y-107684586D01*
X201164936Y-107684596D01*
X201144341Y-107919999D01*
X201144341Y-107920000D01*
X201164936Y-108155403D01*
X201164938Y-108155413D01*
X201226094Y-108383655D01*
X201226096Y-108383659D01*
X201226097Y-108383663D01*
X201325965Y-108597830D01*
X201325967Y-108597834D01*
X201461501Y-108791395D01*
X201461506Y-108791402D01*
X201628597Y-108958493D01*
X201628603Y-108958498D01*
X201814158Y-109088425D01*
X201857783Y-109143002D01*
X201864977Y-109212500D01*
X201833454Y-109274855D01*
X201814158Y-109291575D01*
X201628597Y-109421505D01*
X201461505Y-109588597D01*
X201325965Y-109782169D01*
X201325964Y-109782171D01*
X201226098Y-109996335D01*
X201226094Y-109996344D01*
X201164938Y-110224586D01*
X201164936Y-110224596D01*
X201144341Y-110459999D01*
X201144341Y-110460000D01*
X201164936Y-110695403D01*
X201164938Y-110695413D01*
X201226094Y-110923655D01*
X201226096Y-110923659D01*
X201226097Y-110923663D01*
X201309337Y-111102172D01*
X201325965Y-111137830D01*
X201325967Y-111137834D01*
X201461501Y-111331395D01*
X201461506Y-111331402D01*
X201628597Y-111498493D01*
X201628603Y-111498498D01*
X201814158Y-111628425D01*
X201857783Y-111683002D01*
X201864977Y-111752500D01*
X201833454Y-111814855D01*
X201814158Y-111831575D01*
X201628597Y-111961505D01*
X201461505Y-112128597D01*
X201325965Y-112322169D01*
X201325964Y-112322171D01*
X201226098Y-112536335D01*
X201226094Y-112536344D01*
X201164938Y-112764586D01*
X201164936Y-112764596D01*
X201144341Y-112999999D01*
X201144341Y-113000000D01*
X201164936Y-113235403D01*
X201164938Y-113235413D01*
X201226094Y-113463655D01*
X201226096Y-113463659D01*
X201226097Y-113463663D01*
X201264624Y-113546284D01*
X201325965Y-113677830D01*
X201325967Y-113677834D01*
X201461501Y-113871395D01*
X201461506Y-113871402D01*
X201628597Y-114038493D01*
X201628603Y-114038498D01*
X201814158Y-114168425D01*
X201857783Y-114223002D01*
X201864977Y-114292500D01*
X201833454Y-114354855D01*
X201814158Y-114371575D01*
X201628597Y-114501505D01*
X201461505Y-114668597D01*
X201325965Y-114862169D01*
X201325964Y-114862171D01*
X201226098Y-115076335D01*
X201226094Y-115076344D01*
X201164938Y-115304586D01*
X201164936Y-115304596D01*
X201144341Y-115539999D01*
X201144341Y-115540000D01*
X201164936Y-115775403D01*
X201164938Y-115775413D01*
X201226094Y-116003655D01*
X201226096Y-116003659D01*
X201226097Y-116003663D01*
X201243744Y-116041506D01*
X201325965Y-116217830D01*
X201325967Y-116217834D01*
X201461501Y-116411395D01*
X201461506Y-116411402D01*
X201628597Y-116578493D01*
X201628603Y-116578498D01*
X201814158Y-116708425D01*
X201857783Y-116763002D01*
X201864977Y-116832500D01*
X201833454Y-116894855D01*
X201814158Y-116911575D01*
X201628597Y-117041505D01*
X201461505Y-117208597D01*
X201325965Y-117402169D01*
X201325964Y-117402171D01*
X201226098Y-117616335D01*
X201226094Y-117616344D01*
X201164938Y-117844586D01*
X201164936Y-117844596D01*
X201144341Y-118079999D01*
X201144341Y-118080000D01*
X201164936Y-118315403D01*
X201164938Y-118315413D01*
X201226094Y-118543655D01*
X201226096Y-118543659D01*
X201226097Y-118543663D01*
X201243744Y-118581506D01*
X201325965Y-118757830D01*
X201325967Y-118757834D01*
X201461501Y-118951395D01*
X201461506Y-118951402D01*
X201628597Y-119118493D01*
X201628603Y-119118498D01*
X201814158Y-119248425D01*
X201857783Y-119303002D01*
X201864977Y-119372500D01*
X201833454Y-119434855D01*
X201814158Y-119451575D01*
X201628597Y-119581505D01*
X201461505Y-119748597D01*
X201325965Y-119942169D01*
X201325964Y-119942171D01*
X201226098Y-120156335D01*
X201226094Y-120156344D01*
X201164938Y-120384586D01*
X201164936Y-120384596D01*
X201144341Y-120619999D01*
X201144341Y-120620000D01*
X201164936Y-120855403D01*
X201164938Y-120855413D01*
X201226094Y-121083655D01*
X201226096Y-121083659D01*
X201226097Y-121083663D01*
X201321660Y-121288597D01*
X201325965Y-121297830D01*
X201325967Y-121297834D01*
X201461501Y-121491395D01*
X201461506Y-121491402D01*
X201628597Y-121658493D01*
X201628603Y-121658498D01*
X201814158Y-121788425D01*
X201857783Y-121843002D01*
X201864977Y-121912500D01*
X201833454Y-121974855D01*
X201814158Y-121991575D01*
X201628597Y-122121505D01*
X201461505Y-122288597D01*
X201325965Y-122482169D01*
X201325964Y-122482171D01*
X201226098Y-122696335D01*
X201226094Y-122696344D01*
X201164938Y-122924586D01*
X201164936Y-122924596D01*
X201144341Y-123159999D01*
X201144341Y-123160000D01*
X201164936Y-123395403D01*
X201164938Y-123395413D01*
X201226094Y-123623655D01*
X201226096Y-123623659D01*
X201226097Y-123623663D01*
X201243744Y-123661506D01*
X201325965Y-123837830D01*
X201325967Y-123837834D01*
X201461501Y-124031395D01*
X201461506Y-124031402D01*
X201628597Y-124198493D01*
X201628603Y-124198498D01*
X201814158Y-124328425D01*
X201857783Y-124383002D01*
X201864977Y-124452500D01*
X201833454Y-124514855D01*
X201814158Y-124531575D01*
X201628597Y-124661505D01*
X201461505Y-124828597D01*
X201325965Y-125022169D01*
X201325964Y-125022171D01*
X201226098Y-125236335D01*
X201226094Y-125236344D01*
X201164938Y-125464586D01*
X201164936Y-125464596D01*
X201144341Y-125699999D01*
X201144341Y-125700000D01*
X201164936Y-125935403D01*
X201164938Y-125935413D01*
X201226094Y-126163655D01*
X201226096Y-126163659D01*
X201226097Y-126163663D01*
X201325965Y-126377830D01*
X201325967Y-126377834D01*
X201461501Y-126571395D01*
X201461506Y-126571402D01*
X201628597Y-126738493D01*
X201628603Y-126738498D01*
X201814158Y-126868425D01*
X201857783Y-126923002D01*
X201864977Y-126992500D01*
X201833454Y-127054855D01*
X201814158Y-127071575D01*
X201628597Y-127201505D01*
X201461505Y-127368597D01*
X201325965Y-127562169D01*
X201325964Y-127562171D01*
X201226098Y-127776335D01*
X201226094Y-127776344D01*
X201164938Y-128004586D01*
X201164936Y-128004596D01*
X201144341Y-128239999D01*
X201144341Y-128240000D01*
X201164936Y-128475403D01*
X201164938Y-128475413D01*
X201226094Y-128703655D01*
X201226096Y-128703659D01*
X201226097Y-128703663D01*
X201325965Y-128917830D01*
X201325967Y-128917834D01*
X201461501Y-129111395D01*
X201461506Y-129111402D01*
X201628597Y-129278493D01*
X201628603Y-129278498D01*
X201814158Y-129408425D01*
X201857783Y-129463002D01*
X201864977Y-129532500D01*
X201833454Y-129594855D01*
X201814158Y-129611575D01*
X201628597Y-129741505D01*
X201461505Y-129908597D01*
X201325965Y-130102169D01*
X201325964Y-130102171D01*
X201226098Y-130316335D01*
X201226094Y-130316344D01*
X201164938Y-130544586D01*
X201164936Y-130544596D01*
X201144341Y-130779999D01*
X201144341Y-130780000D01*
X201164936Y-131015403D01*
X201164938Y-131015413D01*
X201226094Y-131243655D01*
X201226096Y-131243659D01*
X201226097Y-131243663D01*
X201325965Y-131457830D01*
X201325967Y-131457834D01*
X201461501Y-131651395D01*
X201461506Y-131651402D01*
X201628597Y-131818493D01*
X201628603Y-131818498D01*
X201814158Y-131948425D01*
X201857783Y-132003002D01*
X201864977Y-132072500D01*
X201833454Y-132134855D01*
X201814158Y-132151575D01*
X201628597Y-132281505D01*
X201461505Y-132448597D01*
X201325965Y-132642169D01*
X201325964Y-132642171D01*
X201226098Y-132856335D01*
X201226094Y-132856344D01*
X201164938Y-133084586D01*
X201164936Y-133084596D01*
X201144341Y-133319999D01*
X201144341Y-133320000D01*
X201164936Y-133555403D01*
X201164938Y-133555413D01*
X201226094Y-133783655D01*
X201226096Y-133783659D01*
X201226097Y-133783663D01*
X201325965Y-133997830D01*
X201325967Y-133997834D01*
X201461501Y-134191395D01*
X201461506Y-134191402D01*
X201628597Y-134358493D01*
X201628603Y-134358498D01*
X201814158Y-134488425D01*
X201857783Y-134543002D01*
X201864977Y-134612500D01*
X201833454Y-134674855D01*
X201814158Y-134691575D01*
X201628597Y-134821505D01*
X201461505Y-134988597D01*
X201325965Y-135182169D01*
X201325964Y-135182171D01*
X201226098Y-135396335D01*
X201226094Y-135396344D01*
X201164938Y-135624586D01*
X201164936Y-135624596D01*
X201144341Y-135859999D01*
X201144341Y-135860000D01*
X198343410Y-135860000D01*
X198335063Y-135764592D01*
X198273903Y-135536337D01*
X198174035Y-135322171D01*
X198168731Y-135314595D01*
X198038494Y-135128597D01*
X197871402Y-134961506D01*
X197871395Y-134961501D01*
X197677834Y-134825967D01*
X197677830Y-134825965D01*
X197668268Y-134821506D01*
X197463663Y-134726097D01*
X197463659Y-134726096D01*
X197463655Y-134726094D01*
X197235413Y-134664938D01*
X197235403Y-134664936D01*
X197000001Y-134644341D01*
X196999999Y-134644341D01*
X196764596Y-134664936D01*
X196764586Y-134664938D01*
X196536344Y-134726094D01*
X196536335Y-134726098D01*
X196322171Y-134825964D01*
X196322169Y-134825965D01*
X196128597Y-134961505D01*
X195961505Y-135128597D01*
X195831575Y-135314158D01*
X195776998Y-135357783D01*
X195707500Y-135364977D01*
X195645145Y-135333454D01*
X195628425Y-135314158D01*
X195498494Y-135128597D01*
X195331402Y-134961506D01*
X195331395Y-134961501D01*
X195137834Y-134825967D01*
X195137830Y-134825965D01*
X195128268Y-134821506D01*
X194923663Y-134726097D01*
X194923659Y-134726096D01*
X194923655Y-134726094D01*
X194695413Y-134664938D01*
X194695403Y-134664936D01*
X194460001Y-134644341D01*
X194459999Y-134644341D01*
X194224596Y-134664936D01*
X194224586Y-134664938D01*
X193996344Y-134726094D01*
X193996335Y-134726098D01*
X193782171Y-134825964D01*
X193782169Y-134825965D01*
X193588597Y-134961505D01*
X193421505Y-135128597D01*
X193291575Y-135314158D01*
X193236998Y-135357783D01*
X193167500Y-135364977D01*
X193105145Y-135333454D01*
X193088425Y-135314158D01*
X192958494Y-135128597D01*
X192791402Y-134961506D01*
X192791395Y-134961501D01*
X192597834Y-134825967D01*
X192597830Y-134825965D01*
X192588268Y-134821506D01*
X192383663Y-134726097D01*
X192383659Y-134726096D01*
X192383655Y-134726094D01*
X192155413Y-134664938D01*
X192155403Y-134664936D01*
X191920001Y-134644341D01*
X191919999Y-134644341D01*
X191684596Y-134664936D01*
X191684586Y-134664938D01*
X191456344Y-134726094D01*
X191456335Y-134726098D01*
X191242171Y-134825964D01*
X191242169Y-134825965D01*
X191048597Y-134961505D01*
X190881505Y-135128597D01*
X190751575Y-135314158D01*
X190696998Y-135357783D01*
X190627500Y-135364977D01*
X190565145Y-135333454D01*
X190548425Y-135314158D01*
X190418494Y-135128597D01*
X190251402Y-134961506D01*
X190251395Y-134961501D01*
X190057834Y-134825967D01*
X190057830Y-134825965D01*
X190048268Y-134821506D01*
X189843663Y-134726097D01*
X189843659Y-134726096D01*
X189843655Y-134726094D01*
X189615413Y-134664938D01*
X189615403Y-134664936D01*
X189380001Y-134644341D01*
X189379999Y-134644341D01*
X189144596Y-134664936D01*
X189144586Y-134664938D01*
X188916344Y-134726094D01*
X188916335Y-134726098D01*
X188702171Y-134825964D01*
X188702169Y-134825965D01*
X188508597Y-134961505D01*
X188341505Y-135128597D01*
X188211575Y-135314158D01*
X188156998Y-135357783D01*
X188087500Y-135364977D01*
X188025145Y-135333454D01*
X188008425Y-135314158D01*
X187878494Y-135128597D01*
X187711402Y-134961506D01*
X187711395Y-134961501D01*
X187517834Y-134825967D01*
X187517830Y-134825965D01*
X187508268Y-134821506D01*
X187303663Y-134726097D01*
X187303659Y-134726096D01*
X187303655Y-134726094D01*
X187075413Y-134664938D01*
X187075403Y-134664936D01*
X186840001Y-134644341D01*
X186839999Y-134644341D01*
X186604596Y-134664936D01*
X186604586Y-134664938D01*
X186376344Y-134726094D01*
X186376335Y-134726098D01*
X186162171Y-134825964D01*
X186162169Y-134825965D01*
X185968597Y-134961505D01*
X185801505Y-135128597D01*
X185671575Y-135314158D01*
X185616998Y-135357783D01*
X185547500Y-135364977D01*
X185485145Y-135333454D01*
X185468425Y-135314158D01*
X185338494Y-135128597D01*
X185171402Y-134961506D01*
X185171395Y-134961501D01*
X184977834Y-134825967D01*
X184977830Y-134825965D01*
X184968268Y-134821506D01*
X184763663Y-134726097D01*
X184763659Y-134726096D01*
X184763655Y-134726094D01*
X184535413Y-134664938D01*
X184535403Y-134664936D01*
X184300001Y-134644341D01*
X184299999Y-134644341D01*
X184064596Y-134664936D01*
X184064586Y-134664938D01*
X183836344Y-134726094D01*
X183836335Y-134726098D01*
X183622171Y-134825964D01*
X183622169Y-134825965D01*
X183428597Y-134961505D01*
X183261505Y-135128597D01*
X183131575Y-135314158D01*
X183076998Y-135357783D01*
X183007500Y-135364977D01*
X182945145Y-135333454D01*
X182928425Y-135314158D01*
X182798494Y-135128597D01*
X182631402Y-134961506D01*
X182631395Y-134961501D01*
X182437834Y-134825967D01*
X182437830Y-134825965D01*
X182428268Y-134821506D01*
X182223663Y-134726097D01*
X182223659Y-134726096D01*
X182223655Y-134726094D01*
X181995413Y-134664938D01*
X181995403Y-134664936D01*
X181760001Y-134644341D01*
X181759999Y-134644341D01*
X181524596Y-134664936D01*
X181524586Y-134664938D01*
X181296344Y-134726094D01*
X181296335Y-134726098D01*
X181082171Y-134825964D01*
X181082169Y-134825965D01*
X180888597Y-134961505D01*
X180721508Y-135128594D01*
X180591269Y-135314595D01*
X180536692Y-135358219D01*
X180467193Y-135365412D01*
X180404839Y-135333890D01*
X180388119Y-135314594D01*
X180258113Y-135128926D01*
X180258108Y-135128920D01*
X180091082Y-134961894D01*
X179897578Y-134826399D01*
X179683492Y-134726570D01*
X179683486Y-134726567D01*
X179470000Y-134669364D01*
X179470000Y-135566988D01*
X179412993Y-135534075D01*
X179285826Y-135500000D01*
X179154174Y-135500000D01*
X179027007Y-135534075D01*
X178970000Y-135566988D01*
X178970000Y-134669364D01*
X178969999Y-134669364D01*
X178756513Y-134726567D01*
X178756507Y-134726570D01*
X178542422Y-134826399D01*
X178542420Y-134826400D01*
X178348926Y-134961886D01*
X178226865Y-135083947D01*
X178165542Y-135117431D01*
X178095850Y-135112447D01*
X178039917Y-135070575D01*
X178023002Y-135039598D01*
X177973797Y-134907671D01*
X177973793Y-134907664D01*
X177887547Y-134792455D01*
X177887544Y-134792452D01*
X177772335Y-134706206D01*
X177772328Y-134706202D01*
X177637482Y-134655908D01*
X177637483Y-134655908D01*
X177577883Y-134649501D01*
X177577881Y-134649500D01*
X177577873Y-134649500D01*
X177577864Y-134649500D01*
X175782129Y-134649500D01*
X175782123Y-134649501D01*
X175722516Y-134655908D01*
X175587671Y-134706202D01*
X175587664Y-134706206D01*
X175472455Y-134792452D01*
X175472452Y-134792455D01*
X175386206Y-134907664D01*
X175386202Y-134907671D01*
X175335908Y-135042517D01*
X175329501Y-135102116D01*
X175329500Y-135102135D01*
X175329500Y-136897870D01*
X157500500Y-136897870D01*
X157500500Y-131500003D01*
X188694435Y-131500003D01*
X188714630Y-131679249D01*
X188714631Y-131679254D01*
X188774211Y-131849523D01*
X188836356Y-131948425D01*
X188870184Y-132002262D01*
X188997738Y-132129816D01*
X189150478Y-132225789D01*
X189309694Y-132281501D01*
X189320745Y-132285368D01*
X189320750Y-132285369D01*
X189499996Y-132305565D01*
X189500000Y-132305565D01*
X189500004Y-132305565D01*
X189679249Y-132285369D01*
X189679252Y-132285368D01*
X189679255Y-132285368D01*
X189849522Y-132225789D01*
X190002262Y-132129816D01*
X190129816Y-132002262D01*
X190225789Y-131849522D01*
X190285368Y-131679255D01*
X190285369Y-131679249D01*
X190305565Y-131500003D01*
X190305565Y-131499996D01*
X190285369Y-131320750D01*
X190285368Y-131320745D01*
X190225788Y-131150476D01*
X190140919Y-131015408D01*
X190129816Y-130997738D01*
X190002262Y-130870184D01*
X189849523Y-130774211D01*
X189679254Y-130714631D01*
X189679249Y-130714630D01*
X189500004Y-130694435D01*
X189499996Y-130694435D01*
X189320750Y-130714630D01*
X189320745Y-130714631D01*
X189150476Y-130774211D01*
X188997737Y-130870184D01*
X188870184Y-130997737D01*
X188774211Y-131150476D01*
X188714631Y-131320745D01*
X188714630Y-131320750D01*
X188694435Y-131499996D01*
X188694435Y-131500003D01*
X157500500Y-131500003D01*
X157500500Y-120620000D01*
X167644341Y-120620000D01*
X167664936Y-120855403D01*
X167664938Y-120855413D01*
X167726094Y-121083655D01*
X167726096Y-121083659D01*
X167726097Y-121083663D01*
X167821660Y-121288597D01*
X167825965Y-121297830D01*
X167825967Y-121297834D01*
X167934281Y-121452521D01*
X167961505Y-121491401D01*
X168128599Y-121658495D01*
X168182640Y-121696335D01*
X168322165Y-121794032D01*
X168322167Y-121794033D01*
X168322170Y-121794035D01*
X168536337Y-121893903D01*
X168764592Y-121955063D01*
X168952918Y-121971539D01*
X168999999Y-121975659D01*
X169000000Y-121975659D01*
X169000001Y-121975659D01*
X169039234Y-121972226D01*
X169235408Y-121955063D01*
X169463663Y-121893903D01*
X169677830Y-121794035D01*
X169871401Y-121658495D01*
X170038495Y-121491401D01*
X170174035Y-121297830D01*
X170273903Y-121083663D01*
X170335063Y-120855408D01*
X170355659Y-120620000D01*
X170335063Y-120384592D01*
X170273903Y-120156337D01*
X170174035Y-119942171D01*
X170113284Y-119855408D01*
X170038494Y-119748597D01*
X169871402Y-119581506D01*
X169871396Y-119581501D01*
X169685842Y-119451575D01*
X169642217Y-119396998D01*
X169635023Y-119327500D01*
X169666546Y-119265145D01*
X169685842Y-119248425D01*
X169708026Y-119232891D01*
X169871401Y-119118495D01*
X170038495Y-118951401D01*
X170174035Y-118757830D01*
X170273903Y-118543663D01*
X170335063Y-118315408D01*
X170355659Y-118080000D01*
X170335063Y-117844592D01*
X170273903Y-117616337D01*
X170174035Y-117402171D01*
X170113284Y-117315408D01*
X170038494Y-117208597D01*
X169871402Y-117041506D01*
X169871401Y-117041505D01*
X169812130Y-117000003D01*
X193694435Y-117000003D01*
X193714630Y-117179249D01*
X193714631Y-117179254D01*
X193774211Y-117349523D01*
X193870184Y-117502262D01*
X193997738Y-117629816D01*
X194150478Y-117725789D01*
X194320745Y-117785368D01*
X194320750Y-117785369D01*
X194499996Y-117805565D01*
X194500000Y-117805565D01*
X194500004Y-117805565D01*
X194679249Y-117785369D01*
X194679252Y-117785368D01*
X194679255Y-117785368D01*
X194849522Y-117725789D01*
X195002262Y-117629816D01*
X195129816Y-117502262D01*
X195225789Y-117349522D01*
X195285368Y-117179255D01*
X195285369Y-117179249D01*
X195305565Y-117000003D01*
X195305565Y-116999996D01*
X195285369Y-116820750D01*
X195285368Y-116820745D01*
X195265056Y-116762696D01*
X195225789Y-116650478D01*
X195129816Y-116497738D01*
X195002262Y-116370184D01*
X194849523Y-116274211D01*
X194679254Y-116214631D01*
X194679249Y-116214630D01*
X194500004Y-116194435D01*
X194499996Y-116194435D01*
X194320750Y-116214630D01*
X194320745Y-116214631D01*
X194150476Y-116274211D01*
X193997737Y-116370184D01*
X193870184Y-116497737D01*
X193774211Y-116650476D01*
X193714631Y-116820745D01*
X193714630Y-116820750D01*
X193694435Y-116999996D01*
X193694435Y-117000003D01*
X169812130Y-117000003D01*
X169685405Y-116911269D01*
X169641781Y-116856692D01*
X169634588Y-116787193D01*
X169666110Y-116724839D01*
X169685405Y-116708119D01*
X169871082Y-116578105D01*
X170038105Y-116411082D01*
X170173600Y-116217578D01*
X170273429Y-116003492D01*
X170273432Y-116003486D01*
X170330636Y-115790000D01*
X169433012Y-115790000D01*
X169465925Y-115732993D01*
X169500000Y-115605826D01*
X169500000Y-115474174D01*
X169465925Y-115347007D01*
X169433012Y-115290000D01*
X170330636Y-115290000D01*
X170330635Y-115289999D01*
X170273432Y-115076513D01*
X170273429Y-115076507D01*
X170173600Y-114862422D01*
X170173599Y-114862420D01*
X170038113Y-114668926D01*
X170038108Y-114668920D01*
X169916053Y-114546865D01*
X169882568Y-114485542D01*
X169887552Y-114415850D01*
X169929424Y-114359917D01*
X169960400Y-114343002D01*
X170063375Y-114304596D01*
X170092326Y-114293798D01*
X170092326Y-114293797D01*
X170092331Y-114293796D01*
X170207546Y-114207546D01*
X170293796Y-114092331D01*
X170344091Y-113957483D01*
X170350500Y-113897873D01*
X170350499Y-112102128D01*
X170344091Y-112042517D01*
X170293796Y-111907669D01*
X170293795Y-111907668D01*
X170293793Y-111907664D01*
X170207547Y-111792455D01*
X170207544Y-111792452D01*
X170092335Y-111706206D01*
X170092328Y-111706202D01*
X169957482Y-111655908D01*
X169957483Y-111655908D01*
X169897883Y-111649501D01*
X169897881Y-111649500D01*
X169897873Y-111649500D01*
X169897864Y-111649500D01*
X168102129Y-111649500D01*
X168102123Y-111649501D01*
X168042516Y-111655908D01*
X167907671Y-111706202D01*
X167907664Y-111706206D01*
X167792455Y-111792452D01*
X167792452Y-111792455D01*
X167706206Y-111907664D01*
X167706202Y-111907671D01*
X167655908Y-112042517D01*
X167649501Y-112102116D01*
X167649501Y-112102123D01*
X167649500Y-112102135D01*
X167649500Y-113897870D01*
X167649501Y-113897876D01*
X167655908Y-113957483D01*
X167706202Y-114092328D01*
X167706206Y-114092335D01*
X167792452Y-114207544D01*
X167792455Y-114207547D01*
X167907664Y-114293793D01*
X167907671Y-114293797D01*
X167936625Y-114304596D01*
X168039598Y-114343002D01*
X168095531Y-114384873D01*
X168119949Y-114450337D01*
X168105098Y-114518610D01*
X168083947Y-114546865D01*
X167961886Y-114668926D01*
X167826400Y-114862420D01*
X167826399Y-114862422D01*
X167726570Y-115076507D01*
X167726567Y-115076513D01*
X167669364Y-115289999D01*
X167669364Y-115290000D01*
X168566988Y-115290000D01*
X168534075Y-115347007D01*
X168500000Y-115474174D01*
X168500000Y-115605826D01*
X168534075Y-115732993D01*
X168566988Y-115790000D01*
X167669364Y-115790000D01*
X167726567Y-116003486D01*
X167726570Y-116003492D01*
X167826399Y-116217578D01*
X167961894Y-116411082D01*
X168128917Y-116578105D01*
X168314595Y-116708119D01*
X168358219Y-116762696D01*
X168365412Y-116832195D01*
X168333890Y-116894549D01*
X168314595Y-116911269D01*
X168128594Y-117041508D01*
X167961505Y-117208597D01*
X167825965Y-117402169D01*
X167825964Y-117402171D01*
X167726098Y-117616335D01*
X167726094Y-117616344D01*
X167664938Y-117844586D01*
X167664936Y-117844596D01*
X167644341Y-118079999D01*
X167644341Y-118080000D01*
X167664936Y-118315403D01*
X167664938Y-118315413D01*
X167726094Y-118543655D01*
X167726096Y-118543659D01*
X167726097Y-118543663D01*
X167743744Y-118581506D01*
X167825965Y-118757830D01*
X167825967Y-118757834D01*
X167961501Y-118951395D01*
X167961506Y-118951402D01*
X168128597Y-119118493D01*
X168128603Y-119118498D01*
X168314158Y-119248425D01*
X168357783Y-119303002D01*
X168364977Y-119372500D01*
X168333454Y-119434855D01*
X168314158Y-119451575D01*
X168128597Y-119581505D01*
X167961505Y-119748597D01*
X167825965Y-119942169D01*
X167825964Y-119942171D01*
X167726098Y-120156335D01*
X167726094Y-120156344D01*
X167664938Y-120384586D01*
X167664936Y-120384596D01*
X167644341Y-120619999D01*
X167644341Y-120620000D01*
X157500500Y-120620000D01*
X157500500Y-87500003D01*
X195194435Y-87500003D01*
X195214630Y-87679249D01*
X195214631Y-87679254D01*
X195274211Y-87849523D01*
X195370184Y-88002262D01*
X195497738Y-88129816D01*
X195650478Y-88225789D01*
X195799203Y-88277830D01*
X195820745Y-88285368D01*
X195820750Y-88285369D01*
X195999996Y-88305565D01*
X196000000Y-88305565D01*
X196000004Y-88305565D01*
X196179249Y-88285369D01*
X196179252Y-88285368D01*
X196179255Y-88285368D01*
X196349522Y-88225789D01*
X196502262Y-88129816D01*
X196629816Y-88002262D01*
X196725789Y-87849522D01*
X196785368Y-87679255D01*
X196805565Y-87500000D01*
X196790308Y-87364592D01*
X196785369Y-87320750D01*
X196785368Y-87320745D01*
X196725788Y-87150476D01*
X196629815Y-86997737D01*
X196502262Y-86870184D01*
X196349523Y-86774211D01*
X196179254Y-86714631D01*
X196179249Y-86714630D01*
X196000004Y-86694435D01*
X195999996Y-86694435D01*
X195820750Y-86714630D01*
X195820745Y-86714631D01*
X195650476Y-86774211D01*
X195497737Y-86870184D01*
X195370184Y-86997737D01*
X195274211Y-87150476D01*
X195214631Y-87320745D01*
X195214630Y-87320750D01*
X195194435Y-87499996D01*
X195194435Y-87500003D01*
X157500500Y-87500003D01*
X157500500Y-85620000D01*
X167644341Y-85620000D01*
X167664936Y-85855403D01*
X167664938Y-85855413D01*
X167726094Y-86083655D01*
X167726096Y-86083659D01*
X167726097Y-86083663D01*
X167733015Y-86098498D01*
X167825965Y-86297830D01*
X167825967Y-86297834D01*
X167864245Y-86352500D01*
X167961505Y-86491401D01*
X168128599Y-86658495D01*
X168208771Y-86714632D01*
X168322165Y-86794032D01*
X168322167Y-86794033D01*
X168322170Y-86794035D01*
X168536337Y-86893903D01*
X168764592Y-86955063D01*
X168952918Y-86971539D01*
X168999999Y-86975659D01*
X169000000Y-86975659D01*
X169000001Y-86975659D01*
X169039234Y-86972226D01*
X169235408Y-86955063D01*
X169463663Y-86893903D01*
X169677830Y-86794035D01*
X169871401Y-86658495D01*
X170038495Y-86491401D01*
X170174035Y-86297830D01*
X170273903Y-86083663D01*
X170335063Y-85855408D01*
X170355659Y-85620000D01*
X170335063Y-85384592D01*
X170273903Y-85156337D01*
X170174035Y-84942171D01*
X170146026Y-84902169D01*
X170038494Y-84748597D01*
X169871402Y-84581506D01*
X169871396Y-84581501D01*
X169685842Y-84451575D01*
X169642217Y-84396998D01*
X169635023Y-84327500D01*
X169666546Y-84265145D01*
X169685842Y-84248425D01*
X169771285Y-84188597D01*
X169871401Y-84118495D01*
X170038495Y-83951401D01*
X170174035Y-83757830D01*
X170273903Y-83543663D01*
X170335063Y-83315408D01*
X170355659Y-83080000D01*
X170335063Y-82844592D01*
X170273903Y-82616337D01*
X170174035Y-82402171D01*
X170146026Y-82362169D01*
X170038494Y-82208597D01*
X169871402Y-82041506D01*
X169871401Y-82041505D01*
X169685405Y-81911269D01*
X169641781Y-81856692D01*
X169634588Y-81787193D01*
X169666110Y-81724839D01*
X169685405Y-81708119D01*
X169871082Y-81578105D01*
X170038105Y-81411082D01*
X170173600Y-81217578D01*
X170273429Y-81003492D01*
X170273432Y-81003486D01*
X170330636Y-80790000D01*
X169433012Y-80790000D01*
X169465925Y-80732993D01*
X169500000Y-80605826D01*
X169500000Y-80474174D01*
X169465925Y-80347007D01*
X169433012Y-80290000D01*
X170330636Y-80290000D01*
X170330635Y-80289999D01*
X170273432Y-80076513D01*
X170273429Y-80076507D01*
X170173600Y-79862422D01*
X170173599Y-79862420D01*
X170038113Y-79668926D01*
X170038108Y-79668920D01*
X169871078Y-79501890D01*
X169685405Y-79371879D01*
X169641780Y-79317302D01*
X169634588Y-79247804D01*
X169666110Y-79185449D01*
X169685406Y-79168730D01*
X169871401Y-79038495D01*
X170038495Y-78871401D01*
X170174035Y-78677830D01*
X170273903Y-78463663D01*
X170335063Y-78235408D01*
X170355659Y-78000000D01*
X170335063Y-77764592D01*
X170273903Y-77536337D01*
X170174035Y-77322171D01*
X170038495Y-77128599D01*
X169916567Y-77006671D01*
X169883084Y-76945351D01*
X169888068Y-76875659D01*
X169929939Y-76819725D01*
X169960915Y-76802810D01*
X170092331Y-76753796D01*
X170207546Y-76667546D01*
X170293796Y-76552331D01*
X170344091Y-76417483D01*
X170350500Y-76357873D01*
X170350499Y-74562128D01*
X170344091Y-74502517D01*
X170293796Y-74367669D01*
X170293795Y-74367668D01*
X170293793Y-74367664D01*
X170207547Y-74252455D01*
X170207544Y-74252452D01*
X170092335Y-74166206D01*
X170092328Y-74166202D01*
X169957482Y-74115908D01*
X169957483Y-74115908D01*
X169897883Y-74109501D01*
X169897881Y-74109500D01*
X169897873Y-74109500D01*
X169897864Y-74109500D01*
X168102129Y-74109500D01*
X168102123Y-74109501D01*
X168042516Y-74115908D01*
X167907671Y-74166202D01*
X167907664Y-74166206D01*
X167792455Y-74252452D01*
X167792452Y-74252455D01*
X167706206Y-74367664D01*
X167706202Y-74367671D01*
X167655908Y-74502517D01*
X167649501Y-74562116D01*
X167649501Y-74562123D01*
X167649500Y-74562135D01*
X167649500Y-76357870D01*
X167649501Y-76357876D01*
X167655908Y-76417483D01*
X167706202Y-76552328D01*
X167706206Y-76552335D01*
X167792452Y-76667544D01*
X167792455Y-76667547D01*
X167907664Y-76753793D01*
X167907671Y-76753797D01*
X168039081Y-76802810D01*
X168095015Y-76844681D01*
X168119432Y-76910145D01*
X168104580Y-76978418D01*
X168083430Y-77006673D01*
X167961503Y-77128600D01*
X167825965Y-77322169D01*
X167825964Y-77322171D01*
X167726098Y-77536335D01*
X167726094Y-77536344D01*
X167664938Y-77764586D01*
X167664936Y-77764596D01*
X167644341Y-77999999D01*
X167644341Y-78000000D01*
X167664936Y-78235403D01*
X167664938Y-78235413D01*
X167726094Y-78463655D01*
X167726096Y-78463659D01*
X167726097Y-78463663D01*
X167801023Y-78624341D01*
X167825965Y-78677830D01*
X167825967Y-78677834D01*
X167934281Y-78832521D01*
X167961505Y-78871401D01*
X168128599Y-79038495D01*
X168312394Y-79167190D01*
X168314594Y-79168730D01*
X168358219Y-79223307D01*
X168365413Y-79292805D01*
X168333890Y-79355160D01*
X168314595Y-79371880D01*
X168128922Y-79501890D01*
X168128920Y-79501891D01*
X167961891Y-79668920D01*
X167961886Y-79668926D01*
X167826400Y-79862420D01*
X167826399Y-79862422D01*
X167726570Y-80076507D01*
X167726567Y-80076513D01*
X167669364Y-80289999D01*
X167669364Y-80290000D01*
X168566988Y-80290000D01*
X168534075Y-80347007D01*
X168500000Y-80474174D01*
X168500000Y-80605826D01*
X168534075Y-80732993D01*
X168566988Y-80790000D01*
X167669364Y-80790000D01*
X167726567Y-81003486D01*
X167726570Y-81003492D01*
X167826399Y-81217578D01*
X167961894Y-81411082D01*
X168128917Y-81578105D01*
X168314595Y-81708119D01*
X168358219Y-81762696D01*
X168365412Y-81832195D01*
X168333890Y-81894549D01*
X168314595Y-81911269D01*
X168128594Y-82041508D01*
X167961505Y-82208597D01*
X167825965Y-82402169D01*
X167825964Y-82402171D01*
X167726098Y-82616335D01*
X167726094Y-82616344D01*
X167664938Y-82844586D01*
X167664936Y-82844596D01*
X167644341Y-83079999D01*
X167644341Y-83080000D01*
X167664936Y-83315403D01*
X167664938Y-83315413D01*
X167726094Y-83543655D01*
X167726096Y-83543659D01*
X167726097Y-83543663D01*
X167733015Y-83558498D01*
X167825965Y-83757830D01*
X167825967Y-83757834D01*
X167961501Y-83951395D01*
X167961506Y-83951402D01*
X168128597Y-84118493D01*
X168128603Y-84118498D01*
X168314158Y-84248425D01*
X168357783Y-84303002D01*
X168364977Y-84372500D01*
X168333454Y-84434855D01*
X168314158Y-84451575D01*
X168128597Y-84581505D01*
X167961505Y-84748597D01*
X167825965Y-84942169D01*
X167825964Y-84942171D01*
X167726098Y-85156335D01*
X167726094Y-85156344D01*
X167664938Y-85384586D01*
X167664936Y-85384596D01*
X167644341Y-85619999D01*
X167644341Y-85620000D01*
X157500500Y-85620000D01*
X157500500Y-68897870D01*
X172989500Y-68897870D01*
X172989501Y-68897876D01*
X172995908Y-68957483D01*
X173046202Y-69092328D01*
X173046206Y-69092335D01*
X173132452Y-69207544D01*
X173132455Y-69207547D01*
X173247664Y-69293793D01*
X173247671Y-69293797D01*
X173382517Y-69344091D01*
X173382516Y-69344091D01*
X173389444Y-69344835D01*
X173442127Y-69350500D01*
X175237872Y-69350499D01*
X175297483Y-69344091D01*
X175432331Y-69293796D01*
X175547546Y-69207546D01*
X175633796Y-69092331D01*
X175683002Y-68960401D01*
X175724872Y-68904468D01*
X175790337Y-68880050D01*
X175858610Y-68894901D01*
X175886865Y-68916053D01*
X176008917Y-69038105D01*
X176202421Y-69173600D01*
X176416507Y-69273429D01*
X176416516Y-69273433D01*
X176630000Y-69330634D01*
X176630000Y-68433012D01*
X176687007Y-68465925D01*
X176814174Y-68500000D01*
X176945826Y-68500000D01*
X177072993Y-68465925D01*
X177130000Y-68433012D01*
X177130000Y-69330633D01*
X177343483Y-69273433D01*
X177343492Y-69273429D01*
X177557578Y-69173600D01*
X177751082Y-69038105D01*
X177918105Y-68871082D01*
X178048119Y-68685405D01*
X178102696Y-68641781D01*
X178172195Y-68634588D01*
X178234549Y-68666110D01*
X178251269Y-68685405D01*
X178381505Y-68871401D01*
X178548599Y-69038495D01*
X178645384Y-69106265D01*
X178742165Y-69174032D01*
X178742167Y-69174033D01*
X178742170Y-69174035D01*
X178956337Y-69273903D01*
X179184592Y-69335063D01*
X179361034Y-69350500D01*
X179419999Y-69355659D01*
X179420000Y-69355659D01*
X179420001Y-69355659D01*
X179478966Y-69350500D01*
X179655408Y-69335063D01*
X179883663Y-69273903D01*
X180097830Y-69174035D01*
X180291401Y-69038495D01*
X180458495Y-68871401D01*
X180588425Y-68685842D01*
X180643002Y-68642217D01*
X180712500Y-68635023D01*
X180774855Y-68666546D01*
X180791575Y-68685842D01*
X180921500Y-68871395D01*
X180921505Y-68871401D01*
X181088599Y-69038495D01*
X181185384Y-69106265D01*
X181282165Y-69174032D01*
X181282167Y-69174033D01*
X181282170Y-69174035D01*
X181496337Y-69273903D01*
X181724592Y-69335063D01*
X181901034Y-69350500D01*
X181959999Y-69355659D01*
X181960000Y-69355659D01*
X181960001Y-69355659D01*
X182018966Y-69350500D01*
X182195408Y-69335063D01*
X182423663Y-69273903D01*
X182637830Y-69174035D01*
X182831401Y-69038495D01*
X182998495Y-68871401D01*
X183128425Y-68685842D01*
X183183002Y-68642217D01*
X183252500Y-68635023D01*
X183314855Y-68666546D01*
X183331575Y-68685842D01*
X183461500Y-68871395D01*
X183461505Y-68871401D01*
X183628599Y-69038495D01*
X183725384Y-69106265D01*
X183822165Y-69174032D01*
X183822167Y-69174033D01*
X183822170Y-69174035D01*
X184036337Y-69273903D01*
X184264592Y-69335063D01*
X184441034Y-69350500D01*
X184499999Y-69355659D01*
X184500000Y-69355659D01*
X184500001Y-69355659D01*
X184558966Y-69350500D01*
X184735408Y-69335063D01*
X184963663Y-69273903D01*
X185177830Y-69174035D01*
X185371401Y-69038495D01*
X185538495Y-68871401D01*
X185674035Y-68677830D01*
X185773903Y-68463663D01*
X185835063Y-68235408D01*
X185855659Y-68000000D01*
X185835063Y-67764592D01*
X185773903Y-67536337D01*
X185674035Y-67322171D01*
X185668731Y-67314595D01*
X185538494Y-67128597D01*
X185371402Y-66961506D01*
X185371395Y-66961501D01*
X185177834Y-66825967D01*
X185177830Y-66825965D01*
X185177828Y-66825964D01*
X184963663Y-66726097D01*
X184963659Y-66726096D01*
X184963655Y-66726094D01*
X184735413Y-66664938D01*
X184735403Y-66664936D01*
X184500001Y-66644341D01*
X184499999Y-66644341D01*
X184264596Y-66664936D01*
X184264586Y-66664938D01*
X184036344Y-66726094D01*
X184036335Y-66726098D01*
X183822171Y-66825964D01*
X183822169Y-66825965D01*
X183628597Y-66961505D01*
X183461505Y-67128597D01*
X183331575Y-67314158D01*
X183276998Y-67357783D01*
X183207500Y-67364977D01*
X183145145Y-67333454D01*
X183128425Y-67314158D01*
X182998494Y-67128597D01*
X182831402Y-66961506D01*
X182831395Y-66961501D01*
X182637834Y-66825967D01*
X182637830Y-66825965D01*
X182637828Y-66825964D01*
X182423663Y-66726097D01*
X182423659Y-66726096D01*
X182423655Y-66726094D01*
X182195413Y-66664938D01*
X182195403Y-66664936D01*
X181960001Y-66644341D01*
X181959999Y-66644341D01*
X181724596Y-66664936D01*
X181724586Y-66664938D01*
X181496344Y-66726094D01*
X181496335Y-66726098D01*
X181282171Y-66825964D01*
X181282169Y-66825965D01*
X181088597Y-66961505D01*
X180921505Y-67128597D01*
X180791575Y-67314158D01*
X180736998Y-67357783D01*
X180667500Y-67364977D01*
X180605145Y-67333454D01*
X180588425Y-67314158D01*
X180458494Y-67128597D01*
X180291402Y-66961506D01*
X180291395Y-66961501D01*
X180097834Y-66825967D01*
X180097830Y-66825965D01*
X180097828Y-66825964D01*
X179883663Y-66726097D01*
X179883659Y-66726096D01*
X179883655Y-66726094D01*
X179655413Y-66664938D01*
X179655403Y-66664936D01*
X179420001Y-66644341D01*
X179419999Y-66644341D01*
X179184596Y-66664936D01*
X179184586Y-66664938D01*
X178956344Y-66726094D01*
X178956335Y-66726098D01*
X178742171Y-66825964D01*
X178742169Y-66825965D01*
X178548597Y-66961505D01*
X178381508Y-67128594D01*
X178251269Y-67314595D01*
X178196692Y-67358219D01*
X178127193Y-67365412D01*
X178064839Y-67333890D01*
X178048119Y-67314594D01*
X177918113Y-67128926D01*
X177918108Y-67128920D01*
X177751082Y-66961894D01*
X177557578Y-66826399D01*
X177343492Y-66726570D01*
X177343486Y-66726567D01*
X177130000Y-66669364D01*
X177130000Y-67566988D01*
X177072993Y-67534075D01*
X176945826Y-67500000D01*
X176814174Y-67500000D01*
X176687007Y-67534075D01*
X176630000Y-67566988D01*
X176630000Y-66669364D01*
X176629999Y-66669364D01*
X176416513Y-66726567D01*
X176416507Y-66726570D01*
X176202422Y-66826399D01*
X176202420Y-66826400D01*
X176008926Y-66961886D01*
X175886865Y-67083947D01*
X175825542Y-67117431D01*
X175755850Y-67112447D01*
X175699917Y-67070575D01*
X175683002Y-67039598D01*
X175633797Y-66907671D01*
X175633793Y-66907664D01*
X175547547Y-66792455D01*
X175547544Y-66792452D01*
X175432335Y-66706206D01*
X175432328Y-66706202D01*
X175297482Y-66655908D01*
X175297483Y-66655908D01*
X175237883Y-66649501D01*
X175237881Y-66649500D01*
X175237873Y-66649500D01*
X175237864Y-66649500D01*
X173442129Y-66649500D01*
X173442123Y-66649501D01*
X173382516Y-66655908D01*
X173247671Y-66706202D01*
X173247664Y-66706206D01*
X173132455Y-66792452D01*
X173132452Y-66792455D01*
X173046206Y-66907664D01*
X173046202Y-66907671D01*
X172995908Y-67042517D01*
X172989501Y-67102116D01*
X172989500Y-67102135D01*
X172989500Y-68897870D01*
X157500500Y-68897870D01*
X157500500Y-61624500D01*
X157520185Y-61557461D01*
X157572989Y-61511706D01*
X157624500Y-61500500D01*
X162065890Y-61500500D01*
X162065892Y-61500500D01*
X162193186Y-61466392D01*
X162307314Y-61400500D01*
X162400500Y-61307314D01*
X162466392Y-61193186D01*
X162500500Y-61065892D01*
X162500500Y-60500000D01*
X173744723Y-60500000D01*
X173761580Y-60692686D01*
X173763793Y-60717975D01*
X173763793Y-60717979D01*
X173820422Y-60929322D01*
X173820424Y-60929326D01*
X173820425Y-60929330D01*
X173866661Y-61028484D01*
X173912897Y-61127638D01*
X173912898Y-61127639D01*
X174038402Y-61306877D01*
X174193123Y-61461598D01*
X174372361Y-61587102D01*
X174570670Y-61679575D01*
X174782023Y-61736207D01*
X174964926Y-61752208D01*
X174999998Y-61755277D01*
X175000000Y-61755277D01*
X175000002Y-61755277D01*
X175028254Y-61752805D01*
X175217977Y-61736207D01*
X175429330Y-61679575D01*
X175627639Y-61587102D01*
X175806877Y-61461598D01*
X175912319Y-61356156D01*
X175973642Y-61322671D01*
X176043334Y-61327655D01*
X176087681Y-61356156D01*
X176193123Y-61461598D01*
X176372361Y-61587102D01*
X176570670Y-61679575D01*
X176782023Y-61736207D01*
X176964926Y-61752208D01*
X176999998Y-61755277D01*
X177000000Y-61755277D01*
X177000002Y-61755277D01*
X177028254Y-61752805D01*
X177217977Y-61736207D01*
X177429330Y-61679575D01*
X177627639Y-61587102D01*
X177806877Y-61461598D01*
X177912319Y-61356156D01*
X177973642Y-61322671D01*
X178043334Y-61327655D01*
X178087681Y-61356156D01*
X178193123Y-61461598D01*
X178372361Y-61587102D01*
X178570670Y-61679575D01*
X178782023Y-61736207D01*
X178964926Y-61752208D01*
X178999998Y-61755277D01*
X179000000Y-61755277D01*
X179000002Y-61755277D01*
X179028254Y-61752805D01*
X179217977Y-61736207D01*
X179429330Y-61679575D01*
X179627639Y-61587102D01*
X179806877Y-61461598D01*
X179912319Y-61356156D01*
X179973642Y-61322671D01*
X180043334Y-61327655D01*
X180087681Y-61356156D01*
X180193123Y-61461598D01*
X180372361Y-61587102D01*
X180570670Y-61679575D01*
X180782023Y-61736207D01*
X180964926Y-61752208D01*
X180999998Y-61755277D01*
X181000000Y-61755277D01*
X181000002Y-61755277D01*
X181028254Y-61752805D01*
X181217977Y-61736207D01*
X181429330Y-61679575D01*
X181627639Y-61587102D01*
X181806877Y-61461598D01*
X181912319Y-61356156D01*
X181973642Y-61322671D01*
X182043334Y-61327655D01*
X182087681Y-61356156D01*
X182193123Y-61461598D01*
X182372361Y-61587102D01*
X182570670Y-61679575D01*
X182782023Y-61736207D01*
X182964926Y-61752208D01*
X182999998Y-61755277D01*
X183000000Y-61755277D01*
X183000002Y-61755277D01*
X183028254Y-61752805D01*
X183217977Y-61736207D01*
X183429330Y-61679575D01*
X183627639Y-61587102D01*
X183806877Y-61461598D01*
X183912319Y-61356156D01*
X183973642Y-61322671D01*
X184043334Y-61327655D01*
X184087681Y-61356156D01*
X184193123Y-61461598D01*
X184372361Y-61587102D01*
X184570670Y-61679575D01*
X184782023Y-61736207D01*
X184964926Y-61752208D01*
X184999998Y-61755277D01*
X185000000Y-61755277D01*
X185000002Y-61755277D01*
X185028254Y-61752805D01*
X185217977Y-61736207D01*
X185429330Y-61679575D01*
X185627639Y-61587102D01*
X185806877Y-61461598D01*
X185912319Y-61356156D01*
X185973642Y-61322671D01*
X186043334Y-61327655D01*
X186087681Y-61356156D01*
X186193123Y-61461598D01*
X186372361Y-61587102D01*
X186570670Y-61679575D01*
X186782023Y-61736207D01*
X186964926Y-61752208D01*
X186999998Y-61755277D01*
X187000000Y-61755277D01*
X187000002Y-61755277D01*
X187028254Y-61752805D01*
X187217977Y-61736207D01*
X187429330Y-61679575D01*
X187627639Y-61587102D01*
X187806877Y-61461598D01*
X187912319Y-61356156D01*
X187973642Y-61322671D01*
X188043334Y-61327655D01*
X188087681Y-61356156D01*
X188193123Y-61461598D01*
X188372361Y-61587102D01*
X188570670Y-61679575D01*
X188782023Y-61736207D01*
X188964926Y-61752208D01*
X188999998Y-61755277D01*
X189000000Y-61755277D01*
X189000002Y-61755277D01*
X189028254Y-61752805D01*
X189217977Y-61736207D01*
X189429330Y-61679575D01*
X189627639Y-61587102D01*
X189806877Y-61461598D01*
X189912319Y-61356156D01*
X189973642Y-61322671D01*
X190043334Y-61327655D01*
X190087681Y-61356156D01*
X190193123Y-61461598D01*
X190372361Y-61587102D01*
X190570670Y-61679575D01*
X190782023Y-61736207D01*
X190964926Y-61752208D01*
X190999998Y-61755277D01*
X191000000Y-61755277D01*
X191000002Y-61755277D01*
X191028254Y-61752805D01*
X191217977Y-61736207D01*
X191429330Y-61679575D01*
X191627639Y-61587102D01*
X191806877Y-61461598D01*
X191912319Y-61356156D01*
X191973642Y-61322671D01*
X192043334Y-61327655D01*
X192087681Y-61356156D01*
X192193123Y-61461598D01*
X192372361Y-61587102D01*
X192570670Y-61679575D01*
X192782023Y-61736207D01*
X192964926Y-61752208D01*
X192999998Y-61755277D01*
X193000000Y-61755277D01*
X193000002Y-61755277D01*
X193028254Y-61752805D01*
X193217977Y-61736207D01*
X193429330Y-61679575D01*
X193627639Y-61587102D01*
X193806877Y-61461598D01*
X193912319Y-61356156D01*
X193973642Y-61322671D01*
X194043334Y-61327655D01*
X194087681Y-61356156D01*
X194193123Y-61461598D01*
X194372361Y-61587102D01*
X194570670Y-61679575D01*
X194782023Y-61736207D01*
X194964926Y-61752208D01*
X194999998Y-61755277D01*
X195000000Y-61755277D01*
X195000002Y-61755277D01*
X195028254Y-61752805D01*
X195217977Y-61736207D01*
X195429330Y-61679575D01*
X195627639Y-61587102D01*
X195806877Y-61461598D01*
X195912319Y-61356156D01*
X195973642Y-61322671D01*
X196043334Y-61327655D01*
X196087681Y-61356156D01*
X196193123Y-61461598D01*
X196372361Y-61587102D01*
X196570670Y-61679575D01*
X196782023Y-61736207D01*
X196964926Y-61752208D01*
X196999998Y-61755277D01*
X197000000Y-61755277D01*
X197000002Y-61755277D01*
X197028254Y-61752805D01*
X197217977Y-61736207D01*
X197429330Y-61679575D01*
X197627639Y-61587102D01*
X197806877Y-61461598D01*
X197912319Y-61356156D01*
X197973642Y-61322671D01*
X198043334Y-61327655D01*
X198087681Y-61356156D01*
X198193123Y-61461598D01*
X198372361Y-61587102D01*
X198570670Y-61679575D01*
X198782023Y-61736207D01*
X198964926Y-61752208D01*
X198999998Y-61755277D01*
X199000000Y-61755277D01*
X199000002Y-61755277D01*
X199028254Y-61752805D01*
X199217977Y-61736207D01*
X199429330Y-61679575D01*
X199627639Y-61587102D01*
X199806877Y-61461598D01*
X199912319Y-61356156D01*
X199973642Y-61322671D01*
X200043334Y-61327655D01*
X200087681Y-61356156D01*
X200193123Y-61461598D01*
X200372361Y-61587102D01*
X200570670Y-61679575D01*
X200782023Y-61736207D01*
X200964926Y-61752208D01*
X200999998Y-61755277D01*
X201000000Y-61755277D01*
X201000002Y-61755277D01*
X201028254Y-61752805D01*
X201217977Y-61736207D01*
X201429330Y-61679575D01*
X201627639Y-61587102D01*
X201806877Y-61461598D01*
X201912319Y-61356156D01*
X201973642Y-61322671D01*
X202043334Y-61327655D01*
X202087681Y-61356156D01*
X202193123Y-61461598D01*
X202372361Y-61587102D01*
X202570670Y-61679575D01*
X202782023Y-61736207D01*
X202964926Y-61752208D01*
X202999998Y-61755277D01*
X203000000Y-61755277D01*
X203000002Y-61755277D01*
X203028254Y-61752805D01*
X203217977Y-61736207D01*
X203429330Y-61679575D01*
X203627639Y-61587102D01*
X203806877Y-61461598D01*
X203912319Y-61356156D01*
X203973642Y-61322671D01*
X204043334Y-61327655D01*
X204087681Y-61356156D01*
X204193123Y-61461598D01*
X204372361Y-61587102D01*
X204570670Y-61679575D01*
X204782023Y-61736207D01*
X204964926Y-61752208D01*
X204999998Y-61755277D01*
X205000000Y-61755277D01*
X205000002Y-61755277D01*
X205028254Y-61752805D01*
X205217977Y-61736207D01*
X205429330Y-61679575D01*
X205627639Y-61587102D01*
X205806877Y-61461598D01*
X205912319Y-61356156D01*
X205973642Y-61322671D01*
X206043334Y-61327655D01*
X206087681Y-61356156D01*
X206193123Y-61461598D01*
X206372361Y-61587102D01*
X206570670Y-61679575D01*
X206782023Y-61736207D01*
X206964926Y-61752208D01*
X206999998Y-61755277D01*
X207000000Y-61755277D01*
X207000002Y-61755277D01*
X207028254Y-61752805D01*
X207217977Y-61736207D01*
X207429330Y-61679575D01*
X207627639Y-61587102D01*
X207806877Y-61461598D01*
X207912319Y-61356156D01*
X207973642Y-61322671D01*
X208043334Y-61327655D01*
X208087681Y-61356156D01*
X208193123Y-61461598D01*
X208372361Y-61587102D01*
X208570670Y-61679575D01*
X208782023Y-61736207D01*
X208964926Y-61752208D01*
X208999998Y-61755277D01*
X209000000Y-61755277D01*
X209000002Y-61755277D01*
X209028254Y-61752805D01*
X209217977Y-61736207D01*
X209429330Y-61679575D01*
X209627639Y-61587102D01*
X209806877Y-61461598D01*
X209912319Y-61356156D01*
X209973642Y-61322671D01*
X210043334Y-61327655D01*
X210087681Y-61356156D01*
X210193123Y-61461598D01*
X210372361Y-61587102D01*
X210570670Y-61679575D01*
X210782023Y-61736207D01*
X210964926Y-61752208D01*
X210999998Y-61755277D01*
X211000000Y-61755277D01*
X211000002Y-61755277D01*
X211028254Y-61752805D01*
X211217977Y-61736207D01*
X211429330Y-61679575D01*
X211627639Y-61587102D01*
X211806877Y-61461598D01*
X211912319Y-61356156D01*
X211973642Y-61322671D01*
X212043334Y-61327655D01*
X212087681Y-61356156D01*
X212193123Y-61461598D01*
X212372361Y-61587102D01*
X212570670Y-61679575D01*
X212782023Y-61736207D01*
X212964926Y-61752208D01*
X212999998Y-61755277D01*
X213000000Y-61755277D01*
X213000002Y-61755277D01*
X213028254Y-61752805D01*
X213217977Y-61736207D01*
X213429330Y-61679575D01*
X213627639Y-61587102D01*
X213806877Y-61461598D01*
X213912319Y-61356156D01*
X213973642Y-61322671D01*
X214043334Y-61327655D01*
X214087681Y-61356156D01*
X214193123Y-61461598D01*
X214372361Y-61587102D01*
X214570670Y-61679575D01*
X214782023Y-61736207D01*
X214964926Y-61752208D01*
X214999998Y-61755277D01*
X215000000Y-61755277D01*
X215000002Y-61755277D01*
X215028254Y-61752805D01*
X215217977Y-61736207D01*
X215429330Y-61679575D01*
X215627639Y-61587102D01*
X215806877Y-61461598D01*
X215912319Y-61356156D01*
X215973642Y-61322671D01*
X216043334Y-61327655D01*
X216087681Y-61356156D01*
X216193123Y-61461598D01*
X216372361Y-61587102D01*
X216570670Y-61679575D01*
X216782023Y-61736207D01*
X216964926Y-61752208D01*
X216999998Y-61755277D01*
X217000000Y-61755277D01*
X217000002Y-61755277D01*
X217028254Y-61752805D01*
X217217977Y-61736207D01*
X217429330Y-61679575D01*
X217627639Y-61587102D01*
X217806877Y-61461598D01*
X217912319Y-61356156D01*
X217973642Y-61322671D01*
X218043334Y-61327655D01*
X218087681Y-61356156D01*
X218193123Y-61461598D01*
X218372361Y-61587102D01*
X218570670Y-61679575D01*
X218782023Y-61736207D01*
X218964926Y-61752208D01*
X218999998Y-61755277D01*
X219000000Y-61755277D01*
X219000002Y-61755277D01*
X219028254Y-61752805D01*
X219217977Y-61736207D01*
X219429330Y-61679575D01*
X219627639Y-61587102D01*
X219806877Y-61461598D01*
X219912319Y-61356156D01*
X219973642Y-61322671D01*
X220043334Y-61327655D01*
X220087681Y-61356156D01*
X220193123Y-61461598D01*
X220372361Y-61587102D01*
X220570670Y-61679575D01*
X220782023Y-61736207D01*
X220964926Y-61752208D01*
X220999998Y-61755277D01*
X221000000Y-61755277D01*
X221000002Y-61755277D01*
X221028254Y-61752805D01*
X221217977Y-61736207D01*
X221429330Y-61679575D01*
X221627639Y-61587102D01*
X221806877Y-61461598D01*
X221912319Y-61356156D01*
X221973642Y-61322671D01*
X222043334Y-61327655D01*
X222087681Y-61356156D01*
X222193123Y-61461598D01*
X222372361Y-61587102D01*
X222570670Y-61679575D01*
X222782023Y-61736207D01*
X222964926Y-61752208D01*
X222999998Y-61755277D01*
X223000000Y-61755277D01*
X223000002Y-61755277D01*
X223028254Y-61752805D01*
X223217977Y-61736207D01*
X223429330Y-61679575D01*
X223627639Y-61587102D01*
X223806877Y-61461598D01*
X223912319Y-61356156D01*
X223973642Y-61322671D01*
X224043334Y-61327655D01*
X224087681Y-61356156D01*
X224193123Y-61461598D01*
X224372361Y-61587102D01*
X224570670Y-61679575D01*
X224782023Y-61736207D01*
X224964926Y-61752208D01*
X224999998Y-61755277D01*
X225000000Y-61755277D01*
X225000002Y-61755277D01*
X225028254Y-61752805D01*
X225217977Y-61736207D01*
X225429330Y-61679575D01*
X225627639Y-61587102D01*
X225806877Y-61461598D01*
X225912319Y-61356156D01*
X225973642Y-61322671D01*
X226043334Y-61327655D01*
X226087681Y-61356156D01*
X226193123Y-61461598D01*
X226372361Y-61587102D01*
X226570670Y-61679575D01*
X226782023Y-61736207D01*
X226964926Y-61752208D01*
X226999998Y-61755277D01*
X227000000Y-61755277D01*
X227000002Y-61755277D01*
X227028254Y-61752805D01*
X227217977Y-61736207D01*
X227429330Y-61679575D01*
X227627639Y-61587102D01*
X227806877Y-61461598D01*
X227912319Y-61356156D01*
X227973642Y-61322671D01*
X228043334Y-61327655D01*
X228087681Y-61356156D01*
X228193123Y-61461598D01*
X228372361Y-61587102D01*
X228570670Y-61679575D01*
X228782023Y-61736207D01*
X228964926Y-61752208D01*
X228999998Y-61755277D01*
X229000000Y-61755277D01*
X229000002Y-61755277D01*
X229028254Y-61752805D01*
X229217977Y-61736207D01*
X229429330Y-61679575D01*
X229627639Y-61587102D01*
X229806877Y-61461598D01*
X229912319Y-61356156D01*
X229973642Y-61322671D01*
X230043334Y-61327655D01*
X230087681Y-61356156D01*
X230193123Y-61461598D01*
X230372361Y-61587102D01*
X230570670Y-61679575D01*
X230782023Y-61736207D01*
X230964926Y-61752208D01*
X230999998Y-61755277D01*
X231000000Y-61755277D01*
X231000002Y-61755277D01*
X231028254Y-61752805D01*
X231217977Y-61736207D01*
X231429330Y-61679575D01*
X231627639Y-61587102D01*
X231806877Y-61461598D01*
X231912319Y-61356156D01*
X231973642Y-61322671D01*
X232043334Y-61327655D01*
X232087681Y-61356156D01*
X232193123Y-61461598D01*
X232372361Y-61587102D01*
X232570670Y-61679575D01*
X232782023Y-61736207D01*
X232964926Y-61752208D01*
X232999998Y-61755277D01*
X233000000Y-61755277D01*
X233000002Y-61755277D01*
X233028254Y-61752805D01*
X233217977Y-61736207D01*
X233429330Y-61679575D01*
X233627639Y-61587102D01*
X233806877Y-61461598D01*
X233961598Y-61306877D01*
X234087102Y-61127639D01*
X234179575Y-60929330D01*
X234236207Y-60717977D01*
X234255277Y-60500000D01*
X234255233Y-60499500D01*
X234251569Y-60457618D01*
X234236207Y-60282023D01*
X234179575Y-60070670D01*
X234087102Y-59872362D01*
X234087100Y-59872359D01*
X234087099Y-59872357D01*
X233961597Y-59693121D01*
X233856156Y-59587680D01*
X233822671Y-59526357D01*
X233827655Y-59456665D01*
X233856152Y-59412322D01*
X233961598Y-59306877D01*
X234087102Y-59127639D01*
X234179575Y-58929330D01*
X234236207Y-58717977D01*
X234255277Y-58500000D01*
X234236207Y-58282023D01*
X234179575Y-58070670D01*
X234087102Y-57872362D01*
X234087100Y-57872359D01*
X234087099Y-57872357D01*
X233961599Y-57693124D01*
X233912318Y-57643843D01*
X233806877Y-57538402D01*
X233668978Y-57441844D01*
X233627638Y-57412897D01*
X233519486Y-57362465D01*
X233484210Y-57337764D01*
X233129409Y-56982962D01*
X233192993Y-56965925D01*
X233307007Y-56900099D01*
X233400099Y-56807007D01*
X233465925Y-56692993D01*
X233482962Y-56629409D01*
X234043124Y-57189570D01*
X234086668Y-57127385D01*
X234086669Y-57127383D01*
X234179100Y-56929164D01*
X234179105Y-56929150D01*
X234235710Y-56717894D01*
X234235712Y-56717884D01*
X234254775Y-56500000D01*
X234254775Y-56499999D01*
X234235712Y-56282115D01*
X234235710Y-56282105D01*
X234179105Y-56070849D01*
X234179101Y-56070840D01*
X234086666Y-55872612D01*
X234086662Y-55872606D01*
X234040690Y-55806951D01*
X234018362Y-55740745D01*
X234035372Y-55672978D01*
X234067953Y-55636560D01*
X234088353Y-55621288D01*
X236649500Y-55621288D01*
X236681161Y-55861785D01*
X236743947Y-56096104D01*
X236820996Y-56282115D01*
X236836776Y-56320212D01*
X236958064Y-56530289D01*
X236958066Y-56530292D01*
X236958067Y-56530293D01*
X237105733Y-56722736D01*
X237105739Y-56722743D01*
X237277256Y-56894260D01*
X237277262Y-56894265D01*
X237469711Y-57041936D01*
X237679788Y-57163224D01*
X237903900Y-57256054D01*
X238138211Y-57318838D01*
X238318586Y-57342584D01*
X238378711Y-57350500D01*
X238378712Y-57350500D01*
X238621289Y-57350500D01*
X238669388Y-57344167D01*
X238861789Y-57318838D01*
X239096100Y-57256054D01*
X239320212Y-57163224D01*
X239530289Y-57041936D01*
X239722738Y-56894265D01*
X239894265Y-56722738D01*
X240041936Y-56530289D01*
X240163224Y-56320212D01*
X240256054Y-56096100D01*
X240318838Y-55861789D01*
X240350500Y-55621288D01*
X240350500Y-55378712D01*
X240318838Y-55138211D01*
X240256054Y-54903900D01*
X240163224Y-54679788D01*
X240041936Y-54469711D01*
X239894265Y-54277262D01*
X239894260Y-54277256D01*
X239722743Y-54105739D01*
X239722736Y-54105733D01*
X239530293Y-53958067D01*
X239530292Y-53958066D01*
X239530289Y-53958064D01*
X239320212Y-53836776D01*
X239320205Y-53836773D01*
X239096104Y-53743947D01*
X238906431Y-53693124D01*
X238861789Y-53681162D01*
X238861788Y-53681161D01*
X238861785Y-53681161D01*
X238621289Y-53649500D01*
X238621288Y-53649500D01*
X238378712Y-53649500D01*
X238378711Y-53649500D01*
X238138214Y-53681161D01*
X237903895Y-53743947D01*
X237679794Y-53836773D01*
X237679785Y-53836777D01*
X237469706Y-53958067D01*
X237277263Y-54105733D01*
X237277256Y-54105739D01*
X237105739Y-54277256D01*
X237105733Y-54277263D01*
X236958067Y-54469706D01*
X236958064Y-54469710D01*
X236958064Y-54469711D01*
X236941817Y-54497851D01*
X236836777Y-54679785D01*
X236836773Y-54679794D01*
X236743947Y-54903895D01*
X236681161Y-55138214D01*
X236649500Y-55378711D01*
X236649500Y-55621288D01*
X234088353Y-55621288D01*
X234107191Y-55607186D01*
X234193350Y-55492093D01*
X234193354Y-55492086D01*
X234243596Y-55357379D01*
X234243598Y-55357372D01*
X234249999Y-55297844D01*
X234250000Y-55297827D01*
X234250000Y-54750000D01*
X233433012Y-54750000D01*
X233465925Y-54692993D01*
X233500000Y-54565826D01*
X233500000Y-54434174D01*
X233465925Y-54307007D01*
X233433012Y-54250000D01*
X234250000Y-54250000D01*
X234250000Y-53702172D01*
X234249999Y-53702155D01*
X234243598Y-53642627D01*
X234243596Y-53642620D01*
X234193354Y-53507913D01*
X234193350Y-53507906D01*
X234107190Y-53392812D01*
X234107187Y-53392809D01*
X233992093Y-53306649D01*
X233992086Y-53306645D01*
X233857379Y-53256403D01*
X233857372Y-53256401D01*
X233797844Y-53250000D01*
X233250000Y-53250000D01*
X233250000Y-54066988D01*
X233192993Y-54034075D01*
X233065826Y-54000000D01*
X232934174Y-54000000D01*
X232807007Y-54034075D01*
X232750000Y-54066988D01*
X232750000Y-53250000D01*
X232202155Y-53250000D01*
X232142627Y-53256401D01*
X232142620Y-53256403D01*
X232007913Y-53306645D01*
X232007906Y-53306649D01*
X231892813Y-53392808D01*
X231863439Y-53432047D01*
X231807504Y-53473917D01*
X231737812Y-53478900D01*
X231693050Y-53459309D01*
X231627392Y-53413336D01*
X231627388Y-53413333D01*
X231429159Y-53320898D01*
X231429150Y-53320894D01*
X231217894Y-53264289D01*
X231217884Y-53264287D01*
X231000001Y-53245225D01*
X230999999Y-53245225D01*
X230782115Y-53264287D01*
X230782105Y-53264289D01*
X230570849Y-53320894D01*
X230570840Y-53320898D01*
X230372613Y-53413333D01*
X230310427Y-53456874D01*
X230870590Y-54017037D01*
X230807007Y-54034075D01*
X230692993Y-54099901D01*
X230599901Y-54192993D01*
X230534075Y-54307007D01*
X230517037Y-54370590D01*
X230162234Y-54015788D01*
X230137533Y-53980512D01*
X230127067Y-53958067D01*
X230087102Y-53872362D01*
X229967934Y-53702172D01*
X229961599Y-53693124D01*
X229911095Y-53642620D01*
X229806877Y-53538402D01*
X229628265Y-53413336D01*
X229627638Y-53412897D01*
X229528484Y-53366661D01*
X229429330Y-53320425D01*
X229429326Y-53320424D01*
X229429322Y-53320422D01*
X229217977Y-53263793D01*
X229000002Y-53244723D01*
X228999998Y-53244723D01*
X228866516Y-53256401D01*
X228782023Y-53263793D01*
X228782020Y-53263793D01*
X228570677Y-53320422D01*
X228570668Y-53320426D01*
X228372361Y-53412898D01*
X228372357Y-53412900D01*
X228193124Y-53538400D01*
X228087680Y-53643844D01*
X228026357Y-53677328D01*
X227956665Y-53672344D01*
X227912318Y-53643843D01*
X227806881Y-53538406D01*
X227806877Y-53538402D01*
X227628265Y-53413336D01*
X227627638Y-53412897D01*
X227528484Y-53366661D01*
X227429330Y-53320425D01*
X227429326Y-53320424D01*
X227429322Y-53320422D01*
X227217977Y-53263793D01*
X227000002Y-53244723D01*
X226999998Y-53244723D01*
X226866516Y-53256401D01*
X226782023Y-53263793D01*
X226782020Y-53263793D01*
X226570677Y-53320422D01*
X226570668Y-53320426D01*
X226372361Y-53412898D01*
X226372357Y-53412900D01*
X226193124Y-53538400D01*
X226087680Y-53643844D01*
X226026357Y-53677328D01*
X225956665Y-53672344D01*
X225912318Y-53643843D01*
X225806881Y-53538406D01*
X225806877Y-53538402D01*
X225628265Y-53413336D01*
X225627638Y-53412897D01*
X225528484Y-53366661D01*
X225429330Y-53320425D01*
X225429326Y-53320424D01*
X225429322Y-53320422D01*
X225217977Y-53263793D01*
X225000002Y-53244723D01*
X224999998Y-53244723D01*
X224866516Y-53256401D01*
X224782023Y-53263793D01*
X224782020Y-53263793D01*
X224570677Y-53320422D01*
X224570668Y-53320426D01*
X224372361Y-53412898D01*
X224372357Y-53412900D01*
X224193124Y-53538400D01*
X224087680Y-53643844D01*
X224026357Y-53677328D01*
X223956665Y-53672344D01*
X223912318Y-53643843D01*
X223806881Y-53538406D01*
X223806877Y-53538402D01*
X223628265Y-53413336D01*
X223627638Y-53412897D01*
X223528484Y-53366661D01*
X223429330Y-53320425D01*
X223429326Y-53320424D01*
X223429322Y-53320422D01*
X223217977Y-53263793D01*
X223000002Y-53244723D01*
X222999998Y-53244723D01*
X222866516Y-53256401D01*
X222782023Y-53263793D01*
X222782020Y-53263793D01*
X222570677Y-53320422D01*
X222570668Y-53320426D01*
X222372361Y-53412898D01*
X222372357Y-53412900D01*
X222193124Y-53538400D01*
X222087680Y-53643844D01*
X222026357Y-53677328D01*
X221956665Y-53672344D01*
X221912318Y-53643843D01*
X221806881Y-53538406D01*
X221806877Y-53538402D01*
X221628265Y-53413336D01*
X221627638Y-53412897D01*
X221528484Y-53366661D01*
X221429330Y-53320425D01*
X221429326Y-53320424D01*
X221429322Y-53320422D01*
X221217977Y-53263793D01*
X221000002Y-53244723D01*
X220999998Y-53244723D01*
X220866516Y-53256401D01*
X220782023Y-53263793D01*
X220782020Y-53263793D01*
X220570677Y-53320422D01*
X220570668Y-53320426D01*
X220372361Y-53412898D01*
X220372357Y-53412900D01*
X220193124Y-53538400D01*
X220087680Y-53643844D01*
X220026357Y-53677328D01*
X219956665Y-53672344D01*
X219912318Y-53643843D01*
X219806881Y-53538406D01*
X219806877Y-53538402D01*
X219628265Y-53413336D01*
X219627638Y-53412897D01*
X219528484Y-53366661D01*
X219429330Y-53320425D01*
X219429326Y-53320424D01*
X219429322Y-53320422D01*
X219217977Y-53263793D01*
X219000002Y-53244723D01*
X218999998Y-53244723D01*
X218866516Y-53256401D01*
X218782023Y-53263793D01*
X218782020Y-53263793D01*
X218570677Y-53320422D01*
X218570668Y-53320426D01*
X218372361Y-53412898D01*
X218372357Y-53412900D01*
X218193124Y-53538400D01*
X218087680Y-53643844D01*
X218026357Y-53677328D01*
X217956665Y-53672344D01*
X217912318Y-53643843D01*
X217806881Y-53538406D01*
X217806877Y-53538402D01*
X217628265Y-53413336D01*
X217627638Y-53412897D01*
X217528484Y-53366661D01*
X217429330Y-53320425D01*
X217429326Y-53320424D01*
X217429322Y-53320422D01*
X217217977Y-53263793D01*
X217000002Y-53244723D01*
X216999998Y-53244723D01*
X216866516Y-53256401D01*
X216782023Y-53263793D01*
X216782020Y-53263793D01*
X216570677Y-53320422D01*
X216570668Y-53320426D01*
X216372361Y-53412898D01*
X216372357Y-53412900D01*
X216193124Y-53538400D01*
X216087680Y-53643844D01*
X216026357Y-53677328D01*
X215956665Y-53672344D01*
X215912318Y-53643843D01*
X215806881Y-53538406D01*
X215806877Y-53538402D01*
X215628265Y-53413336D01*
X215627638Y-53412897D01*
X215528484Y-53366661D01*
X215429330Y-53320425D01*
X215429326Y-53320424D01*
X215429322Y-53320422D01*
X215217977Y-53263793D01*
X215000002Y-53244723D01*
X214999998Y-53244723D01*
X214866516Y-53256401D01*
X214782023Y-53263793D01*
X214782020Y-53263793D01*
X214570677Y-53320422D01*
X214570668Y-53320426D01*
X214372361Y-53412898D01*
X214372357Y-53412900D01*
X214193124Y-53538400D01*
X214087680Y-53643844D01*
X214026357Y-53677328D01*
X213956665Y-53672344D01*
X213912318Y-53643843D01*
X213806881Y-53538406D01*
X213806877Y-53538402D01*
X213628265Y-53413336D01*
X213627638Y-53412897D01*
X213528484Y-53366661D01*
X213429330Y-53320425D01*
X213429326Y-53320424D01*
X213429322Y-53320422D01*
X213217977Y-53263793D01*
X213000002Y-53244723D01*
X212999998Y-53244723D01*
X212866516Y-53256401D01*
X212782023Y-53263793D01*
X212782020Y-53263793D01*
X212570677Y-53320422D01*
X212570668Y-53320426D01*
X212372361Y-53412898D01*
X212372357Y-53412900D01*
X212193124Y-53538400D01*
X212087680Y-53643844D01*
X212026357Y-53677328D01*
X211956665Y-53672344D01*
X211912318Y-53643843D01*
X211806881Y-53538406D01*
X211806877Y-53538402D01*
X211628265Y-53413336D01*
X211627638Y-53412897D01*
X211528484Y-53366661D01*
X211429330Y-53320425D01*
X211429326Y-53320424D01*
X211429322Y-53320422D01*
X211217977Y-53263793D01*
X211000002Y-53244723D01*
X210999998Y-53244723D01*
X210866516Y-53256401D01*
X210782023Y-53263793D01*
X210782020Y-53263793D01*
X210570677Y-53320422D01*
X210570668Y-53320426D01*
X210372361Y-53412898D01*
X210372357Y-53412900D01*
X210193124Y-53538400D01*
X210087680Y-53643844D01*
X210026357Y-53677328D01*
X209956665Y-53672344D01*
X209912318Y-53643843D01*
X209806881Y-53538406D01*
X209806877Y-53538402D01*
X209628265Y-53413336D01*
X209627638Y-53412897D01*
X209528484Y-53366661D01*
X209429330Y-53320425D01*
X209429326Y-53320424D01*
X209429322Y-53320422D01*
X209217977Y-53263793D01*
X209000002Y-53244723D01*
X208999998Y-53244723D01*
X208866516Y-53256401D01*
X208782023Y-53263793D01*
X208782020Y-53263793D01*
X208570677Y-53320422D01*
X208570668Y-53320426D01*
X208372361Y-53412898D01*
X208372357Y-53412900D01*
X208193124Y-53538400D01*
X208087680Y-53643844D01*
X208026357Y-53677328D01*
X207956665Y-53672344D01*
X207912318Y-53643843D01*
X207806881Y-53538406D01*
X207806877Y-53538402D01*
X207628265Y-53413336D01*
X207627638Y-53412897D01*
X207528484Y-53366661D01*
X207429330Y-53320425D01*
X207429326Y-53320424D01*
X207429322Y-53320422D01*
X207217977Y-53263793D01*
X207000002Y-53244723D01*
X206999998Y-53244723D01*
X206866516Y-53256401D01*
X206782023Y-53263793D01*
X206782020Y-53263793D01*
X206570677Y-53320422D01*
X206570668Y-53320426D01*
X206372361Y-53412898D01*
X206372357Y-53412900D01*
X206193124Y-53538400D01*
X206087680Y-53643844D01*
X206026357Y-53677328D01*
X205956665Y-53672344D01*
X205912318Y-53643843D01*
X205806881Y-53538406D01*
X205806877Y-53538402D01*
X205628265Y-53413336D01*
X205627638Y-53412897D01*
X205528484Y-53366661D01*
X205429330Y-53320425D01*
X205429326Y-53320424D01*
X205429322Y-53320422D01*
X205217977Y-53263793D01*
X205000002Y-53244723D01*
X204999998Y-53244723D01*
X204866516Y-53256401D01*
X204782023Y-53263793D01*
X204782020Y-53263793D01*
X204570677Y-53320422D01*
X204570668Y-53320426D01*
X204372361Y-53412898D01*
X204372357Y-53412900D01*
X204193124Y-53538400D01*
X204087680Y-53643844D01*
X204026357Y-53677328D01*
X203956665Y-53672344D01*
X203912318Y-53643843D01*
X203806881Y-53538406D01*
X203806877Y-53538402D01*
X203628265Y-53413336D01*
X203627638Y-53412897D01*
X203528484Y-53366661D01*
X203429330Y-53320425D01*
X203429326Y-53320424D01*
X203429322Y-53320422D01*
X203217977Y-53263793D01*
X203000002Y-53244723D01*
X202999998Y-53244723D01*
X202866516Y-53256401D01*
X202782023Y-53263793D01*
X202782020Y-53263793D01*
X202570677Y-53320422D01*
X202570668Y-53320426D01*
X202372361Y-53412898D01*
X202372357Y-53412900D01*
X202193124Y-53538400D01*
X202087680Y-53643844D01*
X202026357Y-53677328D01*
X201956665Y-53672344D01*
X201912318Y-53643843D01*
X201806881Y-53538406D01*
X201806877Y-53538402D01*
X201628265Y-53413336D01*
X201627638Y-53412897D01*
X201528484Y-53366661D01*
X201429330Y-53320425D01*
X201429326Y-53320424D01*
X201429322Y-53320422D01*
X201217977Y-53263793D01*
X201000002Y-53244723D01*
X200999998Y-53244723D01*
X200866516Y-53256401D01*
X200782023Y-53263793D01*
X200782020Y-53263793D01*
X200570677Y-53320422D01*
X200570668Y-53320426D01*
X200372361Y-53412898D01*
X200372357Y-53412900D01*
X200193124Y-53538400D01*
X200087680Y-53643844D01*
X200026357Y-53677328D01*
X199956665Y-53672344D01*
X199912318Y-53643843D01*
X199806881Y-53538406D01*
X199806877Y-53538402D01*
X199628265Y-53413336D01*
X199627638Y-53412897D01*
X199528484Y-53366661D01*
X199429330Y-53320425D01*
X199429326Y-53320424D01*
X199429322Y-53320422D01*
X199217977Y-53263793D01*
X199000002Y-53244723D01*
X198999998Y-53244723D01*
X198866516Y-53256401D01*
X198782023Y-53263793D01*
X198782020Y-53263793D01*
X198570677Y-53320422D01*
X198570668Y-53320426D01*
X198372361Y-53412898D01*
X198372357Y-53412900D01*
X198193124Y-53538400D01*
X198087680Y-53643844D01*
X198026357Y-53677328D01*
X197956665Y-53672344D01*
X197912318Y-53643843D01*
X197806881Y-53538406D01*
X197806877Y-53538402D01*
X197628265Y-53413336D01*
X197627638Y-53412897D01*
X197528484Y-53366661D01*
X197429330Y-53320425D01*
X197429326Y-53320424D01*
X197429322Y-53320422D01*
X197217977Y-53263793D01*
X197000002Y-53244723D01*
X196999998Y-53244723D01*
X196866516Y-53256401D01*
X196782023Y-53263793D01*
X196782020Y-53263793D01*
X196570677Y-53320422D01*
X196570668Y-53320426D01*
X196372361Y-53412898D01*
X196372357Y-53412900D01*
X196193124Y-53538400D01*
X196087680Y-53643844D01*
X196026357Y-53677328D01*
X195956665Y-53672344D01*
X195912318Y-53643843D01*
X195806881Y-53538406D01*
X195806877Y-53538402D01*
X195628265Y-53413336D01*
X195627638Y-53412897D01*
X195528484Y-53366661D01*
X195429330Y-53320425D01*
X195429326Y-53320424D01*
X195429322Y-53320422D01*
X195217977Y-53263793D01*
X195000002Y-53244723D01*
X194999998Y-53244723D01*
X194866516Y-53256401D01*
X194782023Y-53263793D01*
X194782020Y-53263793D01*
X194570677Y-53320422D01*
X194570668Y-53320426D01*
X194372361Y-53412898D01*
X194372357Y-53412900D01*
X194193124Y-53538400D01*
X194087680Y-53643844D01*
X194026357Y-53677328D01*
X193956665Y-53672344D01*
X193912318Y-53643843D01*
X193806881Y-53538406D01*
X193806877Y-53538402D01*
X193628265Y-53413336D01*
X193627638Y-53412897D01*
X193528484Y-53366661D01*
X193429330Y-53320425D01*
X193429326Y-53320424D01*
X193429322Y-53320422D01*
X193217977Y-53263793D01*
X193000002Y-53244723D01*
X192999998Y-53244723D01*
X192866516Y-53256401D01*
X192782023Y-53263793D01*
X192782020Y-53263793D01*
X192570677Y-53320422D01*
X192570668Y-53320426D01*
X192372361Y-53412898D01*
X192372357Y-53412900D01*
X192193124Y-53538400D01*
X192087680Y-53643844D01*
X192026357Y-53677328D01*
X191956665Y-53672344D01*
X191912318Y-53643843D01*
X191806881Y-53538406D01*
X191806877Y-53538402D01*
X191628265Y-53413336D01*
X191627638Y-53412897D01*
X191528484Y-53366661D01*
X191429330Y-53320425D01*
X191429326Y-53320424D01*
X191429322Y-53320422D01*
X191217977Y-53263793D01*
X191000002Y-53244723D01*
X190999998Y-53244723D01*
X190866516Y-53256401D01*
X190782023Y-53263793D01*
X190782020Y-53263793D01*
X190570677Y-53320422D01*
X190570668Y-53320426D01*
X190372361Y-53412898D01*
X190372357Y-53412900D01*
X190193124Y-53538400D01*
X190087680Y-53643844D01*
X190026357Y-53677328D01*
X189956665Y-53672344D01*
X189912318Y-53643843D01*
X189806881Y-53538406D01*
X189806877Y-53538402D01*
X189628265Y-53413336D01*
X189627638Y-53412897D01*
X189528484Y-53366661D01*
X189429330Y-53320425D01*
X189429326Y-53320424D01*
X189429322Y-53320422D01*
X189217977Y-53263793D01*
X189000002Y-53244723D01*
X188999998Y-53244723D01*
X188866516Y-53256401D01*
X188782023Y-53263793D01*
X188782020Y-53263793D01*
X188570677Y-53320422D01*
X188570668Y-53320426D01*
X188372361Y-53412898D01*
X188372357Y-53412900D01*
X188193124Y-53538400D01*
X188087680Y-53643844D01*
X188026357Y-53677328D01*
X187956665Y-53672344D01*
X187912318Y-53643843D01*
X187806881Y-53538406D01*
X187806877Y-53538402D01*
X187628265Y-53413336D01*
X187627638Y-53412897D01*
X187528484Y-53366661D01*
X187429330Y-53320425D01*
X187429326Y-53320424D01*
X187429322Y-53320422D01*
X187217977Y-53263793D01*
X187000002Y-53244723D01*
X186999998Y-53244723D01*
X186866516Y-53256401D01*
X186782023Y-53263793D01*
X186782020Y-53263793D01*
X186570677Y-53320422D01*
X186570668Y-53320426D01*
X186372361Y-53412898D01*
X186372357Y-53412900D01*
X186193124Y-53538400D01*
X186087680Y-53643844D01*
X186026357Y-53677328D01*
X185956665Y-53672344D01*
X185912318Y-53643843D01*
X185806881Y-53538406D01*
X185806877Y-53538402D01*
X185628265Y-53413336D01*
X185627638Y-53412897D01*
X185528484Y-53366661D01*
X185429330Y-53320425D01*
X185429326Y-53320424D01*
X185429322Y-53320422D01*
X185217977Y-53263793D01*
X185000002Y-53244723D01*
X184999998Y-53244723D01*
X184866516Y-53256401D01*
X184782023Y-53263793D01*
X184782020Y-53263793D01*
X184570677Y-53320422D01*
X184570668Y-53320426D01*
X184372361Y-53412898D01*
X184372357Y-53412900D01*
X184193124Y-53538400D01*
X184087680Y-53643844D01*
X184026357Y-53677328D01*
X183956665Y-53672344D01*
X183912318Y-53643843D01*
X183806881Y-53538406D01*
X183806877Y-53538402D01*
X183628265Y-53413336D01*
X183627638Y-53412897D01*
X183528484Y-53366661D01*
X183429330Y-53320425D01*
X183429326Y-53320424D01*
X183429322Y-53320422D01*
X183217977Y-53263793D01*
X183000002Y-53244723D01*
X182999998Y-53244723D01*
X182866516Y-53256401D01*
X182782023Y-53263793D01*
X182782020Y-53263793D01*
X182570677Y-53320422D01*
X182570668Y-53320426D01*
X182372361Y-53412898D01*
X182372357Y-53412900D01*
X182193124Y-53538400D01*
X182087680Y-53643844D01*
X182026357Y-53677328D01*
X181956665Y-53672344D01*
X181912318Y-53643843D01*
X181806881Y-53538406D01*
X181806877Y-53538402D01*
X181628265Y-53413336D01*
X181627638Y-53412897D01*
X181528484Y-53366661D01*
X181429330Y-53320425D01*
X181429326Y-53320424D01*
X181429322Y-53320422D01*
X181217977Y-53263793D01*
X181000002Y-53244723D01*
X180999998Y-53244723D01*
X180866516Y-53256401D01*
X180782023Y-53263793D01*
X180782020Y-53263793D01*
X180570677Y-53320422D01*
X180570668Y-53320426D01*
X180372361Y-53412898D01*
X180372357Y-53412900D01*
X180193124Y-53538400D01*
X180087680Y-53643844D01*
X180026357Y-53677328D01*
X179956665Y-53672344D01*
X179912318Y-53643843D01*
X179806881Y-53538406D01*
X179806877Y-53538402D01*
X179628265Y-53413336D01*
X179627638Y-53412897D01*
X179528484Y-53366661D01*
X179429330Y-53320425D01*
X179429326Y-53320424D01*
X179429322Y-53320422D01*
X179217977Y-53263793D01*
X179000002Y-53244723D01*
X178999998Y-53244723D01*
X178866516Y-53256401D01*
X178782023Y-53263793D01*
X178782020Y-53263793D01*
X178570677Y-53320422D01*
X178570668Y-53320426D01*
X178372361Y-53412898D01*
X178372357Y-53412900D01*
X178193124Y-53538400D01*
X178087680Y-53643844D01*
X178026357Y-53677328D01*
X177956665Y-53672344D01*
X177912318Y-53643843D01*
X177806881Y-53538406D01*
X177806877Y-53538402D01*
X177628265Y-53413336D01*
X177627638Y-53412897D01*
X177528484Y-53366661D01*
X177429330Y-53320425D01*
X177429326Y-53320424D01*
X177429322Y-53320422D01*
X177217977Y-53263793D01*
X177000002Y-53244723D01*
X176999998Y-53244723D01*
X176866516Y-53256401D01*
X176782023Y-53263793D01*
X176782020Y-53263793D01*
X176570677Y-53320422D01*
X176570668Y-53320426D01*
X176372361Y-53412898D01*
X176372357Y-53412900D01*
X176193121Y-53538402D01*
X176038402Y-53693121D01*
X175912899Y-53872359D01*
X175862466Y-53980512D01*
X175837765Y-54015787D01*
X175482962Y-54370589D01*
X175465925Y-54307007D01*
X175400099Y-54192993D01*
X175307007Y-54099901D01*
X175192993Y-54034075D01*
X175129409Y-54017037D01*
X175689571Y-53456874D01*
X175627387Y-53413333D01*
X175429159Y-53320898D01*
X175429150Y-53320894D01*
X175217894Y-53264289D01*
X175217884Y-53264287D01*
X175000001Y-53245225D01*
X174999999Y-53245225D01*
X174782115Y-53264287D01*
X174782105Y-53264289D01*
X174570849Y-53320894D01*
X174570840Y-53320898D01*
X174372613Y-53413333D01*
X174310428Y-53456874D01*
X174870591Y-54017037D01*
X174807007Y-54034075D01*
X174692993Y-54099901D01*
X174599901Y-54192993D01*
X174534075Y-54307007D01*
X174517037Y-54370591D01*
X173956874Y-53810428D01*
X173913333Y-53872613D01*
X173820898Y-54070840D01*
X173820894Y-54070849D01*
X173764289Y-54282105D01*
X173764287Y-54282115D01*
X173745225Y-54499999D01*
X173745225Y-54500000D01*
X173764287Y-54717884D01*
X173764289Y-54717894D01*
X173820894Y-54929150D01*
X173820898Y-54929159D01*
X173913333Y-55127387D01*
X173956874Y-55189571D01*
X174517037Y-54629408D01*
X174534075Y-54692993D01*
X174599901Y-54807007D01*
X174692993Y-54900099D01*
X174807007Y-54965925D01*
X174870590Y-54982962D01*
X174515787Y-55337765D01*
X174480512Y-55362466D01*
X174372359Y-55412899D01*
X174193121Y-55538402D01*
X174038402Y-55693121D01*
X173912900Y-55872357D01*
X173912898Y-55872361D01*
X173820426Y-56070668D01*
X173820422Y-56070677D01*
X173763793Y-56282020D01*
X173763793Y-56282024D01*
X173744723Y-56499997D01*
X173744723Y-56500002D01*
X173763793Y-56717975D01*
X173763793Y-56717979D01*
X173820422Y-56929322D01*
X173820424Y-56929326D01*
X173820425Y-56929330D01*
X173853379Y-57000000D01*
X173912897Y-57127638D01*
X173912898Y-57127639D01*
X174038402Y-57306877D01*
X174038406Y-57306881D01*
X174143843Y-57412318D01*
X174177328Y-57473641D01*
X174172344Y-57543333D01*
X174143844Y-57587680D01*
X174038400Y-57693124D01*
X173912900Y-57872357D01*
X173912898Y-57872361D01*
X173820426Y-58070668D01*
X173820422Y-58070677D01*
X173763793Y-58282020D01*
X173763793Y-58282024D01*
X173744723Y-58499997D01*
X173744723Y-58500002D01*
X173763793Y-58717975D01*
X173763793Y-58717979D01*
X173820422Y-58929322D01*
X173820424Y-58929326D01*
X173820425Y-58929330D01*
X173866661Y-59028484D01*
X173912897Y-59127638D01*
X173912898Y-59127639D01*
X174038402Y-59306877D01*
X174038406Y-59306881D01*
X174143843Y-59412318D01*
X174177328Y-59473641D01*
X174172344Y-59543333D01*
X174143844Y-59587680D01*
X174038400Y-59693124D01*
X173912900Y-59872357D01*
X173912898Y-59872361D01*
X173820426Y-60070668D01*
X173820422Y-60070677D01*
X173763793Y-60282020D01*
X173763793Y-60282024D01*
X173744767Y-60499500D01*
X173744723Y-60500000D01*
X162500500Y-60500000D01*
X162500500Y-55621288D01*
X167149500Y-55621288D01*
X167181161Y-55861785D01*
X167243947Y-56096104D01*
X167320996Y-56282115D01*
X167336776Y-56320212D01*
X167458064Y-56530289D01*
X167458066Y-56530292D01*
X167458067Y-56530293D01*
X167605733Y-56722736D01*
X167605739Y-56722743D01*
X167777256Y-56894260D01*
X167777262Y-56894265D01*
X167969711Y-57041936D01*
X168179788Y-57163224D01*
X168403900Y-57256054D01*
X168638211Y-57318838D01*
X168818586Y-57342584D01*
X168878711Y-57350500D01*
X168878712Y-57350500D01*
X169121289Y-57350500D01*
X169169388Y-57344167D01*
X169361789Y-57318838D01*
X169596100Y-57256054D01*
X169820212Y-57163224D01*
X170030289Y-57041936D01*
X170222738Y-56894265D01*
X170394265Y-56722738D01*
X170541936Y-56530289D01*
X170663224Y-56320212D01*
X170756054Y-56096100D01*
X170818838Y-55861789D01*
X170850500Y-55621288D01*
X170850500Y-55378712D01*
X170818838Y-55138211D01*
X170756054Y-54903900D01*
X170663224Y-54679788D01*
X170541936Y-54469711D01*
X170394265Y-54277262D01*
X170394260Y-54277256D01*
X170222743Y-54105739D01*
X170222736Y-54105733D01*
X170030293Y-53958067D01*
X170030292Y-53958066D01*
X170030289Y-53958064D01*
X169820212Y-53836776D01*
X169820205Y-53836773D01*
X169596104Y-53743947D01*
X169406431Y-53693124D01*
X169361789Y-53681162D01*
X169361788Y-53681161D01*
X169361785Y-53681161D01*
X169121289Y-53649500D01*
X169121288Y-53649500D01*
X168878712Y-53649500D01*
X168878711Y-53649500D01*
X168638214Y-53681161D01*
X168403895Y-53743947D01*
X168179794Y-53836773D01*
X168179785Y-53836777D01*
X167969706Y-53958067D01*
X167777263Y-54105733D01*
X167777256Y-54105739D01*
X167605739Y-54277256D01*
X167605733Y-54277263D01*
X167458067Y-54469706D01*
X167458064Y-54469710D01*
X167458064Y-54469711D01*
X167441817Y-54497851D01*
X167336777Y-54679785D01*
X167336773Y-54679794D01*
X167243947Y-54903895D01*
X167181161Y-55138214D01*
X167149500Y-55378711D01*
X167149500Y-55621288D01*
X162500500Y-55621288D01*
X162500500Y-51124500D01*
X162520185Y-51057461D01*
X162572989Y-51011706D01*
X162624500Y-51000500D01*
X246375500Y-51000500D01*
X246442539Y-51020185D01*
G37*
%TD.AperFunction*%
%TD*%
M02*
