M48
; DRILL file {KiCad 8.0.0} date 2025-01-08T23:25:07+0200
; FORMAT={-:-/ absolute / inch / decimal}
; #@! TF.CreationDate,2025-01-08T23:25:07+02:00
; #@! TF.GenerationSoftware,Kicad,Pcbnew,8.0.0
; #@! TF.FileFunction,Plated,1,4,PTH
FMAT,2
INCH
; #@! TA.AperFunction,Plated,PTH,ComponentDrill
T1C0.0276
; #@! TA.AperFunction,Plated,PTH,ComponentDrill
T2C0.0300
; #@! TA.AperFunction,Plated,PTH,ComponentDrill
T3C0.0394
; #@! TA.AperFunction,Plated,PTH,ComponentDrill
T4C0.0400
; #@! TA.AperFunction,Plated,PTH,ComponentDrill
T5C0.1083
%
G90
G05
T1
X7.5197Y-3.1709
X7.6969Y-3.089
X7.6969Y-3.289
T2
X7.5197Y-2.9709
T3
X6.6535Y-3.1488
X6.6535Y-3.2488
X6.6535Y-3.3488
X6.6535Y-3.4488
X6.6535Y-3.5488
X6.6535Y-3.6488
X6.6535Y-3.7488
X6.6535Y-3.8488
X6.6535Y-3.9488
X6.6535Y-4.0488
X6.6535Y-4.1488
X6.6535Y-4.2488
X6.6535Y-4.3488
X6.6535Y-4.4488
X6.6535Y-4.5488
X6.6535Y-4.6488
X6.6535Y-4.7488
X6.6535Y-4.8488
X6.6535Y-4.9488
X6.6535Y-5.0488
X6.6535Y-5.1488
X6.6535Y-5.2488
X6.6535Y-5.3488
X6.6535Y-5.4488
X6.8504Y-2.1457
X6.8504Y-2.2244
X6.8504Y-2.3031
X6.8504Y-2.3819
X6.9291Y-2.1457
X6.9291Y-2.2244
X6.9291Y-2.3031
X6.9291Y-2.3819
X7.0079Y-2.1457
X7.0079Y-2.2244
X7.0079Y-2.3031
X7.0079Y-2.3819
X7.0866Y-2.1457
X7.0866Y-2.2244
X7.0866Y-2.3031
X7.0866Y-2.3819
X7.1654Y-2.1457
X7.1654Y-2.2244
X7.1654Y-2.3031
X7.1654Y-2.3819
X7.2441Y-2.1457
X7.2441Y-2.2244
X7.2441Y-2.3031
X7.2441Y-2.3819
X7.3228Y-2.1457
X7.3228Y-2.2244
X7.3228Y-2.3031
X7.3228Y-2.3819
X7.3228Y-3.1488
X7.3228Y-3.2488
X7.3228Y-3.3488
X7.3228Y-3.4488
X7.3228Y-3.5488
X7.3228Y-3.6488
X7.3228Y-3.7488
X7.3228Y-3.8488
X7.3228Y-3.9488
X7.3228Y-4.0488
X7.3228Y-4.1488
X7.3228Y-4.2488
X7.3228Y-4.3488
X7.3228Y-4.4488
X7.3228Y-4.5488
X7.3228Y-4.6488
X7.3228Y-4.7488
X7.3228Y-4.8488
X7.3228Y-4.9488
X7.3228Y-5.0488
X7.3228Y-5.1488
X7.3228Y-5.2488
X7.3228Y-5.3488
X7.3228Y-5.4488
X7.4016Y-2.1457
X7.4016Y-2.2244
X7.4016Y-2.3031
X7.4016Y-2.3819
X7.4803Y-2.1457
X7.4803Y-2.2244
X7.4803Y-2.3031
X7.4803Y-2.3819
X7.5591Y-2.1457
X7.5591Y-2.2244
X7.5591Y-2.3031
X7.5591Y-2.3819
X7.6378Y-2.1457
X7.6378Y-2.2244
X7.6378Y-2.3031
X7.6378Y-2.3819
X7.7165Y-2.1457
X7.7165Y-2.2244
X7.7165Y-2.3031
X7.7165Y-2.3819
X7.7953Y-2.1457
X7.7953Y-2.2244
X7.7953Y-2.3031
X7.7953Y-2.3819
X7.874Y-2.1457
X7.874Y-2.2244
X7.874Y-2.3031
X7.874Y-2.3819
X7.9331Y-3.1488
X7.9331Y-3.2488
X7.9331Y-3.3488
X7.9331Y-3.4488
X7.9331Y-3.5488
X7.9331Y-3.6488
X7.9331Y-3.7488
X7.9331Y-3.8488
X7.9331Y-3.9488
X7.9331Y-4.0488
X7.9331Y-4.1488
X7.9331Y-4.2488
X7.9331Y-4.3488
X7.9331Y-4.4488
X7.9331Y-4.5488
X7.9331Y-4.6488
X7.9331Y-4.7488
X7.9331Y-4.8488
X7.9331Y-4.9488
X7.9331Y-5.0488
X7.9331Y-5.1488
X7.9331Y-5.2488
X7.9331Y-5.3488
X7.9331Y-5.4488
X7.9528Y-2.1457
X7.9528Y-2.2244
X7.9528Y-2.3031
X7.9528Y-2.3819
X8.0315Y-2.1457
X8.0315Y-2.2244
X8.0315Y-2.3031
X8.0315Y-2.3819
X8.0512Y-3.1488
X8.0512Y-3.2488
X8.0512Y-3.3488
X8.0512Y-3.4488
X8.0512Y-3.5488
X8.0512Y-3.6488
X8.0512Y-3.7488
X8.0512Y-3.8488
X8.0512Y-3.9488
X8.0512Y-4.0488
X8.0512Y-4.1488
X8.0512Y-4.2488
X8.0512Y-4.3488
X8.0512Y-4.4488
X8.0512Y-4.5488
X8.0512Y-4.6488
X8.0512Y-4.7488
X8.0512Y-4.8488
X8.0512Y-4.9488
X8.0512Y-5.0488
X8.0512Y-5.1488
X8.0512Y-5.2488
X8.0512Y-5.3488
X8.0512Y-5.4488
X8.1102Y-2.1457
X8.1102Y-2.2244
X8.1102Y-2.3031
X8.1102Y-2.3819
X8.189Y-2.1457
X8.189Y-2.2244
X8.189Y-2.3031
X8.189Y-2.3819
X8.2677Y-2.1457
X8.2677Y-2.2244
X8.2677Y-2.3031
X8.2677Y-2.3819
X8.3465Y-2.1457
X8.3465Y-2.2244
X8.3465Y-2.3031
X8.3465Y-2.3819
X8.4252Y-2.1457
X8.4252Y-2.2244
X8.4252Y-2.3031
X8.4252Y-2.3819
X8.5039Y-2.1457
X8.5039Y-2.2244
X8.5039Y-2.3031
X8.5039Y-2.3819
X8.5827Y-2.1457
X8.5827Y-2.2244
X8.5827Y-2.3031
X8.5827Y-2.3819
X8.6614Y-2.1457
X8.6614Y-2.2244
X8.6614Y-2.3031
X8.6614Y-2.3819
X8.7008Y-3.1488
X8.7008Y-3.2488
X8.7008Y-3.3488
X8.7008Y-3.4488
X8.7008Y-3.5488
X8.7008Y-3.6488
X8.7008Y-3.7488
X8.7008Y-3.8488
X8.7008Y-3.9488
X8.7008Y-4.0488
X8.7008Y-4.1488
X8.7008Y-4.2488
X8.7008Y-4.3488
X8.7008Y-4.4488
X8.7008Y-4.5488
X8.7008Y-4.6488
X8.7008Y-4.7488
X8.7008Y-4.8488
X8.7008Y-4.9488
X8.7008Y-5.0488
X8.7008Y-5.1488
X8.7008Y-5.2488
X8.7008Y-5.3488
X8.7008Y-5.4488
X8.7402Y-2.1457
X8.7402Y-2.2244
X8.7402Y-2.3031
X8.7402Y-2.3819
X8.8189Y-2.1457
X8.8189Y-2.2244
X8.8189Y-2.3031
X8.8189Y-2.3819
X8.8976Y-2.1457
X8.8976Y-2.2244
X8.8976Y-2.3031
X8.8976Y-2.3819
X8.9764Y-2.1457
X8.9764Y-2.2244
X8.9764Y-2.3031
X8.9764Y-2.3819
X9.0551Y-2.1457
X9.0551Y-2.2244
X9.0551Y-2.3031
X9.0551Y-2.3819
X9.1339Y-2.1457
X9.1339Y-2.2244
X9.1339Y-2.3031
X9.1339Y-2.3819
X9.3701Y-3.1488
X9.3701Y-3.2488
X9.3701Y-3.3488
X9.3701Y-3.4488
X9.3701Y-3.5488
X9.3701Y-3.6488
X9.3701Y-3.7488
X9.3701Y-3.8488
X9.3701Y-3.9488
X9.3701Y-4.0488
X9.3701Y-4.1488
X9.3701Y-4.2488
X9.3701Y-4.3488
X9.3701Y-4.4488
X9.3701Y-4.5488
X9.3701Y-4.6488
X9.3701Y-4.7488
X9.3701Y-4.8488
X9.3701Y-4.9488
X9.3701Y-5.0488
X9.3701Y-5.1488
X9.3701Y-5.2488
X9.3701Y-5.3488
X9.3701Y-5.4488
T4
X6.8256Y-2.6862
X6.8256Y-2.7862
X6.9256Y-2.6862
X6.9256Y-2.7862
X7.0256Y-2.6862
X7.0256Y-2.7862
X7.1256Y-2.6862
X7.1256Y-2.7862
X7.2256Y-2.6862
X7.2256Y-2.7862
X7.3256Y-2.6862
X7.3256Y-2.7862
X7.4256Y-2.6862
X7.4256Y-2.7862
X7.5256Y-2.6862
X7.5256Y-2.7862
X7.6256Y-2.6862
X7.6256Y-2.7862
X7.7256Y-2.6862
X7.7256Y-2.7862
X7.8256Y-2.6862
X7.8256Y-2.7862
X7.9256Y-2.6862
X7.9256Y-2.7862
X8.0256Y-2.6862
X8.0256Y-2.7862
X8.1256Y-2.6862
X8.1256Y-2.7862
X8.2256Y-2.6862
X8.2256Y-2.7862
X8.3256Y-2.6862
X8.3256Y-2.7862
X8.4256Y-2.6862
X8.4256Y-2.7862
X8.5256Y-2.6862
X8.5256Y-2.7862
X8.6256Y-2.6862
X8.6256Y-2.7862
X8.7256Y-2.6862
X8.7256Y-2.7862
T5
X6.3386Y-4.6654
X6.6339Y-2.7362
X8.9173Y-2.7362
X8.9173Y-4.6654
M30
