%TF.GenerationSoftware,KiCad,Pcbnew,8.0.0*%
%TF.CreationDate,2025-01-08T23:25:10+02:00*%
%TF.ProjectId,diplomna_2024_pcb_layout,6469706c-6f6d-46e6-915f-323032345f70,rev?*%
%TF.SameCoordinates,Original*%
%TF.FileFunction,Drillmap*%
%TF.FilePolarity,Positive*%
%FSLAX45Y45*%
G04 Gerber Fmt 4.5, Leading zero omitted, Abs format (unit mm)*
G04 Created by KiCad (PCBNEW 8.0.0) date 2025-01-08 23:25:10*
%MOMM*%
%LPD*%
G01*
G04 APERTURE LIST*
%ADD10C,0.050000*%
%ADD11C,0.200000*%
%ADD12C,0.100000*%
G04 APERTURE END LIST*
D10*
X15600000Y-6100000D02*
X16100000Y-6100000D01*
X25100000Y-14550000D02*
X15600000Y-14550000D01*
X24600000Y-6100000D02*
X25100000Y-6100000D01*
X24600000Y-5050000D02*
X24600000Y-6100000D01*
X16100000Y-5050000D02*
X24600000Y-5050000D01*
X16100000Y-6100000D02*
X16100000Y-5050000D01*
X25100000Y-6100000D02*
X25100000Y-14550000D01*
X15600000Y-14550000D02*
X15600000Y-6100000D01*
D11*
D12*
X20495000Y-7545000D02*
X20505000Y-7555000D01*
X20505000Y-7545000D02*
X20495000Y-7555000D01*
D11*
X15858277Y-14863984D02*
X15858277Y-14663984D01*
X15858277Y-14663984D02*
X15905896Y-14663984D01*
X15905896Y-14663984D02*
X15934467Y-14673508D01*
X15934467Y-14673508D02*
X15953515Y-14692555D01*
X15953515Y-14692555D02*
X15963039Y-14711603D01*
X15963039Y-14711603D02*
X15972562Y-14749698D01*
X15972562Y-14749698D02*
X15972562Y-14778269D01*
X15972562Y-14778269D02*
X15963039Y-14816365D01*
X15963039Y-14816365D02*
X15953515Y-14835412D01*
X15953515Y-14835412D02*
X15934467Y-14854460D01*
X15934467Y-14854460D02*
X15905896Y-14863984D01*
X15905896Y-14863984D02*
X15858277Y-14863984D01*
X16058277Y-14863984D02*
X16058277Y-14730650D01*
X16058277Y-14768746D02*
X16067801Y-14749698D01*
X16067801Y-14749698D02*
X16077324Y-14740174D01*
X16077324Y-14740174D02*
X16096372Y-14730650D01*
X16096372Y-14730650D02*
X16115420Y-14730650D01*
X16182086Y-14863984D02*
X16182086Y-14730650D01*
X16182086Y-14663984D02*
X16172562Y-14673508D01*
X16172562Y-14673508D02*
X16182086Y-14683031D01*
X16182086Y-14683031D02*
X16191610Y-14673508D01*
X16191610Y-14673508D02*
X16182086Y-14663984D01*
X16182086Y-14663984D02*
X16182086Y-14683031D01*
X16305896Y-14863984D02*
X16286848Y-14854460D01*
X16286848Y-14854460D02*
X16277324Y-14835412D01*
X16277324Y-14835412D02*
X16277324Y-14663984D01*
X16410658Y-14863984D02*
X16391610Y-14854460D01*
X16391610Y-14854460D02*
X16382086Y-14835412D01*
X16382086Y-14835412D02*
X16382086Y-14663984D01*
X16639229Y-14863984D02*
X16639229Y-14663984D01*
X16639229Y-14663984D02*
X16705896Y-14806841D01*
X16705896Y-14806841D02*
X16772562Y-14663984D01*
X16772562Y-14663984D02*
X16772562Y-14863984D01*
X16953515Y-14863984D02*
X16953515Y-14759222D01*
X16953515Y-14759222D02*
X16943991Y-14740174D01*
X16943991Y-14740174D02*
X16924944Y-14730650D01*
X16924944Y-14730650D02*
X16886848Y-14730650D01*
X16886848Y-14730650D02*
X16867801Y-14740174D01*
X16953515Y-14854460D02*
X16934467Y-14863984D01*
X16934467Y-14863984D02*
X16886848Y-14863984D01*
X16886848Y-14863984D02*
X16867801Y-14854460D01*
X16867801Y-14854460D02*
X16858277Y-14835412D01*
X16858277Y-14835412D02*
X16858277Y-14816365D01*
X16858277Y-14816365D02*
X16867801Y-14797317D01*
X16867801Y-14797317D02*
X16886848Y-14787793D01*
X16886848Y-14787793D02*
X16934467Y-14787793D01*
X16934467Y-14787793D02*
X16953515Y-14778269D01*
X17048753Y-14730650D02*
X17048753Y-14930650D01*
X17048753Y-14740174D02*
X17067801Y-14730650D01*
X17067801Y-14730650D02*
X17105896Y-14730650D01*
X17105896Y-14730650D02*
X17124944Y-14740174D01*
X17124944Y-14740174D02*
X17134467Y-14749698D01*
X17134467Y-14749698D02*
X17143991Y-14768746D01*
X17143991Y-14768746D02*
X17143991Y-14825888D01*
X17143991Y-14825888D02*
X17134467Y-14844936D01*
X17134467Y-14844936D02*
X17124944Y-14854460D01*
X17124944Y-14854460D02*
X17105896Y-14863984D01*
X17105896Y-14863984D02*
X17067801Y-14863984D01*
X17067801Y-14863984D02*
X17048753Y-14854460D01*
X17229705Y-14844936D02*
X17239229Y-14854460D01*
X17239229Y-14854460D02*
X17229705Y-14863984D01*
X17229705Y-14863984D02*
X17220182Y-14854460D01*
X17220182Y-14854460D02*
X17229705Y-14844936D01*
X17229705Y-14844936D02*
X17229705Y-14863984D01*
X17229705Y-14740174D02*
X17239229Y-14749698D01*
X17239229Y-14749698D02*
X17229705Y-14759222D01*
X17229705Y-14759222D02*
X17220182Y-14749698D01*
X17220182Y-14749698D02*
X17229705Y-14740174D01*
X17229705Y-14740174D02*
X17229705Y-14759222D01*
D12*
X15587500Y-15187500D02*
X15597500Y-15197500D01*
X15597500Y-15187500D02*
X15587500Y-15197500D01*
D11*
X15896372Y-15083984D02*
X15915420Y-15083984D01*
X15915420Y-15083984D02*
X15934467Y-15093508D01*
X15934467Y-15093508D02*
X15943991Y-15103031D01*
X15943991Y-15103031D02*
X15953515Y-15122079D01*
X15953515Y-15122079D02*
X15963039Y-15160174D01*
X15963039Y-15160174D02*
X15963039Y-15207793D01*
X15963039Y-15207793D02*
X15953515Y-15245888D01*
X15953515Y-15245888D02*
X15943991Y-15264936D01*
X15943991Y-15264936D02*
X15934467Y-15274460D01*
X15934467Y-15274460D02*
X15915420Y-15283984D01*
X15915420Y-15283984D02*
X15896372Y-15283984D01*
X15896372Y-15283984D02*
X15877324Y-15274460D01*
X15877324Y-15274460D02*
X15867801Y-15264936D01*
X15867801Y-15264936D02*
X15858277Y-15245888D01*
X15858277Y-15245888D02*
X15848753Y-15207793D01*
X15848753Y-15207793D02*
X15848753Y-15160174D01*
X15848753Y-15160174D02*
X15858277Y-15122079D01*
X15858277Y-15122079D02*
X15867801Y-15103031D01*
X15867801Y-15103031D02*
X15877324Y-15093508D01*
X15877324Y-15093508D02*
X15896372Y-15083984D01*
X16048753Y-15264936D02*
X16058277Y-15274460D01*
X16058277Y-15274460D02*
X16048753Y-15283984D01*
X16048753Y-15283984D02*
X16039229Y-15274460D01*
X16039229Y-15274460D02*
X16048753Y-15264936D01*
X16048753Y-15264936D02*
X16048753Y-15283984D01*
X16248753Y-15283984D02*
X16134467Y-15283984D01*
X16191610Y-15283984D02*
X16191610Y-15083984D01*
X16191610Y-15083984D02*
X16172562Y-15112555D01*
X16172562Y-15112555D02*
X16153515Y-15131603D01*
X16153515Y-15131603D02*
X16134467Y-15141127D01*
X16372562Y-15083984D02*
X16391610Y-15083984D01*
X16391610Y-15083984D02*
X16410658Y-15093508D01*
X16410658Y-15093508D02*
X16420182Y-15103031D01*
X16420182Y-15103031D02*
X16429705Y-15122079D01*
X16429705Y-15122079D02*
X16439229Y-15160174D01*
X16439229Y-15160174D02*
X16439229Y-15207793D01*
X16439229Y-15207793D02*
X16429705Y-15245888D01*
X16429705Y-15245888D02*
X16420182Y-15264936D01*
X16420182Y-15264936D02*
X16410658Y-15274460D01*
X16410658Y-15274460D02*
X16391610Y-15283984D01*
X16391610Y-15283984D02*
X16372562Y-15283984D01*
X16372562Y-15283984D02*
X16353515Y-15274460D01*
X16353515Y-15274460D02*
X16343991Y-15264936D01*
X16343991Y-15264936D02*
X16334467Y-15245888D01*
X16334467Y-15245888D02*
X16324943Y-15207793D01*
X16324943Y-15207793D02*
X16324943Y-15160174D01*
X16324943Y-15160174D02*
X16334467Y-15122079D01*
X16334467Y-15122079D02*
X16343991Y-15103031D01*
X16343991Y-15103031D02*
X16353515Y-15093508D01*
X16353515Y-15093508D02*
X16372562Y-15083984D01*
X16563039Y-15083984D02*
X16582086Y-15083984D01*
X16582086Y-15083984D02*
X16601134Y-15093508D01*
X16601134Y-15093508D02*
X16610658Y-15103031D01*
X16610658Y-15103031D02*
X16620182Y-15122079D01*
X16620182Y-15122079D02*
X16629705Y-15160174D01*
X16629705Y-15160174D02*
X16629705Y-15207793D01*
X16629705Y-15207793D02*
X16620182Y-15245888D01*
X16620182Y-15245888D02*
X16610658Y-15264936D01*
X16610658Y-15264936D02*
X16601134Y-15274460D01*
X16601134Y-15274460D02*
X16582086Y-15283984D01*
X16582086Y-15283984D02*
X16563039Y-15283984D01*
X16563039Y-15283984D02*
X16543991Y-15274460D01*
X16543991Y-15274460D02*
X16534467Y-15264936D01*
X16534467Y-15264936D02*
X16524943Y-15245888D01*
X16524943Y-15245888D02*
X16515420Y-15207793D01*
X16515420Y-15207793D02*
X16515420Y-15160174D01*
X16515420Y-15160174D02*
X16524943Y-15122079D01*
X16524943Y-15122079D02*
X16534467Y-15103031D01*
X16534467Y-15103031D02*
X16543991Y-15093508D01*
X16543991Y-15093508D02*
X16563039Y-15083984D01*
X16715420Y-15283984D02*
X16715420Y-15150650D01*
X16715420Y-15169698D02*
X16724943Y-15160174D01*
X16724943Y-15160174D02*
X16743991Y-15150650D01*
X16743991Y-15150650D02*
X16772563Y-15150650D01*
X16772563Y-15150650D02*
X16791610Y-15160174D01*
X16791610Y-15160174D02*
X16801134Y-15179222D01*
X16801134Y-15179222D02*
X16801134Y-15283984D01*
X16801134Y-15179222D02*
X16810658Y-15160174D01*
X16810658Y-15160174D02*
X16829705Y-15150650D01*
X16829705Y-15150650D02*
X16858277Y-15150650D01*
X16858277Y-15150650D02*
X16877325Y-15160174D01*
X16877325Y-15160174D02*
X16886848Y-15179222D01*
X16886848Y-15179222D02*
X16886848Y-15283984D01*
X16982086Y-15283984D02*
X16982086Y-15150650D01*
X16982086Y-15169698D02*
X16991610Y-15160174D01*
X16991610Y-15160174D02*
X17010658Y-15150650D01*
X17010658Y-15150650D02*
X17039229Y-15150650D01*
X17039229Y-15150650D02*
X17058277Y-15160174D01*
X17058277Y-15160174D02*
X17067801Y-15179222D01*
X17067801Y-15179222D02*
X17067801Y-15283984D01*
X17067801Y-15179222D02*
X17077325Y-15160174D01*
X17077325Y-15160174D02*
X17096372Y-15150650D01*
X17096372Y-15150650D02*
X17124944Y-15150650D01*
X17124944Y-15150650D02*
X17143991Y-15160174D01*
X17143991Y-15160174D02*
X17153515Y-15179222D01*
X17153515Y-15179222D02*
X17153515Y-15283984D01*
X17543991Y-15074460D02*
X17372563Y-15331603D01*
X17801134Y-15083984D02*
X17820182Y-15083984D01*
X17820182Y-15083984D02*
X17839229Y-15093508D01*
X17839229Y-15093508D02*
X17848753Y-15103031D01*
X17848753Y-15103031D02*
X17858277Y-15122079D01*
X17858277Y-15122079D02*
X17867801Y-15160174D01*
X17867801Y-15160174D02*
X17867801Y-15207793D01*
X17867801Y-15207793D02*
X17858277Y-15245888D01*
X17858277Y-15245888D02*
X17848753Y-15264936D01*
X17848753Y-15264936D02*
X17839229Y-15274460D01*
X17839229Y-15274460D02*
X17820182Y-15283984D01*
X17820182Y-15283984D02*
X17801134Y-15283984D01*
X17801134Y-15283984D02*
X17782087Y-15274460D01*
X17782087Y-15274460D02*
X17772563Y-15264936D01*
X17772563Y-15264936D02*
X17763039Y-15245888D01*
X17763039Y-15245888D02*
X17753515Y-15207793D01*
X17753515Y-15207793D02*
X17753515Y-15160174D01*
X17753515Y-15160174D02*
X17763039Y-15122079D01*
X17763039Y-15122079D02*
X17772563Y-15103031D01*
X17772563Y-15103031D02*
X17782087Y-15093508D01*
X17782087Y-15093508D02*
X17801134Y-15083984D01*
X17953515Y-15264936D02*
X17963039Y-15274460D01*
X17963039Y-15274460D02*
X17953515Y-15283984D01*
X17953515Y-15283984D02*
X17943991Y-15274460D01*
X17943991Y-15274460D02*
X17953515Y-15264936D01*
X17953515Y-15264936D02*
X17953515Y-15283984D01*
X18086848Y-15083984D02*
X18105896Y-15083984D01*
X18105896Y-15083984D02*
X18124944Y-15093508D01*
X18124944Y-15093508D02*
X18134468Y-15103031D01*
X18134468Y-15103031D02*
X18143991Y-15122079D01*
X18143991Y-15122079D02*
X18153515Y-15160174D01*
X18153515Y-15160174D02*
X18153515Y-15207793D01*
X18153515Y-15207793D02*
X18143991Y-15245888D01*
X18143991Y-15245888D02*
X18134468Y-15264936D01*
X18134468Y-15264936D02*
X18124944Y-15274460D01*
X18124944Y-15274460D02*
X18105896Y-15283984D01*
X18105896Y-15283984D02*
X18086848Y-15283984D01*
X18086848Y-15283984D02*
X18067801Y-15274460D01*
X18067801Y-15274460D02*
X18058277Y-15264936D01*
X18058277Y-15264936D02*
X18048753Y-15245888D01*
X18048753Y-15245888D02*
X18039229Y-15207793D01*
X18039229Y-15207793D02*
X18039229Y-15160174D01*
X18039229Y-15160174D02*
X18048753Y-15122079D01*
X18048753Y-15122079D02*
X18058277Y-15103031D01*
X18058277Y-15103031D02*
X18067801Y-15093508D01*
X18067801Y-15093508D02*
X18086848Y-15083984D01*
X18277325Y-15083984D02*
X18296372Y-15083984D01*
X18296372Y-15083984D02*
X18315420Y-15093508D01*
X18315420Y-15093508D02*
X18324944Y-15103031D01*
X18324944Y-15103031D02*
X18334468Y-15122079D01*
X18334468Y-15122079D02*
X18343991Y-15160174D01*
X18343991Y-15160174D02*
X18343991Y-15207793D01*
X18343991Y-15207793D02*
X18334468Y-15245888D01*
X18334468Y-15245888D02*
X18324944Y-15264936D01*
X18324944Y-15264936D02*
X18315420Y-15274460D01*
X18315420Y-15274460D02*
X18296372Y-15283984D01*
X18296372Y-15283984D02*
X18277325Y-15283984D01*
X18277325Y-15283984D02*
X18258277Y-15274460D01*
X18258277Y-15274460D02*
X18248753Y-15264936D01*
X18248753Y-15264936D02*
X18239229Y-15245888D01*
X18239229Y-15245888D02*
X18229706Y-15207793D01*
X18229706Y-15207793D02*
X18229706Y-15160174D01*
X18229706Y-15160174D02*
X18239229Y-15122079D01*
X18239229Y-15122079D02*
X18248753Y-15103031D01*
X18248753Y-15103031D02*
X18258277Y-15093508D01*
X18258277Y-15093508D02*
X18277325Y-15083984D01*
X18410658Y-15083984D02*
X18534468Y-15083984D01*
X18534468Y-15083984D02*
X18467801Y-15160174D01*
X18467801Y-15160174D02*
X18496372Y-15160174D01*
X18496372Y-15160174D02*
X18515420Y-15169698D01*
X18515420Y-15169698D02*
X18524944Y-15179222D01*
X18524944Y-15179222D02*
X18534468Y-15198269D01*
X18534468Y-15198269D02*
X18534468Y-15245888D01*
X18534468Y-15245888D02*
X18524944Y-15264936D01*
X18524944Y-15264936D02*
X18515420Y-15274460D01*
X18515420Y-15274460D02*
X18496372Y-15283984D01*
X18496372Y-15283984D02*
X18439229Y-15283984D01*
X18439229Y-15283984D02*
X18420182Y-15274460D01*
X18420182Y-15274460D02*
X18410658Y-15264936D01*
X18629706Y-15283984D02*
X18667801Y-15283984D01*
X18667801Y-15283984D02*
X18686849Y-15274460D01*
X18686849Y-15274460D02*
X18696372Y-15264936D01*
X18696372Y-15264936D02*
X18715420Y-15236365D01*
X18715420Y-15236365D02*
X18724944Y-15198269D01*
X18724944Y-15198269D02*
X18724944Y-15122079D01*
X18724944Y-15122079D02*
X18715420Y-15103031D01*
X18715420Y-15103031D02*
X18705896Y-15093508D01*
X18705896Y-15093508D02*
X18686849Y-15083984D01*
X18686849Y-15083984D02*
X18648753Y-15083984D01*
X18648753Y-15083984D02*
X18629706Y-15093508D01*
X18629706Y-15093508D02*
X18620182Y-15103031D01*
X18620182Y-15103031D02*
X18610658Y-15122079D01*
X18610658Y-15122079D02*
X18610658Y-15169698D01*
X18610658Y-15169698D02*
X18620182Y-15188746D01*
X18620182Y-15188746D02*
X18629706Y-15198269D01*
X18629706Y-15198269D02*
X18648753Y-15207793D01*
X18648753Y-15207793D02*
X18686849Y-15207793D01*
X18686849Y-15207793D02*
X18705896Y-15198269D01*
X18705896Y-15198269D02*
X18715420Y-15188746D01*
X18715420Y-15188746D02*
X18724944Y-15169698D01*
X18801134Y-15083984D02*
X18801134Y-15122079D01*
X18877325Y-15083984D02*
X18877325Y-15122079D01*
X19172563Y-15360174D02*
X19163039Y-15350650D01*
X19163039Y-15350650D02*
X19143991Y-15322079D01*
X19143991Y-15322079D02*
X19134468Y-15303031D01*
X19134468Y-15303031D02*
X19124944Y-15274460D01*
X19124944Y-15274460D02*
X19115420Y-15226841D01*
X19115420Y-15226841D02*
X19115420Y-15188746D01*
X19115420Y-15188746D02*
X19124944Y-15141127D01*
X19124944Y-15141127D02*
X19134468Y-15112555D01*
X19134468Y-15112555D02*
X19143991Y-15093508D01*
X19143991Y-15093508D02*
X19163039Y-15064936D01*
X19163039Y-15064936D02*
X19172563Y-15055412D01*
X19353515Y-15283984D02*
X19239230Y-15283984D01*
X19296372Y-15283984D02*
X19296372Y-15083984D01*
X19296372Y-15083984D02*
X19277325Y-15112555D01*
X19277325Y-15112555D02*
X19258277Y-15131603D01*
X19258277Y-15131603D02*
X19239230Y-15141127D01*
X19591611Y-15283984D02*
X19591611Y-15083984D01*
X19677325Y-15283984D02*
X19677325Y-15179222D01*
X19677325Y-15179222D02*
X19667801Y-15160174D01*
X19667801Y-15160174D02*
X19648753Y-15150650D01*
X19648753Y-15150650D02*
X19620182Y-15150650D01*
X19620182Y-15150650D02*
X19601134Y-15160174D01*
X19601134Y-15160174D02*
X19591611Y-15169698D01*
X19801134Y-15283984D02*
X19782087Y-15274460D01*
X19782087Y-15274460D02*
X19772563Y-15264936D01*
X19772563Y-15264936D02*
X19763039Y-15245888D01*
X19763039Y-15245888D02*
X19763039Y-15188746D01*
X19763039Y-15188746D02*
X19772563Y-15169698D01*
X19772563Y-15169698D02*
X19782087Y-15160174D01*
X19782087Y-15160174D02*
X19801134Y-15150650D01*
X19801134Y-15150650D02*
X19829706Y-15150650D01*
X19829706Y-15150650D02*
X19848753Y-15160174D01*
X19848753Y-15160174D02*
X19858277Y-15169698D01*
X19858277Y-15169698D02*
X19867801Y-15188746D01*
X19867801Y-15188746D02*
X19867801Y-15245888D01*
X19867801Y-15245888D02*
X19858277Y-15264936D01*
X19858277Y-15264936D02*
X19848753Y-15274460D01*
X19848753Y-15274460D02*
X19829706Y-15283984D01*
X19829706Y-15283984D02*
X19801134Y-15283984D01*
X19982087Y-15283984D02*
X19963039Y-15274460D01*
X19963039Y-15274460D02*
X19953515Y-15255412D01*
X19953515Y-15255412D02*
X19953515Y-15083984D01*
X20134468Y-15274460D02*
X20115420Y-15283984D01*
X20115420Y-15283984D02*
X20077325Y-15283984D01*
X20077325Y-15283984D02*
X20058277Y-15274460D01*
X20058277Y-15274460D02*
X20048753Y-15255412D01*
X20048753Y-15255412D02*
X20048753Y-15179222D01*
X20048753Y-15179222D02*
X20058277Y-15160174D01*
X20058277Y-15160174D02*
X20077325Y-15150650D01*
X20077325Y-15150650D02*
X20115420Y-15150650D01*
X20115420Y-15150650D02*
X20134468Y-15160174D01*
X20134468Y-15160174D02*
X20143992Y-15179222D01*
X20143992Y-15179222D02*
X20143992Y-15198269D01*
X20143992Y-15198269D02*
X20048753Y-15217317D01*
X20210658Y-15360174D02*
X20220182Y-15350650D01*
X20220182Y-15350650D02*
X20239230Y-15322079D01*
X20239230Y-15322079D02*
X20248753Y-15303031D01*
X20248753Y-15303031D02*
X20258277Y-15274460D01*
X20258277Y-15274460D02*
X20267801Y-15226841D01*
X20267801Y-15226841D02*
X20267801Y-15188746D01*
X20267801Y-15188746D02*
X20258277Y-15141127D01*
X20258277Y-15141127D02*
X20248753Y-15112555D01*
X20248753Y-15112555D02*
X20239230Y-15093508D01*
X20239230Y-15093508D02*
X20220182Y-15064936D01*
X20220182Y-15064936D02*
X20210658Y-15055412D01*
M02*
