%TF.GenerationSoftware,KiCad,Pcbnew,8.0.0*%
%TF.CreationDate,2025-01-16T00:37:42+02:00*%
%TF.ProjectId,diplomna_2024_pcb_layout,6469706c-6f6d-46e6-915f-323032345f70,rev?*%
%TF.SameCoordinates,Original*%
%TF.FileFunction,Copper,L3,Inr*%
%TF.FilePolarity,Positive*%
%FSLAX46Y46*%
G04 Gerber Fmt 4.6, Leading zero omitted, Abs format (unit mm)*
G04 Created by KiCad (PCBNEW 8.0.0) date 2025-01-16 00:37:42*
%MOMM*%
%LPD*%
G01*
G04 APERTURE LIST*
%TA.AperFunction,ComponentPad*%
%ADD10R,1.700000X1.700000*%
%TD*%
%TA.AperFunction,ComponentPad*%
%ADD11O,1.700000X1.700000*%
%TD*%
%TA.AperFunction,ComponentPad*%
%ADD12C,6.200000*%
%TD*%
%TA.AperFunction,ComponentPad*%
%ADD13C,1.524000*%
%TD*%
%TA.AperFunction,ComponentPad*%
%ADD14R,1.524000X1.524000*%
%TD*%
%TA.AperFunction,ComponentPad*%
%ADD15R,1.500000X1.500000*%
%TD*%
%TA.AperFunction,ComponentPad*%
%ADD16C,1.500000*%
%TD*%
%TA.AperFunction,ComponentPad*%
%ADD17O,1.400000X1.400000*%
%TD*%
%TA.AperFunction,ComponentPad*%
%ADD18C,1.400000*%
%TD*%
%TA.AperFunction,ViaPad*%
%ADD19C,0.600000*%
%TD*%
%TA.AperFunction,Conductor*%
%ADD20C,0.200000*%
%TD*%
G04 APERTURE END LIST*
D10*
%TO.N,I/O*%
%TO.C,REF\u002A\u002A*%
X186000000Y-138400000D03*
D11*
X186000000Y-135860000D03*
X186000000Y-133320000D03*
X186000000Y-130780000D03*
X186000000Y-128240000D03*
X186000000Y-125700000D03*
X186000000Y-123160000D03*
%TO.N,N/C*%
X186000000Y-120620000D03*
%TO.N,CS*%
X186000000Y-118080000D03*
X186000000Y-115540000D03*
X186000000Y-113000000D03*
X186000000Y-110460000D03*
X186000000Y-107920000D03*
%TO.N,N/C*%
X186000000Y-105380000D03*
%TO.N,analog*%
X186000000Y-102840000D03*
X186000000Y-100300000D03*
%TO.N,CS*%
X186000000Y-97760000D03*
%TO.N,miso*%
X186000000Y-95220000D03*
%TO.N,mosi*%
X186000000Y-92680000D03*
%TO.N,scl*%
X186000000Y-90140000D03*
%TO.N,N/C*%
X186000000Y-87600000D03*
%TO.N,sda_i2c*%
X186000000Y-85060000D03*
%TO.N,scl_i2c*%
X186000000Y-82520000D03*
%TO.N,VDD*%
X186000000Y-79980000D03*
%TD*%
D12*
%TO.N,GND*%
%TO.C,*%
X161000000Y-118500000D03*
%TD*%
%TO.N,GND*%
%TO.C,REF\u002A\u002A*%
X226500000Y-118500000D03*
X226500000Y-69500000D03*
X168500000Y-69500000D03*
D13*
%TO.N,I/O*%
X221630000Y-68230000D03*
%TO.N,GND*%
X221630000Y-70770000D03*
%TO.N,I/O*%
X219090000Y-68230000D03*
%TO.N,N/C*%
X219090000Y-70770000D03*
%TO.N,I/O*%
X216550000Y-68230000D03*
%TO.N,N/C*%
X216550000Y-70770000D03*
%TO.N,GND*%
X214010000Y-68230000D03*
%TO.N,N/C*%
X214010000Y-70770000D03*
X211470000Y-68230000D03*
X211470000Y-70770000D03*
%TO.N,GND*%
X208930000Y-68230000D03*
%TO.N,N/C*%
X208930000Y-70770000D03*
%TO.N,I/O*%
X206390000Y-68230000D03*
%TO.N,N/C*%
X206390000Y-70770000D03*
%TO.N,I/O*%
X203850000Y-68230000D03*
%TO.N,GND*%
X203850000Y-70770000D03*
%TO.N,I/O*%
X201310000Y-68230000D03*
%TO.N,scl*%
X201310000Y-70770000D03*
%TO.N,I/O*%
X198770000Y-68230000D03*
%TO.N,miso*%
X198770000Y-70770000D03*
%TO.N,GND*%
X196230000Y-68230000D03*
%TO.N,mosi*%
X196230000Y-70770000D03*
%TO.N,I/O*%
X193690000Y-68230000D03*
%TO.N,N/C*%
X193690000Y-70770000D03*
%TO.N,I/O*%
X191150000Y-68230000D03*
%TO.N,N/C*%
X191150000Y-70770000D03*
%TO.N,GND*%
X188610000Y-68230000D03*
%TO.N,N/C*%
X188610000Y-70770000D03*
X186070000Y-68230000D03*
X186070000Y-70770000D03*
%TO.N,rx*%
X183530000Y-68230000D03*
%TO.N,GND*%
X183530000Y-70770000D03*
%TO.N,tx*%
X180990000Y-68230000D03*
%TO.N,N/C*%
X180990000Y-70770000D03*
%TO.N,GND*%
X178450000Y-68230000D03*
%TO.N,scl_i2c*%
X178450000Y-70770000D03*
%TO.N,VDD*%
X175910000Y-68230000D03*
%TO.N,sda_i2c*%
X175910000Y-70770000D03*
%TO.N,VDD*%
X173370000Y-68230000D03*
D14*
%TO.N,3.3v*%
X173370000Y-70770000D03*
%TD*%
D10*
%TO.N,N/C*%
%TO.C,REF\u002A\u002A*%
X236000000Y-138400000D03*
D11*
X236000000Y-135860000D03*
X236000000Y-133320000D03*
X236000000Y-130780000D03*
X236000000Y-128240000D03*
X236000000Y-125700000D03*
X236000000Y-123160000D03*
X236000000Y-120620000D03*
X236000000Y-118080000D03*
X236000000Y-115540000D03*
X236000000Y-113000000D03*
X236000000Y-110460000D03*
X236000000Y-107920000D03*
X236000000Y-105380000D03*
X236000000Y-102840000D03*
X236000000Y-100300000D03*
X236000000Y-97760000D03*
X236000000Y-95220000D03*
X236000000Y-92680000D03*
X236000000Y-90140000D03*
X236000000Y-87600000D03*
X236000000Y-85060000D03*
X236000000Y-82520000D03*
%TO.N,VDD*%
X236000000Y-79980000D03*
%TD*%
D10*
%TO.N,I/O*%
%TO.C,REF\u002A\u002A*%
X204500000Y-138400000D03*
D11*
X204500000Y-135860000D03*
X204500000Y-133320000D03*
X204500000Y-130780000D03*
X204500000Y-128240000D03*
X204500000Y-125700000D03*
X204500000Y-123160000D03*
%TO.N,N/C*%
X204500000Y-120620000D03*
%TO.N,CS*%
X204500000Y-118080000D03*
X204500000Y-115540000D03*
X204500000Y-113000000D03*
X204500000Y-110460000D03*
X204500000Y-107920000D03*
%TO.N,N/C*%
X204500000Y-105380000D03*
%TO.N,analog*%
X204500000Y-102840000D03*
X204500000Y-100300000D03*
%TO.N,N/C*%
X204500000Y-97760000D03*
%TO.N,miso*%
X204500000Y-95220000D03*
%TO.N,mosi*%
X204500000Y-92680000D03*
%TO.N,scl*%
X204500000Y-90140000D03*
%TO.N,N/C*%
X204500000Y-87600000D03*
%TO.N,sda_i2c*%
X204500000Y-85060000D03*
%TO.N,scl_i2c*%
X204500000Y-82520000D03*
%TO.N,N/C*%
X204500000Y-79980000D03*
%TD*%
D10*
%TO.N,I/O*%
%TO.C,REF\u002A\u002A*%
X201500000Y-138400000D03*
D11*
X201500000Y-135860000D03*
X201500000Y-133320000D03*
X201500000Y-130780000D03*
X201500000Y-128240000D03*
X201500000Y-125700000D03*
X201500000Y-123160000D03*
%TO.N,N/C*%
X201500000Y-120620000D03*
%TO.N,CS*%
X201500000Y-118080000D03*
X201500000Y-115540000D03*
X201500000Y-113000000D03*
X201500000Y-110460000D03*
X201500000Y-107920000D03*
%TO.N,N/C*%
X201500000Y-105380000D03*
%TO.N,analog*%
X201500000Y-102840000D03*
X201500000Y-100300000D03*
%TO.N,N/C*%
X201500000Y-97760000D03*
%TO.N,miso*%
X201500000Y-95220000D03*
%TO.N,mosi*%
X201500000Y-92680000D03*
%TO.N,scl*%
X201500000Y-90140000D03*
%TO.N,N/C*%
X201500000Y-87600000D03*
%TO.N,sda_i2c*%
X201500000Y-85060000D03*
%TO.N,scl_i2c*%
X201500000Y-82520000D03*
%TO.N,N/C*%
X201500000Y-79980000D03*
%TD*%
D10*
%TO.N,N/C*%
%TO.C,REF\u002A\u002A*%
X171000000Y-138420000D03*
D11*
X171000000Y-135880000D03*
X171000000Y-133340000D03*
X171000000Y-130800000D03*
X171000000Y-128260000D03*
X171000000Y-125720000D03*
X171000000Y-123180000D03*
X171000000Y-120640000D03*
X171000000Y-118100000D03*
X171000000Y-115560000D03*
X171000000Y-113020000D03*
X171000000Y-110480000D03*
X171000000Y-107940000D03*
X171000000Y-105400000D03*
X171000000Y-102860000D03*
X171000000Y-100320000D03*
X171000000Y-97780000D03*
X171000000Y-95240000D03*
X171000000Y-92700000D03*
X171000000Y-90160000D03*
X171000000Y-87620000D03*
X171000000Y-85080000D03*
X171000000Y-82540000D03*
%TO.N,GND*%
X171000000Y-80000000D03*
%TD*%
D15*
%TO.N,N/C*%
%TO.C,J\u002A\u002A*%
X232000000Y-54500000D03*
D16*
X230000000Y-54500000D03*
X228000000Y-54500000D03*
X226000000Y-54500000D03*
X224000000Y-54500000D03*
X222000000Y-54500000D03*
X220000000Y-54500000D03*
X218000000Y-54500000D03*
X216000000Y-54500000D03*
X214000000Y-54500000D03*
X212000000Y-54500000D03*
X210000000Y-54500000D03*
X208000000Y-54500000D03*
X206000000Y-54500000D03*
X204000000Y-54500000D03*
X202000000Y-54500000D03*
X200000000Y-54500000D03*
X198000000Y-54500000D03*
X196000000Y-54500000D03*
X194000000Y-54500000D03*
X192000000Y-54500000D03*
X190000000Y-54500000D03*
X188000000Y-54500000D03*
X186000000Y-54500000D03*
X184000000Y-54500000D03*
X182000000Y-54500000D03*
X180000000Y-54500000D03*
X178000000Y-54500000D03*
X176000000Y-54500000D03*
%TO.N,GND*%
X174000000Y-54500000D03*
%TO.N,N/C*%
X232000000Y-56500000D03*
X230000000Y-56500000D03*
X228000000Y-56500000D03*
X226000000Y-56500000D03*
X224000000Y-56500000D03*
X222000000Y-56500000D03*
X220000000Y-56500000D03*
X218000000Y-56500000D03*
X216000000Y-56500000D03*
X214000000Y-56500000D03*
X212000000Y-56500000D03*
X210000000Y-56500000D03*
X208000000Y-56500000D03*
X206000000Y-56500000D03*
X204000000Y-56500000D03*
X202000000Y-56500000D03*
X200000000Y-56500000D03*
X198000000Y-56500000D03*
X196000000Y-56500000D03*
X194000000Y-56500000D03*
X192000000Y-56500000D03*
X190000000Y-56500000D03*
X188000000Y-56500000D03*
X186000000Y-56500000D03*
X184000000Y-56500000D03*
X182000000Y-56500000D03*
X180000000Y-56500000D03*
X178000000Y-56500000D03*
X176000000Y-56500000D03*
%TO.N,3.3v*%
X174000000Y-56500000D03*
%TO.N,N/C*%
X232000000Y-58500000D03*
X230000000Y-58500000D03*
X228000000Y-58500000D03*
X226000000Y-58500000D03*
X224000000Y-58500000D03*
X222000000Y-58500000D03*
X220000000Y-58500000D03*
X218000000Y-58500000D03*
X216000000Y-58500000D03*
X214000000Y-58500000D03*
X212000000Y-58500000D03*
X210000000Y-58500000D03*
X208000000Y-58500000D03*
X206000000Y-58500000D03*
X204000000Y-58500000D03*
X202000000Y-58500000D03*
X200000000Y-58500000D03*
X198000000Y-58500000D03*
X196000000Y-58500000D03*
X194000000Y-58500000D03*
X192000000Y-58500000D03*
X190000000Y-58500000D03*
X188000000Y-58500000D03*
X186000000Y-58500000D03*
X184000000Y-58500000D03*
X182000000Y-58500000D03*
X180000000Y-58500000D03*
X178000000Y-58500000D03*
X176000000Y-58500000D03*
%TO.N,VDD*%
X174000000Y-58500000D03*
%TO.N,N/C*%
X232000000Y-60500000D03*
X230000000Y-60500000D03*
X228000000Y-60500000D03*
X226000000Y-60500000D03*
X224000000Y-60500000D03*
X222000000Y-60500000D03*
X220000000Y-60500000D03*
X218000000Y-60500000D03*
X216000000Y-60500000D03*
%TO.N,I/O*%
X214000000Y-60500000D03*
X212000000Y-60500000D03*
X210000000Y-60500000D03*
%TO.N,N/C*%
X208000000Y-60500000D03*
X206000000Y-60500000D03*
X204000000Y-60500000D03*
X202000000Y-60500000D03*
%TO.N,I/O*%
X200000000Y-60500000D03*
X198000000Y-60500000D03*
X196000000Y-60500000D03*
X194000000Y-60500000D03*
X192000000Y-60500000D03*
X190000000Y-60500000D03*
%TO.N,N/C*%
X188000000Y-60500000D03*
%TO.N,rx*%
X186000000Y-60500000D03*
%TO.N,tx*%
X184000000Y-60500000D03*
%TO.N,N/C*%
X182000000Y-60500000D03*
%TO.N,scl_i2c*%
X180000000Y-60500000D03*
%TO.N,sda_i2c*%
X178000000Y-60500000D03*
%TO.N,N/C*%
X176000000Y-60500000D03*
%TO.N,VDD*%
X174000000Y-60500000D03*
%TD*%
D13*
%TO.N,VDD*%
%TO.C,REF\u002A\u002A*%
X191000000Y-75460000D03*
D17*
%TO.N,scl_i2c*%
X191000000Y-80540000D03*
%TD*%
D18*
%TO.N,VDD*%
%TO.C,REF\u002A\u002A*%
X195500000Y-78460000D03*
D17*
%TO.N,sda_i2c*%
X195500000Y-83540000D03*
%TD*%
D10*
%TO.N,I/O*%
%TO.C,REF\u002A\u002A*%
X221000000Y-138400000D03*
D11*
X221000000Y-135860000D03*
X221000000Y-133320000D03*
X221000000Y-130780000D03*
X221000000Y-128240000D03*
X221000000Y-125700000D03*
X221000000Y-123160000D03*
%TO.N,N/C*%
X221000000Y-120620000D03*
%TO.N,CS*%
X221000000Y-118080000D03*
X221000000Y-115540000D03*
X221000000Y-113000000D03*
X221000000Y-110460000D03*
X221000000Y-107920000D03*
%TO.N,N/C*%
X221000000Y-105380000D03*
%TO.N,analog*%
X221000000Y-102840000D03*
X221000000Y-100300000D03*
%TO.N,CS*%
X221000000Y-97760000D03*
%TO.N,miso*%
X221000000Y-95220000D03*
%TO.N,mosi*%
X221000000Y-92680000D03*
%TO.N,scl*%
X221000000Y-90140000D03*
%TO.N,N/C*%
X221000000Y-87600000D03*
%TO.N,sda_i2c*%
X221000000Y-85060000D03*
%TO.N,scl_i2c*%
X221000000Y-82520000D03*
%TO.N,GND*%
X221000000Y-79980000D03*
%TD*%
D19*
%TO.N,scl*%
X205000000Y-75500000D03*
%TD*%
D20*
%TO.N,scl*%
X224500000Y-86640000D02*
X221000000Y-90140000D01*
X205000000Y-75500000D02*
X224500000Y-75500000D01*
X224500000Y-75500000D02*
X224500000Y-86640000D01*
%TD*%
M02*
