%TF.GenerationSoftware,KiCad,Pcbnew,8.0.0*%
%TF.CreationDate,2025-01-17T00:29:12+02:00*%
%TF.ProjectId,diplomna_2024_sensors_pcb_layout,6469706c-6f6d-46e6-915f-323032345f73,rev?*%
%TF.SameCoordinates,Original*%
%TF.FileFunction,Legend,Top*%
%TF.FilePolarity,Positive*%
%FSLAX46Y46*%
G04 Gerber Fmt 4.6, Leading zero omitted, Abs format (unit mm)*
G04 Created by KiCad (PCBNEW 8.0.0) date 2025-01-17 00:29:12*
%MOMM*%
%LPD*%
G01*
G04 APERTURE LIST*
%ADD10C,0.187500*%
%ADD11C,0.300000*%
%ADD12C,0.100000*%
%ADD13C,0.150000*%
%ADD14C,0.120000*%
%ADD15C,0.200000*%
G04 APERTURE END LIST*
D10*
X208123355Y-103306678D02*
X208123355Y-102520964D01*
X208123355Y-102520964D02*
X208051926Y-102378107D01*
X208051926Y-102378107D02*
X207909069Y-102306678D01*
X207909069Y-102306678D02*
X207623355Y-102306678D01*
X207623355Y-102306678D02*
X207480497Y-102378107D01*
X208123355Y-103235250D02*
X207980497Y-103306678D01*
X207980497Y-103306678D02*
X207623355Y-103306678D01*
X207623355Y-103306678D02*
X207480497Y-103235250D01*
X207480497Y-103235250D02*
X207409069Y-103092392D01*
X207409069Y-103092392D02*
X207409069Y-102949535D01*
X207409069Y-102949535D02*
X207480497Y-102806678D01*
X207480497Y-102806678D02*
X207623355Y-102735250D01*
X207623355Y-102735250D02*
X207980497Y-102735250D01*
X207980497Y-102735250D02*
X208123355Y-102663821D01*
X208837640Y-102306678D02*
X208837640Y-103306678D01*
X208837640Y-102449535D02*
X208909069Y-102378107D01*
X208909069Y-102378107D02*
X209051926Y-102306678D01*
X209051926Y-102306678D02*
X209266212Y-102306678D01*
X209266212Y-102306678D02*
X209409069Y-102378107D01*
X209409069Y-102378107D02*
X209480498Y-102520964D01*
X209480498Y-102520964D02*
X209480498Y-103306678D01*
X210837641Y-103306678D02*
X210837641Y-102520964D01*
X210837641Y-102520964D02*
X210766212Y-102378107D01*
X210766212Y-102378107D02*
X210623355Y-102306678D01*
X210623355Y-102306678D02*
X210337641Y-102306678D01*
X210337641Y-102306678D02*
X210194783Y-102378107D01*
X210837641Y-103235250D02*
X210694783Y-103306678D01*
X210694783Y-103306678D02*
X210337641Y-103306678D01*
X210337641Y-103306678D02*
X210194783Y-103235250D01*
X210194783Y-103235250D02*
X210123355Y-103092392D01*
X210123355Y-103092392D02*
X210123355Y-102949535D01*
X210123355Y-102949535D02*
X210194783Y-102806678D01*
X210194783Y-102806678D02*
X210337641Y-102735250D01*
X210337641Y-102735250D02*
X210694783Y-102735250D01*
X210694783Y-102735250D02*
X210837641Y-102663821D01*
X211766212Y-103306678D02*
X211623355Y-103235250D01*
X211623355Y-103235250D02*
X211551926Y-103092392D01*
X211551926Y-103092392D02*
X211551926Y-101806678D01*
X212551926Y-103306678D02*
X212409069Y-103235250D01*
X212409069Y-103235250D02*
X212337640Y-103163821D01*
X212337640Y-103163821D02*
X212266212Y-103020964D01*
X212266212Y-103020964D02*
X212266212Y-102592392D01*
X212266212Y-102592392D02*
X212337640Y-102449535D01*
X212337640Y-102449535D02*
X212409069Y-102378107D01*
X212409069Y-102378107D02*
X212551926Y-102306678D01*
X212551926Y-102306678D02*
X212766212Y-102306678D01*
X212766212Y-102306678D02*
X212909069Y-102378107D01*
X212909069Y-102378107D02*
X212980498Y-102449535D01*
X212980498Y-102449535D02*
X213051926Y-102592392D01*
X213051926Y-102592392D02*
X213051926Y-103020964D01*
X213051926Y-103020964D02*
X212980498Y-103163821D01*
X212980498Y-103163821D02*
X212909069Y-103235250D01*
X212909069Y-103235250D02*
X212766212Y-103306678D01*
X212766212Y-103306678D02*
X212551926Y-103306678D01*
X214337641Y-102306678D02*
X214337641Y-103520964D01*
X214337641Y-103520964D02*
X214266212Y-103663821D01*
X214266212Y-103663821D02*
X214194783Y-103735250D01*
X214194783Y-103735250D02*
X214051926Y-103806678D01*
X214051926Y-103806678D02*
X213837641Y-103806678D01*
X213837641Y-103806678D02*
X213694783Y-103735250D01*
X214337641Y-103235250D02*
X214194783Y-103306678D01*
X214194783Y-103306678D02*
X213909069Y-103306678D01*
X213909069Y-103306678D02*
X213766212Y-103235250D01*
X213766212Y-103235250D02*
X213694783Y-103163821D01*
X213694783Y-103163821D02*
X213623355Y-103020964D01*
X213623355Y-103020964D02*
X213623355Y-102592392D01*
X213623355Y-102592392D02*
X213694783Y-102449535D01*
X213694783Y-102449535D02*
X213766212Y-102378107D01*
X213766212Y-102378107D02*
X213909069Y-102306678D01*
X213909069Y-102306678D02*
X214194783Y-102306678D01*
X214194783Y-102306678D02*
X214337641Y-102378107D01*
D11*
X208411653Y-111157971D02*
X208340225Y-111229400D01*
X208340225Y-111229400D02*
X208125939Y-111300828D01*
X208125939Y-111300828D02*
X207983082Y-111300828D01*
X207983082Y-111300828D02*
X207768796Y-111229400D01*
X207768796Y-111229400D02*
X207625939Y-111086542D01*
X207625939Y-111086542D02*
X207554510Y-110943685D01*
X207554510Y-110943685D02*
X207483082Y-110657971D01*
X207483082Y-110657971D02*
X207483082Y-110443685D01*
X207483082Y-110443685D02*
X207554510Y-110157971D01*
X207554510Y-110157971D02*
X207625939Y-110015114D01*
X207625939Y-110015114D02*
X207768796Y-109872257D01*
X207768796Y-109872257D02*
X207983082Y-109800828D01*
X207983082Y-109800828D02*
X208125939Y-109800828D01*
X208125939Y-109800828D02*
X208340225Y-109872257D01*
X208340225Y-109872257D02*
X208411653Y-109943685D01*
X208983082Y-111229400D02*
X209197368Y-111300828D01*
X209197368Y-111300828D02*
X209554510Y-111300828D01*
X209554510Y-111300828D02*
X209697368Y-111229400D01*
X209697368Y-111229400D02*
X209768796Y-111157971D01*
X209768796Y-111157971D02*
X209840225Y-111015114D01*
X209840225Y-111015114D02*
X209840225Y-110872257D01*
X209840225Y-110872257D02*
X209768796Y-110729400D01*
X209768796Y-110729400D02*
X209697368Y-110657971D01*
X209697368Y-110657971D02*
X209554510Y-110586542D01*
X209554510Y-110586542D02*
X209268796Y-110515114D01*
X209268796Y-110515114D02*
X209125939Y-110443685D01*
X209125939Y-110443685D02*
X209054510Y-110372257D01*
X209054510Y-110372257D02*
X208983082Y-110229400D01*
X208983082Y-110229400D02*
X208983082Y-110086542D01*
X208983082Y-110086542D02*
X209054510Y-109943685D01*
X209054510Y-109943685D02*
X209125939Y-109872257D01*
X209125939Y-109872257D02*
X209268796Y-109800828D01*
X209268796Y-109800828D02*
X209625939Y-109800828D01*
X209625939Y-109800828D02*
X209840225Y-109872257D01*
X207554510Y-95800828D02*
X207554510Y-94300828D01*
X207554510Y-94300828D02*
X208054510Y-95372257D01*
X208054510Y-95372257D02*
X208554510Y-94300828D01*
X208554510Y-94300828D02*
X208554510Y-95800828D01*
X209268796Y-95800828D02*
X209268796Y-94300828D01*
X209911654Y-95729400D02*
X210125940Y-95800828D01*
X210125940Y-95800828D02*
X210483082Y-95800828D01*
X210483082Y-95800828D02*
X210625940Y-95729400D01*
X210625940Y-95729400D02*
X210697368Y-95657971D01*
X210697368Y-95657971D02*
X210768797Y-95515114D01*
X210768797Y-95515114D02*
X210768797Y-95372257D01*
X210768797Y-95372257D02*
X210697368Y-95229400D01*
X210697368Y-95229400D02*
X210625940Y-95157971D01*
X210625940Y-95157971D02*
X210483082Y-95086542D01*
X210483082Y-95086542D02*
X210197368Y-95015114D01*
X210197368Y-95015114D02*
X210054511Y-94943685D01*
X210054511Y-94943685D02*
X209983082Y-94872257D01*
X209983082Y-94872257D02*
X209911654Y-94729400D01*
X209911654Y-94729400D02*
X209911654Y-94586542D01*
X209911654Y-94586542D02*
X209983082Y-94443685D01*
X209983082Y-94443685D02*
X210054511Y-94372257D01*
X210054511Y-94372257D02*
X210197368Y-94300828D01*
X210197368Y-94300828D02*
X210554511Y-94300828D01*
X210554511Y-94300828D02*
X210768797Y-94372257D01*
X211697368Y-94300828D02*
X211983082Y-94300828D01*
X211983082Y-94300828D02*
X212125939Y-94372257D01*
X212125939Y-94372257D02*
X212268796Y-94515114D01*
X212268796Y-94515114D02*
X212340225Y-94800828D01*
X212340225Y-94800828D02*
X212340225Y-95300828D01*
X212340225Y-95300828D02*
X212268796Y-95586542D01*
X212268796Y-95586542D02*
X212125939Y-95729400D01*
X212125939Y-95729400D02*
X211983082Y-95800828D01*
X211983082Y-95800828D02*
X211697368Y-95800828D01*
X211697368Y-95800828D02*
X211554511Y-95729400D01*
X211554511Y-95729400D02*
X211411653Y-95586542D01*
X211411653Y-95586542D02*
X211340225Y-95300828D01*
X211340225Y-95300828D02*
X211340225Y-94800828D01*
X211340225Y-94800828D02*
X211411653Y-94515114D01*
X211411653Y-94515114D02*
X211554511Y-94372257D01*
X211554511Y-94372257D02*
X211697368Y-94300828D01*
X207483082Y-83229400D02*
X207697368Y-83300828D01*
X207697368Y-83300828D02*
X208054510Y-83300828D01*
X208054510Y-83300828D02*
X208197368Y-83229400D01*
X208197368Y-83229400D02*
X208268796Y-83157971D01*
X208268796Y-83157971D02*
X208340225Y-83015114D01*
X208340225Y-83015114D02*
X208340225Y-82872257D01*
X208340225Y-82872257D02*
X208268796Y-82729400D01*
X208268796Y-82729400D02*
X208197368Y-82657971D01*
X208197368Y-82657971D02*
X208054510Y-82586542D01*
X208054510Y-82586542D02*
X207768796Y-82515114D01*
X207768796Y-82515114D02*
X207625939Y-82443685D01*
X207625939Y-82443685D02*
X207554510Y-82372257D01*
X207554510Y-82372257D02*
X207483082Y-82229400D01*
X207483082Y-82229400D02*
X207483082Y-82086542D01*
X207483082Y-82086542D02*
X207554510Y-81943685D01*
X207554510Y-81943685D02*
X207625939Y-81872257D01*
X207625939Y-81872257D02*
X207768796Y-81800828D01*
X207768796Y-81800828D02*
X208125939Y-81800828D01*
X208125939Y-81800828D02*
X208340225Y-81872257D01*
X209840224Y-83157971D02*
X209768796Y-83229400D01*
X209768796Y-83229400D02*
X209554510Y-83300828D01*
X209554510Y-83300828D02*
X209411653Y-83300828D01*
X209411653Y-83300828D02*
X209197367Y-83229400D01*
X209197367Y-83229400D02*
X209054510Y-83086542D01*
X209054510Y-83086542D02*
X208983081Y-82943685D01*
X208983081Y-82943685D02*
X208911653Y-82657971D01*
X208911653Y-82657971D02*
X208911653Y-82443685D01*
X208911653Y-82443685D02*
X208983081Y-82157971D01*
X208983081Y-82157971D02*
X209054510Y-82015114D01*
X209054510Y-82015114D02*
X209197367Y-81872257D01*
X209197367Y-81872257D02*
X209411653Y-81800828D01*
X209411653Y-81800828D02*
X209554510Y-81800828D01*
X209554510Y-81800828D02*
X209768796Y-81872257D01*
X209768796Y-81872257D02*
X209840224Y-81943685D01*
X211197367Y-83300828D02*
X210483081Y-83300828D01*
X210483081Y-83300828D02*
X210483081Y-81800828D01*
X208411653Y-108657971D02*
X208340225Y-108729400D01*
X208340225Y-108729400D02*
X208125939Y-108800828D01*
X208125939Y-108800828D02*
X207983082Y-108800828D01*
X207983082Y-108800828D02*
X207768796Y-108729400D01*
X207768796Y-108729400D02*
X207625939Y-108586542D01*
X207625939Y-108586542D02*
X207554510Y-108443685D01*
X207554510Y-108443685D02*
X207483082Y-108157971D01*
X207483082Y-108157971D02*
X207483082Y-107943685D01*
X207483082Y-107943685D02*
X207554510Y-107657971D01*
X207554510Y-107657971D02*
X207625939Y-107515114D01*
X207625939Y-107515114D02*
X207768796Y-107372257D01*
X207768796Y-107372257D02*
X207983082Y-107300828D01*
X207983082Y-107300828D02*
X208125939Y-107300828D01*
X208125939Y-107300828D02*
X208340225Y-107372257D01*
X208340225Y-107372257D02*
X208411653Y-107443685D01*
X208983082Y-108729400D02*
X209197368Y-108800828D01*
X209197368Y-108800828D02*
X209554510Y-108800828D01*
X209554510Y-108800828D02*
X209697368Y-108729400D01*
X209697368Y-108729400D02*
X209768796Y-108657971D01*
X209768796Y-108657971D02*
X209840225Y-108515114D01*
X209840225Y-108515114D02*
X209840225Y-108372257D01*
X209840225Y-108372257D02*
X209768796Y-108229400D01*
X209768796Y-108229400D02*
X209697368Y-108157971D01*
X209697368Y-108157971D02*
X209554510Y-108086542D01*
X209554510Y-108086542D02*
X209268796Y-108015114D01*
X209268796Y-108015114D02*
X209125939Y-107943685D01*
X209125939Y-107943685D02*
X209054510Y-107872257D01*
X209054510Y-107872257D02*
X208983082Y-107729400D01*
X208983082Y-107729400D02*
X208983082Y-107586542D01*
X208983082Y-107586542D02*
X209054510Y-107443685D01*
X209054510Y-107443685D02*
X209125939Y-107372257D01*
X209125939Y-107372257D02*
X209268796Y-107300828D01*
X209268796Y-107300828D02*
X209625939Y-107300828D01*
X209625939Y-107300828D02*
X209840225Y-107372257D01*
D12*
X168327693Y-88200150D02*
X168232455Y-88152531D01*
X168232455Y-88152531D02*
X168089598Y-88152531D01*
X168089598Y-88152531D02*
X167946741Y-88200150D01*
X167946741Y-88200150D02*
X167851503Y-88295388D01*
X167851503Y-88295388D02*
X167803884Y-88390626D01*
X167803884Y-88390626D02*
X167756265Y-88581102D01*
X167756265Y-88581102D02*
X167756265Y-88723959D01*
X167756265Y-88723959D02*
X167803884Y-88914435D01*
X167803884Y-88914435D02*
X167851503Y-89009673D01*
X167851503Y-89009673D02*
X167946741Y-89104912D01*
X167946741Y-89104912D02*
X168089598Y-89152531D01*
X168089598Y-89152531D02*
X168184836Y-89152531D01*
X168184836Y-89152531D02*
X168327693Y-89104912D01*
X168327693Y-89104912D02*
X168375312Y-89057292D01*
X168375312Y-89057292D02*
X168375312Y-88723959D01*
X168375312Y-88723959D02*
X168184836Y-88723959D01*
X168994360Y-88676340D02*
X168994360Y-89152531D01*
X168661027Y-88152531D02*
X168994360Y-88676340D01*
X168994360Y-88676340D02*
X169327693Y-88152531D01*
X170232455Y-89152531D02*
X169899122Y-88676340D01*
X169661027Y-89152531D02*
X169661027Y-88152531D01*
X169661027Y-88152531D02*
X170041979Y-88152531D01*
X170041979Y-88152531D02*
X170137217Y-88200150D01*
X170137217Y-88200150D02*
X170184836Y-88247769D01*
X170184836Y-88247769D02*
X170232455Y-88343007D01*
X170232455Y-88343007D02*
X170232455Y-88485864D01*
X170232455Y-88485864D02*
X170184836Y-88581102D01*
X170184836Y-88581102D02*
X170137217Y-88628721D01*
X170137217Y-88628721D02*
X170041979Y-88676340D01*
X170041979Y-88676340D02*
X169661027Y-88676340D01*
X170851503Y-88152531D02*
X171041979Y-88152531D01*
X171041979Y-88152531D02*
X171137217Y-88200150D01*
X171137217Y-88200150D02*
X171232455Y-88295388D01*
X171232455Y-88295388D02*
X171280074Y-88485864D01*
X171280074Y-88485864D02*
X171280074Y-88819197D01*
X171280074Y-88819197D02*
X171232455Y-89009673D01*
X171232455Y-89009673D02*
X171137217Y-89104912D01*
X171137217Y-89104912D02*
X171041979Y-89152531D01*
X171041979Y-89152531D02*
X170851503Y-89152531D01*
X170851503Y-89152531D02*
X170756265Y-89104912D01*
X170756265Y-89104912D02*
X170661027Y-89009673D01*
X170661027Y-89009673D02*
X170613408Y-88819197D01*
X170613408Y-88819197D02*
X170613408Y-88485864D01*
X170613408Y-88485864D02*
X170661027Y-88295388D01*
X170661027Y-88295388D02*
X170756265Y-88200150D01*
X170756265Y-88200150D02*
X170851503Y-88152531D01*
X172470551Y-88771578D02*
X173232456Y-88771578D01*
X172851503Y-89152531D02*
X172851503Y-88390626D01*
X167756265Y-90476760D02*
X168232455Y-90476760D01*
X167661027Y-90762475D02*
X167994360Y-89762475D01*
X167994360Y-89762475D02*
X168327693Y-90762475D01*
X169232455Y-90667236D02*
X169184836Y-90714856D01*
X169184836Y-90714856D02*
X169041979Y-90762475D01*
X169041979Y-90762475D02*
X168946741Y-90762475D01*
X168946741Y-90762475D02*
X168803884Y-90714856D01*
X168803884Y-90714856D02*
X168708646Y-90619617D01*
X168708646Y-90619617D02*
X168661027Y-90524379D01*
X168661027Y-90524379D02*
X168613408Y-90333903D01*
X168613408Y-90333903D02*
X168613408Y-90191046D01*
X168613408Y-90191046D02*
X168661027Y-90000570D01*
X168661027Y-90000570D02*
X168708646Y-89905332D01*
X168708646Y-89905332D02*
X168803884Y-89810094D01*
X168803884Y-89810094D02*
X168946741Y-89762475D01*
X168946741Y-89762475D02*
X169041979Y-89762475D01*
X169041979Y-89762475D02*
X169184836Y-89810094D01*
X169184836Y-89810094D02*
X169232455Y-89857713D01*
X170232455Y-90667236D02*
X170184836Y-90714856D01*
X170184836Y-90714856D02*
X170041979Y-90762475D01*
X170041979Y-90762475D02*
X169946741Y-90762475D01*
X169946741Y-90762475D02*
X169803884Y-90714856D01*
X169803884Y-90714856D02*
X169708646Y-90619617D01*
X169708646Y-90619617D02*
X169661027Y-90524379D01*
X169661027Y-90524379D02*
X169613408Y-90333903D01*
X169613408Y-90333903D02*
X169613408Y-90191046D01*
X169613408Y-90191046D02*
X169661027Y-90000570D01*
X169661027Y-90000570D02*
X169708646Y-89905332D01*
X169708646Y-89905332D02*
X169803884Y-89810094D01*
X169803884Y-89810094D02*
X169946741Y-89762475D01*
X169946741Y-89762475D02*
X170041979Y-89762475D01*
X170041979Y-89762475D02*
X170184836Y-89810094D01*
X170184836Y-89810094D02*
X170232455Y-89857713D01*
X170661027Y-90238665D02*
X170994360Y-90238665D01*
X171137217Y-90762475D02*
X170661027Y-90762475D01*
X170661027Y-90762475D02*
X170661027Y-89762475D01*
X170661027Y-89762475D02*
X171137217Y-89762475D01*
X172041979Y-90762475D02*
X171565789Y-90762475D01*
X171565789Y-90762475D02*
X171565789Y-89762475D01*
X173137218Y-90381522D02*
X173899123Y-90381522D01*
X173518170Y-90762475D02*
X173518170Y-90000570D01*
X167803884Y-92372419D02*
X167803884Y-91372419D01*
X167803884Y-91372419D02*
X168137217Y-92086704D01*
X168137217Y-92086704D02*
X168470550Y-91372419D01*
X168470550Y-91372419D02*
X168470550Y-92372419D01*
X168899122Y-92086704D02*
X169375312Y-92086704D01*
X168803884Y-92372419D02*
X169137217Y-91372419D01*
X169137217Y-91372419D02*
X169470550Y-92372419D01*
X170327693Y-91420038D02*
X170232455Y-91372419D01*
X170232455Y-91372419D02*
X170089598Y-91372419D01*
X170089598Y-91372419D02*
X169946741Y-91420038D01*
X169946741Y-91420038D02*
X169851503Y-91515276D01*
X169851503Y-91515276D02*
X169803884Y-91610514D01*
X169803884Y-91610514D02*
X169756265Y-91800990D01*
X169756265Y-91800990D02*
X169756265Y-91943847D01*
X169756265Y-91943847D02*
X169803884Y-92134323D01*
X169803884Y-92134323D02*
X169851503Y-92229561D01*
X169851503Y-92229561D02*
X169946741Y-92324800D01*
X169946741Y-92324800D02*
X170089598Y-92372419D01*
X170089598Y-92372419D02*
X170184836Y-92372419D01*
X170184836Y-92372419D02*
X170327693Y-92324800D01*
X170327693Y-92324800D02*
X170375312Y-92277180D01*
X170375312Y-92277180D02*
X170375312Y-91943847D01*
X170375312Y-91943847D02*
X170184836Y-91943847D01*
X170803884Y-92372419D02*
X170803884Y-91372419D01*
X170803884Y-91372419D02*
X171375312Y-92372419D01*
X171375312Y-92372419D02*
X171375312Y-91372419D01*
X171851503Y-91848609D02*
X172184836Y-91848609D01*
X172327693Y-92372419D02*
X171851503Y-92372419D01*
X171851503Y-92372419D02*
X171851503Y-91372419D01*
X171851503Y-91372419D02*
X172327693Y-91372419D01*
X172613408Y-91372419D02*
X173184836Y-91372419D01*
X172899122Y-92372419D02*
X172899122Y-91372419D01*
X182280074Y-139872419D02*
X181803884Y-139872419D01*
X181803884Y-139872419D02*
X181803884Y-138872419D01*
X182803884Y-138872419D02*
X182994360Y-138872419D01*
X182994360Y-138872419D02*
X183089598Y-138920038D01*
X183089598Y-138920038D02*
X183184836Y-139015276D01*
X183184836Y-139015276D02*
X183232455Y-139205752D01*
X183232455Y-139205752D02*
X183232455Y-139539085D01*
X183232455Y-139539085D02*
X183184836Y-139729561D01*
X183184836Y-139729561D02*
X183089598Y-139824800D01*
X183089598Y-139824800D02*
X182994360Y-139872419D01*
X182994360Y-139872419D02*
X182803884Y-139872419D01*
X182803884Y-139872419D02*
X182708646Y-139824800D01*
X182708646Y-139824800D02*
X182613408Y-139729561D01*
X182613408Y-139729561D02*
X182565789Y-139539085D01*
X182565789Y-139539085D02*
X182565789Y-139205752D01*
X182565789Y-139205752D02*
X182613408Y-139015276D01*
X182613408Y-139015276D02*
X182708646Y-138920038D01*
X182708646Y-138920038D02*
X182803884Y-138872419D01*
X184232455Y-139872419D02*
X183899122Y-139396228D01*
X183661027Y-139872419D02*
X183661027Y-138872419D01*
X183661027Y-138872419D02*
X184041979Y-138872419D01*
X184041979Y-138872419D02*
X184137217Y-138920038D01*
X184137217Y-138920038D02*
X184184836Y-138967657D01*
X184184836Y-138967657D02*
X184232455Y-139062895D01*
X184232455Y-139062895D02*
X184232455Y-139205752D01*
X184232455Y-139205752D02*
X184184836Y-139300990D01*
X184184836Y-139300990D02*
X184137217Y-139348609D01*
X184137217Y-139348609D02*
X184041979Y-139396228D01*
X184041979Y-139396228D02*
X183661027Y-139396228D01*
X184613408Y-139586704D02*
X185089598Y-139586704D01*
X184518170Y-139872419D02*
X184851503Y-138872419D01*
X184851503Y-138872419D02*
X185184836Y-139872419D01*
X186851503Y-139872419D02*
X186518170Y-139396228D01*
X186280075Y-139872419D02*
X186280075Y-138872419D01*
X186280075Y-138872419D02*
X186661027Y-138872419D01*
X186661027Y-138872419D02*
X186756265Y-138920038D01*
X186756265Y-138920038D02*
X186803884Y-138967657D01*
X186803884Y-138967657D02*
X186851503Y-139062895D01*
X186851503Y-139062895D02*
X186851503Y-139205752D01*
X186851503Y-139205752D02*
X186803884Y-139300990D01*
X186803884Y-139300990D02*
X186756265Y-139348609D01*
X186756265Y-139348609D02*
X186661027Y-139396228D01*
X186661027Y-139396228D02*
X186280075Y-139396228D01*
X187232456Y-139586704D02*
X187708646Y-139586704D01*
X187137218Y-139872419D02*
X187470551Y-138872419D01*
X187470551Y-138872419D02*
X187803884Y-139872419D01*
X188137218Y-139872419D02*
X188137218Y-138872419D01*
X188137218Y-138872419D02*
X188375313Y-138872419D01*
X188375313Y-138872419D02*
X188518170Y-138920038D01*
X188518170Y-138920038D02*
X188613408Y-139015276D01*
X188613408Y-139015276D02*
X188661027Y-139110514D01*
X188661027Y-139110514D02*
X188708646Y-139300990D01*
X188708646Y-139300990D02*
X188708646Y-139443847D01*
X188708646Y-139443847D02*
X188661027Y-139634323D01*
X188661027Y-139634323D02*
X188613408Y-139729561D01*
X188613408Y-139729561D02*
X188518170Y-139824800D01*
X188518170Y-139824800D02*
X188375313Y-139872419D01*
X188375313Y-139872419D02*
X188137218Y-139872419D01*
X189137218Y-139872419D02*
X189137218Y-138872419D01*
X189803884Y-138872419D02*
X189994360Y-138872419D01*
X189994360Y-138872419D02*
X190089598Y-138920038D01*
X190089598Y-138920038D02*
X190184836Y-139015276D01*
X190184836Y-139015276D02*
X190232455Y-139205752D01*
X190232455Y-139205752D02*
X190232455Y-139539085D01*
X190232455Y-139539085D02*
X190184836Y-139729561D01*
X190184836Y-139729561D02*
X190089598Y-139824800D01*
X190089598Y-139824800D02*
X189994360Y-139872419D01*
X189994360Y-139872419D02*
X189803884Y-139872419D01*
X189803884Y-139872419D02*
X189708646Y-139824800D01*
X189708646Y-139824800D02*
X189613408Y-139729561D01*
X189613408Y-139729561D02*
X189565789Y-139539085D01*
X189565789Y-139539085D02*
X189565789Y-139205752D01*
X189565789Y-139205752D02*
X189613408Y-139015276D01*
X189613408Y-139015276D02*
X189708646Y-138920038D01*
X189708646Y-138920038D02*
X189803884Y-138872419D01*
X210756265Y-128824800D02*
X210899122Y-128872419D01*
X210899122Y-128872419D02*
X211137217Y-128872419D01*
X211137217Y-128872419D02*
X211232455Y-128824800D01*
X211232455Y-128824800D02*
X211280074Y-128777180D01*
X211280074Y-128777180D02*
X211327693Y-128681942D01*
X211327693Y-128681942D02*
X211327693Y-128586704D01*
X211327693Y-128586704D02*
X211280074Y-128491466D01*
X211280074Y-128491466D02*
X211232455Y-128443847D01*
X211232455Y-128443847D02*
X211137217Y-128396228D01*
X211137217Y-128396228D02*
X210946741Y-128348609D01*
X210946741Y-128348609D02*
X210851503Y-128300990D01*
X210851503Y-128300990D02*
X210803884Y-128253371D01*
X210803884Y-128253371D02*
X210756265Y-128158133D01*
X210756265Y-128158133D02*
X210756265Y-128062895D01*
X210756265Y-128062895D02*
X210803884Y-127967657D01*
X210803884Y-127967657D02*
X210851503Y-127920038D01*
X210851503Y-127920038D02*
X210946741Y-127872419D01*
X210946741Y-127872419D02*
X211184836Y-127872419D01*
X211184836Y-127872419D02*
X211327693Y-127920038D01*
X211756265Y-128872419D02*
X211756265Y-127872419D01*
X211756265Y-127872419D02*
X211994360Y-127872419D01*
X211994360Y-127872419D02*
X212137217Y-127920038D01*
X212137217Y-127920038D02*
X212232455Y-128015276D01*
X212232455Y-128015276D02*
X212280074Y-128110514D01*
X212280074Y-128110514D02*
X212327693Y-128300990D01*
X212327693Y-128300990D02*
X212327693Y-128443847D01*
X212327693Y-128443847D02*
X212280074Y-128634323D01*
X212280074Y-128634323D02*
X212232455Y-128729561D01*
X212232455Y-128729561D02*
X212137217Y-128824800D01*
X212137217Y-128824800D02*
X211994360Y-128872419D01*
X211994360Y-128872419D02*
X211756265Y-128872419D01*
X214089598Y-128777180D02*
X214041979Y-128824800D01*
X214041979Y-128824800D02*
X213899122Y-128872419D01*
X213899122Y-128872419D02*
X213803884Y-128872419D01*
X213803884Y-128872419D02*
X213661027Y-128824800D01*
X213661027Y-128824800D02*
X213565789Y-128729561D01*
X213565789Y-128729561D02*
X213518170Y-128634323D01*
X213518170Y-128634323D02*
X213470551Y-128443847D01*
X213470551Y-128443847D02*
X213470551Y-128300990D01*
X213470551Y-128300990D02*
X213518170Y-128110514D01*
X213518170Y-128110514D02*
X213565789Y-128015276D01*
X213565789Y-128015276D02*
X213661027Y-127920038D01*
X213661027Y-127920038D02*
X213803884Y-127872419D01*
X213803884Y-127872419D02*
X213899122Y-127872419D01*
X213899122Y-127872419D02*
X214041979Y-127920038D01*
X214041979Y-127920038D02*
X214089598Y-127967657D01*
X214470551Y-128586704D02*
X214946741Y-128586704D01*
X214375313Y-128872419D02*
X214708646Y-127872419D01*
X214708646Y-127872419D02*
X215041979Y-128872419D01*
X215946741Y-128872419D02*
X215613408Y-128396228D01*
X215375313Y-128872419D02*
X215375313Y-127872419D01*
X215375313Y-127872419D02*
X215756265Y-127872419D01*
X215756265Y-127872419D02*
X215851503Y-127920038D01*
X215851503Y-127920038D02*
X215899122Y-127967657D01*
X215899122Y-127967657D02*
X215946741Y-128062895D01*
X215946741Y-128062895D02*
X215946741Y-128205752D01*
X215946741Y-128205752D02*
X215899122Y-128300990D01*
X215899122Y-128300990D02*
X215851503Y-128348609D01*
X215851503Y-128348609D02*
X215756265Y-128396228D01*
X215756265Y-128396228D02*
X215375313Y-128396228D01*
X216375313Y-128872419D02*
X216375313Y-127872419D01*
X216375313Y-127872419D02*
X216613408Y-127872419D01*
X216613408Y-127872419D02*
X216756265Y-127920038D01*
X216756265Y-127920038D02*
X216851503Y-128015276D01*
X216851503Y-128015276D02*
X216899122Y-128110514D01*
X216899122Y-128110514D02*
X216946741Y-128300990D01*
X216946741Y-128300990D02*
X216946741Y-128443847D01*
X216946741Y-128443847D02*
X216899122Y-128634323D01*
X216899122Y-128634323D02*
X216851503Y-128729561D01*
X216851503Y-128729561D02*
X216756265Y-128824800D01*
X216756265Y-128824800D02*
X216613408Y-128872419D01*
X216613408Y-128872419D02*
X216375313Y-128872419D01*
D11*
X207483082Y-90729400D02*
X207697368Y-90800828D01*
X207697368Y-90800828D02*
X208054510Y-90800828D01*
X208054510Y-90800828D02*
X208197368Y-90729400D01*
X208197368Y-90729400D02*
X208268796Y-90657971D01*
X208268796Y-90657971D02*
X208340225Y-90515114D01*
X208340225Y-90515114D02*
X208340225Y-90372257D01*
X208340225Y-90372257D02*
X208268796Y-90229400D01*
X208268796Y-90229400D02*
X208197368Y-90157971D01*
X208197368Y-90157971D02*
X208054510Y-90086542D01*
X208054510Y-90086542D02*
X207768796Y-90015114D01*
X207768796Y-90015114D02*
X207625939Y-89943685D01*
X207625939Y-89943685D02*
X207554510Y-89872257D01*
X207554510Y-89872257D02*
X207483082Y-89729400D01*
X207483082Y-89729400D02*
X207483082Y-89586542D01*
X207483082Y-89586542D02*
X207554510Y-89443685D01*
X207554510Y-89443685D02*
X207625939Y-89372257D01*
X207625939Y-89372257D02*
X207768796Y-89300828D01*
X207768796Y-89300828D02*
X208125939Y-89300828D01*
X208125939Y-89300828D02*
X208340225Y-89372257D01*
X209840224Y-90657971D02*
X209768796Y-90729400D01*
X209768796Y-90729400D02*
X209554510Y-90800828D01*
X209554510Y-90800828D02*
X209411653Y-90800828D01*
X209411653Y-90800828D02*
X209197367Y-90729400D01*
X209197367Y-90729400D02*
X209054510Y-90586542D01*
X209054510Y-90586542D02*
X208983081Y-90443685D01*
X208983081Y-90443685D02*
X208911653Y-90157971D01*
X208911653Y-90157971D02*
X208911653Y-89943685D01*
X208911653Y-89943685D02*
X208983081Y-89657971D01*
X208983081Y-89657971D02*
X209054510Y-89515114D01*
X209054510Y-89515114D02*
X209197367Y-89372257D01*
X209197367Y-89372257D02*
X209411653Y-89300828D01*
X209411653Y-89300828D02*
X209554510Y-89300828D01*
X209554510Y-89300828D02*
X209768796Y-89372257D01*
X209768796Y-89372257D02*
X209840224Y-89443685D01*
X210483081Y-90800828D02*
X210483081Y-89300828D01*
X211340224Y-90800828D02*
X210697367Y-89943685D01*
X211340224Y-89300828D02*
X210483081Y-90157971D01*
D12*
X167661027Y-123262475D02*
X168232455Y-123262475D01*
X167946741Y-124262475D02*
X167946741Y-123262475D01*
X168565789Y-123738665D02*
X168899122Y-123738665D01*
X169041979Y-124262475D02*
X168565789Y-124262475D01*
X168565789Y-124262475D02*
X168565789Y-123262475D01*
X168565789Y-123262475D02*
X169041979Y-123262475D01*
X169470551Y-124262475D02*
X169470551Y-123262475D01*
X169470551Y-123262475D02*
X169803884Y-123976760D01*
X169803884Y-123976760D02*
X170137217Y-123262475D01*
X170137217Y-123262475D02*
X170137217Y-124262475D01*
X170613408Y-124262475D02*
X170613408Y-123262475D01*
X170613408Y-123262475D02*
X170994360Y-123262475D01*
X170994360Y-123262475D02*
X171089598Y-123310094D01*
X171089598Y-123310094D02*
X171137217Y-123357713D01*
X171137217Y-123357713D02*
X171184836Y-123452951D01*
X171184836Y-123452951D02*
X171184836Y-123595808D01*
X171184836Y-123595808D02*
X171137217Y-123691046D01*
X171137217Y-123691046D02*
X171089598Y-123738665D01*
X171089598Y-123738665D02*
X170994360Y-123786284D01*
X170994360Y-123786284D02*
X170613408Y-123786284D01*
X167756265Y-125824800D02*
X167899122Y-125872419D01*
X167899122Y-125872419D02*
X168137217Y-125872419D01*
X168137217Y-125872419D02*
X168232455Y-125824800D01*
X168232455Y-125824800D02*
X168280074Y-125777180D01*
X168280074Y-125777180D02*
X168327693Y-125681942D01*
X168327693Y-125681942D02*
X168327693Y-125586704D01*
X168327693Y-125586704D02*
X168280074Y-125491466D01*
X168280074Y-125491466D02*
X168232455Y-125443847D01*
X168232455Y-125443847D02*
X168137217Y-125396228D01*
X168137217Y-125396228D02*
X167946741Y-125348609D01*
X167946741Y-125348609D02*
X167851503Y-125300990D01*
X167851503Y-125300990D02*
X167803884Y-125253371D01*
X167803884Y-125253371D02*
X167756265Y-125158133D01*
X167756265Y-125158133D02*
X167756265Y-125062895D01*
X167756265Y-125062895D02*
X167803884Y-124967657D01*
X167803884Y-124967657D02*
X167851503Y-124920038D01*
X167851503Y-124920038D02*
X167946741Y-124872419D01*
X167946741Y-124872419D02*
X168184836Y-124872419D01*
X168184836Y-124872419D02*
X168327693Y-124920038D01*
X168756265Y-125348609D02*
X169089598Y-125348609D01*
X169232455Y-125872419D02*
X168756265Y-125872419D01*
X168756265Y-125872419D02*
X168756265Y-124872419D01*
X168756265Y-124872419D02*
X169232455Y-124872419D01*
X169661027Y-125872419D02*
X169661027Y-124872419D01*
X169661027Y-124872419D02*
X170232455Y-125872419D01*
X170232455Y-125872419D02*
X170232455Y-124872419D01*
X170661027Y-125824800D02*
X170803884Y-125872419D01*
X170803884Y-125872419D02*
X171041979Y-125872419D01*
X171041979Y-125872419D02*
X171137217Y-125824800D01*
X171137217Y-125824800D02*
X171184836Y-125777180D01*
X171184836Y-125777180D02*
X171232455Y-125681942D01*
X171232455Y-125681942D02*
X171232455Y-125586704D01*
X171232455Y-125586704D02*
X171184836Y-125491466D01*
X171184836Y-125491466D02*
X171137217Y-125443847D01*
X171137217Y-125443847D02*
X171041979Y-125396228D01*
X171041979Y-125396228D02*
X170851503Y-125348609D01*
X170851503Y-125348609D02*
X170756265Y-125300990D01*
X170756265Y-125300990D02*
X170708646Y-125253371D01*
X170708646Y-125253371D02*
X170661027Y-125158133D01*
X170661027Y-125158133D02*
X170661027Y-125062895D01*
X170661027Y-125062895D02*
X170708646Y-124967657D01*
X170708646Y-124967657D02*
X170756265Y-124920038D01*
X170756265Y-124920038D02*
X170851503Y-124872419D01*
X170851503Y-124872419D02*
X171089598Y-124872419D01*
X171089598Y-124872419D02*
X171232455Y-124920038D01*
D11*
X207554510Y-93300828D02*
X207554510Y-91800828D01*
X207554510Y-91800828D02*
X208054510Y-92872257D01*
X208054510Y-92872257D02*
X208554510Y-91800828D01*
X208554510Y-91800828D02*
X208554510Y-93300828D01*
X209554511Y-91800828D02*
X209840225Y-91800828D01*
X209840225Y-91800828D02*
X209983082Y-91872257D01*
X209983082Y-91872257D02*
X210125939Y-92015114D01*
X210125939Y-92015114D02*
X210197368Y-92300828D01*
X210197368Y-92300828D02*
X210197368Y-92800828D01*
X210197368Y-92800828D02*
X210125939Y-93086542D01*
X210125939Y-93086542D02*
X209983082Y-93229400D01*
X209983082Y-93229400D02*
X209840225Y-93300828D01*
X209840225Y-93300828D02*
X209554511Y-93300828D01*
X209554511Y-93300828D02*
X209411654Y-93229400D01*
X209411654Y-93229400D02*
X209268796Y-93086542D01*
X209268796Y-93086542D02*
X209197368Y-92800828D01*
X209197368Y-92800828D02*
X209197368Y-92300828D01*
X209197368Y-92300828D02*
X209268796Y-92015114D01*
X209268796Y-92015114D02*
X209411654Y-91872257D01*
X209411654Y-91872257D02*
X209554511Y-91800828D01*
X210768797Y-93229400D02*
X210983083Y-93300828D01*
X210983083Y-93300828D02*
X211340225Y-93300828D01*
X211340225Y-93300828D02*
X211483083Y-93229400D01*
X211483083Y-93229400D02*
X211554511Y-93157971D01*
X211554511Y-93157971D02*
X211625940Y-93015114D01*
X211625940Y-93015114D02*
X211625940Y-92872257D01*
X211625940Y-92872257D02*
X211554511Y-92729400D01*
X211554511Y-92729400D02*
X211483083Y-92657971D01*
X211483083Y-92657971D02*
X211340225Y-92586542D01*
X211340225Y-92586542D02*
X211054511Y-92515114D01*
X211054511Y-92515114D02*
X210911654Y-92443685D01*
X210911654Y-92443685D02*
X210840225Y-92372257D01*
X210840225Y-92372257D02*
X210768797Y-92229400D01*
X210768797Y-92229400D02*
X210768797Y-92086542D01*
X210768797Y-92086542D02*
X210840225Y-91943685D01*
X210840225Y-91943685D02*
X210911654Y-91872257D01*
X210911654Y-91872257D02*
X211054511Y-91800828D01*
X211054511Y-91800828D02*
X211411654Y-91800828D01*
X211411654Y-91800828D02*
X211625940Y-91872257D01*
X212268796Y-93300828D02*
X212268796Y-91800828D01*
D12*
X187875312Y-67372419D02*
X187541979Y-66896228D01*
X187303884Y-67372419D02*
X187303884Y-66372419D01*
X187303884Y-66372419D02*
X187684836Y-66372419D01*
X187684836Y-66372419D02*
X187780074Y-66420038D01*
X187780074Y-66420038D02*
X187827693Y-66467657D01*
X187827693Y-66467657D02*
X187875312Y-66562895D01*
X187875312Y-66562895D02*
X187875312Y-66705752D01*
X187875312Y-66705752D02*
X187827693Y-66800990D01*
X187827693Y-66800990D02*
X187780074Y-66848609D01*
X187780074Y-66848609D02*
X187684836Y-66896228D01*
X187684836Y-66896228D02*
X187303884Y-66896228D01*
X188161027Y-66372419D02*
X188732455Y-66372419D01*
X188446741Y-67372419D02*
X188446741Y-66372419D01*
X189637217Y-67277180D02*
X189589598Y-67324800D01*
X189589598Y-67324800D02*
X189446741Y-67372419D01*
X189446741Y-67372419D02*
X189351503Y-67372419D01*
X189351503Y-67372419D02*
X189208646Y-67324800D01*
X189208646Y-67324800D02*
X189113408Y-67229561D01*
X189113408Y-67229561D02*
X189065789Y-67134323D01*
X189065789Y-67134323D02*
X189018170Y-66943847D01*
X189018170Y-66943847D02*
X189018170Y-66800990D01*
X189018170Y-66800990D02*
X189065789Y-66610514D01*
X189065789Y-66610514D02*
X189113408Y-66515276D01*
X189113408Y-66515276D02*
X189208646Y-66420038D01*
X189208646Y-66420038D02*
X189351503Y-66372419D01*
X189351503Y-66372419D02*
X189446741Y-66372419D01*
X189446741Y-66372419D02*
X189589598Y-66420038D01*
X189589598Y-66420038D02*
X189637217Y-66467657D01*
D11*
X208411653Y-113657971D02*
X208340225Y-113729400D01*
X208340225Y-113729400D02*
X208125939Y-113800828D01*
X208125939Y-113800828D02*
X207983082Y-113800828D01*
X207983082Y-113800828D02*
X207768796Y-113729400D01*
X207768796Y-113729400D02*
X207625939Y-113586542D01*
X207625939Y-113586542D02*
X207554510Y-113443685D01*
X207554510Y-113443685D02*
X207483082Y-113157971D01*
X207483082Y-113157971D02*
X207483082Y-112943685D01*
X207483082Y-112943685D02*
X207554510Y-112657971D01*
X207554510Y-112657971D02*
X207625939Y-112515114D01*
X207625939Y-112515114D02*
X207768796Y-112372257D01*
X207768796Y-112372257D02*
X207983082Y-112300828D01*
X207983082Y-112300828D02*
X208125939Y-112300828D01*
X208125939Y-112300828D02*
X208340225Y-112372257D01*
X208340225Y-112372257D02*
X208411653Y-112443685D01*
X208983082Y-113729400D02*
X209197368Y-113800828D01*
X209197368Y-113800828D02*
X209554510Y-113800828D01*
X209554510Y-113800828D02*
X209697368Y-113729400D01*
X209697368Y-113729400D02*
X209768796Y-113657971D01*
X209768796Y-113657971D02*
X209840225Y-113515114D01*
X209840225Y-113515114D02*
X209840225Y-113372257D01*
X209840225Y-113372257D02*
X209768796Y-113229400D01*
X209768796Y-113229400D02*
X209697368Y-113157971D01*
X209697368Y-113157971D02*
X209554510Y-113086542D01*
X209554510Y-113086542D02*
X209268796Y-113015114D01*
X209268796Y-113015114D02*
X209125939Y-112943685D01*
X209125939Y-112943685D02*
X209054510Y-112872257D01*
X209054510Y-112872257D02*
X208983082Y-112729400D01*
X208983082Y-112729400D02*
X208983082Y-112586542D01*
X208983082Y-112586542D02*
X209054510Y-112443685D01*
X209054510Y-112443685D02*
X209125939Y-112372257D01*
X209125939Y-112372257D02*
X209268796Y-112300828D01*
X209268796Y-112300828D02*
X209625939Y-112300828D01*
X209625939Y-112300828D02*
X209840225Y-112372257D01*
X208411653Y-116157971D02*
X208340225Y-116229400D01*
X208340225Y-116229400D02*
X208125939Y-116300828D01*
X208125939Y-116300828D02*
X207983082Y-116300828D01*
X207983082Y-116300828D02*
X207768796Y-116229400D01*
X207768796Y-116229400D02*
X207625939Y-116086542D01*
X207625939Y-116086542D02*
X207554510Y-115943685D01*
X207554510Y-115943685D02*
X207483082Y-115657971D01*
X207483082Y-115657971D02*
X207483082Y-115443685D01*
X207483082Y-115443685D02*
X207554510Y-115157971D01*
X207554510Y-115157971D02*
X207625939Y-115015114D01*
X207625939Y-115015114D02*
X207768796Y-114872257D01*
X207768796Y-114872257D02*
X207983082Y-114800828D01*
X207983082Y-114800828D02*
X208125939Y-114800828D01*
X208125939Y-114800828D02*
X208340225Y-114872257D01*
X208340225Y-114872257D02*
X208411653Y-114943685D01*
X208983082Y-116229400D02*
X209197368Y-116300828D01*
X209197368Y-116300828D02*
X209554510Y-116300828D01*
X209554510Y-116300828D02*
X209697368Y-116229400D01*
X209697368Y-116229400D02*
X209768796Y-116157971D01*
X209768796Y-116157971D02*
X209840225Y-116015114D01*
X209840225Y-116015114D02*
X209840225Y-115872257D01*
X209840225Y-115872257D02*
X209768796Y-115729400D01*
X209768796Y-115729400D02*
X209697368Y-115657971D01*
X209697368Y-115657971D02*
X209554510Y-115586542D01*
X209554510Y-115586542D02*
X209268796Y-115515114D01*
X209268796Y-115515114D02*
X209125939Y-115443685D01*
X209125939Y-115443685D02*
X209054510Y-115372257D01*
X209054510Y-115372257D02*
X208983082Y-115229400D01*
X208983082Y-115229400D02*
X208983082Y-115086542D01*
X208983082Y-115086542D02*
X209054510Y-114943685D01*
X209054510Y-114943685D02*
X209125939Y-114872257D01*
X209125939Y-114872257D02*
X209268796Y-114800828D01*
X209268796Y-114800828D02*
X209625939Y-114800828D01*
X209625939Y-114800828D02*
X209840225Y-114872257D01*
D10*
X208123355Y-100806678D02*
X208123355Y-100020964D01*
X208123355Y-100020964D02*
X208051926Y-99878107D01*
X208051926Y-99878107D02*
X207909069Y-99806678D01*
X207909069Y-99806678D02*
X207623355Y-99806678D01*
X207623355Y-99806678D02*
X207480497Y-99878107D01*
X208123355Y-100735250D02*
X207980497Y-100806678D01*
X207980497Y-100806678D02*
X207623355Y-100806678D01*
X207623355Y-100806678D02*
X207480497Y-100735250D01*
X207480497Y-100735250D02*
X207409069Y-100592392D01*
X207409069Y-100592392D02*
X207409069Y-100449535D01*
X207409069Y-100449535D02*
X207480497Y-100306678D01*
X207480497Y-100306678D02*
X207623355Y-100235250D01*
X207623355Y-100235250D02*
X207980497Y-100235250D01*
X207980497Y-100235250D02*
X208123355Y-100163821D01*
X208837640Y-99806678D02*
X208837640Y-100806678D01*
X208837640Y-99949535D02*
X208909069Y-99878107D01*
X208909069Y-99878107D02*
X209051926Y-99806678D01*
X209051926Y-99806678D02*
X209266212Y-99806678D01*
X209266212Y-99806678D02*
X209409069Y-99878107D01*
X209409069Y-99878107D02*
X209480498Y-100020964D01*
X209480498Y-100020964D02*
X209480498Y-100806678D01*
X210837641Y-100806678D02*
X210837641Y-100020964D01*
X210837641Y-100020964D02*
X210766212Y-99878107D01*
X210766212Y-99878107D02*
X210623355Y-99806678D01*
X210623355Y-99806678D02*
X210337641Y-99806678D01*
X210337641Y-99806678D02*
X210194783Y-99878107D01*
X210837641Y-100735250D02*
X210694783Y-100806678D01*
X210694783Y-100806678D02*
X210337641Y-100806678D01*
X210337641Y-100806678D02*
X210194783Y-100735250D01*
X210194783Y-100735250D02*
X210123355Y-100592392D01*
X210123355Y-100592392D02*
X210123355Y-100449535D01*
X210123355Y-100449535D02*
X210194783Y-100306678D01*
X210194783Y-100306678D02*
X210337641Y-100235250D01*
X210337641Y-100235250D02*
X210694783Y-100235250D01*
X210694783Y-100235250D02*
X210837641Y-100163821D01*
X211766212Y-100806678D02*
X211623355Y-100735250D01*
X211623355Y-100735250D02*
X211551926Y-100592392D01*
X211551926Y-100592392D02*
X211551926Y-99306678D01*
X212551926Y-100806678D02*
X212409069Y-100735250D01*
X212409069Y-100735250D02*
X212337640Y-100663821D01*
X212337640Y-100663821D02*
X212266212Y-100520964D01*
X212266212Y-100520964D02*
X212266212Y-100092392D01*
X212266212Y-100092392D02*
X212337640Y-99949535D01*
X212337640Y-99949535D02*
X212409069Y-99878107D01*
X212409069Y-99878107D02*
X212551926Y-99806678D01*
X212551926Y-99806678D02*
X212766212Y-99806678D01*
X212766212Y-99806678D02*
X212909069Y-99878107D01*
X212909069Y-99878107D02*
X212980498Y-99949535D01*
X212980498Y-99949535D02*
X213051926Y-100092392D01*
X213051926Y-100092392D02*
X213051926Y-100520964D01*
X213051926Y-100520964D02*
X212980498Y-100663821D01*
X212980498Y-100663821D02*
X212909069Y-100735250D01*
X212909069Y-100735250D02*
X212766212Y-100806678D01*
X212766212Y-100806678D02*
X212551926Y-100806678D01*
X214337641Y-99806678D02*
X214337641Y-101020964D01*
X214337641Y-101020964D02*
X214266212Y-101163821D01*
X214266212Y-101163821D02*
X214194783Y-101235250D01*
X214194783Y-101235250D02*
X214051926Y-101306678D01*
X214051926Y-101306678D02*
X213837641Y-101306678D01*
X213837641Y-101306678D02*
X213694783Y-101235250D01*
X214337641Y-100735250D02*
X214194783Y-100806678D01*
X214194783Y-100806678D02*
X213909069Y-100806678D01*
X213909069Y-100806678D02*
X213766212Y-100735250D01*
X213766212Y-100735250D02*
X213694783Y-100663821D01*
X213694783Y-100663821D02*
X213623355Y-100520964D01*
X213623355Y-100520964D02*
X213623355Y-100092392D01*
X213623355Y-100092392D02*
X213694783Y-99949535D01*
X213694783Y-99949535D02*
X213766212Y-99878107D01*
X213766212Y-99878107D02*
X213909069Y-99806678D01*
X213909069Y-99806678D02*
X214194783Y-99806678D01*
X214194783Y-99806678D02*
X214337641Y-99878107D01*
D11*
X207483082Y-85729400D02*
X207697368Y-85800828D01*
X207697368Y-85800828D02*
X208054510Y-85800828D01*
X208054510Y-85800828D02*
X208197368Y-85729400D01*
X208197368Y-85729400D02*
X208268796Y-85657971D01*
X208268796Y-85657971D02*
X208340225Y-85515114D01*
X208340225Y-85515114D02*
X208340225Y-85372257D01*
X208340225Y-85372257D02*
X208268796Y-85229400D01*
X208268796Y-85229400D02*
X208197368Y-85157971D01*
X208197368Y-85157971D02*
X208054510Y-85086542D01*
X208054510Y-85086542D02*
X207768796Y-85015114D01*
X207768796Y-85015114D02*
X207625939Y-84943685D01*
X207625939Y-84943685D02*
X207554510Y-84872257D01*
X207554510Y-84872257D02*
X207483082Y-84729400D01*
X207483082Y-84729400D02*
X207483082Y-84586542D01*
X207483082Y-84586542D02*
X207554510Y-84443685D01*
X207554510Y-84443685D02*
X207625939Y-84372257D01*
X207625939Y-84372257D02*
X207768796Y-84300828D01*
X207768796Y-84300828D02*
X208125939Y-84300828D01*
X208125939Y-84300828D02*
X208340225Y-84372257D01*
X208983081Y-85800828D02*
X208983081Y-84300828D01*
X208983081Y-84300828D02*
X209340224Y-84300828D01*
X209340224Y-84300828D02*
X209554510Y-84372257D01*
X209554510Y-84372257D02*
X209697367Y-84515114D01*
X209697367Y-84515114D02*
X209768796Y-84657971D01*
X209768796Y-84657971D02*
X209840224Y-84943685D01*
X209840224Y-84943685D02*
X209840224Y-85157971D01*
X209840224Y-85157971D02*
X209768796Y-85443685D01*
X209768796Y-85443685D02*
X209697367Y-85586542D01*
X209697367Y-85586542D02*
X209554510Y-85729400D01*
X209554510Y-85729400D02*
X209340224Y-85800828D01*
X209340224Y-85800828D02*
X208983081Y-85800828D01*
X210411653Y-85372257D02*
X211125939Y-85372257D01*
X210268796Y-85800828D02*
X210768796Y-84300828D01*
X210768796Y-84300828D02*
X211268796Y-85800828D01*
X208411653Y-118657971D02*
X208340225Y-118729400D01*
X208340225Y-118729400D02*
X208125939Y-118800828D01*
X208125939Y-118800828D02*
X207983082Y-118800828D01*
X207983082Y-118800828D02*
X207768796Y-118729400D01*
X207768796Y-118729400D02*
X207625939Y-118586542D01*
X207625939Y-118586542D02*
X207554510Y-118443685D01*
X207554510Y-118443685D02*
X207483082Y-118157971D01*
X207483082Y-118157971D02*
X207483082Y-117943685D01*
X207483082Y-117943685D02*
X207554510Y-117657971D01*
X207554510Y-117657971D02*
X207625939Y-117515114D01*
X207625939Y-117515114D02*
X207768796Y-117372257D01*
X207768796Y-117372257D02*
X207983082Y-117300828D01*
X207983082Y-117300828D02*
X208125939Y-117300828D01*
X208125939Y-117300828D02*
X208340225Y-117372257D01*
X208340225Y-117372257D02*
X208411653Y-117443685D01*
X208983082Y-118729400D02*
X209197368Y-118800828D01*
X209197368Y-118800828D02*
X209554510Y-118800828D01*
X209554510Y-118800828D02*
X209697368Y-118729400D01*
X209697368Y-118729400D02*
X209768796Y-118657971D01*
X209768796Y-118657971D02*
X209840225Y-118515114D01*
X209840225Y-118515114D02*
X209840225Y-118372257D01*
X209840225Y-118372257D02*
X209768796Y-118229400D01*
X209768796Y-118229400D02*
X209697368Y-118157971D01*
X209697368Y-118157971D02*
X209554510Y-118086542D01*
X209554510Y-118086542D02*
X209268796Y-118015114D01*
X209268796Y-118015114D02*
X209125939Y-117943685D01*
X209125939Y-117943685D02*
X209054510Y-117872257D01*
X209054510Y-117872257D02*
X208983082Y-117729400D01*
X208983082Y-117729400D02*
X208983082Y-117586542D01*
X208983082Y-117586542D02*
X209054510Y-117443685D01*
X209054510Y-117443685D02*
X209125939Y-117372257D01*
X209125939Y-117372257D02*
X209268796Y-117300828D01*
X209268796Y-117300828D02*
X209625939Y-117300828D01*
X209625939Y-117300828D02*
X209840225Y-117372257D01*
D12*
X212327693Y-87920038D02*
X212232455Y-87872419D01*
X212232455Y-87872419D02*
X212089598Y-87872419D01*
X212089598Y-87872419D02*
X211946741Y-87920038D01*
X211946741Y-87920038D02*
X211851503Y-88015276D01*
X211851503Y-88015276D02*
X211803884Y-88110514D01*
X211803884Y-88110514D02*
X211756265Y-88300990D01*
X211756265Y-88300990D02*
X211756265Y-88443847D01*
X211756265Y-88443847D02*
X211803884Y-88634323D01*
X211803884Y-88634323D02*
X211851503Y-88729561D01*
X211851503Y-88729561D02*
X211946741Y-88824800D01*
X211946741Y-88824800D02*
X212089598Y-88872419D01*
X212089598Y-88872419D02*
X212184836Y-88872419D01*
X212184836Y-88872419D02*
X212327693Y-88824800D01*
X212327693Y-88824800D02*
X212375312Y-88777180D01*
X212375312Y-88777180D02*
X212375312Y-88443847D01*
X212375312Y-88443847D02*
X212184836Y-88443847D01*
X212803884Y-88872419D02*
X212803884Y-87872419D01*
X212803884Y-87872419D02*
X213184836Y-87872419D01*
X213184836Y-87872419D02*
X213280074Y-87920038D01*
X213280074Y-87920038D02*
X213327693Y-87967657D01*
X213327693Y-87967657D02*
X213375312Y-88062895D01*
X213375312Y-88062895D02*
X213375312Y-88205752D01*
X213375312Y-88205752D02*
X213327693Y-88300990D01*
X213327693Y-88300990D02*
X213280074Y-88348609D01*
X213280074Y-88348609D02*
X213184836Y-88396228D01*
X213184836Y-88396228D02*
X212803884Y-88396228D01*
X213756265Y-88824800D02*
X213899122Y-88872419D01*
X213899122Y-88872419D02*
X214137217Y-88872419D01*
X214137217Y-88872419D02*
X214232455Y-88824800D01*
X214232455Y-88824800D02*
X214280074Y-88777180D01*
X214280074Y-88777180D02*
X214327693Y-88681942D01*
X214327693Y-88681942D02*
X214327693Y-88586704D01*
X214327693Y-88586704D02*
X214280074Y-88491466D01*
X214280074Y-88491466D02*
X214232455Y-88443847D01*
X214232455Y-88443847D02*
X214137217Y-88396228D01*
X214137217Y-88396228D02*
X213946741Y-88348609D01*
X213946741Y-88348609D02*
X213851503Y-88300990D01*
X213851503Y-88300990D02*
X213803884Y-88253371D01*
X213803884Y-88253371D02*
X213756265Y-88158133D01*
X213756265Y-88158133D02*
X213756265Y-88062895D01*
X213756265Y-88062895D02*
X213803884Y-87967657D01*
X213803884Y-87967657D02*
X213851503Y-87920038D01*
X213851503Y-87920038D02*
X213946741Y-87872419D01*
X213946741Y-87872419D02*
X214184836Y-87872419D01*
X214184836Y-87872419D02*
X214327693Y-87920038D01*
D13*
X167666666Y-51754819D02*
X167333333Y-51278628D01*
X167095238Y-51754819D02*
X167095238Y-50754819D01*
X167095238Y-50754819D02*
X167476190Y-50754819D01*
X167476190Y-50754819D02*
X167571428Y-50802438D01*
X167571428Y-50802438D02*
X167619047Y-50850057D01*
X167619047Y-50850057D02*
X167666666Y-50945295D01*
X167666666Y-50945295D02*
X167666666Y-51088152D01*
X167666666Y-51088152D02*
X167619047Y-51183390D01*
X167619047Y-51183390D02*
X167571428Y-51231009D01*
X167571428Y-51231009D02*
X167476190Y-51278628D01*
X167476190Y-51278628D02*
X167095238Y-51278628D01*
X168095238Y-51231009D02*
X168428571Y-51231009D01*
X168571428Y-51754819D02*
X168095238Y-51754819D01*
X168095238Y-51754819D02*
X168095238Y-50754819D01*
X168095238Y-50754819D02*
X168571428Y-50754819D01*
X169333333Y-51231009D02*
X169000000Y-51231009D01*
X169000000Y-51754819D02*
X169000000Y-50754819D01*
X169000000Y-50754819D02*
X169476190Y-50754819D01*
X170000000Y-50754819D02*
X170000000Y-50992914D01*
X169761905Y-50897676D02*
X170000000Y-50992914D01*
X170000000Y-50992914D02*
X170238095Y-50897676D01*
X169857143Y-51183390D02*
X170000000Y-50992914D01*
X170000000Y-50992914D02*
X170142857Y-51183390D01*
X170761905Y-50754819D02*
X170761905Y-50992914D01*
X170523810Y-50897676D02*
X170761905Y-50992914D01*
X170761905Y-50992914D02*
X171000000Y-50897676D01*
X170619048Y-51183390D02*
X170761905Y-50992914D01*
X170761905Y-50992914D02*
X170904762Y-51183390D01*
X172464819Y-69333333D02*
X171988628Y-69666666D01*
X172464819Y-69904761D02*
X171464819Y-69904761D01*
X171464819Y-69904761D02*
X171464819Y-69523809D01*
X171464819Y-69523809D02*
X171512438Y-69428571D01*
X171512438Y-69428571D02*
X171560057Y-69380952D01*
X171560057Y-69380952D02*
X171655295Y-69333333D01*
X171655295Y-69333333D02*
X171798152Y-69333333D01*
X171798152Y-69333333D02*
X171893390Y-69380952D01*
X171893390Y-69380952D02*
X171941009Y-69428571D01*
X171941009Y-69428571D02*
X171988628Y-69523809D01*
X171988628Y-69523809D02*
X171988628Y-69904761D01*
X171941009Y-68904761D02*
X171941009Y-68571428D01*
X172464819Y-68428571D02*
X172464819Y-68904761D01*
X172464819Y-68904761D02*
X171464819Y-68904761D01*
X171464819Y-68904761D02*
X171464819Y-68428571D01*
X171941009Y-67666666D02*
X171941009Y-67999999D01*
X172464819Y-67999999D02*
X171464819Y-67999999D01*
X171464819Y-67999999D02*
X171464819Y-67523809D01*
X171464819Y-66999999D02*
X171702914Y-66999999D01*
X171607676Y-67238094D02*
X171702914Y-66999999D01*
X171702914Y-66999999D02*
X171607676Y-66761904D01*
X171893390Y-67142856D02*
X171702914Y-66999999D01*
X171702914Y-66999999D02*
X171893390Y-66857142D01*
X171464819Y-66238094D02*
X171702914Y-66238094D01*
X171607676Y-66476189D02*
X171702914Y-66238094D01*
X171702914Y-66238094D02*
X171607676Y-65999999D01*
X171893390Y-66380951D02*
X171702914Y-66238094D01*
X171702914Y-66238094D02*
X171893390Y-66095237D01*
X211666666Y-110124819D02*
X211333333Y-109648628D01*
X211095238Y-110124819D02*
X211095238Y-109124819D01*
X211095238Y-109124819D02*
X211476190Y-109124819D01*
X211476190Y-109124819D02*
X211571428Y-109172438D01*
X211571428Y-109172438D02*
X211619047Y-109220057D01*
X211619047Y-109220057D02*
X211666666Y-109315295D01*
X211666666Y-109315295D02*
X211666666Y-109458152D01*
X211666666Y-109458152D02*
X211619047Y-109553390D01*
X211619047Y-109553390D02*
X211571428Y-109601009D01*
X211571428Y-109601009D02*
X211476190Y-109648628D01*
X211476190Y-109648628D02*
X211095238Y-109648628D01*
X212095238Y-109601009D02*
X212428571Y-109601009D01*
X212571428Y-110124819D02*
X212095238Y-110124819D01*
X212095238Y-110124819D02*
X212095238Y-109124819D01*
X212095238Y-109124819D02*
X212571428Y-109124819D01*
X213333333Y-109601009D02*
X213000000Y-109601009D01*
X213000000Y-110124819D02*
X213000000Y-109124819D01*
X213000000Y-109124819D02*
X213476190Y-109124819D01*
X214000000Y-109124819D02*
X214000000Y-109362914D01*
X213761905Y-109267676D02*
X214000000Y-109362914D01*
X214000000Y-109362914D02*
X214238095Y-109267676D01*
X213857143Y-109553390D02*
X214000000Y-109362914D01*
X214000000Y-109362914D02*
X214142857Y-109553390D01*
X214761905Y-109124819D02*
X214761905Y-109362914D01*
X214523810Y-109267676D02*
X214761905Y-109362914D01*
X214761905Y-109362914D02*
X215000000Y-109267676D01*
X214619048Y-109553390D02*
X214761905Y-109362914D01*
X214761905Y-109362914D02*
X214904762Y-109553390D01*
X167666666Y-73584819D02*
X167333333Y-73108628D01*
X167095238Y-73584819D02*
X167095238Y-72584819D01*
X167095238Y-72584819D02*
X167476190Y-72584819D01*
X167476190Y-72584819D02*
X167571428Y-72632438D01*
X167571428Y-72632438D02*
X167619047Y-72680057D01*
X167619047Y-72680057D02*
X167666666Y-72775295D01*
X167666666Y-72775295D02*
X167666666Y-72918152D01*
X167666666Y-72918152D02*
X167619047Y-73013390D01*
X167619047Y-73013390D02*
X167571428Y-73061009D01*
X167571428Y-73061009D02*
X167476190Y-73108628D01*
X167476190Y-73108628D02*
X167095238Y-73108628D01*
X168095238Y-73061009D02*
X168428571Y-73061009D01*
X168571428Y-73584819D02*
X168095238Y-73584819D01*
X168095238Y-73584819D02*
X168095238Y-72584819D01*
X168095238Y-72584819D02*
X168571428Y-72584819D01*
X169333333Y-73061009D02*
X169000000Y-73061009D01*
X169000000Y-73584819D02*
X169000000Y-72584819D01*
X169000000Y-72584819D02*
X169476190Y-72584819D01*
X170000000Y-72584819D02*
X170000000Y-72822914D01*
X169761905Y-72727676D02*
X170000000Y-72822914D01*
X170000000Y-72822914D02*
X170238095Y-72727676D01*
X169857143Y-73013390D02*
X170000000Y-72822914D01*
X170000000Y-72822914D02*
X170142857Y-73013390D01*
X170761905Y-72584819D02*
X170761905Y-72822914D01*
X170523810Y-72727676D02*
X170761905Y-72822914D01*
X170761905Y-72822914D02*
X171000000Y-72727676D01*
X170619048Y-73013390D02*
X170761905Y-72822914D01*
X170761905Y-72822914D02*
X170904762Y-73013390D01*
X237166666Y-51754819D02*
X236833333Y-51278628D01*
X236595238Y-51754819D02*
X236595238Y-50754819D01*
X236595238Y-50754819D02*
X236976190Y-50754819D01*
X236976190Y-50754819D02*
X237071428Y-50802438D01*
X237071428Y-50802438D02*
X237119047Y-50850057D01*
X237119047Y-50850057D02*
X237166666Y-50945295D01*
X237166666Y-50945295D02*
X237166666Y-51088152D01*
X237166666Y-51088152D02*
X237119047Y-51183390D01*
X237119047Y-51183390D02*
X237071428Y-51231009D01*
X237071428Y-51231009D02*
X236976190Y-51278628D01*
X236976190Y-51278628D02*
X236595238Y-51278628D01*
X237595238Y-51231009D02*
X237928571Y-51231009D01*
X238071428Y-51754819D02*
X237595238Y-51754819D01*
X237595238Y-51754819D02*
X237595238Y-50754819D01*
X237595238Y-50754819D02*
X238071428Y-50754819D01*
X238833333Y-51231009D02*
X238500000Y-51231009D01*
X238500000Y-51754819D02*
X238500000Y-50754819D01*
X238500000Y-50754819D02*
X238976190Y-50754819D01*
X239500000Y-50754819D02*
X239500000Y-50992914D01*
X239261905Y-50897676D02*
X239500000Y-50992914D01*
X239500000Y-50992914D02*
X239738095Y-50897676D01*
X239357143Y-51183390D02*
X239500000Y-50992914D01*
X239500000Y-50992914D02*
X239642857Y-51183390D01*
X240261905Y-50754819D02*
X240261905Y-50992914D01*
X240023810Y-50897676D02*
X240261905Y-50992914D01*
X240261905Y-50992914D02*
X240500000Y-50897676D01*
X240119048Y-51183390D02*
X240261905Y-50992914D01*
X240261905Y-50992914D02*
X240404762Y-51183390D01*
X174804819Y-137333333D02*
X174328628Y-137666666D01*
X174804819Y-137904761D02*
X173804819Y-137904761D01*
X173804819Y-137904761D02*
X173804819Y-137523809D01*
X173804819Y-137523809D02*
X173852438Y-137428571D01*
X173852438Y-137428571D02*
X173900057Y-137380952D01*
X173900057Y-137380952D02*
X173995295Y-137333333D01*
X173995295Y-137333333D02*
X174138152Y-137333333D01*
X174138152Y-137333333D02*
X174233390Y-137380952D01*
X174233390Y-137380952D02*
X174281009Y-137428571D01*
X174281009Y-137428571D02*
X174328628Y-137523809D01*
X174328628Y-137523809D02*
X174328628Y-137904761D01*
X174281009Y-136904761D02*
X174281009Y-136571428D01*
X174804819Y-136428571D02*
X174804819Y-136904761D01*
X174804819Y-136904761D02*
X173804819Y-136904761D01*
X173804819Y-136904761D02*
X173804819Y-136428571D01*
X174281009Y-135666666D02*
X174281009Y-135999999D01*
X174804819Y-135999999D02*
X173804819Y-135999999D01*
X173804819Y-135999999D02*
X173804819Y-135523809D01*
X173804819Y-134999999D02*
X174042914Y-134999999D01*
X173947676Y-135238094D02*
X174042914Y-134999999D01*
X174042914Y-134999999D02*
X173947676Y-134761904D01*
X174233390Y-135142856D02*
X174042914Y-134999999D01*
X174042914Y-134999999D02*
X174233390Y-134857142D01*
X173804819Y-134238094D02*
X174042914Y-134238094D01*
X173947676Y-134476189D02*
X174042914Y-134238094D01*
X174042914Y-134238094D02*
X173947676Y-133999999D01*
X174233390Y-134380951D02*
X174042914Y-134238094D01*
X174042914Y-134238094D02*
X174233390Y-134095237D01*
X167666666Y-111124819D02*
X167333333Y-110648628D01*
X167095238Y-111124819D02*
X167095238Y-110124819D01*
X167095238Y-110124819D02*
X167476190Y-110124819D01*
X167476190Y-110124819D02*
X167571428Y-110172438D01*
X167571428Y-110172438D02*
X167619047Y-110220057D01*
X167619047Y-110220057D02*
X167666666Y-110315295D01*
X167666666Y-110315295D02*
X167666666Y-110458152D01*
X167666666Y-110458152D02*
X167619047Y-110553390D01*
X167619047Y-110553390D02*
X167571428Y-110601009D01*
X167571428Y-110601009D02*
X167476190Y-110648628D01*
X167476190Y-110648628D02*
X167095238Y-110648628D01*
X168095238Y-110601009D02*
X168428571Y-110601009D01*
X168571428Y-111124819D02*
X168095238Y-111124819D01*
X168095238Y-111124819D02*
X168095238Y-110124819D01*
X168095238Y-110124819D02*
X168571428Y-110124819D01*
X169333333Y-110601009D02*
X169000000Y-110601009D01*
X169000000Y-111124819D02*
X169000000Y-110124819D01*
X169000000Y-110124819D02*
X169476190Y-110124819D01*
X170000000Y-110124819D02*
X170000000Y-110362914D01*
X169761905Y-110267676D02*
X170000000Y-110362914D01*
X170000000Y-110362914D02*
X170238095Y-110267676D01*
X169857143Y-110553390D02*
X170000000Y-110362914D01*
X170000000Y-110362914D02*
X170142857Y-110553390D01*
X170761905Y-110124819D02*
X170761905Y-110362914D01*
X170523810Y-110267676D02*
X170761905Y-110362914D01*
X170761905Y-110362914D02*
X171000000Y-110267676D01*
X170619048Y-110553390D02*
X170761905Y-110362914D01*
X170761905Y-110362914D02*
X170904762Y-110553390D01*
X211666666Y-76084819D02*
X211333333Y-75608628D01*
X211095238Y-76084819D02*
X211095238Y-75084819D01*
X211095238Y-75084819D02*
X211476190Y-75084819D01*
X211476190Y-75084819D02*
X211571428Y-75132438D01*
X211571428Y-75132438D02*
X211619047Y-75180057D01*
X211619047Y-75180057D02*
X211666666Y-75275295D01*
X211666666Y-75275295D02*
X211666666Y-75418152D01*
X211666666Y-75418152D02*
X211619047Y-75513390D01*
X211619047Y-75513390D02*
X211571428Y-75561009D01*
X211571428Y-75561009D02*
X211476190Y-75608628D01*
X211476190Y-75608628D02*
X211095238Y-75608628D01*
X212095238Y-75561009D02*
X212428571Y-75561009D01*
X212571428Y-76084819D02*
X212095238Y-76084819D01*
X212095238Y-76084819D02*
X212095238Y-75084819D01*
X212095238Y-75084819D02*
X212571428Y-75084819D01*
X213333333Y-75561009D02*
X213000000Y-75561009D01*
X213000000Y-76084819D02*
X213000000Y-75084819D01*
X213000000Y-75084819D02*
X213476190Y-75084819D01*
X214000000Y-75084819D02*
X214000000Y-75322914D01*
X213761905Y-75227676D02*
X214000000Y-75322914D01*
X214000000Y-75322914D02*
X214238095Y-75227676D01*
X213857143Y-75513390D02*
X214000000Y-75322914D01*
X214000000Y-75322914D02*
X214142857Y-75513390D01*
X214761905Y-75084819D02*
X214761905Y-75322914D01*
X214523810Y-75227676D02*
X214761905Y-75322914D01*
X214761905Y-75322914D02*
X215000000Y-75227676D01*
X214619048Y-75513390D02*
X214761905Y-75322914D01*
X214761905Y-75322914D02*
X214904762Y-75513390D01*
X160666666Y-136754819D02*
X160333333Y-136278628D01*
X160095238Y-136754819D02*
X160095238Y-135754819D01*
X160095238Y-135754819D02*
X160476190Y-135754819D01*
X160476190Y-135754819D02*
X160571428Y-135802438D01*
X160571428Y-135802438D02*
X160619047Y-135850057D01*
X160619047Y-135850057D02*
X160666666Y-135945295D01*
X160666666Y-135945295D02*
X160666666Y-136088152D01*
X160666666Y-136088152D02*
X160619047Y-136183390D01*
X160619047Y-136183390D02*
X160571428Y-136231009D01*
X160571428Y-136231009D02*
X160476190Y-136278628D01*
X160476190Y-136278628D02*
X160095238Y-136278628D01*
X161095238Y-136231009D02*
X161428571Y-136231009D01*
X161571428Y-136754819D02*
X161095238Y-136754819D01*
X161095238Y-136754819D02*
X161095238Y-135754819D01*
X161095238Y-135754819D02*
X161571428Y-135754819D01*
X162333333Y-136231009D02*
X162000000Y-136231009D01*
X162000000Y-136754819D02*
X162000000Y-135754819D01*
X162000000Y-135754819D02*
X162476190Y-135754819D01*
X163000000Y-135754819D02*
X163000000Y-135992914D01*
X162761905Y-135897676D02*
X163000000Y-135992914D01*
X163000000Y-135992914D02*
X163238095Y-135897676D01*
X162857143Y-136183390D02*
X163000000Y-135992914D01*
X163000000Y-135992914D02*
X163142857Y-136183390D01*
X163761905Y-135754819D02*
X163761905Y-135992914D01*
X163523810Y-135897676D02*
X163761905Y-135992914D01*
X163761905Y-135992914D02*
X164000000Y-135897676D01*
X163619048Y-136183390D02*
X163761905Y-135992914D01*
X163761905Y-135992914D02*
X163904762Y-136183390D01*
X245666666Y-136754819D02*
X245333333Y-136278628D01*
X245095238Y-136754819D02*
X245095238Y-135754819D01*
X245095238Y-135754819D02*
X245476190Y-135754819D01*
X245476190Y-135754819D02*
X245571428Y-135802438D01*
X245571428Y-135802438D02*
X245619047Y-135850057D01*
X245619047Y-135850057D02*
X245666666Y-135945295D01*
X245666666Y-135945295D02*
X245666666Y-136088152D01*
X245666666Y-136088152D02*
X245619047Y-136183390D01*
X245619047Y-136183390D02*
X245571428Y-136231009D01*
X245571428Y-136231009D02*
X245476190Y-136278628D01*
X245476190Y-136278628D02*
X245095238Y-136278628D01*
X246095238Y-136231009D02*
X246428571Y-136231009D01*
X246571428Y-136754819D02*
X246095238Y-136754819D01*
X246095238Y-136754819D02*
X246095238Y-135754819D01*
X246095238Y-135754819D02*
X246571428Y-135754819D01*
X247333333Y-136231009D02*
X247000000Y-136231009D01*
X247000000Y-136754819D02*
X247000000Y-135754819D01*
X247000000Y-135754819D02*
X247476190Y-135754819D01*
X248000000Y-135754819D02*
X248000000Y-135992914D01*
X247761905Y-135897676D02*
X248000000Y-135992914D01*
X248000000Y-135992914D02*
X248238095Y-135897676D01*
X247857143Y-136183390D02*
X248000000Y-135992914D01*
X248000000Y-135992914D02*
X248142857Y-136183390D01*
X248761905Y-135754819D02*
X248761905Y-135992914D01*
X248523810Y-135897676D02*
X248761905Y-135992914D01*
X248761905Y-135992914D02*
X249000000Y-135897676D01*
X248619048Y-136183390D02*
X248761905Y-135992914D01*
X248761905Y-135992914D02*
X248904762Y-136183390D01*
D14*
%TO.C,REF\u002A\u002A*%
X173010000Y-69330000D02*
X173010000Y-68000000D01*
X174340000Y-69330000D02*
X173010000Y-69330000D01*
X175610000Y-66670000D02*
X185830000Y-66670000D01*
X175610000Y-69330000D02*
X175610000Y-66670000D01*
X175610000Y-69330000D02*
X185830000Y-69330000D01*
X185830000Y-69330000D02*
X185830000Y-66670000D01*
X211670000Y-110670000D02*
X213000000Y-110670000D01*
X211670000Y-112000000D02*
X211670000Y-110670000D01*
X211670000Y-113270000D02*
X211670000Y-126030000D01*
X211670000Y-113270000D02*
X214330000Y-113270000D01*
X211670000Y-126030000D02*
X214330000Y-126030000D01*
X214330000Y-113270000D02*
X214330000Y-126030000D01*
X201170000Y-137130000D02*
X201170000Y-78650000D01*
X203830000Y-78650000D02*
X201170000Y-78650000D01*
X203830000Y-137130000D02*
X201170000Y-137130000D01*
X203830000Y-137130000D02*
X203830000Y-78650000D01*
X203830000Y-138400000D02*
X203830000Y-139730000D01*
X203830000Y-139730000D02*
X202500000Y-139730000D01*
X167670000Y-74130000D02*
X169000000Y-74130000D01*
X167670000Y-75460000D02*
X167670000Y-74130000D01*
X167670000Y-76730000D02*
X167670000Y-86950000D01*
X167670000Y-76730000D02*
X170330000Y-76730000D01*
X167670000Y-86950000D02*
X170330000Y-86950000D01*
X170330000Y-76730000D02*
X170330000Y-86950000D01*
X204170000Y-137130000D02*
X204170000Y-78650000D01*
X206830000Y-78650000D02*
X204170000Y-78650000D01*
X206830000Y-137130000D02*
X204170000Y-137130000D01*
X206830000Y-137130000D02*
X206830000Y-78650000D01*
X206830000Y-138400000D02*
X206830000Y-139730000D01*
X206830000Y-139730000D02*
X205500000Y-139730000D01*
X175350000Y-137330000D02*
X175350000Y-136000000D01*
X176680000Y-137330000D02*
X175350000Y-137330000D01*
X177950000Y-134670000D02*
X198330000Y-134670000D01*
X177950000Y-137330000D02*
X177950000Y-134670000D01*
X177950000Y-137330000D02*
X198330000Y-137330000D01*
X198330000Y-137330000D02*
X198330000Y-134670000D01*
X167670000Y-111670000D02*
X169000000Y-111670000D01*
X167670000Y-113000000D02*
X167670000Y-111670000D01*
X167670000Y-114270000D02*
X167670000Y-121950000D01*
X167670000Y-114270000D02*
X170330000Y-114270000D01*
X167670000Y-121950000D02*
X170330000Y-121950000D01*
X170330000Y-114270000D02*
X170330000Y-121950000D01*
X211670000Y-76630000D02*
X213000000Y-76630000D01*
X211670000Y-77960000D02*
X211670000Y-76630000D01*
X211670000Y-79230000D02*
X211670000Y-86910000D01*
X211670000Y-79230000D02*
X214330000Y-79230000D01*
X211670000Y-86910000D02*
X214330000Y-86910000D01*
X214330000Y-79230000D02*
X214330000Y-86910000D01*
D15*
%TO.C,J\u002A\u002A*%
X173600000Y-53500000D02*
X173600000Y-61700000D01*
X173600000Y-61700000D02*
X234100000Y-61700000D01*
X233000000Y-53500000D02*
X173600000Y-53500000D01*
X234100000Y-61700000D02*
X234100000Y-54500000D01*
%TD*%
M02*
