M48
; DRILL file {KiCad 8.0.0} date 2025-01-17T00:29:13+0200
; FORMAT={-:-/ absolute / inch / decimal}
; #@! TF.CreationDate,2025-01-17T00:29:13+02:00
; #@! TF.GenerationSoftware,Kicad,Pcbnew,8.0.0
; #@! TF.FileFunction,Plated,1,4,PTH
FMAT,2
INCH
; #@! TA.AperFunction,Plated,PTH,ViaDrill
T1C0.0118
; #@! TA.AperFunction,Plated,PTH,ComponentDrill
T2C0.0394
%
G90
G05
T1
X7.4606Y-5.1772
X7.6575Y-4.6063
X7.7165Y-3.4449
X8.2677Y-4.685
X8.2677Y-4.7835
T2
X6.6535Y-2.9709
X6.6535Y-3.0709
X6.6535Y-3.1709
X6.6535Y-3.2709
X6.6535Y-3.3709
X6.6535Y-4.4488
X6.6535Y-4.5488
X6.6535Y-4.6488
X6.6535Y-4.7488
X6.8638Y-2.6772
X6.8898Y-2.1457
X6.8898Y-2.2244
X6.8898Y-2.3031
X6.8898Y-2.3819
X6.9559Y-5.3543
X6.9638Y-2.6772
X6.9685Y-2.1457
X6.9685Y-2.2244
X6.9685Y-2.3031
X6.9685Y-2.3819
X7.0472Y-2.1457
X7.0472Y-2.2244
X7.0472Y-2.3031
X7.0472Y-2.3819
X7.0559Y-5.3543
X7.0638Y-2.6772
X7.126Y-2.1457
X7.126Y-2.2244
X7.126Y-2.3031
X7.126Y-2.3819
X7.1559Y-5.3543
X7.1638Y-2.6772
X7.2047Y-2.1457
X7.2047Y-2.2244
X7.2047Y-2.3031
X7.2047Y-2.3819
X7.2559Y-5.3543
X7.2638Y-2.6772
X7.2835Y-2.1457
X7.2835Y-2.2244
X7.2835Y-2.3031
X7.2835Y-2.3819
X7.3559Y-5.3543
X7.3622Y-2.1457
X7.3622Y-2.2244
X7.3622Y-2.3031
X7.3622Y-2.3819
X7.4409Y-2.1457
X7.4409Y-2.2244
X7.4409Y-2.3031
X7.4409Y-2.3819
X7.4559Y-5.3543
X7.5197Y-2.1457
X7.5197Y-2.2244
X7.5197Y-2.3031
X7.5197Y-2.3819
X7.5559Y-5.3543
X7.5984Y-2.1457
X7.5984Y-2.2244
X7.5984Y-2.3031
X7.5984Y-2.3819
X7.6559Y-5.3543
X7.6772Y-2.1457
X7.6772Y-2.2244
X7.6772Y-2.3031
X7.6772Y-2.3819
X7.7559Y-2.1457
X7.7559Y-2.2244
X7.7559Y-2.3031
X7.7559Y-2.3819
X7.7559Y-5.3543
X7.8346Y-2.1457
X7.8346Y-2.2244
X7.8346Y-2.3031
X7.8346Y-2.3819
X7.9134Y-2.1457
X7.9134Y-2.2244
X7.9134Y-2.3031
X7.9134Y-2.3819
X7.9724Y-3.1488
X7.9724Y-3.2488
X7.9724Y-3.3488
X7.9724Y-3.4488
X7.9724Y-3.5488
X7.9724Y-3.6488
X7.9724Y-3.7488
X7.9724Y-3.8488
X7.9724Y-3.9488
X7.9724Y-4.0488
X7.9724Y-4.1488
X7.9724Y-4.2488
X7.9724Y-4.3488
X7.9724Y-4.4488
X7.9724Y-4.5488
X7.9724Y-4.6488
X7.9724Y-4.7488
X7.9724Y-4.8488
X7.9724Y-4.9488
X7.9724Y-5.0488
X7.9724Y-5.1488
X7.9724Y-5.2488
X7.9724Y-5.3488
X7.9724Y-5.4488
X7.9921Y-2.1457
X7.9921Y-2.2244
X7.9921Y-2.3031
X7.9921Y-2.3819
X8.0709Y-2.1457
X8.0709Y-2.2244
X8.0709Y-2.3031
X8.0709Y-2.3819
X8.0906Y-3.1488
X8.0906Y-3.2488
X8.0906Y-3.3488
X8.0906Y-3.4488
X8.0906Y-3.5488
X8.0906Y-3.6488
X8.0906Y-3.7488
X8.0906Y-3.8488
X8.0906Y-3.9488
X8.0906Y-4.0488
X8.0906Y-4.1488
X8.0906Y-4.2488
X8.0906Y-4.3488
X8.0906Y-4.4488
X8.0906Y-4.5488
X8.0906Y-4.6488
X8.0906Y-4.7488
X8.0906Y-4.8488
X8.0906Y-4.9488
X8.0906Y-5.0488
X8.0906Y-5.1488
X8.0906Y-5.2488
X8.0906Y-5.3488
X8.0906Y-5.4488
X8.1496Y-2.1457
X8.1496Y-2.2244
X8.1496Y-2.3031
X8.1496Y-2.3819
X8.2283Y-2.1457
X8.2283Y-2.2244
X8.2283Y-2.3031
X8.2283Y-2.3819
X8.3071Y-2.1457
X8.3071Y-2.2244
X8.3071Y-2.3031
X8.3071Y-2.3819
X8.3858Y-2.1457
X8.3858Y-2.2244
X8.3858Y-2.3031
X8.3858Y-2.3819
X8.3858Y-3.0693
X8.3858Y-3.1693
X8.3858Y-3.2693
X8.3858Y-3.3693
X8.3858Y-4.4094
X8.3858Y-4.5094
X8.3858Y-4.6094
X8.3858Y-4.7094
X8.3858Y-4.8094
X8.3858Y-4.9094
X8.4646Y-2.1457
X8.4646Y-2.2244
X8.4646Y-2.3031
X8.4646Y-2.3819
X8.5433Y-2.1457
X8.5433Y-2.2244
X8.5433Y-2.3031
X8.5433Y-2.3819
X8.622Y-2.1457
X8.622Y-2.2244
X8.622Y-2.3031
X8.622Y-2.3819
X8.7008Y-2.1457
X8.7008Y-2.2244
X8.7008Y-2.3031
X8.7008Y-2.3819
X8.7795Y-2.1457
X8.7795Y-2.2244
X8.7795Y-2.3031
X8.7795Y-2.3819
X8.8583Y-2.1457
X8.8583Y-2.2244
X8.8583Y-2.3031
X8.8583Y-2.3819
X8.937Y-2.1457
X8.937Y-2.2244
X8.937Y-2.3031
X8.937Y-2.3819
X9.0157Y-2.1457
X9.0157Y-2.2244
X9.0157Y-2.3031
X9.0157Y-2.3819
X9.0945Y-2.1457
X9.0945Y-2.2244
X9.0945Y-2.3031
X9.0945Y-2.3819
X9.1732Y-2.1457
X9.1732Y-2.2244
X9.1732Y-2.3031
X9.1732Y-2.3819
M30
