%TF.GenerationSoftware,KiCad,Pcbnew,8.0.0*%
%TF.CreationDate,2025-01-17T00:28:02+02:00*%
%TF.ProjectId,diplomna_2024_pcb_layout,6469706c-6f6d-46e6-915f-323032345f70,rev?*%
%TF.SameCoordinates,Original*%
%TF.FileFunction,Drillmap*%
%TF.FilePolarity,Positive*%
%FSLAX45Y45*%
G04 Gerber Fmt 4.5, Leading zero omitted, Abs format (unit mm)*
G04 Created by KiCad (PCBNEW 8.0.0) date 2025-01-17 00:28:02*
%MOMM*%
%LPD*%
G01*
G04 APERTURE LIST*
%ADD10C,0.050000*%
%ADD11C,0.200000*%
%ADD12C,0.100000*%
%ADD13C,0.101600*%
%ADD14C,0.275000*%
G04 APERTURE END LIST*
D10*
X15600000Y-6100000D02*
X16100000Y-6100000D01*
X25100000Y-14550000D02*
X15600000Y-14550000D01*
X24600000Y-6100000D02*
X25100000Y-6100000D01*
X24600000Y-5050000D02*
X24600000Y-6100000D01*
X16100000Y-5050000D02*
X24600000Y-5050000D01*
X16100000Y-6100000D02*
X16100000Y-5050000D01*
X25100000Y-6100000D02*
X25100000Y-14550000D01*
X15600000Y-14550000D02*
X15600000Y-6100000D01*
D11*
D12*
X20485000Y-7535000D02*
X20515000Y-7565000D01*
X20515000Y-7535000D02*
X20485000Y-7565000D01*
X19135000Y-8054000D02*
G75*
G02*
X19065000Y-8054000I-35000J0D01*
G01*
X19065000Y-8054000D02*
G75*
G02*
X19135000Y-8054000I35000J0D01*
G01*
X19585000Y-7846000D02*
G75*
G02*
X19515000Y-7846000I-35000J0D01*
G01*
X19515000Y-7846000D02*
G75*
G02*
X19585000Y-7846000I35000J0D01*
G01*
X19585000Y-8354000D02*
G75*
G02*
X19515000Y-8354000I-35000J0D01*
G01*
X19515000Y-8354000D02*
G75*
G02*
X19585000Y-8354000I35000J0D01*
G01*
X19100000Y-7507900D02*
X19100000Y-7584100D01*
X19061900Y-7546000D02*
X19138100Y-7546000D01*
X17135356Y-8035356D02*
X17135356Y-7964644D01*
X17064644Y-7964644D01*
X17064644Y-8035356D01*
X17135356Y-8035356D01*
X17135356Y-8289356D02*
X17135356Y-8218644D01*
X17064644Y-8218644D01*
X17064644Y-8289356D01*
X17135356Y-8289356D01*
X17135356Y-8543356D02*
X17135356Y-8472644D01*
X17064644Y-8472644D01*
X17064644Y-8543356D01*
X17135356Y-8543356D01*
X17135356Y-8797356D02*
X17135356Y-8726644D01*
X17064644Y-8726644D01*
X17064644Y-8797356D01*
X17135356Y-8797356D01*
X17135356Y-9051356D02*
X17135356Y-8980644D01*
X17064644Y-8980644D01*
X17064644Y-9051356D01*
X17135356Y-9051356D01*
X17135356Y-9305356D02*
X17135356Y-9234644D01*
X17064644Y-9234644D01*
X17064644Y-9305356D01*
X17135356Y-9305356D01*
X17135356Y-9559356D02*
X17135356Y-9488644D01*
X17064644Y-9488644D01*
X17064644Y-9559356D01*
X17135356Y-9559356D01*
X17135356Y-9813356D02*
X17135356Y-9742644D01*
X17064644Y-9742644D01*
X17064644Y-9813356D01*
X17135356Y-9813356D01*
X17135356Y-10067356D02*
X17135356Y-9996644D01*
X17064644Y-9996644D01*
X17064644Y-10067356D01*
X17135356Y-10067356D01*
X17135356Y-10321356D02*
X17135356Y-10250644D01*
X17064644Y-10250644D01*
X17064644Y-10321356D01*
X17135356Y-10321356D01*
X17135356Y-10575356D02*
X17135356Y-10504644D01*
X17064644Y-10504644D01*
X17064644Y-10575356D01*
X17135356Y-10575356D01*
X17135356Y-10829356D02*
X17135356Y-10758644D01*
X17064644Y-10758644D01*
X17064644Y-10829356D01*
X17135356Y-10829356D01*
X17135356Y-11083356D02*
X17135356Y-11012644D01*
X17064644Y-11012644D01*
X17064644Y-11083356D01*
X17135356Y-11083356D01*
X17135356Y-11337356D02*
X17135356Y-11266644D01*
X17064644Y-11266644D01*
X17064644Y-11337356D01*
X17135356Y-11337356D01*
X17135356Y-11591356D02*
X17135356Y-11520644D01*
X17064644Y-11520644D01*
X17064644Y-11591356D01*
X17135356Y-11591356D01*
X17135356Y-11845356D02*
X17135356Y-11774644D01*
X17064644Y-11774644D01*
X17064644Y-11845356D01*
X17135356Y-11845356D01*
X17135356Y-12099356D02*
X17135356Y-12028644D01*
X17064644Y-12028644D01*
X17064644Y-12099356D01*
X17135356Y-12099356D01*
X17135356Y-12353356D02*
X17135356Y-12282644D01*
X17064644Y-12282644D01*
X17064644Y-12353356D01*
X17135356Y-12353356D01*
X17135356Y-12607356D02*
X17135356Y-12536644D01*
X17064644Y-12536644D01*
X17064644Y-12607356D01*
X17135356Y-12607356D01*
X17135356Y-12861356D02*
X17135356Y-12790644D01*
X17064644Y-12790644D01*
X17064644Y-12861356D01*
X17135356Y-12861356D01*
X17135356Y-13115356D02*
X17135356Y-13044644D01*
X17064644Y-13044644D01*
X17064644Y-13115356D01*
X17135356Y-13115356D01*
X17135356Y-13369356D02*
X17135356Y-13298644D01*
X17064644Y-13298644D01*
X17064644Y-13369356D01*
X17135356Y-13369356D01*
X17135356Y-13623356D02*
X17135356Y-13552644D01*
X17064644Y-13552644D01*
X17064644Y-13623356D01*
X17135356Y-13623356D01*
X17135356Y-13877356D02*
X17135356Y-13806644D01*
X17064644Y-13806644D01*
X17064644Y-13877356D01*
X17135356Y-13877356D01*
X17435356Y-5485356D02*
X17435356Y-5414644D01*
X17364644Y-5414644D01*
X17364644Y-5485356D01*
X17435356Y-5485356D01*
X17435356Y-5685356D02*
X17435356Y-5614644D01*
X17364644Y-5614644D01*
X17364644Y-5685356D01*
X17435356Y-5685356D01*
X17435356Y-5885356D02*
X17435356Y-5814644D01*
X17364644Y-5814644D01*
X17364644Y-5885356D01*
X17435356Y-5885356D01*
X17435356Y-6085356D02*
X17435356Y-6014644D01*
X17364644Y-6014644D01*
X17364644Y-6085356D01*
X17435356Y-6085356D01*
X17635356Y-5485356D02*
X17635356Y-5414644D01*
X17564644Y-5414644D01*
X17564644Y-5485356D01*
X17635356Y-5485356D01*
X17635356Y-5685356D02*
X17635356Y-5614644D01*
X17564644Y-5614644D01*
X17564644Y-5685356D01*
X17635356Y-5685356D01*
X17635356Y-5885356D02*
X17635356Y-5814644D01*
X17564644Y-5814644D01*
X17564644Y-5885356D01*
X17635356Y-5885356D01*
X17635356Y-6085356D02*
X17635356Y-6014644D01*
X17564644Y-6014644D01*
X17564644Y-6085356D01*
X17635356Y-6085356D01*
X17835356Y-5485356D02*
X17835356Y-5414644D01*
X17764644Y-5414644D01*
X17764644Y-5485356D01*
X17835356Y-5485356D01*
X17835356Y-5685356D02*
X17835356Y-5614644D01*
X17764644Y-5614644D01*
X17764644Y-5685356D01*
X17835356Y-5685356D01*
X17835356Y-5885356D02*
X17835356Y-5814644D01*
X17764644Y-5814644D01*
X17764644Y-5885356D01*
X17835356Y-5885356D01*
X17835356Y-6085356D02*
X17835356Y-6014644D01*
X17764644Y-6014644D01*
X17764644Y-6085356D01*
X17835356Y-6085356D01*
X18035356Y-5485356D02*
X18035356Y-5414644D01*
X17964644Y-5414644D01*
X17964644Y-5485356D01*
X18035356Y-5485356D01*
X18035356Y-5685356D02*
X18035356Y-5614644D01*
X17964644Y-5614644D01*
X17964644Y-5685356D01*
X18035356Y-5685356D01*
X18035356Y-5885356D02*
X18035356Y-5814644D01*
X17964644Y-5814644D01*
X17964644Y-5885356D01*
X18035356Y-5885356D01*
X18035356Y-6085356D02*
X18035356Y-6014644D01*
X17964644Y-6014644D01*
X17964644Y-6085356D01*
X18035356Y-6085356D01*
X18235356Y-5485356D02*
X18235356Y-5414644D01*
X18164644Y-5414644D01*
X18164644Y-5485356D01*
X18235356Y-5485356D01*
X18235356Y-5685356D02*
X18235356Y-5614644D01*
X18164644Y-5614644D01*
X18164644Y-5685356D01*
X18235356Y-5685356D01*
X18235356Y-5885356D02*
X18235356Y-5814644D01*
X18164644Y-5814644D01*
X18164644Y-5885356D01*
X18235356Y-5885356D01*
X18235356Y-6085356D02*
X18235356Y-6014644D01*
X18164644Y-6014644D01*
X18164644Y-6085356D01*
X18235356Y-6085356D01*
X18435356Y-5485356D02*
X18435356Y-5414644D01*
X18364644Y-5414644D01*
X18364644Y-5485356D01*
X18435356Y-5485356D01*
X18435356Y-5685356D02*
X18435356Y-5614644D01*
X18364644Y-5614644D01*
X18364644Y-5685356D01*
X18435356Y-5685356D01*
X18435356Y-5885356D02*
X18435356Y-5814644D01*
X18364644Y-5814644D01*
X18364644Y-5885356D01*
X18435356Y-5885356D01*
X18435356Y-6085356D02*
X18435356Y-6014644D01*
X18364644Y-6014644D01*
X18364644Y-6085356D01*
X18435356Y-6085356D01*
X18635356Y-5485356D02*
X18635356Y-5414644D01*
X18564644Y-5414644D01*
X18564644Y-5485356D01*
X18635356Y-5485356D01*
X18635356Y-5685356D02*
X18635356Y-5614644D01*
X18564644Y-5614644D01*
X18564644Y-5685356D01*
X18635356Y-5685356D01*
X18635356Y-5885356D02*
X18635356Y-5814644D01*
X18564644Y-5814644D01*
X18564644Y-5885356D01*
X18635356Y-5885356D01*
X18635356Y-6085356D02*
X18635356Y-6014644D01*
X18564644Y-6014644D01*
X18564644Y-6085356D01*
X18635356Y-6085356D01*
X18635356Y-8033356D02*
X18635356Y-7962644D01*
X18564644Y-7962644D01*
X18564644Y-8033356D01*
X18635356Y-8033356D01*
X18635356Y-8287356D02*
X18635356Y-8216644D01*
X18564644Y-8216644D01*
X18564644Y-8287356D01*
X18635356Y-8287356D01*
X18635356Y-8541356D02*
X18635356Y-8470644D01*
X18564644Y-8470644D01*
X18564644Y-8541356D01*
X18635356Y-8541356D01*
X18635356Y-8795356D02*
X18635356Y-8724644D01*
X18564644Y-8724644D01*
X18564644Y-8795356D01*
X18635356Y-8795356D01*
X18635356Y-9049356D02*
X18635356Y-8978644D01*
X18564644Y-8978644D01*
X18564644Y-9049356D01*
X18635356Y-9049356D01*
X18635356Y-9303356D02*
X18635356Y-9232644D01*
X18564644Y-9232644D01*
X18564644Y-9303356D01*
X18635356Y-9303356D01*
X18635356Y-9557356D02*
X18635356Y-9486644D01*
X18564644Y-9486644D01*
X18564644Y-9557356D01*
X18635356Y-9557356D01*
X18635356Y-9811356D02*
X18635356Y-9740644D01*
X18564644Y-9740644D01*
X18564644Y-9811356D01*
X18635356Y-9811356D01*
X18635356Y-10065356D02*
X18635356Y-9994644D01*
X18564644Y-9994644D01*
X18564644Y-10065356D01*
X18635356Y-10065356D01*
X18635356Y-10319356D02*
X18635356Y-10248644D01*
X18564644Y-10248644D01*
X18564644Y-10319356D01*
X18635356Y-10319356D01*
X18635356Y-10573356D02*
X18635356Y-10502644D01*
X18564644Y-10502644D01*
X18564644Y-10573356D01*
X18635356Y-10573356D01*
X18635356Y-10827356D02*
X18635356Y-10756644D01*
X18564644Y-10756644D01*
X18564644Y-10827356D01*
X18635356Y-10827356D01*
X18635356Y-11081356D02*
X18635356Y-11010644D01*
X18564644Y-11010644D01*
X18564644Y-11081356D01*
X18635356Y-11081356D01*
X18635356Y-11335356D02*
X18635356Y-11264644D01*
X18564644Y-11264644D01*
X18564644Y-11335356D01*
X18635356Y-11335356D01*
X18635356Y-11589356D02*
X18635356Y-11518644D01*
X18564644Y-11518644D01*
X18564644Y-11589356D01*
X18635356Y-11589356D01*
X18635356Y-11843356D02*
X18635356Y-11772644D01*
X18564644Y-11772644D01*
X18564644Y-11843356D01*
X18635356Y-11843356D01*
X18635356Y-12097356D02*
X18635356Y-12026644D01*
X18564644Y-12026644D01*
X18564644Y-12097356D01*
X18635356Y-12097356D01*
X18635356Y-12351356D02*
X18635356Y-12280644D01*
X18564644Y-12280644D01*
X18564644Y-12351356D01*
X18635356Y-12351356D01*
X18635356Y-12605356D02*
X18635356Y-12534644D01*
X18564644Y-12534644D01*
X18564644Y-12605356D01*
X18635356Y-12605356D01*
X18635356Y-12859356D02*
X18635356Y-12788644D01*
X18564644Y-12788644D01*
X18564644Y-12859356D01*
X18635356Y-12859356D01*
X18635356Y-13113356D02*
X18635356Y-13042644D01*
X18564644Y-13042644D01*
X18564644Y-13113356D01*
X18635356Y-13113356D01*
X18635356Y-13367356D02*
X18635356Y-13296644D01*
X18564644Y-13296644D01*
X18564644Y-13367356D01*
X18635356Y-13367356D01*
X18635356Y-13621356D02*
X18635356Y-13550644D01*
X18564644Y-13550644D01*
X18564644Y-13621356D01*
X18635356Y-13621356D01*
X18635356Y-13875356D02*
X18635356Y-13804644D01*
X18564644Y-13804644D01*
X18564644Y-13875356D01*
X18635356Y-13875356D01*
X18835356Y-5485356D02*
X18835356Y-5414644D01*
X18764644Y-5414644D01*
X18764644Y-5485356D01*
X18835356Y-5485356D01*
X18835356Y-5685356D02*
X18835356Y-5614644D01*
X18764644Y-5614644D01*
X18764644Y-5685356D01*
X18835356Y-5685356D01*
X18835356Y-5885356D02*
X18835356Y-5814644D01*
X18764644Y-5814644D01*
X18764644Y-5885356D01*
X18835356Y-5885356D01*
X18835356Y-6085356D02*
X18835356Y-6014644D01*
X18764644Y-6014644D01*
X18764644Y-6085356D01*
X18835356Y-6085356D01*
X19035356Y-5485356D02*
X19035356Y-5414644D01*
X18964644Y-5414644D01*
X18964644Y-5485356D01*
X19035356Y-5485356D01*
X19035356Y-5685356D02*
X19035356Y-5614644D01*
X18964644Y-5614644D01*
X18964644Y-5685356D01*
X19035356Y-5685356D01*
X19035356Y-5885356D02*
X19035356Y-5814644D01*
X18964644Y-5814644D01*
X18964644Y-5885356D01*
X19035356Y-5885356D01*
X19035356Y-6085356D02*
X19035356Y-6014644D01*
X18964644Y-6014644D01*
X18964644Y-6085356D01*
X19035356Y-6085356D01*
X19235356Y-5485356D02*
X19235356Y-5414644D01*
X19164644Y-5414644D01*
X19164644Y-5485356D01*
X19235356Y-5485356D01*
X19235356Y-5685356D02*
X19235356Y-5614644D01*
X19164644Y-5614644D01*
X19164644Y-5685356D01*
X19235356Y-5685356D01*
X19235356Y-5885356D02*
X19235356Y-5814644D01*
X19164644Y-5814644D01*
X19164644Y-5885356D01*
X19235356Y-5885356D01*
X19235356Y-6085356D02*
X19235356Y-6014644D01*
X19164644Y-6014644D01*
X19164644Y-6085356D01*
X19235356Y-6085356D01*
X19435356Y-5485356D02*
X19435356Y-5414644D01*
X19364644Y-5414644D01*
X19364644Y-5485356D01*
X19435356Y-5485356D01*
X19435356Y-5685356D02*
X19435356Y-5614644D01*
X19364644Y-5614644D01*
X19364644Y-5685356D01*
X19435356Y-5685356D01*
X19435356Y-5885356D02*
X19435356Y-5814644D01*
X19364644Y-5814644D01*
X19364644Y-5885356D01*
X19435356Y-5885356D01*
X19435356Y-6085356D02*
X19435356Y-6014644D01*
X19364644Y-6014644D01*
X19364644Y-6085356D01*
X19435356Y-6085356D01*
X19635356Y-5485356D02*
X19635356Y-5414644D01*
X19564644Y-5414644D01*
X19564644Y-5485356D01*
X19635356Y-5485356D01*
X19635356Y-5685356D02*
X19635356Y-5614644D01*
X19564644Y-5614644D01*
X19564644Y-5685356D01*
X19635356Y-5685356D01*
X19635356Y-5885356D02*
X19635356Y-5814644D01*
X19564644Y-5814644D01*
X19564644Y-5885356D01*
X19635356Y-5885356D01*
X19635356Y-6085356D02*
X19635356Y-6014644D01*
X19564644Y-6014644D01*
X19564644Y-6085356D01*
X19635356Y-6085356D01*
X19835356Y-5485356D02*
X19835356Y-5414644D01*
X19764644Y-5414644D01*
X19764644Y-5485356D01*
X19835356Y-5485356D01*
X19835356Y-5685356D02*
X19835356Y-5614644D01*
X19764644Y-5614644D01*
X19764644Y-5685356D01*
X19835356Y-5685356D01*
X19835356Y-5885356D02*
X19835356Y-5814644D01*
X19764644Y-5814644D01*
X19764644Y-5885356D01*
X19835356Y-5885356D01*
X19835356Y-6085356D02*
X19835356Y-6014644D01*
X19764644Y-6014644D01*
X19764644Y-6085356D01*
X19835356Y-6085356D01*
X20035356Y-5485356D02*
X20035356Y-5414644D01*
X19964644Y-5414644D01*
X19964644Y-5485356D01*
X20035356Y-5485356D01*
X20035356Y-5685356D02*
X20035356Y-5614644D01*
X19964644Y-5614644D01*
X19964644Y-5685356D01*
X20035356Y-5685356D01*
X20035356Y-5885356D02*
X20035356Y-5814644D01*
X19964644Y-5814644D01*
X19964644Y-5885356D01*
X20035356Y-5885356D01*
X20035356Y-6085356D02*
X20035356Y-6014644D01*
X19964644Y-6014644D01*
X19964644Y-6085356D01*
X20035356Y-6085356D01*
X20185356Y-8033356D02*
X20185356Y-7962644D01*
X20114644Y-7962644D01*
X20114644Y-8033356D01*
X20185356Y-8033356D01*
X20185356Y-8287356D02*
X20185356Y-8216644D01*
X20114644Y-8216644D01*
X20114644Y-8287356D01*
X20185356Y-8287356D01*
X20185356Y-8541356D02*
X20185356Y-8470644D01*
X20114644Y-8470644D01*
X20114644Y-8541356D01*
X20185356Y-8541356D01*
X20185356Y-8795356D02*
X20185356Y-8724644D01*
X20114644Y-8724644D01*
X20114644Y-8795356D01*
X20185356Y-8795356D01*
X20185356Y-9049356D02*
X20185356Y-8978644D01*
X20114644Y-8978644D01*
X20114644Y-9049356D01*
X20185356Y-9049356D01*
X20185356Y-9303356D02*
X20185356Y-9232644D01*
X20114644Y-9232644D01*
X20114644Y-9303356D01*
X20185356Y-9303356D01*
X20185356Y-9557356D02*
X20185356Y-9486644D01*
X20114644Y-9486644D01*
X20114644Y-9557356D01*
X20185356Y-9557356D01*
X20185356Y-9811356D02*
X20185356Y-9740644D01*
X20114644Y-9740644D01*
X20114644Y-9811356D01*
X20185356Y-9811356D01*
X20185356Y-10065356D02*
X20185356Y-9994644D01*
X20114644Y-9994644D01*
X20114644Y-10065356D01*
X20185356Y-10065356D01*
X20185356Y-10319356D02*
X20185356Y-10248644D01*
X20114644Y-10248644D01*
X20114644Y-10319356D01*
X20185356Y-10319356D01*
X20185356Y-10573356D02*
X20185356Y-10502644D01*
X20114644Y-10502644D01*
X20114644Y-10573356D01*
X20185356Y-10573356D01*
X20185356Y-10827356D02*
X20185356Y-10756644D01*
X20114644Y-10756644D01*
X20114644Y-10827356D01*
X20185356Y-10827356D01*
X20185356Y-11081356D02*
X20185356Y-11010644D01*
X20114644Y-11010644D01*
X20114644Y-11081356D01*
X20185356Y-11081356D01*
X20185356Y-11335356D02*
X20185356Y-11264644D01*
X20114644Y-11264644D01*
X20114644Y-11335356D01*
X20185356Y-11335356D01*
X20185356Y-11589356D02*
X20185356Y-11518644D01*
X20114644Y-11518644D01*
X20114644Y-11589356D01*
X20185356Y-11589356D01*
X20185356Y-11843356D02*
X20185356Y-11772644D01*
X20114644Y-11772644D01*
X20114644Y-11843356D01*
X20185356Y-11843356D01*
X20185356Y-12097356D02*
X20185356Y-12026644D01*
X20114644Y-12026644D01*
X20114644Y-12097356D01*
X20185356Y-12097356D01*
X20185356Y-12351356D02*
X20185356Y-12280644D01*
X20114644Y-12280644D01*
X20114644Y-12351356D01*
X20185356Y-12351356D01*
X20185356Y-12605356D02*
X20185356Y-12534644D01*
X20114644Y-12534644D01*
X20114644Y-12605356D01*
X20185356Y-12605356D01*
X20185356Y-12859356D02*
X20185356Y-12788644D01*
X20114644Y-12788644D01*
X20114644Y-12859356D01*
X20185356Y-12859356D01*
X20185356Y-13113356D02*
X20185356Y-13042644D01*
X20114644Y-13042644D01*
X20114644Y-13113356D01*
X20185356Y-13113356D01*
X20185356Y-13367356D02*
X20185356Y-13296644D01*
X20114644Y-13296644D01*
X20114644Y-13367356D01*
X20185356Y-13367356D01*
X20185356Y-13621356D02*
X20185356Y-13550644D01*
X20114644Y-13550644D01*
X20114644Y-13621356D01*
X20185356Y-13621356D01*
X20185356Y-13875356D02*
X20185356Y-13804644D01*
X20114644Y-13804644D01*
X20114644Y-13875356D01*
X20185356Y-13875356D01*
X20235356Y-5485356D02*
X20235356Y-5414644D01*
X20164644Y-5414644D01*
X20164644Y-5485356D01*
X20235356Y-5485356D01*
X20235356Y-5685356D02*
X20235356Y-5614644D01*
X20164644Y-5614644D01*
X20164644Y-5685356D01*
X20235356Y-5685356D01*
X20235356Y-5885356D02*
X20235356Y-5814644D01*
X20164644Y-5814644D01*
X20164644Y-5885356D01*
X20235356Y-5885356D01*
X20235356Y-6085356D02*
X20235356Y-6014644D01*
X20164644Y-6014644D01*
X20164644Y-6085356D01*
X20235356Y-6085356D01*
X20435356Y-5485356D02*
X20435356Y-5414644D01*
X20364644Y-5414644D01*
X20364644Y-5485356D01*
X20435356Y-5485356D01*
X20435356Y-5685356D02*
X20435356Y-5614644D01*
X20364644Y-5614644D01*
X20364644Y-5685356D01*
X20435356Y-5685356D01*
X20435356Y-5885356D02*
X20435356Y-5814644D01*
X20364644Y-5814644D01*
X20364644Y-5885356D01*
X20435356Y-5885356D01*
X20435356Y-6085356D02*
X20435356Y-6014644D01*
X20364644Y-6014644D01*
X20364644Y-6085356D01*
X20435356Y-6085356D01*
X20485356Y-8033356D02*
X20485356Y-7962644D01*
X20414644Y-7962644D01*
X20414644Y-8033356D01*
X20485356Y-8033356D01*
X20485356Y-8287356D02*
X20485356Y-8216644D01*
X20414644Y-8216644D01*
X20414644Y-8287356D01*
X20485356Y-8287356D01*
X20485356Y-8541356D02*
X20485356Y-8470644D01*
X20414644Y-8470644D01*
X20414644Y-8541356D01*
X20485356Y-8541356D01*
X20485356Y-8795356D02*
X20485356Y-8724644D01*
X20414644Y-8724644D01*
X20414644Y-8795356D01*
X20485356Y-8795356D01*
X20485356Y-9049356D02*
X20485356Y-8978644D01*
X20414644Y-8978644D01*
X20414644Y-9049356D01*
X20485356Y-9049356D01*
X20485356Y-9303356D02*
X20485356Y-9232644D01*
X20414644Y-9232644D01*
X20414644Y-9303356D01*
X20485356Y-9303356D01*
X20485356Y-9557356D02*
X20485356Y-9486644D01*
X20414644Y-9486644D01*
X20414644Y-9557356D01*
X20485356Y-9557356D01*
X20485356Y-9811356D02*
X20485356Y-9740644D01*
X20414644Y-9740644D01*
X20414644Y-9811356D01*
X20485356Y-9811356D01*
X20485356Y-10065356D02*
X20485356Y-9994644D01*
X20414644Y-9994644D01*
X20414644Y-10065356D01*
X20485356Y-10065356D01*
X20485356Y-10319356D02*
X20485356Y-10248644D01*
X20414644Y-10248644D01*
X20414644Y-10319356D01*
X20485356Y-10319356D01*
X20485356Y-10573356D02*
X20485356Y-10502644D01*
X20414644Y-10502644D01*
X20414644Y-10573356D01*
X20485356Y-10573356D01*
X20485356Y-10827356D02*
X20485356Y-10756644D01*
X20414644Y-10756644D01*
X20414644Y-10827356D01*
X20485356Y-10827356D01*
X20485356Y-11081356D02*
X20485356Y-11010644D01*
X20414644Y-11010644D01*
X20414644Y-11081356D01*
X20485356Y-11081356D01*
X20485356Y-11335356D02*
X20485356Y-11264644D01*
X20414644Y-11264644D01*
X20414644Y-11335356D01*
X20485356Y-11335356D01*
X20485356Y-11589356D02*
X20485356Y-11518644D01*
X20414644Y-11518644D01*
X20414644Y-11589356D01*
X20485356Y-11589356D01*
X20485356Y-11843356D02*
X20485356Y-11772644D01*
X20414644Y-11772644D01*
X20414644Y-11843356D01*
X20485356Y-11843356D01*
X20485356Y-12097356D02*
X20485356Y-12026644D01*
X20414644Y-12026644D01*
X20414644Y-12097356D01*
X20485356Y-12097356D01*
X20485356Y-12351356D02*
X20485356Y-12280644D01*
X20414644Y-12280644D01*
X20414644Y-12351356D01*
X20485356Y-12351356D01*
X20485356Y-12605356D02*
X20485356Y-12534644D01*
X20414644Y-12534644D01*
X20414644Y-12605356D01*
X20485356Y-12605356D01*
X20485356Y-12859356D02*
X20485356Y-12788644D01*
X20414644Y-12788644D01*
X20414644Y-12859356D01*
X20485356Y-12859356D01*
X20485356Y-13113356D02*
X20485356Y-13042644D01*
X20414644Y-13042644D01*
X20414644Y-13113356D01*
X20485356Y-13113356D01*
X20485356Y-13367356D02*
X20485356Y-13296644D01*
X20414644Y-13296644D01*
X20414644Y-13367356D01*
X20485356Y-13367356D01*
X20485356Y-13621356D02*
X20485356Y-13550644D01*
X20414644Y-13550644D01*
X20414644Y-13621356D01*
X20485356Y-13621356D01*
X20485356Y-13875356D02*
X20485356Y-13804644D01*
X20414644Y-13804644D01*
X20414644Y-13875356D01*
X20485356Y-13875356D01*
X20635356Y-5485356D02*
X20635356Y-5414644D01*
X20564644Y-5414644D01*
X20564644Y-5485356D01*
X20635356Y-5485356D01*
X20635356Y-5685356D02*
X20635356Y-5614644D01*
X20564644Y-5614644D01*
X20564644Y-5685356D01*
X20635356Y-5685356D01*
X20635356Y-5885356D02*
X20635356Y-5814644D01*
X20564644Y-5814644D01*
X20564644Y-5885356D01*
X20635356Y-5885356D01*
X20635356Y-6085356D02*
X20635356Y-6014644D01*
X20564644Y-6014644D01*
X20564644Y-6085356D01*
X20635356Y-6085356D01*
X20835356Y-5485356D02*
X20835356Y-5414644D01*
X20764644Y-5414644D01*
X20764644Y-5485356D01*
X20835356Y-5485356D01*
X20835356Y-5685356D02*
X20835356Y-5614644D01*
X20764644Y-5614644D01*
X20764644Y-5685356D01*
X20835356Y-5685356D01*
X20835356Y-5885356D02*
X20835356Y-5814644D01*
X20764644Y-5814644D01*
X20764644Y-5885356D01*
X20835356Y-5885356D01*
X20835356Y-6085356D02*
X20835356Y-6014644D01*
X20764644Y-6014644D01*
X20764644Y-6085356D01*
X20835356Y-6085356D01*
X21035356Y-5485356D02*
X21035356Y-5414644D01*
X20964644Y-5414644D01*
X20964644Y-5485356D01*
X21035356Y-5485356D01*
X21035356Y-5685356D02*
X21035356Y-5614644D01*
X20964644Y-5614644D01*
X20964644Y-5685356D01*
X21035356Y-5685356D01*
X21035356Y-5885356D02*
X21035356Y-5814644D01*
X20964644Y-5814644D01*
X20964644Y-5885356D01*
X21035356Y-5885356D01*
X21035356Y-6085356D02*
X21035356Y-6014644D01*
X20964644Y-6014644D01*
X20964644Y-6085356D01*
X21035356Y-6085356D01*
X21235356Y-5485356D02*
X21235356Y-5414644D01*
X21164644Y-5414644D01*
X21164644Y-5485356D01*
X21235356Y-5485356D01*
X21235356Y-5685356D02*
X21235356Y-5614644D01*
X21164644Y-5614644D01*
X21164644Y-5685356D01*
X21235356Y-5685356D01*
X21235356Y-5885356D02*
X21235356Y-5814644D01*
X21164644Y-5814644D01*
X21164644Y-5885356D01*
X21235356Y-5885356D01*
X21235356Y-6085356D02*
X21235356Y-6014644D01*
X21164644Y-6014644D01*
X21164644Y-6085356D01*
X21235356Y-6085356D01*
X21435356Y-5485356D02*
X21435356Y-5414644D01*
X21364644Y-5414644D01*
X21364644Y-5485356D01*
X21435356Y-5485356D01*
X21435356Y-5685356D02*
X21435356Y-5614644D01*
X21364644Y-5614644D01*
X21364644Y-5685356D01*
X21435356Y-5685356D01*
X21435356Y-5885356D02*
X21435356Y-5814644D01*
X21364644Y-5814644D01*
X21364644Y-5885356D01*
X21435356Y-5885356D01*
X21435356Y-6085356D02*
X21435356Y-6014644D01*
X21364644Y-6014644D01*
X21364644Y-6085356D01*
X21435356Y-6085356D01*
X21635356Y-5485356D02*
X21635356Y-5414644D01*
X21564644Y-5414644D01*
X21564644Y-5485356D01*
X21635356Y-5485356D01*
X21635356Y-5685356D02*
X21635356Y-5614644D01*
X21564644Y-5614644D01*
X21564644Y-5685356D01*
X21635356Y-5685356D01*
X21635356Y-5885356D02*
X21635356Y-5814644D01*
X21564644Y-5814644D01*
X21564644Y-5885356D01*
X21635356Y-5885356D01*
X21635356Y-6085356D02*
X21635356Y-6014644D01*
X21564644Y-6014644D01*
X21564644Y-6085356D01*
X21635356Y-6085356D01*
X21835356Y-5485356D02*
X21835356Y-5414644D01*
X21764644Y-5414644D01*
X21764644Y-5485356D01*
X21835356Y-5485356D01*
X21835356Y-5685356D02*
X21835356Y-5614644D01*
X21764644Y-5614644D01*
X21764644Y-5685356D01*
X21835356Y-5685356D01*
X21835356Y-5885356D02*
X21835356Y-5814644D01*
X21764644Y-5814644D01*
X21764644Y-5885356D01*
X21835356Y-5885356D01*
X21835356Y-6085356D02*
X21835356Y-6014644D01*
X21764644Y-6014644D01*
X21764644Y-6085356D01*
X21835356Y-6085356D01*
X22035356Y-5485356D02*
X22035356Y-5414644D01*
X21964644Y-5414644D01*
X21964644Y-5485356D01*
X22035356Y-5485356D01*
X22035356Y-5685356D02*
X22035356Y-5614644D01*
X21964644Y-5614644D01*
X21964644Y-5685356D01*
X22035356Y-5685356D01*
X22035356Y-5885356D02*
X22035356Y-5814644D01*
X21964644Y-5814644D01*
X21964644Y-5885356D01*
X22035356Y-5885356D01*
X22035356Y-6085356D02*
X22035356Y-6014644D01*
X21964644Y-6014644D01*
X21964644Y-6085356D01*
X22035356Y-6085356D01*
X22135356Y-8033356D02*
X22135356Y-7962644D01*
X22064644Y-7962644D01*
X22064644Y-8033356D01*
X22135356Y-8033356D01*
X22135356Y-8287356D02*
X22135356Y-8216644D01*
X22064644Y-8216644D01*
X22064644Y-8287356D01*
X22135356Y-8287356D01*
X22135356Y-8541356D02*
X22135356Y-8470644D01*
X22064644Y-8470644D01*
X22064644Y-8541356D01*
X22135356Y-8541356D01*
X22135356Y-8795356D02*
X22135356Y-8724644D01*
X22064644Y-8724644D01*
X22064644Y-8795356D01*
X22135356Y-8795356D01*
X22135356Y-9049356D02*
X22135356Y-8978644D01*
X22064644Y-8978644D01*
X22064644Y-9049356D01*
X22135356Y-9049356D01*
X22135356Y-9303356D02*
X22135356Y-9232644D01*
X22064644Y-9232644D01*
X22064644Y-9303356D01*
X22135356Y-9303356D01*
X22135356Y-9557356D02*
X22135356Y-9486644D01*
X22064644Y-9486644D01*
X22064644Y-9557356D01*
X22135356Y-9557356D01*
X22135356Y-9811356D02*
X22135356Y-9740644D01*
X22064644Y-9740644D01*
X22064644Y-9811356D01*
X22135356Y-9811356D01*
X22135356Y-10065356D02*
X22135356Y-9994644D01*
X22064644Y-9994644D01*
X22064644Y-10065356D01*
X22135356Y-10065356D01*
X22135356Y-10319356D02*
X22135356Y-10248644D01*
X22064644Y-10248644D01*
X22064644Y-10319356D01*
X22135356Y-10319356D01*
X22135356Y-10573356D02*
X22135356Y-10502644D01*
X22064644Y-10502644D01*
X22064644Y-10573356D01*
X22135356Y-10573356D01*
X22135356Y-10827356D02*
X22135356Y-10756644D01*
X22064644Y-10756644D01*
X22064644Y-10827356D01*
X22135356Y-10827356D01*
X22135356Y-11081356D02*
X22135356Y-11010644D01*
X22064644Y-11010644D01*
X22064644Y-11081356D01*
X22135356Y-11081356D01*
X22135356Y-11335356D02*
X22135356Y-11264644D01*
X22064644Y-11264644D01*
X22064644Y-11335356D01*
X22135356Y-11335356D01*
X22135356Y-11589356D02*
X22135356Y-11518644D01*
X22064644Y-11518644D01*
X22064644Y-11589356D01*
X22135356Y-11589356D01*
X22135356Y-11843356D02*
X22135356Y-11772644D01*
X22064644Y-11772644D01*
X22064644Y-11843356D01*
X22135356Y-11843356D01*
X22135356Y-12097356D02*
X22135356Y-12026644D01*
X22064644Y-12026644D01*
X22064644Y-12097356D01*
X22135356Y-12097356D01*
X22135356Y-12351356D02*
X22135356Y-12280644D01*
X22064644Y-12280644D01*
X22064644Y-12351356D01*
X22135356Y-12351356D01*
X22135356Y-12605356D02*
X22135356Y-12534644D01*
X22064644Y-12534644D01*
X22064644Y-12605356D01*
X22135356Y-12605356D01*
X22135356Y-12859356D02*
X22135356Y-12788644D01*
X22064644Y-12788644D01*
X22064644Y-12859356D01*
X22135356Y-12859356D01*
X22135356Y-13113356D02*
X22135356Y-13042644D01*
X22064644Y-13042644D01*
X22064644Y-13113356D01*
X22135356Y-13113356D01*
X22135356Y-13367356D02*
X22135356Y-13296644D01*
X22064644Y-13296644D01*
X22064644Y-13367356D01*
X22135356Y-13367356D01*
X22135356Y-13621356D02*
X22135356Y-13550644D01*
X22064644Y-13550644D01*
X22064644Y-13621356D01*
X22135356Y-13621356D01*
X22135356Y-13875356D02*
X22135356Y-13804644D01*
X22064644Y-13804644D01*
X22064644Y-13875356D01*
X22135356Y-13875356D01*
X22235356Y-5485356D02*
X22235356Y-5414644D01*
X22164644Y-5414644D01*
X22164644Y-5485356D01*
X22235356Y-5485356D01*
X22235356Y-5685356D02*
X22235356Y-5614644D01*
X22164644Y-5614644D01*
X22164644Y-5685356D01*
X22235356Y-5685356D01*
X22235356Y-5885356D02*
X22235356Y-5814644D01*
X22164644Y-5814644D01*
X22164644Y-5885356D01*
X22235356Y-5885356D01*
X22235356Y-6085356D02*
X22235356Y-6014644D01*
X22164644Y-6014644D01*
X22164644Y-6085356D01*
X22235356Y-6085356D01*
X22435356Y-5485356D02*
X22435356Y-5414644D01*
X22364644Y-5414644D01*
X22364644Y-5485356D01*
X22435356Y-5485356D01*
X22435356Y-5685356D02*
X22435356Y-5614644D01*
X22364644Y-5614644D01*
X22364644Y-5685356D01*
X22435356Y-5685356D01*
X22435356Y-5885356D02*
X22435356Y-5814644D01*
X22364644Y-5814644D01*
X22364644Y-5885356D01*
X22435356Y-5885356D01*
X22435356Y-6085356D02*
X22435356Y-6014644D01*
X22364644Y-6014644D01*
X22364644Y-6085356D01*
X22435356Y-6085356D01*
X22635356Y-5485356D02*
X22635356Y-5414644D01*
X22564644Y-5414644D01*
X22564644Y-5485356D01*
X22635356Y-5485356D01*
X22635356Y-5685356D02*
X22635356Y-5614644D01*
X22564644Y-5614644D01*
X22564644Y-5685356D01*
X22635356Y-5685356D01*
X22635356Y-5885356D02*
X22635356Y-5814644D01*
X22564644Y-5814644D01*
X22564644Y-5885356D01*
X22635356Y-5885356D01*
X22635356Y-6085356D02*
X22635356Y-6014644D01*
X22564644Y-6014644D01*
X22564644Y-6085356D01*
X22635356Y-6085356D01*
X22835356Y-5485356D02*
X22835356Y-5414644D01*
X22764644Y-5414644D01*
X22764644Y-5485356D01*
X22835356Y-5485356D01*
X22835356Y-5685356D02*
X22835356Y-5614644D01*
X22764644Y-5614644D01*
X22764644Y-5685356D01*
X22835356Y-5685356D01*
X22835356Y-5885356D02*
X22835356Y-5814644D01*
X22764644Y-5814644D01*
X22764644Y-5885356D01*
X22835356Y-5885356D01*
X22835356Y-6085356D02*
X22835356Y-6014644D01*
X22764644Y-6014644D01*
X22764644Y-6085356D01*
X22835356Y-6085356D01*
X23035356Y-5485356D02*
X23035356Y-5414644D01*
X22964644Y-5414644D01*
X22964644Y-5485356D01*
X23035356Y-5485356D01*
X23035356Y-5685356D02*
X23035356Y-5614644D01*
X22964644Y-5614644D01*
X22964644Y-5685356D01*
X23035356Y-5685356D01*
X23035356Y-5885356D02*
X23035356Y-5814644D01*
X22964644Y-5814644D01*
X22964644Y-5885356D01*
X23035356Y-5885356D01*
X23035356Y-6085356D02*
X23035356Y-6014644D01*
X22964644Y-6014644D01*
X22964644Y-6085356D01*
X23035356Y-6085356D01*
X23235356Y-5485356D02*
X23235356Y-5414644D01*
X23164644Y-5414644D01*
X23164644Y-5485356D01*
X23235356Y-5485356D01*
X23235356Y-5685356D02*
X23235356Y-5614644D01*
X23164644Y-5614644D01*
X23164644Y-5685356D01*
X23235356Y-5685356D01*
X23235356Y-5885356D02*
X23235356Y-5814644D01*
X23164644Y-5814644D01*
X23164644Y-5885356D01*
X23235356Y-5885356D01*
X23235356Y-6085356D02*
X23235356Y-6014644D01*
X23164644Y-6014644D01*
X23164644Y-6085356D01*
X23235356Y-6085356D01*
X23635356Y-8033356D02*
X23635356Y-7962644D01*
X23564644Y-7962644D01*
X23564644Y-8033356D01*
X23635356Y-8033356D01*
X23635356Y-8287356D02*
X23635356Y-8216644D01*
X23564644Y-8216644D01*
X23564644Y-8287356D01*
X23635356Y-8287356D01*
X23635356Y-8541356D02*
X23635356Y-8470644D01*
X23564644Y-8470644D01*
X23564644Y-8541356D01*
X23635356Y-8541356D01*
X23635356Y-8795356D02*
X23635356Y-8724644D01*
X23564644Y-8724644D01*
X23564644Y-8795356D01*
X23635356Y-8795356D01*
X23635356Y-9049356D02*
X23635356Y-8978644D01*
X23564644Y-8978644D01*
X23564644Y-9049356D01*
X23635356Y-9049356D01*
X23635356Y-9303356D02*
X23635356Y-9232644D01*
X23564644Y-9232644D01*
X23564644Y-9303356D01*
X23635356Y-9303356D01*
X23635356Y-9557356D02*
X23635356Y-9486644D01*
X23564644Y-9486644D01*
X23564644Y-9557356D01*
X23635356Y-9557356D01*
X23635356Y-9811356D02*
X23635356Y-9740644D01*
X23564644Y-9740644D01*
X23564644Y-9811356D01*
X23635356Y-9811356D01*
X23635356Y-10065356D02*
X23635356Y-9994644D01*
X23564644Y-9994644D01*
X23564644Y-10065356D01*
X23635356Y-10065356D01*
X23635356Y-10319356D02*
X23635356Y-10248644D01*
X23564644Y-10248644D01*
X23564644Y-10319356D01*
X23635356Y-10319356D01*
X23635356Y-10573356D02*
X23635356Y-10502644D01*
X23564644Y-10502644D01*
X23564644Y-10573356D01*
X23635356Y-10573356D01*
X23635356Y-10827356D02*
X23635356Y-10756644D01*
X23564644Y-10756644D01*
X23564644Y-10827356D01*
X23635356Y-10827356D01*
X23635356Y-11081356D02*
X23635356Y-11010644D01*
X23564644Y-11010644D01*
X23564644Y-11081356D01*
X23635356Y-11081356D01*
X23635356Y-11335356D02*
X23635356Y-11264644D01*
X23564644Y-11264644D01*
X23564644Y-11335356D01*
X23635356Y-11335356D01*
X23635356Y-11589356D02*
X23635356Y-11518644D01*
X23564644Y-11518644D01*
X23564644Y-11589356D01*
X23635356Y-11589356D01*
X23635356Y-11843356D02*
X23635356Y-11772644D01*
X23564644Y-11772644D01*
X23564644Y-11843356D01*
X23635356Y-11843356D01*
X23635356Y-12097356D02*
X23635356Y-12026644D01*
X23564644Y-12026644D01*
X23564644Y-12097356D01*
X23635356Y-12097356D01*
X23635356Y-12351356D02*
X23635356Y-12280644D01*
X23564644Y-12280644D01*
X23564644Y-12351356D01*
X23635356Y-12351356D01*
X23635356Y-12605356D02*
X23635356Y-12534644D01*
X23564644Y-12534644D01*
X23564644Y-12605356D01*
X23635356Y-12605356D01*
X23635356Y-12859356D02*
X23635356Y-12788644D01*
X23564644Y-12788644D01*
X23564644Y-12859356D01*
X23635356Y-12859356D01*
X23635356Y-13113356D02*
X23635356Y-13042644D01*
X23564644Y-13042644D01*
X23564644Y-13113356D01*
X23635356Y-13113356D01*
X23635356Y-13367356D02*
X23635356Y-13296644D01*
X23564644Y-13296644D01*
X23564644Y-13367356D01*
X23635356Y-13367356D01*
X23635356Y-13621356D02*
X23635356Y-13550644D01*
X23564644Y-13550644D01*
X23564644Y-13621356D01*
X23635356Y-13621356D01*
X23635356Y-13875356D02*
X23635356Y-13804644D01*
X23564644Y-13804644D01*
X23564644Y-13875356D01*
X23635356Y-13875356D01*
D13*
X17337000Y-6873800D02*
X17387800Y-6823000D01*
X17337000Y-6772200D01*
X17286200Y-6823000D01*
X17337000Y-6873800D01*
X17337000Y-7127800D02*
X17387800Y-7077000D01*
X17337000Y-7026200D01*
X17286200Y-7077000D01*
X17337000Y-7127800D01*
X17591000Y-6873800D02*
X17641800Y-6823000D01*
X17591000Y-6772200D01*
X17540200Y-6823000D01*
X17591000Y-6873800D01*
X17591000Y-7127800D02*
X17641800Y-7077000D01*
X17591000Y-7026200D01*
X17540200Y-7077000D01*
X17591000Y-7127800D01*
X17845000Y-6873800D02*
X17895800Y-6823000D01*
X17845000Y-6772200D01*
X17794200Y-6823000D01*
X17845000Y-6873800D01*
X17845000Y-7127800D02*
X17895800Y-7077000D01*
X17845000Y-7026200D01*
X17794200Y-7077000D01*
X17845000Y-7127800D01*
X18099000Y-6873800D02*
X18149800Y-6823000D01*
X18099000Y-6772200D01*
X18048200Y-6823000D01*
X18099000Y-6873800D01*
X18099000Y-7127800D02*
X18149800Y-7077000D01*
X18099000Y-7026200D01*
X18048200Y-7077000D01*
X18099000Y-7127800D01*
X18353000Y-6873800D02*
X18403800Y-6823000D01*
X18353000Y-6772200D01*
X18302200Y-6823000D01*
X18353000Y-6873800D01*
X18353000Y-7127800D02*
X18403800Y-7077000D01*
X18353000Y-7026200D01*
X18302200Y-7077000D01*
X18353000Y-7127800D01*
X18607000Y-6873800D02*
X18657800Y-6823000D01*
X18607000Y-6772200D01*
X18556200Y-6823000D01*
X18607000Y-6873800D01*
X18607000Y-7127800D02*
X18657800Y-7077000D01*
X18607000Y-7026200D01*
X18556200Y-7077000D01*
X18607000Y-7127800D01*
X18861000Y-6873800D02*
X18911800Y-6823000D01*
X18861000Y-6772200D01*
X18810200Y-6823000D01*
X18861000Y-6873800D01*
X18861000Y-7127800D02*
X18911800Y-7077000D01*
X18861000Y-7026200D01*
X18810200Y-7077000D01*
X18861000Y-7127800D01*
X19115000Y-6873800D02*
X19165800Y-6823000D01*
X19115000Y-6772200D01*
X19064200Y-6823000D01*
X19115000Y-6873800D01*
X19115000Y-7127800D02*
X19165800Y-7077000D01*
X19115000Y-7026200D01*
X19064200Y-7077000D01*
X19115000Y-7127800D01*
X19369000Y-6873800D02*
X19419800Y-6823000D01*
X19369000Y-6772200D01*
X19318200Y-6823000D01*
X19369000Y-6873800D01*
X19369000Y-7127800D02*
X19419800Y-7077000D01*
X19369000Y-7026200D01*
X19318200Y-7077000D01*
X19369000Y-7127800D01*
X19623000Y-6873800D02*
X19673800Y-6823000D01*
X19623000Y-6772200D01*
X19572200Y-6823000D01*
X19623000Y-6873800D01*
X19623000Y-7127800D02*
X19673800Y-7077000D01*
X19623000Y-7026200D01*
X19572200Y-7077000D01*
X19623000Y-7127800D01*
X19877000Y-6873800D02*
X19927800Y-6823000D01*
X19877000Y-6772200D01*
X19826200Y-6823000D01*
X19877000Y-6873800D01*
X19877000Y-7127800D02*
X19927800Y-7077000D01*
X19877000Y-7026200D01*
X19826200Y-7077000D01*
X19877000Y-7127800D01*
X20131000Y-6873800D02*
X20181800Y-6823000D01*
X20131000Y-6772200D01*
X20080200Y-6823000D01*
X20131000Y-6873800D01*
X20131000Y-7127800D02*
X20181800Y-7077000D01*
X20131000Y-7026200D01*
X20080200Y-7077000D01*
X20131000Y-7127800D01*
X20385000Y-6873800D02*
X20435800Y-6823000D01*
X20385000Y-6772200D01*
X20334200Y-6823000D01*
X20385000Y-6873800D01*
X20385000Y-7127800D02*
X20435800Y-7077000D01*
X20385000Y-7026200D01*
X20334200Y-7077000D01*
X20385000Y-7127800D01*
X20639000Y-6873800D02*
X20689800Y-6823000D01*
X20639000Y-6772200D01*
X20588200Y-6823000D01*
X20639000Y-6873800D01*
X20639000Y-7127800D02*
X20689800Y-7077000D01*
X20639000Y-7026200D01*
X20588200Y-7077000D01*
X20639000Y-7127800D01*
X20893000Y-6873800D02*
X20943800Y-6823000D01*
X20893000Y-6772200D01*
X20842200Y-6823000D01*
X20893000Y-6873800D01*
X20893000Y-7127800D02*
X20943800Y-7077000D01*
X20893000Y-7026200D01*
X20842200Y-7077000D01*
X20893000Y-7127800D01*
X21147000Y-6873800D02*
X21197800Y-6823000D01*
X21147000Y-6772200D01*
X21096200Y-6823000D01*
X21147000Y-6873800D01*
X21147000Y-7127800D02*
X21197800Y-7077000D01*
X21147000Y-7026200D01*
X21096200Y-7077000D01*
X21147000Y-7127800D01*
X21401000Y-6873800D02*
X21451800Y-6823000D01*
X21401000Y-6772200D01*
X21350200Y-6823000D01*
X21401000Y-6873800D01*
X21401000Y-7127800D02*
X21451800Y-7077000D01*
X21401000Y-7026200D01*
X21350200Y-7077000D01*
X21401000Y-7127800D01*
X21655000Y-6873800D02*
X21705800Y-6823000D01*
X21655000Y-6772200D01*
X21604200Y-6823000D01*
X21655000Y-6873800D01*
X21655000Y-7127800D02*
X21705800Y-7077000D01*
X21655000Y-7026200D01*
X21604200Y-7077000D01*
X21655000Y-7127800D01*
X21909000Y-6873800D02*
X21959800Y-6823000D01*
X21909000Y-6772200D01*
X21858200Y-6823000D01*
X21909000Y-6873800D01*
X21909000Y-7127800D02*
X21959800Y-7077000D01*
X21909000Y-7026200D01*
X21858200Y-7077000D01*
X21909000Y-7127800D01*
X22163000Y-6873800D02*
X22213800Y-6823000D01*
X22163000Y-6772200D01*
X22112200Y-6823000D01*
X22163000Y-6873800D01*
X22163000Y-7127800D02*
X22213800Y-7077000D01*
X22163000Y-7026200D01*
X22112200Y-7077000D01*
X22163000Y-7127800D01*
D14*
X15962500Y-11712500D02*
X16237500Y-11987500D01*
X16237500Y-11712500D02*
X15962500Y-11987500D01*
X16237500Y-11850000D02*
G75*
G02*
X15962500Y-11850000I-137500J0D01*
G01*
X15962500Y-11850000D02*
G75*
G02*
X16237500Y-11850000I137500J0D01*
G01*
X16712500Y-6812500D02*
X16987500Y-7087500D01*
X16987500Y-6812500D02*
X16712500Y-7087500D01*
X16987500Y-6950000D02*
G75*
G02*
X16712500Y-6950000I-137500J0D01*
G01*
X16712500Y-6950000D02*
G75*
G02*
X16987500Y-6950000I137500J0D01*
G01*
X22512500Y-6812500D02*
X22787500Y-7087500D01*
X22787500Y-6812500D02*
X22512500Y-7087500D01*
X22787500Y-6950000D02*
G75*
G02*
X22512500Y-6950000I-137500J0D01*
G01*
X22512500Y-6950000D02*
G75*
G02*
X22787500Y-6950000I137500J0D01*
G01*
X22512500Y-11712500D02*
X22787500Y-11987500D01*
X22787500Y-11712500D02*
X22512500Y-11987500D01*
X22787500Y-11850000D02*
G75*
G02*
X22512500Y-11850000I-137500J0D01*
G01*
X22512500Y-11850000D02*
G75*
G02*
X22787500Y-11850000I137500J0D01*
G01*
D11*
X15858277Y-14863984D02*
X15858277Y-14663984D01*
X15858277Y-14663984D02*
X15905896Y-14663984D01*
X15905896Y-14663984D02*
X15934467Y-14673508D01*
X15934467Y-14673508D02*
X15953515Y-14692555D01*
X15953515Y-14692555D02*
X15963039Y-14711603D01*
X15963039Y-14711603D02*
X15972562Y-14749698D01*
X15972562Y-14749698D02*
X15972562Y-14778269D01*
X15972562Y-14778269D02*
X15963039Y-14816365D01*
X15963039Y-14816365D02*
X15953515Y-14835412D01*
X15953515Y-14835412D02*
X15934467Y-14854460D01*
X15934467Y-14854460D02*
X15905896Y-14863984D01*
X15905896Y-14863984D02*
X15858277Y-14863984D01*
X16058277Y-14863984D02*
X16058277Y-14730650D01*
X16058277Y-14768746D02*
X16067801Y-14749698D01*
X16067801Y-14749698D02*
X16077324Y-14740174D01*
X16077324Y-14740174D02*
X16096372Y-14730650D01*
X16096372Y-14730650D02*
X16115420Y-14730650D01*
X16182086Y-14863984D02*
X16182086Y-14730650D01*
X16182086Y-14663984D02*
X16172562Y-14673508D01*
X16172562Y-14673508D02*
X16182086Y-14683031D01*
X16182086Y-14683031D02*
X16191610Y-14673508D01*
X16191610Y-14673508D02*
X16182086Y-14663984D01*
X16182086Y-14663984D02*
X16182086Y-14683031D01*
X16305896Y-14863984D02*
X16286848Y-14854460D01*
X16286848Y-14854460D02*
X16277324Y-14835412D01*
X16277324Y-14835412D02*
X16277324Y-14663984D01*
X16410658Y-14863984D02*
X16391610Y-14854460D01*
X16391610Y-14854460D02*
X16382086Y-14835412D01*
X16382086Y-14835412D02*
X16382086Y-14663984D01*
X16639229Y-14863984D02*
X16639229Y-14663984D01*
X16639229Y-14663984D02*
X16705896Y-14806841D01*
X16705896Y-14806841D02*
X16772562Y-14663984D01*
X16772562Y-14663984D02*
X16772562Y-14863984D01*
X16953515Y-14863984D02*
X16953515Y-14759222D01*
X16953515Y-14759222D02*
X16943991Y-14740174D01*
X16943991Y-14740174D02*
X16924944Y-14730650D01*
X16924944Y-14730650D02*
X16886848Y-14730650D01*
X16886848Y-14730650D02*
X16867801Y-14740174D01*
X16953515Y-14854460D02*
X16934467Y-14863984D01*
X16934467Y-14863984D02*
X16886848Y-14863984D01*
X16886848Y-14863984D02*
X16867801Y-14854460D01*
X16867801Y-14854460D02*
X16858277Y-14835412D01*
X16858277Y-14835412D02*
X16858277Y-14816365D01*
X16858277Y-14816365D02*
X16867801Y-14797317D01*
X16867801Y-14797317D02*
X16886848Y-14787793D01*
X16886848Y-14787793D02*
X16934467Y-14787793D01*
X16934467Y-14787793D02*
X16953515Y-14778269D01*
X17048753Y-14730650D02*
X17048753Y-14930650D01*
X17048753Y-14740174D02*
X17067801Y-14730650D01*
X17067801Y-14730650D02*
X17105896Y-14730650D01*
X17105896Y-14730650D02*
X17124944Y-14740174D01*
X17124944Y-14740174D02*
X17134467Y-14749698D01*
X17134467Y-14749698D02*
X17143991Y-14768746D01*
X17143991Y-14768746D02*
X17143991Y-14825888D01*
X17143991Y-14825888D02*
X17134467Y-14844936D01*
X17134467Y-14844936D02*
X17124944Y-14854460D01*
X17124944Y-14854460D02*
X17105896Y-14863984D01*
X17105896Y-14863984D02*
X17067801Y-14863984D01*
X17067801Y-14863984D02*
X17048753Y-14854460D01*
X17229705Y-14844936D02*
X17239229Y-14854460D01*
X17239229Y-14854460D02*
X17229705Y-14863984D01*
X17229705Y-14863984D02*
X17220182Y-14854460D01*
X17220182Y-14854460D02*
X17229705Y-14844936D01*
X17229705Y-14844936D02*
X17229705Y-14863984D01*
X17229705Y-14740174D02*
X17239229Y-14749698D01*
X17239229Y-14749698D02*
X17229705Y-14759222D01*
X17229705Y-14759222D02*
X17220182Y-14749698D01*
X17220182Y-14749698D02*
X17229705Y-14740174D01*
X17229705Y-14740174D02*
X17229705Y-14759222D01*
D12*
X15567500Y-15177500D02*
X15597500Y-15207500D01*
X15597500Y-15177500D02*
X15567500Y-15207500D01*
D11*
X15896372Y-15083984D02*
X15915420Y-15083984D01*
X15915420Y-15083984D02*
X15934467Y-15093508D01*
X15934467Y-15093508D02*
X15943991Y-15103031D01*
X15943991Y-15103031D02*
X15953515Y-15122079D01*
X15953515Y-15122079D02*
X15963039Y-15160174D01*
X15963039Y-15160174D02*
X15963039Y-15207793D01*
X15963039Y-15207793D02*
X15953515Y-15245888D01*
X15953515Y-15245888D02*
X15943991Y-15264936D01*
X15943991Y-15264936D02*
X15934467Y-15274460D01*
X15934467Y-15274460D02*
X15915420Y-15283984D01*
X15915420Y-15283984D02*
X15896372Y-15283984D01*
X15896372Y-15283984D02*
X15877324Y-15274460D01*
X15877324Y-15274460D02*
X15867801Y-15264936D01*
X15867801Y-15264936D02*
X15858277Y-15245888D01*
X15858277Y-15245888D02*
X15848753Y-15207793D01*
X15848753Y-15207793D02*
X15848753Y-15160174D01*
X15848753Y-15160174D02*
X15858277Y-15122079D01*
X15858277Y-15122079D02*
X15867801Y-15103031D01*
X15867801Y-15103031D02*
X15877324Y-15093508D01*
X15877324Y-15093508D02*
X15896372Y-15083984D01*
X16048753Y-15264936D02*
X16058277Y-15274460D01*
X16058277Y-15274460D02*
X16048753Y-15283984D01*
X16048753Y-15283984D02*
X16039229Y-15274460D01*
X16039229Y-15274460D02*
X16048753Y-15264936D01*
X16048753Y-15264936D02*
X16048753Y-15283984D01*
X16124943Y-15083984D02*
X16248753Y-15083984D01*
X16248753Y-15083984D02*
X16182086Y-15160174D01*
X16182086Y-15160174D02*
X16210658Y-15160174D01*
X16210658Y-15160174D02*
X16229705Y-15169698D01*
X16229705Y-15169698D02*
X16239229Y-15179222D01*
X16239229Y-15179222D02*
X16248753Y-15198269D01*
X16248753Y-15198269D02*
X16248753Y-15245888D01*
X16248753Y-15245888D02*
X16239229Y-15264936D01*
X16239229Y-15264936D02*
X16229705Y-15274460D01*
X16229705Y-15274460D02*
X16210658Y-15283984D01*
X16210658Y-15283984D02*
X16153515Y-15283984D01*
X16153515Y-15283984D02*
X16134467Y-15274460D01*
X16134467Y-15274460D02*
X16124943Y-15264936D01*
X16372562Y-15083984D02*
X16391610Y-15083984D01*
X16391610Y-15083984D02*
X16410658Y-15093508D01*
X16410658Y-15093508D02*
X16420182Y-15103031D01*
X16420182Y-15103031D02*
X16429705Y-15122079D01*
X16429705Y-15122079D02*
X16439229Y-15160174D01*
X16439229Y-15160174D02*
X16439229Y-15207793D01*
X16439229Y-15207793D02*
X16429705Y-15245888D01*
X16429705Y-15245888D02*
X16420182Y-15264936D01*
X16420182Y-15264936D02*
X16410658Y-15274460D01*
X16410658Y-15274460D02*
X16391610Y-15283984D01*
X16391610Y-15283984D02*
X16372562Y-15283984D01*
X16372562Y-15283984D02*
X16353515Y-15274460D01*
X16353515Y-15274460D02*
X16343991Y-15264936D01*
X16343991Y-15264936D02*
X16334467Y-15245888D01*
X16334467Y-15245888D02*
X16324943Y-15207793D01*
X16324943Y-15207793D02*
X16324943Y-15160174D01*
X16324943Y-15160174D02*
X16334467Y-15122079D01*
X16334467Y-15122079D02*
X16343991Y-15103031D01*
X16343991Y-15103031D02*
X16353515Y-15093508D01*
X16353515Y-15093508D02*
X16372562Y-15083984D01*
X16563039Y-15083984D02*
X16582086Y-15083984D01*
X16582086Y-15083984D02*
X16601134Y-15093508D01*
X16601134Y-15093508D02*
X16610658Y-15103031D01*
X16610658Y-15103031D02*
X16620182Y-15122079D01*
X16620182Y-15122079D02*
X16629705Y-15160174D01*
X16629705Y-15160174D02*
X16629705Y-15207793D01*
X16629705Y-15207793D02*
X16620182Y-15245888D01*
X16620182Y-15245888D02*
X16610658Y-15264936D01*
X16610658Y-15264936D02*
X16601134Y-15274460D01*
X16601134Y-15274460D02*
X16582086Y-15283984D01*
X16582086Y-15283984D02*
X16563039Y-15283984D01*
X16563039Y-15283984D02*
X16543991Y-15274460D01*
X16543991Y-15274460D02*
X16534467Y-15264936D01*
X16534467Y-15264936D02*
X16524943Y-15245888D01*
X16524943Y-15245888D02*
X16515420Y-15207793D01*
X16515420Y-15207793D02*
X16515420Y-15160174D01*
X16515420Y-15160174D02*
X16524943Y-15122079D01*
X16524943Y-15122079D02*
X16534467Y-15103031D01*
X16534467Y-15103031D02*
X16543991Y-15093508D01*
X16543991Y-15093508D02*
X16563039Y-15083984D01*
X16715420Y-15283984D02*
X16715420Y-15150650D01*
X16715420Y-15169698D02*
X16724943Y-15160174D01*
X16724943Y-15160174D02*
X16743991Y-15150650D01*
X16743991Y-15150650D02*
X16772563Y-15150650D01*
X16772563Y-15150650D02*
X16791610Y-15160174D01*
X16791610Y-15160174D02*
X16801134Y-15179222D01*
X16801134Y-15179222D02*
X16801134Y-15283984D01*
X16801134Y-15179222D02*
X16810658Y-15160174D01*
X16810658Y-15160174D02*
X16829705Y-15150650D01*
X16829705Y-15150650D02*
X16858277Y-15150650D01*
X16858277Y-15150650D02*
X16877325Y-15160174D01*
X16877325Y-15160174D02*
X16886848Y-15179222D01*
X16886848Y-15179222D02*
X16886848Y-15283984D01*
X16982086Y-15283984D02*
X16982086Y-15150650D01*
X16982086Y-15169698D02*
X16991610Y-15160174D01*
X16991610Y-15160174D02*
X17010658Y-15150650D01*
X17010658Y-15150650D02*
X17039229Y-15150650D01*
X17039229Y-15150650D02*
X17058277Y-15160174D01*
X17058277Y-15160174D02*
X17067801Y-15179222D01*
X17067801Y-15179222D02*
X17067801Y-15283984D01*
X17067801Y-15179222D02*
X17077325Y-15160174D01*
X17077325Y-15160174D02*
X17096372Y-15150650D01*
X17096372Y-15150650D02*
X17124944Y-15150650D01*
X17124944Y-15150650D02*
X17143991Y-15160174D01*
X17143991Y-15160174D02*
X17153515Y-15179222D01*
X17153515Y-15179222D02*
X17153515Y-15283984D01*
X17543991Y-15074460D02*
X17372563Y-15331603D01*
X17801134Y-15083984D02*
X17820182Y-15083984D01*
X17820182Y-15083984D02*
X17839229Y-15093508D01*
X17839229Y-15093508D02*
X17848753Y-15103031D01*
X17848753Y-15103031D02*
X17858277Y-15122079D01*
X17858277Y-15122079D02*
X17867801Y-15160174D01*
X17867801Y-15160174D02*
X17867801Y-15207793D01*
X17867801Y-15207793D02*
X17858277Y-15245888D01*
X17858277Y-15245888D02*
X17848753Y-15264936D01*
X17848753Y-15264936D02*
X17839229Y-15274460D01*
X17839229Y-15274460D02*
X17820182Y-15283984D01*
X17820182Y-15283984D02*
X17801134Y-15283984D01*
X17801134Y-15283984D02*
X17782087Y-15274460D01*
X17782087Y-15274460D02*
X17772563Y-15264936D01*
X17772563Y-15264936D02*
X17763039Y-15245888D01*
X17763039Y-15245888D02*
X17753515Y-15207793D01*
X17753515Y-15207793D02*
X17753515Y-15160174D01*
X17753515Y-15160174D02*
X17763039Y-15122079D01*
X17763039Y-15122079D02*
X17772563Y-15103031D01*
X17772563Y-15103031D02*
X17782087Y-15093508D01*
X17782087Y-15093508D02*
X17801134Y-15083984D01*
X17953515Y-15264936D02*
X17963039Y-15274460D01*
X17963039Y-15274460D02*
X17953515Y-15283984D01*
X17953515Y-15283984D02*
X17943991Y-15274460D01*
X17943991Y-15274460D02*
X17953515Y-15264936D01*
X17953515Y-15264936D02*
X17953515Y-15283984D01*
X18086848Y-15083984D02*
X18105896Y-15083984D01*
X18105896Y-15083984D02*
X18124944Y-15093508D01*
X18124944Y-15093508D02*
X18134468Y-15103031D01*
X18134468Y-15103031D02*
X18143991Y-15122079D01*
X18143991Y-15122079D02*
X18153515Y-15160174D01*
X18153515Y-15160174D02*
X18153515Y-15207793D01*
X18153515Y-15207793D02*
X18143991Y-15245888D01*
X18143991Y-15245888D02*
X18134468Y-15264936D01*
X18134468Y-15264936D02*
X18124944Y-15274460D01*
X18124944Y-15274460D02*
X18105896Y-15283984D01*
X18105896Y-15283984D02*
X18086848Y-15283984D01*
X18086848Y-15283984D02*
X18067801Y-15274460D01*
X18067801Y-15274460D02*
X18058277Y-15264936D01*
X18058277Y-15264936D02*
X18048753Y-15245888D01*
X18048753Y-15245888D02*
X18039229Y-15207793D01*
X18039229Y-15207793D02*
X18039229Y-15160174D01*
X18039229Y-15160174D02*
X18048753Y-15122079D01*
X18048753Y-15122079D02*
X18058277Y-15103031D01*
X18058277Y-15103031D02*
X18067801Y-15093508D01*
X18067801Y-15093508D02*
X18086848Y-15083984D01*
X18343991Y-15283984D02*
X18229706Y-15283984D01*
X18286848Y-15283984D02*
X18286848Y-15083984D01*
X18286848Y-15083984D02*
X18267801Y-15112555D01*
X18267801Y-15112555D02*
X18248753Y-15131603D01*
X18248753Y-15131603D02*
X18229706Y-15141127D01*
X18534468Y-15283984D02*
X18420182Y-15283984D01*
X18477325Y-15283984D02*
X18477325Y-15083984D01*
X18477325Y-15083984D02*
X18458277Y-15112555D01*
X18458277Y-15112555D02*
X18439229Y-15131603D01*
X18439229Y-15131603D02*
X18420182Y-15141127D01*
X18648753Y-15169698D02*
X18629706Y-15160174D01*
X18629706Y-15160174D02*
X18620182Y-15150650D01*
X18620182Y-15150650D02*
X18610658Y-15131603D01*
X18610658Y-15131603D02*
X18610658Y-15122079D01*
X18610658Y-15122079D02*
X18620182Y-15103031D01*
X18620182Y-15103031D02*
X18629706Y-15093508D01*
X18629706Y-15093508D02*
X18648753Y-15083984D01*
X18648753Y-15083984D02*
X18686849Y-15083984D01*
X18686849Y-15083984D02*
X18705896Y-15093508D01*
X18705896Y-15093508D02*
X18715420Y-15103031D01*
X18715420Y-15103031D02*
X18724944Y-15122079D01*
X18724944Y-15122079D02*
X18724944Y-15131603D01*
X18724944Y-15131603D02*
X18715420Y-15150650D01*
X18715420Y-15150650D02*
X18705896Y-15160174D01*
X18705896Y-15160174D02*
X18686849Y-15169698D01*
X18686849Y-15169698D02*
X18648753Y-15169698D01*
X18648753Y-15169698D02*
X18629706Y-15179222D01*
X18629706Y-15179222D02*
X18620182Y-15188746D01*
X18620182Y-15188746D02*
X18610658Y-15207793D01*
X18610658Y-15207793D02*
X18610658Y-15245888D01*
X18610658Y-15245888D02*
X18620182Y-15264936D01*
X18620182Y-15264936D02*
X18629706Y-15274460D01*
X18629706Y-15274460D02*
X18648753Y-15283984D01*
X18648753Y-15283984D02*
X18686849Y-15283984D01*
X18686849Y-15283984D02*
X18705896Y-15274460D01*
X18705896Y-15274460D02*
X18715420Y-15264936D01*
X18715420Y-15264936D02*
X18724944Y-15245888D01*
X18724944Y-15245888D02*
X18724944Y-15207793D01*
X18724944Y-15207793D02*
X18715420Y-15188746D01*
X18715420Y-15188746D02*
X18705896Y-15179222D01*
X18705896Y-15179222D02*
X18686849Y-15169698D01*
X18801134Y-15083984D02*
X18801134Y-15122079D01*
X18877325Y-15083984D02*
X18877325Y-15122079D01*
X19172563Y-15360174D02*
X19163039Y-15350650D01*
X19163039Y-15350650D02*
X19143991Y-15322079D01*
X19143991Y-15322079D02*
X19134468Y-15303031D01*
X19134468Y-15303031D02*
X19124944Y-15274460D01*
X19124944Y-15274460D02*
X19115420Y-15226841D01*
X19115420Y-15226841D02*
X19115420Y-15188746D01*
X19115420Y-15188746D02*
X19124944Y-15141127D01*
X19124944Y-15141127D02*
X19134468Y-15112555D01*
X19134468Y-15112555D02*
X19143991Y-15093508D01*
X19143991Y-15093508D02*
X19163039Y-15064936D01*
X19163039Y-15064936D02*
X19172563Y-15055412D01*
X19353515Y-15283984D02*
X19239230Y-15283984D01*
X19296372Y-15283984D02*
X19296372Y-15083984D01*
X19296372Y-15083984D02*
X19277325Y-15112555D01*
X19277325Y-15112555D02*
X19258277Y-15131603D01*
X19258277Y-15131603D02*
X19239230Y-15141127D01*
X19591611Y-15283984D02*
X19591611Y-15083984D01*
X19677325Y-15283984D02*
X19677325Y-15179222D01*
X19677325Y-15179222D02*
X19667801Y-15160174D01*
X19667801Y-15160174D02*
X19648753Y-15150650D01*
X19648753Y-15150650D02*
X19620182Y-15150650D01*
X19620182Y-15150650D02*
X19601134Y-15160174D01*
X19601134Y-15160174D02*
X19591611Y-15169698D01*
X19801134Y-15283984D02*
X19782087Y-15274460D01*
X19782087Y-15274460D02*
X19772563Y-15264936D01*
X19772563Y-15264936D02*
X19763039Y-15245888D01*
X19763039Y-15245888D02*
X19763039Y-15188746D01*
X19763039Y-15188746D02*
X19772563Y-15169698D01*
X19772563Y-15169698D02*
X19782087Y-15160174D01*
X19782087Y-15160174D02*
X19801134Y-15150650D01*
X19801134Y-15150650D02*
X19829706Y-15150650D01*
X19829706Y-15150650D02*
X19848753Y-15160174D01*
X19848753Y-15160174D02*
X19858277Y-15169698D01*
X19858277Y-15169698D02*
X19867801Y-15188746D01*
X19867801Y-15188746D02*
X19867801Y-15245888D01*
X19867801Y-15245888D02*
X19858277Y-15264936D01*
X19858277Y-15264936D02*
X19848753Y-15274460D01*
X19848753Y-15274460D02*
X19829706Y-15283984D01*
X19829706Y-15283984D02*
X19801134Y-15283984D01*
X19982087Y-15283984D02*
X19963039Y-15274460D01*
X19963039Y-15274460D02*
X19953515Y-15255412D01*
X19953515Y-15255412D02*
X19953515Y-15083984D01*
X20134468Y-15274460D02*
X20115420Y-15283984D01*
X20115420Y-15283984D02*
X20077325Y-15283984D01*
X20077325Y-15283984D02*
X20058277Y-15274460D01*
X20058277Y-15274460D02*
X20048753Y-15255412D01*
X20048753Y-15255412D02*
X20048753Y-15179222D01*
X20048753Y-15179222D02*
X20058277Y-15160174D01*
X20058277Y-15160174D02*
X20077325Y-15150650D01*
X20077325Y-15150650D02*
X20115420Y-15150650D01*
X20115420Y-15150650D02*
X20134468Y-15160174D01*
X20134468Y-15160174D02*
X20143992Y-15179222D01*
X20143992Y-15179222D02*
X20143992Y-15198269D01*
X20143992Y-15198269D02*
X20048753Y-15217317D01*
X20210658Y-15360174D02*
X20220182Y-15350650D01*
X20220182Y-15350650D02*
X20239230Y-15322079D01*
X20239230Y-15322079D02*
X20248753Y-15303031D01*
X20248753Y-15303031D02*
X20258277Y-15274460D01*
X20258277Y-15274460D02*
X20267801Y-15226841D01*
X20267801Y-15226841D02*
X20267801Y-15188746D01*
X20267801Y-15188746D02*
X20258277Y-15141127D01*
X20258277Y-15141127D02*
X20248753Y-15112555D01*
X20248753Y-15112555D02*
X20239230Y-15093508D01*
X20239230Y-15093508D02*
X20220182Y-15064936D01*
X20220182Y-15064936D02*
X20210658Y-15055412D01*
D12*
X15597500Y-15456500D02*
G75*
G02*
X15527500Y-15456500I-35000J0D01*
G01*
X15527500Y-15456500D02*
G75*
G02*
X15597500Y-15456500I35000J0D01*
G01*
D11*
X15896372Y-15347984D02*
X15915420Y-15347984D01*
X15915420Y-15347984D02*
X15934467Y-15357508D01*
X15934467Y-15357508D02*
X15943991Y-15367031D01*
X15943991Y-15367031D02*
X15953515Y-15386079D01*
X15953515Y-15386079D02*
X15963039Y-15424174D01*
X15963039Y-15424174D02*
X15963039Y-15471793D01*
X15963039Y-15471793D02*
X15953515Y-15509888D01*
X15953515Y-15509888D02*
X15943991Y-15528936D01*
X15943991Y-15528936D02*
X15934467Y-15538460D01*
X15934467Y-15538460D02*
X15915420Y-15547984D01*
X15915420Y-15547984D02*
X15896372Y-15547984D01*
X15896372Y-15547984D02*
X15877324Y-15538460D01*
X15877324Y-15538460D02*
X15867801Y-15528936D01*
X15867801Y-15528936D02*
X15858277Y-15509888D01*
X15858277Y-15509888D02*
X15848753Y-15471793D01*
X15848753Y-15471793D02*
X15848753Y-15424174D01*
X15848753Y-15424174D02*
X15858277Y-15386079D01*
X15858277Y-15386079D02*
X15867801Y-15367031D01*
X15867801Y-15367031D02*
X15877324Y-15357508D01*
X15877324Y-15357508D02*
X15896372Y-15347984D01*
X16048753Y-15528936D02*
X16058277Y-15538460D01*
X16058277Y-15538460D02*
X16048753Y-15547984D01*
X16048753Y-15547984D02*
X16039229Y-15538460D01*
X16039229Y-15538460D02*
X16048753Y-15528936D01*
X16048753Y-15528936D02*
X16048753Y-15547984D01*
X16124943Y-15347984D02*
X16258277Y-15347984D01*
X16258277Y-15347984D02*
X16172562Y-15547984D01*
X16372562Y-15347984D02*
X16391610Y-15347984D01*
X16391610Y-15347984D02*
X16410658Y-15357508D01*
X16410658Y-15357508D02*
X16420182Y-15367031D01*
X16420182Y-15367031D02*
X16429705Y-15386079D01*
X16429705Y-15386079D02*
X16439229Y-15424174D01*
X16439229Y-15424174D02*
X16439229Y-15471793D01*
X16439229Y-15471793D02*
X16429705Y-15509888D01*
X16429705Y-15509888D02*
X16420182Y-15528936D01*
X16420182Y-15528936D02*
X16410658Y-15538460D01*
X16410658Y-15538460D02*
X16391610Y-15547984D01*
X16391610Y-15547984D02*
X16372562Y-15547984D01*
X16372562Y-15547984D02*
X16353515Y-15538460D01*
X16353515Y-15538460D02*
X16343991Y-15528936D01*
X16343991Y-15528936D02*
X16334467Y-15509888D01*
X16334467Y-15509888D02*
X16324943Y-15471793D01*
X16324943Y-15471793D02*
X16324943Y-15424174D01*
X16324943Y-15424174D02*
X16334467Y-15386079D01*
X16334467Y-15386079D02*
X16343991Y-15367031D01*
X16343991Y-15367031D02*
X16353515Y-15357508D01*
X16353515Y-15357508D02*
X16372562Y-15347984D01*
X16563039Y-15347984D02*
X16582086Y-15347984D01*
X16582086Y-15347984D02*
X16601134Y-15357508D01*
X16601134Y-15357508D02*
X16610658Y-15367031D01*
X16610658Y-15367031D02*
X16620182Y-15386079D01*
X16620182Y-15386079D02*
X16629705Y-15424174D01*
X16629705Y-15424174D02*
X16629705Y-15471793D01*
X16629705Y-15471793D02*
X16620182Y-15509888D01*
X16620182Y-15509888D02*
X16610658Y-15528936D01*
X16610658Y-15528936D02*
X16601134Y-15538460D01*
X16601134Y-15538460D02*
X16582086Y-15547984D01*
X16582086Y-15547984D02*
X16563039Y-15547984D01*
X16563039Y-15547984D02*
X16543991Y-15538460D01*
X16543991Y-15538460D02*
X16534467Y-15528936D01*
X16534467Y-15528936D02*
X16524943Y-15509888D01*
X16524943Y-15509888D02*
X16515420Y-15471793D01*
X16515420Y-15471793D02*
X16515420Y-15424174D01*
X16515420Y-15424174D02*
X16524943Y-15386079D01*
X16524943Y-15386079D02*
X16534467Y-15367031D01*
X16534467Y-15367031D02*
X16543991Y-15357508D01*
X16543991Y-15357508D02*
X16563039Y-15347984D01*
X16715420Y-15547984D02*
X16715420Y-15414650D01*
X16715420Y-15433698D02*
X16724943Y-15424174D01*
X16724943Y-15424174D02*
X16743991Y-15414650D01*
X16743991Y-15414650D02*
X16772563Y-15414650D01*
X16772563Y-15414650D02*
X16791610Y-15424174D01*
X16791610Y-15424174D02*
X16801134Y-15443222D01*
X16801134Y-15443222D02*
X16801134Y-15547984D01*
X16801134Y-15443222D02*
X16810658Y-15424174D01*
X16810658Y-15424174D02*
X16829705Y-15414650D01*
X16829705Y-15414650D02*
X16858277Y-15414650D01*
X16858277Y-15414650D02*
X16877325Y-15424174D01*
X16877325Y-15424174D02*
X16886848Y-15443222D01*
X16886848Y-15443222D02*
X16886848Y-15547984D01*
X16982086Y-15547984D02*
X16982086Y-15414650D01*
X16982086Y-15433698D02*
X16991610Y-15424174D01*
X16991610Y-15424174D02*
X17010658Y-15414650D01*
X17010658Y-15414650D02*
X17039229Y-15414650D01*
X17039229Y-15414650D02*
X17058277Y-15424174D01*
X17058277Y-15424174D02*
X17067801Y-15443222D01*
X17067801Y-15443222D02*
X17067801Y-15547984D01*
X17067801Y-15443222D02*
X17077325Y-15424174D01*
X17077325Y-15424174D02*
X17096372Y-15414650D01*
X17096372Y-15414650D02*
X17124944Y-15414650D01*
X17124944Y-15414650D02*
X17143991Y-15424174D01*
X17143991Y-15424174D02*
X17153515Y-15443222D01*
X17153515Y-15443222D02*
X17153515Y-15547984D01*
X17543991Y-15338460D02*
X17372563Y-15595603D01*
X17801134Y-15347984D02*
X17820182Y-15347984D01*
X17820182Y-15347984D02*
X17839229Y-15357508D01*
X17839229Y-15357508D02*
X17848753Y-15367031D01*
X17848753Y-15367031D02*
X17858277Y-15386079D01*
X17858277Y-15386079D02*
X17867801Y-15424174D01*
X17867801Y-15424174D02*
X17867801Y-15471793D01*
X17867801Y-15471793D02*
X17858277Y-15509888D01*
X17858277Y-15509888D02*
X17848753Y-15528936D01*
X17848753Y-15528936D02*
X17839229Y-15538460D01*
X17839229Y-15538460D02*
X17820182Y-15547984D01*
X17820182Y-15547984D02*
X17801134Y-15547984D01*
X17801134Y-15547984D02*
X17782087Y-15538460D01*
X17782087Y-15538460D02*
X17772563Y-15528936D01*
X17772563Y-15528936D02*
X17763039Y-15509888D01*
X17763039Y-15509888D02*
X17753515Y-15471793D01*
X17753515Y-15471793D02*
X17753515Y-15424174D01*
X17753515Y-15424174D02*
X17763039Y-15386079D01*
X17763039Y-15386079D02*
X17772563Y-15367031D01*
X17772563Y-15367031D02*
X17782087Y-15357508D01*
X17782087Y-15357508D02*
X17801134Y-15347984D01*
X17953515Y-15528936D02*
X17963039Y-15538460D01*
X17963039Y-15538460D02*
X17953515Y-15547984D01*
X17953515Y-15547984D02*
X17943991Y-15538460D01*
X17943991Y-15538460D02*
X17953515Y-15528936D01*
X17953515Y-15528936D02*
X17953515Y-15547984D01*
X18086848Y-15347984D02*
X18105896Y-15347984D01*
X18105896Y-15347984D02*
X18124944Y-15357508D01*
X18124944Y-15357508D02*
X18134468Y-15367031D01*
X18134468Y-15367031D02*
X18143991Y-15386079D01*
X18143991Y-15386079D02*
X18153515Y-15424174D01*
X18153515Y-15424174D02*
X18153515Y-15471793D01*
X18153515Y-15471793D02*
X18143991Y-15509888D01*
X18143991Y-15509888D02*
X18134468Y-15528936D01*
X18134468Y-15528936D02*
X18124944Y-15538460D01*
X18124944Y-15538460D02*
X18105896Y-15547984D01*
X18105896Y-15547984D02*
X18086848Y-15547984D01*
X18086848Y-15547984D02*
X18067801Y-15538460D01*
X18067801Y-15538460D02*
X18058277Y-15528936D01*
X18058277Y-15528936D02*
X18048753Y-15509888D01*
X18048753Y-15509888D02*
X18039229Y-15471793D01*
X18039229Y-15471793D02*
X18039229Y-15424174D01*
X18039229Y-15424174D02*
X18048753Y-15386079D01*
X18048753Y-15386079D02*
X18058277Y-15367031D01*
X18058277Y-15367031D02*
X18067801Y-15357508D01*
X18067801Y-15357508D02*
X18086848Y-15347984D01*
X18229706Y-15367031D02*
X18239229Y-15357508D01*
X18239229Y-15357508D02*
X18258277Y-15347984D01*
X18258277Y-15347984D02*
X18305896Y-15347984D01*
X18305896Y-15347984D02*
X18324944Y-15357508D01*
X18324944Y-15357508D02*
X18334468Y-15367031D01*
X18334468Y-15367031D02*
X18343991Y-15386079D01*
X18343991Y-15386079D02*
X18343991Y-15405127D01*
X18343991Y-15405127D02*
X18334468Y-15433698D01*
X18334468Y-15433698D02*
X18220182Y-15547984D01*
X18220182Y-15547984D02*
X18343991Y-15547984D01*
X18410658Y-15347984D02*
X18543991Y-15347984D01*
X18543991Y-15347984D02*
X18458277Y-15547984D01*
X18705896Y-15347984D02*
X18667801Y-15347984D01*
X18667801Y-15347984D02*
X18648753Y-15357508D01*
X18648753Y-15357508D02*
X18639229Y-15367031D01*
X18639229Y-15367031D02*
X18620182Y-15395603D01*
X18620182Y-15395603D02*
X18610658Y-15433698D01*
X18610658Y-15433698D02*
X18610658Y-15509888D01*
X18610658Y-15509888D02*
X18620182Y-15528936D01*
X18620182Y-15528936D02*
X18629706Y-15538460D01*
X18629706Y-15538460D02*
X18648753Y-15547984D01*
X18648753Y-15547984D02*
X18686849Y-15547984D01*
X18686849Y-15547984D02*
X18705896Y-15538460D01*
X18705896Y-15538460D02*
X18715420Y-15528936D01*
X18715420Y-15528936D02*
X18724944Y-15509888D01*
X18724944Y-15509888D02*
X18724944Y-15462269D01*
X18724944Y-15462269D02*
X18715420Y-15443222D01*
X18715420Y-15443222D02*
X18705896Y-15433698D01*
X18705896Y-15433698D02*
X18686849Y-15424174D01*
X18686849Y-15424174D02*
X18648753Y-15424174D01*
X18648753Y-15424174D02*
X18629706Y-15433698D01*
X18629706Y-15433698D02*
X18620182Y-15443222D01*
X18620182Y-15443222D02*
X18610658Y-15462269D01*
X18801134Y-15347984D02*
X18801134Y-15386079D01*
X18877325Y-15347984D02*
X18877325Y-15386079D01*
X19172563Y-15624174D02*
X19163039Y-15614650D01*
X19163039Y-15614650D02*
X19143991Y-15586079D01*
X19143991Y-15586079D02*
X19134468Y-15567031D01*
X19134468Y-15567031D02*
X19124944Y-15538460D01*
X19124944Y-15538460D02*
X19115420Y-15490841D01*
X19115420Y-15490841D02*
X19115420Y-15452746D01*
X19115420Y-15452746D02*
X19124944Y-15405127D01*
X19124944Y-15405127D02*
X19134468Y-15376555D01*
X19134468Y-15376555D02*
X19143991Y-15357508D01*
X19143991Y-15357508D02*
X19163039Y-15328936D01*
X19163039Y-15328936D02*
X19172563Y-15319412D01*
X19229706Y-15347984D02*
X19353515Y-15347984D01*
X19353515Y-15347984D02*
X19286849Y-15424174D01*
X19286849Y-15424174D02*
X19315420Y-15424174D01*
X19315420Y-15424174D02*
X19334468Y-15433698D01*
X19334468Y-15433698D02*
X19343991Y-15443222D01*
X19343991Y-15443222D02*
X19353515Y-15462269D01*
X19353515Y-15462269D02*
X19353515Y-15509888D01*
X19353515Y-15509888D02*
X19343991Y-15528936D01*
X19343991Y-15528936D02*
X19334468Y-15538460D01*
X19334468Y-15538460D02*
X19315420Y-15547984D01*
X19315420Y-15547984D02*
X19258277Y-15547984D01*
X19258277Y-15547984D02*
X19239230Y-15538460D01*
X19239230Y-15538460D02*
X19229706Y-15528936D01*
X19591611Y-15547984D02*
X19591611Y-15347984D01*
X19677325Y-15547984D02*
X19677325Y-15443222D01*
X19677325Y-15443222D02*
X19667801Y-15424174D01*
X19667801Y-15424174D02*
X19648753Y-15414650D01*
X19648753Y-15414650D02*
X19620182Y-15414650D01*
X19620182Y-15414650D02*
X19601134Y-15424174D01*
X19601134Y-15424174D02*
X19591611Y-15433698D01*
X19801134Y-15547984D02*
X19782087Y-15538460D01*
X19782087Y-15538460D02*
X19772563Y-15528936D01*
X19772563Y-15528936D02*
X19763039Y-15509888D01*
X19763039Y-15509888D02*
X19763039Y-15452746D01*
X19763039Y-15452746D02*
X19772563Y-15433698D01*
X19772563Y-15433698D02*
X19782087Y-15424174D01*
X19782087Y-15424174D02*
X19801134Y-15414650D01*
X19801134Y-15414650D02*
X19829706Y-15414650D01*
X19829706Y-15414650D02*
X19848753Y-15424174D01*
X19848753Y-15424174D02*
X19858277Y-15433698D01*
X19858277Y-15433698D02*
X19867801Y-15452746D01*
X19867801Y-15452746D02*
X19867801Y-15509888D01*
X19867801Y-15509888D02*
X19858277Y-15528936D01*
X19858277Y-15528936D02*
X19848753Y-15538460D01*
X19848753Y-15538460D02*
X19829706Y-15547984D01*
X19829706Y-15547984D02*
X19801134Y-15547984D01*
X19982087Y-15547984D02*
X19963039Y-15538460D01*
X19963039Y-15538460D02*
X19953515Y-15519412D01*
X19953515Y-15519412D02*
X19953515Y-15347984D01*
X20134468Y-15538460D02*
X20115420Y-15547984D01*
X20115420Y-15547984D02*
X20077325Y-15547984D01*
X20077325Y-15547984D02*
X20058277Y-15538460D01*
X20058277Y-15538460D02*
X20048753Y-15519412D01*
X20048753Y-15519412D02*
X20048753Y-15443222D01*
X20048753Y-15443222D02*
X20058277Y-15424174D01*
X20058277Y-15424174D02*
X20077325Y-15414650D01*
X20077325Y-15414650D02*
X20115420Y-15414650D01*
X20115420Y-15414650D02*
X20134468Y-15424174D01*
X20134468Y-15424174D02*
X20143992Y-15443222D01*
X20143992Y-15443222D02*
X20143992Y-15462269D01*
X20143992Y-15462269D02*
X20048753Y-15481317D01*
X20220182Y-15538460D02*
X20239230Y-15547984D01*
X20239230Y-15547984D02*
X20277325Y-15547984D01*
X20277325Y-15547984D02*
X20296373Y-15538460D01*
X20296373Y-15538460D02*
X20305896Y-15519412D01*
X20305896Y-15519412D02*
X20305896Y-15509888D01*
X20305896Y-15509888D02*
X20296373Y-15490841D01*
X20296373Y-15490841D02*
X20277325Y-15481317D01*
X20277325Y-15481317D02*
X20248753Y-15481317D01*
X20248753Y-15481317D02*
X20229706Y-15471793D01*
X20229706Y-15471793D02*
X20220182Y-15452746D01*
X20220182Y-15452746D02*
X20220182Y-15443222D01*
X20220182Y-15443222D02*
X20229706Y-15424174D01*
X20229706Y-15424174D02*
X20248753Y-15414650D01*
X20248753Y-15414650D02*
X20277325Y-15414650D01*
X20277325Y-15414650D02*
X20296373Y-15424174D01*
X20372563Y-15624174D02*
X20382087Y-15614650D01*
X20382087Y-15614650D02*
X20401134Y-15586079D01*
X20401134Y-15586079D02*
X20410658Y-15567031D01*
X20410658Y-15567031D02*
X20420182Y-15538460D01*
X20420182Y-15538460D02*
X20429706Y-15490841D01*
X20429706Y-15490841D02*
X20429706Y-15452746D01*
X20429706Y-15452746D02*
X20420182Y-15405127D01*
X20420182Y-15405127D02*
X20410658Y-15376555D01*
X20410658Y-15376555D02*
X20401134Y-15357508D01*
X20401134Y-15357508D02*
X20382087Y-15328936D01*
X20382087Y-15328936D02*
X20372563Y-15319412D01*
D12*
X15559400Y-15682400D02*
X15559400Y-15758600D01*
X15521300Y-15720500D02*
X15597500Y-15720500D01*
D11*
X15896372Y-15611984D02*
X15915420Y-15611984D01*
X15915420Y-15611984D02*
X15934467Y-15621508D01*
X15934467Y-15621508D02*
X15943991Y-15631031D01*
X15943991Y-15631031D02*
X15953515Y-15650079D01*
X15953515Y-15650079D02*
X15963039Y-15688174D01*
X15963039Y-15688174D02*
X15963039Y-15735793D01*
X15963039Y-15735793D02*
X15953515Y-15773888D01*
X15953515Y-15773888D02*
X15943991Y-15792936D01*
X15943991Y-15792936D02*
X15934467Y-15802460D01*
X15934467Y-15802460D02*
X15915420Y-15811984D01*
X15915420Y-15811984D02*
X15896372Y-15811984D01*
X15896372Y-15811984D02*
X15877324Y-15802460D01*
X15877324Y-15802460D02*
X15867801Y-15792936D01*
X15867801Y-15792936D02*
X15858277Y-15773888D01*
X15858277Y-15773888D02*
X15848753Y-15735793D01*
X15848753Y-15735793D02*
X15848753Y-15688174D01*
X15848753Y-15688174D02*
X15858277Y-15650079D01*
X15858277Y-15650079D02*
X15867801Y-15631031D01*
X15867801Y-15631031D02*
X15877324Y-15621508D01*
X15877324Y-15621508D02*
X15896372Y-15611984D01*
X16048753Y-15792936D02*
X16058277Y-15802460D01*
X16058277Y-15802460D02*
X16048753Y-15811984D01*
X16048753Y-15811984D02*
X16039229Y-15802460D01*
X16039229Y-15802460D02*
X16048753Y-15792936D01*
X16048753Y-15792936D02*
X16048753Y-15811984D01*
X16124943Y-15611984D02*
X16258277Y-15611984D01*
X16258277Y-15611984D02*
X16172562Y-15811984D01*
X16420182Y-15611984D02*
X16382086Y-15611984D01*
X16382086Y-15611984D02*
X16363039Y-15621508D01*
X16363039Y-15621508D02*
X16353515Y-15631031D01*
X16353515Y-15631031D02*
X16334467Y-15659603D01*
X16334467Y-15659603D02*
X16324943Y-15697698D01*
X16324943Y-15697698D02*
X16324943Y-15773888D01*
X16324943Y-15773888D02*
X16334467Y-15792936D01*
X16334467Y-15792936D02*
X16343991Y-15802460D01*
X16343991Y-15802460D02*
X16363039Y-15811984D01*
X16363039Y-15811984D02*
X16401134Y-15811984D01*
X16401134Y-15811984D02*
X16420182Y-15802460D01*
X16420182Y-15802460D02*
X16429705Y-15792936D01*
X16429705Y-15792936D02*
X16439229Y-15773888D01*
X16439229Y-15773888D02*
X16439229Y-15726269D01*
X16439229Y-15726269D02*
X16429705Y-15707222D01*
X16429705Y-15707222D02*
X16420182Y-15697698D01*
X16420182Y-15697698D02*
X16401134Y-15688174D01*
X16401134Y-15688174D02*
X16363039Y-15688174D01*
X16363039Y-15688174D02*
X16343991Y-15697698D01*
X16343991Y-15697698D02*
X16334467Y-15707222D01*
X16334467Y-15707222D02*
X16324943Y-15726269D01*
X16515420Y-15631031D02*
X16524943Y-15621508D01*
X16524943Y-15621508D02*
X16543991Y-15611984D01*
X16543991Y-15611984D02*
X16591610Y-15611984D01*
X16591610Y-15611984D02*
X16610658Y-15621508D01*
X16610658Y-15621508D02*
X16620182Y-15631031D01*
X16620182Y-15631031D02*
X16629705Y-15650079D01*
X16629705Y-15650079D02*
X16629705Y-15669127D01*
X16629705Y-15669127D02*
X16620182Y-15697698D01*
X16620182Y-15697698D02*
X16505896Y-15811984D01*
X16505896Y-15811984D02*
X16629705Y-15811984D01*
X16715420Y-15811984D02*
X16715420Y-15678650D01*
X16715420Y-15697698D02*
X16724943Y-15688174D01*
X16724943Y-15688174D02*
X16743991Y-15678650D01*
X16743991Y-15678650D02*
X16772563Y-15678650D01*
X16772563Y-15678650D02*
X16791610Y-15688174D01*
X16791610Y-15688174D02*
X16801134Y-15707222D01*
X16801134Y-15707222D02*
X16801134Y-15811984D01*
X16801134Y-15707222D02*
X16810658Y-15688174D01*
X16810658Y-15688174D02*
X16829705Y-15678650D01*
X16829705Y-15678650D02*
X16858277Y-15678650D01*
X16858277Y-15678650D02*
X16877325Y-15688174D01*
X16877325Y-15688174D02*
X16886848Y-15707222D01*
X16886848Y-15707222D02*
X16886848Y-15811984D01*
X16982086Y-15811984D02*
X16982086Y-15678650D01*
X16982086Y-15697698D02*
X16991610Y-15688174D01*
X16991610Y-15688174D02*
X17010658Y-15678650D01*
X17010658Y-15678650D02*
X17039229Y-15678650D01*
X17039229Y-15678650D02*
X17058277Y-15688174D01*
X17058277Y-15688174D02*
X17067801Y-15707222D01*
X17067801Y-15707222D02*
X17067801Y-15811984D01*
X17067801Y-15707222D02*
X17077325Y-15688174D01*
X17077325Y-15688174D02*
X17096372Y-15678650D01*
X17096372Y-15678650D02*
X17124944Y-15678650D01*
X17124944Y-15678650D02*
X17143991Y-15688174D01*
X17143991Y-15688174D02*
X17153515Y-15707222D01*
X17153515Y-15707222D02*
X17153515Y-15811984D01*
X17543991Y-15602460D02*
X17372563Y-15859603D01*
X17801134Y-15611984D02*
X17820182Y-15611984D01*
X17820182Y-15611984D02*
X17839229Y-15621508D01*
X17839229Y-15621508D02*
X17848753Y-15631031D01*
X17848753Y-15631031D02*
X17858277Y-15650079D01*
X17858277Y-15650079D02*
X17867801Y-15688174D01*
X17867801Y-15688174D02*
X17867801Y-15735793D01*
X17867801Y-15735793D02*
X17858277Y-15773888D01*
X17858277Y-15773888D02*
X17848753Y-15792936D01*
X17848753Y-15792936D02*
X17839229Y-15802460D01*
X17839229Y-15802460D02*
X17820182Y-15811984D01*
X17820182Y-15811984D02*
X17801134Y-15811984D01*
X17801134Y-15811984D02*
X17782087Y-15802460D01*
X17782087Y-15802460D02*
X17772563Y-15792936D01*
X17772563Y-15792936D02*
X17763039Y-15773888D01*
X17763039Y-15773888D02*
X17753515Y-15735793D01*
X17753515Y-15735793D02*
X17753515Y-15688174D01*
X17753515Y-15688174D02*
X17763039Y-15650079D01*
X17763039Y-15650079D02*
X17772563Y-15631031D01*
X17772563Y-15631031D02*
X17782087Y-15621508D01*
X17782087Y-15621508D02*
X17801134Y-15611984D01*
X17953515Y-15792936D02*
X17963039Y-15802460D01*
X17963039Y-15802460D02*
X17953515Y-15811984D01*
X17953515Y-15811984D02*
X17943991Y-15802460D01*
X17943991Y-15802460D02*
X17953515Y-15792936D01*
X17953515Y-15792936D02*
X17953515Y-15811984D01*
X18086848Y-15611984D02*
X18105896Y-15611984D01*
X18105896Y-15611984D02*
X18124944Y-15621508D01*
X18124944Y-15621508D02*
X18134468Y-15631031D01*
X18134468Y-15631031D02*
X18143991Y-15650079D01*
X18143991Y-15650079D02*
X18153515Y-15688174D01*
X18153515Y-15688174D02*
X18153515Y-15735793D01*
X18153515Y-15735793D02*
X18143991Y-15773888D01*
X18143991Y-15773888D02*
X18134468Y-15792936D01*
X18134468Y-15792936D02*
X18124944Y-15802460D01*
X18124944Y-15802460D02*
X18105896Y-15811984D01*
X18105896Y-15811984D02*
X18086848Y-15811984D01*
X18086848Y-15811984D02*
X18067801Y-15802460D01*
X18067801Y-15802460D02*
X18058277Y-15792936D01*
X18058277Y-15792936D02*
X18048753Y-15773888D01*
X18048753Y-15773888D02*
X18039229Y-15735793D01*
X18039229Y-15735793D02*
X18039229Y-15688174D01*
X18039229Y-15688174D02*
X18048753Y-15650079D01*
X18048753Y-15650079D02*
X18058277Y-15631031D01*
X18058277Y-15631031D02*
X18067801Y-15621508D01*
X18067801Y-15621508D02*
X18086848Y-15611984D01*
X18220182Y-15611984D02*
X18343991Y-15611984D01*
X18343991Y-15611984D02*
X18277325Y-15688174D01*
X18277325Y-15688174D02*
X18305896Y-15688174D01*
X18305896Y-15688174D02*
X18324944Y-15697698D01*
X18324944Y-15697698D02*
X18334468Y-15707222D01*
X18334468Y-15707222D02*
X18343991Y-15726269D01*
X18343991Y-15726269D02*
X18343991Y-15773888D01*
X18343991Y-15773888D02*
X18334468Y-15792936D01*
X18334468Y-15792936D02*
X18324944Y-15802460D01*
X18324944Y-15802460D02*
X18305896Y-15811984D01*
X18305896Y-15811984D02*
X18248753Y-15811984D01*
X18248753Y-15811984D02*
X18229706Y-15802460D01*
X18229706Y-15802460D02*
X18220182Y-15792936D01*
X18467801Y-15611984D02*
X18486849Y-15611984D01*
X18486849Y-15611984D02*
X18505896Y-15621508D01*
X18505896Y-15621508D02*
X18515420Y-15631031D01*
X18515420Y-15631031D02*
X18524944Y-15650079D01*
X18524944Y-15650079D02*
X18534468Y-15688174D01*
X18534468Y-15688174D02*
X18534468Y-15735793D01*
X18534468Y-15735793D02*
X18524944Y-15773888D01*
X18524944Y-15773888D02*
X18515420Y-15792936D01*
X18515420Y-15792936D02*
X18505896Y-15802460D01*
X18505896Y-15802460D02*
X18486849Y-15811984D01*
X18486849Y-15811984D02*
X18467801Y-15811984D01*
X18467801Y-15811984D02*
X18448753Y-15802460D01*
X18448753Y-15802460D02*
X18439229Y-15792936D01*
X18439229Y-15792936D02*
X18429706Y-15773888D01*
X18429706Y-15773888D02*
X18420182Y-15735793D01*
X18420182Y-15735793D02*
X18420182Y-15688174D01*
X18420182Y-15688174D02*
X18429706Y-15650079D01*
X18429706Y-15650079D02*
X18439229Y-15631031D01*
X18439229Y-15631031D02*
X18448753Y-15621508D01*
X18448753Y-15621508D02*
X18467801Y-15611984D01*
X18658277Y-15611984D02*
X18677325Y-15611984D01*
X18677325Y-15611984D02*
X18696372Y-15621508D01*
X18696372Y-15621508D02*
X18705896Y-15631031D01*
X18705896Y-15631031D02*
X18715420Y-15650079D01*
X18715420Y-15650079D02*
X18724944Y-15688174D01*
X18724944Y-15688174D02*
X18724944Y-15735793D01*
X18724944Y-15735793D02*
X18715420Y-15773888D01*
X18715420Y-15773888D02*
X18705896Y-15792936D01*
X18705896Y-15792936D02*
X18696372Y-15802460D01*
X18696372Y-15802460D02*
X18677325Y-15811984D01*
X18677325Y-15811984D02*
X18658277Y-15811984D01*
X18658277Y-15811984D02*
X18639229Y-15802460D01*
X18639229Y-15802460D02*
X18629706Y-15792936D01*
X18629706Y-15792936D02*
X18620182Y-15773888D01*
X18620182Y-15773888D02*
X18610658Y-15735793D01*
X18610658Y-15735793D02*
X18610658Y-15688174D01*
X18610658Y-15688174D02*
X18620182Y-15650079D01*
X18620182Y-15650079D02*
X18629706Y-15631031D01*
X18629706Y-15631031D02*
X18639229Y-15621508D01*
X18639229Y-15621508D02*
X18658277Y-15611984D01*
X18801134Y-15611984D02*
X18801134Y-15650079D01*
X18877325Y-15611984D02*
X18877325Y-15650079D01*
X19172563Y-15888174D02*
X19163039Y-15878650D01*
X19163039Y-15878650D02*
X19143991Y-15850079D01*
X19143991Y-15850079D02*
X19134468Y-15831031D01*
X19134468Y-15831031D02*
X19124944Y-15802460D01*
X19124944Y-15802460D02*
X19115420Y-15754841D01*
X19115420Y-15754841D02*
X19115420Y-15716746D01*
X19115420Y-15716746D02*
X19124944Y-15669127D01*
X19124944Y-15669127D02*
X19134468Y-15640555D01*
X19134468Y-15640555D02*
X19143991Y-15621508D01*
X19143991Y-15621508D02*
X19163039Y-15592936D01*
X19163039Y-15592936D02*
X19172563Y-15583412D01*
X19353515Y-15811984D02*
X19239230Y-15811984D01*
X19296372Y-15811984D02*
X19296372Y-15611984D01*
X19296372Y-15611984D02*
X19277325Y-15640555D01*
X19277325Y-15640555D02*
X19258277Y-15659603D01*
X19258277Y-15659603D02*
X19239230Y-15669127D01*
X19591611Y-15811984D02*
X19591611Y-15611984D01*
X19677325Y-15811984D02*
X19677325Y-15707222D01*
X19677325Y-15707222D02*
X19667801Y-15688174D01*
X19667801Y-15688174D02*
X19648753Y-15678650D01*
X19648753Y-15678650D02*
X19620182Y-15678650D01*
X19620182Y-15678650D02*
X19601134Y-15688174D01*
X19601134Y-15688174D02*
X19591611Y-15697698D01*
X19801134Y-15811984D02*
X19782087Y-15802460D01*
X19782087Y-15802460D02*
X19772563Y-15792936D01*
X19772563Y-15792936D02*
X19763039Y-15773888D01*
X19763039Y-15773888D02*
X19763039Y-15716746D01*
X19763039Y-15716746D02*
X19772563Y-15697698D01*
X19772563Y-15697698D02*
X19782087Y-15688174D01*
X19782087Y-15688174D02*
X19801134Y-15678650D01*
X19801134Y-15678650D02*
X19829706Y-15678650D01*
X19829706Y-15678650D02*
X19848753Y-15688174D01*
X19848753Y-15688174D02*
X19858277Y-15697698D01*
X19858277Y-15697698D02*
X19867801Y-15716746D01*
X19867801Y-15716746D02*
X19867801Y-15773888D01*
X19867801Y-15773888D02*
X19858277Y-15792936D01*
X19858277Y-15792936D02*
X19848753Y-15802460D01*
X19848753Y-15802460D02*
X19829706Y-15811984D01*
X19829706Y-15811984D02*
X19801134Y-15811984D01*
X19982087Y-15811984D02*
X19963039Y-15802460D01*
X19963039Y-15802460D02*
X19953515Y-15783412D01*
X19953515Y-15783412D02*
X19953515Y-15611984D01*
X20134468Y-15802460D02*
X20115420Y-15811984D01*
X20115420Y-15811984D02*
X20077325Y-15811984D01*
X20077325Y-15811984D02*
X20058277Y-15802460D01*
X20058277Y-15802460D02*
X20048753Y-15783412D01*
X20048753Y-15783412D02*
X20048753Y-15707222D01*
X20048753Y-15707222D02*
X20058277Y-15688174D01*
X20058277Y-15688174D02*
X20077325Y-15678650D01*
X20077325Y-15678650D02*
X20115420Y-15678650D01*
X20115420Y-15678650D02*
X20134468Y-15688174D01*
X20134468Y-15688174D02*
X20143992Y-15707222D01*
X20143992Y-15707222D02*
X20143992Y-15726269D01*
X20143992Y-15726269D02*
X20048753Y-15745317D01*
X20210658Y-15888174D02*
X20220182Y-15878650D01*
X20220182Y-15878650D02*
X20239230Y-15850079D01*
X20239230Y-15850079D02*
X20248753Y-15831031D01*
X20248753Y-15831031D02*
X20258277Y-15802460D01*
X20258277Y-15802460D02*
X20267801Y-15754841D01*
X20267801Y-15754841D02*
X20267801Y-15716746D01*
X20267801Y-15716746D02*
X20258277Y-15669127D01*
X20258277Y-15669127D02*
X20248753Y-15640555D01*
X20248753Y-15640555D02*
X20239230Y-15621508D01*
X20239230Y-15621508D02*
X20220182Y-15592936D01*
X20220182Y-15592936D02*
X20210658Y-15583412D01*
D12*
X15582856Y-16019856D02*
X15582856Y-15949144D01*
X15512144Y-15949144D01*
X15512144Y-16019856D01*
X15582856Y-16019856D01*
D11*
X15963039Y-16075984D02*
X15848753Y-16075984D01*
X15905896Y-16075984D02*
X15905896Y-15875984D01*
X15905896Y-15875984D02*
X15886848Y-15904555D01*
X15886848Y-15904555D02*
X15867801Y-15923603D01*
X15867801Y-15923603D02*
X15848753Y-15933127D01*
X16048753Y-16056936D02*
X16058277Y-16066460D01*
X16058277Y-16066460D02*
X16048753Y-16075984D01*
X16048753Y-16075984D02*
X16039229Y-16066460D01*
X16039229Y-16066460D02*
X16048753Y-16056936D01*
X16048753Y-16056936D02*
X16048753Y-16075984D01*
X16182086Y-15875984D02*
X16201134Y-15875984D01*
X16201134Y-15875984D02*
X16220182Y-15885508D01*
X16220182Y-15885508D02*
X16229705Y-15895031D01*
X16229705Y-15895031D02*
X16239229Y-15914079D01*
X16239229Y-15914079D02*
X16248753Y-15952174D01*
X16248753Y-15952174D02*
X16248753Y-15999793D01*
X16248753Y-15999793D02*
X16239229Y-16037888D01*
X16239229Y-16037888D02*
X16229705Y-16056936D01*
X16229705Y-16056936D02*
X16220182Y-16066460D01*
X16220182Y-16066460D02*
X16201134Y-16075984D01*
X16201134Y-16075984D02*
X16182086Y-16075984D01*
X16182086Y-16075984D02*
X16163039Y-16066460D01*
X16163039Y-16066460D02*
X16153515Y-16056936D01*
X16153515Y-16056936D02*
X16143991Y-16037888D01*
X16143991Y-16037888D02*
X16134467Y-15999793D01*
X16134467Y-15999793D02*
X16134467Y-15952174D01*
X16134467Y-15952174D02*
X16143991Y-15914079D01*
X16143991Y-15914079D02*
X16153515Y-15895031D01*
X16153515Y-15895031D02*
X16163039Y-15885508D01*
X16163039Y-15885508D02*
X16182086Y-15875984D01*
X16372562Y-15875984D02*
X16391610Y-15875984D01*
X16391610Y-15875984D02*
X16410658Y-15885508D01*
X16410658Y-15885508D02*
X16420182Y-15895031D01*
X16420182Y-15895031D02*
X16429705Y-15914079D01*
X16429705Y-15914079D02*
X16439229Y-15952174D01*
X16439229Y-15952174D02*
X16439229Y-15999793D01*
X16439229Y-15999793D02*
X16429705Y-16037888D01*
X16429705Y-16037888D02*
X16420182Y-16056936D01*
X16420182Y-16056936D02*
X16410658Y-16066460D01*
X16410658Y-16066460D02*
X16391610Y-16075984D01*
X16391610Y-16075984D02*
X16372562Y-16075984D01*
X16372562Y-16075984D02*
X16353515Y-16066460D01*
X16353515Y-16066460D02*
X16343991Y-16056936D01*
X16343991Y-16056936D02*
X16334467Y-16037888D01*
X16334467Y-16037888D02*
X16324943Y-15999793D01*
X16324943Y-15999793D02*
X16324943Y-15952174D01*
X16324943Y-15952174D02*
X16334467Y-15914079D01*
X16334467Y-15914079D02*
X16343991Y-15895031D01*
X16343991Y-15895031D02*
X16353515Y-15885508D01*
X16353515Y-15885508D02*
X16372562Y-15875984D01*
X16563039Y-15875984D02*
X16582086Y-15875984D01*
X16582086Y-15875984D02*
X16601134Y-15885508D01*
X16601134Y-15885508D02*
X16610658Y-15895031D01*
X16610658Y-15895031D02*
X16620182Y-15914079D01*
X16620182Y-15914079D02*
X16629705Y-15952174D01*
X16629705Y-15952174D02*
X16629705Y-15999793D01*
X16629705Y-15999793D02*
X16620182Y-16037888D01*
X16620182Y-16037888D02*
X16610658Y-16056936D01*
X16610658Y-16056936D02*
X16601134Y-16066460D01*
X16601134Y-16066460D02*
X16582086Y-16075984D01*
X16582086Y-16075984D02*
X16563039Y-16075984D01*
X16563039Y-16075984D02*
X16543991Y-16066460D01*
X16543991Y-16066460D02*
X16534467Y-16056936D01*
X16534467Y-16056936D02*
X16524943Y-16037888D01*
X16524943Y-16037888D02*
X16515420Y-15999793D01*
X16515420Y-15999793D02*
X16515420Y-15952174D01*
X16515420Y-15952174D02*
X16524943Y-15914079D01*
X16524943Y-15914079D02*
X16534467Y-15895031D01*
X16534467Y-15895031D02*
X16543991Y-15885508D01*
X16543991Y-15885508D02*
X16563039Y-15875984D01*
X16715420Y-16075984D02*
X16715420Y-15942650D01*
X16715420Y-15961698D02*
X16724943Y-15952174D01*
X16724943Y-15952174D02*
X16743991Y-15942650D01*
X16743991Y-15942650D02*
X16772563Y-15942650D01*
X16772563Y-15942650D02*
X16791610Y-15952174D01*
X16791610Y-15952174D02*
X16801134Y-15971222D01*
X16801134Y-15971222D02*
X16801134Y-16075984D01*
X16801134Y-15971222D02*
X16810658Y-15952174D01*
X16810658Y-15952174D02*
X16829705Y-15942650D01*
X16829705Y-15942650D02*
X16858277Y-15942650D01*
X16858277Y-15942650D02*
X16877325Y-15952174D01*
X16877325Y-15952174D02*
X16886848Y-15971222D01*
X16886848Y-15971222D02*
X16886848Y-16075984D01*
X16982086Y-16075984D02*
X16982086Y-15942650D01*
X16982086Y-15961698D02*
X16991610Y-15952174D01*
X16991610Y-15952174D02*
X17010658Y-15942650D01*
X17010658Y-15942650D02*
X17039229Y-15942650D01*
X17039229Y-15942650D02*
X17058277Y-15952174D01*
X17058277Y-15952174D02*
X17067801Y-15971222D01*
X17067801Y-15971222D02*
X17067801Y-16075984D01*
X17067801Y-15971222D02*
X17077325Y-15952174D01*
X17077325Y-15952174D02*
X17096372Y-15942650D01*
X17096372Y-15942650D02*
X17124944Y-15942650D01*
X17124944Y-15942650D02*
X17143991Y-15952174D01*
X17143991Y-15952174D02*
X17153515Y-15971222D01*
X17153515Y-15971222D02*
X17153515Y-16075984D01*
X17543991Y-15866460D02*
X17372563Y-16123603D01*
X17801134Y-15875984D02*
X17820182Y-15875984D01*
X17820182Y-15875984D02*
X17839229Y-15885508D01*
X17839229Y-15885508D02*
X17848753Y-15895031D01*
X17848753Y-15895031D02*
X17858277Y-15914079D01*
X17858277Y-15914079D02*
X17867801Y-15952174D01*
X17867801Y-15952174D02*
X17867801Y-15999793D01*
X17867801Y-15999793D02*
X17858277Y-16037888D01*
X17858277Y-16037888D02*
X17848753Y-16056936D01*
X17848753Y-16056936D02*
X17839229Y-16066460D01*
X17839229Y-16066460D02*
X17820182Y-16075984D01*
X17820182Y-16075984D02*
X17801134Y-16075984D01*
X17801134Y-16075984D02*
X17782087Y-16066460D01*
X17782087Y-16066460D02*
X17772563Y-16056936D01*
X17772563Y-16056936D02*
X17763039Y-16037888D01*
X17763039Y-16037888D02*
X17753515Y-15999793D01*
X17753515Y-15999793D02*
X17753515Y-15952174D01*
X17753515Y-15952174D02*
X17763039Y-15914079D01*
X17763039Y-15914079D02*
X17772563Y-15895031D01*
X17772563Y-15895031D02*
X17782087Y-15885508D01*
X17782087Y-15885508D02*
X17801134Y-15875984D01*
X17953515Y-16056936D02*
X17963039Y-16066460D01*
X17963039Y-16066460D02*
X17953515Y-16075984D01*
X17953515Y-16075984D02*
X17943991Y-16066460D01*
X17943991Y-16066460D02*
X17953515Y-16056936D01*
X17953515Y-16056936D02*
X17953515Y-16075984D01*
X18086848Y-15875984D02*
X18105896Y-15875984D01*
X18105896Y-15875984D02*
X18124944Y-15885508D01*
X18124944Y-15885508D02*
X18134468Y-15895031D01*
X18134468Y-15895031D02*
X18143991Y-15914079D01*
X18143991Y-15914079D02*
X18153515Y-15952174D01*
X18153515Y-15952174D02*
X18153515Y-15999793D01*
X18153515Y-15999793D02*
X18143991Y-16037888D01*
X18143991Y-16037888D02*
X18134468Y-16056936D01*
X18134468Y-16056936D02*
X18124944Y-16066460D01*
X18124944Y-16066460D02*
X18105896Y-16075984D01*
X18105896Y-16075984D02*
X18086848Y-16075984D01*
X18086848Y-16075984D02*
X18067801Y-16066460D01*
X18067801Y-16066460D02*
X18058277Y-16056936D01*
X18058277Y-16056936D02*
X18048753Y-16037888D01*
X18048753Y-16037888D02*
X18039229Y-15999793D01*
X18039229Y-15999793D02*
X18039229Y-15952174D01*
X18039229Y-15952174D02*
X18048753Y-15914079D01*
X18048753Y-15914079D02*
X18058277Y-15895031D01*
X18058277Y-15895031D02*
X18067801Y-15885508D01*
X18067801Y-15885508D02*
X18086848Y-15875984D01*
X18220182Y-15875984D02*
X18343991Y-15875984D01*
X18343991Y-15875984D02*
X18277325Y-15952174D01*
X18277325Y-15952174D02*
X18305896Y-15952174D01*
X18305896Y-15952174D02*
X18324944Y-15961698D01*
X18324944Y-15961698D02*
X18334468Y-15971222D01*
X18334468Y-15971222D02*
X18343991Y-15990269D01*
X18343991Y-15990269D02*
X18343991Y-16037888D01*
X18343991Y-16037888D02*
X18334468Y-16056936D01*
X18334468Y-16056936D02*
X18324944Y-16066460D01*
X18324944Y-16066460D02*
X18305896Y-16075984D01*
X18305896Y-16075984D02*
X18248753Y-16075984D01*
X18248753Y-16075984D02*
X18229706Y-16066460D01*
X18229706Y-16066460D02*
X18220182Y-16056936D01*
X18439229Y-16075984D02*
X18477325Y-16075984D01*
X18477325Y-16075984D02*
X18496372Y-16066460D01*
X18496372Y-16066460D02*
X18505896Y-16056936D01*
X18505896Y-16056936D02*
X18524944Y-16028365D01*
X18524944Y-16028365D02*
X18534468Y-15990269D01*
X18534468Y-15990269D02*
X18534468Y-15914079D01*
X18534468Y-15914079D02*
X18524944Y-15895031D01*
X18524944Y-15895031D02*
X18515420Y-15885508D01*
X18515420Y-15885508D02*
X18496372Y-15875984D01*
X18496372Y-15875984D02*
X18458277Y-15875984D01*
X18458277Y-15875984D02*
X18439229Y-15885508D01*
X18439229Y-15885508D02*
X18429706Y-15895031D01*
X18429706Y-15895031D02*
X18420182Y-15914079D01*
X18420182Y-15914079D02*
X18420182Y-15961698D01*
X18420182Y-15961698D02*
X18429706Y-15980746D01*
X18429706Y-15980746D02*
X18439229Y-15990269D01*
X18439229Y-15990269D02*
X18458277Y-15999793D01*
X18458277Y-15999793D02*
X18496372Y-15999793D01*
X18496372Y-15999793D02*
X18515420Y-15990269D01*
X18515420Y-15990269D02*
X18524944Y-15980746D01*
X18524944Y-15980746D02*
X18534468Y-15961698D01*
X18705896Y-15942650D02*
X18705896Y-16075984D01*
X18658277Y-15866460D02*
X18610658Y-16009317D01*
X18610658Y-16009317D02*
X18734468Y-16009317D01*
X18801134Y-15875984D02*
X18801134Y-15914079D01*
X18877325Y-15875984D02*
X18877325Y-15914079D01*
X19172563Y-16152174D02*
X19163039Y-16142650D01*
X19163039Y-16142650D02*
X19143991Y-16114079D01*
X19143991Y-16114079D02*
X19134468Y-16095031D01*
X19134468Y-16095031D02*
X19124944Y-16066460D01*
X19124944Y-16066460D02*
X19115420Y-16018841D01*
X19115420Y-16018841D02*
X19115420Y-15980746D01*
X19115420Y-15980746D02*
X19124944Y-15933127D01*
X19124944Y-15933127D02*
X19134468Y-15904555D01*
X19134468Y-15904555D02*
X19143991Y-15885508D01*
X19143991Y-15885508D02*
X19163039Y-15856936D01*
X19163039Y-15856936D02*
X19172563Y-15847412D01*
X19239230Y-15895031D02*
X19248753Y-15885508D01*
X19248753Y-15885508D02*
X19267801Y-15875984D01*
X19267801Y-15875984D02*
X19315420Y-15875984D01*
X19315420Y-15875984D02*
X19334468Y-15885508D01*
X19334468Y-15885508D02*
X19343991Y-15895031D01*
X19343991Y-15895031D02*
X19353515Y-15914079D01*
X19353515Y-15914079D02*
X19353515Y-15933127D01*
X19353515Y-15933127D02*
X19343991Y-15961698D01*
X19343991Y-15961698D02*
X19229706Y-16075984D01*
X19229706Y-16075984D02*
X19353515Y-16075984D01*
X19524944Y-15875984D02*
X19486849Y-15875984D01*
X19486849Y-15875984D02*
X19467801Y-15885508D01*
X19467801Y-15885508D02*
X19458277Y-15895031D01*
X19458277Y-15895031D02*
X19439230Y-15923603D01*
X19439230Y-15923603D02*
X19429706Y-15961698D01*
X19429706Y-15961698D02*
X19429706Y-16037888D01*
X19429706Y-16037888D02*
X19439230Y-16056936D01*
X19439230Y-16056936D02*
X19448753Y-16066460D01*
X19448753Y-16066460D02*
X19467801Y-16075984D01*
X19467801Y-16075984D02*
X19505896Y-16075984D01*
X19505896Y-16075984D02*
X19524944Y-16066460D01*
X19524944Y-16066460D02*
X19534468Y-16056936D01*
X19534468Y-16056936D02*
X19543991Y-16037888D01*
X19543991Y-16037888D02*
X19543991Y-15990269D01*
X19543991Y-15990269D02*
X19534468Y-15971222D01*
X19534468Y-15971222D02*
X19524944Y-15961698D01*
X19524944Y-15961698D02*
X19505896Y-15952174D01*
X19505896Y-15952174D02*
X19467801Y-15952174D01*
X19467801Y-15952174D02*
X19448753Y-15961698D01*
X19448753Y-15961698D02*
X19439230Y-15971222D01*
X19439230Y-15971222D02*
X19429706Y-15990269D01*
X19715420Y-15942650D02*
X19715420Y-16075984D01*
X19667801Y-15866460D02*
X19620182Y-16009317D01*
X19620182Y-16009317D02*
X19743991Y-16009317D01*
X19972563Y-16075984D02*
X19972563Y-15875984D01*
X20058277Y-16075984D02*
X20058277Y-15971222D01*
X20058277Y-15971222D02*
X20048753Y-15952174D01*
X20048753Y-15952174D02*
X20029706Y-15942650D01*
X20029706Y-15942650D02*
X20001134Y-15942650D01*
X20001134Y-15942650D02*
X19982087Y-15952174D01*
X19982087Y-15952174D02*
X19972563Y-15961698D01*
X20182087Y-16075984D02*
X20163039Y-16066460D01*
X20163039Y-16066460D02*
X20153515Y-16056936D01*
X20153515Y-16056936D02*
X20143992Y-16037888D01*
X20143992Y-16037888D02*
X20143992Y-15980746D01*
X20143992Y-15980746D02*
X20153515Y-15961698D01*
X20153515Y-15961698D02*
X20163039Y-15952174D01*
X20163039Y-15952174D02*
X20182087Y-15942650D01*
X20182087Y-15942650D02*
X20210658Y-15942650D01*
X20210658Y-15942650D02*
X20229706Y-15952174D01*
X20229706Y-15952174D02*
X20239230Y-15961698D01*
X20239230Y-15961698D02*
X20248753Y-15980746D01*
X20248753Y-15980746D02*
X20248753Y-16037888D01*
X20248753Y-16037888D02*
X20239230Y-16056936D01*
X20239230Y-16056936D02*
X20229706Y-16066460D01*
X20229706Y-16066460D02*
X20210658Y-16075984D01*
X20210658Y-16075984D02*
X20182087Y-16075984D01*
X20363039Y-16075984D02*
X20343992Y-16066460D01*
X20343992Y-16066460D02*
X20334468Y-16047412D01*
X20334468Y-16047412D02*
X20334468Y-15875984D01*
X20515420Y-16066460D02*
X20496373Y-16075984D01*
X20496373Y-16075984D02*
X20458277Y-16075984D01*
X20458277Y-16075984D02*
X20439230Y-16066460D01*
X20439230Y-16066460D02*
X20429706Y-16047412D01*
X20429706Y-16047412D02*
X20429706Y-15971222D01*
X20429706Y-15971222D02*
X20439230Y-15952174D01*
X20439230Y-15952174D02*
X20458277Y-15942650D01*
X20458277Y-15942650D02*
X20496373Y-15942650D01*
X20496373Y-15942650D02*
X20515420Y-15952174D01*
X20515420Y-15952174D02*
X20524944Y-15971222D01*
X20524944Y-15971222D02*
X20524944Y-15990269D01*
X20524944Y-15990269D02*
X20429706Y-16009317D01*
X20601134Y-16066460D02*
X20620182Y-16075984D01*
X20620182Y-16075984D02*
X20658277Y-16075984D01*
X20658277Y-16075984D02*
X20677325Y-16066460D01*
X20677325Y-16066460D02*
X20686849Y-16047412D01*
X20686849Y-16047412D02*
X20686849Y-16037888D01*
X20686849Y-16037888D02*
X20677325Y-16018841D01*
X20677325Y-16018841D02*
X20658277Y-16009317D01*
X20658277Y-16009317D02*
X20629706Y-16009317D01*
X20629706Y-16009317D02*
X20610658Y-15999793D01*
X20610658Y-15999793D02*
X20601134Y-15980746D01*
X20601134Y-15980746D02*
X20601134Y-15971222D01*
X20601134Y-15971222D02*
X20610658Y-15952174D01*
X20610658Y-15952174D02*
X20629706Y-15942650D01*
X20629706Y-15942650D02*
X20658277Y-15942650D01*
X20658277Y-15942650D02*
X20677325Y-15952174D01*
X20753515Y-16152174D02*
X20763039Y-16142650D01*
X20763039Y-16142650D02*
X20782087Y-16114079D01*
X20782087Y-16114079D02*
X20791611Y-16095031D01*
X20791611Y-16095031D02*
X20801134Y-16066460D01*
X20801134Y-16066460D02*
X20810658Y-16018841D01*
X20810658Y-16018841D02*
X20810658Y-15980746D01*
X20810658Y-15980746D02*
X20801134Y-15933127D01*
X20801134Y-15933127D02*
X20791611Y-15904555D01*
X20791611Y-15904555D02*
X20782087Y-15885508D01*
X20782087Y-15885508D02*
X20763039Y-15856936D01*
X20763039Y-15856936D02*
X20753515Y-15847412D01*
D13*
X15546700Y-16299300D02*
X15597500Y-16248500D01*
X15546700Y-16197700D01*
X15495900Y-16248500D01*
X15546700Y-16299300D01*
D11*
X15963039Y-16339984D02*
X15848753Y-16339984D01*
X15905896Y-16339984D02*
X15905896Y-16139984D01*
X15905896Y-16139984D02*
X15886848Y-16168555D01*
X15886848Y-16168555D02*
X15867801Y-16187603D01*
X15867801Y-16187603D02*
X15848753Y-16197127D01*
X16048753Y-16320936D02*
X16058277Y-16330460D01*
X16058277Y-16330460D02*
X16048753Y-16339984D01*
X16048753Y-16339984D02*
X16039229Y-16330460D01*
X16039229Y-16330460D02*
X16048753Y-16320936D01*
X16048753Y-16320936D02*
X16048753Y-16339984D01*
X16182086Y-16139984D02*
X16201134Y-16139984D01*
X16201134Y-16139984D02*
X16220182Y-16149508D01*
X16220182Y-16149508D02*
X16229705Y-16159031D01*
X16229705Y-16159031D02*
X16239229Y-16178079D01*
X16239229Y-16178079D02*
X16248753Y-16216174D01*
X16248753Y-16216174D02*
X16248753Y-16263793D01*
X16248753Y-16263793D02*
X16239229Y-16301888D01*
X16239229Y-16301888D02*
X16229705Y-16320936D01*
X16229705Y-16320936D02*
X16220182Y-16330460D01*
X16220182Y-16330460D02*
X16201134Y-16339984D01*
X16201134Y-16339984D02*
X16182086Y-16339984D01*
X16182086Y-16339984D02*
X16163039Y-16330460D01*
X16163039Y-16330460D02*
X16153515Y-16320936D01*
X16153515Y-16320936D02*
X16143991Y-16301888D01*
X16143991Y-16301888D02*
X16134467Y-16263793D01*
X16134467Y-16263793D02*
X16134467Y-16216174D01*
X16134467Y-16216174D02*
X16143991Y-16178079D01*
X16143991Y-16178079D02*
X16153515Y-16159031D01*
X16153515Y-16159031D02*
X16163039Y-16149508D01*
X16163039Y-16149508D02*
X16182086Y-16139984D01*
X16439229Y-16339984D02*
X16324943Y-16339984D01*
X16382086Y-16339984D02*
X16382086Y-16139984D01*
X16382086Y-16139984D02*
X16363039Y-16168555D01*
X16363039Y-16168555D02*
X16343991Y-16187603D01*
X16343991Y-16187603D02*
X16324943Y-16197127D01*
X16610658Y-16139984D02*
X16572562Y-16139984D01*
X16572562Y-16139984D02*
X16553515Y-16149508D01*
X16553515Y-16149508D02*
X16543991Y-16159031D01*
X16543991Y-16159031D02*
X16524943Y-16187603D01*
X16524943Y-16187603D02*
X16515420Y-16225698D01*
X16515420Y-16225698D02*
X16515420Y-16301888D01*
X16515420Y-16301888D02*
X16524943Y-16320936D01*
X16524943Y-16320936D02*
X16534467Y-16330460D01*
X16534467Y-16330460D02*
X16553515Y-16339984D01*
X16553515Y-16339984D02*
X16591610Y-16339984D01*
X16591610Y-16339984D02*
X16610658Y-16330460D01*
X16610658Y-16330460D02*
X16620182Y-16320936D01*
X16620182Y-16320936D02*
X16629705Y-16301888D01*
X16629705Y-16301888D02*
X16629705Y-16254269D01*
X16629705Y-16254269D02*
X16620182Y-16235222D01*
X16620182Y-16235222D02*
X16610658Y-16225698D01*
X16610658Y-16225698D02*
X16591610Y-16216174D01*
X16591610Y-16216174D02*
X16553515Y-16216174D01*
X16553515Y-16216174D02*
X16534467Y-16225698D01*
X16534467Y-16225698D02*
X16524943Y-16235222D01*
X16524943Y-16235222D02*
X16515420Y-16254269D01*
X16715420Y-16339984D02*
X16715420Y-16206650D01*
X16715420Y-16225698D02*
X16724943Y-16216174D01*
X16724943Y-16216174D02*
X16743991Y-16206650D01*
X16743991Y-16206650D02*
X16772563Y-16206650D01*
X16772563Y-16206650D02*
X16791610Y-16216174D01*
X16791610Y-16216174D02*
X16801134Y-16235222D01*
X16801134Y-16235222D02*
X16801134Y-16339984D01*
X16801134Y-16235222D02*
X16810658Y-16216174D01*
X16810658Y-16216174D02*
X16829705Y-16206650D01*
X16829705Y-16206650D02*
X16858277Y-16206650D01*
X16858277Y-16206650D02*
X16877325Y-16216174D01*
X16877325Y-16216174D02*
X16886848Y-16235222D01*
X16886848Y-16235222D02*
X16886848Y-16339984D01*
X16982086Y-16339984D02*
X16982086Y-16206650D01*
X16982086Y-16225698D02*
X16991610Y-16216174D01*
X16991610Y-16216174D02*
X17010658Y-16206650D01*
X17010658Y-16206650D02*
X17039229Y-16206650D01*
X17039229Y-16206650D02*
X17058277Y-16216174D01*
X17058277Y-16216174D02*
X17067801Y-16235222D01*
X17067801Y-16235222D02*
X17067801Y-16339984D01*
X17067801Y-16235222D02*
X17077325Y-16216174D01*
X17077325Y-16216174D02*
X17096372Y-16206650D01*
X17096372Y-16206650D02*
X17124944Y-16206650D01*
X17124944Y-16206650D02*
X17143991Y-16216174D01*
X17143991Y-16216174D02*
X17153515Y-16235222D01*
X17153515Y-16235222D02*
X17153515Y-16339984D01*
X17543991Y-16130460D02*
X17372563Y-16387603D01*
X17801134Y-16139984D02*
X17820182Y-16139984D01*
X17820182Y-16139984D02*
X17839229Y-16149508D01*
X17839229Y-16149508D02*
X17848753Y-16159031D01*
X17848753Y-16159031D02*
X17858277Y-16178079D01*
X17858277Y-16178079D02*
X17867801Y-16216174D01*
X17867801Y-16216174D02*
X17867801Y-16263793D01*
X17867801Y-16263793D02*
X17858277Y-16301888D01*
X17858277Y-16301888D02*
X17848753Y-16320936D01*
X17848753Y-16320936D02*
X17839229Y-16330460D01*
X17839229Y-16330460D02*
X17820182Y-16339984D01*
X17820182Y-16339984D02*
X17801134Y-16339984D01*
X17801134Y-16339984D02*
X17782087Y-16330460D01*
X17782087Y-16330460D02*
X17772563Y-16320936D01*
X17772563Y-16320936D02*
X17763039Y-16301888D01*
X17763039Y-16301888D02*
X17753515Y-16263793D01*
X17753515Y-16263793D02*
X17753515Y-16216174D01*
X17753515Y-16216174D02*
X17763039Y-16178079D01*
X17763039Y-16178079D02*
X17772563Y-16159031D01*
X17772563Y-16159031D02*
X17782087Y-16149508D01*
X17782087Y-16149508D02*
X17801134Y-16139984D01*
X17953515Y-16320936D02*
X17963039Y-16330460D01*
X17963039Y-16330460D02*
X17953515Y-16339984D01*
X17953515Y-16339984D02*
X17943991Y-16330460D01*
X17943991Y-16330460D02*
X17953515Y-16320936D01*
X17953515Y-16320936D02*
X17953515Y-16339984D01*
X18086848Y-16139984D02*
X18105896Y-16139984D01*
X18105896Y-16139984D02*
X18124944Y-16149508D01*
X18124944Y-16149508D02*
X18134468Y-16159031D01*
X18134468Y-16159031D02*
X18143991Y-16178079D01*
X18143991Y-16178079D02*
X18153515Y-16216174D01*
X18153515Y-16216174D02*
X18153515Y-16263793D01*
X18153515Y-16263793D02*
X18143991Y-16301888D01*
X18143991Y-16301888D02*
X18134468Y-16320936D01*
X18134468Y-16320936D02*
X18124944Y-16330460D01*
X18124944Y-16330460D02*
X18105896Y-16339984D01*
X18105896Y-16339984D02*
X18086848Y-16339984D01*
X18086848Y-16339984D02*
X18067801Y-16330460D01*
X18067801Y-16330460D02*
X18058277Y-16320936D01*
X18058277Y-16320936D02*
X18048753Y-16301888D01*
X18048753Y-16301888D02*
X18039229Y-16263793D01*
X18039229Y-16263793D02*
X18039229Y-16216174D01*
X18039229Y-16216174D02*
X18048753Y-16178079D01*
X18048753Y-16178079D02*
X18058277Y-16159031D01*
X18058277Y-16159031D02*
X18067801Y-16149508D01*
X18067801Y-16149508D02*
X18086848Y-16139984D01*
X18324944Y-16206650D02*
X18324944Y-16339984D01*
X18277325Y-16130460D02*
X18229706Y-16273317D01*
X18229706Y-16273317D02*
X18353515Y-16273317D01*
X18467801Y-16139984D02*
X18486849Y-16139984D01*
X18486849Y-16139984D02*
X18505896Y-16149508D01*
X18505896Y-16149508D02*
X18515420Y-16159031D01*
X18515420Y-16159031D02*
X18524944Y-16178079D01*
X18524944Y-16178079D02*
X18534468Y-16216174D01*
X18534468Y-16216174D02*
X18534468Y-16263793D01*
X18534468Y-16263793D02*
X18524944Y-16301888D01*
X18524944Y-16301888D02*
X18515420Y-16320936D01*
X18515420Y-16320936D02*
X18505896Y-16330460D01*
X18505896Y-16330460D02*
X18486849Y-16339984D01*
X18486849Y-16339984D02*
X18467801Y-16339984D01*
X18467801Y-16339984D02*
X18448753Y-16330460D01*
X18448753Y-16330460D02*
X18439229Y-16320936D01*
X18439229Y-16320936D02*
X18429706Y-16301888D01*
X18429706Y-16301888D02*
X18420182Y-16263793D01*
X18420182Y-16263793D02*
X18420182Y-16216174D01*
X18420182Y-16216174D02*
X18429706Y-16178079D01*
X18429706Y-16178079D02*
X18439229Y-16159031D01*
X18439229Y-16159031D02*
X18448753Y-16149508D01*
X18448753Y-16149508D02*
X18467801Y-16139984D01*
X18658277Y-16139984D02*
X18677325Y-16139984D01*
X18677325Y-16139984D02*
X18696372Y-16149508D01*
X18696372Y-16149508D02*
X18705896Y-16159031D01*
X18705896Y-16159031D02*
X18715420Y-16178079D01*
X18715420Y-16178079D02*
X18724944Y-16216174D01*
X18724944Y-16216174D02*
X18724944Y-16263793D01*
X18724944Y-16263793D02*
X18715420Y-16301888D01*
X18715420Y-16301888D02*
X18705896Y-16320936D01*
X18705896Y-16320936D02*
X18696372Y-16330460D01*
X18696372Y-16330460D02*
X18677325Y-16339984D01*
X18677325Y-16339984D02*
X18658277Y-16339984D01*
X18658277Y-16339984D02*
X18639229Y-16330460D01*
X18639229Y-16330460D02*
X18629706Y-16320936D01*
X18629706Y-16320936D02*
X18620182Y-16301888D01*
X18620182Y-16301888D02*
X18610658Y-16263793D01*
X18610658Y-16263793D02*
X18610658Y-16216174D01*
X18610658Y-16216174D02*
X18620182Y-16178079D01*
X18620182Y-16178079D02*
X18629706Y-16159031D01*
X18629706Y-16159031D02*
X18639229Y-16149508D01*
X18639229Y-16149508D02*
X18658277Y-16139984D01*
X18801134Y-16139984D02*
X18801134Y-16178079D01*
X18877325Y-16139984D02*
X18877325Y-16178079D01*
X19172563Y-16416174D02*
X19163039Y-16406650D01*
X19163039Y-16406650D02*
X19143991Y-16378079D01*
X19143991Y-16378079D02*
X19134468Y-16359031D01*
X19134468Y-16359031D02*
X19124944Y-16330460D01*
X19124944Y-16330460D02*
X19115420Y-16282841D01*
X19115420Y-16282841D02*
X19115420Y-16244746D01*
X19115420Y-16244746D02*
X19124944Y-16197127D01*
X19124944Y-16197127D02*
X19134468Y-16168555D01*
X19134468Y-16168555D02*
X19143991Y-16149508D01*
X19143991Y-16149508D02*
X19163039Y-16120936D01*
X19163039Y-16120936D02*
X19172563Y-16111412D01*
X19334468Y-16206650D02*
X19334468Y-16339984D01*
X19286849Y-16130460D02*
X19239230Y-16273317D01*
X19239230Y-16273317D02*
X19363039Y-16273317D01*
X19477325Y-16139984D02*
X19496372Y-16139984D01*
X19496372Y-16139984D02*
X19515420Y-16149508D01*
X19515420Y-16149508D02*
X19524944Y-16159031D01*
X19524944Y-16159031D02*
X19534468Y-16178079D01*
X19534468Y-16178079D02*
X19543991Y-16216174D01*
X19543991Y-16216174D02*
X19543991Y-16263793D01*
X19543991Y-16263793D02*
X19534468Y-16301888D01*
X19534468Y-16301888D02*
X19524944Y-16320936D01*
X19524944Y-16320936D02*
X19515420Y-16330460D01*
X19515420Y-16330460D02*
X19496372Y-16339984D01*
X19496372Y-16339984D02*
X19477325Y-16339984D01*
X19477325Y-16339984D02*
X19458277Y-16330460D01*
X19458277Y-16330460D02*
X19448753Y-16320936D01*
X19448753Y-16320936D02*
X19439230Y-16301888D01*
X19439230Y-16301888D02*
X19429706Y-16263793D01*
X19429706Y-16263793D02*
X19429706Y-16216174D01*
X19429706Y-16216174D02*
X19439230Y-16178079D01*
X19439230Y-16178079D02*
X19448753Y-16159031D01*
X19448753Y-16159031D02*
X19458277Y-16149508D01*
X19458277Y-16149508D02*
X19477325Y-16139984D01*
X19782087Y-16339984D02*
X19782087Y-16139984D01*
X19867801Y-16339984D02*
X19867801Y-16235222D01*
X19867801Y-16235222D02*
X19858277Y-16216174D01*
X19858277Y-16216174D02*
X19839230Y-16206650D01*
X19839230Y-16206650D02*
X19810658Y-16206650D01*
X19810658Y-16206650D02*
X19791611Y-16216174D01*
X19791611Y-16216174D02*
X19782087Y-16225698D01*
X19991611Y-16339984D02*
X19972563Y-16330460D01*
X19972563Y-16330460D02*
X19963039Y-16320936D01*
X19963039Y-16320936D02*
X19953515Y-16301888D01*
X19953515Y-16301888D02*
X19953515Y-16244746D01*
X19953515Y-16244746D02*
X19963039Y-16225698D01*
X19963039Y-16225698D02*
X19972563Y-16216174D01*
X19972563Y-16216174D02*
X19991611Y-16206650D01*
X19991611Y-16206650D02*
X20020182Y-16206650D01*
X20020182Y-16206650D02*
X20039230Y-16216174D01*
X20039230Y-16216174D02*
X20048753Y-16225698D01*
X20048753Y-16225698D02*
X20058277Y-16244746D01*
X20058277Y-16244746D02*
X20058277Y-16301888D01*
X20058277Y-16301888D02*
X20048753Y-16320936D01*
X20048753Y-16320936D02*
X20039230Y-16330460D01*
X20039230Y-16330460D02*
X20020182Y-16339984D01*
X20020182Y-16339984D02*
X19991611Y-16339984D01*
X20172563Y-16339984D02*
X20153515Y-16330460D01*
X20153515Y-16330460D02*
X20143992Y-16311412D01*
X20143992Y-16311412D02*
X20143992Y-16139984D01*
X20324944Y-16330460D02*
X20305896Y-16339984D01*
X20305896Y-16339984D02*
X20267801Y-16339984D01*
X20267801Y-16339984D02*
X20248753Y-16330460D01*
X20248753Y-16330460D02*
X20239230Y-16311412D01*
X20239230Y-16311412D02*
X20239230Y-16235222D01*
X20239230Y-16235222D02*
X20248753Y-16216174D01*
X20248753Y-16216174D02*
X20267801Y-16206650D01*
X20267801Y-16206650D02*
X20305896Y-16206650D01*
X20305896Y-16206650D02*
X20324944Y-16216174D01*
X20324944Y-16216174D02*
X20334468Y-16235222D01*
X20334468Y-16235222D02*
X20334468Y-16254269D01*
X20334468Y-16254269D02*
X20239230Y-16273317D01*
X20410658Y-16330460D02*
X20429706Y-16339984D01*
X20429706Y-16339984D02*
X20467801Y-16339984D01*
X20467801Y-16339984D02*
X20486849Y-16330460D01*
X20486849Y-16330460D02*
X20496373Y-16311412D01*
X20496373Y-16311412D02*
X20496373Y-16301888D01*
X20496373Y-16301888D02*
X20486849Y-16282841D01*
X20486849Y-16282841D02*
X20467801Y-16273317D01*
X20467801Y-16273317D02*
X20439230Y-16273317D01*
X20439230Y-16273317D02*
X20420182Y-16263793D01*
X20420182Y-16263793D02*
X20410658Y-16244746D01*
X20410658Y-16244746D02*
X20410658Y-16235222D01*
X20410658Y-16235222D02*
X20420182Y-16216174D01*
X20420182Y-16216174D02*
X20439230Y-16206650D01*
X20439230Y-16206650D02*
X20467801Y-16206650D01*
X20467801Y-16206650D02*
X20486849Y-16216174D01*
X20563039Y-16416174D02*
X20572563Y-16406650D01*
X20572563Y-16406650D02*
X20591611Y-16378079D01*
X20591611Y-16378079D02*
X20601134Y-16359031D01*
X20601134Y-16359031D02*
X20610658Y-16330460D01*
X20610658Y-16330460D02*
X20620182Y-16282841D01*
X20620182Y-16282841D02*
X20620182Y-16244746D01*
X20620182Y-16244746D02*
X20610658Y-16197127D01*
X20610658Y-16197127D02*
X20601134Y-16168555D01*
X20601134Y-16168555D02*
X20591611Y-16149508D01*
X20591611Y-16149508D02*
X20572563Y-16120936D01*
X20572563Y-16120936D02*
X20563039Y-16111412D01*
X15397500Y-16412500D02*
X15597500Y-16612500D01*
X15597500Y-16412500D02*
X15397500Y-16612500D01*
X15597500Y-16512500D02*
G75*
G02*
X15397500Y-16512500I-100000J0D01*
G01*
X15397500Y-16512500D02*
G75*
G02*
X15597500Y-16512500I100000J0D01*
G01*
X15848753Y-16423031D02*
X15858277Y-16413508D01*
X15858277Y-16413508D02*
X15877324Y-16403984D01*
X15877324Y-16403984D02*
X15924943Y-16403984D01*
X15924943Y-16403984D02*
X15943991Y-16413508D01*
X15943991Y-16413508D02*
X15953515Y-16423031D01*
X15953515Y-16423031D02*
X15963039Y-16442079D01*
X15963039Y-16442079D02*
X15963039Y-16461127D01*
X15963039Y-16461127D02*
X15953515Y-16489698D01*
X15953515Y-16489698D02*
X15839229Y-16603984D01*
X15839229Y-16603984D02*
X15963039Y-16603984D01*
X16048753Y-16584936D02*
X16058277Y-16594460D01*
X16058277Y-16594460D02*
X16048753Y-16603984D01*
X16048753Y-16603984D02*
X16039229Y-16594460D01*
X16039229Y-16594460D02*
X16048753Y-16584936D01*
X16048753Y-16584936D02*
X16048753Y-16603984D01*
X16124943Y-16403984D02*
X16258277Y-16403984D01*
X16258277Y-16403984D02*
X16172562Y-16603984D01*
X16429705Y-16403984D02*
X16334467Y-16403984D01*
X16334467Y-16403984D02*
X16324943Y-16499222D01*
X16324943Y-16499222D02*
X16334467Y-16489698D01*
X16334467Y-16489698D02*
X16353515Y-16480174D01*
X16353515Y-16480174D02*
X16401134Y-16480174D01*
X16401134Y-16480174D02*
X16420182Y-16489698D01*
X16420182Y-16489698D02*
X16429705Y-16499222D01*
X16429705Y-16499222D02*
X16439229Y-16518269D01*
X16439229Y-16518269D02*
X16439229Y-16565888D01*
X16439229Y-16565888D02*
X16429705Y-16584936D01*
X16429705Y-16584936D02*
X16420182Y-16594460D01*
X16420182Y-16594460D02*
X16401134Y-16603984D01*
X16401134Y-16603984D02*
X16353515Y-16603984D01*
X16353515Y-16603984D02*
X16334467Y-16594460D01*
X16334467Y-16594460D02*
X16324943Y-16584936D01*
X16563039Y-16403984D02*
X16582086Y-16403984D01*
X16582086Y-16403984D02*
X16601134Y-16413508D01*
X16601134Y-16413508D02*
X16610658Y-16423031D01*
X16610658Y-16423031D02*
X16620182Y-16442079D01*
X16620182Y-16442079D02*
X16629705Y-16480174D01*
X16629705Y-16480174D02*
X16629705Y-16527793D01*
X16629705Y-16527793D02*
X16620182Y-16565888D01*
X16620182Y-16565888D02*
X16610658Y-16584936D01*
X16610658Y-16584936D02*
X16601134Y-16594460D01*
X16601134Y-16594460D02*
X16582086Y-16603984D01*
X16582086Y-16603984D02*
X16563039Y-16603984D01*
X16563039Y-16603984D02*
X16543991Y-16594460D01*
X16543991Y-16594460D02*
X16534467Y-16584936D01*
X16534467Y-16584936D02*
X16524943Y-16565888D01*
X16524943Y-16565888D02*
X16515420Y-16527793D01*
X16515420Y-16527793D02*
X16515420Y-16480174D01*
X16515420Y-16480174D02*
X16524943Y-16442079D01*
X16524943Y-16442079D02*
X16534467Y-16423031D01*
X16534467Y-16423031D02*
X16543991Y-16413508D01*
X16543991Y-16413508D02*
X16563039Y-16403984D01*
X16715420Y-16603984D02*
X16715420Y-16470650D01*
X16715420Y-16489698D02*
X16724943Y-16480174D01*
X16724943Y-16480174D02*
X16743991Y-16470650D01*
X16743991Y-16470650D02*
X16772563Y-16470650D01*
X16772563Y-16470650D02*
X16791610Y-16480174D01*
X16791610Y-16480174D02*
X16801134Y-16499222D01*
X16801134Y-16499222D02*
X16801134Y-16603984D01*
X16801134Y-16499222D02*
X16810658Y-16480174D01*
X16810658Y-16480174D02*
X16829705Y-16470650D01*
X16829705Y-16470650D02*
X16858277Y-16470650D01*
X16858277Y-16470650D02*
X16877325Y-16480174D01*
X16877325Y-16480174D02*
X16886848Y-16499222D01*
X16886848Y-16499222D02*
X16886848Y-16603984D01*
X16982086Y-16603984D02*
X16982086Y-16470650D01*
X16982086Y-16489698D02*
X16991610Y-16480174D01*
X16991610Y-16480174D02*
X17010658Y-16470650D01*
X17010658Y-16470650D02*
X17039229Y-16470650D01*
X17039229Y-16470650D02*
X17058277Y-16480174D01*
X17058277Y-16480174D02*
X17067801Y-16499222D01*
X17067801Y-16499222D02*
X17067801Y-16603984D01*
X17067801Y-16499222D02*
X17077325Y-16480174D01*
X17077325Y-16480174D02*
X17096372Y-16470650D01*
X17096372Y-16470650D02*
X17124944Y-16470650D01*
X17124944Y-16470650D02*
X17143991Y-16480174D01*
X17143991Y-16480174D02*
X17153515Y-16499222D01*
X17153515Y-16499222D02*
X17153515Y-16603984D01*
X17543991Y-16394460D02*
X17372563Y-16651603D01*
X17801134Y-16403984D02*
X17820182Y-16403984D01*
X17820182Y-16403984D02*
X17839229Y-16413508D01*
X17839229Y-16413508D02*
X17848753Y-16423031D01*
X17848753Y-16423031D02*
X17858277Y-16442079D01*
X17858277Y-16442079D02*
X17867801Y-16480174D01*
X17867801Y-16480174D02*
X17867801Y-16527793D01*
X17867801Y-16527793D02*
X17858277Y-16565888D01*
X17858277Y-16565888D02*
X17848753Y-16584936D01*
X17848753Y-16584936D02*
X17839229Y-16594460D01*
X17839229Y-16594460D02*
X17820182Y-16603984D01*
X17820182Y-16603984D02*
X17801134Y-16603984D01*
X17801134Y-16603984D02*
X17782087Y-16594460D01*
X17782087Y-16594460D02*
X17772563Y-16584936D01*
X17772563Y-16584936D02*
X17763039Y-16565888D01*
X17763039Y-16565888D02*
X17753515Y-16527793D01*
X17753515Y-16527793D02*
X17753515Y-16480174D01*
X17753515Y-16480174D02*
X17763039Y-16442079D01*
X17763039Y-16442079D02*
X17772563Y-16423031D01*
X17772563Y-16423031D02*
X17782087Y-16413508D01*
X17782087Y-16413508D02*
X17801134Y-16403984D01*
X17953515Y-16584936D02*
X17963039Y-16594460D01*
X17963039Y-16594460D02*
X17953515Y-16603984D01*
X17953515Y-16603984D02*
X17943991Y-16594460D01*
X17943991Y-16594460D02*
X17953515Y-16584936D01*
X17953515Y-16584936D02*
X17953515Y-16603984D01*
X18153515Y-16603984D02*
X18039229Y-16603984D01*
X18096372Y-16603984D02*
X18096372Y-16403984D01*
X18096372Y-16403984D02*
X18077325Y-16432555D01*
X18077325Y-16432555D02*
X18058277Y-16451603D01*
X18058277Y-16451603D02*
X18039229Y-16461127D01*
X18277325Y-16403984D02*
X18296372Y-16403984D01*
X18296372Y-16403984D02*
X18315420Y-16413508D01*
X18315420Y-16413508D02*
X18324944Y-16423031D01*
X18324944Y-16423031D02*
X18334468Y-16442079D01*
X18334468Y-16442079D02*
X18343991Y-16480174D01*
X18343991Y-16480174D02*
X18343991Y-16527793D01*
X18343991Y-16527793D02*
X18334468Y-16565888D01*
X18334468Y-16565888D02*
X18324944Y-16584936D01*
X18324944Y-16584936D02*
X18315420Y-16594460D01*
X18315420Y-16594460D02*
X18296372Y-16603984D01*
X18296372Y-16603984D02*
X18277325Y-16603984D01*
X18277325Y-16603984D02*
X18258277Y-16594460D01*
X18258277Y-16594460D02*
X18248753Y-16584936D01*
X18248753Y-16584936D02*
X18239229Y-16565888D01*
X18239229Y-16565888D02*
X18229706Y-16527793D01*
X18229706Y-16527793D02*
X18229706Y-16480174D01*
X18229706Y-16480174D02*
X18239229Y-16442079D01*
X18239229Y-16442079D02*
X18248753Y-16423031D01*
X18248753Y-16423031D02*
X18258277Y-16413508D01*
X18258277Y-16413508D02*
X18277325Y-16403984D01*
X18458277Y-16489698D02*
X18439229Y-16480174D01*
X18439229Y-16480174D02*
X18429706Y-16470650D01*
X18429706Y-16470650D02*
X18420182Y-16451603D01*
X18420182Y-16451603D02*
X18420182Y-16442079D01*
X18420182Y-16442079D02*
X18429706Y-16423031D01*
X18429706Y-16423031D02*
X18439229Y-16413508D01*
X18439229Y-16413508D02*
X18458277Y-16403984D01*
X18458277Y-16403984D02*
X18496372Y-16403984D01*
X18496372Y-16403984D02*
X18515420Y-16413508D01*
X18515420Y-16413508D02*
X18524944Y-16423031D01*
X18524944Y-16423031D02*
X18534468Y-16442079D01*
X18534468Y-16442079D02*
X18534468Y-16451603D01*
X18534468Y-16451603D02*
X18524944Y-16470650D01*
X18524944Y-16470650D02*
X18515420Y-16480174D01*
X18515420Y-16480174D02*
X18496372Y-16489698D01*
X18496372Y-16489698D02*
X18458277Y-16489698D01*
X18458277Y-16489698D02*
X18439229Y-16499222D01*
X18439229Y-16499222D02*
X18429706Y-16508746D01*
X18429706Y-16508746D02*
X18420182Y-16527793D01*
X18420182Y-16527793D02*
X18420182Y-16565888D01*
X18420182Y-16565888D02*
X18429706Y-16584936D01*
X18429706Y-16584936D02*
X18439229Y-16594460D01*
X18439229Y-16594460D02*
X18458277Y-16603984D01*
X18458277Y-16603984D02*
X18496372Y-16603984D01*
X18496372Y-16603984D02*
X18515420Y-16594460D01*
X18515420Y-16594460D02*
X18524944Y-16584936D01*
X18524944Y-16584936D02*
X18534468Y-16565888D01*
X18534468Y-16565888D02*
X18534468Y-16527793D01*
X18534468Y-16527793D02*
X18524944Y-16508746D01*
X18524944Y-16508746D02*
X18515420Y-16499222D01*
X18515420Y-16499222D02*
X18496372Y-16489698D01*
X18601134Y-16403984D02*
X18724944Y-16403984D01*
X18724944Y-16403984D02*
X18658277Y-16480174D01*
X18658277Y-16480174D02*
X18686849Y-16480174D01*
X18686849Y-16480174D02*
X18705896Y-16489698D01*
X18705896Y-16489698D02*
X18715420Y-16499222D01*
X18715420Y-16499222D02*
X18724944Y-16518269D01*
X18724944Y-16518269D02*
X18724944Y-16565888D01*
X18724944Y-16565888D02*
X18715420Y-16584936D01*
X18715420Y-16584936D02*
X18705896Y-16594460D01*
X18705896Y-16594460D02*
X18686849Y-16603984D01*
X18686849Y-16603984D02*
X18629706Y-16603984D01*
X18629706Y-16603984D02*
X18610658Y-16594460D01*
X18610658Y-16594460D02*
X18601134Y-16584936D01*
X18801134Y-16403984D02*
X18801134Y-16442079D01*
X18877325Y-16403984D02*
X18877325Y-16442079D01*
X19172563Y-16680174D02*
X19163039Y-16670650D01*
X19163039Y-16670650D02*
X19143991Y-16642079D01*
X19143991Y-16642079D02*
X19134468Y-16623031D01*
X19134468Y-16623031D02*
X19124944Y-16594460D01*
X19124944Y-16594460D02*
X19115420Y-16546841D01*
X19115420Y-16546841D02*
X19115420Y-16508746D01*
X19115420Y-16508746D02*
X19124944Y-16461127D01*
X19124944Y-16461127D02*
X19134468Y-16432555D01*
X19134468Y-16432555D02*
X19143991Y-16413508D01*
X19143991Y-16413508D02*
X19163039Y-16384936D01*
X19163039Y-16384936D02*
X19172563Y-16375412D01*
X19334468Y-16470650D02*
X19334468Y-16603984D01*
X19286849Y-16394460D02*
X19239230Y-16537317D01*
X19239230Y-16537317D02*
X19363039Y-16537317D01*
X19591611Y-16603984D02*
X19591611Y-16403984D01*
X19677325Y-16603984D02*
X19677325Y-16499222D01*
X19677325Y-16499222D02*
X19667801Y-16480174D01*
X19667801Y-16480174D02*
X19648753Y-16470650D01*
X19648753Y-16470650D02*
X19620182Y-16470650D01*
X19620182Y-16470650D02*
X19601134Y-16480174D01*
X19601134Y-16480174D02*
X19591611Y-16489698D01*
X19801134Y-16603984D02*
X19782087Y-16594460D01*
X19782087Y-16594460D02*
X19772563Y-16584936D01*
X19772563Y-16584936D02*
X19763039Y-16565888D01*
X19763039Y-16565888D02*
X19763039Y-16508746D01*
X19763039Y-16508746D02*
X19772563Y-16489698D01*
X19772563Y-16489698D02*
X19782087Y-16480174D01*
X19782087Y-16480174D02*
X19801134Y-16470650D01*
X19801134Y-16470650D02*
X19829706Y-16470650D01*
X19829706Y-16470650D02*
X19848753Y-16480174D01*
X19848753Y-16480174D02*
X19858277Y-16489698D01*
X19858277Y-16489698D02*
X19867801Y-16508746D01*
X19867801Y-16508746D02*
X19867801Y-16565888D01*
X19867801Y-16565888D02*
X19858277Y-16584936D01*
X19858277Y-16584936D02*
X19848753Y-16594460D01*
X19848753Y-16594460D02*
X19829706Y-16603984D01*
X19829706Y-16603984D02*
X19801134Y-16603984D01*
X19982087Y-16603984D02*
X19963039Y-16594460D01*
X19963039Y-16594460D02*
X19953515Y-16575412D01*
X19953515Y-16575412D02*
X19953515Y-16403984D01*
X20134468Y-16594460D02*
X20115420Y-16603984D01*
X20115420Y-16603984D02*
X20077325Y-16603984D01*
X20077325Y-16603984D02*
X20058277Y-16594460D01*
X20058277Y-16594460D02*
X20048753Y-16575412D01*
X20048753Y-16575412D02*
X20048753Y-16499222D01*
X20048753Y-16499222D02*
X20058277Y-16480174D01*
X20058277Y-16480174D02*
X20077325Y-16470650D01*
X20077325Y-16470650D02*
X20115420Y-16470650D01*
X20115420Y-16470650D02*
X20134468Y-16480174D01*
X20134468Y-16480174D02*
X20143992Y-16499222D01*
X20143992Y-16499222D02*
X20143992Y-16518269D01*
X20143992Y-16518269D02*
X20048753Y-16537317D01*
X20220182Y-16594460D02*
X20239230Y-16603984D01*
X20239230Y-16603984D02*
X20277325Y-16603984D01*
X20277325Y-16603984D02*
X20296373Y-16594460D01*
X20296373Y-16594460D02*
X20305896Y-16575412D01*
X20305896Y-16575412D02*
X20305896Y-16565888D01*
X20305896Y-16565888D02*
X20296373Y-16546841D01*
X20296373Y-16546841D02*
X20277325Y-16537317D01*
X20277325Y-16537317D02*
X20248753Y-16537317D01*
X20248753Y-16537317D02*
X20229706Y-16527793D01*
X20229706Y-16527793D02*
X20220182Y-16508746D01*
X20220182Y-16508746D02*
X20220182Y-16499222D01*
X20220182Y-16499222D02*
X20229706Y-16480174D01*
X20229706Y-16480174D02*
X20248753Y-16470650D01*
X20248753Y-16470650D02*
X20277325Y-16470650D01*
X20277325Y-16470650D02*
X20296373Y-16480174D01*
X20372563Y-16680174D02*
X20382087Y-16670650D01*
X20382087Y-16670650D02*
X20401134Y-16642079D01*
X20401134Y-16642079D02*
X20410658Y-16623031D01*
X20410658Y-16623031D02*
X20420182Y-16594460D01*
X20420182Y-16594460D02*
X20429706Y-16546841D01*
X20429706Y-16546841D02*
X20429706Y-16508746D01*
X20429706Y-16508746D02*
X20420182Y-16461127D01*
X20420182Y-16461127D02*
X20410658Y-16432555D01*
X20410658Y-16432555D02*
X20401134Y-16413508D01*
X20401134Y-16413508D02*
X20382087Y-16384936D01*
X20382087Y-16384936D02*
X20372563Y-16375412D01*
M02*
