%TF.GenerationSoftware,KiCad,Pcbnew,8.0.0*%
%TF.CreationDate,2025-01-16T15:15:31+02:00*%
%TF.ProjectId,diplomna_2024_sensors_pcb_layout,6469706c-6f6d-46e6-915f-323032345f73,rev?*%
%TF.SameCoordinates,Original*%
%TF.FileFunction,Drillmap*%
%TF.FilePolarity,Positive*%
%FSLAX45Y45*%
G04 Gerber Fmt 4.5, Leading zero omitted, Abs format (unit mm)*
G04 Created by KiCad (PCBNEW 8.0.0) date 2025-01-16 15:15:31*
%MOMM*%
%LPD*%
G01*
G04 APERTURE LIST*
%ADD10C,0.050000*%
%ADD11C,0.200000*%
%ADD12C,0.320000*%
G04 APERTURE END LIST*
D10*
X25200000Y-14550000D02*
X15700000Y-14550000D01*
X24700000Y-5050000D02*
X24700000Y-6100000D01*
X25200000Y-6100000D02*
X25200000Y-14550000D01*
X15700000Y-14550000D02*
X15700000Y-6100000D01*
X16200000Y-6100000D02*
X16200000Y-5050000D01*
X24700000Y-6100000D02*
X25200000Y-6100000D01*
X16200000Y-5050000D02*
X24700000Y-5050000D01*
X15700000Y-6100000D02*
X16200000Y-6100000D01*
D11*
D12*
X16040000Y-13890000D02*
X16360000Y-14210000D01*
X16360000Y-13890000D02*
X16040000Y-14210000D01*
X16740000Y-5390000D02*
X17060000Y-5710000D01*
X17060000Y-5390000D02*
X16740000Y-5710000D01*
X23690000Y-5390000D02*
X24010000Y-5710000D01*
X24010000Y-5390000D02*
X23690000Y-5710000D01*
X24540000Y-13890000D02*
X24860000Y-14210000D01*
X24860000Y-13890000D02*
X24540000Y-14210000D01*
D11*
X15958277Y-14863984D02*
X15958277Y-14663984D01*
X15958277Y-14663984D02*
X16005896Y-14663984D01*
X16005896Y-14663984D02*
X16034467Y-14673508D01*
X16034467Y-14673508D02*
X16053515Y-14692555D01*
X16053515Y-14692555D02*
X16063039Y-14711603D01*
X16063039Y-14711603D02*
X16072562Y-14749698D01*
X16072562Y-14749698D02*
X16072562Y-14778269D01*
X16072562Y-14778269D02*
X16063039Y-14816365D01*
X16063039Y-14816365D02*
X16053515Y-14835412D01*
X16053515Y-14835412D02*
X16034467Y-14854460D01*
X16034467Y-14854460D02*
X16005896Y-14863984D01*
X16005896Y-14863984D02*
X15958277Y-14863984D01*
X16158277Y-14863984D02*
X16158277Y-14730650D01*
X16158277Y-14768746D02*
X16167801Y-14749698D01*
X16167801Y-14749698D02*
X16177324Y-14740174D01*
X16177324Y-14740174D02*
X16196372Y-14730650D01*
X16196372Y-14730650D02*
X16215420Y-14730650D01*
X16282086Y-14863984D02*
X16282086Y-14730650D01*
X16282086Y-14663984D02*
X16272562Y-14673508D01*
X16272562Y-14673508D02*
X16282086Y-14683031D01*
X16282086Y-14683031D02*
X16291610Y-14673508D01*
X16291610Y-14673508D02*
X16282086Y-14663984D01*
X16282086Y-14663984D02*
X16282086Y-14683031D01*
X16405896Y-14863984D02*
X16386848Y-14854460D01*
X16386848Y-14854460D02*
X16377324Y-14835412D01*
X16377324Y-14835412D02*
X16377324Y-14663984D01*
X16510658Y-14863984D02*
X16491610Y-14854460D01*
X16491610Y-14854460D02*
X16482086Y-14835412D01*
X16482086Y-14835412D02*
X16482086Y-14663984D01*
X16739229Y-14863984D02*
X16739229Y-14663984D01*
X16739229Y-14663984D02*
X16805896Y-14806841D01*
X16805896Y-14806841D02*
X16872563Y-14663984D01*
X16872563Y-14663984D02*
X16872563Y-14863984D01*
X17053515Y-14863984D02*
X17053515Y-14759222D01*
X17053515Y-14759222D02*
X17043991Y-14740174D01*
X17043991Y-14740174D02*
X17024944Y-14730650D01*
X17024944Y-14730650D02*
X16986848Y-14730650D01*
X16986848Y-14730650D02*
X16967801Y-14740174D01*
X17053515Y-14854460D02*
X17034467Y-14863984D01*
X17034467Y-14863984D02*
X16986848Y-14863984D01*
X16986848Y-14863984D02*
X16967801Y-14854460D01*
X16967801Y-14854460D02*
X16958277Y-14835412D01*
X16958277Y-14835412D02*
X16958277Y-14816365D01*
X16958277Y-14816365D02*
X16967801Y-14797317D01*
X16967801Y-14797317D02*
X16986848Y-14787793D01*
X16986848Y-14787793D02*
X17034467Y-14787793D01*
X17034467Y-14787793D02*
X17053515Y-14778269D01*
X17148753Y-14730650D02*
X17148753Y-14930650D01*
X17148753Y-14740174D02*
X17167801Y-14730650D01*
X17167801Y-14730650D02*
X17205896Y-14730650D01*
X17205896Y-14730650D02*
X17224944Y-14740174D01*
X17224944Y-14740174D02*
X17234467Y-14749698D01*
X17234467Y-14749698D02*
X17243991Y-14768746D01*
X17243991Y-14768746D02*
X17243991Y-14825888D01*
X17243991Y-14825888D02*
X17234467Y-14844936D01*
X17234467Y-14844936D02*
X17224944Y-14854460D01*
X17224944Y-14854460D02*
X17205896Y-14863984D01*
X17205896Y-14863984D02*
X17167801Y-14863984D01*
X17167801Y-14863984D02*
X17148753Y-14854460D01*
X17329705Y-14844936D02*
X17339229Y-14854460D01*
X17339229Y-14854460D02*
X17329705Y-14863984D01*
X17329705Y-14863984D02*
X17320182Y-14854460D01*
X17320182Y-14854460D02*
X17329705Y-14844936D01*
X17329705Y-14844936D02*
X17329705Y-14863984D01*
X17329705Y-14740174D02*
X17339229Y-14749698D01*
X17339229Y-14749698D02*
X17329705Y-14759222D01*
X17329705Y-14759222D02*
X17320182Y-14749698D01*
X17320182Y-14749698D02*
X17329705Y-14740174D01*
X17329705Y-14740174D02*
X17329705Y-14759222D01*
X15497500Y-15092500D02*
X15697500Y-15292500D01*
X15697500Y-15092500D02*
X15497500Y-15292500D01*
X15939229Y-15083984D02*
X16063039Y-15083984D01*
X16063039Y-15083984D02*
X15996372Y-15160174D01*
X15996372Y-15160174D02*
X16024943Y-15160174D01*
X16024943Y-15160174D02*
X16043991Y-15169698D01*
X16043991Y-15169698D02*
X16053515Y-15179222D01*
X16053515Y-15179222D02*
X16063039Y-15198269D01*
X16063039Y-15198269D02*
X16063039Y-15245888D01*
X16063039Y-15245888D02*
X16053515Y-15264936D01*
X16053515Y-15264936D02*
X16043991Y-15274460D01*
X16043991Y-15274460D02*
X16024943Y-15283984D01*
X16024943Y-15283984D02*
X15967801Y-15283984D01*
X15967801Y-15283984D02*
X15948753Y-15274460D01*
X15948753Y-15274460D02*
X15939229Y-15264936D01*
X16148753Y-15264936D02*
X16158277Y-15274460D01*
X16158277Y-15274460D02*
X16148753Y-15283984D01*
X16148753Y-15283984D02*
X16139229Y-15274460D01*
X16139229Y-15274460D02*
X16148753Y-15264936D01*
X16148753Y-15264936D02*
X16148753Y-15283984D01*
X16234467Y-15103031D02*
X16243991Y-15093508D01*
X16243991Y-15093508D02*
X16263039Y-15083984D01*
X16263039Y-15083984D02*
X16310658Y-15083984D01*
X16310658Y-15083984D02*
X16329705Y-15093508D01*
X16329705Y-15093508D02*
X16339229Y-15103031D01*
X16339229Y-15103031D02*
X16348753Y-15122079D01*
X16348753Y-15122079D02*
X16348753Y-15141127D01*
X16348753Y-15141127D02*
X16339229Y-15169698D01*
X16339229Y-15169698D02*
X16224943Y-15283984D01*
X16224943Y-15283984D02*
X16348753Y-15283984D01*
X16472562Y-15083984D02*
X16491610Y-15083984D01*
X16491610Y-15083984D02*
X16510658Y-15093508D01*
X16510658Y-15093508D02*
X16520182Y-15103031D01*
X16520182Y-15103031D02*
X16529705Y-15122079D01*
X16529705Y-15122079D02*
X16539229Y-15160174D01*
X16539229Y-15160174D02*
X16539229Y-15207793D01*
X16539229Y-15207793D02*
X16529705Y-15245888D01*
X16529705Y-15245888D02*
X16520182Y-15264936D01*
X16520182Y-15264936D02*
X16510658Y-15274460D01*
X16510658Y-15274460D02*
X16491610Y-15283984D01*
X16491610Y-15283984D02*
X16472562Y-15283984D01*
X16472562Y-15283984D02*
X16453515Y-15274460D01*
X16453515Y-15274460D02*
X16443991Y-15264936D01*
X16443991Y-15264936D02*
X16434467Y-15245888D01*
X16434467Y-15245888D02*
X16424943Y-15207793D01*
X16424943Y-15207793D02*
X16424943Y-15160174D01*
X16424943Y-15160174D02*
X16434467Y-15122079D01*
X16434467Y-15122079D02*
X16443991Y-15103031D01*
X16443991Y-15103031D02*
X16453515Y-15093508D01*
X16453515Y-15093508D02*
X16472562Y-15083984D01*
X16663039Y-15083984D02*
X16682086Y-15083984D01*
X16682086Y-15083984D02*
X16701134Y-15093508D01*
X16701134Y-15093508D02*
X16710658Y-15103031D01*
X16710658Y-15103031D02*
X16720182Y-15122079D01*
X16720182Y-15122079D02*
X16729705Y-15160174D01*
X16729705Y-15160174D02*
X16729705Y-15207793D01*
X16729705Y-15207793D02*
X16720182Y-15245888D01*
X16720182Y-15245888D02*
X16710658Y-15264936D01*
X16710658Y-15264936D02*
X16701134Y-15274460D01*
X16701134Y-15274460D02*
X16682086Y-15283984D01*
X16682086Y-15283984D02*
X16663039Y-15283984D01*
X16663039Y-15283984D02*
X16643991Y-15274460D01*
X16643991Y-15274460D02*
X16634467Y-15264936D01*
X16634467Y-15264936D02*
X16624943Y-15245888D01*
X16624943Y-15245888D02*
X16615420Y-15207793D01*
X16615420Y-15207793D02*
X16615420Y-15160174D01*
X16615420Y-15160174D02*
X16624943Y-15122079D01*
X16624943Y-15122079D02*
X16634467Y-15103031D01*
X16634467Y-15103031D02*
X16643991Y-15093508D01*
X16643991Y-15093508D02*
X16663039Y-15083984D01*
X16815420Y-15283984D02*
X16815420Y-15150650D01*
X16815420Y-15169698D02*
X16824944Y-15160174D01*
X16824944Y-15160174D02*
X16843991Y-15150650D01*
X16843991Y-15150650D02*
X16872563Y-15150650D01*
X16872563Y-15150650D02*
X16891610Y-15160174D01*
X16891610Y-15160174D02*
X16901134Y-15179222D01*
X16901134Y-15179222D02*
X16901134Y-15283984D01*
X16901134Y-15179222D02*
X16910658Y-15160174D01*
X16910658Y-15160174D02*
X16929705Y-15150650D01*
X16929705Y-15150650D02*
X16958277Y-15150650D01*
X16958277Y-15150650D02*
X16977325Y-15160174D01*
X16977325Y-15160174D02*
X16986848Y-15179222D01*
X16986848Y-15179222D02*
X16986848Y-15283984D01*
X17082086Y-15283984D02*
X17082086Y-15150650D01*
X17082086Y-15169698D02*
X17091610Y-15160174D01*
X17091610Y-15160174D02*
X17110658Y-15150650D01*
X17110658Y-15150650D02*
X17139229Y-15150650D01*
X17139229Y-15150650D02*
X17158277Y-15160174D01*
X17158277Y-15160174D02*
X17167801Y-15179222D01*
X17167801Y-15179222D02*
X17167801Y-15283984D01*
X17167801Y-15179222D02*
X17177325Y-15160174D01*
X17177325Y-15160174D02*
X17196372Y-15150650D01*
X17196372Y-15150650D02*
X17224944Y-15150650D01*
X17224944Y-15150650D02*
X17243991Y-15160174D01*
X17243991Y-15160174D02*
X17253515Y-15179222D01*
X17253515Y-15179222D02*
X17253515Y-15283984D01*
X17643991Y-15074460D02*
X17472563Y-15331603D01*
X17901134Y-15083984D02*
X17920182Y-15083984D01*
X17920182Y-15083984D02*
X17939229Y-15093508D01*
X17939229Y-15093508D02*
X17948753Y-15103031D01*
X17948753Y-15103031D02*
X17958277Y-15122079D01*
X17958277Y-15122079D02*
X17967801Y-15160174D01*
X17967801Y-15160174D02*
X17967801Y-15207793D01*
X17967801Y-15207793D02*
X17958277Y-15245888D01*
X17958277Y-15245888D02*
X17948753Y-15264936D01*
X17948753Y-15264936D02*
X17939229Y-15274460D01*
X17939229Y-15274460D02*
X17920182Y-15283984D01*
X17920182Y-15283984D02*
X17901134Y-15283984D01*
X17901134Y-15283984D02*
X17882087Y-15274460D01*
X17882087Y-15274460D02*
X17872563Y-15264936D01*
X17872563Y-15264936D02*
X17863039Y-15245888D01*
X17863039Y-15245888D02*
X17853515Y-15207793D01*
X17853515Y-15207793D02*
X17853515Y-15160174D01*
X17853515Y-15160174D02*
X17863039Y-15122079D01*
X17863039Y-15122079D02*
X17872563Y-15103031D01*
X17872563Y-15103031D02*
X17882087Y-15093508D01*
X17882087Y-15093508D02*
X17901134Y-15083984D01*
X18053515Y-15264936D02*
X18063039Y-15274460D01*
X18063039Y-15274460D02*
X18053515Y-15283984D01*
X18053515Y-15283984D02*
X18043991Y-15274460D01*
X18043991Y-15274460D02*
X18053515Y-15264936D01*
X18053515Y-15264936D02*
X18053515Y-15283984D01*
X18253515Y-15283984D02*
X18139229Y-15283984D01*
X18196372Y-15283984D02*
X18196372Y-15083984D01*
X18196372Y-15083984D02*
X18177325Y-15112555D01*
X18177325Y-15112555D02*
X18158277Y-15131603D01*
X18158277Y-15131603D02*
X18139229Y-15141127D01*
X18329706Y-15103031D02*
X18339229Y-15093508D01*
X18339229Y-15093508D02*
X18358277Y-15083984D01*
X18358277Y-15083984D02*
X18405896Y-15083984D01*
X18405896Y-15083984D02*
X18424944Y-15093508D01*
X18424944Y-15093508D02*
X18434468Y-15103031D01*
X18434468Y-15103031D02*
X18443991Y-15122079D01*
X18443991Y-15122079D02*
X18443991Y-15141127D01*
X18443991Y-15141127D02*
X18434468Y-15169698D01*
X18434468Y-15169698D02*
X18320182Y-15283984D01*
X18320182Y-15283984D02*
X18443991Y-15283984D01*
X18615420Y-15083984D02*
X18577325Y-15083984D01*
X18577325Y-15083984D02*
X18558277Y-15093508D01*
X18558277Y-15093508D02*
X18548753Y-15103031D01*
X18548753Y-15103031D02*
X18529706Y-15131603D01*
X18529706Y-15131603D02*
X18520182Y-15169698D01*
X18520182Y-15169698D02*
X18520182Y-15245888D01*
X18520182Y-15245888D02*
X18529706Y-15264936D01*
X18529706Y-15264936D02*
X18539229Y-15274460D01*
X18539229Y-15274460D02*
X18558277Y-15283984D01*
X18558277Y-15283984D02*
X18596372Y-15283984D01*
X18596372Y-15283984D02*
X18615420Y-15274460D01*
X18615420Y-15274460D02*
X18624944Y-15264936D01*
X18624944Y-15264936D02*
X18634468Y-15245888D01*
X18634468Y-15245888D02*
X18634468Y-15198269D01*
X18634468Y-15198269D02*
X18624944Y-15179222D01*
X18624944Y-15179222D02*
X18615420Y-15169698D01*
X18615420Y-15169698D02*
X18596372Y-15160174D01*
X18596372Y-15160174D02*
X18558277Y-15160174D01*
X18558277Y-15160174D02*
X18539229Y-15169698D01*
X18539229Y-15169698D02*
X18529706Y-15179222D01*
X18529706Y-15179222D02*
X18520182Y-15198269D01*
X18758277Y-15083984D02*
X18777325Y-15083984D01*
X18777325Y-15083984D02*
X18796372Y-15093508D01*
X18796372Y-15093508D02*
X18805896Y-15103031D01*
X18805896Y-15103031D02*
X18815420Y-15122079D01*
X18815420Y-15122079D02*
X18824944Y-15160174D01*
X18824944Y-15160174D02*
X18824944Y-15207793D01*
X18824944Y-15207793D02*
X18815420Y-15245888D01*
X18815420Y-15245888D02*
X18805896Y-15264936D01*
X18805896Y-15264936D02*
X18796372Y-15274460D01*
X18796372Y-15274460D02*
X18777325Y-15283984D01*
X18777325Y-15283984D02*
X18758277Y-15283984D01*
X18758277Y-15283984D02*
X18739229Y-15274460D01*
X18739229Y-15274460D02*
X18729706Y-15264936D01*
X18729706Y-15264936D02*
X18720182Y-15245888D01*
X18720182Y-15245888D02*
X18710658Y-15207793D01*
X18710658Y-15207793D02*
X18710658Y-15160174D01*
X18710658Y-15160174D02*
X18720182Y-15122079D01*
X18720182Y-15122079D02*
X18729706Y-15103031D01*
X18729706Y-15103031D02*
X18739229Y-15093508D01*
X18739229Y-15093508D02*
X18758277Y-15083984D01*
X18901134Y-15083984D02*
X18901134Y-15122079D01*
X18977325Y-15083984D02*
X18977325Y-15122079D01*
X19272563Y-15360174D02*
X19263039Y-15350650D01*
X19263039Y-15350650D02*
X19243991Y-15322079D01*
X19243991Y-15322079D02*
X19234468Y-15303031D01*
X19234468Y-15303031D02*
X19224944Y-15274460D01*
X19224944Y-15274460D02*
X19215420Y-15226841D01*
X19215420Y-15226841D02*
X19215420Y-15188746D01*
X19215420Y-15188746D02*
X19224944Y-15141127D01*
X19224944Y-15141127D02*
X19234468Y-15112555D01*
X19234468Y-15112555D02*
X19243991Y-15093508D01*
X19243991Y-15093508D02*
X19263039Y-15064936D01*
X19263039Y-15064936D02*
X19272563Y-15055412D01*
X19434468Y-15150650D02*
X19434468Y-15283984D01*
X19386849Y-15074460D02*
X19339230Y-15217317D01*
X19339230Y-15217317D02*
X19463039Y-15217317D01*
X19691611Y-15283984D02*
X19691611Y-15083984D01*
X19777325Y-15283984D02*
X19777325Y-15179222D01*
X19777325Y-15179222D02*
X19767801Y-15160174D01*
X19767801Y-15160174D02*
X19748753Y-15150650D01*
X19748753Y-15150650D02*
X19720182Y-15150650D01*
X19720182Y-15150650D02*
X19701134Y-15160174D01*
X19701134Y-15160174D02*
X19691611Y-15169698D01*
X19901134Y-15283984D02*
X19882087Y-15274460D01*
X19882087Y-15274460D02*
X19872563Y-15264936D01*
X19872563Y-15264936D02*
X19863039Y-15245888D01*
X19863039Y-15245888D02*
X19863039Y-15188746D01*
X19863039Y-15188746D02*
X19872563Y-15169698D01*
X19872563Y-15169698D02*
X19882087Y-15160174D01*
X19882087Y-15160174D02*
X19901134Y-15150650D01*
X19901134Y-15150650D02*
X19929706Y-15150650D01*
X19929706Y-15150650D02*
X19948753Y-15160174D01*
X19948753Y-15160174D02*
X19958277Y-15169698D01*
X19958277Y-15169698D02*
X19967801Y-15188746D01*
X19967801Y-15188746D02*
X19967801Y-15245888D01*
X19967801Y-15245888D02*
X19958277Y-15264936D01*
X19958277Y-15264936D02*
X19948753Y-15274460D01*
X19948753Y-15274460D02*
X19929706Y-15283984D01*
X19929706Y-15283984D02*
X19901134Y-15283984D01*
X20082087Y-15283984D02*
X20063039Y-15274460D01*
X20063039Y-15274460D02*
X20053515Y-15255412D01*
X20053515Y-15255412D02*
X20053515Y-15083984D01*
X20234468Y-15274460D02*
X20215420Y-15283984D01*
X20215420Y-15283984D02*
X20177325Y-15283984D01*
X20177325Y-15283984D02*
X20158277Y-15274460D01*
X20158277Y-15274460D02*
X20148753Y-15255412D01*
X20148753Y-15255412D02*
X20148753Y-15179222D01*
X20148753Y-15179222D02*
X20158277Y-15160174D01*
X20158277Y-15160174D02*
X20177325Y-15150650D01*
X20177325Y-15150650D02*
X20215420Y-15150650D01*
X20215420Y-15150650D02*
X20234468Y-15160174D01*
X20234468Y-15160174D02*
X20243992Y-15179222D01*
X20243992Y-15179222D02*
X20243992Y-15198269D01*
X20243992Y-15198269D02*
X20148753Y-15217317D01*
X20320182Y-15274460D02*
X20339230Y-15283984D01*
X20339230Y-15283984D02*
X20377325Y-15283984D01*
X20377325Y-15283984D02*
X20396373Y-15274460D01*
X20396373Y-15274460D02*
X20405896Y-15255412D01*
X20405896Y-15255412D02*
X20405896Y-15245888D01*
X20405896Y-15245888D02*
X20396373Y-15226841D01*
X20396373Y-15226841D02*
X20377325Y-15217317D01*
X20377325Y-15217317D02*
X20348753Y-15217317D01*
X20348753Y-15217317D02*
X20329706Y-15207793D01*
X20329706Y-15207793D02*
X20320182Y-15188746D01*
X20320182Y-15188746D02*
X20320182Y-15179222D01*
X20320182Y-15179222D02*
X20329706Y-15160174D01*
X20329706Y-15160174D02*
X20348753Y-15150650D01*
X20348753Y-15150650D02*
X20377325Y-15150650D01*
X20377325Y-15150650D02*
X20396373Y-15160174D01*
X20472563Y-15360174D02*
X20482087Y-15350650D01*
X20482087Y-15350650D02*
X20501134Y-15322079D01*
X20501134Y-15322079D02*
X20510658Y-15303031D01*
X20510658Y-15303031D02*
X20520182Y-15274460D01*
X20520182Y-15274460D02*
X20529706Y-15226841D01*
X20529706Y-15226841D02*
X20529706Y-15188746D01*
X20529706Y-15188746D02*
X20520182Y-15141127D01*
X20520182Y-15141127D02*
X20510658Y-15112555D01*
X20510658Y-15112555D02*
X20501134Y-15093508D01*
X20501134Y-15093508D02*
X20482087Y-15064936D01*
X20482087Y-15064936D02*
X20472563Y-15055412D01*
X20834468Y-15360174D02*
X20824944Y-15350650D01*
X20824944Y-15350650D02*
X20805896Y-15322079D01*
X20805896Y-15322079D02*
X20796373Y-15303031D01*
X20796373Y-15303031D02*
X20786849Y-15274460D01*
X20786849Y-15274460D02*
X20777325Y-15226841D01*
X20777325Y-15226841D02*
X20777325Y-15188746D01*
X20777325Y-15188746D02*
X20786849Y-15141127D01*
X20786849Y-15141127D02*
X20796373Y-15112555D01*
X20796373Y-15112555D02*
X20805896Y-15093508D01*
X20805896Y-15093508D02*
X20824944Y-15064936D01*
X20824944Y-15064936D02*
X20834468Y-15055412D01*
X20910658Y-15150650D02*
X20910658Y-15283984D01*
X20910658Y-15169698D02*
X20920182Y-15160174D01*
X20920182Y-15160174D02*
X20939230Y-15150650D01*
X20939230Y-15150650D02*
X20967801Y-15150650D01*
X20967801Y-15150650D02*
X20986849Y-15160174D01*
X20986849Y-15160174D02*
X20996373Y-15179222D01*
X20996373Y-15179222D02*
X20996373Y-15283984D01*
X21120182Y-15283984D02*
X21101134Y-15274460D01*
X21101134Y-15274460D02*
X21091611Y-15264936D01*
X21091611Y-15264936D02*
X21082087Y-15245888D01*
X21082087Y-15245888D02*
X21082087Y-15188746D01*
X21082087Y-15188746D02*
X21091611Y-15169698D01*
X21091611Y-15169698D02*
X21101134Y-15160174D01*
X21101134Y-15160174D02*
X21120182Y-15150650D01*
X21120182Y-15150650D02*
X21148754Y-15150650D01*
X21148754Y-15150650D02*
X21167801Y-15160174D01*
X21167801Y-15160174D02*
X21177325Y-15169698D01*
X21177325Y-15169698D02*
X21186849Y-15188746D01*
X21186849Y-15188746D02*
X21186849Y-15245888D01*
X21186849Y-15245888D02*
X21177325Y-15264936D01*
X21177325Y-15264936D02*
X21167801Y-15274460D01*
X21167801Y-15274460D02*
X21148754Y-15283984D01*
X21148754Y-15283984D02*
X21120182Y-15283984D01*
X21243992Y-15150650D02*
X21320182Y-15150650D01*
X21272563Y-15083984D02*
X21272563Y-15255412D01*
X21272563Y-15255412D02*
X21282087Y-15274460D01*
X21282087Y-15274460D02*
X21301134Y-15283984D01*
X21301134Y-15283984D02*
X21320182Y-15283984D01*
X21539230Y-15150650D02*
X21539230Y-15350650D01*
X21539230Y-15160174D02*
X21558277Y-15150650D01*
X21558277Y-15150650D02*
X21596373Y-15150650D01*
X21596373Y-15150650D02*
X21615420Y-15160174D01*
X21615420Y-15160174D02*
X21624944Y-15169698D01*
X21624944Y-15169698D02*
X21634468Y-15188746D01*
X21634468Y-15188746D02*
X21634468Y-15245888D01*
X21634468Y-15245888D02*
X21624944Y-15264936D01*
X21624944Y-15264936D02*
X21615420Y-15274460D01*
X21615420Y-15274460D02*
X21596373Y-15283984D01*
X21596373Y-15283984D02*
X21558277Y-15283984D01*
X21558277Y-15283984D02*
X21539230Y-15274460D01*
X21748754Y-15283984D02*
X21729706Y-15274460D01*
X21729706Y-15274460D02*
X21720182Y-15255412D01*
X21720182Y-15255412D02*
X21720182Y-15083984D01*
X21910658Y-15283984D02*
X21910658Y-15179222D01*
X21910658Y-15179222D02*
X21901135Y-15160174D01*
X21901135Y-15160174D02*
X21882087Y-15150650D01*
X21882087Y-15150650D02*
X21843992Y-15150650D01*
X21843992Y-15150650D02*
X21824944Y-15160174D01*
X21910658Y-15274460D02*
X21891611Y-15283984D01*
X21891611Y-15283984D02*
X21843992Y-15283984D01*
X21843992Y-15283984D02*
X21824944Y-15274460D01*
X21824944Y-15274460D02*
X21815420Y-15255412D01*
X21815420Y-15255412D02*
X21815420Y-15236365D01*
X21815420Y-15236365D02*
X21824944Y-15217317D01*
X21824944Y-15217317D02*
X21843992Y-15207793D01*
X21843992Y-15207793D02*
X21891611Y-15207793D01*
X21891611Y-15207793D02*
X21910658Y-15198269D01*
X21977325Y-15150650D02*
X22053515Y-15150650D01*
X22005896Y-15083984D02*
X22005896Y-15255412D01*
X22005896Y-15255412D02*
X22015420Y-15274460D01*
X22015420Y-15274460D02*
X22034468Y-15283984D01*
X22034468Y-15283984D02*
X22053515Y-15283984D01*
X22196373Y-15274460D02*
X22177325Y-15283984D01*
X22177325Y-15283984D02*
X22139230Y-15283984D01*
X22139230Y-15283984D02*
X22120182Y-15274460D01*
X22120182Y-15274460D02*
X22110658Y-15255412D01*
X22110658Y-15255412D02*
X22110658Y-15179222D01*
X22110658Y-15179222D02*
X22120182Y-15160174D01*
X22120182Y-15160174D02*
X22139230Y-15150650D01*
X22139230Y-15150650D02*
X22177325Y-15150650D01*
X22177325Y-15150650D02*
X22196373Y-15160174D01*
X22196373Y-15160174D02*
X22205896Y-15179222D01*
X22205896Y-15179222D02*
X22205896Y-15198269D01*
X22205896Y-15198269D02*
X22110658Y-15217317D01*
X22377325Y-15283984D02*
X22377325Y-15083984D01*
X22377325Y-15274460D02*
X22358277Y-15283984D01*
X22358277Y-15283984D02*
X22320182Y-15283984D01*
X22320182Y-15283984D02*
X22301135Y-15274460D01*
X22301135Y-15274460D02*
X22291611Y-15264936D01*
X22291611Y-15264936D02*
X22282087Y-15245888D01*
X22282087Y-15245888D02*
X22282087Y-15188746D01*
X22282087Y-15188746D02*
X22291611Y-15169698D01*
X22291611Y-15169698D02*
X22301135Y-15160174D01*
X22301135Y-15160174D02*
X22320182Y-15150650D01*
X22320182Y-15150650D02*
X22358277Y-15150650D01*
X22358277Y-15150650D02*
X22377325Y-15160174D01*
X22453515Y-15360174D02*
X22463039Y-15350650D01*
X22463039Y-15350650D02*
X22482087Y-15322079D01*
X22482087Y-15322079D02*
X22491611Y-15303031D01*
X22491611Y-15303031D02*
X22501134Y-15274460D01*
X22501134Y-15274460D02*
X22510658Y-15226841D01*
X22510658Y-15226841D02*
X22510658Y-15188746D01*
X22510658Y-15188746D02*
X22501134Y-15141127D01*
X22501134Y-15141127D02*
X22491611Y-15112555D01*
X22491611Y-15112555D02*
X22482087Y-15093508D01*
X22482087Y-15093508D02*
X22463039Y-15064936D01*
X22463039Y-15064936D02*
X22453515Y-15055412D01*
M02*
