%TF.GenerationSoftware,KiCad,Pcbnew,8.0.0*%
%TF.CreationDate,2025-01-16T15:15:31+02:00*%
%TF.ProjectId,diplomna_2024_sensors_pcb_layout,6469706c-6f6d-46e6-915f-323032345f73,rev?*%
%TF.SameCoordinates,Original*%
%TF.FileFunction,Drillmap*%
%TF.FilePolarity,Positive*%
%FSLAX45Y45*%
G04 Gerber Fmt 4.5, Leading zero omitted, Abs format (unit mm)*
G04 Created by KiCad (PCBNEW 8.0.0) date 2025-01-16 15:15:31*
%MOMM*%
%LPD*%
G01*
G04 APERTURE LIST*
%ADD10C,0.050000*%
%ADD11C,0.200000*%
%ADD12C,0.100000*%
G04 APERTURE END LIST*
D10*
X25200000Y-14550000D02*
X15700000Y-14550000D01*
X24700000Y-5050000D02*
X24700000Y-6100000D01*
X25200000Y-6100000D02*
X25200000Y-14550000D01*
X15700000Y-14550000D02*
X15700000Y-6100000D01*
X16200000Y-6100000D02*
X16200000Y-5050000D01*
X24700000Y-6100000D02*
X25200000Y-6100000D01*
X16200000Y-5050000D02*
X24700000Y-5050000D01*
X15700000Y-6100000D02*
X16200000Y-6100000D01*
D11*
D12*
X18935000Y-13135000D02*
X18965000Y-13165000D01*
X18965000Y-13135000D02*
X18935000Y-13165000D01*
X19435000Y-11685000D02*
X19465000Y-11715000D01*
X19465000Y-11685000D02*
X19435000Y-11715000D01*
X19585000Y-8735000D02*
X19615000Y-8765000D01*
X19615000Y-8735000D02*
X19585000Y-8765000D01*
X20985000Y-11885000D02*
X21015000Y-11915000D01*
X21015000Y-11885000D02*
X20985000Y-11915000D01*
X20985000Y-12135000D02*
X21015000Y-12165000D01*
X21015000Y-12135000D02*
X20985000Y-12165000D01*
X16950000Y-7546000D02*
G75*
G02*
X16850000Y-7546000I-50000J0D01*
G01*
X16850000Y-7546000D02*
G75*
G02*
X16950000Y-7546000I50000J0D01*
G01*
X16950000Y-7800000D02*
G75*
G02*
X16850000Y-7800000I-50000J0D01*
G01*
X16850000Y-7800000D02*
G75*
G02*
X16950000Y-7800000I50000J0D01*
G01*
X16950000Y-8054000D02*
G75*
G02*
X16850000Y-8054000I-50000J0D01*
G01*
X16850000Y-8054000D02*
G75*
G02*
X16950000Y-8054000I50000J0D01*
G01*
X16950000Y-8308000D02*
G75*
G02*
X16850000Y-8308000I-50000J0D01*
G01*
X16850000Y-8308000D02*
G75*
G02*
X16950000Y-8308000I50000J0D01*
G01*
X16950000Y-8562000D02*
G75*
G02*
X16850000Y-8562000I-50000J0D01*
G01*
X16850000Y-8562000D02*
G75*
G02*
X16950000Y-8562000I50000J0D01*
G01*
X16950000Y-11300000D02*
G75*
G02*
X16850000Y-11300000I-50000J0D01*
G01*
X16850000Y-11300000D02*
G75*
G02*
X16950000Y-11300000I50000J0D01*
G01*
X16950000Y-11554000D02*
G75*
G02*
X16850000Y-11554000I-50000J0D01*
G01*
X16850000Y-11554000D02*
G75*
G02*
X16950000Y-11554000I50000J0D01*
G01*
X16950000Y-11808000D02*
G75*
G02*
X16850000Y-11808000I-50000J0D01*
G01*
X16850000Y-11808000D02*
G75*
G02*
X16950000Y-11808000I50000J0D01*
G01*
X16950000Y-12062000D02*
G75*
G02*
X16850000Y-12062000I-50000J0D01*
G01*
X16850000Y-12062000D02*
G75*
G02*
X16950000Y-12062000I50000J0D01*
G01*
X17484000Y-6800000D02*
G75*
G02*
X17384000Y-6800000I-50000J0D01*
G01*
X17384000Y-6800000D02*
G75*
G02*
X17484000Y-6800000I50000J0D01*
G01*
X17550000Y-5450000D02*
G75*
G02*
X17450000Y-5450000I-50000J0D01*
G01*
X17450000Y-5450000D02*
G75*
G02*
X17550000Y-5450000I50000J0D01*
G01*
X17550000Y-5650000D02*
G75*
G02*
X17450000Y-5650000I-50000J0D01*
G01*
X17450000Y-5650000D02*
G75*
G02*
X17550000Y-5650000I50000J0D01*
G01*
X17550000Y-5850000D02*
G75*
G02*
X17450000Y-5850000I-50000J0D01*
G01*
X17450000Y-5850000D02*
G75*
G02*
X17550000Y-5850000I50000J0D01*
G01*
X17550000Y-6050000D02*
G75*
G02*
X17450000Y-6050000I-50000J0D01*
G01*
X17450000Y-6050000D02*
G75*
G02*
X17550000Y-6050000I50000J0D01*
G01*
X17718000Y-13600000D02*
G75*
G02*
X17618000Y-13600000I-50000J0D01*
G01*
X17618000Y-13600000D02*
G75*
G02*
X17718000Y-13600000I50000J0D01*
G01*
X17738000Y-6800000D02*
G75*
G02*
X17638000Y-6800000I-50000J0D01*
G01*
X17638000Y-6800000D02*
G75*
G02*
X17738000Y-6800000I50000J0D01*
G01*
X17750000Y-5450000D02*
G75*
G02*
X17650000Y-5450000I-50000J0D01*
G01*
X17650000Y-5450000D02*
G75*
G02*
X17750000Y-5450000I50000J0D01*
G01*
X17750000Y-5650000D02*
G75*
G02*
X17650000Y-5650000I-50000J0D01*
G01*
X17650000Y-5650000D02*
G75*
G02*
X17750000Y-5650000I50000J0D01*
G01*
X17750000Y-5850000D02*
G75*
G02*
X17650000Y-5850000I-50000J0D01*
G01*
X17650000Y-5850000D02*
G75*
G02*
X17750000Y-5850000I50000J0D01*
G01*
X17750000Y-6050000D02*
G75*
G02*
X17650000Y-6050000I-50000J0D01*
G01*
X17650000Y-6050000D02*
G75*
G02*
X17750000Y-6050000I50000J0D01*
G01*
X17950000Y-5450000D02*
G75*
G02*
X17850000Y-5450000I-50000J0D01*
G01*
X17850000Y-5450000D02*
G75*
G02*
X17950000Y-5450000I50000J0D01*
G01*
X17950000Y-5650000D02*
G75*
G02*
X17850000Y-5650000I-50000J0D01*
G01*
X17850000Y-5650000D02*
G75*
G02*
X17950000Y-5650000I50000J0D01*
G01*
X17950000Y-5850000D02*
G75*
G02*
X17850000Y-5850000I-50000J0D01*
G01*
X17850000Y-5850000D02*
G75*
G02*
X17950000Y-5850000I50000J0D01*
G01*
X17950000Y-6050000D02*
G75*
G02*
X17850000Y-6050000I-50000J0D01*
G01*
X17850000Y-6050000D02*
G75*
G02*
X17950000Y-6050000I50000J0D01*
G01*
X17972000Y-13600000D02*
G75*
G02*
X17872000Y-13600000I-50000J0D01*
G01*
X17872000Y-13600000D02*
G75*
G02*
X17972000Y-13600000I50000J0D01*
G01*
X17992000Y-6800000D02*
G75*
G02*
X17892000Y-6800000I-50000J0D01*
G01*
X17892000Y-6800000D02*
G75*
G02*
X17992000Y-6800000I50000J0D01*
G01*
X18150000Y-5450000D02*
G75*
G02*
X18050000Y-5450000I-50000J0D01*
G01*
X18050000Y-5450000D02*
G75*
G02*
X18150000Y-5450000I50000J0D01*
G01*
X18150000Y-5650000D02*
G75*
G02*
X18050000Y-5650000I-50000J0D01*
G01*
X18050000Y-5650000D02*
G75*
G02*
X18150000Y-5650000I50000J0D01*
G01*
X18150000Y-5850000D02*
G75*
G02*
X18050000Y-5850000I-50000J0D01*
G01*
X18050000Y-5850000D02*
G75*
G02*
X18150000Y-5850000I50000J0D01*
G01*
X18150000Y-6050000D02*
G75*
G02*
X18050000Y-6050000I-50000J0D01*
G01*
X18050000Y-6050000D02*
G75*
G02*
X18150000Y-6050000I50000J0D01*
G01*
X18226000Y-13600000D02*
G75*
G02*
X18126000Y-13600000I-50000J0D01*
G01*
X18126000Y-13600000D02*
G75*
G02*
X18226000Y-13600000I50000J0D01*
G01*
X18246000Y-6800000D02*
G75*
G02*
X18146000Y-6800000I-50000J0D01*
G01*
X18146000Y-6800000D02*
G75*
G02*
X18246000Y-6800000I50000J0D01*
G01*
X18350000Y-5450000D02*
G75*
G02*
X18250000Y-5450000I-50000J0D01*
G01*
X18250000Y-5450000D02*
G75*
G02*
X18350000Y-5450000I50000J0D01*
G01*
X18350000Y-5650000D02*
G75*
G02*
X18250000Y-5650000I-50000J0D01*
G01*
X18250000Y-5650000D02*
G75*
G02*
X18350000Y-5650000I50000J0D01*
G01*
X18350000Y-5850000D02*
G75*
G02*
X18250000Y-5850000I-50000J0D01*
G01*
X18250000Y-5850000D02*
G75*
G02*
X18350000Y-5850000I50000J0D01*
G01*
X18350000Y-6050000D02*
G75*
G02*
X18250000Y-6050000I-50000J0D01*
G01*
X18250000Y-6050000D02*
G75*
G02*
X18350000Y-6050000I50000J0D01*
G01*
X18480000Y-13600000D02*
G75*
G02*
X18380000Y-13600000I-50000J0D01*
G01*
X18380000Y-13600000D02*
G75*
G02*
X18480000Y-13600000I50000J0D01*
G01*
X18500000Y-6800000D02*
G75*
G02*
X18400000Y-6800000I-50000J0D01*
G01*
X18400000Y-6800000D02*
G75*
G02*
X18500000Y-6800000I50000J0D01*
G01*
X18550000Y-5450000D02*
G75*
G02*
X18450000Y-5450000I-50000J0D01*
G01*
X18450000Y-5450000D02*
G75*
G02*
X18550000Y-5450000I50000J0D01*
G01*
X18550000Y-5650000D02*
G75*
G02*
X18450000Y-5650000I-50000J0D01*
G01*
X18450000Y-5650000D02*
G75*
G02*
X18550000Y-5650000I50000J0D01*
G01*
X18550000Y-5850000D02*
G75*
G02*
X18450000Y-5850000I-50000J0D01*
G01*
X18450000Y-5850000D02*
G75*
G02*
X18550000Y-5850000I50000J0D01*
G01*
X18550000Y-6050000D02*
G75*
G02*
X18450000Y-6050000I-50000J0D01*
G01*
X18450000Y-6050000D02*
G75*
G02*
X18550000Y-6050000I50000J0D01*
G01*
X18734000Y-13600000D02*
G75*
G02*
X18634000Y-13600000I-50000J0D01*
G01*
X18634000Y-13600000D02*
G75*
G02*
X18734000Y-13600000I50000J0D01*
G01*
X18750000Y-5450000D02*
G75*
G02*
X18650000Y-5450000I-50000J0D01*
G01*
X18650000Y-5450000D02*
G75*
G02*
X18750000Y-5450000I50000J0D01*
G01*
X18750000Y-5650000D02*
G75*
G02*
X18650000Y-5650000I-50000J0D01*
G01*
X18650000Y-5650000D02*
G75*
G02*
X18750000Y-5650000I50000J0D01*
G01*
X18750000Y-5850000D02*
G75*
G02*
X18650000Y-5850000I-50000J0D01*
G01*
X18650000Y-5850000D02*
G75*
G02*
X18750000Y-5850000I50000J0D01*
G01*
X18750000Y-6050000D02*
G75*
G02*
X18650000Y-6050000I-50000J0D01*
G01*
X18650000Y-6050000D02*
G75*
G02*
X18750000Y-6050000I50000J0D01*
G01*
X18950000Y-5450000D02*
G75*
G02*
X18850000Y-5450000I-50000J0D01*
G01*
X18850000Y-5450000D02*
G75*
G02*
X18950000Y-5450000I50000J0D01*
G01*
X18950000Y-5650000D02*
G75*
G02*
X18850000Y-5650000I-50000J0D01*
G01*
X18850000Y-5650000D02*
G75*
G02*
X18950000Y-5650000I50000J0D01*
G01*
X18950000Y-5850000D02*
G75*
G02*
X18850000Y-5850000I-50000J0D01*
G01*
X18850000Y-5850000D02*
G75*
G02*
X18950000Y-5850000I50000J0D01*
G01*
X18950000Y-6050000D02*
G75*
G02*
X18850000Y-6050000I-50000J0D01*
G01*
X18850000Y-6050000D02*
G75*
G02*
X18950000Y-6050000I50000J0D01*
G01*
X18988000Y-13600000D02*
G75*
G02*
X18888000Y-13600000I-50000J0D01*
G01*
X18888000Y-13600000D02*
G75*
G02*
X18988000Y-13600000I50000J0D01*
G01*
X19150000Y-5450000D02*
G75*
G02*
X19050000Y-5450000I-50000J0D01*
G01*
X19050000Y-5450000D02*
G75*
G02*
X19150000Y-5450000I50000J0D01*
G01*
X19150000Y-5650000D02*
G75*
G02*
X19050000Y-5650000I-50000J0D01*
G01*
X19050000Y-5650000D02*
G75*
G02*
X19150000Y-5650000I50000J0D01*
G01*
X19150000Y-5850000D02*
G75*
G02*
X19050000Y-5850000I-50000J0D01*
G01*
X19050000Y-5850000D02*
G75*
G02*
X19150000Y-5850000I50000J0D01*
G01*
X19150000Y-6050000D02*
G75*
G02*
X19050000Y-6050000I-50000J0D01*
G01*
X19050000Y-6050000D02*
G75*
G02*
X19150000Y-6050000I50000J0D01*
G01*
X19242000Y-13600000D02*
G75*
G02*
X19142000Y-13600000I-50000J0D01*
G01*
X19142000Y-13600000D02*
G75*
G02*
X19242000Y-13600000I50000J0D01*
G01*
X19350000Y-5450000D02*
G75*
G02*
X19250000Y-5450000I-50000J0D01*
G01*
X19250000Y-5450000D02*
G75*
G02*
X19350000Y-5450000I50000J0D01*
G01*
X19350000Y-5650000D02*
G75*
G02*
X19250000Y-5650000I-50000J0D01*
G01*
X19250000Y-5650000D02*
G75*
G02*
X19350000Y-5650000I50000J0D01*
G01*
X19350000Y-5850000D02*
G75*
G02*
X19250000Y-5850000I-50000J0D01*
G01*
X19250000Y-5850000D02*
G75*
G02*
X19350000Y-5850000I50000J0D01*
G01*
X19350000Y-6050000D02*
G75*
G02*
X19250000Y-6050000I-50000J0D01*
G01*
X19250000Y-6050000D02*
G75*
G02*
X19350000Y-6050000I50000J0D01*
G01*
X19496000Y-13600000D02*
G75*
G02*
X19396000Y-13600000I-50000J0D01*
G01*
X19396000Y-13600000D02*
G75*
G02*
X19496000Y-13600000I50000J0D01*
G01*
X19550000Y-5450000D02*
G75*
G02*
X19450000Y-5450000I-50000J0D01*
G01*
X19450000Y-5450000D02*
G75*
G02*
X19550000Y-5450000I50000J0D01*
G01*
X19550000Y-5650000D02*
G75*
G02*
X19450000Y-5650000I-50000J0D01*
G01*
X19450000Y-5650000D02*
G75*
G02*
X19550000Y-5650000I50000J0D01*
G01*
X19550000Y-5850000D02*
G75*
G02*
X19450000Y-5850000I-50000J0D01*
G01*
X19450000Y-5850000D02*
G75*
G02*
X19550000Y-5850000I50000J0D01*
G01*
X19550000Y-6050000D02*
G75*
G02*
X19450000Y-6050000I-50000J0D01*
G01*
X19450000Y-6050000D02*
G75*
G02*
X19550000Y-6050000I50000J0D01*
G01*
X19750000Y-5450000D02*
G75*
G02*
X19650000Y-5450000I-50000J0D01*
G01*
X19650000Y-5450000D02*
G75*
G02*
X19750000Y-5450000I50000J0D01*
G01*
X19750000Y-5650000D02*
G75*
G02*
X19650000Y-5650000I-50000J0D01*
G01*
X19650000Y-5650000D02*
G75*
G02*
X19750000Y-5650000I50000J0D01*
G01*
X19750000Y-5850000D02*
G75*
G02*
X19650000Y-5850000I-50000J0D01*
G01*
X19650000Y-5850000D02*
G75*
G02*
X19750000Y-5850000I50000J0D01*
G01*
X19750000Y-6050000D02*
G75*
G02*
X19650000Y-6050000I-50000J0D01*
G01*
X19650000Y-6050000D02*
G75*
G02*
X19750000Y-6050000I50000J0D01*
G01*
X19750000Y-13600000D02*
G75*
G02*
X19650000Y-13600000I-50000J0D01*
G01*
X19650000Y-13600000D02*
G75*
G02*
X19750000Y-13600000I50000J0D01*
G01*
X19950000Y-5450000D02*
G75*
G02*
X19850000Y-5450000I-50000J0D01*
G01*
X19850000Y-5450000D02*
G75*
G02*
X19950000Y-5450000I50000J0D01*
G01*
X19950000Y-5650000D02*
G75*
G02*
X19850000Y-5650000I-50000J0D01*
G01*
X19850000Y-5650000D02*
G75*
G02*
X19950000Y-5650000I50000J0D01*
G01*
X19950000Y-5850000D02*
G75*
G02*
X19850000Y-5850000I-50000J0D01*
G01*
X19850000Y-5850000D02*
G75*
G02*
X19950000Y-5850000I50000J0D01*
G01*
X19950000Y-6050000D02*
G75*
G02*
X19850000Y-6050000I-50000J0D01*
G01*
X19850000Y-6050000D02*
G75*
G02*
X19950000Y-6050000I50000J0D01*
G01*
X20150000Y-5450000D02*
G75*
G02*
X20050000Y-5450000I-50000J0D01*
G01*
X20050000Y-5450000D02*
G75*
G02*
X20150000Y-5450000I50000J0D01*
G01*
X20150000Y-5650000D02*
G75*
G02*
X20050000Y-5650000I-50000J0D01*
G01*
X20050000Y-5650000D02*
G75*
G02*
X20150000Y-5650000I50000J0D01*
G01*
X20150000Y-5850000D02*
G75*
G02*
X20050000Y-5850000I-50000J0D01*
G01*
X20050000Y-5850000D02*
G75*
G02*
X20150000Y-5850000I50000J0D01*
G01*
X20150000Y-6050000D02*
G75*
G02*
X20050000Y-6050000I-50000J0D01*
G01*
X20050000Y-6050000D02*
G75*
G02*
X20150000Y-6050000I50000J0D01*
G01*
X20300000Y-7998000D02*
G75*
G02*
X20200000Y-7998000I-50000J0D01*
G01*
X20200000Y-7998000D02*
G75*
G02*
X20300000Y-7998000I50000J0D01*
G01*
X20300000Y-8252000D02*
G75*
G02*
X20200000Y-8252000I-50000J0D01*
G01*
X20200000Y-8252000D02*
G75*
G02*
X20300000Y-8252000I50000J0D01*
G01*
X20300000Y-8506000D02*
G75*
G02*
X20200000Y-8506000I-50000J0D01*
G01*
X20200000Y-8506000D02*
G75*
G02*
X20300000Y-8506000I50000J0D01*
G01*
X20300000Y-8760000D02*
G75*
G02*
X20200000Y-8760000I-50000J0D01*
G01*
X20200000Y-8760000D02*
G75*
G02*
X20300000Y-8760000I50000J0D01*
G01*
X20300000Y-9014000D02*
G75*
G02*
X20200000Y-9014000I-50000J0D01*
G01*
X20200000Y-9014000D02*
G75*
G02*
X20300000Y-9014000I50000J0D01*
G01*
X20300000Y-9268000D02*
G75*
G02*
X20200000Y-9268000I-50000J0D01*
G01*
X20200000Y-9268000D02*
G75*
G02*
X20300000Y-9268000I50000J0D01*
G01*
X20300000Y-9522000D02*
G75*
G02*
X20200000Y-9522000I-50000J0D01*
G01*
X20200000Y-9522000D02*
G75*
G02*
X20300000Y-9522000I50000J0D01*
G01*
X20300000Y-9776000D02*
G75*
G02*
X20200000Y-9776000I-50000J0D01*
G01*
X20200000Y-9776000D02*
G75*
G02*
X20300000Y-9776000I50000J0D01*
G01*
X20300000Y-10030000D02*
G75*
G02*
X20200000Y-10030000I-50000J0D01*
G01*
X20200000Y-10030000D02*
G75*
G02*
X20300000Y-10030000I50000J0D01*
G01*
X20300000Y-10284000D02*
G75*
G02*
X20200000Y-10284000I-50000J0D01*
G01*
X20200000Y-10284000D02*
G75*
G02*
X20300000Y-10284000I50000J0D01*
G01*
X20300000Y-10538000D02*
G75*
G02*
X20200000Y-10538000I-50000J0D01*
G01*
X20200000Y-10538000D02*
G75*
G02*
X20300000Y-10538000I50000J0D01*
G01*
X20300000Y-10792000D02*
G75*
G02*
X20200000Y-10792000I-50000J0D01*
G01*
X20200000Y-10792000D02*
G75*
G02*
X20300000Y-10792000I50000J0D01*
G01*
X20300000Y-11046000D02*
G75*
G02*
X20200000Y-11046000I-50000J0D01*
G01*
X20200000Y-11046000D02*
G75*
G02*
X20300000Y-11046000I50000J0D01*
G01*
X20300000Y-11300000D02*
G75*
G02*
X20200000Y-11300000I-50000J0D01*
G01*
X20200000Y-11300000D02*
G75*
G02*
X20300000Y-11300000I50000J0D01*
G01*
X20300000Y-11554000D02*
G75*
G02*
X20200000Y-11554000I-50000J0D01*
G01*
X20200000Y-11554000D02*
G75*
G02*
X20300000Y-11554000I50000J0D01*
G01*
X20300000Y-11808000D02*
G75*
G02*
X20200000Y-11808000I-50000J0D01*
G01*
X20200000Y-11808000D02*
G75*
G02*
X20300000Y-11808000I50000J0D01*
G01*
X20300000Y-12062000D02*
G75*
G02*
X20200000Y-12062000I-50000J0D01*
G01*
X20200000Y-12062000D02*
G75*
G02*
X20300000Y-12062000I50000J0D01*
G01*
X20300000Y-12316000D02*
G75*
G02*
X20200000Y-12316000I-50000J0D01*
G01*
X20200000Y-12316000D02*
G75*
G02*
X20300000Y-12316000I50000J0D01*
G01*
X20300000Y-12570000D02*
G75*
G02*
X20200000Y-12570000I-50000J0D01*
G01*
X20200000Y-12570000D02*
G75*
G02*
X20300000Y-12570000I50000J0D01*
G01*
X20300000Y-12824000D02*
G75*
G02*
X20200000Y-12824000I-50000J0D01*
G01*
X20200000Y-12824000D02*
G75*
G02*
X20300000Y-12824000I50000J0D01*
G01*
X20300000Y-13078000D02*
G75*
G02*
X20200000Y-13078000I-50000J0D01*
G01*
X20200000Y-13078000D02*
G75*
G02*
X20300000Y-13078000I50000J0D01*
G01*
X20300000Y-13332000D02*
G75*
G02*
X20200000Y-13332000I-50000J0D01*
G01*
X20200000Y-13332000D02*
G75*
G02*
X20300000Y-13332000I50000J0D01*
G01*
X20300000Y-13586000D02*
G75*
G02*
X20200000Y-13586000I-50000J0D01*
G01*
X20200000Y-13586000D02*
G75*
G02*
X20300000Y-13586000I50000J0D01*
G01*
X20300000Y-13840000D02*
G75*
G02*
X20200000Y-13840000I-50000J0D01*
G01*
X20200000Y-13840000D02*
G75*
G02*
X20300000Y-13840000I50000J0D01*
G01*
X20350000Y-5450000D02*
G75*
G02*
X20250000Y-5450000I-50000J0D01*
G01*
X20250000Y-5450000D02*
G75*
G02*
X20350000Y-5450000I50000J0D01*
G01*
X20350000Y-5650000D02*
G75*
G02*
X20250000Y-5650000I-50000J0D01*
G01*
X20250000Y-5650000D02*
G75*
G02*
X20350000Y-5650000I50000J0D01*
G01*
X20350000Y-5850000D02*
G75*
G02*
X20250000Y-5850000I-50000J0D01*
G01*
X20250000Y-5850000D02*
G75*
G02*
X20350000Y-5850000I50000J0D01*
G01*
X20350000Y-6050000D02*
G75*
G02*
X20250000Y-6050000I-50000J0D01*
G01*
X20250000Y-6050000D02*
G75*
G02*
X20350000Y-6050000I50000J0D01*
G01*
X20550000Y-5450000D02*
G75*
G02*
X20450000Y-5450000I-50000J0D01*
G01*
X20450000Y-5450000D02*
G75*
G02*
X20550000Y-5450000I50000J0D01*
G01*
X20550000Y-5650000D02*
G75*
G02*
X20450000Y-5650000I-50000J0D01*
G01*
X20450000Y-5650000D02*
G75*
G02*
X20550000Y-5650000I50000J0D01*
G01*
X20550000Y-5850000D02*
G75*
G02*
X20450000Y-5850000I-50000J0D01*
G01*
X20450000Y-5850000D02*
G75*
G02*
X20550000Y-5850000I50000J0D01*
G01*
X20550000Y-6050000D02*
G75*
G02*
X20450000Y-6050000I-50000J0D01*
G01*
X20450000Y-6050000D02*
G75*
G02*
X20550000Y-6050000I50000J0D01*
G01*
X20600000Y-7998000D02*
G75*
G02*
X20500000Y-7998000I-50000J0D01*
G01*
X20500000Y-7998000D02*
G75*
G02*
X20600000Y-7998000I50000J0D01*
G01*
X20600000Y-8252000D02*
G75*
G02*
X20500000Y-8252000I-50000J0D01*
G01*
X20500000Y-8252000D02*
G75*
G02*
X20600000Y-8252000I50000J0D01*
G01*
X20600000Y-8506000D02*
G75*
G02*
X20500000Y-8506000I-50000J0D01*
G01*
X20500000Y-8506000D02*
G75*
G02*
X20600000Y-8506000I50000J0D01*
G01*
X20600000Y-8760000D02*
G75*
G02*
X20500000Y-8760000I-50000J0D01*
G01*
X20500000Y-8760000D02*
G75*
G02*
X20600000Y-8760000I50000J0D01*
G01*
X20600000Y-9014000D02*
G75*
G02*
X20500000Y-9014000I-50000J0D01*
G01*
X20500000Y-9014000D02*
G75*
G02*
X20600000Y-9014000I50000J0D01*
G01*
X20600000Y-9268000D02*
G75*
G02*
X20500000Y-9268000I-50000J0D01*
G01*
X20500000Y-9268000D02*
G75*
G02*
X20600000Y-9268000I50000J0D01*
G01*
X20600000Y-9522000D02*
G75*
G02*
X20500000Y-9522000I-50000J0D01*
G01*
X20500000Y-9522000D02*
G75*
G02*
X20600000Y-9522000I50000J0D01*
G01*
X20600000Y-9776000D02*
G75*
G02*
X20500000Y-9776000I-50000J0D01*
G01*
X20500000Y-9776000D02*
G75*
G02*
X20600000Y-9776000I50000J0D01*
G01*
X20600000Y-10030000D02*
G75*
G02*
X20500000Y-10030000I-50000J0D01*
G01*
X20500000Y-10030000D02*
G75*
G02*
X20600000Y-10030000I50000J0D01*
G01*
X20600000Y-10284000D02*
G75*
G02*
X20500000Y-10284000I-50000J0D01*
G01*
X20500000Y-10284000D02*
G75*
G02*
X20600000Y-10284000I50000J0D01*
G01*
X20600000Y-10538000D02*
G75*
G02*
X20500000Y-10538000I-50000J0D01*
G01*
X20500000Y-10538000D02*
G75*
G02*
X20600000Y-10538000I50000J0D01*
G01*
X20600000Y-10792000D02*
G75*
G02*
X20500000Y-10792000I-50000J0D01*
G01*
X20500000Y-10792000D02*
G75*
G02*
X20600000Y-10792000I50000J0D01*
G01*
X20600000Y-11046000D02*
G75*
G02*
X20500000Y-11046000I-50000J0D01*
G01*
X20500000Y-11046000D02*
G75*
G02*
X20600000Y-11046000I50000J0D01*
G01*
X20600000Y-11300000D02*
G75*
G02*
X20500000Y-11300000I-50000J0D01*
G01*
X20500000Y-11300000D02*
G75*
G02*
X20600000Y-11300000I50000J0D01*
G01*
X20600000Y-11554000D02*
G75*
G02*
X20500000Y-11554000I-50000J0D01*
G01*
X20500000Y-11554000D02*
G75*
G02*
X20600000Y-11554000I50000J0D01*
G01*
X20600000Y-11808000D02*
G75*
G02*
X20500000Y-11808000I-50000J0D01*
G01*
X20500000Y-11808000D02*
G75*
G02*
X20600000Y-11808000I50000J0D01*
G01*
X20600000Y-12062000D02*
G75*
G02*
X20500000Y-12062000I-50000J0D01*
G01*
X20500000Y-12062000D02*
G75*
G02*
X20600000Y-12062000I50000J0D01*
G01*
X20600000Y-12316000D02*
G75*
G02*
X20500000Y-12316000I-50000J0D01*
G01*
X20500000Y-12316000D02*
G75*
G02*
X20600000Y-12316000I50000J0D01*
G01*
X20600000Y-12570000D02*
G75*
G02*
X20500000Y-12570000I-50000J0D01*
G01*
X20500000Y-12570000D02*
G75*
G02*
X20600000Y-12570000I50000J0D01*
G01*
X20600000Y-12824000D02*
G75*
G02*
X20500000Y-12824000I-50000J0D01*
G01*
X20500000Y-12824000D02*
G75*
G02*
X20600000Y-12824000I50000J0D01*
G01*
X20600000Y-13078000D02*
G75*
G02*
X20500000Y-13078000I-50000J0D01*
G01*
X20500000Y-13078000D02*
G75*
G02*
X20600000Y-13078000I50000J0D01*
G01*
X20600000Y-13332000D02*
G75*
G02*
X20500000Y-13332000I-50000J0D01*
G01*
X20500000Y-13332000D02*
G75*
G02*
X20600000Y-13332000I50000J0D01*
G01*
X20600000Y-13586000D02*
G75*
G02*
X20500000Y-13586000I-50000J0D01*
G01*
X20500000Y-13586000D02*
G75*
G02*
X20600000Y-13586000I50000J0D01*
G01*
X20600000Y-13840000D02*
G75*
G02*
X20500000Y-13840000I-50000J0D01*
G01*
X20500000Y-13840000D02*
G75*
G02*
X20600000Y-13840000I50000J0D01*
G01*
X20750000Y-5450000D02*
G75*
G02*
X20650000Y-5450000I-50000J0D01*
G01*
X20650000Y-5450000D02*
G75*
G02*
X20750000Y-5450000I50000J0D01*
G01*
X20750000Y-5650000D02*
G75*
G02*
X20650000Y-5650000I-50000J0D01*
G01*
X20650000Y-5650000D02*
G75*
G02*
X20750000Y-5650000I50000J0D01*
G01*
X20750000Y-5850000D02*
G75*
G02*
X20650000Y-5850000I-50000J0D01*
G01*
X20650000Y-5850000D02*
G75*
G02*
X20750000Y-5850000I50000J0D01*
G01*
X20750000Y-6050000D02*
G75*
G02*
X20650000Y-6050000I-50000J0D01*
G01*
X20650000Y-6050000D02*
G75*
G02*
X20750000Y-6050000I50000J0D01*
G01*
X20950000Y-5450000D02*
G75*
G02*
X20850000Y-5450000I-50000J0D01*
G01*
X20850000Y-5450000D02*
G75*
G02*
X20950000Y-5450000I50000J0D01*
G01*
X20950000Y-5650000D02*
G75*
G02*
X20850000Y-5650000I-50000J0D01*
G01*
X20850000Y-5650000D02*
G75*
G02*
X20950000Y-5650000I50000J0D01*
G01*
X20950000Y-5850000D02*
G75*
G02*
X20850000Y-5850000I-50000J0D01*
G01*
X20850000Y-5850000D02*
G75*
G02*
X20950000Y-5850000I50000J0D01*
G01*
X20950000Y-6050000D02*
G75*
G02*
X20850000Y-6050000I-50000J0D01*
G01*
X20850000Y-6050000D02*
G75*
G02*
X20950000Y-6050000I50000J0D01*
G01*
X21150000Y-5450000D02*
G75*
G02*
X21050000Y-5450000I-50000J0D01*
G01*
X21050000Y-5450000D02*
G75*
G02*
X21150000Y-5450000I50000J0D01*
G01*
X21150000Y-5650000D02*
G75*
G02*
X21050000Y-5650000I-50000J0D01*
G01*
X21050000Y-5650000D02*
G75*
G02*
X21150000Y-5650000I50000J0D01*
G01*
X21150000Y-5850000D02*
G75*
G02*
X21050000Y-5850000I-50000J0D01*
G01*
X21050000Y-5850000D02*
G75*
G02*
X21150000Y-5850000I50000J0D01*
G01*
X21150000Y-6050000D02*
G75*
G02*
X21050000Y-6050000I-50000J0D01*
G01*
X21050000Y-6050000D02*
G75*
G02*
X21150000Y-6050000I50000J0D01*
G01*
X21350000Y-5450000D02*
G75*
G02*
X21250000Y-5450000I-50000J0D01*
G01*
X21250000Y-5450000D02*
G75*
G02*
X21350000Y-5450000I50000J0D01*
G01*
X21350000Y-5650000D02*
G75*
G02*
X21250000Y-5650000I-50000J0D01*
G01*
X21250000Y-5650000D02*
G75*
G02*
X21350000Y-5650000I50000J0D01*
G01*
X21350000Y-5850000D02*
G75*
G02*
X21250000Y-5850000I-50000J0D01*
G01*
X21250000Y-5850000D02*
G75*
G02*
X21350000Y-5850000I50000J0D01*
G01*
X21350000Y-6050000D02*
G75*
G02*
X21250000Y-6050000I-50000J0D01*
G01*
X21250000Y-6050000D02*
G75*
G02*
X21350000Y-6050000I50000J0D01*
G01*
X21350000Y-7796000D02*
G75*
G02*
X21250000Y-7796000I-50000J0D01*
G01*
X21250000Y-7796000D02*
G75*
G02*
X21350000Y-7796000I50000J0D01*
G01*
X21350000Y-8050000D02*
G75*
G02*
X21250000Y-8050000I-50000J0D01*
G01*
X21250000Y-8050000D02*
G75*
G02*
X21350000Y-8050000I50000J0D01*
G01*
X21350000Y-8304000D02*
G75*
G02*
X21250000Y-8304000I-50000J0D01*
G01*
X21250000Y-8304000D02*
G75*
G02*
X21350000Y-8304000I50000J0D01*
G01*
X21350000Y-8558000D02*
G75*
G02*
X21250000Y-8558000I-50000J0D01*
G01*
X21250000Y-8558000D02*
G75*
G02*
X21350000Y-8558000I50000J0D01*
G01*
X21350000Y-11200000D02*
G75*
G02*
X21250000Y-11200000I-50000J0D01*
G01*
X21250000Y-11200000D02*
G75*
G02*
X21350000Y-11200000I50000J0D01*
G01*
X21350000Y-11454000D02*
G75*
G02*
X21250000Y-11454000I-50000J0D01*
G01*
X21250000Y-11454000D02*
G75*
G02*
X21350000Y-11454000I50000J0D01*
G01*
X21350000Y-11708000D02*
G75*
G02*
X21250000Y-11708000I-50000J0D01*
G01*
X21250000Y-11708000D02*
G75*
G02*
X21350000Y-11708000I50000J0D01*
G01*
X21350000Y-11962000D02*
G75*
G02*
X21250000Y-11962000I-50000J0D01*
G01*
X21250000Y-11962000D02*
G75*
G02*
X21350000Y-11962000I50000J0D01*
G01*
X21350000Y-12216000D02*
G75*
G02*
X21250000Y-12216000I-50000J0D01*
G01*
X21250000Y-12216000D02*
G75*
G02*
X21350000Y-12216000I50000J0D01*
G01*
X21350000Y-12470000D02*
G75*
G02*
X21250000Y-12470000I-50000J0D01*
G01*
X21250000Y-12470000D02*
G75*
G02*
X21350000Y-12470000I50000J0D01*
G01*
X21550000Y-5450000D02*
G75*
G02*
X21450000Y-5450000I-50000J0D01*
G01*
X21450000Y-5450000D02*
G75*
G02*
X21550000Y-5450000I50000J0D01*
G01*
X21550000Y-5650000D02*
G75*
G02*
X21450000Y-5650000I-50000J0D01*
G01*
X21450000Y-5650000D02*
G75*
G02*
X21550000Y-5650000I50000J0D01*
G01*
X21550000Y-5850000D02*
G75*
G02*
X21450000Y-5850000I-50000J0D01*
G01*
X21450000Y-5850000D02*
G75*
G02*
X21550000Y-5850000I50000J0D01*
G01*
X21550000Y-6050000D02*
G75*
G02*
X21450000Y-6050000I-50000J0D01*
G01*
X21450000Y-6050000D02*
G75*
G02*
X21550000Y-6050000I50000J0D01*
G01*
X21750000Y-5450000D02*
G75*
G02*
X21650000Y-5450000I-50000J0D01*
G01*
X21650000Y-5450000D02*
G75*
G02*
X21750000Y-5450000I50000J0D01*
G01*
X21750000Y-5650000D02*
G75*
G02*
X21650000Y-5650000I-50000J0D01*
G01*
X21650000Y-5650000D02*
G75*
G02*
X21750000Y-5650000I50000J0D01*
G01*
X21750000Y-5850000D02*
G75*
G02*
X21650000Y-5850000I-50000J0D01*
G01*
X21650000Y-5850000D02*
G75*
G02*
X21750000Y-5850000I50000J0D01*
G01*
X21750000Y-6050000D02*
G75*
G02*
X21650000Y-6050000I-50000J0D01*
G01*
X21650000Y-6050000D02*
G75*
G02*
X21750000Y-6050000I50000J0D01*
G01*
X21950000Y-5450000D02*
G75*
G02*
X21850000Y-5450000I-50000J0D01*
G01*
X21850000Y-5450000D02*
G75*
G02*
X21950000Y-5450000I50000J0D01*
G01*
X21950000Y-5650000D02*
G75*
G02*
X21850000Y-5650000I-50000J0D01*
G01*
X21850000Y-5650000D02*
G75*
G02*
X21950000Y-5650000I50000J0D01*
G01*
X21950000Y-5850000D02*
G75*
G02*
X21850000Y-5850000I-50000J0D01*
G01*
X21850000Y-5850000D02*
G75*
G02*
X21950000Y-5850000I50000J0D01*
G01*
X21950000Y-6050000D02*
G75*
G02*
X21850000Y-6050000I-50000J0D01*
G01*
X21850000Y-6050000D02*
G75*
G02*
X21950000Y-6050000I50000J0D01*
G01*
X22150000Y-5450000D02*
G75*
G02*
X22050000Y-5450000I-50000J0D01*
G01*
X22050000Y-5450000D02*
G75*
G02*
X22150000Y-5450000I50000J0D01*
G01*
X22150000Y-5650000D02*
G75*
G02*
X22050000Y-5650000I-50000J0D01*
G01*
X22050000Y-5650000D02*
G75*
G02*
X22150000Y-5650000I50000J0D01*
G01*
X22150000Y-5850000D02*
G75*
G02*
X22050000Y-5850000I-50000J0D01*
G01*
X22050000Y-5850000D02*
G75*
G02*
X22150000Y-5850000I50000J0D01*
G01*
X22150000Y-6050000D02*
G75*
G02*
X22050000Y-6050000I-50000J0D01*
G01*
X22050000Y-6050000D02*
G75*
G02*
X22150000Y-6050000I50000J0D01*
G01*
X22350000Y-5450000D02*
G75*
G02*
X22250000Y-5450000I-50000J0D01*
G01*
X22250000Y-5450000D02*
G75*
G02*
X22350000Y-5450000I50000J0D01*
G01*
X22350000Y-5650000D02*
G75*
G02*
X22250000Y-5650000I-50000J0D01*
G01*
X22250000Y-5650000D02*
G75*
G02*
X22350000Y-5650000I50000J0D01*
G01*
X22350000Y-5850000D02*
G75*
G02*
X22250000Y-5850000I-50000J0D01*
G01*
X22250000Y-5850000D02*
G75*
G02*
X22350000Y-5850000I50000J0D01*
G01*
X22350000Y-6050000D02*
G75*
G02*
X22250000Y-6050000I-50000J0D01*
G01*
X22250000Y-6050000D02*
G75*
G02*
X22350000Y-6050000I50000J0D01*
G01*
X22550000Y-5450000D02*
G75*
G02*
X22450000Y-5450000I-50000J0D01*
G01*
X22450000Y-5450000D02*
G75*
G02*
X22550000Y-5450000I50000J0D01*
G01*
X22550000Y-5650000D02*
G75*
G02*
X22450000Y-5650000I-50000J0D01*
G01*
X22450000Y-5650000D02*
G75*
G02*
X22550000Y-5650000I50000J0D01*
G01*
X22550000Y-5850000D02*
G75*
G02*
X22450000Y-5850000I-50000J0D01*
G01*
X22450000Y-5850000D02*
G75*
G02*
X22550000Y-5850000I50000J0D01*
G01*
X22550000Y-6050000D02*
G75*
G02*
X22450000Y-6050000I-50000J0D01*
G01*
X22450000Y-6050000D02*
G75*
G02*
X22550000Y-6050000I50000J0D01*
G01*
X22750000Y-5450000D02*
G75*
G02*
X22650000Y-5450000I-50000J0D01*
G01*
X22650000Y-5450000D02*
G75*
G02*
X22750000Y-5450000I50000J0D01*
G01*
X22750000Y-5650000D02*
G75*
G02*
X22650000Y-5650000I-50000J0D01*
G01*
X22650000Y-5650000D02*
G75*
G02*
X22750000Y-5650000I50000J0D01*
G01*
X22750000Y-5850000D02*
G75*
G02*
X22650000Y-5850000I-50000J0D01*
G01*
X22650000Y-5850000D02*
G75*
G02*
X22750000Y-5850000I50000J0D01*
G01*
X22750000Y-6050000D02*
G75*
G02*
X22650000Y-6050000I-50000J0D01*
G01*
X22650000Y-6050000D02*
G75*
G02*
X22750000Y-6050000I50000J0D01*
G01*
X22950000Y-5450000D02*
G75*
G02*
X22850000Y-5450000I-50000J0D01*
G01*
X22850000Y-5450000D02*
G75*
G02*
X22950000Y-5450000I50000J0D01*
G01*
X22950000Y-5650000D02*
G75*
G02*
X22850000Y-5650000I-50000J0D01*
G01*
X22850000Y-5650000D02*
G75*
G02*
X22950000Y-5650000I50000J0D01*
G01*
X22950000Y-5850000D02*
G75*
G02*
X22850000Y-5850000I-50000J0D01*
G01*
X22850000Y-5850000D02*
G75*
G02*
X22950000Y-5850000I50000J0D01*
G01*
X22950000Y-6050000D02*
G75*
G02*
X22850000Y-6050000I-50000J0D01*
G01*
X22850000Y-6050000D02*
G75*
G02*
X22950000Y-6050000I50000J0D01*
G01*
X23150000Y-5450000D02*
G75*
G02*
X23050000Y-5450000I-50000J0D01*
G01*
X23050000Y-5450000D02*
G75*
G02*
X23150000Y-5450000I50000J0D01*
G01*
X23150000Y-5650000D02*
G75*
G02*
X23050000Y-5650000I-50000J0D01*
G01*
X23050000Y-5650000D02*
G75*
G02*
X23150000Y-5650000I50000J0D01*
G01*
X23150000Y-5850000D02*
G75*
G02*
X23050000Y-5850000I-50000J0D01*
G01*
X23050000Y-5850000D02*
G75*
G02*
X23150000Y-5850000I50000J0D01*
G01*
X23150000Y-6050000D02*
G75*
G02*
X23050000Y-6050000I-50000J0D01*
G01*
X23050000Y-6050000D02*
G75*
G02*
X23150000Y-6050000I50000J0D01*
G01*
X23350000Y-5450000D02*
G75*
G02*
X23250000Y-5450000I-50000J0D01*
G01*
X23250000Y-5450000D02*
G75*
G02*
X23350000Y-5450000I50000J0D01*
G01*
X23350000Y-5650000D02*
G75*
G02*
X23250000Y-5650000I-50000J0D01*
G01*
X23250000Y-5650000D02*
G75*
G02*
X23350000Y-5650000I50000J0D01*
G01*
X23350000Y-5850000D02*
G75*
G02*
X23250000Y-5850000I-50000J0D01*
G01*
X23250000Y-5850000D02*
G75*
G02*
X23350000Y-5850000I50000J0D01*
G01*
X23350000Y-6050000D02*
G75*
G02*
X23250000Y-6050000I-50000J0D01*
G01*
X23250000Y-6050000D02*
G75*
G02*
X23350000Y-6050000I50000J0D01*
G01*
D11*
X15958277Y-14863984D02*
X15958277Y-14663984D01*
X15958277Y-14663984D02*
X16005896Y-14663984D01*
X16005896Y-14663984D02*
X16034467Y-14673508D01*
X16034467Y-14673508D02*
X16053515Y-14692555D01*
X16053515Y-14692555D02*
X16063039Y-14711603D01*
X16063039Y-14711603D02*
X16072562Y-14749698D01*
X16072562Y-14749698D02*
X16072562Y-14778269D01*
X16072562Y-14778269D02*
X16063039Y-14816365D01*
X16063039Y-14816365D02*
X16053515Y-14835412D01*
X16053515Y-14835412D02*
X16034467Y-14854460D01*
X16034467Y-14854460D02*
X16005896Y-14863984D01*
X16005896Y-14863984D02*
X15958277Y-14863984D01*
X16158277Y-14863984D02*
X16158277Y-14730650D01*
X16158277Y-14768746D02*
X16167801Y-14749698D01*
X16167801Y-14749698D02*
X16177324Y-14740174D01*
X16177324Y-14740174D02*
X16196372Y-14730650D01*
X16196372Y-14730650D02*
X16215420Y-14730650D01*
X16282086Y-14863984D02*
X16282086Y-14730650D01*
X16282086Y-14663984D02*
X16272562Y-14673508D01*
X16272562Y-14673508D02*
X16282086Y-14683031D01*
X16282086Y-14683031D02*
X16291610Y-14673508D01*
X16291610Y-14673508D02*
X16282086Y-14663984D01*
X16282086Y-14663984D02*
X16282086Y-14683031D01*
X16405896Y-14863984D02*
X16386848Y-14854460D01*
X16386848Y-14854460D02*
X16377324Y-14835412D01*
X16377324Y-14835412D02*
X16377324Y-14663984D01*
X16510658Y-14863984D02*
X16491610Y-14854460D01*
X16491610Y-14854460D02*
X16482086Y-14835412D01*
X16482086Y-14835412D02*
X16482086Y-14663984D01*
X16739229Y-14863984D02*
X16739229Y-14663984D01*
X16739229Y-14663984D02*
X16805896Y-14806841D01*
X16805896Y-14806841D02*
X16872563Y-14663984D01*
X16872563Y-14663984D02*
X16872563Y-14863984D01*
X17053515Y-14863984D02*
X17053515Y-14759222D01*
X17053515Y-14759222D02*
X17043991Y-14740174D01*
X17043991Y-14740174D02*
X17024944Y-14730650D01*
X17024944Y-14730650D02*
X16986848Y-14730650D01*
X16986848Y-14730650D02*
X16967801Y-14740174D01*
X17053515Y-14854460D02*
X17034467Y-14863984D01*
X17034467Y-14863984D02*
X16986848Y-14863984D01*
X16986848Y-14863984D02*
X16967801Y-14854460D01*
X16967801Y-14854460D02*
X16958277Y-14835412D01*
X16958277Y-14835412D02*
X16958277Y-14816365D01*
X16958277Y-14816365D02*
X16967801Y-14797317D01*
X16967801Y-14797317D02*
X16986848Y-14787793D01*
X16986848Y-14787793D02*
X17034467Y-14787793D01*
X17034467Y-14787793D02*
X17053515Y-14778269D01*
X17148753Y-14730650D02*
X17148753Y-14930650D01*
X17148753Y-14740174D02*
X17167801Y-14730650D01*
X17167801Y-14730650D02*
X17205896Y-14730650D01*
X17205896Y-14730650D02*
X17224944Y-14740174D01*
X17224944Y-14740174D02*
X17234467Y-14749698D01*
X17234467Y-14749698D02*
X17243991Y-14768746D01*
X17243991Y-14768746D02*
X17243991Y-14825888D01*
X17243991Y-14825888D02*
X17234467Y-14844936D01*
X17234467Y-14844936D02*
X17224944Y-14854460D01*
X17224944Y-14854460D02*
X17205896Y-14863984D01*
X17205896Y-14863984D02*
X17167801Y-14863984D01*
X17167801Y-14863984D02*
X17148753Y-14854460D01*
X17329705Y-14844936D02*
X17339229Y-14854460D01*
X17339229Y-14854460D02*
X17329705Y-14863984D01*
X17329705Y-14863984D02*
X17320182Y-14854460D01*
X17320182Y-14854460D02*
X17329705Y-14844936D01*
X17329705Y-14844936D02*
X17329705Y-14863984D01*
X17329705Y-14740174D02*
X17339229Y-14749698D01*
X17339229Y-14749698D02*
X17329705Y-14759222D01*
X17329705Y-14759222D02*
X17320182Y-14749698D01*
X17320182Y-14749698D02*
X17329705Y-14740174D01*
X17329705Y-14740174D02*
X17329705Y-14759222D01*
D12*
X15667500Y-15177500D02*
X15697500Y-15207500D01*
X15697500Y-15177500D02*
X15667500Y-15207500D01*
D11*
X15996372Y-15083984D02*
X16015420Y-15083984D01*
X16015420Y-15083984D02*
X16034467Y-15093508D01*
X16034467Y-15093508D02*
X16043991Y-15103031D01*
X16043991Y-15103031D02*
X16053515Y-15122079D01*
X16053515Y-15122079D02*
X16063039Y-15160174D01*
X16063039Y-15160174D02*
X16063039Y-15207793D01*
X16063039Y-15207793D02*
X16053515Y-15245888D01*
X16053515Y-15245888D02*
X16043991Y-15264936D01*
X16043991Y-15264936D02*
X16034467Y-15274460D01*
X16034467Y-15274460D02*
X16015420Y-15283984D01*
X16015420Y-15283984D02*
X15996372Y-15283984D01*
X15996372Y-15283984D02*
X15977324Y-15274460D01*
X15977324Y-15274460D02*
X15967801Y-15264936D01*
X15967801Y-15264936D02*
X15958277Y-15245888D01*
X15958277Y-15245888D02*
X15948753Y-15207793D01*
X15948753Y-15207793D02*
X15948753Y-15160174D01*
X15948753Y-15160174D02*
X15958277Y-15122079D01*
X15958277Y-15122079D02*
X15967801Y-15103031D01*
X15967801Y-15103031D02*
X15977324Y-15093508D01*
X15977324Y-15093508D02*
X15996372Y-15083984D01*
X16148753Y-15264936D02*
X16158277Y-15274460D01*
X16158277Y-15274460D02*
X16148753Y-15283984D01*
X16148753Y-15283984D02*
X16139229Y-15274460D01*
X16139229Y-15274460D02*
X16148753Y-15264936D01*
X16148753Y-15264936D02*
X16148753Y-15283984D01*
X16224943Y-15083984D02*
X16348753Y-15083984D01*
X16348753Y-15083984D02*
X16282086Y-15160174D01*
X16282086Y-15160174D02*
X16310658Y-15160174D01*
X16310658Y-15160174D02*
X16329705Y-15169698D01*
X16329705Y-15169698D02*
X16339229Y-15179222D01*
X16339229Y-15179222D02*
X16348753Y-15198269D01*
X16348753Y-15198269D02*
X16348753Y-15245888D01*
X16348753Y-15245888D02*
X16339229Y-15264936D01*
X16339229Y-15264936D02*
X16329705Y-15274460D01*
X16329705Y-15274460D02*
X16310658Y-15283984D01*
X16310658Y-15283984D02*
X16253515Y-15283984D01*
X16253515Y-15283984D02*
X16234467Y-15274460D01*
X16234467Y-15274460D02*
X16224943Y-15264936D01*
X16472562Y-15083984D02*
X16491610Y-15083984D01*
X16491610Y-15083984D02*
X16510658Y-15093508D01*
X16510658Y-15093508D02*
X16520182Y-15103031D01*
X16520182Y-15103031D02*
X16529705Y-15122079D01*
X16529705Y-15122079D02*
X16539229Y-15160174D01*
X16539229Y-15160174D02*
X16539229Y-15207793D01*
X16539229Y-15207793D02*
X16529705Y-15245888D01*
X16529705Y-15245888D02*
X16520182Y-15264936D01*
X16520182Y-15264936D02*
X16510658Y-15274460D01*
X16510658Y-15274460D02*
X16491610Y-15283984D01*
X16491610Y-15283984D02*
X16472562Y-15283984D01*
X16472562Y-15283984D02*
X16453515Y-15274460D01*
X16453515Y-15274460D02*
X16443991Y-15264936D01*
X16443991Y-15264936D02*
X16434467Y-15245888D01*
X16434467Y-15245888D02*
X16424943Y-15207793D01*
X16424943Y-15207793D02*
X16424943Y-15160174D01*
X16424943Y-15160174D02*
X16434467Y-15122079D01*
X16434467Y-15122079D02*
X16443991Y-15103031D01*
X16443991Y-15103031D02*
X16453515Y-15093508D01*
X16453515Y-15093508D02*
X16472562Y-15083984D01*
X16663039Y-15083984D02*
X16682086Y-15083984D01*
X16682086Y-15083984D02*
X16701134Y-15093508D01*
X16701134Y-15093508D02*
X16710658Y-15103031D01*
X16710658Y-15103031D02*
X16720182Y-15122079D01*
X16720182Y-15122079D02*
X16729705Y-15160174D01*
X16729705Y-15160174D02*
X16729705Y-15207793D01*
X16729705Y-15207793D02*
X16720182Y-15245888D01*
X16720182Y-15245888D02*
X16710658Y-15264936D01*
X16710658Y-15264936D02*
X16701134Y-15274460D01*
X16701134Y-15274460D02*
X16682086Y-15283984D01*
X16682086Y-15283984D02*
X16663039Y-15283984D01*
X16663039Y-15283984D02*
X16643991Y-15274460D01*
X16643991Y-15274460D02*
X16634467Y-15264936D01*
X16634467Y-15264936D02*
X16624943Y-15245888D01*
X16624943Y-15245888D02*
X16615420Y-15207793D01*
X16615420Y-15207793D02*
X16615420Y-15160174D01*
X16615420Y-15160174D02*
X16624943Y-15122079D01*
X16624943Y-15122079D02*
X16634467Y-15103031D01*
X16634467Y-15103031D02*
X16643991Y-15093508D01*
X16643991Y-15093508D02*
X16663039Y-15083984D01*
X16815420Y-15283984D02*
X16815420Y-15150650D01*
X16815420Y-15169698D02*
X16824944Y-15160174D01*
X16824944Y-15160174D02*
X16843991Y-15150650D01*
X16843991Y-15150650D02*
X16872563Y-15150650D01*
X16872563Y-15150650D02*
X16891610Y-15160174D01*
X16891610Y-15160174D02*
X16901134Y-15179222D01*
X16901134Y-15179222D02*
X16901134Y-15283984D01*
X16901134Y-15179222D02*
X16910658Y-15160174D01*
X16910658Y-15160174D02*
X16929705Y-15150650D01*
X16929705Y-15150650D02*
X16958277Y-15150650D01*
X16958277Y-15150650D02*
X16977325Y-15160174D01*
X16977325Y-15160174D02*
X16986848Y-15179222D01*
X16986848Y-15179222D02*
X16986848Y-15283984D01*
X17082086Y-15283984D02*
X17082086Y-15150650D01*
X17082086Y-15169698D02*
X17091610Y-15160174D01*
X17091610Y-15160174D02*
X17110658Y-15150650D01*
X17110658Y-15150650D02*
X17139229Y-15150650D01*
X17139229Y-15150650D02*
X17158277Y-15160174D01*
X17158277Y-15160174D02*
X17167801Y-15179222D01*
X17167801Y-15179222D02*
X17167801Y-15283984D01*
X17167801Y-15179222D02*
X17177325Y-15160174D01*
X17177325Y-15160174D02*
X17196372Y-15150650D01*
X17196372Y-15150650D02*
X17224944Y-15150650D01*
X17224944Y-15150650D02*
X17243991Y-15160174D01*
X17243991Y-15160174D02*
X17253515Y-15179222D01*
X17253515Y-15179222D02*
X17253515Y-15283984D01*
X17643991Y-15074460D02*
X17472563Y-15331603D01*
X17901134Y-15083984D02*
X17920182Y-15083984D01*
X17920182Y-15083984D02*
X17939229Y-15093508D01*
X17939229Y-15093508D02*
X17948753Y-15103031D01*
X17948753Y-15103031D02*
X17958277Y-15122079D01*
X17958277Y-15122079D02*
X17967801Y-15160174D01*
X17967801Y-15160174D02*
X17967801Y-15207793D01*
X17967801Y-15207793D02*
X17958277Y-15245888D01*
X17958277Y-15245888D02*
X17948753Y-15264936D01*
X17948753Y-15264936D02*
X17939229Y-15274460D01*
X17939229Y-15274460D02*
X17920182Y-15283984D01*
X17920182Y-15283984D02*
X17901134Y-15283984D01*
X17901134Y-15283984D02*
X17882087Y-15274460D01*
X17882087Y-15274460D02*
X17872563Y-15264936D01*
X17872563Y-15264936D02*
X17863039Y-15245888D01*
X17863039Y-15245888D02*
X17853515Y-15207793D01*
X17853515Y-15207793D02*
X17853515Y-15160174D01*
X17853515Y-15160174D02*
X17863039Y-15122079D01*
X17863039Y-15122079D02*
X17872563Y-15103031D01*
X17872563Y-15103031D02*
X17882087Y-15093508D01*
X17882087Y-15093508D02*
X17901134Y-15083984D01*
X18053515Y-15264936D02*
X18063039Y-15274460D01*
X18063039Y-15274460D02*
X18053515Y-15283984D01*
X18053515Y-15283984D02*
X18043991Y-15274460D01*
X18043991Y-15274460D02*
X18053515Y-15264936D01*
X18053515Y-15264936D02*
X18053515Y-15283984D01*
X18186848Y-15083984D02*
X18205896Y-15083984D01*
X18205896Y-15083984D02*
X18224944Y-15093508D01*
X18224944Y-15093508D02*
X18234468Y-15103031D01*
X18234468Y-15103031D02*
X18243991Y-15122079D01*
X18243991Y-15122079D02*
X18253515Y-15160174D01*
X18253515Y-15160174D02*
X18253515Y-15207793D01*
X18253515Y-15207793D02*
X18243991Y-15245888D01*
X18243991Y-15245888D02*
X18234468Y-15264936D01*
X18234468Y-15264936D02*
X18224944Y-15274460D01*
X18224944Y-15274460D02*
X18205896Y-15283984D01*
X18205896Y-15283984D02*
X18186848Y-15283984D01*
X18186848Y-15283984D02*
X18167801Y-15274460D01*
X18167801Y-15274460D02*
X18158277Y-15264936D01*
X18158277Y-15264936D02*
X18148753Y-15245888D01*
X18148753Y-15245888D02*
X18139229Y-15207793D01*
X18139229Y-15207793D02*
X18139229Y-15160174D01*
X18139229Y-15160174D02*
X18148753Y-15122079D01*
X18148753Y-15122079D02*
X18158277Y-15103031D01*
X18158277Y-15103031D02*
X18167801Y-15093508D01*
X18167801Y-15093508D02*
X18186848Y-15083984D01*
X18443991Y-15283984D02*
X18329706Y-15283984D01*
X18386848Y-15283984D02*
X18386848Y-15083984D01*
X18386848Y-15083984D02*
X18367801Y-15112555D01*
X18367801Y-15112555D02*
X18348753Y-15131603D01*
X18348753Y-15131603D02*
X18329706Y-15141127D01*
X18634468Y-15283984D02*
X18520182Y-15283984D01*
X18577325Y-15283984D02*
X18577325Y-15083984D01*
X18577325Y-15083984D02*
X18558277Y-15112555D01*
X18558277Y-15112555D02*
X18539229Y-15131603D01*
X18539229Y-15131603D02*
X18520182Y-15141127D01*
X18748753Y-15169698D02*
X18729706Y-15160174D01*
X18729706Y-15160174D02*
X18720182Y-15150650D01*
X18720182Y-15150650D02*
X18710658Y-15131603D01*
X18710658Y-15131603D02*
X18710658Y-15122079D01*
X18710658Y-15122079D02*
X18720182Y-15103031D01*
X18720182Y-15103031D02*
X18729706Y-15093508D01*
X18729706Y-15093508D02*
X18748753Y-15083984D01*
X18748753Y-15083984D02*
X18786849Y-15083984D01*
X18786849Y-15083984D02*
X18805896Y-15093508D01*
X18805896Y-15093508D02*
X18815420Y-15103031D01*
X18815420Y-15103031D02*
X18824944Y-15122079D01*
X18824944Y-15122079D02*
X18824944Y-15131603D01*
X18824944Y-15131603D02*
X18815420Y-15150650D01*
X18815420Y-15150650D02*
X18805896Y-15160174D01*
X18805896Y-15160174D02*
X18786849Y-15169698D01*
X18786849Y-15169698D02*
X18748753Y-15169698D01*
X18748753Y-15169698D02*
X18729706Y-15179222D01*
X18729706Y-15179222D02*
X18720182Y-15188746D01*
X18720182Y-15188746D02*
X18710658Y-15207793D01*
X18710658Y-15207793D02*
X18710658Y-15245888D01*
X18710658Y-15245888D02*
X18720182Y-15264936D01*
X18720182Y-15264936D02*
X18729706Y-15274460D01*
X18729706Y-15274460D02*
X18748753Y-15283984D01*
X18748753Y-15283984D02*
X18786849Y-15283984D01*
X18786849Y-15283984D02*
X18805896Y-15274460D01*
X18805896Y-15274460D02*
X18815420Y-15264936D01*
X18815420Y-15264936D02*
X18824944Y-15245888D01*
X18824944Y-15245888D02*
X18824944Y-15207793D01*
X18824944Y-15207793D02*
X18815420Y-15188746D01*
X18815420Y-15188746D02*
X18805896Y-15179222D01*
X18805896Y-15179222D02*
X18786849Y-15169698D01*
X18901134Y-15083984D02*
X18901134Y-15122079D01*
X18977325Y-15083984D02*
X18977325Y-15122079D01*
X19272563Y-15360174D02*
X19263039Y-15350650D01*
X19263039Y-15350650D02*
X19243991Y-15322079D01*
X19243991Y-15322079D02*
X19234468Y-15303031D01*
X19234468Y-15303031D02*
X19224944Y-15274460D01*
X19224944Y-15274460D02*
X19215420Y-15226841D01*
X19215420Y-15226841D02*
X19215420Y-15188746D01*
X19215420Y-15188746D02*
X19224944Y-15141127D01*
X19224944Y-15141127D02*
X19234468Y-15112555D01*
X19234468Y-15112555D02*
X19243991Y-15093508D01*
X19243991Y-15093508D02*
X19263039Y-15064936D01*
X19263039Y-15064936D02*
X19272563Y-15055412D01*
X19443991Y-15083984D02*
X19348753Y-15083984D01*
X19348753Y-15083984D02*
X19339230Y-15179222D01*
X19339230Y-15179222D02*
X19348753Y-15169698D01*
X19348753Y-15169698D02*
X19367801Y-15160174D01*
X19367801Y-15160174D02*
X19415420Y-15160174D01*
X19415420Y-15160174D02*
X19434468Y-15169698D01*
X19434468Y-15169698D02*
X19443991Y-15179222D01*
X19443991Y-15179222D02*
X19453515Y-15198269D01*
X19453515Y-15198269D02*
X19453515Y-15245888D01*
X19453515Y-15245888D02*
X19443991Y-15264936D01*
X19443991Y-15264936D02*
X19434468Y-15274460D01*
X19434468Y-15274460D02*
X19415420Y-15283984D01*
X19415420Y-15283984D02*
X19367801Y-15283984D01*
X19367801Y-15283984D02*
X19348753Y-15274460D01*
X19348753Y-15274460D02*
X19339230Y-15264936D01*
X19691611Y-15283984D02*
X19691611Y-15083984D01*
X19777325Y-15283984D02*
X19777325Y-15179222D01*
X19777325Y-15179222D02*
X19767801Y-15160174D01*
X19767801Y-15160174D02*
X19748753Y-15150650D01*
X19748753Y-15150650D02*
X19720182Y-15150650D01*
X19720182Y-15150650D02*
X19701134Y-15160174D01*
X19701134Y-15160174D02*
X19691611Y-15169698D01*
X19901134Y-15283984D02*
X19882087Y-15274460D01*
X19882087Y-15274460D02*
X19872563Y-15264936D01*
X19872563Y-15264936D02*
X19863039Y-15245888D01*
X19863039Y-15245888D02*
X19863039Y-15188746D01*
X19863039Y-15188746D02*
X19872563Y-15169698D01*
X19872563Y-15169698D02*
X19882087Y-15160174D01*
X19882087Y-15160174D02*
X19901134Y-15150650D01*
X19901134Y-15150650D02*
X19929706Y-15150650D01*
X19929706Y-15150650D02*
X19948753Y-15160174D01*
X19948753Y-15160174D02*
X19958277Y-15169698D01*
X19958277Y-15169698D02*
X19967801Y-15188746D01*
X19967801Y-15188746D02*
X19967801Y-15245888D01*
X19967801Y-15245888D02*
X19958277Y-15264936D01*
X19958277Y-15264936D02*
X19948753Y-15274460D01*
X19948753Y-15274460D02*
X19929706Y-15283984D01*
X19929706Y-15283984D02*
X19901134Y-15283984D01*
X20082087Y-15283984D02*
X20063039Y-15274460D01*
X20063039Y-15274460D02*
X20053515Y-15255412D01*
X20053515Y-15255412D02*
X20053515Y-15083984D01*
X20234468Y-15274460D02*
X20215420Y-15283984D01*
X20215420Y-15283984D02*
X20177325Y-15283984D01*
X20177325Y-15283984D02*
X20158277Y-15274460D01*
X20158277Y-15274460D02*
X20148753Y-15255412D01*
X20148753Y-15255412D02*
X20148753Y-15179222D01*
X20148753Y-15179222D02*
X20158277Y-15160174D01*
X20158277Y-15160174D02*
X20177325Y-15150650D01*
X20177325Y-15150650D02*
X20215420Y-15150650D01*
X20215420Y-15150650D02*
X20234468Y-15160174D01*
X20234468Y-15160174D02*
X20243992Y-15179222D01*
X20243992Y-15179222D02*
X20243992Y-15198269D01*
X20243992Y-15198269D02*
X20148753Y-15217317D01*
X20320182Y-15274460D02*
X20339230Y-15283984D01*
X20339230Y-15283984D02*
X20377325Y-15283984D01*
X20377325Y-15283984D02*
X20396373Y-15274460D01*
X20396373Y-15274460D02*
X20405896Y-15255412D01*
X20405896Y-15255412D02*
X20405896Y-15245888D01*
X20405896Y-15245888D02*
X20396373Y-15226841D01*
X20396373Y-15226841D02*
X20377325Y-15217317D01*
X20377325Y-15217317D02*
X20348753Y-15217317D01*
X20348753Y-15217317D02*
X20329706Y-15207793D01*
X20329706Y-15207793D02*
X20320182Y-15188746D01*
X20320182Y-15188746D02*
X20320182Y-15179222D01*
X20320182Y-15179222D02*
X20329706Y-15160174D01*
X20329706Y-15160174D02*
X20348753Y-15150650D01*
X20348753Y-15150650D02*
X20377325Y-15150650D01*
X20377325Y-15150650D02*
X20396373Y-15160174D01*
X20472563Y-15360174D02*
X20482087Y-15350650D01*
X20482087Y-15350650D02*
X20501134Y-15322079D01*
X20501134Y-15322079D02*
X20510658Y-15303031D01*
X20510658Y-15303031D02*
X20520182Y-15274460D01*
X20520182Y-15274460D02*
X20529706Y-15226841D01*
X20529706Y-15226841D02*
X20529706Y-15188746D01*
X20529706Y-15188746D02*
X20520182Y-15141127D01*
X20520182Y-15141127D02*
X20510658Y-15112555D01*
X20510658Y-15112555D02*
X20501134Y-15093508D01*
X20501134Y-15093508D02*
X20482087Y-15064936D01*
X20482087Y-15064936D02*
X20472563Y-15055412D01*
D12*
X15697500Y-15456500D02*
G75*
G02*
X15597500Y-15456500I-50000J0D01*
G01*
X15597500Y-15456500D02*
G75*
G02*
X15697500Y-15456500I50000J0D01*
G01*
D11*
X16063039Y-15547984D02*
X15948753Y-15547984D01*
X16005896Y-15547984D02*
X16005896Y-15347984D01*
X16005896Y-15347984D02*
X15986848Y-15376555D01*
X15986848Y-15376555D02*
X15967801Y-15395603D01*
X15967801Y-15395603D02*
X15948753Y-15405127D01*
X16148753Y-15528936D02*
X16158277Y-15538460D01*
X16158277Y-15538460D02*
X16148753Y-15547984D01*
X16148753Y-15547984D02*
X16139229Y-15538460D01*
X16139229Y-15538460D02*
X16148753Y-15528936D01*
X16148753Y-15528936D02*
X16148753Y-15547984D01*
X16282086Y-15347984D02*
X16301134Y-15347984D01*
X16301134Y-15347984D02*
X16320182Y-15357508D01*
X16320182Y-15357508D02*
X16329705Y-15367031D01*
X16329705Y-15367031D02*
X16339229Y-15386079D01*
X16339229Y-15386079D02*
X16348753Y-15424174D01*
X16348753Y-15424174D02*
X16348753Y-15471793D01*
X16348753Y-15471793D02*
X16339229Y-15509888D01*
X16339229Y-15509888D02*
X16329705Y-15528936D01*
X16329705Y-15528936D02*
X16320182Y-15538460D01*
X16320182Y-15538460D02*
X16301134Y-15547984D01*
X16301134Y-15547984D02*
X16282086Y-15547984D01*
X16282086Y-15547984D02*
X16263039Y-15538460D01*
X16263039Y-15538460D02*
X16253515Y-15528936D01*
X16253515Y-15528936D02*
X16243991Y-15509888D01*
X16243991Y-15509888D02*
X16234467Y-15471793D01*
X16234467Y-15471793D02*
X16234467Y-15424174D01*
X16234467Y-15424174D02*
X16243991Y-15386079D01*
X16243991Y-15386079D02*
X16253515Y-15367031D01*
X16253515Y-15367031D02*
X16263039Y-15357508D01*
X16263039Y-15357508D02*
X16282086Y-15347984D01*
X16472562Y-15347984D02*
X16491610Y-15347984D01*
X16491610Y-15347984D02*
X16510658Y-15357508D01*
X16510658Y-15357508D02*
X16520182Y-15367031D01*
X16520182Y-15367031D02*
X16529705Y-15386079D01*
X16529705Y-15386079D02*
X16539229Y-15424174D01*
X16539229Y-15424174D02*
X16539229Y-15471793D01*
X16539229Y-15471793D02*
X16529705Y-15509888D01*
X16529705Y-15509888D02*
X16520182Y-15528936D01*
X16520182Y-15528936D02*
X16510658Y-15538460D01*
X16510658Y-15538460D02*
X16491610Y-15547984D01*
X16491610Y-15547984D02*
X16472562Y-15547984D01*
X16472562Y-15547984D02*
X16453515Y-15538460D01*
X16453515Y-15538460D02*
X16443991Y-15528936D01*
X16443991Y-15528936D02*
X16434467Y-15509888D01*
X16434467Y-15509888D02*
X16424943Y-15471793D01*
X16424943Y-15471793D02*
X16424943Y-15424174D01*
X16424943Y-15424174D02*
X16434467Y-15386079D01*
X16434467Y-15386079D02*
X16443991Y-15367031D01*
X16443991Y-15367031D02*
X16453515Y-15357508D01*
X16453515Y-15357508D02*
X16472562Y-15347984D01*
X16663039Y-15347984D02*
X16682086Y-15347984D01*
X16682086Y-15347984D02*
X16701134Y-15357508D01*
X16701134Y-15357508D02*
X16710658Y-15367031D01*
X16710658Y-15367031D02*
X16720182Y-15386079D01*
X16720182Y-15386079D02*
X16729705Y-15424174D01*
X16729705Y-15424174D02*
X16729705Y-15471793D01*
X16729705Y-15471793D02*
X16720182Y-15509888D01*
X16720182Y-15509888D02*
X16710658Y-15528936D01*
X16710658Y-15528936D02*
X16701134Y-15538460D01*
X16701134Y-15538460D02*
X16682086Y-15547984D01*
X16682086Y-15547984D02*
X16663039Y-15547984D01*
X16663039Y-15547984D02*
X16643991Y-15538460D01*
X16643991Y-15538460D02*
X16634467Y-15528936D01*
X16634467Y-15528936D02*
X16624943Y-15509888D01*
X16624943Y-15509888D02*
X16615420Y-15471793D01*
X16615420Y-15471793D02*
X16615420Y-15424174D01*
X16615420Y-15424174D02*
X16624943Y-15386079D01*
X16624943Y-15386079D02*
X16634467Y-15367031D01*
X16634467Y-15367031D02*
X16643991Y-15357508D01*
X16643991Y-15357508D02*
X16663039Y-15347984D01*
X16815420Y-15547984D02*
X16815420Y-15414650D01*
X16815420Y-15433698D02*
X16824944Y-15424174D01*
X16824944Y-15424174D02*
X16843991Y-15414650D01*
X16843991Y-15414650D02*
X16872563Y-15414650D01*
X16872563Y-15414650D02*
X16891610Y-15424174D01*
X16891610Y-15424174D02*
X16901134Y-15443222D01*
X16901134Y-15443222D02*
X16901134Y-15547984D01*
X16901134Y-15443222D02*
X16910658Y-15424174D01*
X16910658Y-15424174D02*
X16929705Y-15414650D01*
X16929705Y-15414650D02*
X16958277Y-15414650D01*
X16958277Y-15414650D02*
X16977325Y-15424174D01*
X16977325Y-15424174D02*
X16986848Y-15443222D01*
X16986848Y-15443222D02*
X16986848Y-15547984D01*
X17082086Y-15547984D02*
X17082086Y-15414650D01*
X17082086Y-15433698D02*
X17091610Y-15424174D01*
X17091610Y-15424174D02*
X17110658Y-15414650D01*
X17110658Y-15414650D02*
X17139229Y-15414650D01*
X17139229Y-15414650D02*
X17158277Y-15424174D01*
X17158277Y-15424174D02*
X17167801Y-15443222D01*
X17167801Y-15443222D02*
X17167801Y-15547984D01*
X17167801Y-15443222D02*
X17177325Y-15424174D01*
X17177325Y-15424174D02*
X17196372Y-15414650D01*
X17196372Y-15414650D02*
X17224944Y-15414650D01*
X17224944Y-15414650D02*
X17243991Y-15424174D01*
X17243991Y-15424174D02*
X17253515Y-15443222D01*
X17253515Y-15443222D02*
X17253515Y-15547984D01*
X17643991Y-15338460D02*
X17472563Y-15595603D01*
X17901134Y-15347984D02*
X17920182Y-15347984D01*
X17920182Y-15347984D02*
X17939229Y-15357508D01*
X17939229Y-15357508D02*
X17948753Y-15367031D01*
X17948753Y-15367031D02*
X17958277Y-15386079D01*
X17958277Y-15386079D02*
X17967801Y-15424174D01*
X17967801Y-15424174D02*
X17967801Y-15471793D01*
X17967801Y-15471793D02*
X17958277Y-15509888D01*
X17958277Y-15509888D02*
X17948753Y-15528936D01*
X17948753Y-15528936D02*
X17939229Y-15538460D01*
X17939229Y-15538460D02*
X17920182Y-15547984D01*
X17920182Y-15547984D02*
X17901134Y-15547984D01*
X17901134Y-15547984D02*
X17882087Y-15538460D01*
X17882087Y-15538460D02*
X17872563Y-15528936D01*
X17872563Y-15528936D02*
X17863039Y-15509888D01*
X17863039Y-15509888D02*
X17853515Y-15471793D01*
X17853515Y-15471793D02*
X17853515Y-15424174D01*
X17853515Y-15424174D02*
X17863039Y-15386079D01*
X17863039Y-15386079D02*
X17872563Y-15367031D01*
X17872563Y-15367031D02*
X17882087Y-15357508D01*
X17882087Y-15357508D02*
X17901134Y-15347984D01*
X18053515Y-15528936D02*
X18063039Y-15538460D01*
X18063039Y-15538460D02*
X18053515Y-15547984D01*
X18053515Y-15547984D02*
X18043991Y-15538460D01*
X18043991Y-15538460D02*
X18053515Y-15528936D01*
X18053515Y-15528936D02*
X18053515Y-15547984D01*
X18186848Y-15347984D02*
X18205896Y-15347984D01*
X18205896Y-15347984D02*
X18224944Y-15357508D01*
X18224944Y-15357508D02*
X18234468Y-15367031D01*
X18234468Y-15367031D02*
X18243991Y-15386079D01*
X18243991Y-15386079D02*
X18253515Y-15424174D01*
X18253515Y-15424174D02*
X18253515Y-15471793D01*
X18253515Y-15471793D02*
X18243991Y-15509888D01*
X18243991Y-15509888D02*
X18234468Y-15528936D01*
X18234468Y-15528936D02*
X18224944Y-15538460D01*
X18224944Y-15538460D02*
X18205896Y-15547984D01*
X18205896Y-15547984D02*
X18186848Y-15547984D01*
X18186848Y-15547984D02*
X18167801Y-15538460D01*
X18167801Y-15538460D02*
X18158277Y-15528936D01*
X18158277Y-15528936D02*
X18148753Y-15509888D01*
X18148753Y-15509888D02*
X18139229Y-15471793D01*
X18139229Y-15471793D02*
X18139229Y-15424174D01*
X18139229Y-15424174D02*
X18148753Y-15386079D01*
X18148753Y-15386079D02*
X18158277Y-15367031D01*
X18158277Y-15367031D02*
X18167801Y-15357508D01*
X18167801Y-15357508D02*
X18186848Y-15347984D01*
X18320182Y-15347984D02*
X18443991Y-15347984D01*
X18443991Y-15347984D02*
X18377325Y-15424174D01*
X18377325Y-15424174D02*
X18405896Y-15424174D01*
X18405896Y-15424174D02*
X18424944Y-15433698D01*
X18424944Y-15433698D02*
X18434468Y-15443222D01*
X18434468Y-15443222D02*
X18443991Y-15462269D01*
X18443991Y-15462269D02*
X18443991Y-15509888D01*
X18443991Y-15509888D02*
X18434468Y-15528936D01*
X18434468Y-15528936D02*
X18424944Y-15538460D01*
X18424944Y-15538460D02*
X18405896Y-15547984D01*
X18405896Y-15547984D02*
X18348753Y-15547984D01*
X18348753Y-15547984D02*
X18329706Y-15538460D01*
X18329706Y-15538460D02*
X18320182Y-15528936D01*
X18539229Y-15547984D02*
X18577325Y-15547984D01*
X18577325Y-15547984D02*
X18596372Y-15538460D01*
X18596372Y-15538460D02*
X18605896Y-15528936D01*
X18605896Y-15528936D02*
X18624944Y-15500365D01*
X18624944Y-15500365D02*
X18634468Y-15462269D01*
X18634468Y-15462269D02*
X18634468Y-15386079D01*
X18634468Y-15386079D02*
X18624944Y-15367031D01*
X18624944Y-15367031D02*
X18615420Y-15357508D01*
X18615420Y-15357508D02*
X18596372Y-15347984D01*
X18596372Y-15347984D02*
X18558277Y-15347984D01*
X18558277Y-15347984D02*
X18539229Y-15357508D01*
X18539229Y-15357508D02*
X18529706Y-15367031D01*
X18529706Y-15367031D02*
X18520182Y-15386079D01*
X18520182Y-15386079D02*
X18520182Y-15433698D01*
X18520182Y-15433698D02*
X18529706Y-15452746D01*
X18529706Y-15452746D02*
X18539229Y-15462269D01*
X18539229Y-15462269D02*
X18558277Y-15471793D01*
X18558277Y-15471793D02*
X18596372Y-15471793D01*
X18596372Y-15471793D02*
X18615420Y-15462269D01*
X18615420Y-15462269D02*
X18624944Y-15452746D01*
X18624944Y-15452746D02*
X18634468Y-15433698D01*
X18805896Y-15414650D02*
X18805896Y-15547984D01*
X18758277Y-15338460D02*
X18710658Y-15481317D01*
X18710658Y-15481317D02*
X18834468Y-15481317D01*
X18901134Y-15347984D02*
X18901134Y-15386079D01*
X18977325Y-15347984D02*
X18977325Y-15386079D01*
X19272563Y-15624174D02*
X19263039Y-15614650D01*
X19263039Y-15614650D02*
X19243991Y-15586079D01*
X19243991Y-15586079D02*
X19234468Y-15567031D01*
X19234468Y-15567031D02*
X19224944Y-15538460D01*
X19224944Y-15538460D02*
X19215420Y-15490841D01*
X19215420Y-15490841D02*
X19215420Y-15452746D01*
X19215420Y-15452746D02*
X19224944Y-15405127D01*
X19224944Y-15405127D02*
X19234468Y-15376555D01*
X19234468Y-15376555D02*
X19243991Y-15357508D01*
X19243991Y-15357508D02*
X19263039Y-15328936D01*
X19263039Y-15328936D02*
X19272563Y-15319412D01*
X19339230Y-15367031D02*
X19348753Y-15357508D01*
X19348753Y-15357508D02*
X19367801Y-15347984D01*
X19367801Y-15347984D02*
X19415420Y-15347984D01*
X19415420Y-15347984D02*
X19434468Y-15357508D01*
X19434468Y-15357508D02*
X19443991Y-15367031D01*
X19443991Y-15367031D02*
X19453515Y-15386079D01*
X19453515Y-15386079D02*
X19453515Y-15405127D01*
X19453515Y-15405127D02*
X19443991Y-15433698D01*
X19443991Y-15433698D02*
X19329706Y-15547984D01*
X19329706Y-15547984D02*
X19453515Y-15547984D01*
X19577325Y-15347984D02*
X19596372Y-15347984D01*
X19596372Y-15347984D02*
X19615420Y-15357508D01*
X19615420Y-15357508D02*
X19624944Y-15367031D01*
X19624944Y-15367031D02*
X19634468Y-15386079D01*
X19634468Y-15386079D02*
X19643991Y-15424174D01*
X19643991Y-15424174D02*
X19643991Y-15471793D01*
X19643991Y-15471793D02*
X19634468Y-15509888D01*
X19634468Y-15509888D02*
X19624944Y-15528936D01*
X19624944Y-15528936D02*
X19615420Y-15538460D01*
X19615420Y-15538460D02*
X19596372Y-15547984D01*
X19596372Y-15547984D02*
X19577325Y-15547984D01*
X19577325Y-15547984D02*
X19558277Y-15538460D01*
X19558277Y-15538460D02*
X19548753Y-15528936D01*
X19548753Y-15528936D02*
X19539230Y-15509888D01*
X19539230Y-15509888D02*
X19529706Y-15471793D01*
X19529706Y-15471793D02*
X19529706Y-15424174D01*
X19529706Y-15424174D02*
X19539230Y-15386079D01*
X19539230Y-15386079D02*
X19548753Y-15367031D01*
X19548753Y-15367031D02*
X19558277Y-15357508D01*
X19558277Y-15357508D02*
X19577325Y-15347984D01*
X19834468Y-15547984D02*
X19720182Y-15547984D01*
X19777325Y-15547984D02*
X19777325Y-15347984D01*
X19777325Y-15347984D02*
X19758277Y-15376555D01*
X19758277Y-15376555D02*
X19739230Y-15395603D01*
X19739230Y-15395603D02*
X19720182Y-15405127D01*
X20072563Y-15547984D02*
X20072563Y-15347984D01*
X20158277Y-15547984D02*
X20158277Y-15443222D01*
X20158277Y-15443222D02*
X20148753Y-15424174D01*
X20148753Y-15424174D02*
X20129706Y-15414650D01*
X20129706Y-15414650D02*
X20101134Y-15414650D01*
X20101134Y-15414650D02*
X20082087Y-15424174D01*
X20082087Y-15424174D02*
X20072563Y-15433698D01*
X20282087Y-15547984D02*
X20263039Y-15538460D01*
X20263039Y-15538460D02*
X20253515Y-15528936D01*
X20253515Y-15528936D02*
X20243992Y-15509888D01*
X20243992Y-15509888D02*
X20243992Y-15452746D01*
X20243992Y-15452746D02*
X20253515Y-15433698D01*
X20253515Y-15433698D02*
X20263039Y-15424174D01*
X20263039Y-15424174D02*
X20282087Y-15414650D01*
X20282087Y-15414650D02*
X20310658Y-15414650D01*
X20310658Y-15414650D02*
X20329706Y-15424174D01*
X20329706Y-15424174D02*
X20339230Y-15433698D01*
X20339230Y-15433698D02*
X20348753Y-15452746D01*
X20348753Y-15452746D02*
X20348753Y-15509888D01*
X20348753Y-15509888D02*
X20339230Y-15528936D01*
X20339230Y-15528936D02*
X20329706Y-15538460D01*
X20329706Y-15538460D02*
X20310658Y-15547984D01*
X20310658Y-15547984D02*
X20282087Y-15547984D01*
X20463039Y-15547984D02*
X20443992Y-15538460D01*
X20443992Y-15538460D02*
X20434468Y-15519412D01*
X20434468Y-15519412D02*
X20434468Y-15347984D01*
X20615420Y-15538460D02*
X20596373Y-15547984D01*
X20596373Y-15547984D02*
X20558277Y-15547984D01*
X20558277Y-15547984D02*
X20539230Y-15538460D01*
X20539230Y-15538460D02*
X20529706Y-15519412D01*
X20529706Y-15519412D02*
X20529706Y-15443222D01*
X20529706Y-15443222D02*
X20539230Y-15424174D01*
X20539230Y-15424174D02*
X20558277Y-15414650D01*
X20558277Y-15414650D02*
X20596373Y-15414650D01*
X20596373Y-15414650D02*
X20615420Y-15424174D01*
X20615420Y-15424174D02*
X20624944Y-15443222D01*
X20624944Y-15443222D02*
X20624944Y-15462269D01*
X20624944Y-15462269D02*
X20529706Y-15481317D01*
X20701134Y-15538460D02*
X20720182Y-15547984D01*
X20720182Y-15547984D02*
X20758277Y-15547984D01*
X20758277Y-15547984D02*
X20777325Y-15538460D01*
X20777325Y-15538460D02*
X20786849Y-15519412D01*
X20786849Y-15519412D02*
X20786849Y-15509888D01*
X20786849Y-15509888D02*
X20777325Y-15490841D01*
X20777325Y-15490841D02*
X20758277Y-15481317D01*
X20758277Y-15481317D02*
X20729706Y-15481317D01*
X20729706Y-15481317D02*
X20710658Y-15471793D01*
X20710658Y-15471793D02*
X20701134Y-15452746D01*
X20701134Y-15452746D02*
X20701134Y-15443222D01*
X20701134Y-15443222D02*
X20710658Y-15424174D01*
X20710658Y-15424174D02*
X20729706Y-15414650D01*
X20729706Y-15414650D02*
X20758277Y-15414650D01*
X20758277Y-15414650D02*
X20777325Y-15424174D01*
X20853515Y-15624174D02*
X20863039Y-15614650D01*
X20863039Y-15614650D02*
X20882087Y-15586079D01*
X20882087Y-15586079D02*
X20891611Y-15567031D01*
X20891611Y-15567031D02*
X20901134Y-15538460D01*
X20901134Y-15538460D02*
X20910658Y-15490841D01*
X20910658Y-15490841D02*
X20910658Y-15452746D01*
X20910658Y-15452746D02*
X20901134Y-15405127D01*
X20901134Y-15405127D02*
X20891611Y-15376555D01*
X20891611Y-15376555D02*
X20882087Y-15357508D01*
X20882087Y-15357508D02*
X20863039Y-15328936D01*
X20863039Y-15328936D02*
X20853515Y-15319412D01*
M02*
