%TF.GenerationSoftware,KiCad,Pcbnew,8.0.0*%
%TF.CreationDate,2025-01-16T15:15:28+02:00*%
%TF.ProjectId,diplomna_2024_sensors_pcb_layout,6469706c-6f6d-46e6-915f-323032345f73,rev?*%
%TF.SameCoordinates,Original*%
%TF.FileFunction,Copper,L4,Bot*%
%TF.FilePolarity,Positive*%
%FSLAX46Y46*%
G04 Gerber Fmt 4.6, Leading zero omitted, Abs format (unit mm)*
G04 Created by KiCad (PCBNEW 8.0.0) date 2025-01-16 15:15:28*
%MOMM*%
%LPD*%
G01*
G04 APERTURE LIST*
%TA.AperFunction,ComponentPad*%
%ADD10R,1.700000X1.700000*%
%TD*%
%TA.AperFunction,ComponentPad*%
%ADD11O,1.700000X1.700000*%
%TD*%
%TA.AperFunction,ComponentPad*%
%ADD12R,1.500000X1.500000*%
%TD*%
%TA.AperFunction,ComponentPad*%
%ADD13C,1.500000*%
%TD*%
%TA.AperFunction,ViaPad*%
%ADD14C,0.600000*%
%TD*%
G04 APERTURE END LIST*
D10*
%TO.P,REF\u002A\u002A,1*%
%TO.N,VIN*%
X174340000Y-68000000D03*
D11*
%TO.P,REF\u002A\u002A,2*%
%TO.N,GND*%
X176880000Y-68000000D03*
%TO.P,REF\u002A\u002A,3*%
%TO.N,SQW*%
X179420000Y-68000000D03*
%TO.P,REF\u002A\u002A,4*%
%TO.N,SCL*%
X181960000Y-68000000D03*
%TO.P,REF\u002A\u002A,5*%
%TO.N,SDA*%
X184500000Y-68000000D03*
%TD*%
D10*
%TO.P,REF\u002A\u002A,1*%
%TO.N,GND*%
X213000000Y-112000000D03*
D11*
%TO.P,REF\u002A\u002A,2*%
%TO.N,VIN*%
X213000000Y-114540000D03*
%TO.P,REF\u002A\u002A,3*%
%TO.N,miso*%
X213000000Y-117080000D03*
%TO.P,REF\u002A\u002A,4*%
%TO.N,mosi*%
X213000000Y-119620000D03*
%TO.P,REF\u002A\u002A,5*%
%TO.N,sck*%
X213000000Y-122160000D03*
%TO.P,REF\u002A\u002A,6*%
%TO.N,cs*%
X213000000Y-124700000D03*
%TD*%
D10*
%TO.P,REF\u002A\u002A,1*%
%TO.N,N/C*%
X202500000Y-138400000D03*
D11*
%TO.P,REF\u002A\u002A,2*%
X202500000Y-135860000D03*
%TO.P,REF\u002A\u002A,3*%
X202500000Y-133320000D03*
%TO.P,REF\u002A\u002A,4*%
X202500000Y-130780000D03*
%TO.P,REF\u002A\u002A,5*%
X202500000Y-128240000D03*
%TO.P,REF\u002A\u002A,6*%
X202500000Y-125700000D03*
%TO.P,REF\u002A\u002A,7*%
X202500000Y-123160000D03*
%TO.P,REF\u002A\u002A,8*%
X202500000Y-120620000D03*
%TO.P,REF\u002A\u002A,9*%
X202500000Y-118080000D03*
%TO.P,REF\u002A\u002A,10*%
X202500000Y-115540000D03*
%TO.P,REF\u002A\u002A,11*%
X202500000Y-113000000D03*
%TO.P,REF\u002A\u002A,12*%
%TO.N,cs*%
X202500000Y-110460000D03*
%TO.P,REF\u002A\u002A,13*%
X202500000Y-107920000D03*
%TO.P,REF\u002A\u002A,14*%
%TO.N,N/C*%
X202500000Y-105380000D03*
%TO.P,REF\u002A\u002A,15*%
X202500000Y-102840000D03*
%TO.P,REF\u002A\u002A,16*%
X202500000Y-100300000D03*
%TO.P,REF\u002A\u002A,17*%
X202500000Y-97760000D03*
%TO.P,REF\u002A\u002A,18*%
%TO.N,miso*%
X202500000Y-95220000D03*
%TO.P,REF\u002A\u002A,19*%
%TO.N,mosi*%
X202500000Y-92680000D03*
%TO.P,REF\u002A\u002A,20*%
%TO.N,sck*%
X202500000Y-90140000D03*
%TO.P,REF\u002A\u002A,21*%
%TO.N,N/C*%
X202500000Y-87600000D03*
%TO.P,REF\u002A\u002A,22*%
%TO.N,SDA*%
X202500000Y-85060000D03*
%TO.P,REF\u002A\u002A,23*%
%TO.N,SCL*%
X202500000Y-82520000D03*
%TO.P,REF\u002A\u002A,24*%
%TO.N,N/C*%
X202500000Y-79980000D03*
%TD*%
D10*
%TO.P,REF\u002A\u002A,1*%
%TO.N,VIN*%
X169000000Y-75460000D03*
D11*
%TO.P,REF\u002A\u002A,2*%
%TO.N,N/C*%
X169000000Y-78000000D03*
%TO.P,REF\u002A\u002A,3*%
%TO.N,GND*%
X169000000Y-80540000D03*
%TO.P,REF\u002A\u002A,4*%
%TO.N,SCL*%
X169000000Y-83080000D03*
%TO.P,REF\u002A\u002A,5*%
%TO.N,SDA*%
X169000000Y-85620000D03*
%TD*%
D10*
%TO.P,REF\u002A\u002A,1*%
%TO.N,N/C*%
X205500000Y-138400000D03*
D11*
%TO.P,REF\u002A\u002A,2*%
X205500000Y-135860000D03*
%TO.P,REF\u002A\u002A,3*%
X205500000Y-133320000D03*
%TO.P,REF\u002A\u002A,4*%
X205500000Y-130780000D03*
%TO.P,REF\u002A\u002A,5*%
X205500000Y-128240000D03*
%TO.P,REF\u002A\u002A,6*%
X205500000Y-125700000D03*
%TO.P,REF\u002A\u002A,7*%
X205500000Y-123160000D03*
%TO.P,REF\u002A\u002A,8*%
X205500000Y-120620000D03*
%TO.P,REF\u002A\u002A,9*%
X205500000Y-118080000D03*
%TO.P,REF\u002A\u002A,10*%
X205500000Y-115540000D03*
%TO.P,REF\u002A\u002A,11*%
X205500000Y-113000000D03*
%TO.P,REF\u002A\u002A,12*%
%TO.N,cs*%
X205500000Y-110460000D03*
%TO.P,REF\u002A\u002A,13*%
X205500000Y-107920000D03*
%TO.P,REF\u002A\u002A,14*%
%TO.N,N/C*%
X205500000Y-105380000D03*
%TO.P,REF\u002A\u002A,15*%
X205500000Y-102840000D03*
%TO.P,REF\u002A\u002A,16*%
X205500000Y-100300000D03*
%TO.P,REF\u002A\u002A,17*%
X205500000Y-97760000D03*
%TO.P,REF\u002A\u002A,18*%
%TO.N,miso*%
X205500000Y-95220000D03*
%TO.P,REF\u002A\u002A,19*%
%TO.N,mosi*%
X205500000Y-92680000D03*
%TO.P,REF\u002A\u002A,20*%
%TO.N,sck*%
X205500000Y-90140000D03*
%TO.P,REF\u002A\u002A,21*%
%TO.N,N/C*%
X205500000Y-87600000D03*
%TO.P,REF\u002A\u002A,22*%
%TO.N,SDA*%
X205500000Y-85060000D03*
%TO.P,REF\u002A\u002A,23*%
%TO.N,SCL*%
X205500000Y-82520000D03*
%TO.P,REF\u002A\u002A,24*%
%TO.N,N/C*%
X205500000Y-79980000D03*
%TD*%
D10*
%TO.P,REF\u002A\u002A,1*%
%TO.N,VIN*%
X176680000Y-136000000D03*
D11*
%TO.P,REF\u002A\u002A,2*%
%TO.N,GND*%
X179220000Y-136000000D03*
%TO.P,REF\u002A\u002A,3*%
%TO.N,EN*%
X181760000Y-136000000D03*
%TO.P,REF\u002A\u002A,4*%
%TO.N,N/C*%
X184300000Y-136000000D03*
%TO.P,REF\u002A\u002A,5*%
%TO.N,sck*%
X186840000Y-136000000D03*
%TO.P,REF\u002A\u002A,6*%
%TO.N,miso*%
X189380000Y-136000000D03*
%TO.P,REF\u002A\u002A,7*%
%TO.N,mosi*%
X191920000Y-136000000D03*
%TO.P,REF\u002A\u002A,8*%
%TO.N,cs*%
X194460000Y-136000000D03*
%TO.P,REF\u002A\u002A,9*%
%TO.N,RST*%
X197000000Y-136000000D03*
%TD*%
D10*
%TO.P,REF\u002A\u002A,1*%
%TO.N,VIN*%
X169000000Y-113000000D03*
D11*
%TO.P,REF\u002A\u002A,2*%
%TO.N,GND*%
X169000000Y-115540000D03*
%TO.P,REF\u002A\u002A,3*%
%TO.N,SCL*%
X169000000Y-118080000D03*
%TO.P,REF\u002A\u002A,4*%
%TO.N,SDA*%
X169000000Y-120620000D03*
%TD*%
D10*
%TO.P,REF\u002A\u002A,1*%
%TO.N,GND*%
X213000000Y-77960000D03*
D11*
%TO.P,REF\u002A\u002A,2*%
%TO.N,TX*%
X213000000Y-80500000D03*
%TO.P,REF\u002A\u002A,3*%
%TO.N,RX*%
X213000000Y-83040000D03*
%TO.P,REF\u002A\u002A,4*%
%TO.N,VIN*%
X213000000Y-85580000D03*
%TD*%
D12*
%TO.P,J\u002A\u002A,1*%
%TO.N,N/C*%
X233000000Y-54500000D03*
D13*
%TO.P,J\u002A\u002A,2*%
X231000000Y-54500000D03*
%TO.P,J\u002A\u002A,3*%
X229000000Y-54500000D03*
%TO.P,J\u002A\u002A,4*%
X227000000Y-54500000D03*
%TO.P,J\u002A\u002A,5*%
X225000000Y-54500000D03*
%TO.P,J\u002A\u002A,6*%
X223000000Y-54500000D03*
%TO.P,J\u002A\u002A,7*%
X221000000Y-54500000D03*
%TO.P,J\u002A\u002A,8*%
X219000000Y-54500000D03*
%TO.P,J\u002A\u002A,9*%
X217000000Y-54500000D03*
%TO.P,J\u002A\u002A,10*%
X215000000Y-54500000D03*
%TO.P,J\u002A\u002A,11*%
X213000000Y-54500000D03*
%TO.P,J\u002A\u002A,12*%
X211000000Y-54500000D03*
%TO.P,J\u002A\u002A,13*%
X209000000Y-54500000D03*
%TO.P,J\u002A\u002A,14*%
X207000000Y-54500000D03*
%TO.P,J\u002A\u002A,15*%
X205000000Y-54500000D03*
%TO.P,J\u002A\u002A,16*%
X203000000Y-54500000D03*
%TO.P,J\u002A\u002A,17*%
X201000000Y-54500000D03*
%TO.P,J\u002A\u002A,18*%
X199000000Y-54500000D03*
%TO.P,J\u002A\u002A,19*%
X197000000Y-54500000D03*
%TO.P,J\u002A\u002A,20*%
X195000000Y-54500000D03*
%TO.P,J\u002A\u002A,21*%
X193000000Y-54500000D03*
%TO.P,J\u002A\u002A,22*%
X191000000Y-54500000D03*
%TO.P,J\u002A\u002A,23*%
X189000000Y-54500000D03*
%TO.P,J\u002A\u002A,24*%
X187000000Y-54500000D03*
%TO.P,J\u002A\u002A,25*%
X185000000Y-54500000D03*
%TO.P,J\u002A\u002A,26*%
X183000000Y-54500000D03*
%TO.P,J\u002A\u002A,27*%
X181000000Y-54500000D03*
%TO.P,J\u002A\u002A,28*%
X179000000Y-54500000D03*
%TO.P,J\u002A\u002A,29*%
X177000000Y-54500000D03*
%TO.P,J\u002A\u002A,30*%
X175000000Y-54500000D03*
%TO.P,J\u002A\u002A,31*%
X233000000Y-56500000D03*
%TO.P,J\u002A\u002A,32*%
X231000000Y-56500000D03*
%TO.P,J\u002A\u002A,33*%
X229000000Y-56500000D03*
%TO.P,J\u002A\u002A,34*%
X227000000Y-56500000D03*
%TO.P,J\u002A\u002A,35*%
X225000000Y-56500000D03*
%TO.P,J\u002A\u002A,36*%
X223000000Y-56500000D03*
%TO.P,J\u002A\u002A,37*%
X221000000Y-56500000D03*
%TO.P,J\u002A\u002A,38*%
X219000000Y-56500000D03*
%TO.P,J\u002A\u002A,39*%
X217000000Y-56500000D03*
%TO.P,J\u002A\u002A,40*%
X215000000Y-56500000D03*
%TO.P,J\u002A\u002A,41*%
X213000000Y-56500000D03*
%TO.P,J\u002A\u002A,42*%
X211000000Y-56500000D03*
%TO.P,J\u002A\u002A,43*%
X209000000Y-56500000D03*
%TO.P,J\u002A\u002A,44*%
X207000000Y-56500000D03*
%TO.P,J\u002A\u002A,45*%
X205000000Y-56500000D03*
%TO.P,J\u002A\u002A,46*%
X203000000Y-56500000D03*
%TO.P,J\u002A\u002A,47*%
X201000000Y-56500000D03*
%TO.P,J\u002A\u002A,48*%
X199000000Y-56500000D03*
%TO.P,J\u002A\u002A,49*%
X197000000Y-56500000D03*
%TO.P,J\u002A\u002A,50*%
X195000000Y-56500000D03*
%TO.P,J\u002A\u002A,51*%
X193000000Y-56500000D03*
%TO.P,J\u002A\u002A,52*%
X191000000Y-56500000D03*
%TO.P,J\u002A\u002A,53*%
X189000000Y-56500000D03*
%TO.P,J\u002A\u002A,54*%
X187000000Y-56500000D03*
%TO.P,J\u002A\u002A,55*%
X185000000Y-56500000D03*
%TO.P,J\u002A\u002A,56*%
X183000000Y-56500000D03*
%TO.P,J\u002A\u002A,57*%
X181000000Y-56500000D03*
%TO.P,J\u002A\u002A,58*%
X179000000Y-56500000D03*
%TO.P,J\u002A\u002A,59*%
X177000000Y-56500000D03*
%TO.P,J\u002A\u002A,60*%
X175000000Y-56500000D03*
%TO.P,J\u002A\u002A,61*%
X233000000Y-58500000D03*
%TO.P,J\u002A\u002A,62*%
X231000000Y-58500000D03*
%TO.P,J\u002A\u002A,63*%
X229000000Y-58500000D03*
%TO.P,J\u002A\u002A,64*%
X227000000Y-58500000D03*
%TO.P,J\u002A\u002A,65*%
X225000000Y-58500000D03*
%TO.P,J\u002A\u002A,66*%
X223000000Y-58500000D03*
%TO.P,J\u002A\u002A,67*%
X221000000Y-58500000D03*
%TO.P,J\u002A\u002A,68*%
X219000000Y-58500000D03*
%TO.P,J\u002A\u002A,69*%
X217000000Y-58500000D03*
%TO.P,J\u002A\u002A,70*%
X215000000Y-58500000D03*
%TO.P,J\u002A\u002A,71*%
X213000000Y-58500000D03*
%TO.P,J\u002A\u002A,72*%
X211000000Y-58500000D03*
%TO.P,J\u002A\u002A,73*%
X209000000Y-58500000D03*
%TO.P,J\u002A\u002A,74*%
X207000000Y-58500000D03*
%TO.P,J\u002A\u002A,75*%
X205000000Y-58500000D03*
%TO.P,J\u002A\u002A,76*%
X203000000Y-58500000D03*
%TO.P,J\u002A\u002A,77*%
X201000000Y-58500000D03*
%TO.P,J\u002A\u002A,78*%
X199000000Y-58500000D03*
%TO.P,J\u002A\u002A,79*%
X197000000Y-58500000D03*
%TO.P,J\u002A\u002A,80*%
X195000000Y-58500000D03*
%TO.P,J\u002A\u002A,81*%
X193000000Y-58500000D03*
%TO.P,J\u002A\u002A,82*%
X191000000Y-58500000D03*
%TO.P,J\u002A\u002A,83*%
X189000000Y-58500000D03*
%TO.P,J\u002A\u002A,84*%
X187000000Y-58500000D03*
%TO.P,J\u002A\u002A,85*%
X185000000Y-58500000D03*
%TO.P,J\u002A\u002A,86*%
X183000000Y-58500000D03*
%TO.P,J\u002A\u002A,87*%
X181000000Y-58500000D03*
%TO.P,J\u002A\u002A,88*%
X179000000Y-58500000D03*
%TO.P,J\u002A\u002A,89*%
X177000000Y-58500000D03*
%TO.P,J\u002A\u002A,90*%
%TO.N,VIN*%
X175000000Y-58500000D03*
%TO.P,J\u002A\u002A,91*%
%TO.N,N/C*%
X233000000Y-60500000D03*
%TO.P,J\u002A\u002A,92*%
X231000000Y-60500000D03*
%TO.P,J\u002A\u002A,93*%
X229000000Y-60500000D03*
%TO.P,J\u002A\u002A,94*%
X227000000Y-60500000D03*
%TO.P,J\u002A\u002A,95*%
X225000000Y-60500000D03*
%TO.P,J\u002A\u002A,96*%
X223000000Y-60500000D03*
%TO.P,J\u002A\u002A,97*%
X221000000Y-60500000D03*
%TO.P,J\u002A\u002A,98*%
X219000000Y-60500000D03*
%TO.P,J\u002A\u002A,99*%
X217000000Y-60500000D03*
%TO.P,J\u002A\u002A,100*%
X215000000Y-60500000D03*
%TO.P,J\u002A\u002A,101*%
X213000000Y-60500000D03*
%TO.P,J\u002A\u002A,102*%
X211000000Y-60500000D03*
%TO.P,J\u002A\u002A,103*%
X209000000Y-60500000D03*
%TO.P,J\u002A\u002A,104*%
X207000000Y-60500000D03*
%TO.P,J\u002A\u002A,105*%
X205000000Y-60500000D03*
%TO.P,J\u002A\u002A,106*%
X203000000Y-60500000D03*
%TO.P,J\u002A\u002A,107*%
X201000000Y-60500000D03*
%TO.P,J\u002A\u002A,108*%
X199000000Y-60500000D03*
%TO.P,J\u002A\u002A,109*%
%TO.N,RST*%
X197000000Y-60500000D03*
%TO.P,J\u002A\u002A,110*%
%TO.N,cs*%
X195000000Y-60500000D03*
%TO.P,J\u002A\u002A,111*%
%TO.N,N/C*%
X193000000Y-60500000D03*
%TO.P,J\u002A\u002A,112*%
X191000000Y-60500000D03*
%TO.P,J\u002A\u002A,113*%
X189000000Y-60500000D03*
%TO.P,J\u002A\u002A,114*%
%TO.N,TX*%
X187000000Y-60500000D03*
%TO.P,J\u002A\u002A,115*%
%TO.N,RX*%
X185000000Y-60500000D03*
%TO.P,J\u002A\u002A,116*%
%TO.N,SQW*%
X183000000Y-60500000D03*
%TO.P,J\u002A\u002A,117*%
%TO.N,N/C*%
X181000000Y-60500000D03*
%TO.P,J\u002A\u002A,118*%
X179000000Y-60500000D03*
%TO.P,J\u002A\u002A,119*%
X177000000Y-60500000D03*
%TO.P,J\u002A\u002A,120*%
%TO.N,VIN*%
X175000000Y-60500000D03*
%TD*%
D14*
%TO.N,SCL*%
X196000000Y-87500000D03*
%TO.N,miso*%
X189500000Y-131500000D03*
%TO.N,mosi*%
X210000000Y-119000000D03*
%TO.N,cs*%
X194500000Y-117000000D03*
%TO.N,sck*%
X210000000Y-121500000D03*
%TD*%
M02*
